M48
;GenerationSoftware,Autodesk,EAGLE,9.6.2*%
;CreationDate,2023-07-05T20:20:25Z*%
FMAT,2
ICI,OFF
METRIC,TZ,000.000
T6C0.350
T5C0.813
T4C0.914
T3C1.000
T2C1.016
T1C3.000
%
G90
M71
T1
X5000Y70000
X29000Y70000
X29000Y16000
X5000Y16000
T2
X34000Y22005
X34000Y19465
X34000Y16925
X34000Y14385
X42858Y64312
X44654Y66108
X44654Y62516
X46450Y64312
X46450Y60720
X48246Y62516
X48246Y58924
X50042Y60720
X33699Y71101
X33699Y68561
X33699Y66021
X33699Y63481
T3
X19540Y24700
X17000Y24700
X14460Y24700
X14460Y61300
X17000Y61300
X19540Y61300
T4
X457Y67583
X457Y65043
X38000Y14730
X38000Y17270
T5
X69329Y38227
X68671Y35773
X69329Y47773
X68671Y50227
X59603Y30313
X57807Y28517
X58653Y56252
X56857Y58048
X62237Y32322
X64033Y34118
X61712Y53763
X63508Y51967
X69000Y41730
X69000Y44270
T6
X72104Y43110
X56254Y51340
X53511Y57436
X29432Y62618
X86991Y73029
X87077Y13192
X29432Y45244
X24860Y34881
X40710Y59874
X6096Y36576
X5962Y40062
X3524Y48292
X7315Y47854
X12973Y38538
X29432Y39758
X36138Y39453
X45586Y51645
X18764Y27566
X21202Y27261
X9620Y24213
X12058Y27261
X20593Y47682
X2134Y56693
X7620Y49682
X6096Y49682
X4877Y49682
X2134Y58217
X2134Y59741
X5486Y43282
X61741Y42806
X60318Y35998
X60166Y50070
X62960Y48292
X28042Y42672
X39014Y40843
X28042Y22860
X19812Y40234
X18288Y45110
X15240Y44501
X26518Y36271
X22555Y42317
X25603Y39319
X31394Y48158
X39319Y60960
X30175Y48768
X34747Y59131
X35662Y24689
X35662Y29261
X38710Y36576
X83382Y8058
X77895Y33966
X83382Y18117
X78200Y35186
X15411Y32138
X79419Y35186
X83382Y37929
X71799Y37319
X83077Y47987
X77286Y49206
X83077Y58046
X77286Y50426
X83077Y68104
X77590Y51950
X83382Y77858
X76205Y52054
X57880Y37878
X51784Y48800
X44806Y40234
X40538Y32614
X47549Y52730
X83382Y13240
X83382Y22994
X83077Y32747
X82296Y40843
X82772Y53169
X83077Y62922
X83077Y72981
X83210Y46025
X74238Y39453
X64992Y43212
X46634Y33223
X53950Y51206
X57880Y36862
X51206Y51816
X79114Y44939
X84125Y44196
X88392Y44501
X71088Y45498
X47244Y34442
X46330Y41148
X18764Y58046
X20898Y58046
X19069Y36710
X20898Y36710
X46025Y39929
X28956Y49682
X36271Y60046
X37186Y47854
X40843Y58522
X45110Y28042
X26822Y24079
X22860Y16764
X32614Y56083
X29566Y58522
X23165Y67970
X32918Y34747
X31090Y37795
X56864Y35795
X37662Y26042
X5658Y20860
X16326Y17202
X24860Y57131
X25165Y69018
X8401Y69018
X38271Y71457
X36747Y52254
X32480Y61094
X29432Y54998
X23031Y46158
X44062Y45244
X36747Y44634
X42234Y39453
X40100Y35490
X34309Y35186
X33090Y30614
X59607Y43415
X49549Y30614
X41624Y20860
X30042Y20860
X64618Y51206
X50597Y43282
X44196Y55169
X38100Y31394
X52426Y42062
X49987Y37490
X46333Y35361
X47244Y21336
X43282Y17678
X76981Y44939
X72358Y45752
X74542Y42196
X74542Y40977
X75457Y44939
X8706Y58350
X9925Y30614
X26384Y50730
X24555Y29394
X13887Y53474
X7486Y58350
X9925Y32747
X83382Y27870
M30