G04 EAGLE Gerber RS-274X export*
G75*
%MOMM*%
%FSLAX34Y34*%
%LPD*%
%INBottom Copper*%
%IPPOS*%
%AMOC8*
5,1,8,0,0,1.08239X$1,22.5*%
G01*
%ADD10R,1.600000X1.300000*%
%ADD11R,0.300000X0.800000*%
%ADD12R,2.400000X2.200000*%
%ADD13R,1.300000X0.850000*%
%ADD14C,0.304800*%
%ADD15C,0.756400*%

G36*
X65558Y-10156D02*
X65558Y-10156D01*
X65584Y-10158D01*
X65731Y-10136D01*
X65878Y-10119D01*
X65903Y-10111D01*
X65929Y-10107D01*
X66067Y-10052D01*
X66206Y-10002D01*
X66228Y-9988D01*
X66253Y-9978D01*
X66374Y-9893D01*
X66499Y-9813D01*
X66517Y-9794D01*
X66539Y-9779D01*
X66638Y-9669D01*
X66741Y-9562D01*
X66755Y-9540D01*
X66772Y-9520D01*
X66844Y-9390D01*
X66920Y-9263D01*
X66928Y-9238D01*
X66941Y-9215D01*
X66981Y-9072D01*
X67026Y-8931D01*
X67028Y-8905D01*
X67036Y-8880D01*
X67055Y-8636D01*
X67055Y-8135D01*
X67041Y-8009D01*
X67034Y-7883D01*
X67021Y-7837D01*
X67015Y-7789D01*
X66973Y-7670D01*
X66938Y-7548D01*
X66914Y-7506D01*
X66898Y-7461D01*
X66829Y-7355D01*
X66768Y-7244D01*
X66728Y-7198D01*
X66709Y-7168D01*
X66674Y-7134D01*
X66609Y-7058D01*
X65605Y-6054D01*
X64797Y-4104D01*
X64797Y-1992D01*
X65605Y-42D01*
X66609Y962D01*
X66673Y1043D01*
X66729Y1101D01*
X66740Y1119D01*
X66772Y1155D01*
X66796Y1197D01*
X66826Y1235D01*
X66880Y1349D01*
X66904Y1393D01*
X66908Y1400D01*
X66908Y1401D01*
X66941Y1460D01*
X66954Y1506D01*
X66975Y1550D01*
X67001Y1673D01*
X67036Y1795D01*
X67041Y1856D01*
X67048Y1891D01*
X67047Y1939D01*
X67055Y2039D01*
X67055Y4311D01*
X71889Y9145D01*
X79238Y9145D01*
X79364Y9159D01*
X79490Y9166D01*
X79536Y9179D01*
X79584Y9185D01*
X79703Y9227D01*
X79825Y9262D01*
X79867Y9286D01*
X79913Y9302D01*
X80019Y9371D01*
X80129Y9432D01*
X80175Y9472D01*
X80205Y9491D01*
X80239Y9526D01*
X80315Y9591D01*
X80405Y9681D01*
X80484Y9780D01*
X80568Y9874D01*
X80592Y9916D01*
X80622Y9954D01*
X80676Y10068D01*
X80737Y10179D01*
X80750Y10225D01*
X80771Y10269D01*
X80797Y10392D01*
X80832Y10514D01*
X80837Y10575D01*
X80844Y10610D01*
X80843Y10658D01*
X80851Y10758D01*
X80851Y13472D01*
X81744Y14365D01*
X94677Y14365D01*
X94802Y14379D01*
X94928Y14386D01*
X94975Y14399D01*
X95023Y14405D01*
X95142Y14447D01*
X95263Y14482D01*
X95305Y14506D01*
X95351Y14522D01*
X95457Y14591D01*
X95567Y14652D01*
X95614Y14692D01*
X95644Y14711D01*
X95677Y14746D01*
X95754Y14811D01*
X95816Y14873D01*
X96395Y15208D01*
X97041Y15381D01*
X97353Y15381D01*
X97353Y8840D01*
X97356Y8814D01*
X97353Y8788D01*
X97375Y8641D01*
X97392Y8494D01*
X97401Y8469D01*
X97405Y8443D01*
X97460Y8306D01*
X97510Y8166D01*
X97524Y8144D01*
X97534Y8120D01*
X97618Y7998D01*
X97699Y7873D01*
X97718Y7855D01*
X97733Y7833D01*
X97843Y7734D01*
X97950Y7631D01*
X97973Y7617D01*
X97992Y7599D01*
X98122Y7528D01*
X98249Y7452D01*
X98274Y7444D01*
X98297Y7431D01*
X98440Y7391D01*
X98581Y7345D01*
X98607Y7343D01*
X98633Y7336D01*
X98876Y7317D01*
X102917Y7317D01*
X102917Y4505D01*
X102744Y3859D01*
X102409Y3280D01*
X101936Y2807D01*
X101820Y2740D01*
X101779Y2709D01*
X101733Y2686D01*
X101639Y2606D01*
X101540Y2532D01*
X101507Y2493D01*
X101468Y2460D01*
X101394Y2361D01*
X101314Y2266D01*
X101291Y2221D01*
X101261Y2180D01*
X101212Y2066D01*
X101155Y1956D01*
X101143Y1907D01*
X101123Y1860D01*
X101101Y1738D01*
X101071Y1618D01*
X101070Y1567D01*
X101061Y1517D01*
X101067Y1393D01*
X101065Y1270D01*
X101076Y1220D01*
X101079Y1169D01*
X101113Y1050D01*
X101139Y929D01*
X101161Y883D01*
X101176Y834D01*
X101236Y726D01*
X101289Y614D01*
X101321Y574D01*
X101346Y530D01*
X101504Y343D01*
X102191Y-343D01*
X102290Y-422D01*
X102384Y-506D01*
X102426Y-530D01*
X102464Y-560D01*
X102578Y-614D01*
X102689Y-675D01*
X102735Y-688D01*
X102779Y-709D01*
X102902Y-735D01*
X103024Y-770D01*
X103085Y-775D01*
X103120Y-782D01*
X103168Y-781D01*
X103268Y-789D01*
X104688Y-789D01*
X106638Y-1597D01*
X108131Y-3090D01*
X108939Y-5040D01*
X108939Y-7152D01*
X108565Y-8053D01*
X108524Y-8198D01*
X108478Y-8341D01*
X108476Y-8365D01*
X108470Y-8388D01*
X108462Y-8539D01*
X108450Y-8688D01*
X108454Y-8712D01*
X108453Y-8736D01*
X108480Y-8884D01*
X108502Y-9033D01*
X108511Y-9055D01*
X108515Y-9079D01*
X108575Y-9217D01*
X108631Y-9357D01*
X108644Y-9377D01*
X108654Y-9399D01*
X108744Y-9520D01*
X108830Y-9643D01*
X108848Y-9659D01*
X108862Y-9679D01*
X108977Y-9776D01*
X109088Y-9876D01*
X109110Y-9888D01*
X109128Y-9904D01*
X109262Y-9972D01*
X109393Y-10045D01*
X109417Y-10051D01*
X109438Y-10062D01*
X109584Y-10099D01*
X109729Y-10140D01*
X109758Y-10142D01*
X109776Y-10147D01*
X109823Y-10147D01*
X109973Y-10159D01*
X114946Y-10159D01*
X115072Y-10145D01*
X115198Y-10138D01*
X115244Y-10125D01*
X115292Y-10119D01*
X115411Y-10077D01*
X115533Y-10042D01*
X115575Y-10018D01*
X115621Y-10002D01*
X115727Y-9933D01*
X115837Y-9872D01*
X115883Y-9832D01*
X115913Y-9813D01*
X115947Y-9778D01*
X116023Y-9713D01*
X126327Y591D01*
X126406Y690D01*
X126490Y784D01*
X126514Y826D01*
X126544Y864D01*
X126598Y978D01*
X126659Y1089D01*
X126672Y1135D01*
X126693Y1179D01*
X126719Y1302D01*
X126754Y1424D01*
X126759Y1485D01*
X126766Y1519D01*
X126765Y1568D01*
X126773Y1668D01*
X126773Y3088D01*
X127581Y5038D01*
X129074Y6531D01*
X131024Y7339D01*
X132444Y7339D01*
X132570Y7353D01*
X132696Y7360D01*
X132742Y7373D01*
X132790Y7379D01*
X132909Y7421D01*
X133031Y7456D01*
X133073Y7480D01*
X133119Y7496D01*
X133225Y7565D01*
X133335Y7626D01*
X133381Y7666D01*
X133411Y7685D01*
X133445Y7720D01*
X133521Y7785D01*
X135451Y9715D01*
X135514Y9793D01*
X135584Y9866D01*
X135622Y9930D01*
X135668Y9988D01*
X135711Y10079D01*
X135762Y10165D01*
X135785Y10236D01*
X135817Y10303D01*
X135838Y10401D01*
X135869Y10497D01*
X135875Y10571D01*
X135890Y10644D01*
X135889Y10744D01*
X135897Y10844D01*
X135886Y10918D01*
X135884Y10992D01*
X135860Y11089D01*
X135845Y11189D01*
X135817Y11258D01*
X135799Y11330D01*
X135753Y11419D01*
X135716Y11513D01*
X135674Y11574D01*
X135640Y11640D01*
X135575Y11716D01*
X135517Y11799D01*
X135462Y11849D01*
X135414Y11905D01*
X135333Y11965D01*
X135258Y12032D01*
X135193Y12068D01*
X135134Y12113D01*
X135041Y12152D01*
X134953Y12201D01*
X134882Y12221D01*
X134814Y12251D01*
X134715Y12268D01*
X134618Y12296D01*
X134518Y12304D01*
X134471Y12312D01*
X134435Y12310D01*
X134374Y12315D01*
X110744Y12315D01*
X109851Y13208D01*
X109851Y44412D01*
X109848Y44438D01*
X109850Y44464D01*
X109828Y44611D01*
X109811Y44758D01*
X109803Y44783D01*
X109799Y44809D01*
X109744Y44947D01*
X109694Y45086D01*
X109680Y45108D01*
X109670Y45133D01*
X109586Y45254D01*
X109505Y45379D01*
X109486Y45397D01*
X109471Y45419D01*
X109361Y45518D01*
X109254Y45621D01*
X109232Y45635D01*
X109212Y45652D01*
X109082Y45724D01*
X108955Y45800D01*
X108930Y45808D01*
X108907Y45821D01*
X108764Y45861D01*
X108623Y45906D01*
X108597Y45908D01*
X108572Y45916D01*
X108328Y45935D01*
X107414Y45935D01*
X107388Y45932D01*
X107362Y45934D01*
X107215Y45912D01*
X107068Y45895D01*
X107043Y45887D01*
X107017Y45883D01*
X106879Y45828D01*
X106740Y45778D01*
X106718Y45764D01*
X106693Y45754D01*
X106572Y45669D01*
X106447Y45589D01*
X106429Y45570D01*
X106407Y45555D01*
X106308Y45445D01*
X106205Y45338D01*
X106191Y45316D01*
X106174Y45296D01*
X106102Y45166D01*
X106026Y45039D01*
X106018Y45014D01*
X106005Y44991D01*
X105965Y44848D01*
X105958Y44826D01*
X105083Y42714D01*
X103590Y41221D01*
X101640Y40413D01*
X99528Y40413D01*
X97578Y41221D01*
X96085Y42714D01*
X95231Y44777D01*
X95229Y44783D01*
X95225Y44809D01*
X95170Y44947D01*
X95120Y45086D01*
X95106Y45108D01*
X95096Y45133D01*
X95012Y45254D01*
X94931Y45379D01*
X94912Y45397D01*
X94897Y45419D01*
X94787Y45518D01*
X94680Y45621D01*
X94658Y45635D01*
X94638Y45652D01*
X94508Y45724D01*
X94381Y45800D01*
X94356Y45808D01*
X94333Y45821D01*
X94190Y45861D01*
X94049Y45906D01*
X94023Y45908D01*
X93998Y45916D01*
X93754Y45935D01*
X74424Y45935D01*
X74398Y45932D01*
X74372Y45934D01*
X74225Y45912D01*
X74078Y45895D01*
X74053Y45887D01*
X74027Y45883D01*
X73889Y45828D01*
X73750Y45778D01*
X73728Y45764D01*
X73703Y45754D01*
X73582Y45669D01*
X73457Y45589D01*
X73439Y45570D01*
X73417Y45555D01*
X73318Y45445D01*
X73215Y45338D01*
X73201Y45316D01*
X73184Y45296D01*
X73112Y45166D01*
X73036Y45039D01*
X73028Y45014D01*
X73015Y44991D01*
X72975Y44848D01*
X72930Y44707D01*
X72928Y44681D01*
X72920Y44656D01*
X72901Y44412D01*
X72901Y13208D01*
X72008Y12315D01*
X46744Y12315D01*
X45851Y13208D01*
X45851Y36472D01*
X46744Y37365D01*
X55328Y37365D01*
X55354Y37368D01*
X55380Y37366D01*
X55527Y37388D01*
X55674Y37405D01*
X55699Y37413D01*
X55725Y37417D01*
X55863Y37472D01*
X56002Y37522D01*
X56024Y37536D01*
X56049Y37546D01*
X56170Y37631D01*
X56295Y37711D01*
X56313Y37730D01*
X56335Y37745D01*
X56434Y37855D01*
X56537Y37962D01*
X56551Y37984D01*
X56568Y38004D01*
X56640Y38134D01*
X56716Y38261D01*
X56724Y38286D01*
X56737Y38309D01*
X56777Y38452D01*
X56822Y38593D01*
X56824Y38619D01*
X56832Y38644D01*
X56851Y38888D01*
X56851Y44412D01*
X56848Y44438D01*
X56850Y44464D01*
X56828Y44611D01*
X56811Y44758D01*
X56803Y44783D01*
X56799Y44809D01*
X56744Y44947D01*
X56694Y45086D01*
X56680Y45108D01*
X56670Y45133D01*
X56586Y45254D01*
X56505Y45379D01*
X56486Y45397D01*
X56471Y45419D01*
X56361Y45518D01*
X56254Y45621D01*
X56232Y45635D01*
X56212Y45652D01*
X56082Y45724D01*
X55955Y45800D01*
X55930Y45808D01*
X55907Y45821D01*
X55764Y45861D01*
X55623Y45906D01*
X55597Y45908D01*
X55572Y45916D01*
X55328Y45935D01*
X1684Y45935D01*
X1658Y45932D01*
X1632Y45934D01*
X1485Y45912D01*
X1338Y45895D01*
X1313Y45887D01*
X1287Y45883D01*
X1149Y45828D01*
X1010Y45778D01*
X988Y45764D01*
X963Y45754D01*
X842Y45669D01*
X717Y45589D01*
X699Y45570D01*
X677Y45555D01*
X578Y45445D01*
X475Y45338D01*
X461Y45316D01*
X444Y45296D01*
X372Y45166D01*
X296Y45039D01*
X288Y45014D01*
X275Y44991D01*
X235Y44848D01*
X190Y44707D01*
X188Y44681D01*
X180Y44656D01*
X161Y44412D01*
X161Y-8636D01*
X164Y-8662D01*
X162Y-8688D01*
X184Y-8835D01*
X201Y-8982D01*
X209Y-9007D01*
X213Y-9033D01*
X268Y-9171D01*
X318Y-9310D01*
X332Y-9332D01*
X342Y-9357D01*
X427Y-9478D01*
X507Y-9603D01*
X526Y-9621D01*
X541Y-9643D01*
X651Y-9742D01*
X758Y-9845D01*
X780Y-9859D01*
X800Y-9876D01*
X930Y-9948D01*
X1057Y-10024D01*
X1082Y-10032D01*
X1105Y-10045D01*
X1248Y-10085D01*
X1389Y-10130D01*
X1415Y-10132D01*
X1440Y-10140D01*
X1684Y-10159D01*
X65532Y-10159D01*
X65558Y-10156D01*
G37*
G36*
X178342Y-10156D02*
X178342Y-10156D01*
X178368Y-10158D01*
X178515Y-10136D01*
X178662Y-10119D01*
X178687Y-10111D01*
X178713Y-10107D01*
X178851Y-10052D01*
X178990Y-10002D01*
X179012Y-9988D01*
X179037Y-9978D01*
X179158Y-9893D01*
X179283Y-9813D01*
X179301Y-9794D01*
X179323Y-9779D01*
X179422Y-9669D01*
X179525Y-9562D01*
X179539Y-9540D01*
X179556Y-9520D01*
X179628Y-9390D01*
X179704Y-9263D01*
X179712Y-9238D01*
X179725Y-9215D01*
X179765Y-9072D01*
X179810Y-8931D01*
X179812Y-8905D01*
X179820Y-8880D01*
X179839Y-8636D01*
X179839Y44412D01*
X179836Y44438D01*
X179838Y44464D01*
X179816Y44611D01*
X179799Y44758D01*
X179791Y44783D01*
X179787Y44809D01*
X179732Y44947D01*
X179682Y45086D01*
X179668Y45108D01*
X179658Y45133D01*
X179574Y45254D01*
X179493Y45379D01*
X179474Y45397D01*
X179459Y45419D01*
X179349Y45518D01*
X179242Y45621D01*
X179220Y45635D01*
X179200Y45652D01*
X179070Y45724D01*
X178943Y45800D01*
X178918Y45808D01*
X178895Y45821D01*
X178752Y45861D01*
X178611Y45906D01*
X178585Y45908D01*
X178560Y45916D01*
X178316Y45935D01*
X156908Y45935D01*
X156882Y45932D01*
X156856Y45934D01*
X156709Y45912D01*
X156562Y45895D01*
X156537Y45887D01*
X156511Y45883D01*
X156373Y45828D01*
X156234Y45778D01*
X156212Y45764D01*
X156187Y45754D01*
X156066Y45669D01*
X155941Y45589D01*
X155923Y45570D01*
X155901Y45555D01*
X155802Y45445D01*
X155699Y45338D01*
X155685Y45316D01*
X155668Y45296D01*
X155596Y45166D01*
X155520Y45039D01*
X155512Y45014D01*
X155499Y44991D01*
X155459Y44848D01*
X155414Y44707D01*
X155412Y44681D01*
X155404Y44656D01*
X155385Y44412D01*
X155385Y43744D01*
X155388Y43718D01*
X155386Y43692D01*
X155408Y43545D01*
X155425Y43398D01*
X155433Y43373D01*
X155437Y43347D01*
X155492Y43209D01*
X155542Y43070D01*
X155556Y43048D01*
X155566Y43023D01*
X155651Y42902D01*
X155731Y42777D01*
X155750Y42759D01*
X155765Y42737D01*
X155875Y42638D01*
X155982Y42535D01*
X156004Y42521D01*
X156024Y42504D01*
X156154Y42432D01*
X156281Y42356D01*
X156306Y42348D01*
X156329Y42335D01*
X156472Y42295D01*
X156613Y42250D01*
X156639Y42248D01*
X156664Y42240D01*
X156908Y42221D01*
X160968Y42221D01*
X161861Y41328D01*
X161861Y27064D01*
X160569Y25773D01*
X160553Y25753D01*
X160533Y25736D01*
X160445Y25616D01*
X160353Y25500D01*
X160342Y25476D01*
X160326Y25455D01*
X160267Y25319D01*
X160204Y25185D01*
X160198Y25159D01*
X160188Y25135D01*
X160162Y24989D01*
X160130Y24844D01*
X160131Y24818D01*
X160126Y24792D01*
X160134Y24644D01*
X160136Y24496D01*
X160143Y24470D01*
X160144Y24444D01*
X160185Y24302D01*
X160221Y24158D01*
X160233Y24135D01*
X160241Y24109D01*
X160313Y23979D01*
X160381Y23848D01*
X160398Y23828D01*
X160411Y23805D01*
X160569Y23619D01*
X161861Y22328D01*
X161861Y8064D01*
X160968Y7171D01*
X143704Y7171D01*
X143695Y7181D01*
X143674Y7197D01*
X143657Y7217D01*
X143538Y7306D01*
X143422Y7398D01*
X143398Y7409D01*
X143377Y7424D01*
X143241Y7483D01*
X143107Y7547D01*
X143081Y7552D01*
X143057Y7562D01*
X142911Y7589D01*
X142766Y7620D01*
X142740Y7619D01*
X142714Y7624D01*
X142566Y7616D01*
X142418Y7614D01*
X142392Y7608D01*
X142366Y7606D01*
X142223Y7565D01*
X142080Y7529D01*
X142056Y7517D01*
X142031Y7510D01*
X141901Y7437D01*
X141770Y7369D01*
X141750Y7352D01*
X141727Y7339D01*
X141541Y7181D01*
X137833Y3473D01*
X137754Y3374D01*
X137670Y3280D01*
X137646Y3238D01*
X137616Y3200D01*
X137562Y3086D01*
X137501Y2975D01*
X137488Y2929D01*
X137467Y2885D01*
X137441Y2762D01*
X137406Y2640D01*
X137401Y2579D01*
X137394Y2544D01*
X137395Y2496D01*
X137387Y2396D01*
X137387Y976D01*
X136579Y-974D01*
X135086Y-2467D01*
X133136Y-3275D01*
X131716Y-3275D01*
X131590Y-3289D01*
X131464Y-3296D01*
X131418Y-3309D01*
X131370Y-3315D01*
X131251Y-3357D01*
X131129Y-3392D01*
X131087Y-3416D01*
X131041Y-3432D01*
X130935Y-3501D01*
X130825Y-3562D01*
X130779Y-3602D01*
X130749Y-3621D01*
X130715Y-3656D01*
X130639Y-3721D01*
X126801Y-7559D01*
X126738Y-7637D01*
X126668Y-7710D01*
X126630Y-7774D01*
X126584Y-7832D01*
X126541Y-7923D01*
X126490Y-8009D01*
X126467Y-8080D01*
X126435Y-8147D01*
X126414Y-8245D01*
X126383Y-8341D01*
X126377Y-8415D01*
X126362Y-8488D01*
X126363Y-8588D01*
X126355Y-8688D01*
X126366Y-8762D01*
X126368Y-8836D01*
X126392Y-8933D01*
X126407Y-9033D01*
X126435Y-9102D01*
X126453Y-9174D01*
X126499Y-9264D01*
X126536Y-9357D01*
X126578Y-9418D01*
X126612Y-9484D01*
X126678Y-9561D01*
X126735Y-9643D01*
X126790Y-9693D01*
X126838Y-9749D01*
X126919Y-9809D01*
X126994Y-9876D01*
X127059Y-9912D01*
X127118Y-9957D01*
X127211Y-9996D01*
X127299Y-10045D01*
X127370Y-10065D01*
X127438Y-10095D01*
X127537Y-10112D01*
X127634Y-10140D01*
X127734Y-10148D01*
X127781Y-10156D01*
X127817Y-10154D01*
X127878Y-10159D01*
X178316Y-10159D01*
X178342Y-10156D01*
G37*
%LPC*%
G36*
X100399Y10363D02*
X100399Y10363D01*
X100399Y15381D01*
X100711Y15381D01*
X101357Y15208D01*
X101936Y14873D01*
X102409Y14400D01*
X102744Y13821D01*
X102917Y13175D01*
X102917Y10363D01*
X100399Y10363D01*
G37*
%LPD*%
D10*
X152336Y34196D03*
X152336Y15196D03*
D11*
X83876Y8840D03*
X88876Y8840D03*
X93876Y8840D03*
X98876Y8840D03*
D12*
X59376Y24840D03*
D13*
X64876Y40090D03*
X117876Y40090D03*
D12*
X123376Y24840D03*
D14*
X83876Y8840D02*
X81132Y6096D01*
X73152Y6096D01*
X70104Y3048D01*
X70104Y-3048D01*
D15*
X70104Y-3048D03*
X132080Y2032D03*
D14*
X145244Y15196D01*
X152336Y15196D01*
X132080Y2032D02*
X115824Y-14224D01*
X70104Y-7112D02*
X70104Y-3048D01*
X77216Y-14224D02*
X115824Y-14224D01*
X77216Y-14224D02*
X70104Y-7112D01*
X98876Y10484D02*
X115824Y27432D01*
X98876Y10484D02*
X98876Y8840D01*
D15*
X115824Y27432D03*
X10160Y-3048D03*
X170688Y23368D03*
X88392Y-3048D03*
D14*
X88876Y-2564D02*
X88876Y8840D01*
X88876Y-2564D02*
X88392Y-3048D01*
X93876Y3660D02*
X93876Y8840D01*
X93876Y3660D02*
X103632Y-6096D01*
D15*
X103632Y-6096D03*
X100584Y45720D03*
D14*
X100584Y48768D01*
X103632Y51816D01*
X146304Y51816D01*
X152336Y45784D02*
X152336Y34196D01*
X152336Y45784D02*
X146304Y51816D01*
M02*
