G04 EAGLE Gerber RS-274X export*
G75*
%MOMM*%
%FSLAX34Y34*%
%LPD*%
%INTop Copper*%
%IPPOS*%
%AMOC8*
5,1,8,0,0,1.08239X$1,22.5*%
G01*
%ADD10R,1.300000X1.500000*%
%ADD11R,1.600000X1.300000*%
%ADD12R,1.397000X0.348000*%
%ADD13R,0.470000X0.600000*%
%ADD14R,1.300000X1.600000*%
%ADD15R,0.300000X0.800000*%
%ADD16R,2.400000X2.200000*%
%ADD17R,1.300000X0.850000*%
%ADD18C,0.558800*%
%ADD19C,0.756400*%
%ADD20C,0.406400*%
%ADD21C,0.304800*%

G36*
X367911Y360163D02*
X367911Y360163D01*
X367931Y360161D01*
X368111Y360183D01*
X368291Y360201D01*
X368310Y360207D01*
X368331Y360209D01*
X368503Y360266D01*
X368676Y360319D01*
X368694Y360329D01*
X368713Y360335D01*
X368870Y360424D01*
X369030Y360511D01*
X369045Y360524D01*
X369063Y360534D01*
X369200Y360653D01*
X369339Y360768D01*
X369352Y360784D01*
X369367Y360798D01*
X369478Y360941D01*
X369591Y361082D01*
X369601Y361100D01*
X369613Y361117D01*
X369694Y361280D01*
X369777Y361439D01*
X369782Y361459D01*
X369792Y361478D01*
X369838Y361653D01*
X369888Y361826D01*
X369890Y361847D01*
X369895Y361867D01*
X369906Y362047D01*
X369921Y362228D01*
X369919Y362248D01*
X369920Y362269D01*
X369895Y362448D01*
X369874Y362627D01*
X369868Y362647D01*
X369865Y362668D01*
X369805Y362838D01*
X369749Y363010D01*
X369739Y363028D01*
X369732Y363048D01*
X369568Y363336D01*
X363405Y372377D01*
X359836Y383946D01*
X359836Y396054D01*
X363405Y407623D01*
X370225Y417627D01*
X379691Y425176D01*
X390962Y429599D01*
X403035Y430504D01*
X414839Y427810D01*
X425325Y421756D01*
X433560Y412881D01*
X438813Y401972D01*
X440441Y391175D01*
X440455Y391118D01*
X440461Y391060D01*
X440505Y390924D01*
X440540Y390785D01*
X440565Y390732D01*
X440583Y390676D01*
X440652Y390551D01*
X440714Y390422D01*
X440749Y390375D01*
X440778Y390324D01*
X440870Y390215D01*
X440956Y390101D01*
X441000Y390062D01*
X441038Y390017D01*
X441151Y389928D01*
X441257Y389833D01*
X441308Y389804D01*
X441354Y389767D01*
X441482Y389703D01*
X441605Y389631D01*
X441661Y389611D01*
X441713Y389585D01*
X441851Y389547D01*
X441986Y389500D01*
X442044Y389493D01*
X442101Y389477D01*
X442244Y389466D01*
X442385Y389448D01*
X442444Y389452D01*
X442503Y389448D01*
X442644Y389465D01*
X442787Y389475D01*
X442844Y389491D01*
X442902Y389498D01*
X443038Y389544D01*
X443175Y389581D01*
X443228Y389607D01*
X443284Y389626D01*
X443407Y389697D01*
X443535Y389762D01*
X443582Y389798D01*
X443633Y389827D01*
X443789Y389960D01*
X443853Y390010D01*
X443866Y390025D01*
X443886Y390042D01*
X445368Y391525D01*
X470632Y391525D01*
X471525Y390632D01*
X471525Y362192D01*
X471527Y362174D01*
X471525Y362156D01*
X471546Y361974D01*
X471565Y361791D01*
X471570Y361774D01*
X471572Y361757D01*
X471629Y361582D01*
X471683Y361406D01*
X471691Y361391D01*
X471697Y361374D01*
X471787Y361214D01*
X471875Y361052D01*
X471886Y361039D01*
X471895Y361023D01*
X472015Y360884D01*
X472132Y360743D01*
X472146Y360732D01*
X472158Y360718D01*
X472303Y360606D01*
X472446Y360491D01*
X472462Y360483D01*
X472476Y360472D01*
X472641Y360390D01*
X472803Y360305D01*
X472820Y360300D01*
X472836Y360292D01*
X473015Y360245D01*
X473190Y360194D01*
X473208Y360192D01*
X473225Y360188D01*
X473556Y360161D01*
X526444Y360161D01*
X526462Y360163D01*
X526480Y360161D01*
X526662Y360182D01*
X526845Y360201D01*
X526862Y360206D01*
X526879Y360208D01*
X527054Y360265D01*
X527230Y360319D01*
X527245Y360327D01*
X527262Y360333D01*
X527422Y360423D01*
X527584Y360511D01*
X527597Y360522D01*
X527613Y360531D01*
X527752Y360651D01*
X527893Y360768D01*
X527904Y360782D01*
X527918Y360794D01*
X528030Y360939D01*
X528145Y361082D01*
X528153Y361098D01*
X528164Y361112D01*
X528246Y361277D01*
X528331Y361439D01*
X528336Y361456D01*
X528344Y361472D01*
X528391Y361651D01*
X528442Y361826D01*
X528444Y361844D01*
X528448Y361861D01*
X528475Y362192D01*
X528475Y390632D01*
X529368Y391525D01*
X554632Y391525D01*
X555525Y390632D01*
X555525Y367368D01*
X554632Y366475D01*
X546556Y366475D01*
X546538Y366473D01*
X546520Y366475D01*
X546338Y366454D01*
X546155Y366435D01*
X546138Y366430D01*
X546121Y366428D01*
X545946Y366371D01*
X545770Y366317D01*
X545755Y366309D01*
X545738Y366303D01*
X545578Y366213D01*
X545416Y366125D01*
X545403Y366114D01*
X545387Y366105D01*
X545248Y365985D01*
X545107Y365868D01*
X545096Y365854D01*
X545082Y365842D01*
X544970Y365697D01*
X544855Y365554D01*
X544847Y365538D01*
X544836Y365524D01*
X544754Y365359D01*
X544669Y365197D01*
X544664Y365180D01*
X544656Y365164D01*
X544609Y364985D01*
X544558Y364810D01*
X544556Y364792D01*
X544552Y364775D01*
X544525Y364444D01*
X544525Y362192D01*
X544527Y362174D01*
X544525Y362156D01*
X544546Y361974D01*
X544565Y361791D01*
X544570Y361774D01*
X544572Y361757D01*
X544629Y361582D01*
X544683Y361406D01*
X544691Y361391D01*
X544697Y361374D01*
X544787Y361214D01*
X544875Y361052D01*
X544886Y361039D01*
X544895Y361023D01*
X545015Y360884D01*
X545132Y360743D01*
X545146Y360732D01*
X545158Y360718D01*
X545303Y360606D01*
X545446Y360491D01*
X545462Y360483D01*
X545476Y360472D01*
X545641Y360390D01*
X545803Y360305D01*
X545820Y360300D01*
X545836Y360292D01*
X546015Y360245D01*
X546190Y360194D01*
X546208Y360192D01*
X546225Y360188D01*
X546556Y360161D01*
X567890Y360161D01*
X567910Y360163D01*
X567931Y360161D01*
X568111Y360183D01*
X568291Y360201D01*
X568310Y360207D01*
X568331Y360209D01*
X568502Y360266D01*
X568675Y360319D01*
X568694Y360329D01*
X568713Y360335D01*
X568870Y360424D01*
X569030Y360511D01*
X569045Y360524D01*
X569063Y360534D01*
X569200Y360653D01*
X569339Y360768D01*
X569352Y360784D01*
X569367Y360798D01*
X569478Y360941D01*
X569591Y361082D01*
X569601Y361100D01*
X569613Y361117D01*
X569694Y361280D01*
X569777Y361439D01*
X569782Y361459D01*
X569792Y361478D01*
X569838Y361653D01*
X569888Y361826D01*
X569890Y361847D01*
X569895Y361867D01*
X569906Y362047D01*
X569921Y362228D01*
X569918Y362248D01*
X569920Y362269D01*
X569895Y362448D01*
X569874Y362627D01*
X569868Y362647D01*
X569865Y362668D01*
X569805Y362838D01*
X569749Y363010D01*
X569739Y363028D01*
X569732Y363048D01*
X569568Y363336D01*
X563405Y372377D01*
X559836Y383946D01*
X559836Y396054D01*
X563405Y407623D01*
X570225Y417627D01*
X579691Y425176D01*
X590962Y429599D01*
X603035Y430504D01*
X614839Y427810D01*
X625325Y421756D01*
X633560Y412881D01*
X638813Y401972D01*
X640618Y390000D01*
X638813Y378028D01*
X633560Y367119D01*
X630270Y363574D01*
X630166Y363436D01*
X630058Y363302D01*
X630045Y363276D01*
X630027Y363253D01*
X629952Y363098D01*
X629872Y362945D01*
X629864Y362917D01*
X629852Y362890D01*
X629809Y362723D01*
X629761Y362558D01*
X629759Y362529D01*
X629751Y362500D01*
X629742Y362328D01*
X629728Y362156D01*
X629732Y362127D01*
X629730Y362098D01*
X629755Y361928D01*
X629775Y361757D01*
X629784Y361729D01*
X629788Y361700D01*
X629846Y361538D01*
X629900Y361374D01*
X629914Y361348D01*
X629924Y361321D01*
X630013Y361174D01*
X630098Y361023D01*
X630117Y361001D01*
X630132Y360976D01*
X630248Y360849D01*
X630361Y360718D01*
X630384Y360701D01*
X630404Y360679D01*
X630543Y360577D01*
X630679Y360472D01*
X630705Y360459D01*
X630729Y360441D01*
X630885Y360369D01*
X631040Y360292D01*
X631068Y360285D01*
X631094Y360273D01*
X631262Y360233D01*
X631428Y360188D01*
X631461Y360185D01*
X631486Y360179D01*
X631571Y360176D01*
X631759Y360161D01*
X667890Y360161D01*
X667910Y360163D01*
X667931Y360161D01*
X668111Y360183D01*
X668291Y360201D01*
X668310Y360207D01*
X668331Y360209D01*
X668502Y360266D01*
X668675Y360319D01*
X668694Y360329D01*
X668713Y360335D01*
X668870Y360424D01*
X669030Y360511D01*
X669045Y360524D01*
X669063Y360534D01*
X669200Y360653D01*
X669339Y360768D01*
X669352Y360784D01*
X669367Y360798D01*
X669478Y360941D01*
X669591Y361082D01*
X669601Y361100D01*
X669613Y361117D01*
X669694Y361280D01*
X669777Y361439D01*
X669782Y361459D01*
X669792Y361478D01*
X669838Y361653D01*
X669888Y361826D01*
X669890Y361847D01*
X669895Y361867D01*
X669906Y362047D01*
X669921Y362228D01*
X669918Y362248D01*
X669920Y362269D01*
X669895Y362448D01*
X669874Y362627D01*
X669868Y362647D01*
X669865Y362668D01*
X669805Y362838D01*
X669749Y363010D01*
X669739Y363028D01*
X669732Y363048D01*
X669568Y363336D01*
X663405Y372377D01*
X659836Y383946D01*
X659836Y396054D01*
X663405Y407623D01*
X670225Y417627D01*
X679691Y425176D01*
X690962Y429599D01*
X703035Y430504D01*
X714839Y427810D01*
X725325Y421756D01*
X733560Y412881D01*
X735978Y407860D01*
X736056Y407733D01*
X736127Y407602D01*
X736160Y407561D01*
X736188Y407516D01*
X736289Y407407D01*
X736384Y407292D01*
X736425Y407259D01*
X736461Y407221D01*
X736582Y407133D01*
X736698Y407040D01*
X736745Y407016D01*
X736787Y406985D01*
X736923Y406923D01*
X737055Y406855D01*
X737106Y406840D01*
X737154Y406818D01*
X737299Y406784D01*
X737442Y406743D01*
X737495Y406739D01*
X737546Y406727D01*
X737695Y406722D01*
X737844Y406710D01*
X737896Y406716D01*
X737949Y406715D01*
X738095Y406740D01*
X738243Y406757D01*
X738293Y406774D01*
X738345Y406782D01*
X738485Y406836D01*
X738626Y406882D01*
X738672Y406908D01*
X738721Y406927D01*
X738847Y407007D01*
X738977Y407080D01*
X739017Y407114D01*
X739061Y407143D01*
X739169Y407246D01*
X739282Y407343D01*
X739314Y407385D01*
X739352Y407421D01*
X739437Y407543D01*
X739528Y407661D01*
X739552Y407708D01*
X739582Y407752D01*
X739641Y407888D01*
X739708Y408022D01*
X739721Y408073D01*
X739742Y408121D01*
X739773Y408267D01*
X739812Y408411D01*
X739817Y408470D01*
X739827Y408515D01*
X739828Y408599D01*
X739839Y408741D01*
X739839Y432021D01*
X741386Y435756D01*
X742864Y437234D01*
X742870Y437241D01*
X742877Y437246D01*
X742997Y437396D01*
X743119Y437545D01*
X743124Y437553D01*
X743129Y437560D01*
X743218Y437730D01*
X743308Y437901D01*
X743311Y437910D01*
X743315Y437917D01*
X743368Y438102D01*
X743423Y438287D01*
X743424Y438296D01*
X743426Y438304D01*
X743442Y438495D01*
X743459Y438688D01*
X743458Y438697D01*
X743459Y438706D01*
X743437Y438895D01*
X743416Y439088D01*
X743413Y439097D01*
X743412Y439105D01*
X743353Y439287D01*
X743294Y439472D01*
X743290Y439480D01*
X743287Y439488D01*
X743193Y439655D01*
X743099Y439824D01*
X743094Y439831D01*
X743089Y439839D01*
X742964Y439984D01*
X742839Y440131D01*
X742832Y440137D01*
X742826Y440144D01*
X742676Y440260D01*
X742523Y440381D01*
X742515Y440385D01*
X742508Y440390D01*
X742337Y440476D01*
X742164Y440563D01*
X742156Y440566D01*
X742147Y440570D01*
X741962Y440620D01*
X741776Y440671D01*
X741767Y440672D01*
X741759Y440674D01*
X741428Y440701D01*
X548117Y440701D01*
X548099Y440699D01*
X548081Y440701D01*
X547899Y440680D01*
X547716Y440661D01*
X547699Y440656D01*
X547682Y440654D01*
X547507Y440597D01*
X547331Y440543D01*
X547316Y440535D01*
X547299Y440529D01*
X547139Y440439D01*
X546977Y440351D01*
X546964Y440340D01*
X546948Y440331D01*
X546809Y440211D01*
X546668Y440094D01*
X546657Y440080D01*
X546643Y440068D01*
X546531Y439923D01*
X546416Y439780D01*
X546408Y439764D01*
X546397Y439750D01*
X546315Y439585D01*
X546230Y439423D01*
X546225Y439406D01*
X546217Y439390D01*
X546188Y439281D01*
X536560Y439281D01*
X527034Y439281D01*
X527034Y439325D01*
X527207Y439971D01*
X527576Y440610D01*
X527600Y440640D01*
X527710Y440775D01*
X527723Y440799D01*
X527739Y440820D01*
X527817Y440977D01*
X527899Y441131D01*
X527907Y441156D01*
X527919Y441180D01*
X527964Y441350D01*
X528014Y441517D01*
X528016Y441543D01*
X528023Y441569D01*
X528050Y441900D01*
X528050Y446615D01*
X528051Y446617D01*
X528053Y446635D01*
X528057Y446653D01*
X528071Y446835D01*
X528087Y447018D01*
X528085Y447036D01*
X528087Y447054D01*
X528064Y447235D01*
X528050Y447359D01*
X528050Y453115D01*
X528051Y453117D01*
X528053Y453135D01*
X528057Y453153D01*
X528071Y453335D01*
X528087Y453518D01*
X528085Y453536D01*
X528087Y453554D01*
X528064Y453735D01*
X528050Y453859D01*
X528050Y459615D01*
X528051Y459617D01*
X528053Y459635D01*
X528057Y459653D01*
X528071Y459835D01*
X528087Y460018D01*
X528085Y460036D01*
X528087Y460054D01*
X528064Y460235D01*
X528050Y460359D01*
X528050Y466115D01*
X528051Y466117D01*
X528053Y466135D01*
X528057Y466153D01*
X528071Y466335D01*
X528087Y466518D01*
X528085Y466536D01*
X528087Y466554D01*
X528064Y466735D01*
X528050Y466859D01*
X528050Y472614D01*
X528051Y472616D01*
X528052Y472634D01*
X528057Y472652D01*
X528071Y472835D01*
X528087Y473017D01*
X528085Y473035D01*
X528087Y473053D01*
X528064Y473236D01*
X528050Y473359D01*
X528050Y479115D01*
X528051Y479117D01*
X528053Y479135D01*
X528057Y479153D01*
X528071Y479335D01*
X528087Y479518D01*
X528085Y479536D01*
X528087Y479554D01*
X528064Y479735D01*
X528050Y479859D01*
X528050Y485615D01*
X528051Y485617D01*
X528053Y485635D01*
X528057Y485653D01*
X528071Y485835D01*
X528087Y486018D01*
X528085Y486036D01*
X528087Y486054D01*
X528064Y486235D01*
X528050Y486359D01*
X528050Y489400D01*
X528048Y489418D01*
X528050Y489436D01*
X528029Y489618D01*
X528010Y489801D01*
X528005Y489818D01*
X528003Y489835D01*
X527946Y490010D01*
X527892Y490186D01*
X527884Y490201D01*
X527878Y490218D01*
X527788Y490378D01*
X527700Y490540D01*
X527689Y490553D01*
X527680Y490569D01*
X527560Y490708D01*
X527443Y490849D01*
X527429Y490860D01*
X527417Y490874D01*
X527272Y490986D01*
X527129Y491101D01*
X527113Y491109D01*
X527099Y491120D01*
X526934Y491202D01*
X526772Y491287D01*
X526755Y491292D01*
X526739Y491300D01*
X526560Y491347D01*
X526385Y491398D01*
X526367Y491400D01*
X526350Y491404D01*
X526019Y491431D01*
X525390Y491431D01*
X525377Y491430D01*
X525363Y491431D01*
X525177Y491410D01*
X524989Y491391D01*
X524977Y491387D01*
X524963Y491386D01*
X524784Y491328D01*
X524605Y491273D01*
X524593Y491267D01*
X524580Y491263D01*
X524416Y491171D01*
X524251Y491081D01*
X524240Y491073D01*
X524228Y491066D01*
X524085Y490944D01*
X523941Y490824D01*
X523933Y490813D01*
X523923Y490804D01*
X523806Y490656D01*
X523689Y490510D01*
X523683Y490498D01*
X523674Y490487D01*
X523589Y490318D01*
X523503Y490153D01*
X523500Y490140D01*
X523494Y490128D01*
X523444Y489946D01*
X523392Y489766D01*
X523391Y489752D01*
X523387Y489739D01*
X523375Y489552D01*
X523359Y489364D01*
X523361Y489351D01*
X523360Y489338D01*
X523384Y489151D01*
X523406Y488965D01*
X523410Y488952D01*
X523412Y488938D01*
X523467Y488768D01*
X523467Y486624D01*
X522659Y484674D01*
X521166Y483181D01*
X519216Y482373D01*
X517104Y482373D01*
X515154Y483181D01*
X513661Y484674D01*
X512828Y486686D01*
X512813Y486713D01*
X512803Y486743D01*
X512718Y486891D01*
X512638Y487041D01*
X512618Y487065D01*
X512602Y487092D01*
X512387Y487345D01*
X506855Y492877D01*
X505355Y494378D01*
X504697Y495965D01*
X504697Y505264D01*
X504695Y505282D01*
X504697Y505300D01*
X504676Y505482D01*
X504657Y505665D01*
X504652Y505682D01*
X504650Y505699D01*
X504593Y505874D01*
X504539Y506050D01*
X504531Y506065D01*
X504525Y506082D01*
X504435Y506242D01*
X504347Y506404D01*
X504336Y506417D01*
X504327Y506433D01*
X504207Y506572D01*
X504090Y506713D01*
X504076Y506724D01*
X504064Y506738D01*
X503919Y506850D01*
X503776Y506965D01*
X503760Y506973D01*
X503746Y506984D01*
X503581Y507066D01*
X503419Y507151D01*
X503402Y507156D01*
X503386Y507164D01*
X503207Y507211D01*
X503032Y507262D01*
X503014Y507264D01*
X502997Y507268D01*
X502666Y507295D01*
X502112Y507295D01*
X501883Y507525D01*
X501819Y507577D01*
X501762Y507636D01*
X501664Y507704D01*
X501571Y507780D01*
X501499Y507819D01*
X501431Y507865D01*
X501321Y507913D01*
X501215Y507969D01*
X501137Y507992D01*
X501061Y508025D01*
X500944Y508049D01*
X500830Y508083D01*
X500747Y508091D01*
X500667Y508108D01*
X500548Y508109D01*
X500429Y508120D01*
X500347Y508111D01*
X500264Y508112D01*
X500147Y508089D01*
X500028Y508076D01*
X499950Y508052D01*
X499869Y508036D01*
X499758Y507991D01*
X499644Y507955D01*
X499572Y507915D01*
X499496Y507884D01*
X499397Y507818D01*
X499292Y507760D01*
X499229Y507707D01*
X499161Y507661D01*
X499076Y507577D01*
X498985Y507500D01*
X498934Y507435D01*
X498876Y507377D01*
X498835Y507318D01*
X498304Y506787D01*
X497725Y506452D01*
X497079Y506279D01*
X493493Y506279D01*
X493493Y515102D01*
X493491Y515120D01*
X493493Y515137D01*
X493472Y515320D01*
X493453Y515502D01*
X493448Y515519D01*
X493446Y515537D01*
X493389Y515712D01*
X493335Y515887D01*
X493327Y515903D01*
X493321Y515920D01*
X493231Y516080D01*
X493143Y516241D01*
X493132Y516255D01*
X493123Y516271D01*
X493078Y516323D01*
X493163Y516428D01*
X493171Y516444D01*
X493182Y516458D01*
X493264Y516623D01*
X493349Y516786D01*
X493354Y516803D01*
X493362Y516819D01*
X493409Y516997D01*
X493460Y517172D01*
X493462Y517190D01*
X493466Y517207D01*
X493493Y517538D01*
X493493Y537774D01*
X493491Y537792D01*
X493493Y537809D01*
X493472Y537992D01*
X493453Y538174D01*
X493448Y538191D01*
X493446Y538209D01*
X493389Y538384D01*
X493335Y538559D01*
X493327Y538575D01*
X493321Y538592D01*
X493231Y538752D01*
X493143Y538913D01*
X493132Y538927D01*
X493123Y538943D01*
X493078Y538995D01*
X493163Y539100D01*
X493171Y539116D01*
X493182Y539130D01*
X493264Y539295D01*
X493349Y539458D01*
X493354Y539475D01*
X493362Y539491D01*
X493409Y539669D01*
X493460Y539844D01*
X493462Y539862D01*
X493466Y539879D01*
X493493Y540210D01*
X493493Y549033D01*
X497079Y549033D01*
X497725Y548860D01*
X498304Y548525D01*
X498855Y547975D01*
X498922Y547881D01*
X498982Y547825D01*
X499035Y547762D01*
X499129Y547688D01*
X499216Y547607D01*
X499287Y547564D01*
X499351Y547512D01*
X499458Y547458D01*
X499559Y547396D01*
X499637Y547367D01*
X499710Y547330D01*
X499825Y547298D01*
X499937Y547257D01*
X500019Y547244D01*
X500098Y547222D01*
X500217Y547213D01*
X500335Y547195D01*
X500417Y547199D01*
X500500Y547193D01*
X500618Y547208D01*
X500737Y547213D01*
X500817Y547233D01*
X500899Y547243D01*
X501012Y547281D01*
X501128Y547310D01*
X501203Y547345D01*
X501281Y547371D01*
X501384Y547431D01*
X501492Y547482D01*
X501558Y547531D01*
X501630Y547572D01*
X501746Y547671D01*
X501815Y547722D01*
X501842Y547753D01*
X501883Y547787D01*
X502112Y548017D01*
X502894Y548017D01*
X502912Y548019D01*
X502930Y548017D01*
X503112Y548038D01*
X503295Y548057D01*
X503312Y548062D01*
X503329Y548064D01*
X503504Y548121D01*
X503680Y548175D01*
X503695Y548183D01*
X503712Y548189D01*
X503872Y548279D01*
X504034Y548367D01*
X504047Y548378D01*
X504063Y548387D01*
X504202Y548507D01*
X504343Y548624D01*
X504354Y548638D01*
X504368Y548650D01*
X504480Y548795D01*
X504595Y548938D01*
X504603Y548954D01*
X504614Y548968D01*
X504696Y549133D01*
X504781Y549295D01*
X504786Y549312D01*
X504794Y549328D01*
X504841Y549507D01*
X504892Y549682D01*
X504894Y549700D01*
X504898Y549717D01*
X504925Y550048D01*
X504925Y552775D01*
X505583Y554362D01*
X510228Y559008D01*
X510234Y559015D01*
X510241Y559020D01*
X510361Y559170D01*
X510483Y559319D01*
X510487Y559327D01*
X510493Y559334D01*
X510581Y559504D01*
X510672Y559675D01*
X510674Y559684D01*
X510678Y559691D01*
X510732Y559876D01*
X510787Y560061D01*
X510787Y560070D01*
X510790Y560078D01*
X510806Y560269D01*
X510823Y560462D01*
X510822Y560471D01*
X510823Y560480D01*
X510801Y560668D01*
X510780Y560862D01*
X510777Y560871D01*
X510776Y560879D01*
X510716Y561061D01*
X510658Y561246D01*
X510654Y561254D01*
X510651Y561262D01*
X510556Y561431D01*
X510463Y561598D01*
X510458Y561605D01*
X510453Y561613D01*
X510328Y561758D01*
X510203Y561905D01*
X510196Y561911D01*
X510190Y561918D01*
X510039Y562035D01*
X509887Y562155D01*
X509879Y562159D01*
X509872Y562164D01*
X509700Y562250D01*
X509528Y562337D01*
X509519Y562340D01*
X509511Y562344D01*
X509325Y562394D01*
X509140Y562445D01*
X509131Y562446D01*
X509123Y562448D01*
X508792Y562475D01*
X491368Y562475D01*
X490475Y563368D01*
X490475Y577632D01*
X491407Y578564D01*
X491419Y578577D01*
X491432Y578589D01*
X491547Y578734D01*
X491662Y578875D01*
X491671Y578891D01*
X491682Y578905D01*
X491765Y579069D01*
X491851Y579231D01*
X491856Y579248D01*
X491864Y579264D01*
X491914Y579441D01*
X491966Y579617D01*
X491967Y579635D01*
X491972Y579652D01*
X491986Y579835D01*
X492002Y580018D01*
X492000Y580036D01*
X492002Y580053D01*
X491979Y580235D01*
X491959Y580418D01*
X491953Y580435D01*
X491951Y580453D01*
X491893Y580626D01*
X491837Y580802D01*
X491829Y580818D01*
X491823Y580834D01*
X491732Y580993D01*
X491643Y581154D01*
X491631Y581168D01*
X491622Y581183D01*
X491407Y581436D01*
X490475Y582368D01*
X490475Y583150D01*
X490473Y583168D01*
X490475Y583186D01*
X490454Y583368D01*
X490435Y583551D01*
X490430Y583568D01*
X490428Y583585D01*
X490371Y583760D01*
X490317Y583936D01*
X490309Y583951D01*
X490303Y583968D01*
X490213Y584128D01*
X490125Y584290D01*
X490114Y584303D01*
X490105Y584319D01*
X489985Y584458D01*
X489868Y584599D01*
X489854Y584610D01*
X489842Y584624D01*
X489697Y584736D01*
X489554Y584851D01*
X489538Y584859D01*
X489524Y584870D01*
X489359Y584952D01*
X489197Y585037D01*
X489180Y585042D01*
X489164Y585050D01*
X488985Y585097D01*
X488810Y585148D01*
X488792Y585150D01*
X488775Y585154D01*
X488444Y585181D01*
X481556Y585181D01*
X481538Y585179D01*
X481520Y585181D01*
X481338Y585160D01*
X481155Y585141D01*
X481138Y585136D01*
X481121Y585134D01*
X480946Y585077D01*
X480770Y585023D01*
X480755Y585015D01*
X480738Y585009D01*
X480578Y584919D01*
X480416Y584831D01*
X480403Y584820D01*
X480387Y584811D01*
X480248Y584691D01*
X480107Y584574D01*
X480096Y584560D01*
X480082Y584548D01*
X479970Y584403D01*
X479855Y584260D01*
X479847Y584244D01*
X479836Y584230D01*
X479754Y584065D01*
X479669Y583903D01*
X479664Y583886D01*
X479656Y583870D01*
X479609Y583691D01*
X479558Y583516D01*
X479556Y583498D01*
X479552Y583481D01*
X479525Y583150D01*
X479525Y582368D01*
X478593Y581436D01*
X478581Y581422D01*
X478568Y581411D01*
X478454Y581267D01*
X478338Y581125D01*
X478329Y581109D01*
X478318Y581095D01*
X478235Y580931D01*
X478149Y580769D01*
X478144Y580752D01*
X478136Y580736D01*
X478086Y580559D01*
X478034Y580383D01*
X478033Y580365D01*
X478028Y580348D01*
X478014Y580165D01*
X477998Y579982D01*
X478000Y579964D01*
X477998Y579947D01*
X478021Y579765D01*
X478041Y579582D01*
X478047Y579565D01*
X478049Y579547D01*
X478107Y579373D01*
X478163Y579198D01*
X478171Y579182D01*
X478177Y579166D01*
X478269Y579007D01*
X478357Y578846D01*
X478369Y578832D01*
X478378Y578817D01*
X478593Y578564D01*
X479525Y577632D01*
X479525Y565141D01*
X479527Y565115D01*
X479525Y565088D01*
X479547Y564915D01*
X479565Y564741D01*
X479573Y564715D01*
X479576Y564689D01*
X479632Y564523D01*
X479683Y564356D01*
X479696Y564332D01*
X479704Y564307D01*
X479792Y564155D01*
X479875Y564002D01*
X479892Y563981D01*
X479905Y563958D01*
X479968Y563884D01*
X480795Y561888D01*
X480795Y559776D01*
X479987Y557826D01*
X478494Y556333D01*
X476544Y555525D01*
X475080Y555525D01*
X475062Y555523D01*
X475044Y555525D01*
X474862Y555504D01*
X474679Y555485D01*
X474662Y555480D01*
X474645Y555478D01*
X474470Y555421D01*
X474294Y555367D01*
X474279Y555359D01*
X474262Y555353D01*
X474102Y555263D01*
X473940Y555175D01*
X473927Y555164D01*
X473911Y555155D01*
X473772Y555035D01*
X473631Y554918D01*
X473620Y554904D01*
X473606Y554892D01*
X473494Y554747D01*
X473379Y554604D01*
X473371Y554588D01*
X473360Y554574D01*
X473278Y554409D01*
X473193Y554247D01*
X473188Y554230D01*
X473180Y554214D01*
X473133Y554035D01*
X473082Y553860D01*
X473080Y553842D01*
X473076Y553825D01*
X473049Y553494D01*
X473049Y547985D01*
X451700Y526636D01*
X451683Y526615D01*
X451662Y526598D01*
X451555Y526460D01*
X451445Y526325D01*
X451432Y526301D01*
X451416Y526280D01*
X451338Y526123D01*
X451256Y525969D01*
X451248Y525943D01*
X451236Y525919D01*
X451191Y525750D01*
X451141Y525583D01*
X451139Y525556D01*
X451132Y525531D01*
X451105Y525200D01*
X451105Y499200D01*
X451106Y499191D01*
X451105Y499182D01*
X451126Y498990D01*
X451145Y498799D01*
X451147Y498791D01*
X451148Y498782D01*
X451207Y498597D01*
X451263Y498414D01*
X451267Y498406D01*
X451270Y498398D01*
X451363Y498230D01*
X451455Y498060D01*
X451460Y498054D01*
X451465Y498046D01*
X451590Y497898D01*
X451712Y497751D01*
X451719Y497746D01*
X451725Y497739D01*
X451877Y497619D01*
X452026Y497499D01*
X452034Y497495D01*
X452041Y497489D01*
X452213Y497401D01*
X452383Y497313D01*
X452392Y497311D01*
X452400Y497307D01*
X452586Y497255D01*
X452770Y497202D01*
X452779Y497201D01*
X452788Y497199D01*
X452980Y497185D01*
X453172Y497169D01*
X453180Y497170D01*
X453189Y497169D01*
X453382Y497194D01*
X453571Y497216D01*
X453580Y497219D01*
X453589Y497220D01*
X453772Y497281D01*
X453954Y497341D01*
X453962Y497345D01*
X453970Y497348D01*
X454136Y497443D01*
X454305Y497539D01*
X454312Y497544D01*
X454319Y497549D01*
X454572Y497764D01*
X455823Y499015D01*
X471223Y499015D01*
X471345Y498950D01*
X471370Y498942D01*
X471394Y498930D01*
X471563Y498885D01*
X471731Y498835D01*
X471757Y498833D01*
X471783Y498826D01*
X472114Y498799D01*
X474777Y498799D01*
X479994Y493582D01*
X480015Y493565D01*
X480032Y493544D01*
X480170Y493437D01*
X480305Y493327D01*
X480329Y493314D01*
X480350Y493298D01*
X480507Y493220D01*
X480661Y493138D01*
X480687Y493130D01*
X480711Y493118D01*
X480880Y493073D01*
X481047Y493023D01*
X481074Y493021D01*
X481099Y493014D01*
X481430Y492987D01*
X482640Y492987D01*
X484590Y492179D01*
X486083Y490686D01*
X486891Y488736D01*
X486891Y486624D01*
X486083Y484674D01*
X484590Y483181D01*
X482640Y482373D01*
X480528Y482373D01*
X478578Y483181D01*
X477085Y484674D01*
X476277Y486624D01*
X476277Y487834D01*
X476275Y487860D01*
X476277Y487887D01*
X476255Y488061D01*
X476237Y488234D01*
X476230Y488260D01*
X476226Y488286D01*
X476170Y488452D01*
X476119Y488619D01*
X476107Y488643D01*
X476098Y488668D01*
X476011Y488820D01*
X475927Y488973D01*
X475910Y488994D01*
X475897Y489017D01*
X475682Y489270D01*
X475417Y489535D01*
X475410Y489541D01*
X475405Y489548D01*
X475255Y489668D01*
X475106Y489790D01*
X475098Y489794D01*
X475091Y489800D01*
X474921Y489888D01*
X474750Y489979D01*
X474742Y489981D01*
X474734Y489986D01*
X474549Y490039D01*
X474364Y490094D01*
X474355Y490094D01*
X474347Y490097D01*
X474155Y490113D01*
X473963Y490130D01*
X473954Y490129D01*
X473945Y490130D01*
X473755Y490107D01*
X473563Y490087D01*
X473555Y490084D01*
X473546Y490083D01*
X473362Y490023D01*
X473179Y489965D01*
X473171Y489961D01*
X473163Y489958D01*
X472994Y489863D01*
X472827Y489770D01*
X472820Y489765D01*
X472812Y489760D01*
X472666Y489634D01*
X472520Y489510D01*
X472514Y489503D01*
X472507Y489497D01*
X472390Y489346D01*
X472270Y489194D01*
X472266Y489186D01*
X472261Y489179D01*
X472175Y489007D01*
X472088Y488835D01*
X472085Y488826D01*
X472081Y488818D01*
X472031Y488632D01*
X471980Y488447D01*
X471979Y488438D01*
X471977Y488430D01*
X471950Y488099D01*
X471950Y486386D01*
X471949Y486384D01*
X471948Y486366D01*
X471943Y486348D01*
X471929Y486165D01*
X471913Y485983D01*
X471915Y485965D01*
X471913Y485947D01*
X471936Y485764D01*
X471950Y485641D01*
X471950Y479886D01*
X471949Y479884D01*
X471948Y479866D01*
X471943Y479848D01*
X471929Y479665D01*
X471913Y479483D01*
X471915Y479465D01*
X471913Y479447D01*
X471936Y479264D01*
X471950Y479141D01*
X471950Y473386D01*
X471949Y473384D01*
X471948Y473366D01*
X471943Y473348D01*
X471929Y473165D01*
X471913Y472983D01*
X471915Y472965D01*
X471913Y472947D01*
X471936Y472764D01*
X471950Y472641D01*
X471950Y466886D01*
X471949Y466884D01*
X471948Y466866D01*
X471943Y466848D01*
X471929Y466665D01*
X471913Y466483D01*
X471915Y466465D01*
X471913Y466447D01*
X471936Y466264D01*
X471950Y466141D01*
X471950Y460386D01*
X471949Y460384D01*
X471948Y460366D01*
X471943Y460348D01*
X471929Y460165D01*
X471913Y459983D01*
X471915Y459965D01*
X471913Y459947D01*
X471936Y459764D01*
X471950Y459641D01*
X471950Y453886D01*
X471949Y453884D01*
X471948Y453866D01*
X471943Y453848D01*
X471929Y453665D01*
X471913Y453483D01*
X471915Y453465D01*
X471913Y453447D01*
X471936Y453264D01*
X471950Y453141D01*
X471950Y447386D01*
X471949Y447384D01*
X471948Y447366D01*
X471943Y447348D01*
X471929Y447165D01*
X471913Y446983D01*
X471915Y446965D01*
X471913Y446947D01*
X471936Y446764D01*
X471950Y446641D01*
X471950Y442330D01*
X471952Y442312D01*
X471950Y442294D01*
X471971Y442112D01*
X471990Y441929D01*
X471995Y441912D01*
X471997Y441895D01*
X472054Y441720D01*
X472108Y441544D01*
X472116Y441529D01*
X472122Y441512D01*
X472212Y441352D01*
X472300Y441190D01*
X472311Y441177D01*
X472320Y441161D01*
X472440Y441022D01*
X472557Y440881D01*
X472571Y440870D01*
X472583Y440856D01*
X472728Y440744D01*
X472871Y440629D01*
X472887Y440621D01*
X472901Y440610D01*
X473066Y440528D01*
X473228Y440443D01*
X473245Y440438D01*
X473261Y440430D01*
X473440Y440383D01*
X473615Y440332D01*
X473633Y440330D01*
X473650Y440326D01*
X473981Y440299D01*
X487557Y440299D01*
X498436Y429420D01*
X498449Y429409D01*
X498461Y429395D01*
X498605Y429281D01*
X498747Y429165D01*
X498763Y429156D01*
X498777Y429145D01*
X498941Y429062D01*
X499103Y428976D01*
X499120Y428971D01*
X499136Y428963D01*
X499313Y428914D01*
X499489Y428861D01*
X499507Y428860D01*
X499524Y428855D01*
X499707Y428842D01*
X499890Y428825D01*
X499908Y428827D01*
X499925Y428826D01*
X500107Y428849D01*
X500290Y428868D01*
X500307Y428874D01*
X500325Y428876D01*
X500498Y428934D01*
X500674Y428990D01*
X500690Y428999D01*
X500706Y429004D01*
X500866Y429096D01*
X501026Y429185D01*
X501040Y429196D01*
X501055Y429205D01*
X501308Y429420D01*
X505687Y433799D01*
X525003Y433799D01*
X525021Y433801D01*
X525039Y433799D01*
X525221Y433820D01*
X525404Y433839D01*
X525421Y433844D01*
X525438Y433846D01*
X525613Y433903D01*
X525789Y433957D01*
X525804Y433965D01*
X525821Y433971D01*
X525981Y434061D01*
X526143Y434149D01*
X526156Y434160D01*
X526172Y434169D01*
X526311Y434289D01*
X526452Y434406D01*
X526463Y434420D01*
X526477Y434432D01*
X526589Y434577D01*
X526704Y434720D01*
X526712Y434736D01*
X526723Y434750D01*
X526805Y434915D01*
X526890Y435077D01*
X526895Y435094D01*
X526903Y435110D01*
X526932Y435219D01*
X536560Y435219D01*
X546086Y435219D01*
X546086Y435175D01*
X545913Y434529D01*
X545544Y433890D01*
X545520Y433860D01*
X545410Y433725D01*
X545397Y433701D01*
X545381Y433680D01*
X545303Y433523D01*
X545221Y433369D01*
X545213Y433344D01*
X545201Y433320D01*
X545156Y433150D01*
X545106Y432983D01*
X545104Y432957D01*
X545097Y432931D01*
X545070Y432600D01*
X545070Y427885D01*
X545069Y427883D01*
X545067Y427865D01*
X545063Y427847D01*
X545049Y427665D01*
X545033Y427482D01*
X545035Y427464D01*
X545033Y427446D01*
X545056Y427265D01*
X545070Y427141D01*
X545070Y422656D01*
X545072Y422638D01*
X545070Y422620D01*
X545091Y422438D01*
X545110Y422255D01*
X545115Y422238D01*
X545117Y422221D01*
X545174Y422046D01*
X545228Y421870D01*
X545236Y421855D01*
X545242Y421838D01*
X545332Y421678D01*
X545420Y421516D01*
X545431Y421503D01*
X545440Y421487D01*
X545560Y421348D01*
X545677Y421207D01*
X545691Y421196D01*
X545703Y421182D01*
X545848Y421070D01*
X545991Y420955D01*
X546007Y420947D01*
X546021Y420936D01*
X546186Y420854D01*
X546348Y420769D01*
X546365Y420764D01*
X546381Y420756D01*
X546560Y420709D01*
X546735Y420658D01*
X546753Y420656D01*
X546770Y420652D01*
X547101Y420625D01*
X547398Y420625D01*
X547416Y420627D01*
X547434Y420625D01*
X547616Y420646D01*
X547799Y420665D01*
X547816Y420670D01*
X547833Y420672D01*
X548008Y420729D01*
X548184Y420783D01*
X548199Y420791D01*
X548216Y420797D01*
X548376Y420887D01*
X548538Y420975D01*
X548551Y420986D01*
X548567Y420995D01*
X548706Y421115D01*
X548847Y421232D01*
X548858Y421246D01*
X548872Y421258D01*
X548984Y421403D01*
X549099Y421546D01*
X549107Y421562D01*
X549118Y421576D01*
X549200Y421741D01*
X549285Y421903D01*
X549290Y421920D01*
X549298Y421936D01*
X549345Y422115D01*
X549396Y422290D01*
X549398Y422308D01*
X549402Y422325D01*
X549429Y422656D01*
X549429Y424728D01*
X550237Y426678D01*
X551730Y428171D01*
X553680Y428979D01*
X555792Y428979D01*
X557742Y428171D01*
X559235Y426678D01*
X560043Y424728D01*
X560043Y422616D01*
X559235Y420666D01*
X557714Y419145D01*
X557663Y419115D01*
X557512Y419035D01*
X557488Y419015D01*
X557461Y418999D01*
X557208Y418785D01*
X552951Y414527D01*
X533563Y414527D01*
X533550Y414526D01*
X533537Y414527D01*
X533350Y414506D01*
X533163Y414487D01*
X533150Y414483D01*
X533136Y414482D01*
X532957Y414424D01*
X532778Y414369D01*
X532766Y414363D01*
X532753Y414359D01*
X532588Y414267D01*
X532424Y414177D01*
X532413Y414169D01*
X532402Y414162D01*
X532258Y414040D01*
X532114Y413920D01*
X532106Y413909D01*
X532096Y413901D01*
X531979Y413752D01*
X531862Y413606D01*
X531856Y413594D01*
X531848Y413584D01*
X531763Y413415D01*
X531677Y413249D01*
X531673Y413236D01*
X531667Y413224D01*
X531617Y413043D01*
X531565Y412862D01*
X531564Y412848D01*
X531561Y412835D01*
X531548Y412647D01*
X531532Y412460D01*
X531534Y412447D01*
X531533Y412434D01*
X531557Y412246D01*
X531579Y412061D01*
X531583Y412048D01*
X531585Y412035D01*
X531687Y411719D01*
X532611Y409488D01*
X532611Y407376D01*
X531803Y405426D01*
X530310Y403933D01*
X528360Y403125D01*
X526248Y403125D01*
X524236Y403959D01*
X524207Y403968D01*
X524179Y403982D01*
X524014Y404026D01*
X523851Y404075D01*
X523820Y404078D01*
X523790Y404086D01*
X523459Y404113D01*
X523088Y404113D01*
X523070Y404111D01*
X523052Y404113D01*
X522870Y404092D01*
X522687Y404073D01*
X522670Y404068D01*
X522653Y404066D01*
X522478Y404009D01*
X522302Y403955D01*
X522287Y403947D01*
X522270Y403941D01*
X522110Y403851D01*
X521948Y403763D01*
X521935Y403752D01*
X521919Y403743D01*
X521780Y403623D01*
X521639Y403506D01*
X521628Y403492D01*
X521614Y403480D01*
X521502Y403335D01*
X521387Y403192D01*
X521379Y403176D01*
X521368Y403162D01*
X521286Y402997D01*
X521201Y402835D01*
X521196Y402818D01*
X521188Y402802D01*
X521141Y402623D01*
X521090Y402448D01*
X521088Y402430D01*
X521084Y402413D01*
X521057Y402082D01*
X521057Y393518D01*
X520975Y393413D01*
X520865Y393278D01*
X520852Y393255D01*
X520836Y393233D01*
X520758Y393077D01*
X520676Y392923D01*
X520668Y392897D01*
X520656Y392873D01*
X520611Y392704D01*
X520561Y392537D01*
X520559Y392510D01*
X520552Y392484D01*
X520525Y392153D01*
X520525Y390368D01*
X519632Y389475D01*
X486910Y389475D01*
X486883Y389473D01*
X486856Y389475D01*
X486683Y389453D01*
X486509Y389435D01*
X486484Y389428D01*
X486457Y389424D01*
X486291Y389369D01*
X486124Y389317D01*
X486101Y389304D01*
X486075Y389296D01*
X485924Y389209D01*
X485770Y389125D01*
X485750Y389108D01*
X485726Y389095D01*
X485608Y388995D01*
X484981Y388632D01*
X484531Y388512D01*
X484531Y389471D01*
X484514Y389650D01*
X484500Y389829D01*
X484494Y389850D01*
X484491Y389872D01*
X484439Y390044D01*
X484390Y390216D01*
X484380Y390236D01*
X484373Y390256D01*
X484288Y390415D01*
X484206Y390574D01*
X484191Y390594D01*
X484182Y390610D01*
X484131Y390671D01*
X484003Y390837D01*
X484003Y390838D01*
X483960Y390876D01*
X483924Y390920D01*
X483811Y391011D01*
X483704Y391107D01*
X483654Y391136D01*
X483610Y391172D01*
X483482Y391239D01*
X483357Y391313D01*
X483303Y391332D01*
X483252Y391358D01*
X483114Y391398D01*
X482977Y391446D01*
X482921Y391453D01*
X482866Y391469D01*
X482722Y391481D01*
X482579Y391501D01*
X482521Y391498D01*
X482464Y391502D01*
X482321Y391485D01*
X482177Y391477D01*
X482121Y391462D01*
X482064Y391455D01*
X481927Y391411D01*
X481788Y391374D01*
X481736Y391348D01*
X481682Y391330D01*
X481556Y391260D01*
X481426Y391196D01*
X481381Y391161D01*
X481331Y391133D01*
X481222Y391038D01*
X481107Y390950D01*
X481070Y390907D01*
X481026Y390869D01*
X480938Y390755D01*
X480843Y390646D01*
X480815Y390597D01*
X480780Y390551D01*
X480715Y390422D01*
X480644Y390297D01*
X480626Y390242D01*
X480600Y390191D01*
X480563Y390051D01*
X480517Y389914D01*
X480511Y389857D01*
X480496Y389802D01*
X480479Y389593D01*
X480469Y389515D01*
X480471Y389495D01*
X480469Y389471D01*
X480469Y388512D01*
X480019Y388632D01*
X479440Y388967D01*
X478967Y389440D01*
X478632Y390019D01*
X478459Y390665D01*
X478459Y392969D01*
X482420Y392969D01*
X482438Y392970D01*
X482456Y392969D01*
X482638Y392990D01*
X482821Y393008D01*
X482838Y393014D01*
X482855Y393016D01*
X483030Y393073D01*
X483206Y393127D01*
X483221Y393135D01*
X483238Y393141D01*
X483398Y393231D01*
X483560Y393318D01*
X483573Y393330D01*
X483589Y393339D01*
X483728Y393459D01*
X483869Y393576D01*
X483880Y393590D01*
X483894Y393602D01*
X484006Y393747D01*
X484121Y393890D01*
X484129Y393906D01*
X484140Y393920D01*
X484222Y394084D01*
X484307Y394247D01*
X484312Y394264D01*
X484320Y394280D01*
X484367Y394458D01*
X484418Y394634D01*
X484420Y394652D01*
X484424Y394669D01*
X484451Y395000D01*
X484450Y395018D01*
X484451Y395035D01*
X484451Y395036D01*
X484430Y395218D01*
X484411Y395401D01*
X484406Y395418D01*
X484404Y395436D01*
X484347Y395610D01*
X484293Y395786D01*
X484285Y395801D01*
X484279Y395818D01*
X484189Y395979D01*
X484101Y396140D01*
X484090Y396153D01*
X484081Y396169D01*
X483961Y396308D01*
X483844Y396449D01*
X483830Y396460D01*
X483818Y396474D01*
X483673Y396586D01*
X483530Y396701D01*
X483514Y396710D01*
X483500Y396720D01*
X483335Y396802D01*
X483173Y396887D01*
X483156Y396892D01*
X483140Y396900D01*
X482961Y396948D01*
X482786Y396998D01*
X482768Y397000D01*
X482751Y397004D01*
X482420Y397031D01*
X478459Y397031D01*
X478459Y399335D01*
X478632Y399981D01*
X478967Y400560D01*
X479440Y401033D01*
X480019Y401368D01*
X480665Y401541D01*
X482420Y401541D01*
X482438Y401543D01*
X482456Y401541D01*
X482638Y401562D01*
X482821Y401581D01*
X482838Y401586D01*
X482855Y401588D01*
X483030Y401645D01*
X483206Y401699D01*
X483221Y401707D01*
X483238Y401713D01*
X483398Y401803D01*
X483560Y401891D01*
X483573Y401902D01*
X483589Y401911D01*
X483728Y402031D01*
X483869Y402148D01*
X483880Y402162D01*
X483894Y402174D01*
X484006Y402319D01*
X484121Y402462D01*
X484129Y402478D01*
X484140Y402492D01*
X484222Y402657D01*
X484307Y402819D01*
X484312Y402836D01*
X484320Y402852D01*
X484367Y403031D01*
X484418Y403206D01*
X484420Y403224D01*
X484424Y403241D01*
X484451Y403572D01*
X484451Y409556D01*
X484449Y409582D01*
X484451Y409609D01*
X484429Y409783D01*
X484411Y409956D01*
X484404Y409982D01*
X484400Y410009D01*
X484345Y410174D01*
X484293Y410341D01*
X484280Y410365D01*
X484272Y410390D01*
X484185Y410542D01*
X484101Y410695D01*
X484084Y410716D01*
X484071Y410739D01*
X483856Y410992D01*
X483174Y411674D01*
X483153Y411691D01*
X483136Y411712D01*
X482998Y411819D01*
X482863Y411929D01*
X482839Y411942D01*
X482818Y411958D01*
X482661Y412036D01*
X482507Y412118D01*
X482481Y412126D01*
X482457Y412138D01*
X482288Y412183D01*
X482121Y412233D01*
X482094Y412235D01*
X482069Y412242D01*
X481738Y412269D01*
X480528Y412269D01*
X478578Y413077D01*
X477085Y414570D01*
X476277Y416520D01*
X476277Y418632D01*
X477085Y420582D01*
X478578Y422075D01*
X480528Y422883D01*
X482302Y422883D01*
X482311Y422884D01*
X482320Y422883D01*
X482510Y422903D01*
X482702Y422923D01*
X482711Y422925D01*
X482720Y422926D01*
X482903Y422984D01*
X483087Y423041D01*
X483095Y423045D01*
X483104Y423048D01*
X483272Y423141D01*
X483441Y423233D01*
X483448Y423238D01*
X483456Y423243D01*
X483603Y423367D01*
X483751Y423490D01*
X483756Y423497D01*
X483763Y423503D01*
X483883Y423655D01*
X484003Y423804D01*
X484007Y423812D01*
X484013Y423819D01*
X484100Y423992D01*
X484189Y424161D01*
X484191Y424170D01*
X484195Y424178D01*
X484247Y424363D01*
X484300Y424548D01*
X484301Y424557D01*
X484303Y424566D01*
X484317Y424758D01*
X484333Y424950D01*
X484332Y424958D01*
X484332Y424967D01*
X484308Y425159D01*
X484286Y425349D01*
X484283Y425358D01*
X484282Y425367D01*
X484221Y425549D01*
X484161Y425732D01*
X484157Y425740D01*
X484154Y425748D01*
X484058Y425916D01*
X483963Y426083D01*
X483957Y426090D01*
X483953Y426097D01*
X483738Y426350D01*
X482982Y427106D01*
X482961Y427123D01*
X482944Y427144D01*
X482806Y427250D01*
X482671Y427361D01*
X482647Y427374D01*
X482626Y427390D01*
X482469Y427468D01*
X482315Y427550D01*
X482289Y427558D01*
X482265Y427570D01*
X482096Y427615D01*
X481929Y427665D01*
X481902Y427667D01*
X481877Y427674D01*
X481546Y427701D01*
X474997Y427701D01*
X474979Y427699D01*
X474961Y427701D01*
X474779Y427680D01*
X474596Y427661D01*
X474579Y427656D01*
X474562Y427654D01*
X474387Y427597D01*
X474211Y427543D01*
X474196Y427535D01*
X474179Y427529D01*
X474019Y427439D01*
X473857Y427351D01*
X473844Y427340D01*
X473828Y427331D01*
X473689Y427211D01*
X473548Y427094D01*
X473537Y427080D01*
X473523Y427068D01*
X473411Y426923D01*
X473296Y426780D01*
X473288Y426764D01*
X473277Y426750D01*
X473195Y426585D01*
X473110Y426423D01*
X473105Y426406D01*
X473097Y426390D01*
X473068Y426281D01*
X463440Y426281D01*
X453914Y426281D01*
X453914Y426325D01*
X454087Y426971D01*
X454456Y427610D01*
X454480Y427640D01*
X454590Y427775D01*
X454603Y427799D01*
X454619Y427820D01*
X454697Y427977D01*
X454779Y428131D01*
X454787Y428156D01*
X454799Y428180D01*
X454844Y428350D01*
X454894Y428517D01*
X454896Y428543D01*
X454903Y428569D01*
X454930Y428900D01*
X454930Y433615D01*
X454931Y433617D01*
X454933Y433635D01*
X454937Y433653D01*
X454951Y433835D01*
X454967Y434018D01*
X454965Y434036D01*
X454967Y434054D01*
X454944Y434235D01*
X454930Y434359D01*
X454930Y438670D01*
X454928Y438688D01*
X454930Y438706D01*
X454909Y438888D01*
X454890Y439071D01*
X454885Y439088D01*
X454883Y439105D01*
X454826Y439280D01*
X454772Y439456D01*
X454764Y439471D01*
X454758Y439488D01*
X454668Y439648D01*
X454580Y439810D01*
X454569Y439823D01*
X454560Y439839D01*
X454440Y439978D01*
X454323Y440119D01*
X454309Y440130D01*
X454297Y440144D01*
X454152Y440256D01*
X454009Y440371D01*
X453993Y440379D01*
X453979Y440390D01*
X453814Y440472D01*
X453652Y440557D01*
X453635Y440562D01*
X453619Y440570D01*
X453440Y440617D01*
X453265Y440668D01*
X453247Y440670D01*
X453230Y440674D01*
X452899Y440701D01*
X258572Y440701D01*
X258563Y440700D01*
X258554Y440701D01*
X258362Y440680D01*
X258171Y440661D01*
X258163Y440659D01*
X258154Y440658D01*
X257972Y440600D01*
X257786Y440543D01*
X257779Y440539D01*
X257770Y440536D01*
X257602Y440443D01*
X257432Y440351D01*
X257426Y440346D01*
X257418Y440341D01*
X257270Y440216D01*
X257123Y440094D01*
X257118Y440087D01*
X257111Y440081D01*
X256991Y439929D01*
X256871Y439780D01*
X256867Y439772D01*
X256861Y439765D01*
X256773Y439592D01*
X256685Y439423D01*
X256683Y439414D01*
X256679Y439406D01*
X256627Y439220D01*
X256574Y439036D01*
X256573Y439027D01*
X256571Y439018D01*
X256557Y438826D01*
X256541Y438634D01*
X256542Y438626D01*
X256541Y438617D01*
X256566Y438424D01*
X256588Y438235D01*
X256591Y438226D01*
X256592Y438217D01*
X256653Y438034D01*
X256713Y437852D01*
X256717Y437844D01*
X256720Y437836D01*
X256815Y437670D01*
X256911Y437501D01*
X256917Y437494D01*
X256921Y437487D01*
X257136Y437234D01*
X258614Y435756D01*
X260161Y432021D01*
X260161Y409451D01*
X260180Y409258D01*
X260200Y409056D01*
X260200Y409053D01*
X260201Y409050D01*
X260258Y408862D01*
X260317Y408670D01*
X260318Y408668D01*
X260319Y408665D01*
X260411Y408494D01*
X260507Y408316D01*
X260509Y408313D01*
X260511Y408311D01*
X260638Y408158D01*
X260764Y408006D01*
X260766Y408004D01*
X260768Y408002D01*
X260923Y407877D01*
X261077Y407753D01*
X261080Y407751D01*
X261082Y407749D01*
X261257Y407658D01*
X261434Y407566D01*
X261437Y407565D01*
X261439Y407564D01*
X261629Y407509D01*
X261821Y407454D01*
X261824Y407453D01*
X261826Y407453D01*
X262025Y407436D01*
X262222Y407420D01*
X262225Y407420D01*
X262228Y407420D01*
X262422Y407442D01*
X262622Y407465D01*
X262625Y407466D01*
X262627Y407467D01*
X262818Y407529D01*
X263005Y407589D01*
X263007Y407591D01*
X263010Y407591D01*
X263184Y407690D01*
X263356Y407786D01*
X263358Y407788D01*
X263361Y407789D01*
X263507Y407916D01*
X263662Y408048D01*
X263664Y408051D01*
X263665Y408052D01*
X263679Y408070D01*
X263870Y408306D01*
X270225Y417627D01*
X279691Y425176D01*
X290962Y429599D01*
X303035Y430504D01*
X314839Y427810D01*
X325325Y421756D01*
X333560Y412881D01*
X338813Y401972D01*
X340618Y390000D01*
X338813Y378028D01*
X333560Y367119D01*
X330270Y363574D01*
X330166Y363436D01*
X330058Y363302D01*
X330045Y363276D01*
X330027Y363253D01*
X329952Y363098D01*
X329872Y362945D01*
X329864Y362917D01*
X329852Y362890D01*
X329809Y362723D01*
X329761Y362558D01*
X329759Y362529D01*
X329751Y362500D01*
X329742Y362328D01*
X329728Y362156D01*
X329732Y362127D01*
X329730Y362098D01*
X329755Y361928D01*
X329775Y361757D01*
X329784Y361729D01*
X329788Y361700D01*
X329846Y361538D01*
X329900Y361374D01*
X329914Y361348D01*
X329924Y361321D01*
X330013Y361174D01*
X330098Y361023D01*
X330117Y361001D01*
X330132Y360976D01*
X330248Y360849D01*
X330361Y360718D01*
X330384Y360701D01*
X330404Y360679D01*
X330543Y360577D01*
X330679Y360472D01*
X330705Y360459D01*
X330729Y360441D01*
X330885Y360369D01*
X331040Y360292D01*
X331068Y360285D01*
X331094Y360273D01*
X331262Y360233D01*
X331428Y360188D01*
X331461Y360185D01*
X331486Y360179D01*
X331571Y360176D01*
X331759Y360161D01*
X367890Y360161D01*
X367911Y360163D01*
G37*
G36*
X184075Y446800D02*
X184075Y446800D01*
X184084Y446799D01*
X184277Y446820D01*
X184466Y446839D01*
X184475Y446841D01*
X184484Y446842D01*
X184668Y446901D01*
X184851Y446957D01*
X184859Y446961D01*
X184868Y446964D01*
X185036Y447057D01*
X185205Y447149D01*
X185212Y447154D01*
X185220Y447159D01*
X185367Y447283D01*
X185515Y447406D01*
X185520Y447413D01*
X185527Y447419D01*
X185647Y447571D01*
X185767Y447720D01*
X185771Y447728D01*
X185777Y447735D01*
X185864Y447908D01*
X185953Y448077D01*
X185955Y448086D01*
X185959Y448094D01*
X186011Y448280D01*
X186064Y448464D01*
X186065Y448473D01*
X186067Y448482D01*
X186081Y448673D01*
X186097Y448866D01*
X186096Y448874D01*
X186096Y448883D01*
X186072Y449076D01*
X186050Y449265D01*
X186047Y449274D01*
X186046Y449283D01*
X185985Y449465D01*
X185925Y449648D01*
X185921Y449656D01*
X185918Y449664D01*
X185822Y449831D01*
X185727Y449999D01*
X185721Y450006D01*
X185717Y450013D01*
X185502Y450266D01*
X109060Y526708D01*
X106679Y529089D01*
X106679Y560444D01*
X106677Y560462D01*
X106679Y560480D01*
X106658Y560662D01*
X106639Y560845D01*
X106634Y560862D01*
X106632Y560879D01*
X106575Y561054D01*
X106521Y561230D01*
X106513Y561245D01*
X106507Y561262D01*
X106417Y561422D01*
X106329Y561584D01*
X106318Y561597D01*
X106309Y561613D01*
X106189Y561752D01*
X106072Y561893D01*
X106058Y561904D01*
X106046Y561918D01*
X105901Y562030D01*
X105758Y562145D01*
X105742Y562153D01*
X105728Y562164D01*
X105563Y562246D01*
X105401Y562331D01*
X105384Y562336D01*
X105368Y562344D01*
X105189Y562391D01*
X105014Y562442D01*
X104996Y562444D01*
X104979Y562448D01*
X104648Y562475D01*
X101368Y562475D01*
X100475Y563368D01*
X100475Y577632D01*
X101407Y578564D01*
X101419Y578577D01*
X101432Y578589D01*
X101547Y578734D01*
X101662Y578875D01*
X101671Y578891D01*
X101682Y578905D01*
X101765Y579069D01*
X101851Y579231D01*
X101856Y579248D01*
X101864Y579264D01*
X101914Y579441D01*
X101966Y579617D01*
X101967Y579635D01*
X101972Y579652D01*
X101986Y579835D01*
X102002Y580018D01*
X102000Y580036D01*
X102002Y580053D01*
X101979Y580235D01*
X101959Y580418D01*
X101953Y580435D01*
X101951Y580453D01*
X101893Y580626D01*
X101837Y580802D01*
X101829Y580818D01*
X101823Y580834D01*
X101732Y580993D01*
X101643Y581154D01*
X101631Y581168D01*
X101622Y581183D01*
X101407Y581436D01*
X100475Y582368D01*
X100475Y583150D01*
X100473Y583168D01*
X100475Y583186D01*
X100454Y583368D01*
X100435Y583551D01*
X100430Y583568D01*
X100428Y583585D01*
X100371Y583760D01*
X100317Y583936D01*
X100309Y583951D01*
X100303Y583968D01*
X100213Y584128D01*
X100125Y584290D01*
X100114Y584303D01*
X100105Y584319D01*
X99985Y584458D01*
X99868Y584599D01*
X99854Y584610D01*
X99842Y584624D01*
X99697Y584736D01*
X99554Y584851D01*
X99538Y584859D01*
X99524Y584870D01*
X99359Y584952D01*
X99197Y585037D01*
X99180Y585042D01*
X99164Y585050D01*
X98985Y585097D01*
X98810Y585148D01*
X98792Y585150D01*
X98775Y585154D01*
X98444Y585181D01*
X91556Y585181D01*
X91538Y585179D01*
X91520Y585181D01*
X91338Y585160D01*
X91155Y585141D01*
X91138Y585136D01*
X91121Y585134D01*
X90946Y585077D01*
X90770Y585023D01*
X90755Y585015D01*
X90738Y585009D01*
X90578Y584919D01*
X90416Y584831D01*
X90403Y584820D01*
X90387Y584811D01*
X90248Y584691D01*
X90107Y584574D01*
X90096Y584560D01*
X90082Y584548D01*
X89970Y584403D01*
X89855Y584260D01*
X89847Y584244D01*
X89836Y584230D01*
X89754Y584065D01*
X89669Y583903D01*
X89664Y583886D01*
X89656Y583870D01*
X89609Y583691D01*
X89558Y583516D01*
X89556Y583498D01*
X89552Y583481D01*
X89525Y583150D01*
X89525Y582368D01*
X88593Y581436D01*
X88581Y581422D01*
X88568Y581411D01*
X88454Y581267D01*
X88338Y581125D01*
X88329Y581109D01*
X88318Y581095D01*
X88235Y580931D01*
X88149Y580769D01*
X88144Y580752D01*
X88136Y580736D01*
X88086Y580559D01*
X88034Y580383D01*
X88033Y580365D01*
X88028Y580348D01*
X88014Y580165D01*
X87998Y579982D01*
X88000Y579964D01*
X87998Y579947D01*
X88021Y579765D01*
X88041Y579582D01*
X88047Y579565D01*
X88049Y579547D01*
X88107Y579373D01*
X88163Y579198D01*
X88171Y579182D01*
X88177Y579166D01*
X88269Y579007D01*
X88357Y578846D01*
X88369Y578832D01*
X88378Y578817D01*
X88593Y578564D01*
X89525Y577632D01*
X89525Y563368D01*
X88632Y562475D01*
X85767Y562475D01*
X85745Y562473D01*
X85723Y562475D01*
X85545Y562453D01*
X85367Y562435D01*
X85345Y562429D01*
X85323Y562426D01*
X85154Y562370D01*
X84982Y562317D01*
X84962Y562307D01*
X84941Y562300D01*
X84785Y562211D01*
X84628Y562125D01*
X84611Y562111D01*
X84591Y562100D01*
X84455Y561982D01*
X84319Y561868D01*
X84305Y561850D01*
X84288Y561836D01*
X84178Y561694D01*
X84066Y561554D01*
X84056Y561534D01*
X84042Y561516D01*
X83891Y561221D01*
X83747Y560874D01*
X82254Y559381D01*
X80304Y558573D01*
X78192Y558573D01*
X76242Y559381D01*
X74749Y560874D01*
X74605Y561221D01*
X74595Y561241D01*
X74588Y561262D01*
X74500Y561418D01*
X74415Y561576D01*
X74401Y561593D01*
X74390Y561613D01*
X74273Y561748D01*
X74159Y561887D01*
X74141Y561901D01*
X74127Y561918D01*
X73985Y562027D01*
X73846Y562140D01*
X73826Y562151D01*
X73809Y562164D01*
X73648Y562244D01*
X73490Y562327D01*
X73468Y562334D01*
X73448Y562344D01*
X73274Y562390D01*
X73103Y562440D01*
X73081Y562442D01*
X73059Y562448D01*
X72729Y562475D01*
X71368Y562475D01*
X70475Y563368D01*
X70475Y577632D01*
X71407Y578564D01*
X71419Y578577D01*
X71432Y578589D01*
X71547Y578734D01*
X71662Y578875D01*
X71671Y578891D01*
X71682Y578905D01*
X71765Y579069D01*
X71851Y579231D01*
X71856Y579248D01*
X71864Y579264D01*
X71914Y579441D01*
X71966Y579617D01*
X71967Y579635D01*
X71972Y579652D01*
X71986Y579835D01*
X72002Y580018D01*
X72000Y580036D01*
X72002Y580053D01*
X71979Y580235D01*
X71959Y580418D01*
X71953Y580435D01*
X71951Y580453D01*
X71893Y580626D01*
X71837Y580802D01*
X71829Y580818D01*
X71823Y580834D01*
X71732Y580993D01*
X71643Y581154D01*
X71631Y581168D01*
X71622Y581183D01*
X71407Y581436D01*
X70475Y582368D01*
X70475Y583150D01*
X70473Y583168D01*
X70475Y583186D01*
X70454Y583368D01*
X70435Y583551D01*
X70430Y583568D01*
X70428Y583585D01*
X70371Y583760D01*
X70317Y583936D01*
X70309Y583951D01*
X70303Y583968D01*
X70213Y584128D01*
X70125Y584290D01*
X70114Y584303D01*
X70105Y584319D01*
X69985Y584458D01*
X69868Y584599D01*
X69854Y584610D01*
X69842Y584624D01*
X69697Y584736D01*
X69554Y584851D01*
X69538Y584859D01*
X69524Y584870D01*
X69359Y584952D01*
X69197Y585037D01*
X69180Y585042D01*
X69164Y585050D01*
X68985Y585097D01*
X68810Y585148D01*
X68792Y585150D01*
X68775Y585154D01*
X68444Y585181D01*
X61556Y585181D01*
X61538Y585179D01*
X61520Y585181D01*
X61338Y585160D01*
X61155Y585141D01*
X61138Y585136D01*
X61121Y585134D01*
X60946Y585077D01*
X60770Y585023D01*
X60755Y585015D01*
X60738Y585009D01*
X60578Y584919D01*
X60416Y584831D01*
X60403Y584820D01*
X60387Y584811D01*
X60248Y584691D01*
X60107Y584574D01*
X60096Y584560D01*
X60082Y584548D01*
X59970Y584403D01*
X59855Y584260D01*
X59847Y584244D01*
X59836Y584230D01*
X59754Y584065D01*
X59669Y583903D01*
X59664Y583886D01*
X59656Y583870D01*
X59609Y583691D01*
X59558Y583516D01*
X59556Y583498D01*
X59552Y583481D01*
X59525Y583150D01*
X59525Y582368D01*
X58593Y581436D01*
X58581Y581422D01*
X58568Y581411D01*
X58454Y581267D01*
X58338Y581125D01*
X58329Y581109D01*
X58318Y581095D01*
X58235Y580931D01*
X58149Y580769D01*
X58144Y580752D01*
X58136Y580736D01*
X58086Y580559D01*
X58034Y580383D01*
X58033Y580365D01*
X58028Y580348D01*
X58014Y580165D01*
X57998Y579982D01*
X58000Y579964D01*
X57998Y579947D01*
X58021Y579765D01*
X58041Y579582D01*
X58047Y579565D01*
X58049Y579547D01*
X58107Y579373D01*
X58163Y579198D01*
X58171Y579182D01*
X58177Y579166D01*
X58269Y579007D01*
X58357Y578846D01*
X58369Y578832D01*
X58378Y578817D01*
X58593Y578564D01*
X59525Y577632D01*
X59525Y563851D01*
X59528Y563820D01*
X59526Y563789D01*
X59548Y563620D01*
X59565Y563451D01*
X59574Y563421D01*
X59578Y563390D01*
X59679Y563074D01*
X60171Y561888D01*
X60171Y559776D01*
X59363Y557826D01*
X57870Y556333D01*
X55920Y555525D01*
X53848Y555525D01*
X53830Y555523D01*
X53812Y555525D01*
X53630Y555504D01*
X53447Y555485D01*
X53430Y555480D01*
X53413Y555478D01*
X53238Y555421D01*
X53062Y555367D01*
X53047Y555359D01*
X53030Y555353D01*
X52870Y555263D01*
X52708Y555175D01*
X52695Y555164D01*
X52679Y555155D01*
X52540Y555035D01*
X52399Y554918D01*
X52388Y554904D01*
X52374Y554892D01*
X52262Y554747D01*
X52147Y554604D01*
X52139Y554588D01*
X52128Y554574D01*
X52046Y554409D01*
X51961Y554247D01*
X51956Y554230D01*
X51948Y554214D01*
X51901Y554035D01*
X51850Y553860D01*
X51848Y553842D01*
X51844Y553825D01*
X51817Y553494D01*
X51817Y532456D01*
X51819Y532430D01*
X51817Y532403D01*
X51839Y532229D01*
X51857Y532056D01*
X51864Y532030D01*
X51868Y532003D01*
X51923Y531838D01*
X51975Y531671D01*
X51988Y531647D01*
X51996Y531622D01*
X52083Y531470D01*
X52167Y531317D01*
X52184Y531296D01*
X52197Y531273D01*
X52412Y531020D01*
X136038Y447394D01*
X136059Y447377D01*
X136076Y447356D01*
X136214Y447249D01*
X136349Y447139D01*
X136373Y447126D01*
X136394Y447110D01*
X136551Y447032D01*
X136705Y446950D01*
X136731Y446942D01*
X136755Y446930D01*
X136924Y446885D01*
X137091Y446835D01*
X137118Y446833D01*
X137143Y446826D01*
X137474Y446799D01*
X184066Y446799D01*
X184075Y446800D01*
G37*
G36*
X810884Y453301D02*
X810884Y453301D01*
X810911Y453299D01*
X811085Y453321D01*
X811258Y453339D01*
X811284Y453346D01*
X811311Y453350D01*
X811476Y453405D01*
X811643Y453457D01*
X811667Y453470D01*
X811692Y453478D01*
X811844Y453565D01*
X811997Y453649D01*
X812018Y453666D01*
X812041Y453679D01*
X812294Y453894D01*
X886372Y527972D01*
X886389Y527993D01*
X886410Y528010D01*
X886517Y528148D01*
X886627Y528283D01*
X886640Y528307D01*
X886656Y528328D01*
X886734Y528485D01*
X886816Y528639D01*
X886824Y528665D01*
X886836Y528689D01*
X886881Y528858D01*
X886931Y529025D01*
X886933Y529052D01*
X886940Y529077D01*
X886967Y529408D01*
X886967Y560444D01*
X886965Y560462D01*
X886967Y560480D01*
X886946Y560662D01*
X886927Y560845D01*
X886922Y560862D01*
X886920Y560879D01*
X886863Y561054D01*
X886809Y561230D01*
X886801Y561245D01*
X886795Y561262D01*
X886705Y561422D01*
X886617Y561584D01*
X886606Y561597D01*
X886597Y561613D01*
X886477Y561752D01*
X886360Y561893D01*
X886346Y561904D01*
X886334Y561918D01*
X886189Y562030D01*
X886046Y562145D01*
X886030Y562153D01*
X886016Y562164D01*
X885851Y562246D01*
X885689Y562331D01*
X885672Y562336D01*
X885656Y562344D01*
X885477Y562391D01*
X885302Y562442D01*
X885284Y562444D01*
X885267Y562448D01*
X884936Y562475D01*
X881368Y562475D01*
X880475Y563368D01*
X880475Y577632D01*
X881407Y578564D01*
X881419Y578577D01*
X881432Y578589D01*
X881547Y578734D01*
X881662Y578875D01*
X881671Y578891D01*
X881682Y578905D01*
X881765Y579069D01*
X881851Y579231D01*
X881856Y579248D01*
X881864Y579264D01*
X881914Y579441D01*
X881966Y579617D01*
X881967Y579635D01*
X881972Y579652D01*
X881986Y579835D01*
X882002Y580018D01*
X882000Y580036D01*
X882002Y580053D01*
X881979Y580235D01*
X881959Y580418D01*
X881953Y580435D01*
X881951Y580453D01*
X881893Y580626D01*
X881837Y580802D01*
X881829Y580818D01*
X881823Y580834D01*
X881732Y580993D01*
X881643Y581154D01*
X881631Y581168D01*
X881622Y581183D01*
X881407Y581436D01*
X880475Y582368D01*
X880475Y583150D01*
X880473Y583168D01*
X880475Y583186D01*
X880454Y583368D01*
X880435Y583551D01*
X880430Y583568D01*
X880428Y583585D01*
X880371Y583760D01*
X880317Y583936D01*
X880309Y583951D01*
X880303Y583968D01*
X880213Y584128D01*
X880125Y584290D01*
X880114Y584303D01*
X880105Y584319D01*
X879985Y584458D01*
X879868Y584599D01*
X879854Y584610D01*
X879842Y584624D01*
X879697Y584736D01*
X879554Y584851D01*
X879538Y584859D01*
X879524Y584870D01*
X879359Y584952D01*
X879197Y585037D01*
X879180Y585042D01*
X879164Y585050D01*
X878985Y585097D01*
X878810Y585148D01*
X878792Y585150D01*
X878775Y585154D01*
X878444Y585181D01*
X871556Y585181D01*
X871538Y585179D01*
X871520Y585181D01*
X871338Y585160D01*
X871155Y585141D01*
X871138Y585136D01*
X871121Y585134D01*
X870946Y585077D01*
X870770Y585023D01*
X870755Y585015D01*
X870738Y585009D01*
X870578Y584919D01*
X870416Y584831D01*
X870403Y584820D01*
X870387Y584811D01*
X870248Y584691D01*
X870107Y584574D01*
X870096Y584560D01*
X870082Y584548D01*
X869970Y584403D01*
X869855Y584260D01*
X869847Y584244D01*
X869836Y584230D01*
X869754Y584065D01*
X869669Y583903D01*
X869664Y583886D01*
X869656Y583870D01*
X869609Y583691D01*
X869558Y583516D01*
X869556Y583498D01*
X869552Y583481D01*
X869525Y583150D01*
X869525Y582368D01*
X868593Y581436D01*
X868581Y581422D01*
X868568Y581411D01*
X868454Y581267D01*
X868338Y581125D01*
X868329Y581109D01*
X868318Y581095D01*
X868235Y580931D01*
X868149Y580769D01*
X868144Y580752D01*
X868136Y580736D01*
X868086Y580559D01*
X868034Y580383D01*
X868033Y580365D01*
X868028Y580348D01*
X868014Y580165D01*
X867998Y579982D01*
X868000Y579964D01*
X867998Y579947D01*
X868021Y579765D01*
X868041Y579582D01*
X868047Y579565D01*
X868049Y579547D01*
X868107Y579373D01*
X868163Y579198D01*
X868171Y579182D01*
X868177Y579166D01*
X868269Y579007D01*
X868357Y578846D01*
X868369Y578832D01*
X868378Y578817D01*
X868593Y578564D01*
X869525Y577632D01*
X869525Y563368D01*
X868632Y562475D01*
X851368Y562475D01*
X850475Y563368D01*
X850475Y577632D01*
X851407Y578564D01*
X851419Y578577D01*
X851432Y578589D01*
X851547Y578734D01*
X851662Y578875D01*
X851671Y578891D01*
X851682Y578905D01*
X851765Y579069D01*
X851851Y579231D01*
X851856Y579248D01*
X851864Y579264D01*
X851914Y579441D01*
X851966Y579617D01*
X851967Y579635D01*
X851972Y579652D01*
X851986Y579835D01*
X852002Y580018D01*
X852000Y580036D01*
X852002Y580053D01*
X851979Y580235D01*
X851959Y580418D01*
X851953Y580435D01*
X851951Y580453D01*
X851893Y580626D01*
X851837Y580802D01*
X851829Y580818D01*
X851823Y580834D01*
X851732Y580993D01*
X851643Y581154D01*
X851631Y581168D01*
X851622Y581183D01*
X851407Y581436D01*
X850475Y582368D01*
X850475Y583150D01*
X850473Y583168D01*
X850475Y583186D01*
X850454Y583368D01*
X850435Y583551D01*
X850430Y583568D01*
X850428Y583585D01*
X850371Y583760D01*
X850317Y583936D01*
X850309Y583951D01*
X850303Y583968D01*
X850213Y584128D01*
X850125Y584290D01*
X850114Y584303D01*
X850105Y584319D01*
X849985Y584458D01*
X849868Y584599D01*
X849854Y584610D01*
X849842Y584624D01*
X849697Y584736D01*
X849554Y584851D01*
X849538Y584859D01*
X849524Y584870D01*
X849359Y584952D01*
X849197Y585037D01*
X849180Y585042D01*
X849164Y585050D01*
X848985Y585097D01*
X848810Y585148D01*
X848792Y585150D01*
X848775Y585154D01*
X848444Y585181D01*
X841556Y585181D01*
X841538Y585179D01*
X841520Y585181D01*
X841338Y585160D01*
X841155Y585141D01*
X841138Y585136D01*
X841121Y585134D01*
X840946Y585077D01*
X840770Y585023D01*
X840755Y585015D01*
X840738Y585009D01*
X840578Y584919D01*
X840416Y584831D01*
X840403Y584820D01*
X840387Y584811D01*
X840248Y584691D01*
X840107Y584574D01*
X840096Y584560D01*
X840082Y584548D01*
X839970Y584403D01*
X839855Y584260D01*
X839847Y584244D01*
X839836Y584230D01*
X839754Y584065D01*
X839669Y583903D01*
X839664Y583886D01*
X839656Y583870D01*
X839609Y583691D01*
X839558Y583516D01*
X839556Y583498D01*
X839552Y583481D01*
X839525Y583150D01*
X839525Y582368D01*
X838593Y581436D01*
X838581Y581422D01*
X838568Y581411D01*
X838454Y581267D01*
X838338Y581125D01*
X838329Y581109D01*
X838318Y581095D01*
X838235Y580931D01*
X838149Y580769D01*
X838144Y580752D01*
X838136Y580736D01*
X838086Y580559D01*
X838034Y580383D01*
X838033Y580365D01*
X838028Y580348D01*
X838014Y580165D01*
X837998Y579982D01*
X838000Y579964D01*
X837998Y579947D01*
X838021Y579765D01*
X838041Y579582D01*
X838047Y579565D01*
X838049Y579547D01*
X838107Y579373D01*
X838163Y579198D01*
X838171Y579182D01*
X838177Y579166D01*
X838269Y579007D01*
X838357Y578846D01*
X838369Y578832D01*
X838378Y578817D01*
X838593Y578564D01*
X839525Y577632D01*
X839525Y564336D01*
X839527Y564314D01*
X839525Y564292D01*
X839547Y564114D01*
X839565Y563936D01*
X839571Y563915D01*
X839574Y563892D01*
X839630Y563723D01*
X839683Y563551D01*
X839693Y563531D01*
X839700Y563510D01*
X839789Y563355D01*
X839875Y563197D01*
X839889Y563180D01*
X839900Y563160D01*
X840018Y563025D01*
X840132Y562888D01*
X840150Y562874D01*
X840164Y562857D01*
X840307Y562747D01*
X840446Y562635D01*
X840466Y562625D01*
X840484Y562611D01*
X840779Y562460D01*
X841206Y562283D01*
X842699Y560790D01*
X843507Y558840D01*
X843507Y556728D01*
X842699Y554778D01*
X841206Y553285D01*
X839256Y552477D01*
X837144Y552477D01*
X835857Y553010D01*
X835844Y553014D01*
X835833Y553020D01*
X835652Y553073D01*
X835472Y553127D01*
X835459Y553128D01*
X835446Y553132D01*
X835257Y553147D01*
X835071Y553165D01*
X835058Y553164D01*
X835044Y553165D01*
X834858Y553143D01*
X834671Y553123D01*
X834658Y553119D01*
X834645Y553118D01*
X834467Y553060D01*
X834286Y553004D01*
X834275Y552997D01*
X834262Y552993D01*
X834098Y552900D01*
X833933Y552810D01*
X833923Y552802D01*
X833911Y552795D01*
X833768Y552672D01*
X833625Y552551D01*
X833617Y552541D01*
X833606Y552532D01*
X833491Y552383D01*
X833374Y552236D01*
X833368Y552224D01*
X833360Y552214D01*
X833276Y552046D01*
X833190Y551878D01*
X833186Y551865D01*
X833180Y551853D01*
X833131Y551671D01*
X833080Y551491D01*
X833079Y551478D01*
X833076Y551465D01*
X833049Y551134D01*
X833049Y530033D01*
X759782Y456766D01*
X759776Y456759D01*
X759769Y456754D01*
X759649Y456604D01*
X759527Y456455D01*
X759523Y456447D01*
X759517Y456440D01*
X759428Y456269D01*
X759338Y456099D01*
X759336Y456091D01*
X759331Y456083D01*
X759278Y455897D01*
X759223Y455713D01*
X759223Y455704D01*
X759220Y455696D01*
X759204Y455504D01*
X759187Y455312D01*
X759188Y455303D01*
X759187Y455294D01*
X759209Y455105D01*
X759230Y454912D01*
X759233Y454903D01*
X759234Y454895D01*
X759293Y454713D01*
X759352Y454528D01*
X759356Y454520D01*
X759359Y454512D01*
X759454Y454343D01*
X759547Y454176D01*
X759552Y454169D01*
X759557Y454161D01*
X759683Y454015D01*
X759807Y453869D01*
X759814Y453863D01*
X759820Y453856D01*
X759971Y453739D01*
X760123Y453619D01*
X760131Y453615D01*
X760138Y453610D01*
X760310Y453524D01*
X760482Y453437D01*
X760491Y453434D01*
X760499Y453430D01*
X760685Y453380D01*
X760870Y453329D01*
X760879Y453328D01*
X760887Y453326D01*
X761218Y453299D01*
X810858Y453299D01*
X810884Y453301D01*
G37*
G36*
X862296Y446801D02*
X862296Y446801D01*
X862323Y446799D01*
X862497Y446821D01*
X862670Y446839D01*
X862696Y446846D01*
X862723Y446850D01*
X862888Y446905D01*
X863055Y446957D01*
X863079Y446970D01*
X863104Y446978D01*
X863256Y447065D01*
X863409Y447149D01*
X863430Y447166D01*
X863453Y447179D01*
X863706Y447394D01*
X947332Y531020D01*
X947349Y531041D01*
X947370Y531058D01*
X947477Y531196D01*
X947587Y531331D01*
X947600Y531355D01*
X947616Y531376D01*
X947694Y531533D01*
X947776Y531687D01*
X947784Y531713D01*
X947796Y531737D01*
X947841Y531906D01*
X947891Y532073D01*
X947893Y532100D01*
X947900Y532125D01*
X947927Y532456D01*
X947927Y560444D01*
X947925Y560462D01*
X947927Y560480D01*
X947906Y560662D01*
X947887Y560845D01*
X947882Y560862D01*
X947880Y560879D01*
X947823Y561054D01*
X947769Y561230D01*
X947761Y561245D01*
X947755Y561262D01*
X947665Y561422D01*
X947577Y561584D01*
X947566Y561597D01*
X947557Y561613D01*
X947437Y561752D01*
X947320Y561893D01*
X947306Y561904D01*
X947294Y561918D01*
X947149Y562030D01*
X947006Y562145D01*
X946990Y562153D01*
X946976Y562164D01*
X946811Y562246D01*
X946649Y562331D01*
X946632Y562336D01*
X946616Y562344D01*
X946437Y562391D01*
X946262Y562442D01*
X946244Y562444D01*
X946227Y562448D01*
X945896Y562475D01*
X941368Y562475D01*
X940475Y563368D01*
X940475Y577632D01*
X941407Y578564D01*
X941419Y578577D01*
X941432Y578589D01*
X941547Y578734D01*
X941662Y578875D01*
X941671Y578891D01*
X941682Y578905D01*
X941765Y579069D01*
X941851Y579231D01*
X941856Y579248D01*
X941864Y579264D01*
X941914Y579441D01*
X941966Y579617D01*
X941967Y579635D01*
X941972Y579652D01*
X941986Y579835D01*
X942002Y580018D01*
X942000Y580036D01*
X942002Y580053D01*
X941979Y580235D01*
X941959Y580418D01*
X941953Y580435D01*
X941951Y580453D01*
X941893Y580626D01*
X941837Y580802D01*
X941829Y580818D01*
X941823Y580834D01*
X941732Y580993D01*
X941643Y581154D01*
X941631Y581168D01*
X941622Y581183D01*
X941407Y581436D01*
X940475Y582368D01*
X940475Y583150D01*
X940473Y583168D01*
X940475Y583186D01*
X940454Y583368D01*
X940435Y583551D01*
X940430Y583568D01*
X940428Y583585D01*
X940371Y583760D01*
X940317Y583936D01*
X940309Y583951D01*
X940303Y583968D01*
X940213Y584128D01*
X940125Y584290D01*
X940114Y584303D01*
X940105Y584319D01*
X939985Y584458D01*
X939868Y584599D01*
X939854Y584610D01*
X939842Y584624D01*
X939697Y584736D01*
X939554Y584851D01*
X939538Y584859D01*
X939524Y584870D01*
X939359Y584952D01*
X939197Y585037D01*
X939180Y585042D01*
X939164Y585050D01*
X938985Y585097D01*
X938810Y585148D01*
X938792Y585150D01*
X938775Y585154D01*
X938444Y585181D01*
X931556Y585181D01*
X931538Y585179D01*
X931520Y585181D01*
X931338Y585160D01*
X931155Y585141D01*
X931138Y585136D01*
X931121Y585134D01*
X930946Y585077D01*
X930770Y585023D01*
X930755Y585015D01*
X930738Y585009D01*
X930578Y584919D01*
X930416Y584831D01*
X930403Y584820D01*
X930387Y584811D01*
X930248Y584691D01*
X930107Y584574D01*
X930096Y584560D01*
X930082Y584548D01*
X929970Y584403D01*
X929855Y584260D01*
X929847Y584244D01*
X929836Y584230D01*
X929754Y584065D01*
X929669Y583903D01*
X929664Y583886D01*
X929656Y583870D01*
X929609Y583691D01*
X929558Y583516D01*
X929556Y583498D01*
X929552Y583481D01*
X929525Y583150D01*
X929525Y582368D01*
X928593Y581436D01*
X928581Y581422D01*
X928568Y581411D01*
X928454Y581267D01*
X928338Y581125D01*
X928329Y581109D01*
X928318Y581095D01*
X928235Y580931D01*
X928149Y580769D01*
X928144Y580752D01*
X928136Y580736D01*
X928086Y580559D01*
X928034Y580383D01*
X928033Y580365D01*
X928028Y580348D01*
X928014Y580165D01*
X927998Y579982D01*
X928000Y579964D01*
X927998Y579947D01*
X928021Y579765D01*
X928041Y579582D01*
X928047Y579565D01*
X928049Y579547D01*
X928107Y579373D01*
X928163Y579198D01*
X928171Y579182D01*
X928177Y579166D01*
X928269Y579007D01*
X928357Y578846D01*
X928369Y578832D01*
X928378Y578817D01*
X928593Y578564D01*
X929525Y577632D01*
X929525Y563368D01*
X928632Y562475D01*
X911368Y562475D01*
X910475Y563368D01*
X910475Y577632D01*
X911407Y578564D01*
X911419Y578577D01*
X911432Y578589D01*
X911547Y578734D01*
X911662Y578875D01*
X911671Y578891D01*
X911682Y578905D01*
X911765Y579069D01*
X911851Y579231D01*
X911856Y579248D01*
X911864Y579264D01*
X911914Y579441D01*
X911966Y579617D01*
X911967Y579635D01*
X911972Y579652D01*
X911986Y579835D01*
X912002Y580018D01*
X912000Y580036D01*
X912002Y580053D01*
X911979Y580235D01*
X911959Y580418D01*
X911953Y580435D01*
X911951Y580453D01*
X911893Y580626D01*
X911837Y580802D01*
X911829Y580818D01*
X911823Y580834D01*
X911732Y580993D01*
X911643Y581154D01*
X911631Y581168D01*
X911622Y581183D01*
X911407Y581436D01*
X910475Y582368D01*
X910475Y583150D01*
X910473Y583168D01*
X910475Y583186D01*
X910454Y583368D01*
X910435Y583551D01*
X910430Y583568D01*
X910428Y583585D01*
X910371Y583760D01*
X910317Y583936D01*
X910309Y583951D01*
X910303Y583968D01*
X910213Y584128D01*
X910125Y584290D01*
X910114Y584303D01*
X910105Y584319D01*
X909985Y584458D01*
X909868Y584599D01*
X909854Y584610D01*
X909842Y584624D01*
X909697Y584736D01*
X909554Y584851D01*
X909538Y584859D01*
X909524Y584870D01*
X909359Y584952D01*
X909197Y585037D01*
X909180Y585042D01*
X909164Y585050D01*
X908985Y585097D01*
X908810Y585148D01*
X908792Y585150D01*
X908775Y585154D01*
X908444Y585181D01*
X901556Y585181D01*
X901538Y585179D01*
X901520Y585181D01*
X901338Y585160D01*
X901155Y585141D01*
X901138Y585136D01*
X901121Y585134D01*
X900946Y585077D01*
X900770Y585023D01*
X900755Y585015D01*
X900738Y585009D01*
X900578Y584919D01*
X900416Y584831D01*
X900403Y584820D01*
X900387Y584811D01*
X900248Y584691D01*
X900107Y584574D01*
X900096Y584560D01*
X900082Y584548D01*
X899970Y584403D01*
X899855Y584260D01*
X899847Y584244D01*
X899836Y584230D01*
X899754Y584065D01*
X899669Y583903D01*
X899664Y583886D01*
X899656Y583870D01*
X899609Y583691D01*
X899558Y583516D01*
X899556Y583498D01*
X899552Y583481D01*
X899525Y583150D01*
X899525Y582368D01*
X898593Y581436D01*
X898581Y581422D01*
X898568Y581411D01*
X898454Y581267D01*
X898338Y581125D01*
X898329Y581109D01*
X898318Y581095D01*
X898235Y580931D01*
X898149Y580769D01*
X898144Y580752D01*
X898136Y580736D01*
X898086Y580559D01*
X898034Y580383D01*
X898033Y580365D01*
X898028Y580348D01*
X898014Y580165D01*
X897998Y579982D01*
X898000Y579964D01*
X897998Y579947D01*
X898021Y579765D01*
X898041Y579582D01*
X898047Y579565D01*
X898049Y579547D01*
X898107Y579373D01*
X898163Y579198D01*
X898171Y579182D01*
X898177Y579166D01*
X898269Y579007D01*
X898357Y578846D01*
X898369Y578832D01*
X898378Y578817D01*
X898593Y578564D01*
X899525Y577632D01*
X899525Y564734D01*
X899527Y564712D01*
X899525Y564690D01*
X899547Y564512D01*
X899565Y564334D01*
X899571Y564312D01*
X899574Y564290D01*
X899630Y564120D01*
X899683Y563949D01*
X899693Y563929D01*
X899700Y563908D01*
X899789Y563752D01*
X899875Y563595D01*
X899889Y563577D01*
X899900Y563558D01*
X900018Y563423D01*
X900132Y563285D01*
X900150Y563271D01*
X900164Y563255D01*
X900306Y563145D01*
X900446Y563033D01*
X900466Y563023D01*
X900484Y563009D01*
X900779Y562858D01*
X902166Y562283D01*
X903659Y560790D01*
X904467Y558840D01*
X904467Y556728D01*
X903659Y554778D01*
X902166Y553285D01*
X900216Y552477D01*
X898104Y552477D01*
X895873Y553401D01*
X895860Y553405D01*
X895849Y553411D01*
X895669Y553463D01*
X895488Y553518D01*
X895475Y553519D01*
X895462Y553523D01*
X895274Y553538D01*
X895087Y553556D01*
X895074Y553555D01*
X895060Y553556D01*
X894874Y553534D01*
X894687Y553514D01*
X894674Y553510D01*
X894661Y553509D01*
X894482Y553451D01*
X894302Y553395D01*
X894291Y553388D01*
X894278Y553384D01*
X894113Y553291D01*
X893949Y553201D01*
X893939Y553193D01*
X893927Y553186D01*
X893785Y553063D01*
X893641Y552942D01*
X893633Y552932D01*
X893622Y552923D01*
X893508Y552775D01*
X893390Y552627D01*
X893384Y552615D01*
X893376Y552605D01*
X893292Y552437D01*
X893206Y552269D01*
X893202Y552256D01*
X893196Y552244D01*
X893147Y552062D01*
X893096Y551882D01*
X893095Y551869D01*
X893092Y551856D01*
X893065Y551525D01*
X893065Y526041D01*
X890684Y523660D01*
X817290Y450266D01*
X817284Y450259D01*
X817277Y450254D01*
X817157Y450104D01*
X817035Y449955D01*
X817031Y449947D01*
X817025Y449940D01*
X816936Y449769D01*
X816846Y449599D01*
X816844Y449591D01*
X816839Y449583D01*
X816786Y449397D01*
X816731Y449213D01*
X816731Y449204D01*
X816728Y449196D01*
X816712Y449004D01*
X816695Y448812D01*
X816696Y448803D01*
X816695Y448794D01*
X816717Y448605D01*
X816738Y448412D01*
X816741Y448403D01*
X816742Y448395D01*
X816801Y448213D01*
X816860Y448028D01*
X816864Y448020D01*
X816867Y448012D01*
X816962Y447843D01*
X817055Y447676D01*
X817060Y447669D01*
X817065Y447661D01*
X817191Y447515D01*
X817315Y447369D01*
X817322Y447363D01*
X817328Y447356D01*
X817479Y447239D01*
X817631Y447119D01*
X817639Y447115D01*
X817646Y447110D01*
X817818Y447024D01*
X817990Y446937D01*
X817999Y446934D01*
X818007Y446930D01*
X818193Y446880D01*
X818378Y446829D01*
X818387Y446828D01*
X818395Y446826D01*
X818726Y446799D01*
X862270Y446799D01*
X862296Y446801D01*
G37*
G36*
X238535Y453300D02*
X238535Y453300D01*
X238544Y453299D01*
X238737Y453320D01*
X238926Y453339D01*
X238935Y453341D01*
X238944Y453342D01*
X239128Y453401D01*
X239311Y453457D01*
X239319Y453461D01*
X239328Y453464D01*
X239496Y453557D01*
X239665Y453649D01*
X239672Y453654D01*
X239680Y453659D01*
X239827Y453783D01*
X239975Y453906D01*
X239980Y453913D01*
X239987Y453919D01*
X240107Y454071D01*
X240227Y454220D01*
X240231Y454228D01*
X240237Y454235D01*
X240324Y454408D01*
X240413Y454577D01*
X240415Y454586D01*
X240419Y454594D01*
X240471Y454780D01*
X240524Y454964D01*
X240525Y454973D01*
X240527Y454982D01*
X240541Y455175D01*
X240557Y455366D01*
X240556Y455374D01*
X240556Y455383D01*
X240532Y455576D01*
X240510Y455765D01*
X240507Y455774D01*
X240506Y455783D01*
X240445Y455965D01*
X240385Y456148D01*
X240381Y456156D01*
X240378Y456164D01*
X240282Y456331D01*
X240187Y456499D01*
X240181Y456506D01*
X240177Y456513D01*
X239962Y456766D01*
X169332Y527396D01*
X166951Y529777D01*
X166951Y560444D01*
X166949Y560462D01*
X166951Y560480D01*
X166930Y560662D01*
X166911Y560845D01*
X166906Y560862D01*
X166904Y560879D01*
X166847Y561054D01*
X166793Y561230D01*
X166785Y561245D01*
X166779Y561262D01*
X166689Y561422D01*
X166601Y561584D01*
X166590Y561597D01*
X166581Y561613D01*
X166461Y561752D01*
X166344Y561893D01*
X166330Y561904D01*
X166318Y561918D01*
X166173Y562030D01*
X166030Y562145D01*
X166014Y562153D01*
X166000Y562164D01*
X165835Y562246D01*
X165673Y562331D01*
X165656Y562336D01*
X165640Y562344D01*
X165461Y562391D01*
X165286Y562442D01*
X165268Y562444D01*
X165251Y562448D01*
X164920Y562475D01*
X161368Y562475D01*
X160475Y563368D01*
X160475Y577632D01*
X161407Y578564D01*
X161419Y578577D01*
X161432Y578589D01*
X161547Y578734D01*
X161662Y578875D01*
X161671Y578891D01*
X161682Y578905D01*
X161765Y579069D01*
X161851Y579231D01*
X161856Y579248D01*
X161864Y579264D01*
X161914Y579441D01*
X161966Y579617D01*
X161967Y579635D01*
X161972Y579652D01*
X161986Y579835D01*
X162002Y580018D01*
X162000Y580036D01*
X162002Y580053D01*
X161979Y580235D01*
X161959Y580418D01*
X161953Y580435D01*
X161951Y580453D01*
X161893Y580626D01*
X161837Y580802D01*
X161829Y580818D01*
X161823Y580834D01*
X161732Y580993D01*
X161643Y581154D01*
X161631Y581168D01*
X161622Y581183D01*
X161407Y581436D01*
X160475Y582368D01*
X160475Y583150D01*
X160473Y583168D01*
X160475Y583186D01*
X160454Y583368D01*
X160435Y583551D01*
X160430Y583568D01*
X160428Y583585D01*
X160371Y583760D01*
X160317Y583936D01*
X160309Y583951D01*
X160303Y583968D01*
X160213Y584128D01*
X160125Y584290D01*
X160114Y584303D01*
X160105Y584319D01*
X159985Y584458D01*
X159868Y584599D01*
X159854Y584610D01*
X159842Y584624D01*
X159697Y584736D01*
X159554Y584851D01*
X159538Y584859D01*
X159524Y584870D01*
X159359Y584952D01*
X159197Y585037D01*
X159180Y585042D01*
X159164Y585050D01*
X158985Y585097D01*
X158810Y585148D01*
X158792Y585150D01*
X158775Y585154D01*
X158444Y585181D01*
X151556Y585181D01*
X151538Y585179D01*
X151520Y585181D01*
X151338Y585160D01*
X151155Y585141D01*
X151138Y585136D01*
X151121Y585134D01*
X150946Y585077D01*
X150770Y585023D01*
X150755Y585015D01*
X150738Y585009D01*
X150578Y584919D01*
X150416Y584831D01*
X150403Y584820D01*
X150387Y584811D01*
X150248Y584691D01*
X150107Y584574D01*
X150096Y584560D01*
X150082Y584548D01*
X149970Y584403D01*
X149855Y584260D01*
X149847Y584244D01*
X149836Y584230D01*
X149754Y584065D01*
X149669Y583903D01*
X149664Y583886D01*
X149656Y583870D01*
X149609Y583691D01*
X149558Y583516D01*
X149556Y583498D01*
X149552Y583481D01*
X149525Y583150D01*
X149525Y582368D01*
X148593Y581436D01*
X148581Y581422D01*
X148568Y581411D01*
X148454Y581267D01*
X148338Y581125D01*
X148329Y581109D01*
X148318Y581095D01*
X148235Y580931D01*
X148149Y580769D01*
X148144Y580752D01*
X148136Y580736D01*
X148086Y580559D01*
X148034Y580383D01*
X148033Y580365D01*
X148028Y580348D01*
X148014Y580165D01*
X147998Y579982D01*
X148000Y579964D01*
X147998Y579947D01*
X148021Y579765D01*
X148041Y579582D01*
X148047Y579565D01*
X148049Y579547D01*
X148107Y579373D01*
X148163Y579198D01*
X148171Y579182D01*
X148177Y579166D01*
X148269Y579007D01*
X148357Y578846D01*
X148369Y578832D01*
X148378Y578817D01*
X148593Y578564D01*
X149525Y577632D01*
X149525Y563368D01*
X148632Y562475D01*
X147149Y562475D01*
X147123Y562473D01*
X147096Y562475D01*
X146922Y562453D01*
X146749Y562435D01*
X146723Y562428D01*
X146697Y562424D01*
X146531Y562368D01*
X146364Y562317D01*
X146340Y562304D01*
X146315Y562296D01*
X146164Y562209D01*
X146010Y562125D01*
X145989Y562108D01*
X145966Y562095D01*
X145713Y561880D01*
X144738Y560905D01*
X142788Y560097D01*
X140676Y560097D01*
X138726Y560905D01*
X137751Y561880D01*
X137730Y561897D01*
X137713Y561918D01*
X137575Y562024D01*
X137439Y562135D01*
X137416Y562148D01*
X137395Y562164D01*
X137238Y562242D01*
X137084Y562324D01*
X137058Y562332D01*
X137034Y562344D01*
X136865Y562389D01*
X136698Y562439D01*
X136671Y562441D01*
X136645Y562448D01*
X136315Y562475D01*
X131368Y562475D01*
X130475Y563368D01*
X130475Y577632D01*
X131407Y578564D01*
X131419Y578577D01*
X131432Y578589D01*
X131547Y578734D01*
X131662Y578875D01*
X131671Y578891D01*
X131682Y578905D01*
X131765Y579069D01*
X131851Y579231D01*
X131856Y579248D01*
X131864Y579264D01*
X131914Y579441D01*
X131966Y579617D01*
X131967Y579635D01*
X131972Y579652D01*
X131986Y579835D01*
X132002Y580018D01*
X132000Y580036D01*
X132002Y580053D01*
X131979Y580235D01*
X131959Y580418D01*
X131953Y580435D01*
X131951Y580453D01*
X131893Y580626D01*
X131837Y580802D01*
X131829Y580818D01*
X131823Y580834D01*
X131732Y580993D01*
X131643Y581154D01*
X131631Y581168D01*
X131622Y581183D01*
X131407Y581436D01*
X130475Y582368D01*
X130475Y583150D01*
X130473Y583168D01*
X130475Y583186D01*
X130454Y583368D01*
X130435Y583551D01*
X130430Y583568D01*
X130428Y583585D01*
X130371Y583760D01*
X130317Y583936D01*
X130309Y583951D01*
X130303Y583968D01*
X130213Y584128D01*
X130125Y584290D01*
X130114Y584303D01*
X130105Y584319D01*
X129985Y584458D01*
X129868Y584599D01*
X129854Y584610D01*
X129842Y584624D01*
X129697Y584736D01*
X129554Y584851D01*
X129538Y584859D01*
X129524Y584870D01*
X129359Y584952D01*
X129197Y585037D01*
X129180Y585042D01*
X129164Y585050D01*
X128985Y585097D01*
X128810Y585148D01*
X128792Y585150D01*
X128775Y585154D01*
X128444Y585181D01*
X121556Y585181D01*
X121538Y585179D01*
X121520Y585181D01*
X121338Y585160D01*
X121155Y585141D01*
X121138Y585136D01*
X121121Y585134D01*
X120946Y585077D01*
X120770Y585023D01*
X120755Y585015D01*
X120738Y585009D01*
X120578Y584919D01*
X120416Y584831D01*
X120403Y584820D01*
X120387Y584811D01*
X120248Y584691D01*
X120107Y584574D01*
X120096Y584560D01*
X120082Y584548D01*
X119970Y584403D01*
X119855Y584260D01*
X119847Y584244D01*
X119836Y584230D01*
X119754Y584065D01*
X119669Y583903D01*
X119664Y583886D01*
X119656Y583870D01*
X119609Y583691D01*
X119558Y583516D01*
X119556Y583498D01*
X119552Y583481D01*
X119525Y583150D01*
X119525Y582368D01*
X118593Y581436D01*
X118581Y581422D01*
X118568Y581411D01*
X118454Y581267D01*
X118338Y581125D01*
X118329Y581109D01*
X118318Y581095D01*
X118235Y580931D01*
X118149Y580769D01*
X118144Y580752D01*
X118136Y580736D01*
X118086Y580559D01*
X118034Y580383D01*
X118033Y580365D01*
X118028Y580348D01*
X118014Y580165D01*
X117998Y579982D01*
X118000Y579964D01*
X117998Y579947D01*
X118021Y579765D01*
X118041Y579582D01*
X118047Y579565D01*
X118049Y579547D01*
X118107Y579373D01*
X118163Y579198D01*
X118171Y579182D01*
X118177Y579166D01*
X118269Y579007D01*
X118357Y578846D01*
X118369Y578832D01*
X118378Y578817D01*
X118593Y578564D01*
X119525Y577632D01*
X119525Y565478D01*
X119527Y565451D01*
X119525Y565424D01*
X119547Y565250D01*
X119565Y565077D01*
X119572Y565051D01*
X119576Y565025D01*
X119631Y564859D01*
X119683Y564692D01*
X119696Y564668D01*
X119704Y564643D01*
X119791Y564491D01*
X119875Y564338D01*
X119892Y564317D01*
X119905Y564294D01*
X120120Y564041D01*
X120323Y563838D01*
X121131Y561888D01*
X121131Y559776D01*
X120323Y557826D01*
X118830Y556333D01*
X116880Y555525D01*
X114808Y555525D01*
X114790Y555523D01*
X114772Y555525D01*
X114590Y555504D01*
X114407Y555485D01*
X114390Y555480D01*
X114373Y555478D01*
X114198Y555421D01*
X114022Y555367D01*
X114007Y555359D01*
X113990Y555353D01*
X113830Y555263D01*
X113668Y555175D01*
X113655Y555164D01*
X113639Y555155D01*
X113500Y555035D01*
X113359Y554918D01*
X113348Y554904D01*
X113334Y554892D01*
X113222Y554747D01*
X113107Y554604D01*
X113099Y554588D01*
X113088Y554574D01*
X113006Y554409D01*
X112921Y554247D01*
X112916Y554230D01*
X112908Y554214D01*
X112861Y554035D01*
X112810Y553860D01*
X112808Y553842D01*
X112804Y553825D01*
X112777Y553494D01*
X112777Y532456D01*
X112779Y532430D01*
X112777Y532403D01*
X112799Y532229D01*
X112817Y532056D01*
X112824Y532030D01*
X112828Y532003D01*
X112883Y531838D01*
X112935Y531671D01*
X112948Y531647D01*
X112956Y531622D01*
X113043Y531470D01*
X113127Y531317D01*
X113144Y531296D01*
X113157Y531273D01*
X113372Y531020D01*
X190498Y453894D01*
X190519Y453877D01*
X190536Y453856D01*
X190674Y453749D01*
X190809Y453639D01*
X190833Y453626D01*
X190854Y453610D01*
X191011Y453532D01*
X191165Y453450D01*
X191191Y453442D01*
X191215Y453430D01*
X191384Y453385D01*
X191551Y453335D01*
X191578Y453333D01*
X191603Y453326D01*
X191934Y453299D01*
X238526Y453299D01*
X238535Y453300D01*
G37*
G36*
X129753Y440162D02*
X129753Y440162D01*
X129762Y440161D01*
X129955Y440182D01*
X130144Y440201D01*
X130153Y440203D01*
X130162Y440204D01*
X130346Y440263D01*
X130529Y440319D01*
X130537Y440323D01*
X130546Y440326D01*
X130714Y440419D01*
X130883Y440511D01*
X130890Y440516D01*
X130898Y440521D01*
X131045Y440645D01*
X131193Y440768D01*
X131198Y440775D01*
X131205Y440781D01*
X131324Y440932D01*
X131445Y441082D01*
X131449Y441090D01*
X131455Y441097D01*
X131542Y441270D01*
X131631Y441439D01*
X131633Y441448D01*
X131637Y441456D01*
X131689Y441642D01*
X131742Y441826D01*
X131743Y441835D01*
X131745Y441844D01*
X131759Y442037D01*
X131775Y442228D01*
X131774Y442236D01*
X131774Y442245D01*
X131750Y442438D01*
X131728Y442627D01*
X131725Y442636D01*
X131724Y442645D01*
X131663Y442827D01*
X131603Y443010D01*
X131599Y443018D01*
X131596Y443026D01*
X131500Y443193D01*
X131405Y443361D01*
X131399Y443368D01*
X131395Y443375D01*
X131180Y443628D01*
X48100Y526708D01*
X45719Y529089D01*
X45719Y560444D01*
X45717Y560462D01*
X45719Y560480D01*
X45698Y560662D01*
X45679Y560845D01*
X45674Y560862D01*
X45672Y560879D01*
X45615Y561054D01*
X45561Y561230D01*
X45553Y561245D01*
X45547Y561262D01*
X45457Y561422D01*
X45369Y561584D01*
X45358Y561597D01*
X45349Y561613D01*
X45229Y561752D01*
X45112Y561893D01*
X45098Y561904D01*
X45086Y561918D01*
X44941Y562030D01*
X44798Y562145D01*
X44782Y562153D01*
X44768Y562164D01*
X44603Y562246D01*
X44441Y562331D01*
X44424Y562336D01*
X44408Y562344D01*
X44229Y562391D01*
X44054Y562442D01*
X44036Y562444D01*
X44019Y562448D01*
X43688Y562475D01*
X41368Y562475D01*
X40475Y563368D01*
X40475Y577632D01*
X41407Y578564D01*
X41419Y578577D01*
X41432Y578589D01*
X41547Y578734D01*
X41662Y578875D01*
X41671Y578891D01*
X41682Y578905D01*
X41765Y579069D01*
X41851Y579231D01*
X41856Y579248D01*
X41864Y579264D01*
X41914Y579441D01*
X41966Y579617D01*
X41967Y579635D01*
X41972Y579652D01*
X41986Y579835D01*
X42002Y580018D01*
X42000Y580036D01*
X42002Y580053D01*
X41979Y580235D01*
X41959Y580418D01*
X41953Y580435D01*
X41951Y580453D01*
X41893Y580626D01*
X41837Y580802D01*
X41829Y580818D01*
X41823Y580834D01*
X41732Y580993D01*
X41643Y581154D01*
X41631Y581168D01*
X41622Y581183D01*
X41407Y581436D01*
X40475Y582368D01*
X40475Y583150D01*
X40473Y583168D01*
X40475Y583186D01*
X40454Y583368D01*
X40435Y583551D01*
X40430Y583568D01*
X40428Y583585D01*
X40371Y583760D01*
X40317Y583936D01*
X40309Y583951D01*
X40303Y583968D01*
X40213Y584128D01*
X40125Y584290D01*
X40114Y584303D01*
X40105Y584319D01*
X39985Y584458D01*
X39868Y584599D01*
X39854Y584610D01*
X39842Y584624D01*
X39697Y584736D01*
X39554Y584851D01*
X39538Y584859D01*
X39524Y584870D01*
X39359Y584952D01*
X39197Y585037D01*
X39180Y585042D01*
X39164Y585050D01*
X38985Y585097D01*
X38810Y585148D01*
X38792Y585150D01*
X38775Y585154D01*
X38444Y585181D01*
X31556Y585181D01*
X31538Y585179D01*
X31520Y585181D01*
X31338Y585160D01*
X31155Y585141D01*
X31138Y585136D01*
X31121Y585134D01*
X30946Y585077D01*
X30770Y585023D01*
X30755Y585015D01*
X30738Y585009D01*
X30578Y584919D01*
X30416Y584831D01*
X30403Y584820D01*
X30387Y584811D01*
X30248Y584691D01*
X30107Y584574D01*
X30096Y584560D01*
X30082Y584548D01*
X29970Y584403D01*
X29855Y584260D01*
X29847Y584244D01*
X29836Y584230D01*
X29754Y584065D01*
X29669Y583903D01*
X29664Y583886D01*
X29656Y583870D01*
X29609Y583691D01*
X29558Y583516D01*
X29556Y583498D01*
X29552Y583481D01*
X29525Y583150D01*
X29525Y582368D01*
X28593Y581436D01*
X28581Y581422D01*
X28568Y581411D01*
X28454Y581267D01*
X28338Y581125D01*
X28329Y581109D01*
X28318Y581095D01*
X28235Y580931D01*
X28149Y580769D01*
X28144Y580752D01*
X28136Y580736D01*
X28086Y580559D01*
X28034Y580383D01*
X28033Y580365D01*
X28028Y580348D01*
X28014Y580165D01*
X27998Y579982D01*
X28000Y579964D01*
X27998Y579947D01*
X28021Y579765D01*
X28041Y579582D01*
X28047Y579565D01*
X28049Y579547D01*
X28107Y579373D01*
X28163Y579198D01*
X28171Y579182D01*
X28177Y579166D01*
X28269Y579007D01*
X28357Y578846D01*
X28369Y578832D01*
X28378Y578817D01*
X28593Y578564D01*
X29525Y577632D01*
X29525Y563368D01*
X28632Y562475D01*
X11368Y562475D01*
X10475Y563368D01*
X10475Y577632D01*
X11407Y578564D01*
X11419Y578577D01*
X11432Y578589D01*
X11547Y578734D01*
X11662Y578875D01*
X11671Y578891D01*
X11682Y578905D01*
X11765Y579069D01*
X11851Y579231D01*
X11856Y579248D01*
X11864Y579264D01*
X11914Y579441D01*
X11966Y579617D01*
X11967Y579635D01*
X11972Y579652D01*
X11986Y579835D01*
X12002Y580018D01*
X12000Y580036D01*
X12002Y580053D01*
X11979Y580235D01*
X11959Y580418D01*
X11953Y580435D01*
X11951Y580453D01*
X11893Y580626D01*
X11837Y580802D01*
X11829Y580818D01*
X11823Y580834D01*
X11732Y580993D01*
X11643Y581154D01*
X11631Y581168D01*
X11622Y581183D01*
X11407Y581436D01*
X10475Y582368D01*
X10475Y596692D01*
X10480Y596698D01*
X10569Y596868D01*
X10659Y597039D01*
X10662Y597047D01*
X10666Y597055D01*
X10719Y597241D01*
X10774Y597425D01*
X10775Y597434D01*
X10777Y597442D01*
X10793Y597634D01*
X10810Y597826D01*
X10809Y597835D01*
X10810Y597844D01*
X10788Y598034D01*
X10767Y598226D01*
X10764Y598234D01*
X10763Y598243D01*
X10704Y598426D01*
X10645Y598610D01*
X10641Y598618D01*
X10638Y598626D01*
X10544Y598793D01*
X10451Y598962D01*
X10445Y598969D01*
X10440Y598977D01*
X10315Y599122D01*
X10190Y599269D01*
X10183Y599275D01*
X10177Y599282D01*
X10026Y599399D01*
X9874Y599519D01*
X9866Y599523D01*
X9859Y599528D01*
X9687Y599614D01*
X9515Y599701D01*
X9507Y599704D01*
X9499Y599708D01*
X9312Y599758D01*
X9127Y599809D01*
X9119Y599810D01*
X9110Y599812D01*
X8779Y599839D01*
X2192Y599839D01*
X2174Y599837D01*
X2156Y599839D01*
X1974Y599818D01*
X1791Y599799D01*
X1774Y599794D01*
X1757Y599792D01*
X1582Y599735D01*
X1406Y599681D01*
X1391Y599673D01*
X1374Y599667D01*
X1214Y599577D01*
X1052Y599489D01*
X1039Y599478D01*
X1023Y599469D01*
X884Y599349D01*
X743Y599232D01*
X732Y599218D01*
X718Y599206D01*
X606Y599061D01*
X491Y598918D01*
X483Y598902D01*
X472Y598888D01*
X390Y598723D01*
X305Y598561D01*
X300Y598544D01*
X292Y598528D01*
X245Y598349D01*
X194Y598174D01*
X192Y598156D01*
X188Y598139D01*
X161Y597808D01*
X161Y507282D01*
X173Y507162D01*
X175Y507041D01*
X193Y506962D01*
X201Y506882D01*
X236Y506766D01*
X262Y506648D01*
X295Y506574D01*
X319Y506497D01*
X376Y506390D01*
X425Y506280D01*
X472Y506214D01*
X511Y506143D01*
X588Y506050D01*
X658Y505951D01*
X717Y505895D01*
X768Y505833D01*
X863Y505758D01*
X951Y505674D01*
X1030Y505623D01*
X1082Y505581D01*
X1144Y505549D01*
X1229Y505494D01*
X122111Y440404D01*
X122234Y440352D01*
X122354Y440292D01*
X122420Y440275D01*
X122482Y440249D01*
X122613Y440223D01*
X122743Y440188D01*
X122821Y440181D01*
X122877Y440170D01*
X122955Y440170D01*
X123074Y440161D01*
X129744Y440161D01*
X129753Y440162D01*
G37*
G36*
X877059Y440174D02*
X877059Y440174D01*
X877193Y440178D01*
X877259Y440194D01*
X877327Y440201D01*
X877455Y440240D01*
X877585Y440271D01*
X877657Y440302D01*
X877712Y440319D01*
X877780Y440356D01*
X877889Y440404D01*
X998771Y505494D01*
X998871Y505561D01*
X998977Y505621D01*
X999038Y505674D01*
X999105Y505719D01*
X999190Y505805D01*
X999282Y505884D01*
X999331Y505948D01*
X999388Y506005D01*
X999454Y506106D01*
X999528Y506202D01*
X999564Y506275D01*
X999609Y506342D01*
X999654Y506454D01*
X999708Y506563D01*
X999729Y506641D01*
X999759Y506716D01*
X999781Y506835D01*
X999812Y506951D01*
X999820Y507046D01*
X999832Y507111D01*
X999831Y507182D01*
X999839Y507282D01*
X999839Y597808D01*
X999837Y597826D01*
X999839Y597844D01*
X999818Y598026D01*
X999799Y598209D01*
X999794Y598226D01*
X999792Y598243D01*
X999735Y598418D01*
X999681Y598594D01*
X999673Y598609D01*
X999667Y598626D01*
X999577Y598786D01*
X999489Y598948D01*
X999478Y598961D01*
X999469Y598977D01*
X999349Y599116D01*
X999232Y599257D01*
X999218Y599268D01*
X999206Y599282D01*
X999061Y599394D01*
X998918Y599509D01*
X998902Y599517D01*
X998888Y599528D01*
X998723Y599610D01*
X998561Y599695D01*
X998544Y599700D01*
X998528Y599708D01*
X998349Y599755D01*
X998174Y599806D01*
X998156Y599808D01*
X998139Y599812D01*
X997808Y599839D01*
X991221Y599839D01*
X991212Y599838D01*
X991203Y599839D01*
X991012Y599818D01*
X990820Y599799D01*
X990812Y599797D01*
X990803Y599796D01*
X990620Y599738D01*
X990435Y599681D01*
X990427Y599677D01*
X990419Y599674D01*
X990250Y599581D01*
X990081Y599489D01*
X990075Y599484D01*
X990067Y599479D01*
X989919Y599354D01*
X989772Y599232D01*
X989766Y599225D01*
X989760Y599219D01*
X989640Y599067D01*
X989520Y598918D01*
X989516Y598910D01*
X989510Y598903D01*
X989422Y598730D01*
X989334Y598561D01*
X989332Y598552D01*
X989328Y598544D01*
X989276Y598359D01*
X989223Y598174D01*
X989222Y598165D01*
X989220Y598156D01*
X989206Y597964D01*
X989190Y597772D01*
X989191Y597764D01*
X989190Y597755D01*
X989215Y597563D01*
X989237Y597373D01*
X989240Y597364D01*
X989241Y597355D01*
X989302Y597174D01*
X989362Y596990D01*
X989366Y596982D01*
X989369Y596974D01*
X989465Y596808D01*
X989525Y596701D01*
X989525Y582368D01*
X988593Y581436D01*
X988581Y581422D01*
X988568Y581411D01*
X988454Y581267D01*
X988338Y581125D01*
X988329Y581109D01*
X988318Y581095D01*
X988235Y580931D01*
X988149Y580769D01*
X988144Y580752D01*
X988136Y580736D01*
X988086Y580559D01*
X988034Y580383D01*
X988033Y580365D01*
X988028Y580348D01*
X988014Y580165D01*
X987998Y579982D01*
X988000Y579964D01*
X987998Y579947D01*
X988021Y579765D01*
X988041Y579582D01*
X988047Y579565D01*
X988049Y579547D01*
X988107Y579373D01*
X988163Y579198D01*
X988171Y579182D01*
X988177Y579166D01*
X988269Y579007D01*
X988357Y578846D01*
X988369Y578832D01*
X988378Y578817D01*
X988593Y578564D01*
X989525Y577632D01*
X989525Y563368D01*
X988632Y562475D01*
X971368Y562475D01*
X971079Y562765D01*
X971075Y562768D01*
X971072Y562771D01*
X970919Y562896D01*
X970767Y563020D01*
X970763Y563022D01*
X970760Y563025D01*
X970580Y563119D01*
X970411Y563209D01*
X970407Y563210D01*
X970403Y563212D01*
X970212Y563268D01*
X970025Y563324D01*
X970021Y563324D01*
X970017Y563325D01*
X969824Y563342D01*
X969624Y563360D01*
X969620Y563359D01*
X969616Y563360D01*
X969426Y563338D01*
X969224Y563317D01*
X969220Y563315D01*
X969216Y563315D01*
X969033Y563256D01*
X968840Y563195D01*
X968836Y563193D01*
X968832Y563192D01*
X968661Y563096D01*
X968488Y563000D01*
X968485Y562997D01*
X968481Y562995D01*
X968331Y562867D01*
X968181Y562740D01*
X968178Y562736D01*
X968175Y562733D01*
X968053Y562578D01*
X967931Y562424D01*
X967929Y562420D01*
X967927Y562416D01*
X967838Y562240D01*
X967749Y562065D01*
X967748Y562061D01*
X967746Y562057D01*
X967693Y561862D01*
X967641Y561677D01*
X967641Y561673D01*
X967640Y561668D01*
X967626Y561472D01*
X967612Y561275D01*
X967612Y561271D01*
X967612Y561267D01*
X967638Y561070D01*
X967662Y560876D01*
X967664Y560872D01*
X967664Y560867D01*
X967766Y560551D01*
X968475Y558840D01*
X968475Y556728D01*
X967667Y554778D01*
X966174Y553285D01*
X964224Y552477D01*
X962112Y552477D01*
X960162Y553285D01*
X958669Y554778D01*
X957933Y556556D01*
X957931Y556560D01*
X957929Y556564D01*
X957836Y556737D01*
X957742Y556911D01*
X957740Y556915D01*
X957737Y556918D01*
X957613Y557067D01*
X957486Y557221D01*
X957483Y557224D01*
X957480Y557228D01*
X957328Y557350D01*
X957173Y557475D01*
X957169Y557477D01*
X957166Y557480D01*
X956993Y557570D01*
X956817Y557662D01*
X956813Y557663D01*
X956809Y557666D01*
X956620Y557720D01*
X956430Y557775D01*
X956426Y557776D01*
X956422Y557777D01*
X956224Y557793D01*
X956029Y557810D01*
X956025Y557809D01*
X956020Y557810D01*
X955826Y557787D01*
X955629Y557765D01*
X955625Y557763D01*
X955621Y557763D01*
X955435Y557702D01*
X955246Y557642D01*
X955242Y557639D01*
X955238Y557638D01*
X955065Y557541D01*
X954894Y557445D01*
X954891Y557442D01*
X954887Y557440D01*
X954738Y557311D01*
X954589Y557183D01*
X954586Y557180D01*
X954582Y557177D01*
X954461Y557021D01*
X954340Y556866D01*
X954338Y556862D01*
X954336Y556859D01*
X954247Y556681D01*
X954160Y556507D01*
X954158Y556502D01*
X954156Y556498D01*
X954105Y556306D01*
X954053Y556118D01*
X954053Y556114D01*
X954052Y556110D01*
X954025Y555779D01*
X954025Y529089D01*
X951644Y526708D01*
X868564Y443628D01*
X868558Y443621D01*
X868551Y443616D01*
X868431Y443466D01*
X868309Y443317D01*
X868305Y443309D01*
X868299Y443302D01*
X868210Y443131D01*
X868120Y442961D01*
X868118Y442953D01*
X868113Y442945D01*
X868060Y442759D01*
X868005Y442575D01*
X868005Y442566D01*
X868002Y442558D01*
X867986Y442366D01*
X867969Y442174D01*
X867970Y442165D01*
X867969Y442156D01*
X867992Y441964D01*
X868012Y441774D01*
X868015Y441765D01*
X868016Y441757D01*
X868075Y441575D01*
X868134Y441390D01*
X868138Y441382D01*
X868141Y441374D01*
X868236Y441205D01*
X868329Y441038D01*
X868334Y441031D01*
X868339Y441023D01*
X868465Y440877D01*
X868589Y440731D01*
X868596Y440725D01*
X868602Y440718D01*
X868753Y440601D01*
X868905Y440481D01*
X868913Y440477D01*
X868920Y440472D01*
X869092Y440386D01*
X869264Y440299D01*
X869273Y440296D01*
X869281Y440292D01*
X869467Y440242D01*
X869652Y440191D01*
X869661Y440190D01*
X869669Y440188D01*
X870000Y440161D01*
X876926Y440161D01*
X877059Y440174D01*
G37*
G36*
X705012Y466301D02*
X705012Y466301D01*
X705039Y466299D01*
X705213Y466321D01*
X705386Y466339D01*
X705412Y466346D01*
X705439Y466350D01*
X705604Y466405D01*
X705771Y466457D01*
X705795Y466470D01*
X705820Y466478D01*
X705972Y466565D01*
X706125Y466649D01*
X706146Y466666D01*
X706169Y466679D01*
X706422Y466894D01*
X767500Y527972D01*
X767517Y527993D01*
X767538Y528010D01*
X767645Y528148D01*
X767755Y528283D01*
X767768Y528307D01*
X767784Y528328D01*
X767862Y528485D01*
X767944Y528639D01*
X767952Y528665D01*
X767964Y528689D01*
X768009Y528858D01*
X768059Y529025D01*
X768061Y529052D01*
X768068Y529077D01*
X768095Y529408D01*
X768095Y560444D01*
X768093Y560462D01*
X768095Y560480D01*
X768074Y560662D01*
X768055Y560845D01*
X768050Y560862D01*
X768048Y560879D01*
X767991Y561054D01*
X767937Y561230D01*
X767929Y561245D01*
X767923Y561262D01*
X767833Y561422D01*
X767745Y561584D01*
X767734Y561597D01*
X767725Y561613D01*
X767605Y561752D01*
X767488Y561893D01*
X767474Y561904D01*
X767462Y561918D01*
X767317Y562030D01*
X767174Y562145D01*
X767158Y562153D01*
X767144Y562164D01*
X766979Y562246D01*
X766817Y562331D01*
X766800Y562336D01*
X766784Y562344D01*
X766605Y562391D01*
X766430Y562442D01*
X766412Y562444D01*
X766395Y562448D01*
X766064Y562475D01*
X761368Y562475D01*
X760475Y563368D01*
X760475Y577632D01*
X761407Y578564D01*
X761419Y578577D01*
X761432Y578589D01*
X761547Y578734D01*
X761662Y578875D01*
X761671Y578891D01*
X761682Y578905D01*
X761765Y579069D01*
X761851Y579231D01*
X761856Y579248D01*
X761864Y579264D01*
X761914Y579441D01*
X761966Y579617D01*
X761967Y579635D01*
X761972Y579652D01*
X761986Y579835D01*
X762002Y580018D01*
X762000Y580036D01*
X762002Y580053D01*
X761979Y580235D01*
X761959Y580418D01*
X761953Y580435D01*
X761951Y580453D01*
X761893Y580626D01*
X761837Y580802D01*
X761829Y580818D01*
X761823Y580834D01*
X761732Y580993D01*
X761643Y581154D01*
X761631Y581168D01*
X761622Y581183D01*
X761407Y581436D01*
X760475Y582368D01*
X760475Y583150D01*
X760473Y583168D01*
X760475Y583186D01*
X760454Y583368D01*
X760435Y583551D01*
X760430Y583568D01*
X760428Y583585D01*
X760371Y583760D01*
X760317Y583936D01*
X760309Y583951D01*
X760303Y583968D01*
X760213Y584128D01*
X760125Y584290D01*
X760114Y584303D01*
X760105Y584319D01*
X759985Y584458D01*
X759868Y584599D01*
X759854Y584610D01*
X759842Y584624D01*
X759697Y584736D01*
X759554Y584851D01*
X759538Y584859D01*
X759524Y584870D01*
X759359Y584952D01*
X759197Y585037D01*
X759180Y585042D01*
X759164Y585050D01*
X758985Y585097D01*
X758810Y585148D01*
X758792Y585150D01*
X758775Y585154D01*
X758444Y585181D01*
X751556Y585181D01*
X751538Y585179D01*
X751520Y585181D01*
X751338Y585160D01*
X751155Y585141D01*
X751138Y585136D01*
X751121Y585134D01*
X750946Y585077D01*
X750770Y585023D01*
X750755Y585015D01*
X750738Y585009D01*
X750578Y584919D01*
X750416Y584831D01*
X750403Y584820D01*
X750387Y584811D01*
X750248Y584691D01*
X750107Y584574D01*
X750096Y584560D01*
X750082Y584548D01*
X749970Y584403D01*
X749855Y584260D01*
X749847Y584244D01*
X749836Y584230D01*
X749754Y584065D01*
X749669Y583903D01*
X749664Y583886D01*
X749656Y583870D01*
X749609Y583691D01*
X749558Y583516D01*
X749556Y583498D01*
X749552Y583481D01*
X749525Y583150D01*
X749525Y582368D01*
X748593Y581436D01*
X748581Y581422D01*
X748568Y581411D01*
X748454Y581267D01*
X748338Y581125D01*
X748329Y581109D01*
X748318Y581095D01*
X748235Y580931D01*
X748149Y580769D01*
X748144Y580752D01*
X748136Y580736D01*
X748086Y580559D01*
X748034Y580383D01*
X748033Y580365D01*
X748028Y580348D01*
X748014Y580165D01*
X747998Y579982D01*
X748000Y579964D01*
X747998Y579947D01*
X748021Y579765D01*
X748041Y579582D01*
X748047Y579565D01*
X748049Y579547D01*
X748107Y579373D01*
X748163Y579198D01*
X748171Y579182D01*
X748177Y579166D01*
X748269Y579007D01*
X748357Y578846D01*
X748369Y578832D01*
X748378Y578817D01*
X748593Y578564D01*
X749525Y577632D01*
X749525Y563368D01*
X748632Y562475D01*
X731368Y562475D01*
X730475Y563368D01*
X730475Y577632D01*
X731407Y578564D01*
X731419Y578577D01*
X731432Y578589D01*
X731547Y578734D01*
X731662Y578875D01*
X731671Y578891D01*
X731682Y578905D01*
X731765Y579069D01*
X731851Y579231D01*
X731856Y579248D01*
X731864Y579264D01*
X731914Y579441D01*
X731966Y579617D01*
X731967Y579635D01*
X731972Y579652D01*
X731986Y579835D01*
X732002Y580018D01*
X732000Y580036D01*
X732002Y580053D01*
X731979Y580235D01*
X731959Y580418D01*
X731953Y580435D01*
X731951Y580453D01*
X731893Y580626D01*
X731837Y580802D01*
X731829Y580818D01*
X731823Y580834D01*
X731732Y580993D01*
X731643Y581154D01*
X731631Y581168D01*
X731622Y581183D01*
X731407Y581436D01*
X730475Y582368D01*
X730475Y583150D01*
X730473Y583168D01*
X730475Y583186D01*
X730454Y583368D01*
X730435Y583551D01*
X730430Y583568D01*
X730428Y583585D01*
X730371Y583760D01*
X730317Y583936D01*
X730309Y583951D01*
X730303Y583968D01*
X730213Y584128D01*
X730125Y584290D01*
X730114Y584303D01*
X730105Y584319D01*
X729985Y584458D01*
X729868Y584599D01*
X729854Y584610D01*
X729842Y584624D01*
X729697Y584736D01*
X729554Y584851D01*
X729538Y584859D01*
X729524Y584870D01*
X729359Y584952D01*
X729197Y585037D01*
X729180Y585042D01*
X729164Y585050D01*
X728985Y585097D01*
X728810Y585148D01*
X728792Y585150D01*
X728775Y585154D01*
X728444Y585181D01*
X721556Y585181D01*
X721538Y585179D01*
X721520Y585181D01*
X721338Y585160D01*
X721155Y585141D01*
X721138Y585136D01*
X721121Y585134D01*
X720946Y585077D01*
X720770Y585023D01*
X720755Y585015D01*
X720738Y585009D01*
X720578Y584919D01*
X720416Y584831D01*
X720403Y584820D01*
X720387Y584811D01*
X720248Y584691D01*
X720107Y584574D01*
X720096Y584560D01*
X720082Y584548D01*
X719970Y584403D01*
X719855Y584260D01*
X719847Y584244D01*
X719836Y584230D01*
X719754Y584065D01*
X719669Y583903D01*
X719664Y583886D01*
X719656Y583870D01*
X719609Y583691D01*
X719558Y583516D01*
X719556Y583498D01*
X719552Y583481D01*
X719525Y583150D01*
X719525Y582368D01*
X718593Y581436D01*
X718581Y581422D01*
X718568Y581411D01*
X718454Y581267D01*
X718338Y581125D01*
X718329Y581109D01*
X718318Y581095D01*
X718235Y580931D01*
X718149Y580769D01*
X718144Y580752D01*
X718136Y580736D01*
X718086Y580559D01*
X718034Y580383D01*
X718033Y580365D01*
X718028Y580348D01*
X718014Y580165D01*
X717998Y579982D01*
X718000Y579964D01*
X717998Y579947D01*
X718021Y579765D01*
X718041Y579582D01*
X718047Y579565D01*
X718049Y579547D01*
X718107Y579373D01*
X718163Y579198D01*
X718171Y579182D01*
X718177Y579166D01*
X718269Y579007D01*
X718357Y578846D01*
X718369Y578832D01*
X718378Y578817D01*
X718593Y578564D01*
X719525Y577632D01*
X719525Y564804D01*
X719527Y564781D01*
X719525Y564759D01*
X719547Y564582D01*
X719565Y564403D01*
X719571Y564382D01*
X719574Y564360D01*
X719630Y564190D01*
X719683Y564018D01*
X719693Y563999D01*
X719700Y563977D01*
X719789Y563821D01*
X719875Y563664D01*
X719889Y563647D01*
X719900Y563628D01*
X720018Y563492D01*
X720132Y563355D01*
X720150Y563341D01*
X720164Y563324D01*
X720307Y563215D01*
X720446Y563103D01*
X720466Y563092D01*
X720483Y563079D01*
X720779Y562927D01*
X722334Y562283D01*
X723827Y560790D01*
X724635Y558840D01*
X724635Y556728D01*
X723827Y554778D01*
X722334Y553285D01*
X720384Y552477D01*
X718272Y552477D01*
X716041Y553401D01*
X716028Y553405D01*
X716017Y553411D01*
X715837Y553463D01*
X715656Y553518D01*
X715643Y553519D01*
X715630Y553523D01*
X715442Y553538D01*
X715255Y553556D01*
X715242Y553555D01*
X715228Y553556D01*
X715042Y553534D01*
X714855Y553514D01*
X714842Y553510D01*
X714829Y553509D01*
X714650Y553451D01*
X714470Y553395D01*
X714459Y553388D01*
X714446Y553384D01*
X714281Y553291D01*
X714117Y553201D01*
X714107Y553193D01*
X714095Y553186D01*
X713953Y553063D01*
X713809Y552942D01*
X713801Y552932D01*
X713790Y552923D01*
X713676Y552775D01*
X713558Y552627D01*
X713552Y552615D01*
X713544Y552605D01*
X713460Y552437D01*
X713374Y552269D01*
X713370Y552256D01*
X713364Y552244D01*
X713315Y552062D01*
X713264Y551882D01*
X713263Y551869D01*
X713260Y551856D01*
X713233Y551525D01*
X713233Y529089D01*
X710852Y526708D01*
X653910Y469766D01*
X653904Y469759D01*
X653897Y469754D01*
X653777Y469604D01*
X653655Y469455D01*
X653651Y469447D01*
X653645Y469440D01*
X653556Y469269D01*
X653466Y469099D01*
X653464Y469091D01*
X653459Y469083D01*
X653406Y468897D01*
X653351Y468713D01*
X653351Y468704D01*
X653348Y468696D01*
X653332Y468504D01*
X653315Y468312D01*
X653316Y468303D01*
X653315Y468294D01*
X653337Y468105D01*
X653358Y467912D01*
X653361Y467903D01*
X653362Y467895D01*
X653421Y467713D01*
X653480Y467528D01*
X653484Y467520D01*
X653487Y467512D01*
X653582Y467343D01*
X653675Y467176D01*
X653680Y467169D01*
X653685Y467161D01*
X653811Y467015D01*
X653935Y466869D01*
X653942Y466863D01*
X653948Y466856D01*
X654099Y466739D01*
X654251Y466619D01*
X654259Y466615D01*
X654266Y466610D01*
X654438Y466524D01*
X654610Y466437D01*
X654619Y466434D01*
X654627Y466430D01*
X654813Y466380D01*
X654998Y466329D01*
X655007Y466328D01*
X655015Y466326D01*
X655346Y466299D01*
X704986Y466299D01*
X705012Y466301D01*
G37*
G36*
X289947Y459800D02*
X289947Y459800D01*
X289956Y459799D01*
X290149Y459820D01*
X290338Y459839D01*
X290347Y459841D01*
X290356Y459842D01*
X290540Y459901D01*
X290723Y459957D01*
X290731Y459961D01*
X290740Y459964D01*
X290908Y460057D01*
X291077Y460149D01*
X291084Y460154D01*
X291092Y460159D01*
X291239Y460283D01*
X291387Y460406D01*
X291392Y460413D01*
X291399Y460419D01*
X291519Y460571D01*
X291639Y460720D01*
X291643Y460728D01*
X291649Y460735D01*
X291736Y460908D01*
X291825Y461077D01*
X291827Y461086D01*
X291831Y461094D01*
X291883Y461280D01*
X291936Y461464D01*
X291937Y461473D01*
X291939Y461482D01*
X291953Y461675D01*
X291969Y461866D01*
X291968Y461874D01*
X291968Y461883D01*
X291944Y462076D01*
X291922Y462265D01*
X291919Y462274D01*
X291918Y462283D01*
X291857Y462465D01*
X291797Y462648D01*
X291793Y462656D01*
X291790Y462664D01*
X291694Y462831D01*
X291599Y462999D01*
X291593Y463006D01*
X291589Y463013D01*
X291374Y463266D01*
X227932Y526708D01*
X225551Y529089D01*
X225551Y560444D01*
X225549Y560462D01*
X225551Y560480D01*
X225530Y560662D01*
X225511Y560845D01*
X225506Y560862D01*
X225504Y560879D01*
X225447Y561054D01*
X225393Y561230D01*
X225385Y561245D01*
X225379Y561262D01*
X225289Y561422D01*
X225201Y561584D01*
X225190Y561597D01*
X225181Y561613D01*
X225061Y561752D01*
X224944Y561893D01*
X224930Y561904D01*
X224918Y561918D01*
X224773Y562030D01*
X224630Y562145D01*
X224614Y562153D01*
X224600Y562164D01*
X224435Y562246D01*
X224273Y562331D01*
X224256Y562336D01*
X224240Y562344D01*
X224061Y562391D01*
X223886Y562442D01*
X223868Y562444D01*
X223851Y562448D01*
X223520Y562475D01*
X221368Y562475D01*
X220475Y563368D01*
X220475Y577632D01*
X221407Y578564D01*
X221419Y578577D01*
X221432Y578589D01*
X221547Y578734D01*
X221662Y578875D01*
X221671Y578891D01*
X221682Y578905D01*
X221765Y579069D01*
X221851Y579231D01*
X221856Y579248D01*
X221864Y579264D01*
X221914Y579441D01*
X221966Y579617D01*
X221967Y579635D01*
X221972Y579652D01*
X221986Y579835D01*
X222002Y580018D01*
X222000Y580036D01*
X222002Y580053D01*
X221979Y580235D01*
X221959Y580418D01*
X221953Y580435D01*
X221951Y580453D01*
X221893Y580626D01*
X221837Y580802D01*
X221829Y580818D01*
X221823Y580834D01*
X221732Y580993D01*
X221643Y581154D01*
X221631Y581168D01*
X221622Y581183D01*
X221407Y581436D01*
X220475Y582368D01*
X220475Y583150D01*
X220473Y583168D01*
X220475Y583186D01*
X220454Y583368D01*
X220435Y583551D01*
X220430Y583568D01*
X220428Y583585D01*
X220371Y583760D01*
X220317Y583936D01*
X220309Y583951D01*
X220303Y583968D01*
X220213Y584128D01*
X220125Y584290D01*
X220114Y584303D01*
X220105Y584319D01*
X219985Y584458D01*
X219868Y584599D01*
X219854Y584610D01*
X219842Y584624D01*
X219697Y584736D01*
X219554Y584851D01*
X219538Y584859D01*
X219524Y584870D01*
X219359Y584952D01*
X219197Y585037D01*
X219180Y585042D01*
X219164Y585050D01*
X218985Y585097D01*
X218810Y585148D01*
X218792Y585150D01*
X218775Y585154D01*
X218444Y585181D01*
X211556Y585181D01*
X211538Y585179D01*
X211520Y585181D01*
X211338Y585160D01*
X211155Y585141D01*
X211138Y585136D01*
X211121Y585134D01*
X210946Y585077D01*
X210770Y585023D01*
X210755Y585015D01*
X210738Y585009D01*
X210578Y584919D01*
X210416Y584831D01*
X210403Y584820D01*
X210387Y584811D01*
X210248Y584691D01*
X210107Y584574D01*
X210096Y584560D01*
X210082Y584548D01*
X209970Y584403D01*
X209855Y584260D01*
X209847Y584244D01*
X209836Y584230D01*
X209754Y584065D01*
X209669Y583903D01*
X209664Y583886D01*
X209656Y583870D01*
X209609Y583691D01*
X209558Y583516D01*
X209556Y583498D01*
X209552Y583481D01*
X209525Y583150D01*
X209525Y582368D01*
X208593Y581436D01*
X208581Y581422D01*
X208568Y581411D01*
X208454Y581267D01*
X208338Y581125D01*
X208329Y581109D01*
X208318Y581095D01*
X208235Y580931D01*
X208149Y580769D01*
X208144Y580752D01*
X208136Y580736D01*
X208086Y580559D01*
X208034Y580383D01*
X208033Y580365D01*
X208028Y580348D01*
X208014Y580165D01*
X207998Y579982D01*
X208000Y579964D01*
X207998Y579947D01*
X208021Y579765D01*
X208041Y579582D01*
X208047Y579565D01*
X208049Y579547D01*
X208107Y579373D01*
X208163Y579198D01*
X208171Y579182D01*
X208177Y579166D01*
X208269Y579007D01*
X208357Y578846D01*
X208369Y578832D01*
X208378Y578817D01*
X208593Y578564D01*
X209525Y577632D01*
X209525Y563368D01*
X208632Y562475D01*
X191368Y562475D01*
X190475Y563368D01*
X190475Y577632D01*
X191407Y578564D01*
X191419Y578577D01*
X191432Y578589D01*
X191547Y578734D01*
X191662Y578875D01*
X191671Y578891D01*
X191682Y578905D01*
X191765Y579069D01*
X191851Y579231D01*
X191856Y579248D01*
X191864Y579264D01*
X191914Y579441D01*
X191966Y579617D01*
X191967Y579635D01*
X191972Y579652D01*
X191986Y579835D01*
X192002Y580018D01*
X192000Y580036D01*
X192002Y580053D01*
X191979Y580235D01*
X191959Y580418D01*
X191953Y580435D01*
X191951Y580453D01*
X191893Y580626D01*
X191837Y580802D01*
X191829Y580818D01*
X191823Y580834D01*
X191732Y580993D01*
X191643Y581154D01*
X191631Y581168D01*
X191622Y581183D01*
X191407Y581436D01*
X190475Y582368D01*
X190475Y583150D01*
X190473Y583168D01*
X190475Y583186D01*
X190454Y583368D01*
X190435Y583551D01*
X190430Y583568D01*
X190428Y583585D01*
X190371Y583760D01*
X190317Y583936D01*
X190309Y583951D01*
X190303Y583968D01*
X190213Y584128D01*
X190125Y584290D01*
X190114Y584303D01*
X190105Y584319D01*
X189985Y584458D01*
X189868Y584599D01*
X189854Y584610D01*
X189842Y584624D01*
X189697Y584736D01*
X189554Y584851D01*
X189538Y584859D01*
X189524Y584870D01*
X189359Y584952D01*
X189197Y585037D01*
X189180Y585042D01*
X189164Y585050D01*
X188985Y585097D01*
X188810Y585148D01*
X188792Y585150D01*
X188775Y585154D01*
X188444Y585181D01*
X181556Y585181D01*
X181538Y585179D01*
X181520Y585181D01*
X181338Y585160D01*
X181155Y585141D01*
X181138Y585136D01*
X181121Y585134D01*
X180946Y585077D01*
X180770Y585023D01*
X180755Y585015D01*
X180738Y585009D01*
X180578Y584919D01*
X180416Y584831D01*
X180403Y584820D01*
X180387Y584811D01*
X180248Y584691D01*
X180107Y584574D01*
X180096Y584560D01*
X180082Y584548D01*
X179970Y584403D01*
X179855Y584260D01*
X179847Y584244D01*
X179836Y584230D01*
X179754Y584065D01*
X179669Y583903D01*
X179664Y583886D01*
X179656Y583870D01*
X179609Y583691D01*
X179558Y583516D01*
X179556Y583498D01*
X179552Y583481D01*
X179525Y583150D01*
X179525Y582368D01*
X178593Y581436D01*
X178581Y581422D01*
X178568Y581411D01*
X178454Y581267D01*
X178338Y581125D01*
X178329Y581109D01*
X178318Y581095D01*
X178235Y580931D01*
X178149Y580769D01*
X178144Y580752D01*
X178136Y580736D01*
X178086Y580559D01*
X178034Y580383D01*
X178033Y580365D01*
X178028Y580348D01*
X178014Y580165D01*
X177998Y579982D01*
X178000Y579964D01*
X177998Y579947D01*
X178021Y579765D01*
X178041Y579582D01*
X178047Y579565D01*
X178049Y579547D01*
X178107Y579373D01*
X178163Y579198D01*
X178171Y579182D01*
X178177Y579166D01*
X178269Y579007D01*
X178357Y578846D01*
X178369Y578832D01*
X178378Y578817D01*
X178593Y578564D01*
X179525Y577632D01*
X179525Y566847D01*
X179527Y566820D01*
X179525Y566793D01*
X179547Y566620D01*
X179565Y566446D01*
X179573Y566420D01*
X179576Y566394D01*
X179631Y566228D01*
X179683Y566061D01*
X179696Y566038D01*
X179704Y566012D01*
X179791Y565860D01*
X179875Y565707D01*
X179892Y565687D01*
X179905Y565663D01*
X180120Y565410D01*
X180341Y565189D01*
X180341Y562573D01*
X180343Y562547D01*
X180341Y562520D01*
X180363Y562346D01*
X180381Y562173D01*
X180389Y562147D01*
X180392Y562121D01*
X180447Y561955D01*
X180499Y561788D01*
X180512Y561764D01*
X180520Y561739D01*
X180607Y561587D01*
X180691Y561434D01*
X180708Y561413D01*
X180721Y561390D01*
X180936Y561137D01*
X181283Y560790D01*
X182091Y558840D01*
X182091Y556728D01*
X181283Y554778D01*
X179790Y553285D01*
X177840Y552477D01*
X175682Y552477D01*
X175652Y552486D01*
X175472Y552540D01*
X175459Y552542D01*
X175446Y552545D01*
X175257Y552561D01*
X175071Y552578D01*
X175058Y552577D01*
X175044Y552578D01*
X174858Y552556D01*
X174671Y552537D01*
X174658Y552533D01*
X174645Y552531D01*
X174466Y552473D01*
X174286Y552417D01*
X174275Y552411D01*
X174262Y552406D01*
X174098Y552314D01*
X173933Y552224D01*
X173923Y552215D01*
X173911Y552209D01*
X173769Y552086D01*
X173625Y551965D01*
X173617Y551954D01*
X173606Y551945D01*
X173491Y551797D01*
X173374Y551650D01*
X173368Y551638D01*
X173360Y551627D01*
X173276Y551459D01*
X173190Y551292D01*
X173186Y551279D01*
X173180Y551267D01*
X173131Y551084D01*
X173080Y550904D01*
X173079Y550891D01*
X173076Y550878D01*
X173049Y550547D01*
X173049Y533144D01*
X173051Y533118D01*
X173049Y533091D01*
X173071Y532917D01*
X173089Y532744D01*
X173096Y532718D01*
X173100Y532691D01*
X173155Y532526D01*
X173207Y532359D01*
X173220Y532335D01*
X173228Y532310D01*
X173315Y532158D01*
X173399Y532005D01*
X173416Y531984D01*
X173429Y531961D01*
X173644Y531708D01*
X244958Y460394D01*
X244979Y460377D01*
X244996Y460356D01*
X245134Y460249D01*
X245269Y460139D01*
X245293Y460126D01*
X245314Y460110D01*
X245471Y460032D01*
X245625Y459950D01*
X245651Y459942D01*
X245675Y459930D01*
X245844Y459885D01*
X246011Y459835D01*
X246038Y459833D01*
X246063Y459826D01*
X246394Y459799D01*
X289938Y459799D01*
X289947Y459800D01*
G37*
G36*
X344407Y466300D02*
X344407Y466300D01*
X344416Y466299D01*
X344609Y466320D01*
X344798Y466339D01*
X344807Y466341D01*
X344816Y466342D01*
X345000Y466401D01*
X345183Y466457D01*
X345191Y466461D01*
X345200Y466464D01*
X345368Y466557D01*
X345537Y466649D01*
X345544Y466654D01*
X345552Y466659D01*
X345699Y466783D01*
X345847Y466906D01*
X345852Y466913D01*
X345859Y466919D01*
X345979Y467071D01*
X346099Y467220D01*
X346103Y467228D01*
X346109Y467235D01*
X346196Y467408D01*
X346285Y467577D01*
X346287Y467586D01*
X346291Y467594D01*
X346343Y467780D01*
X346396Y467964D01*
X346397Y467973D01*
X346399Y467982D01*
X346413Y468175D01*
X346429Y468366D01*
X346428Y468374D01*
X346428Y468383D01*
X346404Y468576D01*
X346382Y468765D01*
X346379Y468774D01*
X346378Y468783D01*
X346317Y468965D01*
X346257Y469148D01*
X346253Y469156D01*
X346250Y469164D01*
X346154Y469331D01*
X346059Y469499D01*
X346053Y469506D01*
X346049Y469513D01*
X345834Y469766D01*
X288892Y526708D01*
X286511Y529089D01*
X286511Y560444D01*
X286509Y560462D01*
X286511Y560480D01*
X286490Y560662D01*
X286471Y560845D01*
X286466Y560862D01*
X286464Y560879D01*
X286407Y561054D01*
X286353Y561230D01*
X286345Y561245D01*
X286339Y561262D01*
X286249Y561422D01*
X286161Y561584D01*
X286150Y561597D01*
X286141Y561613D01*
X286021Y561752D01*
X285904Y561893D01*
X285890Y561904D01*
X285878Y561918D01*
X285733Y562030D01*
X285590Y562145D01*
X285574Y562153D01*
X285560Y562164D01*
X285395Y562246D01*
X285233Y562331D01*
X285216Y562336D01*
X285200Y562344D01*
X285021Y562391D01*
X284846Y562442D01*
X284828Y562444D01*
X284811Y562448D01*
X284480Y562475D01*
X281368Y562475D01*
X280475Y563368D01*
X280475Y577632D01*
X281407Y578564D01*
X281419Y578577D01*
X281432Y578589D01*
X281547Y578734D01*
X281662Y578875D01*
X281671Y578891D01*
X281682Y578905D01*
X281765Y579069D01*
X281851Y579231D01*
X281856Y579248D01*
X281864Y579264D01*
X281914Y579441D01*
X281966Y579617D01*
X281967Y579635D01*
X281972Y579652D01*
X281986Y579835D01*
X282002Y580018D01*
X282000Y580036D01*
X282002Y580053D01*
X281979Y580235D01*
X281959Y580418D01*
X281953Y580435D01*
X281951Y580453D01*
X281893Y580626D01*
X281837Y580802D01*
X281829Y580818D01*
X281823Y580834D01*
X281732Y580993D01*
X281643Y581154D01*
X281631Y581168D01*
X281622Y581183D01*
X281407Y581436D01*
X280475Y582368D01*
X280475Y583150D01*
X280473Y583168D01*
X280475Y583186D01*
X280454Y583368D01*
X280435Y583551D01*
X280430Y583568D01*
X280428Y583585D01*
X280371Y583760D01*
X280317Y583936D01*
X280309Y583951D01*
X280303Y583968D01*
X280213Y584128D01*
X280125Y584290D01*
X280114Y584303D01*
X280105Y584319D01*
X279985Y584458D01*
X279868Y584599D01*
X279854Y584610D01*
X279842Y584624D01*
X279697Y584736D01*
X279554Y584851D01*
X279538Y584859D01*
X279524Y584870D01*
X279359Y584952D01*
X279197Y585037D01*
X279180Y585042D01*
X279164Y585050D01*
X278985Y585097D01*
X278810Y585148D01*
X278792Y585150D01*
X278775Y585154D01*
X278444Y585181D01*
X271556Y585181D01*
X271538Y585179D01*
X271520Y585181D01*
X271338Y585160D01*
X271155Y585141D01*
X271138Y585136D01*
X271121Y585134D01*
X270946Y585077D01*
X270770Y585023D01*
X270755Y585015D01*
X270738Y585009D01*
X270578Y584919D01*
X270416Y584831D01*
X270403Y584820D01*
X270387Y584811D01*
X270248Y584691D01*
X270107Y584574D01*
X270096Y584560D01*
X270082Y584548D01*
X269970Y584403D01*
X269855Y584260D01*
X269847Y584244D01*
X269836Y584230D01*
X269754Y584065D01*
X269669Y583903D01*
X269664Y583886D01*
X269656Y583870D01*
X269609Y583691D01*
X269558Y583516D01*
X269556Y583498D01*
X269552Y583481D01*
X269525Y583150D01*
X269525Y582368D01*
X268593Y581436D01*
X268581Y581422D01*
X268568Y581411D01*
X268454Y581267D01*
X268338Y581125D01*
X268329Y581109D01*
X268318Y581095D01*
X268235Y580931D01*
X268149Y580769D01*
X268144Y580752D01*
X268136Y580736D01*
X268086Y580559D01*
X268034Y580383D01*
X268033Y580365D01*
X268028Y580348D01*
X268014Y580165D01*
X267998Y579982D01*
X268000Y579964D01*
X267998Y579947D01*
X268021Y579765D01*
X268041Y579582D01*
X268047Y579565D01*
X268049Y579547D01*
X268107Y579373D01*
X268163Y579198D01*
X268171Y579182D01*
X268177Y579166D01*
X268269Y579007D01*
X268357Y578846D01*
X268369Y578832D01*
X268378Y578817D01*
X268593Y578564D01*
X269525Y577632D01*
X269525Y563368D01*
X268632Y562475D01*
X251368Y562475D01*
X250475Y563368D01*
X250475Y577632D01*
X251407Y578564D01*
X251419Y578577D01*
X251432Y578589D01*
X251547Y578734D01*
X251662Y578875D01*
X251671Y578891D01*
X251682Y578905D01*
X251765Y579069D01*
X251851Y579231D01*
X251856Y579248D01*
X251864Y579264D01*
X251914Y579441D01*
X251966Y579617D01*
X251967Y579635D01*
X251972Y579652D01*
X251986Y579835D01*
X252002Y580018D01*
X252000Y580036D01*
X252002Y580053D01*
X251979Y580235D01*
X251959Y580418D01*
X251953Y580435D01*
X251951Y580453D01*
X251893Y580626D01*
X251837Y580802D01*
X251829Y580818D01*
X251823Y580834D01*
X251732Y580993D01*
X251643Y581154D01*
X251631Y581168D01*
X251622Y581183D01*
X251407Y581436D01*
X250475Y582368D01*
X250475Y583150D01*
X250473Y583168D01*
X250475Y583186D01*
X250454Y583368D01*
X250435Y583551D01*
X250430Y583568D01*
X250428Y583585D01*
X250371Y583760D01*
X250317Y583936D01*
X250309Y583951D01*
X250303Y583968D01*
X250213Y584128D01*
X250125Y584290D01*
X250114Y584303D01*
X250105Y584319D01*
X249985Y584458D01*
X249868Y584599D01*
X249854Y584610D01*
X249842Y584624D01*
X249697Y584736D01*
X249554Y584851D01*
X249538Y584859D01*
X249524Y584870D01*
X249359Y584952D01*
X249197Y585037D01*
X249180Y585042D01*
X249164Y585050D01*
X248985Y585097D01*
X248810Y585148D01*
X248792Y585150D01*
X248775Y585154D01*
X248444Y585181D01*
X241556Y585181D01*
X241538Y585179D01*
X241520Y585181D01*
X241338Y585160D01*
X241155Y585141D01*
X241138Y585136D01*
X241121Y585134D01*
X240946Y585077D01*
X240770Y585023D01*
X240755Y585015D01*
X240738Y585009D01*
X240578Y584919D01*
X240416Y584831D01*
X240403Y584820D01*
X240387Y584811D01*
X240248Y584691D01*
X240107Y584574D01*
X240096Y584560D01*
X240082Y584548D01*
X239970Y584403D01*
X239855Y584260D01*
X239847Y584244D01*
X239836Y584230D01*
X239754Y584065D01*
X239669Y583903D01*
X239664Y583886D01*
X239656Y583870D01*
X239609Y583691D01*
X239558Y583516D01*
X239556Y583498D01*
X239552Y583481D01*
X239525Y583150D01*
X239525Y582368D01*
X238593Y581436D01*
X238581Y581422D01*
X238568Y581411D01*
X238454Y581267D01*
X238338Y581125D01*
X238329Y581109D01*
X238318Y581095D01*
X238235Y580931D01*
X238149Y580769D01*
X238144Y580752D01*
X238136Y580736D01*
X238086Y580559D01*
X238034Y580383D01*
X238033Y580365D01*
X238028Y580348D01*
X238014Y580165D01*
X237998Y579982D01*
X238000Y579964D01*
X237998Y579947D01*
X238021Y579765D01*
X238041Y579582D01*
X238047Y579565D01*
X238049Y579547D01*
X238107Y579373D01*
X238163Y579198D01*
X238171Y579182D01*
X238177Y579166D01*
X238269Y579007D01*
X238357Y578846D01*
X238369Y578832D01*
X238378Y578817D01*
X238593Y578564D01*
X239525Y577632D01*
X239525Y563446D01*
X239528Y563415D01*
X239526Y563383D01*
X239548Y563214D01*
X239565Y563045D01*
X239574Y563015D01*
X239578Y562984D01*
X239679Y562668D01*
X240003Y561888D01*
X240003Y559776D01*
X239195Y557826D01*
X237702Y556333D01*
X235752Y555525D01*
X233680Y555525D01*
X233662Y555523D01*
X233644Y555525D01*
X233462Y555504D01*
X233279Y555485D01*
X233262Y555480D01*
X233245Y555478D01*
X233070Y555421D01*
X232894Y555367D01*
X232879Y555359D01*
X232862Y555353D01*
X232702Y555263D01*
X232540Y555175D01*
X232527Y555164D01*
X232511Y555155D01*
X232372Y555035D01*
X232231Y554918D01*
X232220Y554904D01*
X232206Y554892D01*
X232094Y554747D01*
X231979Y554604D01*
X231971Y554588D01*
X231960Y554574D01*
X231878Y554409D01*
X231793Y554247D01*
X231788Y554230D01*
X231780Y554214D01*
X231733Y554035D01*
X231682Y553860D01*
X231680Y553842D01*
X231676Y553825D01*
X231649Y553494D01*
X231649Y532456D01*
X231651Y532430D01*
X231649Y532403D01*
X231671Y532229D01*
X231689Y532056D01*
X231696Y532030D01*
X231700Y532003D01*
X231755Y531838D01*
X231807Y531671D01*
X231820Y531647D01*
X231828Y531622D01*
X231915Y531470D01*
X231999Y531317D01*
X232016Y531296D01*
X232029Y531273D01*
X232244Y531020D01*
X296370Y466894D01*
X296391Y466877D01*
X296408Y466856D01*
X296546Y466749D01*
X296681Y466639D01*
X296705Y466626D01*
X296726Y466610D01*
X296883Y466532D01*
X297037Y466450D01*
X297063Y466442D01*
X297087Y466430D01*
X297256Y466385D01*
X297423Y466335D01*
X297450Y466333D01*
X297475Y466326D01*
X297806Y466299D01*
X344398Y466299D01*
X344407Y466300D01*
G37*
G36*
X753376Y459801D02*
X753376Y459801D01*
X753403Y459799D01*
X753577Y459821D01*
X753750Y459839D01*
X753776Y459846D01*
X753803Y459850D01*
X753968Y459905D01*
X754135Y459957D01*
X754159Y459970D01*
X754184Y459978D01*
X754336Y460065D01*
X754489Y460149D01*
X754510Y460166D01*
X754533Y460179D01*
X754786Y460394D01*
X826356Y531964D01*
X826373Y531985D01*
X826394Y532002D01*
X826501Y532140D01*
X826611Y532275D01*
X826624Y532299D01*
X826640Y532320D01*
X826718Y532477D01*
X826800Y532631D01*
X826808Y532657D01*
X826820Y532681D01*
X826865Y532850D01*
X826915Y533017D01*
X826917Y533044D01*
X826924Y533069D01*
X826951Y533400D01*
X826951Y560444D01*
X826949Y560462D01*
X826951Y560480D01*
X826930Y560662D01*
X826911Y560845D01*
X826906Y560862D01*
X826904Y560879D01*
X826847Y561054D01*
X826793Y561230D01*
X826785Y561245D01*
X826779Y561262D01*
X826689Y561422D01*
X826601Y561584D01*
X826590Y561597D01*
X826581Y561613D01*
X826461Y561752D01*
X826344Y561893D01*
X826330Y561904D01*
X826318Y561918D01*
X826173Y562030D01*
X826030Y562145D01*
X826014Y562153D01*
X826000Y562164D01*
X825835Y562246D01*
X825673Y562331D01*
X825656Y562336D01*
X825640Y562344D01*
X825461Y562391D01*
X825286Y562442D01*
X825268Y562444D01*
X825251Y562448D01*
X824920Y562475D01*
X821368Y562475D01*
X820475Y563368D01*
X820475Y577632D01*
X821407Y578564D01*
X821419Y578577D01*
X821432Y578589D01*
X821547Y578734D01*
X821662Y578875D01*
X821671Y578891D01*
X821682Y578905D01*
X821765Y579069D01*
X821851Y579231D01*
X821856Y579248D01*
X821864Y579264D01*
X821914Y579441D01*
X821966Y579617D01*
X821967Y579635D01*
X821972Y579652D01*
X821986Y579835D01*
X822002Y580018D01*
X822000Y580036D01*
X822002Y580053D01*
X821979Y580235D01*
X821959Y580418D01*
X821953Y580435D01*
X821951Y580453D01*
X821893Y580626D01*
X821837Y580802D01*
X821829Y580818D01*
X821823Y580834D01*
X821732Y580993D01*
X821643Y581154D01*
X821631Y581168D01*
X821622Y581183D01*
X821407Y581436D01*
X820475Y582368D01*
X820475Y583150D01*
X820473Y583168D01*
X820475Y583186D01*
X820454Y583368D01*
X820435Y583551D01*
X820430Y583568D01*
X820428Y583585D01*
X820371Y583760D01*
X820317Y583936D01*
X820309Y583951D01*
X820303Y583968D01*
X820213Y584128D01*
X820125Y584290D01*
X820114Y584303D01*
X820105Y584319D01*
X819985Y584458D01*
X819868Y584599D01*
X819854Y584610D01*
X819842Y584624D01*
X819697Y584736D01*
X819554Y584851D01*
X819538Y584859D01*
X819524Y584870D01*
X819359Y584952D01*
X819197Y585037D01*
X819180Y585042D01*
X819164Y585050D01*
X818985Y585097D01*
X818810Y585148D01*
X818792Y585150D01*
X818775Y585154D01*
X818444Y585181D01*
X811556Y585181D01*
X811538Y585179D01*
X811520Y585181D01*
X811338Y585160D01*
X811155Y585141D01*
X811138Y585136D01*
X811121Y585134D01*
X810946Y585077D01*
X810770Y585023D01*
X810755Y585015D01*
X810738Y585009D01*
X810578Y584919D01*
X810416Y584831D01*
X810403Y584820D01*
X810387Y584811D01*
X810248Y584691D01*
X810107Y584574D01*
X810096Y584560D01*
X810082Y584548D01*
X809970Y584403D01*
X809855Y584260D01*
X809847Y584244D01*
X809836Y584230D01*
X809754Y584065D01*
X809669Y583903D01*
X809664Y583886D01*
X809656Y583870D01*
X809609Y583691D01*
X809558Y583516D01*
X809556Y583498D01*
X809552Y583481D01*
X809525Y583150D01*
X809525Y582368D01*
X808593Y581436D01*
X808581Y581422D01*
X808568Y581411D01*
X808454Y581267D01*
X808338Y581125D01*
X808329Y581109D01*
X808318Y581095D01*
X808235Y580931D01*
X808149Y580769D01*
X808144Y580752D01*
X808136Y580736D01*
X808086Y580559D01*
X808034Y580383D01*
X808033Y580365D01*
X808028Y580348D01*
X808014Y580165D01*
X807998Y579982D01*
X808000Y579964D01*
X807998Y579947D01*
X808021Y579765D01*
X808041Y579582D01*
X808047Y579565D01*
X808049Y579547D01*
X808107Y579373D01*
X808163Y579198D01*
X808171Y579182D01*
X808177Y579166D01*
X808269Y579007D01*
X808357Y578846D01*
X808369Y578832D01*
X808378Y578817D01*
X808593Y578564D01*
X809525Y577632D01*
X809525Y563368D01*
X808632Y562475D01*
X791368Y562475D01*
X790475Y563368D01*
X790475Y577632D01*
X791407Y578564D01*
X791419Y578577D01*
X791432Y578589D01*
X791547Y578734D01*
X791662Y578875D01*
X791671Y578891D01*
X791682Y578905D01*
X791765Y579069D01*
X791851Y579231D01*
X791856Y579248D01*
X791864Y579264D01*
X791914Y579441D01*
X791966Y579617D01*
X791967Y579635D01*
X791972Y579652D01*
X791986Y579835D01*
X792002Y580018D01*
X792000Y580036D01*
X792002Y580053D01*
X791979Y580235D01*
X791959Y580418D01*
X791953Y580435D01*
X791951Y580453D01*
X791893Y580626D01*
X791837Y580802D01*
X791829Y580818D01*
X791823Y580834D01*
X791732Y580993D01*
X791643Y581154D01*
X791631Y581168D01*
X791622Y581183D01*
X791407Y581436D01*
X790475Y582368D01*
X790475Y583150D01*
X790473Y583168D01*
X790475Y583186D01*
X790454Y583368D01*
X790435Y583551D01*
X790430Y583568D01*
X790428Y583585D01*
X790371Y583760D01*
X790317Y583936D01*
X790309Y583951D01*
X790303Y583968D01*
X790213Y584128D01*
X790125Y584290D01*
X790114Y584303D01*
X790105Y584319D01*
X789985Y584458D01*
X789868Y584599D01*
X789854Y584610D01*
X789842Y584624D01*
X789697Y584736D01*
X789554Y584851D01*
X789538Y584859D01*
X789524Y584870D01*
X789359Y584952D01*
X789197Y585037D01*
X789180Y585042D01*
X789164Y585050D01*
X788985Y585097D01*
X788810Y585148D01*
X788792Y585150D01*
X788775Y585154D01*
X788444Y585181D01*
X781556Y585181D01*
X781538Y585179D01*
X781520Y585181D01*
X781338Y585160D01*
X781155Y585141D01*
X781138Y585136D01*
X781121Y585134D01*
X780946Y585077D01*
X780770Y585023D01*
X780755Y585015D01*
X780738Y585009D01*
X780578Y584919D01*
X780416Y584831D01*
X780403Y584820D01*
X780387Y584811D01*
X780248Y584691D01*
X780107Y584574D01*
X780096Y584560D01*
X780082Y584548D01*
X779970Y584403D01*
X779855Y584260D01*
X779847Y584244D01*
X779836Y584230D01*
X779754Y584065D01*
X779669Y583903D01*
X779664Y583886D01*
X779656Y583870D01*
X779609Y583691D01*
X779558Y583516D01*
X779556Y583498D01*
X779552Y583481D01*
X779525Y583150D01*
X779525Y582368D01*
X778593Y581436D01*
X778581Y581422D01*
X778568Y581411D01*
X778454Y581267D01*
X778338Y581125D01*
X778329Y581109D01*
X778318Y581095D01*
X778235Y580931D01*
X778149Y580769D01*
X778144Y580752D01*
X778136Y580736D01*
X778086Y580559D01*
X778034Y580383D01*
X778033Y580365D01*
X778028Y580348D01*
X778014Y580165D01*
X777998Y579982D01*
X778000Y579964D01*
X777998Y579947D01*
X778021Y579765D01*
X778041Y579582D01*
X778047Y579565D01*
X778049Y579547D01*
X778107Y579373D01*
X778163Y579198D01*
X778171Y579182D01*
X778177Y579166D01*
X778269Y579007D01*
X778357Y578846D01*
X778369Y578832D01*
X778378Y578817D01*
X778593Y578564D01*
X779525Y577632D01*
X779525Y566847D01*
X779527Y566820D01*
X779525Y566793D01*
X779547Y566619D01*
X779565Y566446D01*
X779572Y566420D01*
X779576Y566394D01*
X779632Y566228D01*
X779683Y566061D01*
X779696Y566037D01*
X779704Y566012D01*
X779791Y565861D01*
X779875Y565707D01*
X779892Y565686D01*
X779905Y565663D01*
X780120Y565410D01*
X780797Y564733D01*
X780797Y562573D01*
X780799Y562547D01*
X780797Y562520D01*
X780819Y562346D01*
X780837Y562173D01*
X780845Y562147D01*
X780848Y562121D01*
X780903Y561955D01*
X780955Y561788D01*
X780968Y561764D01*
X780976Y561739D01*
X781063Y561587D01*
X781147Y561434D01*
X781164Y561413D01*
X781177Y561390D01*
X781392Y561137D01*
X781739Y560790D01*
X782547Y558840D01*
X782547Y556728D01*
X781739Y554778D01*
X780246Y553285D01*
X778296Y552477D01*
X776224Y552477D01*
X776206Y552475D01*
X776188Y552477D01*
X776006Y552456D01*
X775823Y552437D01*
X775806Y552432D01*
X775789Y552430D01*
X775614Y552373D01*
X775438Y552319D01*
X775423Y552311D01*
X775406Y552305D01*
X775246Y552215D01*
X775084Y552127D01*
X775071Y552116D01*
X775055Y552107D01*
X774916Y551987D01*
X774775Y551870D01*
X774764Y551856D01*
X774750Y551844D01*
X774638Y551699D01*
X774523Y551556D01*
X774515Y551540D01*
X774504Y551526D01*
X774422Y551361D01*
X774337Y551199D01*
X774332Y551182D01*
X774324Y551166D01*
X774277Y550987D01*
X774226Y550812D01*
X774224Y550794D01*
X774220Y550777D01*
X774193Y550446D01*
X774193Y526041D01*
X771812Y523660D01*
X711418Y463266D01*
X711412Y463259D01*
X711405Y463254D01*
X711285Y463104D01*
X711163Y462955D01*
X711159Y462947D01*
X711153Y462940D01*
X711064Y462769D01*
X710974Y462599D01*
X710972Y462591D01*
X710967Y462583D01*
X710914Y462397D01*
X710859Y462213D01*
X710859Y462204D01*
X710856Y462196D01*
X710840Y462004D01*
X710823Y461812D01*
X710824Y461803D01*
X710823Y461794D01*
X710845Y461605D01*
X710866Y461412D01*
X710869Y461403D01*
X710870Y461395D01*
X710929Y461213D01*
X710988Y461028D01*
X710992Y461020D01*
X710995Y461012D01*
X711090Y460843D01*
X711183Y460676D01*
X711188Y460669D01*
X711193Y460661D01*
X711319Y460515D01*
X711443Y460369D01*
X711450Y460363D01*
X711456Y460356D01*
X711607Y460239D01*
X711759Y460119D01*
X711767Y460115D01*
X711774Y460110D01*
X711946Y460024D01*
X712118Y459937D01*
X712127Y459934D01*
X712135Y459930D01*
X712321Y459880D01*
X712506Y459829D01*
X712515Y459828D01*
X712523Y459826D01*
X712854Y459799D01*
X753350Y459799D01*
X753376Y459801D01*
G37*
G36*
X398867Y472800D02*
X398867Y472800D01*
X398876Y472799D01*
X399069Y472820D01*
X399258Y472839D01*
X399267Y472841D01*
X399276Y472842D01*
X399460Y472901D01*
X399643Y472957D01*
X399651Y472961D01*
X399660Y472964D01*
X399828Y473057D01*
X399997Y473149D01*
X400004Y473154D01*
X400012Y473159D01*
X400159Y473283D01*
X400307Y473406D01*
X400312Y473413D01*
X400319Y473419D01*
X400439Y473571D01*
X400559Y473720D01*
X400563Y473728D01*
X400569Y473735D01*
X400656Y473908D01*
X400745Y474077D01*
X400747Y474086D01*
X400751Y474094D01*
X400803Y474280D01*
X400856Y474464D01*
X400857Y474473D01*
X400859Y474482D01*
X400873Y474675D01*
X400889Y474866D01*
X400888Y474874D01*
X400888Y474883D01*
X400864Y475076D01*
X400842Y475265D01*
X400839Y475274D01*
X400838Y475283D01*
X400777Y475465D01*
X400717Y475648D01*
X400713Y475656D01*
X400710Y475664D01*
X400614Y475831D01*
X400519Y475999D01*
X400513Y476006D01*
X400509Y476013D01*
X400294Y476266D01*
X346951Y529609D01*
X346951Y560444D01*
X346949Y560462D01*
X346951Y560480D01*
X346930Y560662D01*
X346911Y560845D01*
X346906Y560862D01*
X346904Y560879D01*
X346847Y561054D01*
X346793Y561230D01*
X346785Y561245D01*
X346779Y561262D01*
X346689Y561422D01*
X346601Y561584D01*
X346590Y561597D01*
X346581Y561613D01*
X346461Y561752D01*
X346344Y561893D01*
X346330Y561904D01*
X346318Y561918D01*
X346173Y562030D01*
X346030Y562145D01*
X346014Y562153D01*
X346000Y562164D01*
X345835Y562246D01*
X345673Y562331D01*
X345656Y562336D01*
X345640Y562344D01*
X345461Y562391D01*
X345286Y562442D01*
X345268Y562444D01*
X345251Y562448D01*
X344920Y562475D01*
X341368Y562475D01*
X340475Y563368D01*
X340475Y577632D01*
X341407Y578564D01*
X341419Y578577D01*
X341432Y578589D01*
X341547Y578734D01*
X341662Y578875D01*
X341671Y578891D01*
X341682Y578905D01*
X341765Y579069D01*
X341851Y579231D01*
X341856Y579248D01*
X341864Y579264D01*
X341914Y579441D01*
X341966Y579617D01*
X341967Y579635D01*
X341972Y579652D01*
X341986Y579835D01*
X342002Y580018D01*
X342000Y580036D01*
X342002Y580053D01*
X341979Y580235D01*
X341959Y580418D01*
X341953Y580435D01*
X341951Y580453D01*
X341893Y580626D01*
X341837Y580802D01*
X341829Y580818D01*
X341823Y580834D01*
X341732Y580993D01*
X341643Y581154D01*
X341631Y581168D01*
X341622Y581183D01*
X341407Y581436D01*
X340475Y582368D01*
X340475Y583150D01*
X340473Y583168D01*
X340475Y583186D01*
X340454Y583368D01*
X340435Y583551D01*
X340430Y583568D01*
X340428Y583585D01*
X340371Y583760D01*
X340317Y583936D01*
X340309Y583951D01*
X340303Y583968D01*
X340213Y584128D01*
X340125Y584290D01*
X340114Y584303D01*
X340105Y584319D01*
X339985Y584458D01*
X339868Y584599D01*
X339854Y584610D01*
X339842Y584624D01*
X339697Y584736D01*
X339554Y584851D01*
X339538Y584859D01*
X339524Y584870D01*
X339359Y584952D01*
X339197Y585037D01*
X339180Y585042D01*
X339164Y585050D01*
X338985Y585097D01*
X338810Y585148D01*
X338792Y585150D01*
X338775Y585154D01*
X338444Y585181D01*
X331556Y585181D01*
X331538Y585179D01*
X331520Y585181D01*
X331338Y585160D01*
X331155Y585141D01*
X331138Y585136D01*
X331121Y585134D01*
X330946Y585077D01*
X330770Y585023D01*
X330755Y585015D01*
X330738Y585009D01*
X330578Y584919D01*
X330416Y584831D01*
X330403Y584820D01*
X330387Y584811D01*
X330248Y584691D01*
X330107Y584574D01*
X330096Y584560D01*
X330082Y584548D01*
X329970Y584403D01*
X329855Y584260D01*
X329847Y584244D01*
X329836Y584230D01*
X329754Y584065D01*
X329669Y583903D01*
X329664Y583886D01*
X329656Y583870D01*
X329609Y583691D01*
X329558Y583516D01*
X329556Y583498D01*
X329552Y583481D01*
X329525Y583150D01*
X329525Y582368D01*
X328593Y581436D01*
X328581Y581422D01*
X328568Y581411D01*
X328454Y581267D01*
X328338Y581125D01*
X328329Y581109D01*
X328318Y581095D01*
X328235Y580931D01*
X328149Y580769D01*
X328144Y580752D01*
X328136Y580736D01*
X328086Y580559D01*
X328034Y580383D01*
X328033Y580365D01*
X328028Y580348D01*
X328014Y580165D01*
X327998Y579982D01*
X328000Y579964D01*
X327998Y579947D01*
X328021Y579765D01*
X328041Y579582D01*
X328047Y579565D01*
X328049Y579547D01*
X328107Y579373D01*
X328163Y579198D01*
X328171Y579182D01*
X328177Y579166D01*
X328269Y579007D01*
X328357Y578846D01*
X328369Y578832D01*
X328378Y578817D01*
X328593Y578564D01*
X329525Y577632D01*
X329525Y563368D01*
X328632Y562475D01*
X311368Y562475D01*
X310475Y563368D01*
X310475Y577632D01*
X311407Y578564D01*
X311419Y578577D01*
X311432Y578589D01*
X311547Y578734D01*
X311662Y578875D01*
X311671Y578891D01*
X311682Y578905D01*
X311765Y579069D01*
X311851Y579231D01*
X311856Y579248D01*
X311864Y579264D01*
X311914Y579441D01*
X311966Y579617D01*
X311967Y579635D01*
X311972Y579652D01*
X311986Y579835D01*
X312002Y580018D01*
X312000Y580036D01*
X312002Y580053D01*
X311979Y580235D01*
X311959Y580418D01*
X311953Y580435D01*
X311951Y580453D01*
X311893Y580626D01*
X311837Y580802D01*
X311829Y580818D01*
X311823Y580834D01*
X311732Y580993D01*
X311643Y581154D01*
X311631Y581168D01*
X311622Y581183D01*
X311407Y581436D01*
X310475Y582368D01*
X310475Y583150D01*
X310473Y583168D01*
X310475Y583186D01*
X310454Y583368D01*
X310435Y583551D01*
X310430Y583568D01*
X310428Y583585D01*
X310371Y583760D01*
X310317Y583936D01*
X310309Y583951D01*
X310303Y583968D01*
X310213Y584128D01*
X310125Y584290D01*
X310114Y584303D01*
X310105Y584319D01*
X309985Y584458D01*
X309868Y584599D01*
X309854Y584610D01*
X309842Y584624D01*
X309697Y584736D01*
X309554Y584851D01*
X309538Y584859D01*
X309524Y584870D01*
X309359Y584952D01*
X309197Y585037D01*
X309180Y585042D01*
X309164Y585050D01*
X308985Y585097D01*
X308810Y585148D01*
X308792Y585150D01*
X308775Y585154D01*
X308444Y585181D01*
X301556Y585181D01*
X301538Y585179D01*
X301520Y585181D01*
X301338Y585160D01*
X301155Y585141D01*
X301138Y585136D01*
X301121Y585134D01*
X300946Y585077D01*
X300770Y585023D01*
X300755Y585015D01*
X300738Y585009D01*
X300578Y584919D01*
X300416Y584831D01*
X300403Y584820D01*
X300387Y584811D01*
X300248Y584691D01*
X300107Y584574D01*
X300096Y584560D01*
X300082Y584548D01*
X299970Y584403D01*
X299855Y584260D01*
X299847Y584244D01*
X299836Y584230D01*
X299754Y584065D01*
X299669Y583903D01*
X299664Y583886D01*
X299656Y583870D01*
X299609Y583691D01*
X299558Y583516D01*
X299556Y583498D01*
X299552Y583481D01*
X299525Y583150D01*
X299525Y582368D01*
X298593Y581436D01*
X298581Y581422D01*
X298568Y581411D01*
X298454Y581267D01*
X298338Y581125D01*
X298329Y581109D01*
X298318Y581095D01*
X298235Y580931D01*
X298149Y580769D01*
X298144Y580752D01*
X298136Y580736D01*
X298086Y580559D01*
X298034Y580383D01*
X298033Y580365D01*
X298028Y580348D01*
X298014Y580165D01*
X297998Y579982D01*
X298000Y579964D01*
X297998Y579947D01*
X298021Y579765D01*
X298041Y579582D01*
X298047Y579565D01*
X298049Y579547D01*
X298107Y579373D01*
X298163Y579198D01*
X298171Y579182D01*
X298177Y579166D01*
X298269Y579007D01*
X298357Y578846D01*
X298369Y578832D01*
X298378Y578817D01*
X298593Y578564D01*
X299525Y577632D01*
X299525Y565309D01*
X299526Y565295D01*
X299525Y565281D01*
X299526Y565270D01*
X299525Y565256D01*
X299547Y565082D01*
X299565Y564909D01*
X299571Y564887D01*
X299572Y564882D01*
X299573Y564878D01*
X299576Y564857D01*
X299631Y564691D01*
X299683Y564524D01*
X299696Y564500D01*
X299704Y564475D01*
X299791Y564324D01*
X299875Y564170D01*
X299892Y564149D01*
X299905Y564126D01*
X300120Y563873D01*
X300155Y563838D01*
X300963Y561888D01*
X300963Y559776D01*
X300155Y557826D01*
X298662Y556333D01*
X296712Y555525D01*
X294640Y555525D01*
X294622Y555523D01*
X294604Y555525D01*
X294422Y555504D01*
X294239Y555485D01*
X294222Y555480D01*
X294205Y555478D01*
X294030Y555421D01*
X293854Y555367D01*
X293839Y555359D01*
X293822Y555353D01*
X293662Y555263D01*
X293500Y555175D01*
X293487Y555164D01*
X293471Y555155D01*
X293332Y555035D01*
X293191Y554918D01*
X293180Y554904D01*
X293166Y554892D01*
X293054Y554747D01*
X292939Y554604D01*
X292931Y554588D01*
X292920Y554574D01*
X292838Y554409D01*
X292753Y554247D01*
X292748Y554230D01*
X292740Y554214D01*
X292693Y554035D01*
X292642Y553860D01*
X292640Y553842D01*
X292636Y553825D01*
X292609Y553494D01*
X292609Y532456D01*
X292611Y532430D01*
X292609Y532403D01*
X292631Y532229D01*
X292649Y532056D01*
X292656Y532030D01*
X292660Y532003D01*
X292715Y531838D01*
X292767Y531671D01*
X292780Y531647D01*
X292788Y531622D01*
X292875Y531470D01*
X292959Y531317D01*
X292976Y531296D01*
X292989Y531273D01*
X293204Y531020D01*
X350830Y473394D01*
X350851Y473377D01*
X350868Y473356D01*
X351006Y473249D01*
X351141Y473139D01*
X351165Y473126D01*
X351186Y473110D01*
X351343Y473032D01*
X351497Y472950D01*
X351523Y472942D01*
X351547Y472930D01*
X351716Y472885D01*
X351883Y472835D01*
X351910Y472833D01*
X351935Y472826D01*
X352266Y472799D01*
X398858Y472799D01*
X398867Y472800D01*
G37*
G36*
X620476Y479301D02*
X620476Y479301D01*
X620503Y479299D01*
X620677Y479321D01*
X620850Y479339D01*
X620876Y479346D01*
X620903Y479350D01*
X621068Y479405D01*
X621235Y479457D01*
X621259Y479470D01*
X621284Y479478D01*
X621436Y479565D01*
X621589Y479649D01*
X621610Y479666D01*
X621633Y479679D01*
X621886Y479894D01*
X646356Y504364D01*
X646373Y504385D01*
X646394Y504402D01*
X646501Y504540D01*
X646611Y504675D01*
X646624Y504699D01*
X646640Y504720D01*
X646718Y504877D01*
X646800Y505031D01*
X646808Y505057D01*
X646820Y505081D01*
X646865Y505250D01*
X646915Y505417D01*
X646917Y505444D01*
X646924Y505469D01*
X646951Y505800D01*
X646951Y560444D01*
X646949Y560462D01*
X646951Y560480D01*
X646930Y560662D01*
X646911Y560845D01*
X646906Y560862D01*
X646904Y560879D01*
X646847Y561054D01*
X646793Y561230D01*
X646785Y561245D01*
X646779Y561262D01*
X646689Y561422D01*
X646601Y561584D01*
X646590Y561597D01*
X646581Y561613D01*
X646461Y561752D01*
X646344Y561893D01*
X646330Y561904D01*
X646318Y561918D01*
X646173Y562030D01*
X646030Y562145D01*
X646014Y562153D01*
X646000Y562164D01*
X645835Y562246D01*
X645673Y562331D01*
X645656Y562336D01*
X645640Y562344D01*
X645461Y562391D01*
X645286Y562442D01*
X645268Y562444D01*
X645251Y562448D01*
X644920Y562475D01*
X641368Y562475D01*
X640475Y563368D01*
X640475Y577632D01*
X641407Y578564D01*
X641419Y578577D01*
X641432Y578589D01*
X641547Y578734D01*
X641662Y578875D01*
X641671Y578891D01*
X641682Y578905D01*
X641765Y579069D01*
X641851Y579231D01*
X641856Y579248D01*
X641864Y579264D01*
X641914Y579441D01*
X641966Y579617D01*
X641967Y579635D01*
X641972Y579652D01*
X641986Y579835D01*
X642002Y580018D01*
X642000Y580036D01*
X642002Y580053D01*
X641979Y580235D01*
X641959Y580418D01*
X641953Y580435D01*
X641951Y580453D01*
X641893Y580626D01*
X641837Y580802D01*
X641829Y580818D01*
X641823Y580834D01*
X641732Y580993D01*
X641643Y581154D01*
X641631Y581168D01*
X641622Y581183D01*
X641407Y581436D01*
X640475Y582368D01*
X640475Y583150D01*
X640473Y583168D01*
X640475Y583186D01*
X640454Y583368D01*
X640435Y583551D01*
X640430Y583568D01*
X640428Y583585D01*
X640371Y583760D01*
X640317Y583936D01*
X640309Y583951D01*
X640303Y583968D01*
X640213Y584128D01*
X640125Y584290D01*
X640114Y584303D01*
X640105Y584319D01*
X639985Y584458D01*
X639868Y584599D01*
X639854Y584610D01*
X639842Y584624D01*
X639697Y584736D01*
X639554Y584851D01*
X639538Y584859D01*
X639524Y584870D01*
X639359Y584952D01*
X639197Y585037D01*
X639180Y585042D01*
X639164Y585050D01*
X638985Y585097D01*
X638810Y585148D01*
X638792Y585150D01*
X638775Y585154D01*
X638444Y585181D01*
X631556Y585181D01*
X631538Y585179D01*
X631520Y585181D01*
X631338Y585160D01*
X631155Y585141D01*
X631138Y585136D01*
X631121Y585134D01*
X630946Y585077D01*
X630770Y585023D01*
X630755Y585015D01*
X630738Y585009D01*
X630578Y584919D01*
X630416Y584831D01*
X630403Y584820D01*
X630387Y584811D01*
X630248Y584691D01*
X630107Y584574D01*
X630096Y584560D01*
X630082Y584548D01*
X629970Y584403D01*
X629855Y584260D01*
X629847Y584244D01*
X629836Y584230D01*
X629754Y584065D01*
X629669Y583903D01*
X629664Y583886D01*
X629656Y583870D01*
X629609Y583691D01*
X629558Y583516D01*
X629556Y583498D01*
X629552Y583481D01*
X629525Y583150D01*
X629525Y582368D01*
X628593Y581436D01*
X628581Y581422D01*
X628568Y581411D01*
X628454Y581267D01*
X628338Y581125D01*
X628329Y581109D01*
X628318Y581095D01*
X628235Y580931D01*
X628149Y580769D01*
X628144Y580752D01*
X628136Y580736D01*
X628086Y580559D01*
X628034Y580383D01*
X628033Y580365D01*
X628028Y580348D01*
X628014Y580165D01*
X627998Y579982D01*
X628000Y579964D01*
X627998Y579947D01*
X628021Y579765D01*
X628041Y579582D01*
X628047Y579565D01*
X628049Y579547D01*
X628107Y579373D01*
X628163Y579198D01*
X628171Y579182D01*
X628177Y579166D01*
X628269Y579007D01*
X628357Y578846D01*
X628369Y578832D01*
X628378Y578817D01*
X628593Y578564D01*
X629525Y577632D01*
X629525Y563368D01*
X628632Y562475D01*
X611368Y562475D01*
X610475Y563368D01*
X610475Y577632D01*
X611407Y578564D01*
X611419Y578577D01*
X611432Y578589D01*
X611547Y578734D01*
X611662Y578875D01*
X611671Y578891D01*
X611682Y578905D01*
X611765Y579069D01*
X611851Y579231D01*
X611856Y579248D01*
X611864Y579264D01*
X611914Y579441D01*
X611966Y579617D01*
X611967Y579635D01*
X611972Y579652D01*
X611986Y579835D01*
X612002Y580018D01*
X612000Y580036D01*
X612002Y580053D01*
X611979Y580235D01*
X611959Y580418D01*
X611953Y580435D01*
X611951Y580453D01*
X611893Y580626D01*
X611837Y580802D01*
X611829Y580818D01*
X611823Y580834D01*
X611732Y580993D01*
X611643Y581154D01*
X611631Y581168D01*
X611622Y581183D01*
X611407Y581436D01*
X610475Y582368D01*
X610475Y583150D01*
X610473Y583168D01*
X610475Y583186D01*
X610454Y583368D01*
X610435Y583551D01*
X610430Y583568D01*
X610428Y583585D01*
X610371Y583760D01*
X610317Y583936D01*
X610309Y583951D01*
X610303Y583968D01*
X610213Y584128D01*
X610125Y584290D01*
X610114Y584303D01*
X610105Y584319D01*
X609985Y584458D01*
X609868Y584599D01*
X609854Y584610D01*
X609842Y584624D01*
X609697Y584736D01*
X609554Y584851D01*
X609538Y584859D01*
X609524Y584870D01*
X609359Y584952D01*
X609197Y585037D01*
X609180Y585042D01*
X609164Y585050D01*
X608985Y585097D01*
X608810Y585148D01*
X608792Y585150D01*
X608775Y585154D01*
X608444Y585181D01*
X601556Y585181D01*
X601538Y585179D01*
X601520Y585181D01*
X601338Y585160D01*
X601155Y585141D01*
X601138Y585136D01*
X601121Y585134D01*
X600946Y585077D01*
X600770Y585023D01*
X600755Y585015D01*
X600738Y585009D01*
X600578Y584919D01*
X600416Y584831D01*
X600403Y584820D01*
X600387Y584811D01*
X600248Y584691D01*
X600107Y584574D01*
X600096Y584560D01*
X600082Y584548D01*
X599970Y584403D01*
X599855Y584260D01*
X599847Y584244D01*
X599836Y584230D01*
X599754Y584065D01*
X599669Y583903D01*
X599664Y583886D01*
X599656Y583870D01*
X599609Y583691D01*
X599558Y583516D01*
X599556Y583498D01*
X599552Y583481D01*
X599525Y583150D01*
X599525Y582368D01*
X598593Y581436D01*
X598581Y581423D01*
X598568Y581411D01*
X598453Y581266D01*
X598338Y581125D01*
X598329Y581109D01*
X598318Y581095D01*
X598235Y580931D01*
X598149Y580769D01*
X598144Y580752D01*
X598136Y580736D01*
X598086Y580559D01*
X598034Y580383D01*
X598033Y580365D01*
X598028Y580348D01*
X598014Y580165D01*
X597998Y579982D01*
X598000Y579964D01*
X597998Y579947D01*
X598021Y579765D01*
X598041Y579582D01*
X598047Y579565D01*
X598049Y579547D01*
X598107Y579374D01*
X598163Y579198D01*
X598171Y579182D01*
X598177Y579166D01*
X598268Y579007D01*
X598357Y578846D01*
X598369Y578832D01*
X598378Y578817D01*
X598593Y578564D01*
X599525Y577632D01*
X599525Y564008D01*
X599527Y563984D01*
X599525Y563959D01*
X599547Y563784D01*
X599565Y563608D01*
X599572Y563584D01*
X599575Y563560D01*
X599631Y563392D01*
X599683Y563223D01*
X599695Y563201D01*
X599702Y563178D01*
X599790Y563024D01*
X599875Y562869D01*
X599890Y562850D01*
X599903Y562829D01*
X600019Y562695D01*
X600132Y562560D01*
X600151Y562544D01*
X600168Y562526D01*
X600183Y562514D01*
X601907Y560790D01*
X602715Y558840D01*
X602715Y556728D01*
X601907Y554778D01*
X600414Y553285D01*
X598464Y552477D01*
X596392Y552477D01*
X596374Y552475D01*
X596356Y552477D01*
X596174Y552456D01*
X595991Y552437D01*
X595974Y552432D01*
X595957Y552430D01*
X595782Y552373D01*
X595606Y552319D01*
X595591Y552311D01*
X595574Y552305D01*
X595414Y552215D01*
X595252Y552127D01*
X595239Y552116D01*
X595223Y552107D01*
X595084Y551987D01*
X594943Y551870D01*
X594932Y551856D01*
X594918Y551844D01*
X594806Y551699D01*
X594691Y551556D01*
X594683Y551540D01*
X594672Y551526D01*
X594590Y551361D01*
X594505Y551199D01*
X594500Y551182D01*
X594492Y551166D01*
X594445Y550987D01*
X594394Y550812D01*
X594392Y550794D01*
X594388Y550777D01*
X594361Y550446D01*
X594361Y495561D01*
X591980Y493180D01*
X581566Y482766D01*
X581560Y482759D01*
X581553Y482754D01*
X581433Y482604D01*
X581311Y482455D01*
X581307Y482447D01*
X581301Y482440D01*
X581212Y482269D01*
X581122Y482099D01*
X581120Y482090D01*
X581115Y482083D01*
X581062Y481898D01*
X581007Y481713D01*
X581007Y481704D01*
X581004Y481696D01*
X580988Y481504D01*
X580971Y481312D01*
X580972Y481303D01*
X580971Y481294D01*
X580993Y481105D01*
X581014Y480912D01*
X581017Y480903D01*
X581018Y480895D01*
X581077Y480713D01*
X581136Y480528D01*
X581140Y480520D01*
X581143Y480512D01*
X581238Y480343D01*
X581331Y480176D01*
X581336Y480169D01*
X581341Y480161D01*
X581467Y480015D01*
X581591Y479869D01*
X581598Y479863D01*
X581604Y479856D01*
X581755Y479739D01*
X581907Y479619D01*
X581915Y479615D01*
X581922Y479610D01*
X582095Y479524D01*
X582266Y479437D01*
X582275Y479434D01*
X582283Y479430D01*
X582469Y479380D01*
X582654Y479329D01*
X582663Y479328D01*
X582671Y479326D01*
X583002Y479299D01*
X620450Y479299D01*
X620476Y479301D01*
G37*
G36*
X438087Y479300D02*
X438087Y479300D01*
X438096Y479299D01*
X438289Y479320D01*
X438478Y479339D01*
X438487Y479341D01*
X438496Y479342D01*
X438680Y479401D01*
X438863Y479457D01*
X438871Y479461D01*
X438880Y479464D01*
X439048Y479557D01*
X439217Y479649D01*
X439224Y479654D01*
X439232Y479659D01*
X439379Y479783D01*
X439527Y479906D01*
X439532Y479913D01*
X439539Y479919D01*
X439659Y480071D01*
X439779Y480220D01*
X439783Y480228D01*
X439789Y480235D01*
X439876Y480408D01*
X439965Y480577D01*
X439967Y480586D01*
X439971Y480594D01*
X440023Y480780D01*
X440076Y480964D01*
X440077Y480973D01*
X440079Y480982D01*
X440093Y481173D01*
X440109Y481366D01*
X440108Y481374D01*
X440108Y481383D01*
X440084Y481576D01*
X440062Y481765D01*
X440059Y481774D01*
X440058Y481783D01*
X439997Y481965D01*
X439937Y482148D01*
X439933Y482156D01*
X439930Y482164D01*
X439834Y482331D01*
X439739Y482499D01*
X439733Y482506D01*
X439729Y482513D01*
X439514Y482766D01*
X407764Y514516D01*
X405383Y516897D01*
X405383Y560444D01*
X405381Y560462D01*
X405383Y560480D01*
X405362Y560662D01*
X405343Y560845D01*
X405338Y560862D01*
X405336Y560879D01*
X405279Y561054D01*
X405225Y561230D01*
X405217Y561245D01*
X405211Y561262D01*
X405121Y561422D01*
X405033Y561584D01*
X405022Y561597D01*
X405013Y561613D01*
X404893Y561752D01*
X404776Y561893D01*
X404762Y561904D01*
X404750Y561918D01*
X404605Y562030D01*
X404462Y562145D01*
X404446Y562153D01*
X404432Y562164D01*
X404267Y562246D01*
X404105Y562331D01*
X404088Y562336D01*
X404072Y562344D01*
X403893Y562391D01*
X403718Y562442D01*
X403700Y562444D01*
X403683Y562448D01*
X403352Y562475D01*
X401368Y562475D01*
X400475Y563368D01*
X400475Y577632D01*
X401407Y578564D01*
X401419Y578577D01*
X401432Y578589D01*
X401547Y578734D01*
X401662Y578875D01*
X401671Y578891D01*
X401682Y578905D01*
X401765Y579069D01*
X401851Y579231D01*
X401856Y579248D01*
X401864Y579264D01*
X401914Y579441D01*
X401966Y579617D01*
X401967Y579635D01*
X401972Y579652D01*
X401986Y579835D01*
X402002Y580018D01*
X402000Y580036D01*
X402002Y580053D01*
X401979Y580235D01*
X401959Y580418D01*
X401953Y580435D01*
X401951Y580453D01*
X401893Y580626D01*
X401837Y580802D01*
X401829Y580818D01*
X401823Y580834D01*
X401732Y580993D01*
X401643Y581154D01*
X401631Y581168D01*
X401622Y581183D01*
X401407Y581436D01*
X400475Y582368D01*
X400475Y583150D01*
X400473Y583168D01*
X400475Y583186D01*
X400454Y583368D01*
X400435Y583551D01*
X400430Y583568D01*
X400428Y583585D01*
X400371Y583760D01*
X400317Y583936D01*
X400309Y583951D01*
X400303Y583968D01*
X400213Y584128D01*
X400125Y584290D01*
X400114Y584303D01*
X400105Y584319D01*
X399985Y584458D01*
X399868Y584599D01*
X399854Y584610D01*
X399842Y584624D01*
X399697Y584736D01*
X399554Y584851D01*
X399538Y584859D01*
X399524Y584870D01*
X399359Y584952D01*
X399197Y585037D01*
X399180Y585042D01*
X399164Y585050D01*
X398985Y585097D01*
X398810Y585148D01*
X398792Y585150D01*
X398775Y585154D01*
X398444Y585181D01*
X391556Y585181D01*
X391538Y585179D01*
X391520Y585181D01*
X391338Y585160D01*
X391155Y585141D01*
X391138Y585136D01*
X391121Y585134D01*
X390946Y585077D01*
X390770Y585023D01*
X390755Y585015D01*
X390738Y585009D01*
X390578Y584919D01*
X390416Y584831D01*
X390403Y584820D01*
X390387Y584811D01*
X390248Y584691D01*
X390107Y584574D01*
X390096Y584560D01*
X390082Y584548D01*
X389970Y584403D01*
X389855Y584260D01*
X389847Y584244D01*
X389836Y584230D01*
X389754Y584065D01*
X389669Y583903D01*
X389664Y583886D01*
X389656Y583870D01*
X389609Y583691D01*
X389558Y583516D01*
X389556Y583498D01*
X389552Y583481D01*
X389525Y583150D01*
X389525Y582368D01*
X388593Y581436D01*
X388581Y581422D01*
X388568Y581411D01*
X388454Y581267D01*
X388338Y581125D01*
X388329Y581109D01*
X388318Y581095D01*
X388235Y580931D01*
X388149Y580769D01*
X388144Y580752D01*
X388136Y580736D01*
X388086Y580559D01*
X388034Y580383D01*
X388033Y580365D01*
X388028Y580348D01*
X388014Y580165D01*
X387998Y579982D01*
X388000Y579964D01*
X387998Y579947D01*
X388021Y579765D01*
X388041Y579582D01*
X388047Y579565D01*
X388049Y579547D01*
X388107Y579373D01*
X388163Y579198D01*
X388171Y579182D01*
X388177Y579166D01*
X388269Y579007D01*
X388357Y578846D01*
X388369Y578832D01*
X388378Y578817D01*
X388593Y578564D01*
X389525Y577632D01*
X389525Y563368D01*
X388632Y562475D01*
X371368Y562475D01*
X370475Y563368D01*
X370475Y577632D01*
X371407Y578564D01*
X371419Y578577D01*
X371432Y578589D01*
X371547Y578734D01*
X371662Y578875D01*
X371671Y578891D01*
X371682Y578905D01*
X371765Y579069D01*
X371851Y579231D01*
X371856Y579248D01*
X371864Y579264D01*
X371914Y579441D01*
X371966Y579617D01*
X371967Y579635D01*
X371972Y579652D01*
X371986Y579835D01*
X372002Y580018D01*
X372000Y580036D01*
X372002Y580053D01*
X371979Y580235D01*
X371959Y580418D01*
X371953Y580435D01*
X371951Y580453D01*
X371893Y580626D01*
X371837Y580802D01*
X371829Y580818D01*
X371823Y580834D01*
X371732Y580993D01*
X371643Y581154D01*
X371631Y581168D01*
X371622Y581183D01*
X371407Y581436D01*
X370475Y582368D01*
X370475Y583150D01*
X370473Y583168D01*
X370475Y583186D01*
X370454Y583368D01*
X370435Y583551D01*
X370430Y583568D01*
X370428Y583585D01*
X370371Y583760D01*
X370317Y583936D01*
X370309Y583951D01*
X370303Y583968D01*
X370213Y584128D01*
X370125Y584290D01*
X370114Y584303D01*
X370105Y584319D01*
X369985Y584458D01*
X369868Y584599D01*
X369854Y584610D01*
X369842Y584624D01*
X369697Y584736D01*
X369554Y584851D01*
X369538Y584859D01*
X369524Y584870D01*
X369359Y584952D01*
X369197Y585037D01*
X369180Y585042D01*
X369164Y585050D01*
X368985Y585097D01*
X368810Y585148D01*
X368792Y585150D01*
X368775Y585154D01*
X368444Y585181D01*
X361556Y585181D01*
X361538Y585179D01*
X361520Y585181D01*
X361338Y585160D01*
X361155Y585141D01*
X361138Y585136D01*
X361121Y585134D01*
X360946Y585077D01*
X360770Y585023D01*
X360755Y585015D01*
X360738Y585009D01*
X360578Y584919D01*
X360416Y584831D01*
X360403Y584820D01*
X360387Y584811D01*
X360248Y584691D01*
X360107Y584574D01*
X360096Y584560D01*
X360082Y584548D01*
X359970Y584403D01*
X359855Y584260D01*
X359847Y584244D01*
X359836Y584230D01*
X359754Y584065D01*
X359669Y583903D01*
X359664Y583886D01*
X359656Y583870D01*
X359609Y583691D01*
X359558Y583516D01*
X359556Y583498D01*
X359552Y583481D01*
X359525Y583150D01*
X359525Y582368D01*
X358593Y581436D01*
X358581Y581422D01*
X358568Y581411D01*
X358454Y581267D01*
X358338Y581125D01*
X358329Y581109D01*
X358318Y581095D01*
X358235Y580931D01*
X358149Y580769D01*
X358144Y580752D01*
X358136Y580736D01*
X358086Y580559D01*
X358034Y580383D01*
X358033Y580365D01*
X358028Y580348D01*
X358014Y580165D01*
X357998Y579982D01*
X358000Y579964D01*
X357998Y579947D01*
X358021Y579765D01*
X358041Y579582D01*
X358047Y579565D01*
X358049Y579547D01*
X358107Y579373D01*
X358163Y579198D01*
X358171Y579182D01*
X358177Y579166D01*
X358269Y579007D01*
X358357Y578846D01*
X358369Y578832D01*
X358378Y578817D01*
X358593Y578564D01*
X359525Y577632D01*
X359525Y566270D01*
X359527Y566243D01*
X359525Y566216D01*
X359547Y566042D01*
X359565Y565869D01*
X359572Y565843D01*
X359576Y565817D01*
X359631Y565651D01*
X359683Y565484D01*
X359696Y565460D01*
X359704Y565435D01*
X359791Y565283D01*
X359875Y565130D01*
X359892Y565109D01*
X359905Y565086D01*
X360120Y564833D01*
X361115Y563838D01*
X361923Y561888D01*
X361923Y559776D01*
X361115Y557826D01*
X359622Y556333D01*
X357672Y555525D01*
X355427Y555525D01*
X355258Y555539D01*
X355072Y555557D01*
X355058Y555555D01*
X355044Y555557D01*
X354857Y555535D01*
X354671Y555515D01*
X354658Y555511D01*
X354645Y555510D01*
X354465Y555451D01*
X354287Y555396D01*
X354275Y555389D01*
X354262Y555385D01*
X354098Y555292D01*
X353933Y555202D01*
X353923Y555194D01*
X353911Y555187D01*
X353770Y555065D01*
X353625Y554943D01*
X353617Y554933D01*
X353606Y554924D01*
X353492Y554776D01*
X353374Y554629D01*
X353368Y554616D01*
X353360Y554606D01*
X353276Y554438D01*
X353190Y554270D01*
X353186Y554257D01*
X353180Y554245D01*
X353132Y554064D01*
X353080Y553883D01*
X353079Y553870D01*
X353076Y553856D01*
X353049Y553526D01*
X353049Y532976D01*
X353051Y532950D01*
X353049Y532923D01*
X353071Y532749D01*
X353089Y532576D01*
X353096Y532550D01*
X353100Y532523D01*
X353155Y532358D01*
X353207Y532191D01*
X353220Y532167D01*
X353228Y532142D01*
X353315Y531990D01*
X353399Y531837D01*
X353416Y531816D01*
X353429Y531793D01*
X353644Y531540D01*
X405290Y479894D01*
X405311Y479877D01*
X405328Y479856D01*
X405466Y479749D01*
X405601Y479639D01*
X405625Y479626D01*
X405646Y479610D01*
X405803Y479532D01*
X405957Y479450D01*
X405983Y479442D01*
X406007Y479430D01*
X406176Y479385D01*
X406343Y479335D01*
X406370Y479333D01*
X406395Y479326D01*
X406726Y479299D01*
X438078Y479299D01*
X438087Y479300D01*
G37*
G36*
X647504Y472801D02*
X647504Y472801D01*
X647531Y472799D01*
X647705Y472821D01*
X647878Y472839D01*
X647904Y472846D01*
X647931Y472850D01*
X648096Y472905D01*
X648263Y472957D01*
X648287Y472970D01*
X648312Y472978D01*
X648464Y473065D01*
X648617Y473149D01*
X648638Y473166D01*
X648661Y473179D01*
X648914Y473394D01*
X706540Y531020D01*
X706557Y531041D01*
X706578Y531058D01*
X706685Y531196D01*
X706795Y531331D01*
X706808Y531355D01*
X706824Y531376D01*
X706902Y531533D01*
X706984Y531687D01*
X706992Y531713D01*
X707004Y531737D01*
X707049Y531906D01*
X707099Y532073D01*
X707101Y532100D01*
X707108Y532125D01*
X707135Y532456D01*
X707135Y560444D01*
X707133Y560462D01*
X707135Y560480D01*
X707114Y560662D01*
X707095Y560845D01*
X707090Y560862D01*
X707088Y560879D01*
X707031Y561054D01*
X706977Y561230D01*
X706969Y561245D01*
X706963Y561262D01*
X706873Y561422D01*
X706785Y561584D01*
X706774Y561597D01*
X706765Y561613D01*
X706645Y561752D01*
X706528Y561893D01*
X706514Y561904D01*
X706502Y561918D01*
X706357Y562030D01*
X706214Y562145D01*
X706198Y562153D01*
X706184Y562164D01*
X706019Y562246D01*
X705857Y562331D01*
X705840Y562336D01*
X705824Y562344D01*
X705645Y562391D01*
X705470Y562442D01*
X705452Y562444D01*
X705435Y562448D01*
X705104Y562475D01*
X701368Y562475D01*
X700475Y563368D01*
X700475Y577632D01*
X701407Y578564D01*
X701419Y578577D01*
X701432Y578589D01*
X701547Y578734D01*
X701662Y578875D01*
X701671Y578891D01*
X701682Y578905D01*
X701765Y579069D01*
X701851Y579231D01*
X701856Y579248D01*
X701864Y579264D01*
X701914Y579441D01*
X701966Y579617D01*
X701967Y579635D01*
X701972Y579652D01*
X701986Y579835D01*
X702002Y580018D01*
X702000Y580036D01*
X702002Y580053D01*
X701979Y580235D01*
X701959Y580418D01*
X701953Y580435D01*
X701951Y580453D01*
X701893Y580626D01*
X701837Y580802D01*
X701829Y580818D01*
X701823Y580834D01*
X701732Y580993D01*
X701643Y581154D01*
X701631Y581168D01*
X701622Y581183D01*
X701407Y581436D01*
X700475Y582368D01*
X700475Y583150D01*
X700473Y583168D01*
X700475Y583186D01*
X700454Y583368D01*
X700435Y583551D01*
X700430Y583568D01*
X700428Y583585D01*
X700371Y583760D01*
X700317Y583936D01*
X700309Y583951D01*
X700303Y583968D01*
X700213Y584128D01*
X700125Y584290D01*
X700114Y584303D01*
X700105Y584319D01*
X699985Y584458D01*
X699868Y584599D01*
X699854Y584610D01*
X699842Y584624D01*
X699697Y584736D01*
X699554Y584851D01*
X699538Y584859D01*
X699524Y584870D01*
X699359Y584952D01*
X699197Y585037D01*
X699180Y585042D01*
X699164Y585050D01*
X698985Y585097D01*
X698810Y585148D01*
X698792Y585150D01*
X698775Y585154D01*
X698444Y585181D01*
X691556Y585181D01*
X691538Y585179D01*
X691520Y585181D01*
X691338Y585160D01*
X691155Y585141D01*
X691138Y585136D01*
X691121Y585134D01*
X690946Y585077D01*
X690770Y585023D01*
X690755Y585015D01*
X690738Y585009D01*
X690578Y584919D01*
X690416Y584831D01*
X690403Y584820D01*
X690387Y584811D01*
X690248Y584691D01*
X690107Y584574D01*
X690096Y584560D01*
X690082Y584548D01*
X689970Y584403D01*
X689855Y584260D01*
X689847Y584244D01*
X689836Y584230D01*
X689754Y584065D01*
X689669Y583903D01*
X689664Y583886D01*
X689656Y583870D01*
X689609Y583691D01*
X689558Y583516D01*
X689556Y583498D01*
X689552Y583481D01*
X689525Y583150D01*
X689525Y582368D01*
X688593Y581436D01*
X688581Y581422D01*
X688568Y581411D01*
X688454Y581267D01*
X688338Y581125D01*
X688329Y581109D01*
X688318Y581095D01*
X688235Y580931D01*
X688149Y580769D01*
X688144Y580752D01*
X688136Y580736D01*
X688086Y580559D01*
X688034Y580383D01*
X688033Y580365D01*
X688028Y580348D01*
X688014Y580165D01*
X687998Y579982D01*
X688000Y579964D01*
X687998Y579947D01*
X688021Y579765D01*
X688041Y579582D01*
X688047Y579565D01*
X688049Y579547D01*
X688107Y579373D01*
X688163Y579198D01*
X688171Y579182D01*
X688177Y579166D01*
X688269Y579007D01*
X688357Y578846D01*
X688369Y578832D01*
X688378Y578817D01*
X688593Y578564D01*
X689525Y577632D01*
X689525Y563368D01*
X688632Y562475D01*
X671368Y562475D01*
X670475Y563368D01*
X670475Y577632D01*
X671407Y578564D01*
X671419Y578577D01*
X671432Y578589D01*
X671547Y578734D01*
X671662Y578875D01*
X671671Y578891D01*
X671682Y578905D01*
X671765Y579069D01*
X671851Y579231D01*
X671856Y579248D01*
X671864Y579264D01*
X671914Y579441D01*
X671966Y579617D01*
X671967Y579635D01*
X671972Y579652D01*
X671986Y579835D01*
X672002Y580018D01*
X672000Y580036D01*
X672002Y580053D01*
X671979Y580235D01*
X671959Y580418D01*
X671953Y580435D01*
X671951Y580453D01*
X671893Y580626D01*
X671837Y580802D01*
X671829Y580818D01*
X671823Y580834D01*
X671732Y580993D01*
X671643Y581154D01*
X671631Y581168D01*
X671622Y581183D01*
X671407Y581436D01*
X670475Y582368D01*
X670475Y583150D01*
X670473Y583168D01*
X670475Y583186D01*
X670454Y583368D01*
X670435Y583551D01*
X670430Y583568D01*
X670428Y583585D01*
X670371Y583760D01*
X670317Y583936D01*
X670309Y583951D01*
X670303Y583968D01*
X670213Y584128D01*
X670125Y584290D01*
X670114Y584303D01*
X670105Y584319D01*
X669985Y584458D01*
X669868Y584599D01*
X669854Y584610D01*
X669842Y584624D01*
X669697Y584736D01*
X669554Y584851D01*
X669538Y584859D01*
X669524Y584870D01*
X669359Y584952D01*
X669197Y585037D01*
X669180Y585042D01*
X669164Y585050D01*
X668985Y585097D01*
X668810Y585148D01*
X668792Y585150D01*
X668775Y585154D01*
X668444Y585181D01*
X661556Y585181D01*
X661538Y585179D01*
X661520Y585181D01*
X661338Y585160D01*
X661155Y585141D01*
X661138Y585136D01*
X661121Y585134D01*
X660946Y585077D01*
X660770Y585023D01*
X660755Y585015D01*
X660738Y585009D01*
X660578Y584919D01*
X660416Y584831D01*
X660403Y584820D01*
X660387Y584811D01*
X660248Y584691D01*
X660107Y584574D01*
X660096Y584560D01*
X660082Y584548D01*
X659970Y584403D01*
X659855Y584260D01*
X659847Y584244D01*
X659836Y584230D01*
X659754Y584065D01*
X659669Y583903D01*
X659664Y583886D01*
X659656Y583870D01*
X659609Y583691D01*
X659558Y583516D01*
X659556Y583498D01*
X659552Y583481D01*
X659525Y583150D01*
X659525Y582368D01*
X658593Y581436D01*
X658581Y581422D01*
X658568Y581411D01*
X658454Y581267D01*
X658338Y581125D01*
X658329Y581109D01*
X658318Y581095D01*
X658235Y580931D01*
X658149Y580769D01*
X658144Y580752D01*
X658136Y580736D01*
X658086Y580559D01*
X658034Y580383D01*
X658033Y580365D01*
X658028Y580348D01*
X658014Y580165D01*
X657998Y579982D01*
X658000Y579964D01*
X657998Y579947D01*
X658021Y579765D01*
X658041Y579582D01*
X658047Y579565D01*
X658049Y579547D01*
X658107Y579373D01*
X658163Y579198D01*
X658171Y579182D01*
X658177Y579166D01*
X658269Y579007D01*
X658357Y578846D01*
X658369Y578832D01*
X658378Y578817D01*
X658593Y578564D01*
X659525Y577632D01*
X659525Y567454D01*
X659527Y567432D01*
X659525Y567410D01*
X659547Y567232D01*
X659565Y567053D01*
X659571Y567032D01*
X659574Y567010D01*
X659630Y566840D01*
X659683Y566669D01*
X659693Y566649D01*
X659700Y566628D01*
X659789Y566472D01*
X659875Y566315D01*
X659889Y566297D01*
X659900Y566278D01*
X660018Y566143D01*
X660132Y566005D01*
X660150Y565991D01*
X660164Y565974D01*
X660307Y565865D01*
X660446Y565753D01*
X660466Y565743D01*
X660484Y565729D01*
X660779Y565577D01*
X661374Y565331D01*
X662867Y563838D01*
X663675Y561888D01*
X663675Y559776D01*
X662867Y557826D01*
X661374Y556333D01*
X659424Y555525D01*
X657312Y555525D01*
X655857Y556128D01*
X655844Y556132D01*
X655833Y556138D01*
X655653Y556190D01*
X655472Y556244D01*
X655459Y556246D01*
X655446Y556249D01*
X655258Y556265D01*
X655071Y556283D01*
X655058Y556281D01*
X655044Y556282D01*
X654857Y556260D01*
X654671Y556241D01*
X654658Y556237D01*
X654645Y556235D01*
X654465Y556177D01*
X654286Y556121D01*
X654275Y556115D01*
X654262Y556111D01*
X654097Y556018D01*
X653933Y555928D01*
X653923Y555919D01*
X653911Y555913D01*
X653769Y555790D01*
X653625Y555669D01*
X653617Y555658D01*
X653606Y555649D01*
X653491Y555501D01*
X653374Y555354D01*
X653368Y555342D01*
X653360Y555331D01*
X653276Y555163D01*
X653190Y554996D01*
X653186Y554983D01*
X653180Y554971D01*
X653131Y554788D01*
X653080Y554608D01*
X653079Y554595D01*
X653076Y554582D01*
X653049Y554251D01*
X653049Y502433D01*
X626882Y476266D01*
X626876Y476259D01*
X626869Y476254D01*
X626749Y476104D01*
X626627Y475955D01*
X626623Y475947D01*
X626617Y475940D01*
X626528Y475769D01*
X626438Y475599D01*
X626436Y475591D01*
X626431Y475583D01*
X626378Y475397D01*
X626323Y475213D01*
X626323Y475204D01*
X626320Y475196D01*
X626304Y475004D01*
X626287Y474812D01*
X626288Y474803D01*
X626287Y474794D01*
X626309Y474605D01*
X626330Y474412D01*
X626333Y474403D01*
X626334Y474395D01*
X626393Y474213D01*
X626452Y474028D01*
X626456Y474020D01*
X626459Y474012D01*
X626554Y473843D01*
X626647Y473676D01*
X626652Y473669D01*
X626657Y473661D01*
X626783Y473515D01*
X626907Y473369D01*
X626914Y473363D01*
X626920Y473356D01*
X627071Y473239D01*
X627223Y473119D01*
X627231Y473115D01*
X627238Y473110D01*
X627410Y473024D01*
X627582Y472937D01*
X627591Y472934D01*
X627599Y472930D01*
X627785Y472880D01*
X627970Y472829D01*
X627979Y472828D01*
X627987Y472826D01*
X628318Y472799D01*
X647478Y472799D01*
X647504Y472801D01*
G37*
G36*
X443003Y488770D02*
X443003Y488770D01*
X443012Y488769D01*
X443201Y488791D01*
X443394Y488812D01*
X443403Y488815D01*
X443411Y488816D01*
X443593Y488875D01*
X443778Y488934D01*
X443786Y488938D01*
X443794Y488941D01*
X443963Y489036D01*
X444130Y489129D01*
X444137Y489134D01*
X444145Y489139D01*
X444291Y489265D01*
X444437Y489389D01*
X444443Y489396D01*
X444450Y489402D01*
X444567Y489553D01*
X444687Y489705D01*
X444691Y489713D01*
X444696Y489720D01*
X444782Y489892D01*
X444869Y490064D01*
X444872Y490073D01*
X444876Y490081D01*
X444926Y490267D01*
X444977Y490452D01*
X444978Y490461D01*
X444980Y490469D01*
X445007Y490800D01*
X445007Y528567D01*
X466356Y549916D01*
X466373Y549937D01*
X466394Y549954D01*
X466501Y550092D01*
X466611Y550227D01*
X466624Y550251D01*
X466640Y550272D01*
X466718Y550429D01*
X466800Y550583D01*
X466808Y550609D01*
X466820Y550633D01*
X466865Y550802D01*
X466915Y550969D01*
X466917Y550996D01*
X466924Y551021D01*
X466951Y551352D01*
X466951Y560444D01*
X466949Y560462D01*
X466951Y560480D01*
X466930Y560662D01*
X466911Y560845D01*
X466906Y560862D01*
X466904Y560879D01*
X466847Y561054D01*
X466793Y561230D01*
X466785Y561245D01*
X466779Y561262D01*
X466689Y561422D01*
X466601Y561584D01*
X466590Y561597D01*
X466581Y561613D01*
X466461Y561752D01*
X466344Y561893D01*
X466330Y561904D01*
X466318Y561918D01*
X466173Y562030D01*
X466030Y562145D01*
X466014Y562153D01*
X466000Y562164D01*
X465835Y562246D01*
X465673Y562331D01*
X465656Y562336D01*
X465640Y562344D01*
X465461Y562391D01*
X465286Y562442D01*
X465268Y562444D01*
X465251Y562448D01*
X464920Y562475D01*
X461368Y562475D01*
X460475Y563368D01*
X460475Y577632D01*
X461407Y578564D01*
X461419Y578577D01*
X461432Y578589D01*
X461547Y578734D01*
X461662Y578875D01*
X461671Y578891D01*
X461682Y578905D01*
X461765Y579069D01*
X461851Y579231D01*
X461856Y579248D01*
X461864Y579264D01*
X461914Y579441D01*
X461966Y579617D01*
X461967Y579635D01*
X461972Y579652D01*
X461986Y579835D01*
X462002Y580018D01*
X462000Y580036D01*
X462002Y580053D01*
X461979Y580235D01*
X461959Y580418D01*
X461953Y580435D01*
X461951Y580453D01*
X461893Y580626D01*
X461837Y580802D01*
X461829Y580818D01*
X461823Y580834D01*
X461732Y580993D01*
X461643Y581154D01*
X461631Y581168D01*
X461622Y581183D01*
X461407Y581436D01*
X460475Y582368D01*
X460475Y583150D01*
X460473Y583168D01*
X460475Y583186D01*
X460454Y583368D01*
X460435Y583551D01*
X460430Y583568D01*
X460428Y583585D01*
X460371Y583760D01*
X460317Y583936D01*
X460309Y583951D01*
X460303Y583968D01*
X460213Y584128D01*
X460125Y584290D01*
X460114Y584303D01*
X460105Y584319D01*
X459985Y584458D01*
X459868Y584599D01*
X459854Y584610D01*
X459842Y584624D01*
X459697Y584736D01*
X459554Y584851D01*
X459538Y584859D01*
X459524Y584870D01*
X459359Y584952D01*
X459197Y585037D01*
X459180Y585042D01*
X459164Y585050D01*
X458985Y585097D01*
X458810Y585148D01*
X458792Y585150D01*
X458775Y585154D01*
X458444Y585181D01*
X451556Y585181D01*
X451538Y585179D01*
X451520Y585181D01*
X451338Y585160D01*
X451155Y585141D01*
X451138Y585136D01*
X451121Y585134D01*
X450946Y585077D01*
X450770Y585023D01*
X450755Y585015D01*
X450738Y585009D01*
X450578Y584919D01*
X450416Y584831D01*
X450403Y584820D01*
X450387Y584811D01*
X450248Y584691D01*
X450107Y584574D01*
X450096Y584560D01*
X450082Y584548D01*
X449970Y584403D01*
X449855Y584260D01*
X449847Y584244D01*
X449836Y584230D01*
X449754Y584065D01*
X449669Y583903D01*
X449664Y583886D01*
X449656Y583870D01*
X449609Y583691D01*
X449558Y583516D01*
X449556Y583498D01*
X449552Y583481D01*
X449525Y583150D01*
X449525Y582368D01*
X448593Y581436D01*
X448581Y581422D01*
X448568Y581411D01*
X448454Y581267D01*
X448338Y581125D01*
X448329Y581109D01*
X448318Y581095D01*
X448235Y580931D01*
X448149Y580769D01*
X448144Y580752D01*
X448136Y580736D01*
X448086Y580559D01*
X448034Y580383D01*
X448033Y580365D01*
X448028Y580348D01*
X448014Y580165D01*
X447998Y579982D01*
X448000Y579964D01*
X447998Y579947D01*
X448021Y579765D01*
X448041Y579582D01*
X448047Y579565D01*
X448049Y579547D01*
X448107Y579373D01*
X448163Y579198D01*
X448171Y579182D01*
X448177Y579166D01*
X448269Y579007D01*
X448357Y578846D01*
X448369Y578832D01*
X448378Y578817D01*
X448593Y578564D01*
X449525Y577632D01*
X449525Y563368D01*
X448632Y562475D01*
X431368Y562475D01*
X430475Y563368D01*
X430475Y577632D01*
X431407Y578564D01*
X431419Y578577D01*
X431432Y578589D01*
X431547Y578734D01*
X431662Y578875D01*
X431671Y578891D01*
X431682Y578905D01*
X431765Y579069D01*
X431851Y579231D01*
X431856Y579248D01*
X431864Y579264D01*
X431914Y579441D01*
X431966Y579617D01*
X431967Y579635D01*
X431972Y579652D01*
X431986Y579835D01*
X432002Y580018D01*
X432000Y580036D01*
X432002Y580053D01*
X431979Y580235D01*
X431959Y580418D01*
X431953Y580435D01*
X431951Y580453D01*
X431893Y580626D01*
X431837Y580802D01*
X431829Y580818D01*
X431823Y580834D01*
X431732Y580993D01*
X431643Y581154D01*
X431631Y581168D01*
X431622Y581183D01*
X431407Y581436D01*
X430475Y582368D01*
X430475Y583150D01*
X430473Y583168D01*
X430475Y583186D01*
X430454Y583368D01*
X430435Y583551D01*
X430430Y583568D01*
X430428Y583585D01*
X430371Y583760D01*
X430317Y583936D01*
X430309Y583951D01*
X430303Y583968D01*
X430213Y584128D01*
X430125Y584290D01*
X430114Y584303D01*
X430105Y584319D01*
X429985Y584458D01*
X429868Y584599D01*
X429854Y584610D01*
X429842Y584624D01*
X429697Y584736D01*
X429554Y584851D01*
X429538Y584859D01*
X429524Y584870D01*
X429359Y584952D01*
X429197Y585037D01*
X429180Y585042D01*
X429164Y585050D01*
X428985Y585097D01*
X428810Y585148D01*
X428792Y585150D01*
X428775Y585154D01*
X428444Y585181D01*
X421556Y585181D01*
X421538Y585179D01*
X421520Y585181D01*
X421338Y585160D01*
X421155Y585141D01*
X421138Y585136D01*
X421121Y585134D01*
X420946Y585077D01*
X420770Y585023D01*
X420755Y585015D01*
X420738Y585009D01*
X420578Y584919D01*
X420416Y584831D01*
X420403Y584820D01*
X420387Y584811D01*
X420248Y584691D01*
X420107Y584574D01*
X420096Y584560D01*
X420082Y584548D01*
X419970Y584403D01*
X419855Y584260D01*
X419847Y584244D01*
X419836Y584230D01*
X419754Y584065D01*
X419669Y583903D01*
X419664Y583886D01*
X419656Y583870D01*
X419609Y583691D01*
X419558Y583516D01*
X419556Y583498D01*
X419552Y583481D01*
X419525Y583150D01*
X419525Y582368D01*
X418593Y581436D01*
X418581Y581422D01*
X418568Y581411D01*
X418454Y581267D01*
X418338Y581125D01*
X418329Y581109D01*
X418318Y581095D01*
X418235Y580931D01*
X418149Y580769D01*
X418144Y580752D01*
X418136Y580736D01*
X418086Y580559D01*
X418034Y580383D01*
X418033Y580365D01*
X418028Y580348D01*
X418014Y580165D01*
X417998Y579982D01*
X418000Y579964D01*
X417998Y579947D01*
X418021Y579765D01*
X418041Y579582D01*
X418047Y579565D01*
X418049Y579547D01*
X418107Y579373D01*
X418163Y579198D01*
X418171Y579182D01*
X418177Y579166D01*
X418269Y579007D01*
X418357Y578846D01*
X418369Y578832D01*
X418378Y578817D01*
X418593Y578564D01*
X419525Y577632D01*
X419525Y567126D01*
X419527Y567104D01*
X419525Y567081D01*
X419547Y566904D01*
X419565Y566725D01*
X419571Y566704D01*
X419574Y566682D01*
X419630Y566512D01*
X419683Y566340D01*
X419693Y566321D01*
X419700Y566300D01*
X419789Y566144D01*
X419875Y565986D01*
X419889Y565969D01*
X419900Y565950D01*
X420018Y565814D01*
X420132Y565677D01*
X420150Y565663D01*
X420164Y565646D01*
X420306Y565537D01*
X420446Y565425D01*
X420466Y565415D01*
X420484Y565401D01*
X420542Y565371D01*
X422075Y563838D01*
X422883Y561888D01*
X422883Y559776D01*
X422075Y557826D01*
X420582Y556333D01*
X418632Y555525D01*
X416520Y555525D01*
X414289Y556449D01*
X414276Y556453D01*
X414265Y556459D01*
X414085Y556511D01*
X413904Y556566D01*
X413891Y556567D01*
X413878Y556571D01*
X413690Y556586D01*
X413503Y556604D01*
X413490Y556603D01*
X413476Y556604D01*
X413290Y556582D01*
X413103Y556562D01*
X413090Y556558D01*
X413077Y556557D01*
X412898Y556499D01*
X412718Y556443D01*
X412707Y556436D01*
X412694Y556432D01*
X412529Y556339D01*
X412365Y556249D01*
X412355Y556241D01*
X412343Y556234D01*
X412200Y556111D01*
X412057Y555990D01*
X412049Y555980D01*
X412038Y555971D01*
X411924Y555823D01*
X411806Y555675D01*
X411800Y555663D01*
X411792Y555653D01*
X411708Y555485D01*
X411622Y555317D01*
X411618Y555304D01*
X411612Y555292D01*
X411563Y555110D01*
X411512Y554930D01*
X411511Y554917D01*
X411508Y554904D01*
X411481Y554573D01*
X411481Y520264D01*
X411483Y520238D01*
X411481Y520211D01*
X411503Y520037D01*
X411521Y519864D01*
X411528Y519838D01*
X411532Y519811D01*
X411587Y519646D01*
X411639Y519479D01*
X411652Y519455D01*
X411660Y519430D01*
X411747Y519278D01*
X411831Y519125D01*
X411848Y519104D01*
X411861Y519081D01*
X412076Y518828D01*
X441540Y489364D01*
X441547Y489358D01*
X441552Y489351D01*
X441702Y489231D01*
X441851Y489109D01*
X441859Y489105D01*
X441866Y489099D01*
X442037Y489010D01*
X442207Y488920D01*
X442215Y488918D01*
X442223Y488913D01*
X442409Y488860D01*
X442593Y488805D01*
X442602Y488805D01*
X442610Y488802D01*
X442802Y488786D01*
X442994Y488769D01*
X443003Y488770D01*
G37*
G36*
X548132Y492301D02*
X548132Y492301D01*
X548159Y492299D01*
X548333Y492321D01*
X548506Y492339D01*
X548532Y492346D01*
X548559Y492350D01*
X548724Y492405D01*
X548891Y492457D01*
X548915Y492470D01*
X548940Y492478D01*
X549092Y492565D01*
X549245Y492649D01*
X549266Y492666D01*
X549289Y492679D01*
X549542Y492894D01*
X551092Y494444D01*
X551109Y494465D01*
X551130Y494482D01*
X551237Y494620D01*
X551347Y494755D01*
X551360Y494779D01*
X551376Y494800D01*
X551454Y494957D01*
X551536Y495111D01*
X551544Y495137D01*
X551556Y495161D01*
X551601Y495330D01*
X551651Y495497D01*
X551653Y495524D01*
X551660Y495549D01*
X551687Y495880D01*
X551687Y497768D01*
X551685Y497794D01*
X551687Y497821D01*
X551665Y497995D01*
X551647Y498168D01*
X551640Y498194D01*
X551636Y498221D01*
X551581Y498386D01*
X551529Y498553D01*
X551516Y498577D01*
X551508Y498602D01*
X551421Y498754D01*
X551337Y498907D01*
X551320Y498928D01*
X551307Y498951D01*
X551092Y499204D01*
X526951Y523345D01*
X526951Y560444D01*
X526949Y560462D01*
X526951Y560480D01*
X526930Y560662D01*
X526911Y560845D01*
X526906Y560862D01*
X526904Y560879D01*
X526847Y561054D01*
X526793Y561230D01*
X526785Y561245D01*
X526779Y561262D01*
X526689Y561422D01*
X526601Y561584D01*
X526590Y561597D01*
X526581Y561613D01*
X526461Y561752D01*
X526344Y561893D01*
X526330Y561904D01*
X526318Y561918D01*
X526173Y562030D01*
X526030Y562145D01*
X526014Y562153D01*
X526000Y562164D01*
X525835Y562246D01*
X525673Y562331D01*
X525656Y562336D01*
X525640Y562344D01*
X525461Y562391D01*
X525286Y562442D01*
X525268Y562444D01*
X525251Y562448D01*
X524920Y562475D01*
X524032Y562475D01*
X524014Y562473D01*
X523996Y562475D01*
X523814Y562454D01*
X523631Y562435D01*
X523614Y562430D01*
X523597Y562428D01*
X523422Y562371D01*
X523246Y562317D01*
X523231Y562309D01*
X523214Y562303D01*
X523054Y562213D01*
X522892Y562125D01*
X522879Y562114D01*
X522863Y562105D01*
X522724Y561985D01*
X522583Y561868D01*
X522572Y561854D01*
X522558Y561842D01*
X522446Y561697D01*
X522331Y561554D01*
X522323Y561538D01*
X522312Y561524D01*
X522230Y561359D01*
X522145Y561197D01*
X522140Y561180D01*
X522132Y561164D01*
X522085Y560985D01*
X522034Y560810D01*
X522032Y560792D01*
X522028Y560775D01*
X522001Y560444D01*
X522001Y559495D01*
X521343Y557908D01*
X514920Y551484D01*
X514914Y551477D01*
X514907Y551472D01*
X514787Y551322D01*
X514665Y551173D01*
X514661Y551165D01*
X514655Y551158D01*
X514567Y550988D01*
X514476Y550817D01*
X514474Y550808D01*
X514470Y550801D01*
X514416Y550616D01*
X514361Y550431D01*
X514361Y550422D01*
X514358Y550414D01*
X514342Y550222D01*
X514325Y550030D01*
X514326Y550021D01*
X514325Y550012D01*
X514347Y549823D01*
X514368Y549630D01*
X514371Y549621D01*
X514372Y549613D01*
X514432Y549431D01*
X514490Y549246D01*
X514494Y549238D01*
X514497Y549230D01*
X514592Y549061D01*
X514685Y548894D01*
X514690Y548887D01*
X514695Y548879D01*
X514821Y548733D01*
X514945Y548587D01*
X514952Y548581D01*
X514958Y548574D01*
X515109Y548457D01*
X515261Y548337D01*
X515269Y548333D01*
X515276Y548328D01*
X515448Y548242D01*
X515620Y548155D01*
X515629Y548152D01*
X515637Y548148D01*
X515823Y548098D01*
X516008Y548047D01*
X516017Y548046D01*
X516025Y548044D01*
X516356Y548017D01*
X516376Y548017D01*
X517269Y547124D01*
X517269Y530860D01*
X516376Y529967D01*
X515594Y529967D01*
X515576Y529965D01*
X515558Y529967D01*
X515376Y529946D01*
X515193Y529927D01*
X515176Y529922D01*
X515159Y529920D01*
X514984Y529863D01*
X514808Y529809D01*
X514793Y529801D01*
X514776Y529795D01*
X514616Y529705D01*
X514454Y529617D01*
X514441Y529606D01*
X514425Y529597D01*
X514286Y529477D01*
X514145Y529360D01*
X514134Y529346D01*
X514120Y529334D01*
X514008Y529189D01*
X513893Y529046D01*
X513885Y529030D01*
X513874Y529016D01*
X513792Y528851D01*
X513707Y528689D01*
X513702Y528672D01*
X513694Y528656D01*
X513647Y528477D01*
X513596Y528302D01*
X513594Y528284D01*
X513590Y528267D01*
X513563Y527936D01*
X513563Y527376D01*
X513565Y527358D01*
X513563Y527340D01*
X513584Y527158D01*
X513603Y526975D01*
X513608Y526958D01*
X513610Y526941D01*
X513667Y526766D01*
X513721Y526590D01*
X513729Y526575D01*
X513735Y526558D01*
X513826Y526397D01*
X513913Y526236D01*
X513924Y526223D01*
X513933Y526207D01*
X514053Y526068D01*
X514170Y525927D01*
X514184Y525916D01*
X514196Y525902D01*
X514341Y525790D01*
X514484Y525675D01*
X514500Y525667D01*
X514514Y525656D01*
X514679Y525574D01*
X514841Y525489D01*
X514858Y525484D01*
X514874Y525476D01*
X515053Y525429D01*
X515228Y525378D01*
X515246Y525376D01*
X515263Y525372D01*
X515594Y525345D01*
X516376Y525345D01*
X517269Y524452D01*
X517269Y508188D01*
X516376Y507295D01*
X515366Y507295D01*
X515348Y507293D01*
X515330Y507295D01*
X515148Y507274D01*
X514965Y507255D01*
X514948Y507250D01*
X514931Y507248D01*
X514756Y507191D01*
X514580Y507137D01*
X514565Y507129D01*
X514548Y507123D01*
X514388Y507033D01*
X514226Y506945D01*
X514213Y506934D01*
X514197Y506925D01*
X514058Y506805D01*
X513917Y506688D01*
X513906Y506674D01*
X513892Y506662D01*
X513780Y506517D01*
X513665Y506374D01*
X513657Y506358D01*
X513646Y506344D01*
X513564Y506179D01*
X513479Y506017D01*
X513474Y506000D01*
X513466Y505984D01*
X513419Y505805D01*
X513368Y505630D01*
X513366Y505612D01*
X513362Y505595D01*
X513335Y505264D01*
X513335Y502502D01*
X513337Y502476D01*
X513335Y502449D01*
X513357Y502275D01*
X513375Y502102D01*
X513382Y502076D01*
X513386Y502050D01*
X513441Y501884D01*
X513493Y501717D01*
X513506Y501693D01*
X513514Y501668D01*
X513601Y501516D01*
X513685Y501363D01*
X513702Y501342D01*
X513715Y501319D01*
X513930Y501066D01*
X514332Y500664D01*
X514353Y500647D01*
X514370Y500626D01*
X514508Y500519D01*
X514643Y500409D01*
X514667Y500396D01*
X514688Y500380D01*
X514845Y500302D01*
X514999Y500220D01*
X515025Y500212D01*
X515049Y500200D01*
X515218Y500155D01*
X515385Y500105D01*
X515412Y500103D01*
X515438Y500096D01*
X515768Y500069D01*
X537419Y500069D01*
X539095Y499374D01*
X539119Y499355D01*
X539143Y499342D01*
X539164Y499326D01*
X539321Y499248D01*
X539475Y499166D01*
X539501Y499158D01*
X539525Y499146D01*
X539694Y499101D01*
X539861Y499051D01*
X539888Y499049D01*
X539914Y499042D01*
X540244Y499015D01*
X544177Y499015D01*
X545070Y498122D01*
X545070Y494330D01*
X545072Y494312D01*
X545070Y494294D01*
X545091Y494112D01*
X545110Y493929D01*
X545115Y493912D01*
X545117Y493895D01*
X545174Y493720D01*
X545228Y493544D01*
X545236Y493529D01*
X545242Y493512D01*
X545332Y493352D01*
X545420Y493190D01*
X545431Y493177D01*
X545440Y493161D01*
X545560Y493022D01*
X545677Y492881D01*
X545691Y492870D01*
X545703Y492856D01*
X545848Y492744D01*
X545991Y492629D01*
X546007Y492621D01*
X546021Y492610D01*
X546186Y492528D01*
X546348Y492443D01*
X546365Y492438D01*
X546381Y492430D01*
X546560Y492383D01*
X546735Y492332D01*
X546753Y492330D01*
X546770Y492326D01*
X547101Y492299D01*
X548106Y492299D01*
X548132Y492301D01*
G37*
G36*
X567663Y517486D02*
X567663Y517486D01*
X567672Y517485D01*
X567861Y517507D01*
X568054Y517528D01*
X568063Y517531D01*
X568071Y517532D01*
X568253Y517592D01*
X568438Y517650D01*
X568446Y517654D01*
X568454Y517657D01*
X568623Y517752D01*
X568790Y517845D01*
X568797Y517850D01*
X568805Y517855D01*
X568951Y517981D01*
X569097Y518105D01*
X569103Y518112D01*
X569110Y518118D01*
X569227Y518269D01*
X569347Y518421D01*
X569351Y518429D01*
X569356Y518436D01*
X569442Y518608D01*
X569529Y518780D01*
X569532Y518789D01*
X569536Y518797D01*
X569586Y518983D01*
X569637Y519168D01*
X569638Y519177D01*
X569640Y519185D01*
X569667Y519516D01*
X569667Y525657D01*
X569665Y525684D01*
X569667Y525710D01*
X569645Y525884D01*
X569627Y526058D01*
X569619Y526083D01*
X569616Y526110D01*
X569561Y526275D01*
X569509Y526443D01*
X569496Y526466D01*
X569488Y526492D01*
X569401Y526643D01*
X569317Y526797D01*
X569300Y526817D01*
X569287Y526840D01*
X569072Y527093D01*
X568841Y527324D01*
X568841Y534588D01*
X569024Y534771D01*
X569041Y534791D01*
X569062Y534809D01*
X569168Y534946D01*
X569279Y535082D01*
X569292Y535106D01*
X569308Y535127D01*
X569386Y535283D01*
X569468Y535438D01*
X569476Y535463D01*
X569488Y535487D01*
X569533Y535656D01*
X569583Y535824D01*
X569585Y535850D01*
X569592Y535876D01*
X569619Y536207D01*
X569619Y536852D01*
X569617Y536870D01*
X569619Y536888D01*
X569598Y537070D01*
X569579Y537253D01*
X569574Y537270D01*
X569572Y537287D01*
X569515Y537462D01*
X569461Y537638D01*
X569453Y537653D01*
X569447Y537670D01*
X569357Y537830D01*
X569269Y537992D01*
X569258Y538005D01*
X569249Y538021D01*
X569129Y538160D01*
X569012Y538301D01*
X568998Y538312D01*
X568986Y538326D01*
X568841Y538438D01*
X568698Y538553D01*
X568682Y538561D01*
X568668Y538572D01*
X568503Y538654D01*
X568341Y538739D01*
X568324Y538744D01*
X568308Y538752D01*
X568129Y538799D01*
X567954Y538850D01*
X567936Y538852D01*
X567919Y538856D01*
X567588Y538883D01*
X565636Y538883D01*
X565627Y538882D01*
X565618Y538883D01*
X565427Y538862D01*
X565235Y538843D01*
X565226Y538841D01*
X565217Y538840D01*
X565034Y538782D01*
X564850Y538725D01*
X564842Y538721D01*
X564834Y538718D01*
X564665Y538625D01*
X564496Y538533D01*
X564489Y538528D01*
X564481Y538523D01*
X564334Y538398D01*
X564187Y538276D01*
X564181Y538269D01*
X564174Y538263D01*
X564056Y538112D01*
X563935Y537962D01*
X563930Y537954D01*
X563925Y537947D01*
X563837Y537774D01*
X563749Y537605D01*
X563747Y537596D01*
X563742Y537588D01*
X563690Y537400D01*
X563638Y537218D01*
X563637Y537209D01*
X563634Y537200D01*
X563621Y537008D01*
X563605Y536816D01*
X563606Y536807D01*
X563605Y536798D01*
X563629Y536608D01*
X563652Y536417D01*
X563655Y536408D01*
X563656Y536399D01*
X563718Y536214D01*
X563777Y536034D01*
X563781Y536026D01*
X563784Y536017D01*
X563880Y535851D01*
X563974Y535683D01*
X563980Y535676D01*
X563985Y535668D01*
X564067Y535572D01*
X564434Y534937D01*
X564607Y534290D01*
X564607Y532987D01*
X559716Y532987D01*
X554825Y532987D01*
X554825Y534290D01*
X554998Y534937D01*
X555333Y535516D01*
X555806Y535989D01*
X555902Y536044D01*
X555976Y536097D01*
X556055Y536142D01*
X556139Y536214D01*
X556229Y536279D01*
X556291Y536346D01*
X556360Y536405D01*
X556427Y536493D01*
X556503Y536574D01*
X556551Y536652D01*
X556606Y536723D01*
X556656Y536823D01*
X556714Y536917D01*
X556745Y537002D01*
X556786Y537084D01*
X556814Y537191D01*
X556853Y537295D01*
X556866Y537385D01*
X556890Y537473D01*
X556901Y537610D01*
X556914Y537693D01*
X556912Y537740D01*
X556917Y537803D01*
X556917Y547190D01*
X556915Y547208D01*
X556917Y547225D01*
X556896Y547408D01*
X556877Y547590D01*
X556872Y547607D01*
X556870Y547625D01*
X556813Y547800D01*
X556759Y547975D01*
X556751Y547991D01*
X556745Y548008D01*
X556655Y548168D01*
X556567Y548329D01*
X556556Y548343D01*
X556547Y548359D01*
X556427Y548497D01*
X556310Y548639D01*
X556296Y548650D01*
X556284Y548663D01*
X556139Y548776D01*
X555996Y548891D01*
X555980Y548899D01*
X555966Y548910D01*
X555801Y548992D01*
X555639Y549076D01*
X555622Y549081D01*
X555606Y549089D01*
X555427Y549137D01*
X555252Y549188D01*
X555234Y549189D01*
X555217Y549194D01*
X554886Y549221D01*
X554481Y549221D01*
X554481Y549626D01*
X554479Y549644D01*
X554481Y549662D01*
X554459Y549844D01*
X554441Y550027D01*
X554436Y550044D01*
X554434Y550061D01*
X554377Y550236D01*
X554323Y550412D01*
X554315Y550427D01*
X554309Y550444D01*
X554219Y550604D01*
X554131Y550766D01*
X554120Y550779D01*
X554111Y550795D01*
X553991Y550934D01*
X553873Y551075D01*
X553860Y551086D01*
X553848Y551100D01*
X553703Y551212D01*
X553560Y551327D01*
X553544Y551335D01*
X553530Y551346D01*
X553365Y551428D01*
X553202Y551513D01*
X553185Y551518D01*
X553169Y551526D01*
X552991Y551573D01*
X552816Y551624D01*
X552798Y551626D01*
X552781Y551630D01*
X552450Y551657D01*
X544627Y551657D01*
X544627Y556603D01*
X544626Y556611D01*
X544627Y556620D01*
X544606Y556812D01*
X544587Y557003D01*
X544585Y557012D01*
X544584Y557021D01*
X544526Y557203D01*
X544469Y557388D01*
X544465Y557396D01*
X544462Y557404D01*
X544369Y557573D01*
X544277Y557742D01*
X544272Y557749D01*
X544267Y557757D01*
X544142Y557905D01*
X544020Y558051D01*
X544013Y558057D01*
X544007Y558064D01*
X543855Y558184D01*
X543706Y558304D01*
X543698Y558308D01*
X543691Y558313D01*
X543519Y558401D01*
X543349Y558489D01*
X543340Y558492D01*
X543332Y558496D01*
X543146Y558548D01*
X542962Y558601D01*
X542953Y558601D01*
X542944Y558604D01*
X542752Y558618D01*
X542560Y558633D01*
X542552Y558632D01*
X542543Y558633D01*
X542350Y558609D01*
X542161Y558587D01*
X542152Y558584D01*
X542143Y558583D01*
X541960Y558521D01*
X541778Y558462D01*
X541770Y558457D01*
X541762Y558454D01*
X541596Y558359D01*
X541427Y558264D01*
X541420Y558258D01*
X541413Y558254D01*
X541160Y558039D01*
X539454Y556333D01*
X537504Y555525D01*
X535080Y555525D01*
X535062Y555523D01*
X535044Y555525D01*
X534862Y555504D01*
X534679Y555485D01*
X534662Y555480D01*
X534645Y555478D01*
X534470Y555421D01*
X534294Y555367D01*
X534279Y555359D01*
X534262Y555353D01*
X534102Y555263D01*
X533940Y555175D01*
X533927Y555164D01*
X533911Y555155D01*
X533772Y555035D01*
X533631Y554918D01*
X533620Y554904D01*
X533606Y554892D01*
X533494Y554747D01*
X533379Y554604D01*
X533371Y554588D01*
X533360Y554574D01*
X533278Y554409D01*
X533193Y554247D01*
X533188Y554230D01*
X533180Y554214D01*
X533133Y554035D01*
X533082Y553860D01*
X533080Y553842D01*
X533076Y553825D01*
X533049Y553494D01*
X533049Y526712D01*
X533050Y526699D01*
X533049Y526688D01*
X533051Y526675D01*
X533049Y526659D01*
X533071Y526485D01*
X533089Y526312D01*
X533096Y526286D01*
X533100Y526259D01*
X533155Y526094D01*
X533207Y525927D01*
X533220Y525903D01*
X533228Y525878D01*
X533315Y525726D01*
X533399Y525573D01*
X533416Y525552D01*
X533429Y525529D01*
X533644Y525276D01*
X540121Y518799D01*
X540131Y518790D01*
X540140Y518780D01*
X540287Y518663D01*
X540432Y518544D01*
X540444Y518538D01*
X540454Y518529D01*
X540621Y518444D01*
X540788Y518355D01*
X540801Y518351D01*
X540813Y518345D01*
X540993Y518294D01*
X541174Y518240D01*
X541187Y518239D01*
X541200Y518236D01*
X541386Y518221D01*
X541575Y518204D01*
X541588Y518205D01*
X541601Y518204D01*
X541786Y518227D01*
X541975Y518247D01*
X541988Y518251D01*
X542001Y518253D01*
X542178Y518312D01*
X542359Y518369D01*
X542371Y518375D01*
X542383Y518380D01*
X542547Y518473D01*
X542711Y518564D01*
X542721Y518572D01*
X542733Y518579D01*
X542876Y518703D01*
X543018Y518824D01*
X543027Y518835D01*
X543037Y518844D01*
X543151Y518992D01*
X543268Y519140D01*
X543274Y519152D01*
X543282Y519163D01*
X543434Y519458D01*
X544141Y521166D01*
X545634Y522659D01*
X546020Y522819D01*
X547584Y523467D01*
X549696Y523467D01*
X551708Y522633D01*
X551737Y522624D01*
X551765Y522610D01*
X551930Y522566D01*
X552093Y522517D01*
X552124Y522514D01*
X552154Y522506D01*
X552485Y522479D01*
X554346Y522479D01*
X554355Y522480D01*
X554364Y522479D01*
X554554Y522499D01*
X554747Y522519D01*
X554755Y522521D01*
X554764Y522522D01*
X554948Y522580D01*
X555132Y522637D01*
X555140Y522641D01*
X555148Y522644D01*
X555317Y522737D01*
X555486Y522829D01*
X555493Y522834D01*
X555501Y522839D01*
X555647Y522963D01*
X555795Y523086D01*
X555801Y523093D01*
X555808Y523099D01*
X555927Y523250D01*
X556047Y523400D01*
X556052Y523408D01*
X556057Y523415D01*
X556145Y523587D01*
X556233Y523757D01*
X556235Y523766D01*
X556239Y523774D01*
X556291Y523959D01*
X556344Y524144D01*
X556345Y524153D01*
X556347Y524162D01*
X556362Y524354D01*
X556377Y524546D01*
X556376Y524554D01*
X556377Y524563D01*
X556353Y524753D01*
X556330Y524945D01*
X556328Y524954D01*
X556326Y524963D01*
X556265Y525145D01*
X556205Y525328D01*
X556201Y525336D01*
X556198Y525344D01*
X556103Y525510D01*
X556008Y525679D01*
X556002Y525686D01*
X555997Y525693D01*
X555783Y525946D01*
X555333Y526396D01*
X554998Y526975D01*
X554825Y527621D01*
X554825Y528925D01*
X559716Y528925D01*
X564607Y528925D01*
X564607Y527621D01*
X564434Y526975D01*
X564099Y526396D01*
X563626Y525923D01*
X563047Y525588D01*
X562947Y525562D01*
X562814Y525511D01*
X562679Y525469D01*
X562627Y525441D01*
X562570Y525420D01*
X562450Y525344D01*
X562326Y525276D01*
X562280Y525238D01*
X562229Y525206D01*
X562126Y525108D01*
X562018Y525017D01*
X561980Y524970D01*
X561937Y524929D01*
X561855Y524813D01*
X561767Y524702D01*
X561739Y524649D01*
X561705Y524600D01*
X561648Y524470D01*
X561583Y524344D01*
X561566Y524286D01*
X561542Y524232D01*
X561512Y524093D01*
X561473Y523956D01*
X561468Y523897D01*
X561456Y523838D01*
X561453Y523697D01*
X561442Y523555D01*
X561449Y523496D01*
X561448Y523436D01*
X561474Y523296D01*
X561491Y523155D01*
X561509Y523099D01*
X561520Y523040D01*
X561573Y522908D01*
X561617Y522773D01*
X561647Y522721D01*
X561669Y522666D01*
X561746Y522547D01*
X561817Y522423D01*
X561856Y522378D01*
X561889Y522328D01*
X561988Y522227D01*
X562081Y522120D01*
X562129Y522083D01*
X562171Y522041D01*
X562288Y521961D01*
X562400Y521875D01*
X562410Y521870D01*
X563959Y520321D01*
X566200Y518080D01*
X566207Y518074D01*
X566212Y518067D01*
X566362Y517947D01*
X566511Y517825D01*
X566519Y517821D01*
X566526Y517815D01*
X566696Y517727D01*
X566867Y517636D01*
X566876Y517634D01*
X566883Y517630D01*
X567068Y517577D01*
X567253Y517521D01*
X567262Y517521D01*
X567270Y517518D01*
X567461Y517502D01*
X567654Y517485D01*
X567663Y517486D01*
G37*
%LPC*%
G36*
X481203Y519569D02*
X481203Y519569D01*
X481203Y524155D01*
X481376Y524801D01*
X481711Y525380D01*
X482184Y525853D01*
X482260Y525897D01*
X482379Y525982D01*
X482502Y526061D01*
X482542Y526099D01*
X482587Y526132D01*
X482687Y526239D01*
X482792Y526340D01*
X482823Y526386D01*
X482861Y526427D01*
X482938Y526551D01*
X483021Y526671D01*
X483043Y526722D01*
X483072Y526770D01*
X483122Y526907D01*
X483180Y527041D01*
X483192Y527095D01*
X483211Y527147D01*
X483233Y527292D01*
X483263Y527435D01*
X483264Y527491D01*
X483272Y527545D01*
X483266Y527691D01*
X483267Y527838D01*
X483257Y527892D01*
X483254Y527948D01*
X483219Y528089D01*
X483192Y528233D01*
X483171Y528285D01*
X483157Y528338D01*
X483095Y528471D01*
X483040Y528606D01*
X483009Y528652D01*
X482985Y528702D01*
X482898Y528819D01*
X482817Y528941D01*
X482778Y528981D01*
X482745Y529025D01*
X482636Y529123D01*
X482533Y529226D01*
X482481Y529262D01*
X482445Y529294D01*
X482373Y529337D01*
X482260Y529415D01*
X482184Y529459D01*
X481711Y529932D01*
X481376Y530511D01*
X481203Y531157D01*
X481203Y535743D01*
X486995Y535743D01*
X486995Y519569D01*
X481203Y519569D01*
G37*
%LPD*%
%LPC*%
G36*
X546833Y537867D02*
X546833Y537867D01*
X546187Y538040D01*
X545608Y538375D01*
X545135Y538848D01*
X544800Y539427D01*
X544627Y540073D01*
X544627Y545159D01*
X550419Y545159D01*
X550419Y537867D01*
X546833Y537867D01*
G37*
%LPD*%
%LPC*%
G36*
X481203Y542241D02*
X481203Y542241D01*
X481203Y546827D01*
X481376Y547473D01*
X481711Y548052D01*
X482184Y548525D01*
X482763Y548860D01*
X483409Y549033D01*
X486995Y549033D01*
X486995Y542241D01*
X481203Y542241D01*
G37*
%LPD*%
%LPC*%
G36*
X483409Y506279D02*
X483409Y506279D01*
X482763Y506452D01*
X482184Y506787D01*
X481711Y507260D01*
X481376Y507839D01*
X481203Y508485D01*
X481203Y513071D01*
X486995Y513071D01*
X486995Y506279D01*
X483409Y506279D01*
G37*
%LPD*%
%LPC*%
G36*
X465471Y419969D02*
X465471Y419969D01*
X465471Y422219D01*
X472966Y422219D01*
X472966Y422175D01*
X472793Y421529D01*
X472458Y420950D01*
X471985Y420477D01*
X471406Y420142D01*
X470760Y419969D01*
X465471Y419969D01*
G37*
%LPD*%
%LPC*%
G36*
X456120Y419969D02*
X456120Y419969D01*
X455474Y420142D01*
X454895Y420477D01*
X454422Y420950D01*
X454087Y421529D01*
X453914Y422175D01*
X453914Y422219D01*
X461409Y422219D01*
X461409Y419969D01*
X456120Y419969D01*
G37*
%LPD*%
D10*
X509244Y538992D03*
X490244Y538992D03*
X509244Y516320D03*
X490244Y516320D03*
D11*
X50000Y570500D03*
X50000Y589500D03*
D12*
X536560Y495750D03*
X536560Y489250D03*
X536560Y482750D03*
X536560Y469750D03*
X536560Y476250D03*
X536560Y463250D03*
X536560Y456750D03*
X536560Y450250D03*
X536560Y443750D03*
X536560Y437250D03*
X463440Y495750D03*
X463440Y489250D03*
X463440Y482750D03*
X463440Y476250D03*
X463440Y469750D03*
X463440Y463250D03*
X463440Y456750D03*
X463440Y450250D03*
X463440Y443750D03*
X463440Y437250D03*
X463440Y430750D03*
X463440Y424250D03*
X536560Y424250D03*
X536560Y430750D03*
D11*
X110000Y570500D03*
X110000Y589500D03*
X170000Y570500D03*
X170000Y589500D03*
X230000Y570500D03*
X230000Y589500D03*
X290000Y570500D03*
X290000Y589500D03*
X350000Y570500D03*
X350000Y589500D03*
X410000Y570500D03*
X410000Y589500D03*
X470000Y570500D03*
X470000Y589500D03*
X530000Y570500D03*
X530000Y589500D03*
X590000Y570500D03*
X590000Y589500D03*
X650000Y570500D03*
X650000Y589500D03*
X710000Y570500D03*
X710000Y589500D03*
X770000Y570500D03*
X770000Y589500D03*
X830000Y570500D03*
X830000Y589500D03*
X890000Y570500D03*
X890000Y589500D03*
X950000Y570500D03*
X950000Y589500D03*
D13*
X572716Y530956D03*
X559716Y530956D03*
X566216Y511956D03*
D14*
X553668Y548408D03*
X572668Y548408D03*
D11*
X20000Y570500D03*
X20000Y589500D03*
X80000Y570500D03*
X80000Y589500D03*
X140000Y570500D03*
X140000Y589500D03*
X200000Y570500D03*
X200000Y589500D03*
X260000Y570500D03*
X260000Y589500D03*
X320000Y570500D03*
X320000Y589500D03*
X380000Y570500D03*
X380000Y589500D03*
X440000Y570500D03*
X440000Y589500D03*
X500000Y570500D03*
X500000Y589500D03*
X560000Y570500D03*
X560000Y589500D03*
X620000Y570500D03*
X620000Y589500D03*
X680000Y570500D03*
X680000Y589500D03*
X740000Y570500D03*
X740000Y589500D03*
X800000Y570500D03*
X800000Y589500D03*
X860000Y570500D03*
X860000Y589500D03*
X920000Y570500D03*
X920000Y589500D03*
X980000Y570500D03*
X980000Y589500D03*
D15*
X482500Y395000D03*
X487500Y395000D03*
X492500Y395000D03*
X497500Y395000D03*
X502500Y395000D03*
X507500Y395000D03*
X512500Y395000D03*
X517500Y395000D03*
D16*
X458000Y379000D03*
D17*
X463500Y363750D03*
X536500Y363750D03*
D16*
X542000Y379000D03*
D18*
X490244Y516320D02*
X490244Y538992D01*
X490244Y516320D02*
X480376Y516320D01*
X478536Y518160D01*
D19*
X478536Y518160D03*
D20*
X507630Y437250D02*
X536560Y437250D01*
X507630Y437250D02*
X505968Y438912D01*
D19*
X505968Y438912D03*
X460248Y518160D03*
X521208Y518160D03*
D18*
X553668Y537004D02*
X559716Y530956D01*
X553668Y537004D02*
X553668Y548408D01*
X559716Y530956D02*
X556064Y527304D01*
D19*
X542544Y527304D03*
D18*
X556064Y527304D01*
D20*
X463440Y424250D02*
X462718Y423528D01*
X462718Y412058D01*
X470916Y403860D01*
X477012Y403860D01*
D19*
X477012Y403860D03*
D20*
X473640Y403860D02*
X482500Y395000D01*
X473640Y403860D02*
X470916Y403860D01*
D19*
X440248Y428160D03*
X570248Y428160D03*
X610248Y488160D03*
X110248Y498160D03*
X890248Y498160D03*
X171208Y498160D03*
X232168Y498160D03*
X46240Y507304D03*
X290080Y498160D03*
X351040Y498160D03*
X412000Y498160D03*
X491248Y458536D03*
X661936Y498160D03*
X707656Y498160D03*
X768616Y498160D03*
X826528Y498160D03*
X945400Y498160D03*
X351040Y428056D03*
X549160Y400624D03*
X649744Y431104D03*
X439432Y501208D03*
D21*
X463440Y443750D02*
X135370Y443750D01*
X48768Y530352D01*
X48768Y569268D01*
X50000Y570500D01*
D19*
X54864Y560832D03*
D20*
X48768Y566928D01*
X48768Y569268D01*
D18*
X50000Y589500D02*
X20000Y589500D01*
X50000Y589500D02*
X80000Y589500D01*
X110000Y589500D01*
X140000Y589500D01*
X170000Y589500D01*
X200000Y589500D01*
X230000Y589500D01*
X260000Y589500D01*
X290000Y589500D01*
X320000Y589500D01*
X350000Y589500D01*
X380000Y589500D01*
X410000Y589500D01*
X440000Y589500D01*
X470000Y589500D01*
X500000Y589500D01*
X518160Y589500D01*
X530000Y589500D01*
X560000Y589500D01*
X590000Y589500D01*
X620000Y589500D01*
X650000Y589500D01*
X680000Y589500D01*
X710000Y589500D01*
X680000Y589500D02*
X740000Y589500D01*
X770000Y589500D01*
X800000Y589500D01*
X830000Y589500D01*
X860000Y589500D01*
X890000Y589500D01*
X920000Y589500D01*
X950000Y589500D01*
X980000Y589500D01*
X509244Y551916D02*
X509244Y538992D01*
X517682Y578789D02*
X518160Y579267D01*
X518160Y589500D01*
X517682Y578789D02*
X517682Y560354D01*
X509244Y551916D01*
X509244Y521208D02*
X509244Y516320D01*
X509244Y521208D02*
X509244Y538992D01*
X513138Y495750D02*
X536560Y495750D01*
X513138Y495750D02*
X509016Y499872D01*
X509016Y520980D01*
X509244Y521208D01*
D19*
X518160Y487680D03*
D18*
X509016Y496824D01*
X509016Y499872D01*
D20*
X517500Y404724D02*
X517500Y395000D01*
X521208Y408432D02*
X524256Y408432D01*
D18*
X527304Y408432D01*
D19*
X527304Y408432D03*
D20*
X521208Y408432D02*
X517500Y404724D01*
D21*
X486294Y437250D02*
X463440Y437250D01*
X497072Y395428D02*
X497500Y395000D01*
X497072Y395428D02*
X497072Y426472D01*
X486294Y437250D01*
X492500Y421900D02*
X492500Y395000D01*
X483650Y430750D02*
X463440Y430750D01*
X483650Y430750D02*
X492500Y421900D01*
X502500Y426300D02*
X502500Y395000D01*
X506950Y430750D02*
X536560Y430750D01*
X506950Y430750D02*
X502500Y426300D01*
X507500Y416060D02*
X507500Y395000D01*
X515690Y424250D02*
X536560Y424250D01*
X515690Y424250D02*
X507500Y416060D01*
X487500Y411660D02*
X487500Y395000D01*
X487500Y411660D02*
X481584Y417576D01*
D19*
X481584Y417576D03*
X481584Y487680D03*
D21*
X473514Y495750D01*
X463440Y495750D01*
X463440Y450250D02*
X189830Y450250D01*
X109728Y530352D01*
X109728Y569976D01*
X109728Y570228D01*
X110000Y570500D01*
D19*
X115824Y560832D03*
D20*
X109728Y566928D01*
X109728Y569976D01*
D21*
X244290Y456750D02*
X463440Y456750D01*
X170000Y531040D02*
X170000Y570500D01*
X170000Y531040D02*
X244290Y456750D01*
D19*
X176784Y557784D03*
D20*
X176784Y563716D01*
X170000Y570500D01*
D21*
X295702Y463250D02*
X463440Y463250D01*
X295702Y463250D02*
X228600Y530352D01*
X228600Y569100D01*
X230000Y570500D01*
D19*
X234696Y560832D03*
D20*
X234696Y565804D01*
X230000Y570500D01*
D21*
X350162Y469750D02*
X463440Y469750D01*
X350162Y469750D02*
X289560Y530352D01*
X289560Y570060D01*
X290000Y570500D01*
D19*
X295656Y560832D03*
D20*
X289560Y566928D01*
X289560Y570060D01*
D21*
X404622Y476250D02*
X463440Y476250D01*
X350000Y530872D02*
X350000Y570500D01*
X350000Y530872D02*
X404622Y476250D01*
D19*
X356616Y560832D03*
D20*
X350000Y567448D01*
X350000Y570500D01*
D21*
X443842Y482750D02*
X463440Y482750D01*
X443842Y482750D02*
X408432Y518160D01*
X408432Y568932D01*
X410000Y570500D01*
D19*
X417576Y560832D03*
D20*
X416532Y560832D01*
X408432Y568932D01*
D21*
X449534Y489250D02*
X463440Y489250D01*
X449534Y489250D02*
X448056Y490728D01*
X448056Y527304D01*
X470000Y549248D02*
X470000Y570500D01*
X470000Y549248D02*
X448056Y527304D01*
D19*
X475488Y560832D03*
D20*
X475488Y565012D01*
X470000Y570500D01*
D21*
X536560Y489250D02*
X550210Y489250D01*
X554736Y493776D01*
X554736Y499872D01*
X530000Y524608D02*
X530000Y570500D01*
X530000Y524608D02*
X554736Y499872D01*
D19*
X536448Y560832D03*
D20*
X530000Y567280D01*
X530000Y570500D01*
D21*
X536560Y482750D02*
X577238Y482750D01*
X591312Y496824D01*
X591312Y569188D01*
X590000Y570500D01*
D19*
X597408Y557784D03*
D20*
X591312Y563880D01*
X591312Y569188D01*
D21*
X622554Y476250D02*
X536560Y476250D01*
X650000Y503696D02*
X650000Y569976D01*
X650000Y570500D01*
X650000Y503696D02*
X622554Y476250D01*
D19*
X658368Y560832D03*
D20*
X650000Y569200D01*
X650000Y569976D01*
D21*
X649582Y469750D02*
X536560Y469750D01*
X649582Y469750D02*
X710184Y530352D01*
X710184Y570316D01*
X710000Y570500D01*
D19*
X719328Y557784D03*
D20*
X710184Y566928D01*
X710184Y570316D01*
D21*
X707090Y463250D02*
X536560Y463250D01*
X707090Y463250D02*
X771144Y527304D01*
X771144Y569356D01*
X770000Y570500D01*
D19*
X777240Y557784D03*
D20*
X777240Y563260D01*
X771144Y569356D01*
D21*
X755454Y456750D02*
X536560Y456750D01*
X830000Y531296D02*
X830000Y570500D01*
X830000Y531296D02*
X755454Y456750D01*
D19*
X838200Y557784D03*
D20*
X830000Y565984D01*
X830000Y570500D01*
D21*
X812962Y450250D02*
X536560Y450250D01*
X812962Y450250D02*
X890016Y527304D01*
X890016Y569976D01*
X890016Y570484D01*
X890000Y570500D01*
D19*
X899160Y557784D03*
D20*
X890016Y566928D01*
X890016Y569976D01*
D21*
X864374Y443750D02*
X536560Y443750D01*
X864374Y443750D02*
X950976Y530352D01*
X950976Y569524D01*
X950000Y570500D01*
D19*
X963168Y557784D03*
D20*
X962716Y557784D01*
X950000Y570500D01*
D21*
X572668Y548408D02*
X572668Y531004D01*
X572716Y530956D01*
X572716Y499564D01*
X569976Y496824D01*
D19*
X569976Y496824D03*
D21*
X512500Y411916D02*
X512500Y395000D01*
X512500Y411916D02*
X515112Y414528D01*
X518160Y417576D01*
X551688Y417576D01*
X554736Y420624D01*
X554736Y423672D01*
D19*
X554736Y423672D03*
X20000Y570500D03*
D20*
X17764Y570500D01*
X15240Y573024D01*
X17476Y573024D01*
X20000Y570500D01*
D19*
X79248Y563880D03*
D20*
X79248Y569748D01*
X80000Y570500D01*
D18*
X560012Y518160D02*
X566216Y511956D01*
D19*
X548640Y518160D03*
D18*
X560012Y518160D01*
D19*
X141732Y565404D03*
D20*
X140000Y567136D01*
X140000Y570500D01*
D19*
X200000Y570500D03*
X260000Y570500D03*
D20*
X256428Y566928D01*
X256032Y566928D01*
X259604Y570500D01*
X260000Y570500D01*
D19*
X320000Y570500D03*
X380000Y570500D03*
X440000Y570500D03*
X500000Y570500D03*
X560000Y570500D03*
X620000Y570500D03*
X680000Y570500D03*
X740000Y570500D03*
X800000Y570500D03*
X860000Y570500D03*
X920000Y570500D03*
X980000Y570500D03*
M02*
