G04 EAGLE Gerber RS-274X export*
G75*
%MOMM*%
%FSLAX34Y34*%
%LPD*%
%INBottom Copper*%
%IPPOS*%
%AMOC8*
5,1,8,0,0,1.08239X$1,22.5*%
G01*
%ADD10R,1.500000X1.300000*%
%ADD11R,1.200000X1.200000*%
%ADD12R,1.500000X1.500000*%
%ADD13C,0.558800*%
%ADD14C,0.756400*%
%ADD15C,0.406400*%
%ADD16C,0.304800*%

G36*
X367911Y360163D02*
X367911Y360163D01*
X367931Y360161D01*
X368111Y360183D01*
X368291Y360201D01*
X368310Y360207D01*
X368331Y360209D01*
X368503Y360266D01*
X368676Y360319D01*
X368694Y360329D01*
X368713Y360335D01*
X368870Y360424D01*
X369030Y360511D01*
X369045Y360524D01*
X369063Y360534D01*
X369200Y360653D01*
X369339Y360768D01*
X369352Y360784D01*
X369367Y360798D01*
X369478Y360941D01*
X369591Y361082D01*
X369601Y361100D01*
X369613Y361117D01*
X369694Y361280D01*
X369777Y361439D01*
X369782Y361459D01*
X369792Y361478D01*
X369838Y361653D01*
X369888Y361826D01*
X369890Y361847D01*
X369895Y361867D01*
X369906Y362047D01*
X369921Y362228D01*
X369919Y362248D01*
X369920Y362269D01*
X369895Y362448D01*
X369874Y362627D01*
X369868Y362647D01*
X369865Y362668D01*
X369805Y362838D01*
X369749Y363010D01*
X369739Y363028D01*
X369732Y363048D01*
X369568Y363336D01*
X363405Y372377D01*
X359836Y383946D01*
X359836Y396054D01*
X363405Y407623D01*
X370225Y417627D01*
X379691Y425176D01*
X390962Y429599D01*
X403035Y430504D01*
X414839Y427810D01*
X425325Y421756D01*
X433560Y412881D01*
X438813Y401972D01*
X440618Y390000D01*
X438813Y378028D01*
X433560Y367119D01*
X430270Y363574D01*
X430166Y363436D01*
X430058Y363302D01*
X430045Y363276D01*
X430027Y363253D01*
X429952Y363098D01*
X429872Y362945D01*
X429864Y362917D01*
X429852Y362890D01*
X429809Y362723D01*
X429761Y362558D01*
X429759Y362529D01*
X429751Y362500D01*
X429742Y362328D01*
X429728Y362156D01*
X429732Y362127D01*
X429730Y362098D01*
X429755Y361928D01*
X429775Y361757D01*
X429784Y361729D01*
X429788Y361700D01*
X429846Y361538D01*
X429900Y361374D01*
X429914Y361348D01*
X429924Y361321D01*
X430013Y361174D01*
X430098Y361023D01*
X430117Y361001D01*
X430132Y360976D01*
X430248Y360849D01*
X430361Y360718D01*
X430384Y360701D01*
X430404Y360679D01*
X430543Y360577D01*
X430679Y360472D01*
X430705Y360459D01*
X430729Y360441D01*
X430885Y360369D01*
X431040Y360292D01*
X431068Y360285D01*
X431094Y360273D01*
X431262Y360233D01*
X431428Y360188D01*
X431461Y360185D01*
X431486Y360179D01*
X431571Y360176D01*
X431759Y360161D01*
X567890Y360161D01*
X567910Y360163D01*
X567931Y360161D01*
X568111Y360183D01*
X568291Y360201D01*
X568310Y360207D01*
X568331Y360209D01*
X568502Y360266D01*
X568675Y360319D01*
X568694Y360329D01*
X568713Y360335D01*
X568870Y360424D01*
X569030Y360511D01*
X569045Y360524D01*
X569063Y360534D01*
X569200Y360653D01*
X569339Y360768D01*
X569352Y360784D01*
X569367Y360798D01*
X569478Y360941D01*
X569591Y361082D01*
X569601Y361100D01*
X569613Y361117D01*
X569694Y361280D01*
X569777Y361439D01*
X569782Y361459D01*
X569792Y361478D01*
X569838Y361653D01*
X569888Y361826D01*
X569890Y361847D01*
X569895Y361867D01*
X569906Y362047D01*
X569921Y362228D01*
X569918Y362248D01*
X569920Y362269D01*
X569895Y362448D01*
X569874Y362627D01*
X569868Y362647D01*
X569865Y362668D01*
X569805Y362838D01*
X569749Y363010D01*
X569739Y363028D01*
X569732Y363048D01*
X569568Y363336D01*
X563405Y372377D01*
X559836Y383946D01*
X559836Y396054D01*
X563405Y407623D01*
X570225Y417627D01*
X579691Y425176D01*
X590962Y429599D01*
X603035Y430504D01*
X614839Y427810D01*
X625325Y421756D01*
X633560Y412881D01*
X638813Y401972D01*
X640618Y390000D01*
X638813Y378028D01*
X633560Y367119D01*
X630270Y363574D01*
X630166Y363436D01*
X630058Y363302D01*
X630045Y363276D01*
X630027Y363253D01*
X629952Y363097D01*
X629872Y362945D01*
X629864Y362917D01*
X629852Y362890D01*
X629809Y362723D01*
X629761Y362558D01*
X629759Y362529D01*
X629751Y362500D01*
X629742Y362328D01*
X629728Y362156D01*
X629732Y362127D01*
X629730Y362098D01*
X629755Y361927D01*
X629775Y361757D01*
X629784Y361729D01*
X629788Y361700D01*
X629846Y361538D01*
X629900Y361374D01*
X629914Y361348D01*
X629924Y361321D01*
X630013Y361174D01*
X630098Y361023D01*
X630117Y361001D01*
X630132Y360976D01*
X630248Y360849D01*
X630361Y360718D01*
X630384Y360701D01*
X630404Y360679D01*
X630543Y360577D01*
X630679Y360472D01*
X630705Y360459D01*
X630729Y360441D01*
X630885Y360369D01*
X631040Y360292D01*
X631068Y360285D01*
X631094Y360273D01*
X631262Y360233D01*
X631428Y360188D01*
X631461Y360185D01*
X631486Y360179D01*
X631571Y360176D01*
X631759Y360161D01*
X667890Y360161D01*
X667910Y360163D01*
X667931Y360161D01*
X668111Y360183D01*
X668291Y360201D01*
X668310Y360207D01*
X668331Y360209D01*
X668502Y360266D01*
X668675Y360319D01*
X668694Y360329D01*
X668713Y360335D01*
X668870Y360424D01*
X669030Y360511D01*
X669045Y360524D01*
X669063Y360534D01*
X669200Y360653D01*
X669339Y360768D01*
X669352Y360784D01*
X669367Y360798D01*
X669478Y360941D01*
X669591Y361082D01*
X669601Y361100D01*
X669613Y361117D01*
X669694Y361280D01*
X669777Y361439D01*
X669782Y361459D01*
X669792Y361478D01*
X669838Y361653D01*
X669888Y361826D01*
X669890Y361847D01*
X669895Y361867D01*
X669906Y362047D01*
X669921Y362228D01*
X669918Y362248D01*
X669920Y362269D01*
X669895Y362448D01*
X669874Y362627D01*
X669868Y362647D01*
X669865Y362668D01*
X669805Y362838D01*
X669749Y363010D01*
X669739Y363028D01*
X669732Y363048D01*
X669568Y363336D01*
X663405Y372377D01*
X659836Y383946D01*
X659836Y396054D01*
X663405Y407623D01*
X670225Y417627D01*
X679691Y425176D01*
X690962Y429599D01*
X703035Y430504D01*
X714839Y427810D01*
X725325Y421756D01*
X733560Y412881D01*
X735978Y407860D01*
X736056Y407733D01*
X736127Y407602D01*
X736160Y407561D01*
X736188Y407516D01*
X736289Y407407D01*
X736384Y407292D01*
X736425Y407259D01*
X736461Y407221D01*
X736582Y407133D01*
X736698Y407040D01*
X736745Y407016D01*
X736787Y406985D01*
X736923Y406923D01*
X737055Y406855D01*
X737106Y406840D01*
X737154Y406818D01*
X737299Y406784D01*
X737442Y406743D01*
X737495Y406739D01*
X737546Y406727D01*
X737695Y406722D01*
X737844Y406710D01*
X737896Y406716D01*
X737949Y406715D01*
X738095Y406740D01*
X738243Y406757D01*
X738293Y406774D01*
X738345Y406782D01*
X738485Y406836D01*
X738626Y406882D01*
X738672Y406908D01*
X738721Y406927D01*
X738847Y407007D01*
X738977Y407080D01*
X739017Y407114D01*
X739061Y407143D01*
X739169Y407246D01*
X739282Y407343D01*
X739314Y407385D01*
X739352Y407421D01*
X739437Y407543D01*
X739528Y407661D01*
X739552Y407708D01*
X739582Y407752D01*
X739641Y407888D01*
X739708Y408022D01*
X739721Y408073D01*
X739742Y408121D01*
X739773Y408267D01*
X739812Y408411D01*
X739817Y408470D01*
X739827Y408515D01*
X739828Y408599D01*
X739839Y408741D01*
X739839Y432021D01*
X741386Y435756D01*
X744244Y438614D01*
X747979Y440161D01*
X876926Y440161D01*
X877059Y440174D01*
X877193Y440178D01*
X877259Y440194D01*
X877327Y440201D01*
X877455Y440240D01*
X877585Y440271D01*
X877657Y440302D01*
X877712Y440319D01*
X877780Y440356D01*
X877889Y440404D01*
X998771Y505494D01*
X998871Y505561D01*
X998977Y505621D01*
X999038Y505674D01*
X999105Y505719D01*
X999190Y505805D01*
X999282Y505884D01*
X999331Y505948D01*
X999388Y506005D01*
X999454Y506106D01*
X999528Y506202D01*
X999564Y506275D01*
X999609Y506342D01*
X999654Y506454D01*
X999708Y506563D01*
X999729Y506641D01*
X999759Y506716D01*
X999781Y506835D01*
X999812Y506951D01*
X999820Y507046D01*
X999832Y507111D01*
X999831Y507182D01*
X999839Y507282D01*
X999839Y597808D01*
X999837Y597826D01*
X999839Y597844D01*
X999818Y598026D01*
X999799Y598209D01*
X999794Y598226D01*
X999792Y598243D01*
X999735Y598418D01*
X999681Y598594D01*
X999673Y598609D01*
X999667Y598626D01*
X999577Y598786D01*
X999489Y598948D01*
X999478Y598961D01*
X999469Y598977D01*
X999349Y599116D01*
X999232Y599257D01*
X999218Y599268D01*
X999206Y599282D01*
X999061Y599394D01*
X998918Y599509D01*
X998902Y599517D01*
X998888Y599528D01*
X998723Y599610D01*
X998561Y599695D01*
X998544Y599700D01*
X998528Y599708D01*
X998349Y599755D01*
X998174Y599806D01*
X998156Y599808D01*
X998139Y599812D01*
X997808Y599839D01*
X2192Y599839D01*
X2174Y599837D01*
X2156Y599839D01*
X1974Y599818D01*
X1791Y599799D01*
X1774Y599794D01*
X1757Y599792D01*
X1582Y599735D01*
X1406Y599681D01*
X1391Y599673D01*
X1374Y599667D01*
X1214Y599577D01*
X1052Y599489D01*
X1039Y599478D01*
X1023Y599469D01*
X884Y599349D01*
X743Y599232D01*
X732Y599218D01*
X718Y599206D01*
X606Y599061D01*
X491Y598918D01*
X483Y598902D01*
X472Y598888D01*
X390Y598723D01*
X305Y598561D01*
X300Y598544D01*
X292Y598528D01*
X245Y598349D01*
X194Y598174D01*
X192Y598156D01*
X188Y598139D01*
X161Y597808D01*
X161Y507282D01*
X173Y507162D01*
X175Y507041D01*
X193Y506962D01*
X201Y506882D01*
X236Y506766D01*
X262Y506648D01*
X295Y506574D01*
X319Y506497D01*
X376Y506390D01*
X425Y506280D01*
X472Y506214D01*
X511Y506143D01*
X588Y506050D01*
X658Y505951D01*
X717Y505895D01*
X768Y505833D01*
X863Y505758D01*
X951Y505674D01*
X1030Y505623D01*
X1082Y505581D01*
X1144Y505549D01*
X1229Y505494D01*
X122111Y440404D01*
X122234Y440352D01*
X122354Y440292D01*
X122420Y440275D01*
X122482Y440249D01*
X122613Y440223D01*
X122743Y440188D01*
X122821Y440181D01*
X122877Y440170D01*
X122955Y440170D01*
X123074Y440161D01*
X252021Y440161D01*
X255756Y438614D01*
X258614Y435756D01*
X260161Y432021D01*
X260161Y409451D01*
X260180Y409258D01*
X260200Y409056D01*
X260200Y409053D01*
X260201Y409050D01*
X260257Y408865D01*
X260317Y408670D01*
X260318Y408668D01*
X260319Y408665D01*
X260411Y408494D01*
X260507Y408316D01*
X260509Y408313D01*
X260511Y408311D01*
X260638Y408158D01*
X260764Y408006D01*
X260766Y408004D01*
X260768Y408002D01*
X260923Y407877D01*
X261077Y407753D01*
X261080Y407751D01*
X261082Y407749D01*
X261257Y407658D01*
X261434Y407566D01*
X261437Y407565D01*
X261439Y407564D01*
X261629Y407509D01*
X261821Y407454D01*
X261824Y407453D01*
X261826Y407453D01*
X262025Y407436D01*
X262222Y407420D01*
X262225Y407420D01*
X262228Y407420D01*
X262421Y407442D01*
X262622Y407465D01*
X262625Y407466D01*
X262627Y407467D01*
X262816Y407528D01*
X263005Y407589D01*
X263007Y407591D01*
X263010Y407591D01*
X263186Y407691D01*
X263356Y407786D01*
X263358Y407788D01*
X263361Y407789D01*
X263507Y407916D01*
X263662Y408048D01*
X263664Y408051D01*
X263665Y408052D01*
X263679Y408070D01*
X263870Y408306D01*
X270225Y417627D01*
X279691Y425176D01*
X290962Y429599D01*
X303035Y430504D01*
X314839Y427810D01*
X325325Y421756D01*
X333560Y412881D01*
X338813Y401972D01*
X340618Y390000D01*
X338813Y378028D01*
X333560Y367119D01*
X330270Y363574D01*
X330166Y363436D01*
X330058Y363302D01*
X330045Y363276D01*
X330027Y363253D01*
X329952Y363098D01*
X329872Y362945D01*
X329864Y362917D01*
X329852Y362890D01*
X329809Y362723D01*
X329761Y362558D01*
X329759Y362529D01*
X329751Y362500D01*
X329742Y362328D01*
X329728Y362156D01*
X329732Y362127D01*
X329730Y362098D01*
X329755Y361928D01*
X329775Y361757D01*
X329784Y361729D01*
X329788Y361700D01*
X329846Y361538D01*
X329900Y361374D01*
X329914Y361348D01*
X329924Y361321D01*
X330013Y361174D01*
X330098Y361023D01*
X330117Y361001D01*
X330132Y360976D01*
X330248Y360849D01*
X330361Y360718D01*
X330384Y360701D01*
X330404Y360679D01*
X330543Y360577D01*
X330679Y360472D01*
X330705Y360459D01*
X330729Y360441D01*
X330885Y360369D01*
X331040Y360292D01*
X331068Y360285D01*
X331094Y360273D01*
X331262Y360233D01*
X331428Y360188D01*
X331461Y360185D01*
X331486Y360179D01*
X331571Y360176D01*
X331759Y360161D01*
X367890Y360161D01*
X367911Y360163D01*
G37*
%LPC*%
G36*
X547584Y512853D02*
X547584Y512853D01*
X545634Y513661D01*
X544141Y515154D01*
X543333Y517104D01*
X543333Y519216D01*
X544141Y521166D01*
X545634Y522659D01*
X547646Y523492D01*
X547673Y523507D01*
X547703Y523517D01*
X547851Y523602D01*
X548001Y523682D01*
X548025Y523702D01*
X548052Y523718D01*
X548305Y523933D01*
X549033Y524661D01*
X550380Y526008D01*
X550397Y526029D01*
X550418Y526046D01*
X550525Y526184D01*
X550635Y526319D01*
X550648Y526343D01*
X550664Y526364D01*
X550742Y526521D01*
X550824Y526675D01*
X550832Y526701D01*
X550844Y526725D01*
X550889Y526894D01*
X550939Y527061D01*
X550941Y527088D01*
X550948Y527114D01*
X550975Y527444D01*
X550975Y530632D01*
X552375Y532032D01*
X552381Y532039D01*
X552388Y532044D01*
X552508Y532194D01*
X552630Y532343D01*
X552635Y532351D01*
X552640Y532358D01*
X552729Y532528D01*
X552819Y532699D01*
X552822Y532708D01*
X552826Y532715D01*
X552879Y532900D01*
X552934Y533085D01*
X552935Y533094D01*
X552937Y533102D01*
X552953Y533293D01*
X552970Y533486D01*
X552969Y533495D01*
X552970Y533504D01*
X552948Y533693D01*
X552927Y533886D01*
X552924Y533895D01*
X552923Y533903D01*
X552864Y534085D01*
X552805Y534270D01*
X552801Y534278D01*
X552798Y534286D01*
X552704Y534453D01*
X552611Y534622D01*
X552605Y534629D01*
X552600Y534637D01*
X552475Y534782D01*
X552350Y534929D01*
X552343Y534935D01*
X552337Y534942D01*
X552187Y535058D01*
X552034Y535179D01*
X552026Y535183D01*
X552019Y535188D01*
X551848Y535274D01*
X551675Y535361D01*
X551667Y535364D01*
X551659Y535368D01*
X551473Y535418D01*
X551287Y535469D01*
X551278Y535470D01*
X551270Y535472D01*
X550939Y535499D01*
X540572Y535499D01*
X540554Y535497D01*
X540536Y535499D01*
X540354Y535478D01*
X540171Y535459D01*
X540154Y535454D01*
X540137Y535452D01*
X539962Y535395D01*
X539786Y535341D01*
X539771Y535333D01*
X539754Y535327D01*
X539594Y535237D01*
X539432Y535149D01*
X539419Y535138D01*
X539403Y535129D01*
X539264Y535009D01*
X539123Y534892D01*
X539112Y534878D01*
X539098Y534866D01*
X538986Y534721D01*
X538871Y534578D01*
X538863Y534562D01*
X538852Y534548D01*
X538770Y534383D01*
X538685Y534221D01*
X538680Y534204D01*
X538672Y534188D01*
X538625Y534009D01*
X538574Y533834D01*
X538572Y533816D01*
X538568Y533799D01*
X538541Y533468D01*
X538541Y532499D01*
X530968Y532499D01*
X530950Y532497D01*
X530933Y532499D01*
X530750Y532478D01*
X530568Y532459D01*
X530551Y532454D01*
X530533Y532452D01*
X530358Y532395D01*
X530183Y532341D01*
X530167Y532333D01*
X530150Y532327D01*
X530001Y532243D01*
X529947Y532270D01*
X529784Y532355D01*
X529767Y532360D01*
X529751Y532368D01*
X529573Y532415D01*
X529398Y532466D01*
X529380Y532468D01*
X529363Y532472D01*
X529032Y532499D01*
X521459Y532499D01*
X521459Y533468D01*
X521457Y533486D01*
X521459Y533504D01*
X521438Y533686D01*
X521419Y533869D01*
X521414Y533886D01*
X521412Y533903D01*
X521355Y534078D01*
X521301Y534254D01*
X521293Y534269D01*
X521287Y534286D01*
X521197Y534446D01*
X521109Y534608D01*
X521098Y534621D01*
X521089Y534637D01*
X520969Y534776D01*
X520852Y534917D01*
X520838Y534928D01*
X520826Y534942D01*
X520681Y535054D01*
X520538Y535169D01*
X520522Y535177D01*
X520508Y535188D01*
X520343Y535270D01*
X520181Y535355D01*
X520164Y535360D01*
X520148Y535368D01*
X519969Y535415D01*
X519794Y535466D01*
X519776Y535468D01*
X519759Y535472D01*
X519428Y535499D01*
X509061Y535499D01*
X509052Y535498D01*
X509043Y535499D01*
X508851Y535478D01*
X508660Y535459D01*
X508652Y535457D01*
X508643Y535456D01*
X508461Y535398D01*
X508275Y535341D01*
X508267Y535337D01*
X508259Y535334D01*
X508091Y535241D01*
X507921Y535149D01*
X507915Y535144D01*
X507907Y535139D01*
X507759Y535014D01*
X507612Y534892D01*
X507607Y534885D01*
X507600Y534879D01*
X507480Y534727D01*
X507360Y534578D01*
X507356Y534570D01*
X507350Y534563D01*
X507263Y534391D01*
X507174Y534221D01*
X507172Y534212D01*
X507168Y534204D01*
X507116Y534018D01*
X507063Y533834D01*
X507062Y533825D01*
X507060Y533816D01*
X507046Y533624D01*
X507030Y533432D01*
X507031Y533424D01*
X507030Y533415D01*
X507055Y533222D01*
X507077Y533033D01*
X507080Y533024D01*
X507081Y533015D01*
X507142Y532832D01*
X507202Y532650D01*
X507206Y532642D01*
X507209Y532634D01*
X507305Y532467D01*
X507400Y532299D01*
X507405Y532292D01*
X507410Y532285D01*
X507625Y532032D01*
X509025Y530632D01*
X509025Y514368D01*
X508132Y513475D01*
X491868Y513475D01*
X490975Y514368D01*
X490975Y530632D01*
X492375Y532032D01*
X492381Y532039D01*
X492388Y532044D01*
X492508Y532194D01*
X492630Y532343D01*
X492635Y532351D01*
X492640Y532358D01*
X492729Y532528D01*
X492819Y532699D01*
X492822Y532708D01*
X492826Y532715D01*
X492879Y532900D01*
X492934Y533085D01*
X492935Y533094D01*
X492937Y533102D01*
X492953Y533293D01*
X492970Y533486D01*
X492969Y533495D01*
X492970Y533504D01*
X492948Y533693D01*
X492927Y533886D01*
X492924Y533895D01*
X492923Y533903D01*
X492864Y534085D01*
X492805Y534270D01*
X492801Y534278D01*
X492798Y534286D01*
X492704Y534453D01*
X492611Y534622D01*
X492605Y534629D01*
X492600Y534637D01*
X492475Y534782D01*
X492350Y534929D01*
X492343Y534935D01*
X492337Y534942D01*
X492187Y535058D01*
X492034Y535179D01*
X492026Y535183D01*
X492019Y535188D01*
X491848Y535274D01*
X491675Y535361D01*
X491667Y535364D01*
X491659Y535368D01*
X491473Y535418D01*
X491287Y535469D01*
X491278Y535470D01*
X491270Y535472D01*
X490939Y535499D01*
X480572Y535499D01*
X480554Y535497D01*
X480536Y535499D01*
X480354Y535478D01*
X480171Y535459D01*
X480154Y535454D01*
X480137Y535452D01*
X479962Y535395D01*
X479786Y535341D01*
X479771Y535333D01*
X479754Y535327D01*
X479594Y535237D01*
X479432Y535149D01*
X479419Y535138D01*
X479403Y535129D01*
X479264Y535009D01*
X479123Y534892D01*
X479112Y534878D01*
X479098Y534866D01*
X478986Y534721D01*
X478871Y534578D01*
X478863Y534562D01*
X478852Y534548D01*
X478770Y534383D01*
X478685Y534221D01*
X478680Y534204D01*
X478672Y534188D01*
X478625Y534009D01*
X478574Y533834D01*
X478572Y533816D01*
X478568Y533799D01*
X478541Y533468D01*
X478541Y532499D01*
X470968Y532499D01*
X470950Y532497D01*
X470933Y532499D01*
X470750Y532478D01*
X470568Y532459D01*
X470551Y532454D01*
X470533Y532452D01*
X470358Y532395D01*
X470183Y532341D01*
X470167Y532333D01*
X470150Y532327D01*
X470001Y532243D01*
X469947Y532270D01*
X469784Y532355D01*
X469767Y532360D01*
X469751Y532368D01*
X469573Y532415D01*
X469398Y532466D01*
X469380Y532468D01*
X469363Y532472D01*
X469032Y532499D01*
X461459Y532499D01*
X461459Y533468D01*
X461457Y533486D01*
X461459Y533504D01*
X461438Y533686D01*
X461419Y533869D01*
X461414Y533886D01*
X461412Y533903D01*
X461355Y534078D01*
X461301Y534254D01*
X461293Y534269D01*
X461287Y534286D01*
X461197Y534446D01*
X461109Y534608D01*
X461098Y534621D01*
X461089Y534637D01*
X460969Y534776D01*
X460852Y534917D01*
X460838Y534928D01*
X460826Y534942D01*
X460681Y535054D01*
X460538Y535169D01*
X460522Y535177D01*
X460508Y535188D01*
X460343Y535270D01*
X460181Y535355D01*
X460164Y535360D01*
X460148Y535368D01*
X459969Y535415D01*
X459794Y535466D01*
X459776Y535468D01*
X459759Y535472D01*
X459428Y535499D01*
X449061Y535499D01*
X449052Y535498D01*
X449043Y535499D01*
X448851Y535478D01*
X448660Y535459D01*
X448652Y535457D01*
X448643Y535456D01*
X448461Y535398D01*
X448275Y535341D01*
X448267Y535337D01*
X448259Y535334D01*
X448091Y535241D01*
X447921Y535149D01*
X447915Y535144D01*
X447907Y535139D01*
X447759Y535014D01*
X447612Y534892D01*
X447607Y534885D01*
X447600Y534879D01*
X447480Y534727D01*
X447360Y534578D01*
X447356Y534570D01*
X447350Y534563D01*
X447263Y534391D01*
X447174Y534221D01*
X447172Y534212D01*
X447168Y534204D01*
X447116Y534018D01*
X447063Y533834D01*
X447062Y533825D01*
X447060Y533816D01*
X447046Y533624D01*
X447030Y533432D01*
X447031Y533424D01*
X447030Y533415D01*
X447055Y533222D01*
X447077Y533033D01*
X447080Y533024D01*
X447081Y533015D01*
X447142Y532832D01*
X447202Y532650D01*
X447206Y532642D01*
X447209Y532634D01*
X447305Y532467D01*
X447400Y532299D01*
X447405Y532292D01*
X447410Y532285D01*
X447625Y532032D01*
X449025Y530632D01*
X449025Y514368D01*
X448132Y513475D01*
X431868Y513475D01*
X430975Y514368D01*
X430975Y530632D01*
X432375Y532032D01*
X432381Y532039D01*
X432388Y532044D01*
X432508Y532194D01*
X432630Y532343D01*
X432635Y532351D01*
X432640Y532358D01*
X432729Y532528D01*
X432819Y532699D01*
X432822Y532708D01*
X432826Y532715D01*
X432879Y532900D01*
X432934Y533085D01*
X432935Y533094D01*
X432937Y533102D01*
X432953Y533293D01*
X432970Y533486D01*
X432969Y533495D01*
X432970Y533504D01*
X432948Y533693D01*
X432927Y533886D01*
X432924Y533895D01*
X432923Y533903D01*
X432864Y534085D01*
X432805Y534270D01*
X432801Y534278D01*
X432798Y534286D01*
X432704Y534453D01*
X432611Y534622D01*
X432605Y534629D01*
X432600Y534637D01*
X432475Y534782D01*
X432350Y534929D01*
X432343Y534935D01*
X432337Y534942D01*
X432187Y535058D01*
X432034Y535179D01*
X432026Y535183D01*
X432019Y535188D01*
X431848Y535274D01*
X431675Y535361D01*
X431667Y535364D01*
X431659Y535368D01*
X431473Y535418D01*
X431287Y535469D01*
X431278Y535470D01*
X431270Y535472D01*
X430939Y535499D01*
X420572Y535499D01*
X420554Y535497D01*
X420536Y535499D01*
X420354Y535478D01*
X420171Y535459D01*
X420154Y535454D01*
X420137Y535452D01*
X419962Y535395D01*
X419786Y535341D01*
X419771Y535333D01*
X419754Y535327D01*
X419594Y535237D01*
X419432Y535149D01*
X419419Y535138D01*
X419403Y535129D01*
X419264Y535009D01*
X419123Y534892D01*
X419112Y534878D01*
X419098Y534866D01*
X418986Y534721D01*
X418871Y534578D01*
X418863Y534562D01*
X418852Y534548D01*
X418770Y534383D01*
X418685Y534221D01*
X418680Y534204D01*
X418672Y534188D01*
X418625Y534009D01*
X418574Y533834D01*
X418572Y533816D01*
X418568Y533799D01*
X418541Y533468D01*
X418541Y532499D01*
X410968Y532499D01*
X410950Y532497D01*
X410933Y532499D01*
X410750Y532478D01*
X410568Y532459D01*
X410551Y532454D01*
X410533Y532452D01*
X410358Y532395D01*
X410183Y532341D01*
X410167Y532333D01*
X410150Y532327D01*
X410001Y532243D01*
X409947Y532270D01*
X409784Y532355D01*
X409767Y532360D01*
X409751Y532368D01*
X409573Y532415D01*
X409398Y532466D01*
X409380Y532468D01*
X409363Y532472D01*
X409032Y532499D01*
X401459Y532499D01*
X401459Y533468D01*
X401457Y533486D01*
X401459Y533504D01*
X401438Y533686D01*
X401419Y533869D01*
X401414Y533886D01*
X401412Y533903D01*
X401355Y534078D01*
X401301Y534254D01*
X401293Y534269D01*
X401287Y534286D01*
X401197Y534446D01*
X401109Y534608D01*
X401098Y534621D01*
X401089Y534637D01*
X400969Y534776D01*
X400852Y534917D01*
X400838Y534928D01*
X400826Y534942D01*
X400681Y535054D01*
X400538Y535169D01*
X400522Y535177D01*
X400508Y535188D01*
X400343Y535270D01*
X400181Y535355D01*
X400164Y535360D01*
X400148Y535368D01*
X399969Y535415D01*
X399794Y535466D01*
X399776Y535468D01*
X399759Y535472D01*
X399428Y535499D01*
X389061Y535499D01*
X389052Y535498D01*
X389043Y535499D01*
X388851Y535478D01*
X388660Y535459D01*
X388652Y535457D01*
X388643Y535456D01*
X388461Y535398D01*
X388275Y535341D01*
X388267Y535337D01*
X388259Y535334D01*
X388091Y535241D01*
X387921Y535149D01*
X387915Y535144D01*
X387907Y535139D01*
X387759Y535014D01*
X387612Y534892D01*
X387607Y534885D01*
X387600Y534879D01*
X387480Y534727D01*
X387360Y534578D01*
X387356Y534570D01*
X387350Y534563D01*
X387263Y534391D01*
X387174Y534221D01*
X387172Y534212D01*
X387168Y534204D01*
X387116Y534018D01*
X387063Y533834D01*
X387062Y533825D01*
X387060Y533816D01*
X387046Y533624D01*
X387030Y533432D01*
X387031Y533424D01*
X387030Y533415D01*
X387055Y533222D01*
X387077Y533033D01*
X387080Y533024D01*
X387081Y533015D01*
X387142Y532832D01*
X387202Y532650D01*
X387206Y532642D01*
X387209Y532634D01*
X387305Y532467D01*
X387400Y532299D01*
X387405Y532292D01*
X387410Y532285D01*
X387625Y532032D01*
X389025Y530632D01*
X389025Y514368D01*
X388132Y513475D01*
X371868Y513475D01*
X370975Y514368D01*
X370975Y530632D01*
X372375Y532032D01*
X372381Y532039D01*
X372388Y532044D01*
X372508Y532194D01*
X372630Y532343D01*
X372635Y532351D01*
X372640Y532358D01*
X372729Y532528D01*
X372819Y532699D01*
X372822Y532708D01*
X372826Y532715D01*
X372879Y532900D01*
X372934Y533085D01*
X372935Y533094D01*
X372937Y533102D01*
X372953Y533293D01*
X372970Y533486D01*
X372969Y533495D01*
X372970Y533504D01*
X372948Y533693D01*
X372927Y533886D01*
X372924Y533895D01*
X372923Y533903D01*
X372864Y534085D01*
X372805Y534270D01*
X372801Y534278D01*
X372798Y534286D01*
X372704Y534453D01*
X372611Y534622D01*
X372605Y534629D01*
X372600Y534637D01*
X372475Y534782D01*
X372350Y534929D01*
X372343Y534935D01*
X372337Y534942D01*
X372187Y535058D01*
X372034Y535179D01*
X372026Y535183D01*
X372019Y535188D01*
X371848Y535274D01*
X371675Y535361D01*
X371667Y535364D01*
X371659Y535368D01*
X371473Y535418D01*
X371287Y535469D01*
X371278Y535470D01*
X371270Y535472D01*
X370939Y535499D01*
X360572Y535499D01*
X360554Y535497D01*
X360536Y535499D01*
X360354Y535478D01*
X360171Y535459D01*
X360154Y535454D01*
X360137Y535452D01*
X359962Y535395D01*
X359786Y535341D01*
X359771Y535333D01*
X359754Y535327D01*
X359594Y535237D01*
X359432Y535149D01*
X359419Y535138D01*
X359403Y535129D01*
X359264Y535009D01*
X359123Y534892D01*
X359112Y534878D01*
X359098Y534866D01*
X358986Y534721D01*
X358871Y534578D01*
X358863Y534562D01*
X358852Y534548D01*
X358770Y534383D01*
X358685Y534221D01*
X358680Y534204D01*
X358672Y534188D01*
X358625Y534009D01*
X358574Y533834D01*
X358572Y533816D01*
X358568Y533799D01*
X358541Y533468D01*
X358541Y532499D01*
X350968Y532499D01*
X350950Y532497D01*
X350933Y532499D01*
X350750Y532478D01*
X350568Y532459D01*
X350551Y532454D01*
X350533Y532452D01*
X350358Y532395D01*
X350183Y532341D01*
X350167Y532333D01*
X350150Y532327D01*
X350001Y532243D01*
X349947Y532270D01*
X349784Y532355D01*
X349767Y532360D01*
X349751Y532368D01*
X349573Y532415D01*
X349398Y532466D01*
X349380Y532468D01*
X349363Y532472D01*
X349032Y532499D01*
X341459Y532499D01*
X341459Y533468D01*
X341457Y533486D01*
X341459Y533504D01*
X341438Y533686D01*
X341419Y533869D01*
X341414Y533886D01*
X341412Y533903D01*
X341355Y534078D01*
X341301Y534254D01*
X341293Y534269D01*
X341287Y534286D01*
X341197Y534446D01*
X341109Y534608D01*
X341098Y534621D01*
X341089Y534637D01*
X340969Y534776D01*
X340852Y534917D01*
X340838Y534928D01*
X340826Y534942D01*
X340681Y535054D01*
X340538Y535169D01*
X340522Y535177D01*
X340508Y535188D01*
X340343Y535270D01*
X340181Y535355D01*
X340164Y535360D01*
X340148Y535368D01*
X339969Y535415D01*
X339794Y535466D01*
X339776Y535468D01*
X339759Y535472D01*
X339428Y535499D01*
X329061Y535499D01*
X329052Y535498D01*
X329043Y535499D01*
X328851Y535478D01*
X328660Y535459D01*
X328652Y535457D01*
X328643Y535456D01*
X328461Y535398D01*
X328275Y535341D01*
X328267Y535337D01*
X328259Y535334D01*
X328091Y535241D01*
X327921Y535149D01*
X327915Y535144D01*
X327907Y535139D01*
X327759Y535014D01*
X327612Y534892D01*
X327607Y534885D01*
X327600Y534879D01*
X327480Y534727D01*
X327360Y534578D01*
X327356Y534570D01*
X327350Y534563D01*
X327263Y534391D01*
X327174Y534221D01*
X327172Y534212D01*
X327168Y534204D01*
X327116Y534018D01*
X327063Y533834D01*
X327062Y533825D01*
X327060Y533816D01*
X327046Y533624D01*
X327030Y533432D01*
X327031Y533424D01*
X327030Y533415D01*
X327055Y533222D01*
X327077Y533033D01*
X327080Y533024D01*
X327081Y533015D01*
X327142Y532832D01*
X327202Y532650D01*
X327206Y532642D01*
X327209Y532634D01*
X327305Y532467D01*
X327400Y532299D01*
X327405Y532292D01*
X327410Y532285D01*
X327625Y532032D01*
X329025Y530632D01*
X329025Y514368D01*
X328132Y513475D01*
X311868Y513475D01*
X310975Y514368D01*
X310975Y530632D01*
X312375Y532032D01*
X312381Y532039D01*
X312388Y532044D01*
X312508Y532194D01*
X312630Y532343D01*
X312635Y532351D01*
X312640Y532358D01*
X312729Y532528D01*
X312819Y532699D01*
X312822Y532708D01*
X312826Y532715D01*
X312879Y532900D01*
X312934Y533085D01*
X312935Y533094D01*
X312937Y533102D01*
X312953Y533293D01*
X312970Y533486D01*
X312969Y533495D01*
X312970Y533504D01*
X312948Y533693D01*
X312927Y533886D01*
X312924Y533895D01*
X312923Y533903D01*
X312864Y534085D01*
X312805Y534270D01*
X312801Y534278D01*
X312798Y534286D01*
X312704Y534453D01*
X312611Y534622D01*
X312605Y534629D01*
X312600Y534637D01*
X312475Y534782D01*
X312350Y534929D01*
X312343Y534935D01*
X312337Y534942D01*
X312187Y535058D01*
X312034Y535179D01*
X312026Y535183D01*
X312019Y535188D01*
X311848Y535274D01*
X311675Y535361D01*
X311667Y535364D01*
X311659Y535368D01*
X311473Y535418D01*
X311287Y535469D01*
X311278Y535470D01*
X311270Y535472D01*
X310939Y535499D01*
X300572Y535499D01*
X300554Y535497D01*
X300536Y535499D01*
X300354Y535478D01*
X300171Y535459D01*
X300154Y535454D01*
X300137Y535452D01*
X299962Y535395D01*
X299786Y535341D01*
X299771Y535333D01*
X299754Y535327D01*
X299594Y535237D01*
X299432Y535149D01*
X299419Y535138D01*
X299403Y535129D01*
X299264Y535009D01*
X299123Y534892D01*
X299112Y534878D01*
X299098Y534866D01*
X298986Y534721D01*
X298871Y534578D01*
X298863Y534562D01*
X298852Y534548D01*
X298770Y534383D01*
X298685Y534221D01*
X298680Y534204D01*
X298672Y534188D01*
X298625Y534009D01*
X298574Y533834D01*
X298572Y533816D01*
X298568Y533799D01*
X298541Y533468D01*
X298541Y532499D01*
X290968Y532499D01*
X290950Y532497D01*
X290933Y532499D01*
X290750Y532478D01*
X290568Y532459D01*
X290551Y532454D01*
X290533Y532452D01*
X290358Y532395D01*
X290183Y532341D01*
X290167Y532333D01*
X290150Y532327D01*
X290001Y532243D01*
X289947Y532270D01*
X289784Y532355D01*
X289767Y532360D01*
X289751Y532368D01*
X289573Y532415D01*
X289398Y532466D01*
X289380Y532468D01*
X289363Y532472D01*
X289032Y532499D01*
X281459Y532499D01*
X281459Y533468D01*
X281457Y533486D01*
X281459Y533504D01*
X281438Y533686D01*
X281419Y533869D01*
X281414Y533886D01*
X281412Y533903D01*
X281355Y534078D01*
X281301Y534254D01*
X281293Y534269D01*
X281287Y534286D01*
X281197Y534446D01*
X281109Y534608D01*
X281098Y534621D01*
X281089Y534637D01*
X280969Y534776D01*
X280852Y534917D01*
X280838Y534928D01*
X280826Y534942D01*
X280681Y535054D01*
X280538Y535169D01*
X280522Y535177D01*
X280508Y535188D01*
X280343Y535270D01*
X280181Y535355D01*
X280164Y535360D01*
X280148Y535368D01*
X279969Y535415D01*
X279794Y535466D01*
X279776Y535468D01*
X279759Y535472D01*
X279428Y535499D01*
X269061Y535499D01*
X269052Y535498D01*
X269043Y535499D01*
X268851Y535478D01*
X268660Y535459D01*
X268652Y535457D01*
X268643Y535456D01*
X268461Y535398D01*
X268275Y535341D01*
X268267Y535337D01*
X268259Y535334D01*
X268091Y535241D01*
X267921Y535149D01*
X267915Y535144D01*
X267907Y535139D01*
X267759Y535014D01*
X267612Y534892D01*
X267607Y534885D01*
X267600Y534879D01*
X267480Y534727D01*
X267360Y534578D01*
X267356Y534570D01*
X267350Y534563D01*
X267263Y534391D01*
X267174Y534221D01*
X267172Y534212D01*
X267168Y534204D01*
X267116Y534018D01*
X267063Y533834D01*
X267062Y533825D01*
X267060Y533816D01*
X267046Y533624D01*
X267030Y533432D01*
X267031Y533424D01*
X267030Y533415D01*
X267055Y533222D01*
X267077Y533033D01*
X267080Y533024D01*
X267081Y533015D01*
X267142Y532832D01*
X267202Y532650D01*
X267206Y532642D01*
X267209Y532634D01*
X267305Y532467D01*
X267400Y532299D01*
X267405Y532292D01*
X267410Y532285D01*
X267625Y532032D01*
X269025Y530632D01*
X269025Y514368D01*
X268132Y513475D01*
X251868Y513475D01*
X250975Y514368D01*
X250975Y530632D01*
X252375Y532032D01*
X252381Y532039D01*
X252388Y532044D01*
X252508Y532194D01*
X252630Y532343D01*
X252635Y532351D01*
X252640Y532358D01*
X252729Y532528D01*
X252819Y532699D01*
X252822Y532708D01*
X252826Y532715D01*
X252879Y532900D01*
X252934Y533085D01*
X252935Y533094D01*
X252937Y533102D01*
X252953Y533293D01*
X252970Y533486D01*
X252969Y533495D01*
X252970Y533504D01*
X252948Y533693D01*
X252927Y533886D01*
X252924Y533895D01*
X252923Y533903D01*
X252864Y534085D01*
X252805Y534270D01*
X252801Y534278D01*
X252798Y534286D01*
X252704Y534453D01*
X252611Y534622D01*
X252605Y534629D01*
X252600Y534637D01*
X252475Y534782D01*
X252350Y534929D01*
X252343Y534935D01*
X252337Y534942D01*
X252187Y535058D01*
X252034Y535179D01*
X252026Y535183D01*
X252019Y535188D01*
X251848Y535274D01*
X251675Y535361D01*
X251667Y535364D01*
X251659Y535368D01*
X251473Y535418D01*
X251287Y535469D01*
X251278Y535470D01*
X251270Y535472D01*
X250939Y535499D01*
X240572Y535499D01*
X240554Y535497D01*
X240536Y535499D01*
X240354Y535478D01*
X240171Y535459D01*
X240154Y535454D01*
X240137Y535452D01*
X239962Y535395D01*
X239786Y535341D01*
X239771Y535333D01*
X239754Y535327D01*
X239594Y535237D01*
X239432Y535149D01*
X239419Y535138D01*
X239403Y535129D01*
X239264Y535009D01*
X239123Y534892D01*
X239112Y534878D01*
X239098Y534866D01*
X238986Y534721D01*
X238871Y534578D01*
X238863Y534562D01*
X238852Y534548D01*
X238770Y534383D01*
X238685Y534221D01*
X238680Y534204D01*
X238672Y534188D01*
X238625Y534009D01*
X238574Y533834D01*
X238572Y533816D01*
X238568Y533799D01*
X238541Y533468D01*
X238541Y532499D01*
X230968Y532499D01*
X230950Y532497D01*
X230933Y532499D01*
X230750Y532478D01*
X230568Y532459D01*
X230551Y532454D01*
X230533Y532452D01*
X230358Y532395D01*
X230183Y532341D01*
X230167Y532333D01*
X230150Y532327D01*
X230001Y532243D01*
X229947Y532270D01*
X229784Y532355D01*
X229767Y532360D01*
X229751Y532368D01*
X229573Y532415D01*
X229398Y532466D01*
X229380Y532468D01*
X229363Y532472D01*
X229032Y532499D01*
X221459Y532499D01*
X221459Y533468D01*
X221457Y533486D01*
X221459Y533504D01*
X221438Y533686D01*
X221419Y533869D01*
X221414Y533886D01*
X221412Y533903D01*
X221355Y534078D01*
X221301Y534254D01*
X221293Y534269D01*
X221287Y534286D01*
X221197Y534446D01*
X221109Y534608D01*
X221098Y534621D01*
X221089Y534637D01*
X220969Y534776D01*
X220852Y534917D01*
X220838Y534928D01*
X220826Y534942D01*
X220681Y535054D01*
X220538Y535169D01*
X220522Y535177D01*
X220508Y535188D01*
X220343Y535270D01*
X220181Y535355D01*
X220164Y535360D01*
X220148Y535368D01*
X219969Y535415D01*
X219794Y535466D01*
X219776Y535468D01*
X219759Y535472D01*
X219428Y535499D01*
X209061Y535499D01*
X209052Y535498D01*
X209043Y535499D01*
X208851Y535478D01*
X208660Y535459D01*
X208652Y535457D01*
X208643Y535456D01*
X208461Y535398D01*
X208275Y535341D01*
X208267Y535337D01*
X208259Y535334D01*
X208091Y535241D01*
X207921Y535149D01*
X207915Y535144D01*
X207907Y535139D01*
X207759Y535014D01*
X207612Y534892D01*
X207607Y534885D01*
X207600Y534879D01*
X207480Y534727D01*
X207360Y534578D01*
X207356Y534570D01*
X207350Y534563D01*
X207263Y534391D01*
X207174Y534221D01*
X207172Y534212D01*
X207168Y534204D01*
X207116Y534018D01*
X207063Y533834D01*
X207062Y533825D01*
X207060Y533816D01*
X207046Y533624D01*
X207030Y533432D01*
X207031Y533424D01*
X207030Y533415D01*
X207055Y533222D01*
X207077Y533033D01*
X207080Y533024D01*
X207081Y533015D01*
X207142Y532832D01*
X207202Y532650D01*
X207206Y532642D01*
X207209Y532634D01*
X207305Y532467D01*
X207400Y532299D01*
X207405Y532292D01*
X207410Y532285D01*
X207625Y532032D01*
X209025Y530632D01*
X209025Y514368D01*
X208132Y513475D01*
X191868Y513475D01*
X190975Y514368D01*
X190975Y530632D01*
X192375Y532032D01*
X192381Y532039D01*
X192388Y532044D01*
X192508Y532194D01*
X192630Y532343D01*
X192635Y532351D01*
X192640Y532358D01*
X192729Y532528D01*
X192819Y532699D01*
X192822Y532708D01*
X192826Y532715D01*
X192879Y532900D01*
X192934Y533085D01*
X192935Y533094D01*
X192937Y533102D01*
X192953Y533293D01*
X192970Y533486D01*
X192969Y533495D01*
X192970Y533504D01*
X192948Y533693D01*
X192927Y533886D01*
X192924Y533895D01*
X192923Y533903D01*
X192864Y534085D01*
X192805Y534270D01*
X192801Y534278D01*
X192798Y534286D01*
X192704Y534453D01*
X192611Y534622D01*
X192605Y534629D01*
X192600Y534637D01*
X192475Y534782D01*
X192350Y534929D01*
X192343Y534935D01*
X192337Y534942D01*
X192187Y535058D01*
X192034Y535179D01*
X192026Y535183D01*
X192019Y535188D01*
X191848Y535274D01*
X191675Y535361D01*
X191667Y535364D01*
X191659Y535368D01*
X191473Y535418D01*
X191287Y535469D01*
X191278Y535470D01*
X191270Y535472D01*
X190939Y535499D01*
X180572Y535499D01*
X180554Y535497D01*
X180536Y535499D01*
X180354Y535478D01*
X180171Y535459D01*
X180154Y535454D01*
X180137Y535452D01*
X179962Y535395D01*
X179786Y535341D01*
X179771Y535333D01*
X179754Y535327D01*
X179594Y535237D01*
X179432Y535149D01*
X179419Y535138D01*
X179403Y535129D01*
X179264Y535009D01*
X179123Y534892D01*
X179112Y534878D01*
X179098Y534866D01*
X178986Y534721D01*
X178871Y534578D01*
X178863Y534562D01*
X178852Y534548D01*
X178770Y534383D01*
X178685Y534221D01*
X178680Y534204D01*
X178672Y534188D01*
X178625Y534009D01*
X178574Y533834D01*
X178572Y533816D01*
X178568Y533799D01*
X178541Y533468D01*
X178541Y532499D01*
X170968Y532499D01*
X170950Y532497D01*
X170933Y532499D01*
X170750Y532478D01*
X170568Y532459D01*
X170551Y532454D01*
X170533Y532452D01*
X170358Y532395D01*
X170183Y532341D01*
X170167Y532333D01*
X170150Y532327D01*
X170001Y532243D01*
X169947Y532270D01*
X169784Y532355D01*
X169767Y532360D01*
X169751Y532368D01*
X169573Y532415D01*
X169398Y532466D01*
X169380Y532468D01*
X169363Y532472D01*
X169032Y532499D01*
X161459Y532499D01*
X161459Y533468D01*
X161457Y533486D01*
X161459Y533504D01*
X161438Y533686D01*
X161419Y533869D01*
X161414Y533886D01*
X161412Y533903D01*
X161355Y534078D01*
X161301Y534254D01*
X161293Y534269D01*
X161287Y534286D01*
X161197Y534446D01*
X161109Y534608D01*
X161098Y534621D01*
X161089Y534637D01*
X160969Y534776D01*
X160852Y534917D01*
X160838Y534928D01*
X160826Y534942D01*
X160681Y535054D01*
X160538Y535169D01*
X160522Y535177D01*
X160508Y535188D01*
X160343Y535270D01*
X160181Y535355D01*
X160164Y535360D01*
X160148Y535368D01*
X159969Y535415D01*
X159794Y535466D01*
X159776Y535468D01*
X159759Y535472D01*
X159428Y535499D01*
X149061Y535499D01*
X149052Y535498D01*
X149043Y535499D01*
X148851Y535478D01*
X148660Y535459D01*
X148652Y535457D01*
X148643Y535456D01*
X148461Y535398D01*
X148275Y535341D01*
X148267Y535337D01*
X148259Y535334D01*
X148091Y535241D01*
X147921Y535149D01*
X147915Y535144D01*
X147907Y535139D01*
X147759Y535014D01*
X147612Y534892D01*
X147607Y534885D01*
X147600Y534879D01*
X147480Y534727D01*
X147360Y534578D01*
X147356Y534570D01*
X147350Y534563D01*
X147263Y534391D01*
X147174Y534221D01*
X147172Y534212D01*
X147168Y534204D01*
X147116Y534018D01*
X147063Y533834D01*
X147062Y533825D01*
X147060Y533816D01*
X147046Y533624D01*
X147030Y533432D01*
X147031Y533424D01*
X147030Y533415D01*
X147055Y533222D01*
X147077Y533033D01*
X147080Y533024D01*
X147081Y533015D01*
X147142Y532832D01*
X147202Y532650D01*
X147206Y532642D01*
X147209Y532634D01*
X147305Y532467D01*
X147400Y532299D01*
X147405Y532292D01*
X147410Y532285D01*
X147625Y532032D01*
X149025Y530632D01*
X149025Y514368D01*
X148132Y513475D01*
X131868Y513475D01*
X130975Y514368D01*
X130975Y530632D01*
X132375Y532032D01*
X132381Y532039D01*
X132388Y532044D01*
X132508Y532194D01*
X132630Y532343D01*
X132635Y532351D01*
X132640Y532358D01*
X132729Y532528D01*
X132819Y532699D01*
X132822Y532708D01*
X132826Y532715D01*
X132879Y532900D01*
X132934Y533085D01*
X132935Y533094D01*
X132937Y533102D01*
X132953Y533293D01*
X132970Y533486D01*
X132969Y533495D01*
X132970Y533504D01*
X132948Y533693D01*
X132927Y533886D01*
X132924Y533895D01*
X132923Y533903D01*
X132864Y534085D01*
X132805Y534270D01*
X132801Y534278D01*
X132798Y534286D01*
X132704Y534453D01*
X132611Y534622D01*
X132605Y534629D01*
X132600Y534637D01*
X132475Y534782D01*
X132350Y534929D01*
X132343Y534935D01*
X132337Y534942D01*
X132187Y535058D01*
X132034Y535179D01*
X132026Y535183D01*
X132019Y535188D01*
X131848Y535274D01*
X131675Y535361D01*
X131667Y535364D01*
X131659Y535368D01*
X131473Y535418D01*
X131287Y535469D01*
X131278Y535470D01*
X131270Y535472D01*
X130939Y535499D01*
X120572Y535499D01*
X120554Y535497D01*
X120536Y535499D01*
X120354Y535478D01*
X120171Y535459D01*
X120154Y535454D01*
X120137Y535452D01*
X119962Y535395D01*
X119786Y535341D01*
X119771Y535333D01*
X119754Y535327D01*
X119594Y535237D01*
X119432Y535149D01*
X119419Y535138D01*
X119403Y535129D01*
X119264Y535009D01*
X119123Y534892D01*
X119112Y534878D01*
X119098Y534866D01*
X118986Y534721D01*
X118871Y534578D01*
X118863Y534562D01*
X118852Y534548D01*
X118770Y534383D01*
X118685Y534221D01*
X118680Y534204D01*
X118672Y534188D01*
X118625Y534009D01*
X118574Y533834D01*
X118572Y533816D01*
X118568Y533799D01*
X118541Y533468D01*
X118541Y532499D01*
X110968Y532499D01*
X110950Y532497D01*
X110933Y532499D01*
X110750Y532478D01*
X110568Y532459D01*
X110551Y532454D01*
X110533Y532452D01*
X110358Y532395D01*
X110183Y532341D01*
X110167Y532333D01*
X110150Y532327D01*
X110001Y532243D01*
X109947Y532270D01*
X109784Y532355D01*
X109767Y532360D01*
X109751Y532368D01*
X109573Y532415D01*
X109398Y532466D01*
X109380Y532468D01*
X109363Y532472D01*
X109032Y532499D01*
X101459Y532499D01*
X101459Y533146D01*
X101457Y533164D01*
X101459Y533182D01*
X101438Y533364D01*
X101419Y533547D01*
X101414Y533564D01*
X101412Y533581D01*
X101355Y533756D01*
X101301Y533932D01*
X101293Y533947D01*
X101287Y533964D01*
X101197Y534124D01*
X101109Y534286D01*
X101098Y534299D01*
X101089Y534315D01*
X100969Y534454D01*
X100852Y534595D01*
X100838Y534606D01*
X100826Y534620D01*
X100681Y534732D01*
X100538Y534847D01*
X100522Y534855D01*
X100508Y534866D01*
X100343Y534948D01*
X100181Y535033D01*
X100164Y535038D01*
X100148Y535046D01*
X99969Y535093D01*
X99794Y535144D01*
X99776Y535146D01*
X99759Y535150D01*
X99428Y535177D01*
X89383Y535177D01*
X89374Y535176D01*
X89365Y535177D01*
X89173Y535156D01*
X88982Y535137D01*
X88974Y535135D01*
X88965Y535134D01*
X88783Y535076D01*
X88597Y535019D01*
X88589Y535015D01*
X88581Y535012D01*
X88413Y534919D01*
X88243Y534827D01*
X88237Y534822D01*
X88229Y534817D01*
X88081Y534692D01*
X87934Y534570D01*
X87929Y534563D01*
X87922Y534557D01*
X87802Y534405D01*
X87682Y534256D01*
X87678Y534248D01*
X87672Y534241D01*
X87585Y534069D01*
X87496Y533899D01*
X87494Y533890D01*
X87490Y533882D01*
X87438Y533696D01*
X87385Y533512D01*
X87384Y533503D01*
X87382Y533494D01*
X87368Y533302D01*
X87352Y533110D01*
X87353Y533102D01*
X87352Y533093D01*
X87377Y532900D01*
X87399Y532711D01*
X87402Y532702D01*
X87403Y532693D01*
X87464Y532510D01*
X87524Y532328D01*
X87528Y532320D01*
X87531Y532312D01*
X87627Y532145D01*
X87722Y531977D01*
X87727Y531970D01*
X87732Y531963D01*
X87947Y531710D01*
X89025Y530632D01*
X89025Y514368D01*
X88132Y513475D01*
X71868Y513475D01*
X70975Y514368D01*
X70975Y530632D01*
X72053Y531710D01*
X72059Y531717D01*
X72066Y531722D01*
X72186Y531872D01*
X72308Y532021D01*
X72313Y532029D01*
X72318Y532036D01*
X72407Y532206D01*
X72497Y532377D01*
X72500Y532386D01*
X72504Y532393D01*
X72557Y532578D01*
X72612Y532763D01*
X72613Y532772D01*
X72615Y532780D01*
X72631Y532971D01*
X72648Y533164D01*
X72647Y533173D01*
X72648Y533182D01*
X72626Y533371D01*
X72605Y533564D01*
X72602Y533573D01*
X72601Y533581D01*
X72542Y533763D01*
X72483Y533948D01*
X72479Y533956D01*
X72476Y533964D01*
X72382Y534131D01*
X72289Y534300D01*
X72283Y534307D01*
X72278Y534315D01*
X72153Y534460D01*
X72028Y534607D01*
X72021Y534613D01*
X72015Y534620D01*
X71865Y534736D01*
X71712Y534857D01*
X71704Y534861D01*
X71697Y534866D01*
X71526Y534952D01*
X71353Y535039D01*
X71345Y535042D01*
X71337Y535046D01*
X71151Y535096D01*
X70965Y535147D01*
X70956Y535148D01*
X70948Y535150D01*
X70617Y535177D01*
X60572Y535177D01*
X60554Y535175D01*
X60536Y535177D01*
X60354Y535156D01*
X60171Y535137D01*
X60154Y535132D01*
X60137Y535130D01*
X59962Y535073D01*
X59786Y535019D01*
X59771Y535011D01*
X59754Y535005D01*
X59594Y534915D01*
X59432Y534827D01*
X59419Y534816D01*
X59403Y534807D01*
X59264Y534687D01*
X59123Y534570D01*
X59112Y534556D01*
X59098Y534544D01*
X58986Y534399D01*
X58871Y534256D01*
X58863Y534240D01*
X58852Y534226D01*
X58770Y534061D01*
X58685Y533899D01*
X58680Y533882D01*
X58672Y533866D01*
X58625Y533687D01*
X58574Y533512D01*
X58572Y533494D01*
X58568Y533477D01*
X58541Y533146D01*
X58541Y532499D01*
X50968Y532499D01*
X50950Y532497D01*
X50933Y532499D01*
X50750Y532478D01*
X50568Y532459D01*
X50551Y532454D01*
X50533Y532452D01*
X50358Y532395D01*
X50183Y532341D01*
X50167Y532333D01*
X50150Y532327D01*
X50001Y532243D01*
X49947Y532270D01*
X49784Y532355D01*
X49767Y532360D01*
X49751Y532368D01*
X49573Y532415D01*
X49398Y532466D01*
X49380Y532468D01*
X49363Y532472D01*
X49032Y532499D01*
X41459Y532499D01*
X41459Y532948D01*
X41458Y532957D01*
X41459Y532966D01*
X41438Y533159D01*
X41419Y533348D01*
X41417Y533357D01*
X41416Y533366D01*
X41358Y533550D01*
X41301Y533733D01*
X41297Y533741D01*
X41294Y533750D01*
X41202Y533917D01*
X41109Y534087D01*
X41104Y534094D01*
X41099Y534102D01*
X40975Y534249D01*
X40852Y534397D01*
X40845Y534402D01*
X40839Y534409D01*
X40687Y534529D01*
X40538Y534649D01*
X40530Y534653D01*
X40523Y534659D01*
X40350Y534746D01*
X40181Y534834D01*
X40172Y534837D01*
X40164Y534841D01*
X39978Y534893D01*
X39794Y534946D01*
X39785Y534947D01*
X39776Y534949D01*
X39583Y534963D01*
X39392Y534979D01*
X39384Y534978D01*
X39375Y534978D01*
X39182Y534954D01*
X38993Y534932D01*
X38984Y534929D01*
X38975Y534928D01*
X38792Y534867D01*
X38610Y534807D01*
X38602Y534803D01*
X38594Y534800D01*
X38427Y534704D01*
X38259Y534609D01*
X38252Y534603D01*
X38245Y534599D01*
X37992Y534384D01*
X29620Y526012D01*
X29603Y525991D01*
X29582Y525974D01*
X29475Y525836D01*
X29365Y525701D01*
X29352Y525677D01*
X29336Y525656D01*
X29257Y525498D01*
X29176Y525345D01*
X29168Y525319D01*
X29156Y525295D01*
X29111Y525126D01*
X29061Y524959D01*
X29059Y524932D01*
X29052Y524906D01*
X29025Y524576D01*
X29025Y514368D01*
X28132Y513475D01*
X11868Y513475D01*
X10975Y514368D01*
X10975Y530632D01*
X11868Y531525D01*
X22076Y531525D01*
X22102Y531527D01*
X22129Y531525D01*
X22303Y531547D01*
X22476Y531565D01*
X22502Y531572D01*
X22528Y531576D01*
X22694Y531631D01*
X22861Y531683D01*
X22885Y531696D01*
X22910Y531704D01*
X23062Y531791D01*
X23215Y531875D01*
X23236Y531892D01*
X23259Y531905D01*
X23512Y532120D01*
X34872Y543479D01*
X36459Y544137D01*
X40444Y544137D01*
X40462Y544139D01*
X40480Y544137D01*
X40662Y544158D01*
X40845Y544177D01*
X40862Y544182D01*
X40879Y544184D01*
X41054Y544241D01*
X41230Y544295D01*
X41245Y544303D01*
X41262Y544309D01*
X41422Y544399D01*
X41584Y544487D01*
X41597Y544498D01*
X41613Y544507D01*
X41752Y544627D01*
X41893Y544744D01*
X41904Y544758D01*
X41918Y544770D01*
X42030Y544915D01*
X42145Y545058D01*
X42153Y545074D01*
X42164Y545088D01*
X42246Y545253D01*
X42331Y545415D01*
X42336Y545432D01*
X42344Y545448D01*
X42391Y545627D01*
X42442Y545802D01*
X42444Y545820D01*
X42448Y545837D01*
X42475Y546168D01*
X42475Y557132D01*
X43368Y558025D01*
X46228Y558025D01*
X46246Y558027D01*
X46264Y558025D01*
X46446Y558046D01*
X46629Y558065D01*
X46646Y558070D01*
X46663Y558072D01*
X46838Y558129D01*
X47014Y558183D01*
X47029Y558191D01*
X47046Y558197D01*
X47206Y558287D01*
X47368Y558375D01*
X47381Y558386D01*
X47397Y558395D01*
X47536Y558515D01*
X47677Y558632D01*
X47688Y558646D01*
X47702Y558658D01*
X47814Y558803D01*
X47852Y558850D01*
X48962Y559960D01*
X48979Y559981D01*
X49000Y559999D01*
X49107Y560136D01*
X49217Y560272D01*
X49230Y560295D01*
X49246Y560317D01*
X49324Y560474D01*
X49406Y560628D01*
X49414Y560653D01*
X49426Y560677D01*
X49471Y560847D01*
X49521Y561013D01*
X49523Y561040D01*
X49530Y561066D01*
X49557Y561397D01*
X49557Y561888D01*
X50365Y563838D01*
X51858Y565331D01*
X52206Y565475D01*
X53808Y566139D01*
X55920Y566139D01*
X57870Y565331D01*
X59363Y563838D01*
X60171Y561888D01*
X60171Y559776D01*
X59363Y557826D01*
X58120Y556583D01*
X58103Y556562D01*
X58082Y556545D01*
X57975Y556407D01*
X57865Y556271D01*
X57852Y556248D01*
X57836Y556227D01*
X57758Y556070D01*
X57676Y555916D01*
X57668Y555890D01*
X57656Y555866D01*
X57611Y555697D01*
X57561Y555530D01*
X57559Y555503D01*
X57552Y555477D01*
X57525Y555146D01*
X57525Y545959D01*
X57527Y545937D01*
X57525Y545915D01*
X57547Y545737D01*
X57565Y545558D01*
X57571Y545537D01*
X57574Y545515D01*
X57630Y545345D01*
X57683Y545174D01*
X57693Y545154D01*
X57700Y545133D01*
X57789Y544977D01*
X57875Y544820D01*
X57889Y544802D01*
X57900Y544783D01*
X58018Y544648D01*
X58132Y544510D01*
X58150Y544496D01*
X58164Y544479D01*
X58307Y544370D01*
X58446Y544258D01*
X58466Y544248D01*
X58484Y544234D01*
X58779Y544082D01*
X59052Y543969D01*
X59082Y543960D01*
X59110Y543946D01*
X59275Y543902D01*
X59437Y543853D01*
X59468Y543850D01*
X59498Y543842D01*
X59829Y543815D01*
X100171Y543815D01*
X100202Y543818D01*
X100233Y543816D01*
X100402Y543838D01*
X100572Y543855D01*
X100601Y543864D01*
X100632Y543868D01*
X100948Y543969D01*
X101221Y544082D01*
X101241Y544093D01*
X101262Y544100D01*
X101418Y544188D01*
X101576Y544273D01*
X101593Y544287D01*
X101613Y544298D01*
X101748Y544415D01*
X101887Y544529D01*
X101901Y544546D01*
X101918Y544561D01*
X102027Y544702D01*
X102140Y544842D01*
X102151Y544861D01*
X102164Y544879D01*
X102244Y545039D01*
X102327Y545198D01*
X102334Y545220D01*
X102344Y545240D01*
X102390Y545413D01*
X102440Y545585D01*
X102442Y545607D01*
X102448Y545628D01*
X102475Y545959D01*
X102475Y557132D01*
X103368Y558025D01*
X104412Y558025D01*
X104430Y558027D01*
X104448Y558025D01*
X104630Y558046D01*
X104813Y558065D01*
X104830Y558070D01*
X104847Y558072D01*
X105022Y558129D01*
X105198Y558183D01*
X105213Y558191D01*
X105230Y558197D01*
X105390Y558287D01*
X105552Y558375D01*
X105565Y558386D01*
X105581Y558395D01*
X105720Y558515D01*
X105861Y558632D01*
X105872Y558646D01*
X105886Y558658D01*
X105998Y558803D01*
X106113Y558946D01*
X106121Y558962D01*
X106132Y558976D01*
X106214Y559141D01*
X106299Y559303D01*
X106304Y559320D01*
X106312Y559336D01*
X106334Y559420D01*
X111332Y564418D01*
X111435Y564429D01*
X111461Y564437D01*
X111487Y564440D01*
X111653Y564495D01*
X111820Y564547D01*
X111844Y564560D01*
X111869Y564568D01*
X112021Y564655D01*
X112174Y564739D01*
X112195Y564756D01*
X112218Y564769D01*
X112471Y564984D01*
X112818Y565331D01*
X113166Y565475D01*
X114768Y566139D01*
X116880Y566139D01*
X118830Y565331D01*
X120323Y563838D01*
X121131Y561888D01*
X121131Y559776D01*
X120323Y557826D01*
X118830Y556333D01*
X118779Y556312D01*
X118759Y556301D01*
X118738Y556294D01*
X118582Y556206D01*
X118424Y556122D01*
X118407Y556108D01*
X118387Y556097D01*
X118252Y555980D01*
X118113Y555865D01*
X118099Y555848D01*
X118082Y555833D01*
X117973Y555692D01*
X117860Y555553D01*
X117849Y555533D01*
X117836Y555515D01*
X117756Y555355D01*
X117673Y555196D01*
X117666Y555175D01*
X117656Y555155D01*
X117610Y554981D01*
X117560Y554810D01*
X117558Y554788D01*
X117552Y554766D01*
X117525Y554435D01*
X117525Y546168D01*
X117527Y546150D01*
X117525Y546132D01*
X117546Y545950D01*
X117565Y545767D01*
X117570Y545750D01*
X117572Y545733D01*
X117629Y545558D01*
X117683Y545382D01*
X117691Y545367D01*
X117697Y545350D01*
X117787Y545190D01*
X117875Y545028D01*
X117886Y545015D01*
X117895Y544999D01*
X118015Y544860D01*
X118132Y544719D01*
X118146Y544708D01*
X118158Y544694D01*
X118303Y544582D01*
X118446Y544467D01*
X118462Y544459D01*
X118476Y544448D01*
X118641Y544366D01*
X118803Y544281D01*
X118820Y544276D01*
X118836Y544268D01*
X119015Y544221D01*
X119190Y544170D01*
X119208Y544168D01*
X119225Y544164D01*
X119556Y544137D01*
X160444Y544137D01*
X160462Y544139D01*
X160480Y544137D01*
X160662Y544158D01*
X160845Y544177D01*
X160862Y544182D01*
X160879Y544184D01*
X161054Y544241D01*
X161230Y544295D01*
X161245Y544303D01*
X161262Y544309D01*
X161422Y544399D01*
X161584Y544487D01*
X161597Y544498D01*
X161613Y544507D01*
X161752Y544627D01*
X161893Y544744D01*
X161904Y544758D01*
X161918Y544770D01*
X162030Y544915D01*
X162145Y545058D01*
X162153Y545074D01*
X162164Y545088D01*
X162246Y545253D01*
X162331Y545415D01*
X162336Y545432D01*
X162344Y545448D01*
X162391Y545627D01*
X162442Y545802D01*
X162444Y545820D01*
X162448Y545837D01*
X162475Y546168D01*
X162475Y557132D01*
X163368Y558025D01*
X169783Y558025D01*
X169805Y558027D01*
X169827Y558025D01*
X170005Y558047D01*
X170183Y558065D01*
X170204Y558071D01*
X170227Y558074D01*
X170396Y558130D01*
X170568Y558183D01*
X170588Y558193D01*
X170609Y558200D01*
X170764Y558289D01*
X170922Y558375D01*
X170939Y558389D01*
X170959Y558400D01*
X171094Y558517D01*
X171231Y558632D01*
X171245Y558650D01*
X171262Y558664D01*
X171371Y558806D01*
X171484Y558946D01*
X171494Y558966D01*
X171508Y558984D01*
X171659Y559279D01*
X172285Y560790D01*
X173778Y562283D01*
X175728Y563091D01*
X177840Y563091D01*
X179790Y562283D01*
X181283Y560790D01*
X182091Y558840D01*
X182091Y556728D01*
X181283Y554778D01*
X179790Y553285D01*
X179033Y552971D01*
X178779Y552866D01*
X178759Y552856D01*
X178738Y552849D01*
X178582Y552761D01*
X178424Y552676D01*
X178407Y552662D01*
X178387Y552651D01*
X178252Y552534D01*
X178113Y552420D01*
X178099Y552402D01*
X178082Y552388D01*
X177973Y552246D01*
X177860Y552107D01*
X177849Y552087D01*
X177836Y552070D01*
X177756Y551909D01*
X177673Y551750D01*
X177666Y551729D01*
X177656Y551709D01*
X177610Y551535D01*
X177560Y551364D01*
X177558Y551342D01*
X177552Y551320D01*
X177525Y550990D01*
X177525Y546168D01*
X177527Y546150D01*
X177525Y546132D01*
X177546Y545950D01*
X177565Y545767D01*
X177570Y545750D01*
X177572Y545733D01*
X177629Y545558D01*
X177683Y545382D01*
X177691Y545367D01*
X177697Y545350D01*
X177787Y545190D01*
X177875Y545028D01*
X177886Y545015D01*
X177895Y544999D01*
X178015Y544860D01*
X178132Y544719D01*
X178146Y544708D01*
X178158Y544694D01*
X178303Y544582D01*
X178446Y544467D01*
X178462Y544459D01*
X178476Y544448D01*
X178641Y544366D01*
X178803Y544281D01*
X178820Y544276D01*
X178836Y544268D01*
X179015Y544221D01*
X179190Y544170D01*
X179208Y544168D01*
X179225Y544164D01*
X179556Y544137D01*
X220444Y544137D01*
X220462Y544139D01*
X220480Y544137D01*
X220662Y544158D01*
X220845Y544177D01*
X220862Y544182D01*
X220879Y544184D01*
X221054Y544241D01*
X221230Y544295D01*
X221245Y544303D01*
X221262Y544309D01*
X221422Y544399D01*
X221584Y544487D01*
X221597Y544498D01*
X221613Y544507D01*
X221752Y544627D01*
X221893Y544744D01*
X221904Y544758D01*
X221918Y544770D01*
X222030Y544915D01*
X222145Y545058D01*
X222153Y545074D01*
X222164Y545088D01*
X222246Y545253D01*
X222331Y545415D01*
X222336Y545432D01*
X222344Y545448D01*
X222391Y545627D01*
X222442Y545802D01*
X222444Y545820D01*
X222448Y545837D01*
X222475Y546168D01*
X222475Y557132D01*
X223368Y558025D01*
X226060Y558025D01*
X226078Y558027D01*
X226096Y558025D01*
X226278Y558046D01*
X226461Y558065D01*
X226478Y558070D01*
X226495Y558072D01*
X226670Y558129D01*
X226846Y558183D01*
X226861Y558191D01*
X226878Y558197D01*
X227038Y558287D01*
X227200Y558375D01*
X227213Y558386D01*
X227229Y558395D01*
X227368Y558515D01*
X227509Y558632D01*
X227520Y558646D01*
X227534Y558658D01*
X227646Y558803D01*
X227684Y558850D01*
X228794Y559960D01*
X228811Y559981D01*
X228832Y559999D01*
X228939Y560136D01*
X229049Y560272D01*
X229062Y560295D01*
X229078Y560317D01*
X229156Y560474D01*
X229238Y560628D01*
X229246Y560653D01*
X229258Y560677D01*
X229303Y560847D01*
X229353Y561013D01*
X229355Y561040D01*
X229362Y561066D01*
X229389Y561397D01*
X229389Y561888D01*
X230197Y563838D01*
X231690Y565331D01*
X232038Y565475D01*
X233640Y566139D01*
X235752Y566139D01*
X237702Y565331D01*
X239195Y563838D01*
X240003Y561888D01*
X240003Y559776D01*
X239195Y557826D01*
X238120Y556751D01*
X238103Y556730D01*
X238082Y556713D01*
X237975Y556574D01*
X237865Y556439D01*
X237852Y556416D01*
X237836Y556395D01*
X237758Y556238D01*
X237676Y556084D01*
X237668Y556058D01*
X237656Y556034D01*
X237611Y555865D01*
X237561Y555698D01*
X237559Y555671D01*
X237552Y555645D01*
X237525Y555315D01*
X237525Y546168D01*
X237527Y546150D01*
X237525Y546132D01*
X237546Y545950D01*
X237565Y545767D01*
X237570Y545750D01*
X237572Y545733D01*
X237629Y545558D01*
X237683Y545382D01*
X237691Y545367D01*
X237697Y545350D01*
X237787Y545190D01*
X237875Y545028D01*
X237886Y545015D01*
X237895Y544999D01*
X238015Y544860D01*
X238132Y544719D01*
X238146Y544708D01*
X238158Y544694D01*
X238303Y544582D01*
X238446Y544467D01*
X238462Y544459D01*
X238476Y544448D01*
X238641Y544366D01*
X238803Y544281D01*
X238820Y544276D01*
X238836Y544268D01*
X239015Y544221D01*
X239190Y544170D01*
X239208Y544168D01*
X239225Y544164D01*
X239556Y544137D01*
X280444Y544137D01*
X280462Y544139D01*
X280480Y544137D01*
X280662Y544158D01*
X280845Y544177D01*
X280862Y544182D01*
X280879Y544184D01*
X281054Y544241D01*
X281230Y544295D01*
X281245Y544303D01*
X281262Y544309D01*
X281422Y544399D01*
X281584Y544487D01*
X281597Y544498D01*
X281613Y544507D01*
X281752Y544627D01*
X281893Y544744D01*
X281904Y544758D01*
X281918Y544770D01*
X282030Y544915D01*
X282145Y545058D01*
X282153Y545074D01*
X282164Y545088D01*
X282246Y545253D01*
X282331Y545415D01*
X282336Y545432D01*
X282344Y545448D01*
X282391Y545627D01*
X282442Y545802D01*
X282444Y545820D01*
X282448Y545837D01*
X282475Y546168D01*
X282475Y557132D01*
X283368Y558025D01*
X286977Y558025D01*
X287004Y558027D01*
X287031Y558025D01*
X287205Y558047D01*
X287378Y558065D01*
X287403Y558072D01*
X287430Y558076D01*
X287596Y558131D01*
X287763Y558183D01*
X287786Y558196D01*
X287812Y558204D01*
X287963Y558291D01*
X288117Y558375D01*
X288137Y558392D01*
X288161Y558405D01*
X288414Y558620D01*
X289754Y559960D01*
X289771Y559981D01*
X289792Y559999D01*
X289899Y560136D01*
X290009Y560272D01*
X290022Y560295D01*
X290038Y560317D01*
X290116Y560474D01*
X290198Y560628D01*
X290206Y560653D01*
X290218Y560677D01*
X290263Y560847D01*
X290313Y561013D01*
X290315Y561040D01*
X290322Y561066D01*
X290349Y561397D01*
X290349Y561888D01*
X291157Y563838D01*
X292650Y565331D01*
X292998Y565475D01*
X294600Y566139D01*
X296712Y566139D01*
X298662Y565331D01*
X300155Y563838D01*
X300963Y561888D01*
X300963Y559776D01*
X300155Y557826D01*
X298635Y556306D01*
X298582Y556276D01*
X298424Y556191D01*
X298407Y556177D01*
X298387Y556166D01*
X298252Y556049D01*
X298113Y555935D01*
X298099Y555918D01*
X298082Y555903D01*
X297973Y555762D01*
X297860Y555622D01*
X297849Y555602D01*
X297836Y555585D01*
X297756Y555425D01*
X297673Y555266D01*
X297666Y555244D01*
X297656Y555224D01*
X297610Y555051D01*
X297560Y554879D01*
X297558Y554857D01*
X297552Y554836D01*
X297525Y554505D01*
X297525Y546168D01*
X297527Y546150D01*
X297525Y546132D01*
X297546Y545950D01*
X297565Y545767D01*
X297570Y545750D01*
X297572Y545733D01*
X297629Y545558D01*
X297683Y545382D01*
X297691Y545367D01*
X297697Y545350D01*
X297787Y545190D01*
X297875Y545028D01*
X297886Y545015D01*
X297895Y544999D01*
X298015Y544860D01*
X298132Y544719D01*
X298146Y544708D01*
X298158Y544694D01*
X298303Y544582D01*
X298446Y544467D01*
X298462Y544459D01*
X298476Y544448D01*
X298641Y544366D01*
X298803Y544281D01*
X298820Y544276D01*
X298836Y544268D01*
X299015Y544221D01*
X299190Y544170D01*
X299208Y544168D01*
X299225Y544164D01*
X299556Y544137D01*
X340444Y544137D01*
X340462Y544139D01*
X340480Y544137D01*
X340662Y544158D01*
X340845Y544177D01*
X340862Y544182D01*
X340879Y544184D01*
X341054Y544241D01*
X341230Y544295D01*
X341245Y544303D01*
X341262Y544309D01*
X341422Y544399D01*
X341584Y544487D01*
X341597Y544498D01*
X341613Y544507D01*
X341752Y544627D01*
X341893Y544744D01*
X341904Y544758D01*
X341918Y544770D01*
X342030Y544915D01*
X342145Y545058D01*
X342153Y545074D01*
X342164Y545088D01*
X342246Y545253D01*
X342331Y545415D01*
X342336Y545432D01*
X342344Y545448D01*
X342391Y545627D01*
X342442Y545802D01*
X342444Y545820D01*
X342448Y545837D01*
X342475Y546168D01*
X342475Y557132D01*
X343368Y558025D01*
X344889Y558025D01*
X344916Y558027D01*
X344943Y558025D01*
X345117Y558047D01*
X345290Y558065D01*
X345315Y558072D01*
X345342Y558076D01*
X345508Y558131D01*
X345675Y558183D01*
X345698Y558196D01*
X345724Y558204D01*
X345875Y558291D01*
X346029Y558375D01*
X346049Y558392D01*
X346073Y558405D01*
X346326Y558620D01*
X352124Y564418D01*
X352227Y564429D01*
X352253Y564436D01*
X352279Y564440D01*
X352445Y564495D01*
X352612Y564547D01*
X352636Y564560D01*
X352661Y564568D01*
X352813Y564655D01*
X352966Y564739D01*
X352987Y564756D01*
X353010Y564769D01*
X353263Y564984D01*
X353610Y565331D01*
X353958Y565475D01*
X355560Y566139D01*
X357672Y566139D01*
X359622Y565331D01*
X361115Y563838D01*
X361923Y561888D01*
X361923Y559776D01*
X361115Y557826D01*
X359622Y556333D01*
X358779Y555984D01*
X358759Y555973D01*
X358738Y555966D01*
X358582Y555878D01*
X358424Y555794D01*
X358407Y555779D01*
X358387Y555768D01*
X358252Y555652D01*
X358113Y555537D01*
X358099Y555520D01*
X358082Y555505D01*
X357973Y555364D01*
X357860Y555225D01*
X357849Y555205D01*
X357836Y555187D01*
X357756Y555027D01*
X357673Y554868D01*
X357666Y554847D01*
X357656Y554827D01*
X357610Y554653D01*
X357560Y554482D01*
X357558Y554459D01*
X357552Y554438D01*
X357525Y554107D01*
X357525Y546168D01*
X357527Y546150D01*
X357525Y546132D01*
X357546Y545950D01*
X357565Y545767D01*
X357570Y545750D01*
X357572Y545733D01*
X357629Y545558D01*
X357683Y545382D01*
X357691Y545367D01*
X357697Y545350D01*
X357787Y545190D01*
X357875Y545028D01*
X357886Y545015D01*
X357895Y544999D01*
X358015Y544860D01*
X358132Y544719D01*
X358146Y544708D01*
X358158Y544694D01*
X358303Y544582D01*
X358446Y544467D01*
X358462Y544459D01*
X358476Y544448D01*
X358641Y544366D01*
X358803Y544281D01*
X358820Y544276D01*
X358836Y544268D01*
X359015Y544221D01*
X359190Y544170D01*
X359208Y544168D01*
X359225Y544164D01*
X359556Y544137D01*
X400444Y544137D01*
X400462Y544139D01*
X400480Y544137D01*
X400662Y544158D01*
X400845Y544177D01*
X400862Y544182D01*
X400879Y544184D01*
X401054Y544241D01*
X401230Y544295D01*
X401245Y544303D01*
X401262Y544309D01*
X401422Y544399D01*
X401584Y544487D01*
X401597Y544498D01*
X401613Y544507D01*
X401752Y544627D01*
X401893Y544744D01*
X401904Y544758D01*
X401918Y544770D01*
X402030Y544915D01*
X402145Y545058D01*
X402153Y545074D01*
X402164Y545088D01*
X402246Y545253D01*
X402331Y545415D01*
X402336Y545432D01*
X402344Y545448D01*
X402391Y545627D01*
X402442Y545802D01*
X402444Y545820D01*
X402448Y545837D01*
X402475Y546168D01*
X402475Y557132D01*
X403368Y558025D01*
X405892Y558025D01*
X405910Y558027D01*
X405928Y558025D01*
X406110Y558046D01*
X406293Y558065D01*
X406310Y558070D01*
X406327Y558072D01*
X406502Y558129D01*
X406678Y558183D01*
X406693Y558191D01*
X406710Y558197D01*
X406870Y558287D01*
X407032Y558375D01*
X407045Y558386D01*
X407061Y558395D01*
X407200Y558515D01*
X407341Y558632D01*
X407352Y558646D01*
X407366Y558658D01*
X407478Y558803D01*
X407516Y558850D01*
X413084Y564418D01*
X413187Y564429D01*
X413213Y564436D01*
X413239Y564440D01*
X413405Y564495D01*
X413572Y564547D01*
X413596Y564560D01*
X413621Y564568D01*
X413773Y564655D01*
X413926Y564739D01*
X413947Y564756D01*
X413970Y564769D01*
X414223Y564984D01*
X414570Y565331D01*
X414918Y565475D01*
X416520Y566139D01*
X418632Y566139D01*
X420582Y565331D01*
X422075Y563838D01*
X422883Y561888D01*
X422883Y559776D01*
X422075Y557826D01*
X420582Y556333D01*
X418779Y555586D01*
X418759Y555576D01*
X418738Y555569D01*
X418581Y555480D01*
X418424Y555396D01*
X418407Y555382D01*
X418387Y555371D01*
X418251Y555254D01*
X418113Y555140D01*
X418099Y555122D01*
X418082Y555108D01*
X417973Y554966D01*
X417860Y554827D01*
X417849Y554807D01*
X417836Y554790D01*
X417756Y554629D01*
X417673Y554470D01*
X417666Y554449D01*
X417656Y554429D01*
X417610Y554255D01*
X417560Y554084D01*
X417558Y554062D01*
X417552Y554040D01*
X417525Y553710D01*
X417525Y546168D01*
X417527Y546150D01*
X417525Y546132D01*
X417546Y545950D01*
X417565Y545767D01*
X417570Y545750D01*
X417572Y545733D01*
X417629Y545558D01*
X417683Y545382D01*
X417691Y545367D01*
X417697Y545350D01*
X417787Y545190D01*
X417875Y545028D01*
X417886Y545015D01*
X417895Y544999D01*
X418015Y544860D01*
X418132Y544719D01*
X418146Y544708D01*
X418158Y544694D01*
X418303Y544582D01*
X418446Y544467D01*
X418462Y544459D01*
X418476Y544448D01*
X418641Y544366D01*
X418803Y544281D01*
X418820Y544276D01*
X418836Y544268D01*
X419015Y544221D01*
X419190Y544170D01*
X419208Y544168D01*
X419225Y544164D01*
X419556Y544137D01*
X460444Y544137D01*
X460462Y544139D01*
X460480Y544137D01*
X460662Y544158D01*
X460845Y544177D01*
X460862Y544182D01*
X460879Y544184D01*
X461054Y544241D01*
X461230Y544295D01*
X461245Y544303D01*
X461262Y544309D01*
X461422Y544399D01*
X461584Y544487D01*
X461597Y544498D01*
X461613Y544507D01*
X461752Y544627D01*
X461893Y544744D01*
X461904Y544758D01*
X461918Y544770D01*
X462030Y544915D01*
X462145Y545058D01*
X462153Y545074D01*
X462164Y545088D01*
X462246Y545253D01*
X462331Y545415D01*
X462336Y545432D01*
X462344Y545448D01*
X462391Y545627D01*
X462442Y545802D01*
X462444Y545820D01*
X462448Y545837D01*
X462475Y546168D01*
X462475Y557132D01*
X463368Y558025D01*
X466852Y558025D01*
X466870Y558027D01*
X466888Y558025D01*
X467070Y558046D01*
X467253Y558065D01*
X467270Y558070D01*
X467287Y558072D01*
X467462Y558129D01*
X467638Y558183D01*
X467653Y558191D01*
X467670Y558197D01*
X467830Y558287D01*
X467992Y558375D01*
X468005Y558386D01*
X468021Y558395D01*
X468160Y558515D01*
X468301Y558632D01*
X468312Y558646D01*
X468326Y558658D01*
X468438Y558803D01*
X468476Y558850D01*
X469586Y559960D01*
X469603Y559981D01*
X469624Y559999D01*
X469731Y560136D01*
X469841Y560272D01*
X469854Y560295D01*
X469870Y560317D01*
X469948Y560474D01*
X470030Y560628D01*
X470038Y560653D01*
X470050Y560677D01*
X470095Y560847D01*
X470145Y561013D01*
X470147Y561040D01*
X470154Y561066D01*
X470181Y561397D01*
X470181Y561888D01*
X470989Y563838D01*
X472482Y565331D01*
X472830Y565475D01*
X474432Y566139D01*
X476544Y566139D01*
X478494Y565331D01*
X479987Y563838D01*
X480795Y561888D01*
X480795Y559776D01*
X479987Y557826D01*
X478412Y556251D01*
X478407Y556247D01*
X478387Y556236D01*
X478252Y556119D01*
X478113Y556004D01*
X478099Y555987D01*
X478082Y555973D01*
X477973Y555831D01*
X477860Y555692D01*
X477849Y555672D01*
X477836Y555654D01*
X477756Y555494D01*
X477673Y555335D01*
X477666Y555314D01*
X477656Y555294D01*
X477610Y555120D01*
X477560Y554949D01*
X477558Y554927D01*
X477552Y554905D01*
X477525Y554574D01*
X477525Y546168D01*
X477527Y546150D01*
X477525Y546132D01*
X477546Y545950D01*
X477565Y545767D01*
X477570Y545750D01*
X477572Y545733D01*
X477629Y545558D01*
X477683Y545382D01*
X477691Y545367D01*
X477697Y545350D01*
X477787Y545190D01*
X477875Y545028D01*
X477886Y545015D01*
X477895Y544999D01*
X478015Y544860D01*
X478132Y544719D01*
X478146Y544708D01*
X478158Y544694D01*
X478303Y544582D01*
X478446Y544467D01*
X478462Y544459D01*
X478476Y544448D01*
X478641Y544366D01*
X478803Y544281D01*
X478820Y544276D01*
X478836Y544268D01*
X479015Y544221D01*
X479190Y544170D01*
X479208Y544168D01*
X479225Y544164D01*
X479556Y544137D01*
X520444Y544137D01*
X520462Y544139D01*
X520480Y544137D01*
X520662Y544158D01*
X520845Y544177D01*
X520862Y544182D01*
X520879Y544184D01*
X521054Y544241D01*
X521230Y544295D01*
X521245Y544303D01*
X521262Y544309D01*
X521422Y544399D01*
X521584Y544487D01*
X521597Y544498D01*
X521613Y544507D01*
X521752Y544627D01*
X521893Y544744D01*
X521904Y544758D01*
X521918Y544770D01*
X522030Y544915D01*
X522145Y545058D01*
X522153Y545074D01*
X522164Y545088D01*
X522246Y545253D01*
X522331Y545415D01*
X522336Y545432D01*
X522344Y545448D01*
X522391Y545627D01*
X522442Y545802D01*
X522444Y545820D01*
X522448Y545837D01*
X522475Y546168D01*
X522475Y557132D01*
X523368Y558025D01*
X527769Y558025D01*
X527796Y558027D01*
X527823Y558025D01*
X527997Y558047D01*
X528170Y558065D01*
X528195Y558072D01*
X528222Y558076D01*
X528388Y558131D01*
X528555Y558183D01*
X528578Y558196D01*
X528604Y558204D01*
X528755Y558291D01*
X528909Y558375D01*
X528929Y558392D01*
X528953Y558405D01*
X529206Y558620D01*
X530546Y559960D01*
X530563Y559981D01*
X530584Y559999D01*
X530691Y560136D01*
X530801Y560272D01*
X530814Y560295D01*
X530830Y560317D01*
X530908Y560474D01*
X530990Y560628D01*
X530998Y560653D01*
X531010Y560677D01*
X531055Y560847D01*
X531105Y561013D01*
X531107Y561040D01*
X531114Y561066D01*
X531141Y561397D01*
X531141Y561888D01*
X531949Y563838D01*
X533442Y565331D01*
X533790Y565475D01*
X535392Y566139D01*
X537504Y566139D01*
X539454Y565331D01*
X540947Y563838D01*
X541755Y561888D01*
X541755Y559776D01*
X540947Y557826D01*
X539454Y556333D01*
X538779Y556053D01*
X538759Y556043D01*
X538738Y556036D01*
X538582Y555948D01*
X538424Y555863D01*
X538407Y555849D01*
X538387Y555838D01*
X538251Y555721D01*
X538113Y555607D01*
X538099Y555589D01*
X538082Y555575D01*
X537973Y555434D01*
X537860Y555294D01*
X537849Y555274D01*
X537836Y555257D01*
X537756Y555097D01*
X537673Y554938D01*
X537666Y554916D01*
X537656Y554896D01*
X537610Y554723D01*
X537560Y554551D01*
X537558Y554529D01*
X537552Y554508D01*
X537525Y554177D01*
X537525Y546168D01*
X537527Y546150D01*
X537525Y546132D01*
X537546Y545950D01*
X537565Y545767D01*
X537570Y545750D01*
X537572Y545733D01*
X537629Y545558D01*
X537683Y545382D01*
X537691Y545367D01*
X537697Y545350D01*
X537787Y545190D01*
X537875Y545028D01*
X537886Y545015D01*
X537895Y544999D01*
X538015Y544860D01*
X538132Y544719D01*
X538146Y544708D01*
X538158Y544694D01*
X538303Y544582D01*
X538446Y544467D01*
X538462Y544459D01*
X538476Y544448D01*
X538641Y544366D01*
X538803Y544281D01*
X538820Y544276D01*
X538836Y544268D01*
X539015Y544221D01*
X539190Y544170D01*
X539208Y544168D01*
X539225Y544164D01*
X539556Y544137D01*
X580444Y544137D01*
X580462Y544139D01*
X580480Y544137D01*
X580662Y544158D01*
X580845Y544177D01*
X580862Y544182D01*
X580879Y544184D01*
X581054Y544241D01*
X581230Y544295D01*
X581245Y544303D01*
X581262Y544309D01*
X581422Y544399D01*
X581584Y544487D01*
X581597Y544498D01*
X581613Y544507D01*
X581752Y544627D01*
X581893Y544744D01*
X581904Y544758D01*
X581918Y544770D01*
X582030Y544915D01*
X582145Y545058D01*
X582153Y545074D01*
X582164Y545088D01*
X582246Y545253D01*
X582331Y545415D01*
X582336Y545432D01*
X582344Y545448D01*
X582391Y545627D01*
X582442Y545802D01*
X582444Y545820D01*
X582448Y545837D01*
X582475Y546168D01*
X582475Y557132D01*
X583368Y558025D01*
X590407Y558025D01*
X590429Y558027D01*
X590451Y558025D01*
X590629Y558047D01*
X590807Y558065D01*
X590828Y558071D01*
X590851Y558074D01*
X591020Y558130D01*
X591192Y558183D01*
X591212Y558193D01*
X591233Y558200D01*
X591388Y558289D01*
X591546Y558375D01*
X591563Y558389D01*
X591583Y558400D01*
X591718Y558517D01*
X591855Y558632D01*
X591869Y558650D01*
X591886Y558664D01*
X591995Y558806D01*
X592108Y558946D01*
X592118Y558966D01*
X592132Y558984D01*
X592283Y559279D01*
X592909Y560790D01*
X594402Y562283D01*
X596352Y563091D01*
X598464Y563091D01*
X600414Y562283D01*
X601907Y560790D01*
X602715Y558840D01*
X602715Y556728D01*
X601907Y554778D01*
X600414Y553285D01*
X598779Y552608D01*
X598759Y552597D01*
X598738Y552590D01*
X598582Y552502D01*
X598424Y552418D01*
X598407Y552403D01*
X598387Y552392D01*
X598252Y552276D01*
X598113Y552161D01*
X598099Y552144D01*
X598082Y552129D01*
X597973Y551988D01*
X597860Y551849D01*
X597849Y551829D01*
X597836Y551811D01*
X597756Y551650D01*
X597673Y551492D01*
X597666Y551471D01*
X597656Y551451D01*
X597610Y551277D01*
X597560Y551106D01*
X597558Y551083D01*
X597552Y551062D01*
X597525Y550731D01*
X597525Y546168D01*
X597527Y546150D01*
X597525Y546132D01*
X597546Y545950D01*
X597565Y545767D01*
X597570Y545750D01*
X597572Y545733D01*
X597629Y545558D01*
X597683Y545382D01*
X597691Y545367D01*
X597697Y545350D01*
X597787Y545190D01*
X597875Y545028D01*
X597886Y545015D01*
X597895Y544999D01*
X598015Y544860D01*
X598132Y544719D01*
X598146Y544708D01*
X598158Y544694D01*
X598303Y544582D01*
X598446Y544467D01*
X598462Y544459D01*
X598476Y544448D01*
X598641Y544366D01*
X598803Y544281D01*
X598820Y544276D01*
X598836Y544268D01*
X599015Y544221D01*
X599190Y544170D01*
X599208Y544168D01*
X599225Y544164D01*
X599556Y544137D01*
X640444Y544137D01*
X640462Y544139D01*
X640480Y544137D01*
X640662Y544158D01*
X640845Y544177D01*
X640862Y544182D01*
X640879Y544184D01*
X641054Y544241D01*
X641230Y544295D01*
X641245Y544303D01*
X641262Y544309D01*
X641422Y544399D01*
X641584Y544487D01*
X641597Y544498D01*
X641613Y544507D01*
X641752Y544627D01*
X641893Y544744D01*
X641904Y544758D01*
X641918Y544770D01*
X642030Y544915D01*
X642145Y545058D01*
X642153Y545074D01*
X642164Y545088D01*
X642246Y545253D01*
X642331Y545415D01*
X642336Y545432D01*
X642344Y545448D01*
X642391Y545627D01*
X642442Y545802D01*
X642444Y545820D01*
X642448Y545837D01*
X642475Y546168D01*
X642475Y557132D01*
X643368Y558025D01*
X651030Y558025D01*
X651048Y558027D01*
X651066Y558025D01*
X651248Y558046D01*
X651431Y558065D01*
X651448Y558070D01*
X651465Y558072D01*
X651640Y558129D01*
X651816Y558183D01*
X651831Y558191D01*
X651848Y558197D01*
X652008Y558287D01*
X652170Y558375D01*
X652183Y558386D01*
X652199Y558395D01*
X652338Y558515D01*
X652479Y558632D01*
X652490Y558646D01*
X652504Y558658D01*
X652616Y558803D01*
X652731Y558946D01*
X652739Y558962D01*
X652750Y558976D01*
X652832Y559141D01*
X652917Y559303D01*
X652922Y559320D01*
X652930Y559336D01*
X652977Y559515D01*
X653028Y559690D01*
X653030Y559708D01*
X653034Y559725D01*
X653061Y560056D01*
X653061Y561888D01*
X653869Y563838D01*
X655362Y565331D01*
X655710Y565475D01*
X657312Y566139D01*
X659424Y566139D01*
X661374Y565331D01*
X662867Y563838D01*
X663675Y561888D01*
X663675Y559776D01*
X662867Y557826D01*
X661374Y556333D01*
X660875Y556127D01*
X660848Y556112D01*
X660818Y556102D01*
X660670Y556017D01*
X660520Y555936D01*
X660496Y555917D01*
X660469Y555901D01*
X660216Y555686D01*
X659246Y554716D01*
X658120Y553590D01*
X658103Y553569D01*
X658082Y553551D01*
X657975Y553413D01*
X657865Y553278D01*
X657852Y553255D01*
X657836Y553233D01*
X657758Y553076D01*
X657676Y552922D01*
X657668Y552897D01*
X657656Y552873D01*
X657611Y552703D01*
X657561Y552537D01*
X657559Y552510D01*
X657552Y552484D01*
X657525Y552153D01*
X657525Y546168D01*
X657527Y546150D01*
X657525Y546132D01*
X657546Y545950D01*
X657565Y545767D01*
X657570Y545750D01*
X657572Y545733D01*
X657629Y545558D01*
X657683Y545382D01*
X657691Y545367D01*
X657697Y545350D01*
X657787Y545190D01*
X657875Y545028D01*
X657886Y545015D01*
X657895Y544999D01*
X658015Y544860D01*
X658132Y544719D01*
X658146Y544708D01*
X658158Y544694D01*
X658303Y544582D01*
X658446Y544467D01*
X658462Y544459D01*
X658476Y544448D01*
X658641Y544366D01*
X658803Y544281D01*
X658820Y544276D01*
X658836Y544268D01*
X659015Y544221D01*
X659190Y544170D01*
X659208Y544168D01*
X659225Y544164D01*
X659556Y544137D01*
X700444Y544137D01*
X700462Y544139D01*
X700480Y544137D01*
X700662Y544158D01*
X700845Y544177D01*
X700862Y544182D01*
X700879Y544184D01*
X701054Y544241D01*
X701230Y544295D01*
X701245Y544303D01*
X701262Y544309D01*
X701422Y544399D01*
X701584Y544487D01*
X701597Y544498D01*
X701613Y544507D01*
X701752Y544627D01*
X701893Y544744D01*
X701904Y544758D01*
X701918Y544770D01*
X702030Y544915D01*
X702145Y545058D01*
X702153Y545074D01*
X702164Y545088D01*
X702246Y545253D01*
X702331Y545415D01*
X702336Y545432D01*
X702344Y545448D01*
X702391Y545627D01*
X702442Y545802D01*
X702444Y545820D01*
X702448Y545837D01*
X702475Y546168D01*
X702475Y557132D01*
X703368Y558025D01*
X711653Y558025D01*
X711680Y558027D01*
X711707Y558025D01*
X711881Y558047D01*
X712054Y558065D01*
X712079Y558072D01*
X712106Y558076D01*
X712272Y558131D01*
X712439Y558183D01*
X712462Y558196D01*
X712488Y558204D01*
X712639Y558291D01*
X712793Y558375D01*
X712813Y558392D01*
X712837Y558405D01*
X713090Y558620D01*
X713132Y558662D01*
X714239Y559769D01*
X714259Y559793D01*
X714282Y559813D01*
X714386Y559948D01*
X714494Y560080D01*
X714509Y560108D01*
X714528Y560133D01*
X714679Y560428D01*
X714829Y560790D01*
X716322Y562283D01*
X718272Y563091D01*
X720384Y563091D01*
X722334Y562283D01*
X723827Y560790D01*
X724635Y558840D01*
X724635Y556728D01*
X723827Y554778D01*
X722334Y553285D01*
X720384Y552477D01*
X719556Y552477D01*
X719538Y552475D01*
X719520Y552477D01*
X719338Y552456D01*
X719155Y552437D01*
X719138Y552432D01*
X719121Y552430D01*
X718946Y552373D01*
X718770Y552319D01*
X718755Y552311D01*
X718738Y552305D01*
X718578Y552215D01*
X718416Y552127D01*
X718403Y552116D01*
X718387Y552107D01*
X718248Y551987D01*
X718107Y551870D01*
X718096Y551856D01*
X718082Y551844D01*
X717970Y551699D01*
X717855Y551556D01*
X717847Y551540D01*
X717836Y551526D01*
X717754Y551361D01*
X717669Y551199D01*
X717664Y551182D01*
X717656Y551166D01*
X717609Y550987D01*
X717558Y550812D01*
X717556Y550794D01*
X717552Y550777D01*
X717525Y550446D01*
X717525Y546168D01*
X717527Y546150D01*
X717525Y546132D01*
X717546Y545950D01*
X717565Y545767D01*
X717570Y545750D01*
X717572Y545733D01*
X717629Y545558D01*
X717683Y545382D01*
X717691Y545367D01*
X717697Y545350D01*
X717787Y545190D01*
X717875Y545028D01*
X717886Y545015D01*
X717895Y544999D01*
X718015Y544860D01*
X718132Y544719D01*
X718146Y544708D01*
X718158Y544694D01*
X718303Y544582D01*
X718446Y544467D01*
X718462Y544459D01*
X718476Y544448D01*
X718641Y544366D01*
X718803Y544281D01*
X718820Y544276D01*
X718836Y544268D01*
X719015Y544221D01*
X719190Y544170D01*
X719208Y544168D01*
X719225Y544164D01*
X719556Y544137D01*
X760444Y544137D01*
X760462Y544139D01*
X760480Y544137D01*
X760662Y544158D01*
X760845Y544177D01*
X760862Y544182D01*
X760879Y544184D01*
X761054Y544241D01*
X761230Y544295D01*
X761245Y544303D01*
X761262Y544309D01*
X761422Y544399D01*
X761584Y544487D01*
X761597Y544498D01*
X761613Y544507D01*
X761752Y544627D01*
X761893Y544744D01*
X761904Y544758D01*
X761918Y544770D01*
X762030Y544915D01*
X762145Y545058D01*
X762153Y545074D01*
X762164Y545088D01*
X762246Y545253D01*
X762331Y545415D01*
X762336Y545432D01*
X762344Y545448D01*
X762391Y545627D01*
X762442Y545802D01*
X762444Y545820D01*
X762448Y545837D01*
X762475Y546168D01*
X762475Y557132D01*
X763368Y558025D01*
X770239Y558025D01*
X770261Y558027D01*
X770283Y558025D01*
X770461Y558047D01*
X770639Y558065D01*
X770660Y558071D01*
X770683Y558074D01*
X770852Y558130D01*
X771024Y558183D01*
X771044Y558193D01*
X771065Y558200D01*
X771220Y558289D01*
X771378Y558375D01*
X771395Y558389D01*
X771415Y558400D01*
X771550Y558517D01*
X771687Y558632D01*
X771701Y558650D01*
X771718Y558664D01*
X771827Y558806D01*
X771940Y558946D01*
X771950Y558966D01*
X771964Y558984D01*
X772115Y559279D01*
X772741Y560790D01*
X774234Y562283D01*
X776184Y563091D01*
X778296Y563091D01*
X780246Y562283D01*
X781739Y560790D01*
X782547Y558840D01*
X782547Y556728D01*
X781739Y554778D01*
X780246Y553285D01*
X779489Y552971D01*
X778779Y552677D01*
X778759Y552667D01*
X778738Y552660D01*
X778582Y552572D01*
X778424Y552487D01*
X778407Y552473D01*
X778387Y552462D01*
X778252Y552345D01*
X778113Y552231D01*
X778099Y552213D01*
X778082Y552199D01*
X777973Y552057D01*
X777860Y551918D01*
X777849Y551898D01*
X777836Y551881D01*
X777756Y551720D01*
X777673Y551562D01*
X777666Y551540D01*
X777656Y551520D01*
X777610Y551347D01*
X777560Y551175D01*
X777558Y551153D01*
X777552Y551131D01*
X777525Y550801D01*
X777525Y546168D01*
X777527Y546150D01*
X777525Y546132D01*
X777546Y545950D01*
X777565Y545767D01*
X777570Y545750D01*
X777572Y545733D01*
X777629Y545558D01*
X777683Y545382D01*
X777691Y545367D01*
X777697Y545350D01*
X777787Y545190D01*
X777875Y545028D01*
X777886Y545015D01*
X777895Y544999D01*
X778015Y544860D01*
X778132Y544719D01*
X778146Y544708D01*
X778158Y544694D01*
X778303Y544582D01*
X778446Y544467D01*
X778462Y544459D01*
X778476Y544448D01*
X778641Y544366D01*
X778803Y544281D01*
X778820Y544276D01*
X778836Y544268D01*
X779015Y544221D01*
X779190Y544170D01*
X779208Y544168D01*
X779225Y544164D01*
X779556Y544137D01*
X820444Y544137D01*
X820462Y544139D01*
X820480Y544137D01*
X820662Y544158D01*
X820845Y544177D01*
X820862Y544182D01*
X820879Y544184D01*
X821054Y544241D01*
X821230Y544295D01*
X821245Y544303D01*
X821262Y544309D01*
X821422Y544399D01*
X821584Y544487D01*
X821597Y544498D01*
X821613Y544507D01*
X821752Y544627D01*
X821893Y544744D01*
X821904Y544758D01*
X821918Y544770D01*
X822030Y544915D01*
X822145Y545058D01*
X822153Y545074D01*
X822164Y545088D01*
X822246Y545253D01*
X822331Y545415D01*
X822336Y545432D01*
X822344Y545448D01*
X822391Y545627D01*
X822442Y545802D01*
X822444Y545820D01*
X822448Y545837D01*
X822475Y546168D01*
X822475Y557132D01*
X823368Y558025D01*
X831199Y558025D01*
X831221Y558027D01*
X831243Y558025D01*
X831421Y558047D01*
X831599Y558065D01*
X831620Y558071D01*
X831643Y558074D01*
X831812Y558130D01*
X831984Y558183D01*
X832004Y558193D01*
X832025Y558200D01*
X832180Y558289D01*
X832338Y558375D01*
X832355Y558389D01*
X832375Y558400D01*
X832510Y558517D01*
X832647Y558632D01*
X832661Y558650D01*
X832678Y558664D01*
X832787Y558806D01*
X832900Y558946D01*
X832910Y558966D01*
X832924Y558984D01*
X833075Y559279D01*
X833701Y560790D01*
X835194Y562283D01*
X837144Y563091D01*
X839256Y563091D01*
X841206Y562283D01*
X842699Y560790D01*
X843507Y558840D01*
X843507Y556728D01*
X842699Y554778D01*
X841206Y553285D01*
X839161Y552438D01*
X839155Y552437D01*
X839138Y552432D01*
X839121Y552430D01*
X838946Y552373D01*
X838770Y552319D01*
X838755Y552311D01*
X838738Y552305D01*
X838578Y552215D01*
X838416Y552127D01*
X838403Y552116D01*
X838387Y552107D01*
X838248Y551987D01*
X838107Y551870D01*
X838096Y551856D01*
X838082Y551844D01*
X837970Y551699D01*
X837855Y551556D01*
X837847Y551540D01*
X837836Y551526D01*
X837754Y551361D01*
X837669Y551199D01*
X837664Y551182D01*
X837656Y551166D01*
X837609Y550987D01*
X837558Y550812D01*
X837556Y550794D01*
X837552Y550777D01*
X837525Y550446D01*
X837525Y546168D01*
X837527Y546150D01*
X837525Y546132D01*
X837546Y545950D01*
X837565Y545767D01*
X837570Y545750D01*
X837572Y545733D01*
X837629Y545558D01*
X837683Y545382D01*
X837691Y545367D01*
X837697Y545350D01*
X837787Y545190D01*
X837875Y545028D01*
X837886Y545015D01*
X837895Y544999D01*
X838015Y544860D01*
X838132Y544719D01*
X838146Y544708D01*
X838158Y544694D01*
X838303Y544582D01*
X838446Y544467D01*
X838462Y544459D01*
X838476Y544448D01*
X838641Y544366D01*
X838803Y544281D01*
X838820Y544276D01*
X838836Y544268D01*
X839015Y544221D01*
X839190Y544170D01*
X839208Y544168D01*
X839225Y544164D01*
X839556Y544137D01*
X880444Y544137D01*
X880462Y544139D01*
X880480Y544137D01*
X880662Y544158D01*
X880845Y544177D01*
X880862Y544182D01*
X880879Y544184D01*
X881054Y544241D01*
X881230Y544295D01*
X881245Y544303D01*
X881262Y544309D01*
X881422Y544399D01*
X881584Y544487D01*
X881597Y544498D01*
X881613Y544507D01*
X881752Y544627D01*
X881893Y544744D01*
X881904Y544758D01*
X881918Y544770D01*
X882030Y544915D01*
X882145Y545058D01*
X882153Y545074D01*
X882164Y545088D01*
X882246Y545253D01*
X882331Y545415D01*
X882336Y545432D01*
X882344Y545448D01*
X882391Y545627D01*
X882442Y545802D01*
X882444Y545820D01*
X882448Y545837D01*
X882475Y546168D01*
X882475Y557132D01*
X883368Y558025D01*
X891653Y558025D01*
X891680Y558027D01*
X891707Y558025D01*
X891880Y558047D01*
X892054Y558065D01*
X892080Y558073D01*
X892107Y558076D01*
X892272Y558132D01*
X892439Y558183D01*
X892463Y558196D01*
X892488Y558204D01*
X892640Y558292D01*
X892793Y558375D01*
X892814Y558392D01*
X892837Y558405D01*
X893090Y558620D01*
X893132Y558662D01*
X893952Y559482D01*
X893972Y559506D01*
X893995Y559527D01*
X894099Y559662D01*
X894207Y559793D01*
X894222Y559821D01*
X894241Y559846D01*
X894392Y560141D01*
X894661Y560790D01*
X896154Y562283D01*
X898104Y563091D01*
X900216Y563091D01*
X902166Y562283D01*
X903659Y560790D01*
X904467Y558840D01*
X904467Y556728D01*
X903659Y554778D01*
X902166Y553285D01*
X900216Y552477D01*
X899556Y552477D01*
X899538Y552475D01*
X899520Y552477D01*
X899338Y552456D01*
X899155Y552437D01*
X899138Y552432D01*
X899121Y552430D01*
X898946Y552373D01*
X898770Y552319D01*
X898755Y552311D01*
X898738Y552305D01*
X898578Y552215D01*
X898416Y552127D01*
X898403Y552116D01*
X898387Y552107D01*
X898248Y551987D01*
X898107Y551870D01*
X898096Y551856D01*
X898082Y551844D01*
X897970Y551699D01*
X897855Y551556D01*
X897847Y551540D01*
X897836Y551526D01*
X897754Y551361D01*
X897669Y551199D01*
X897664Y551182D01*
X897656Y551166D01*
X897609Y550987D01*
X897558Y550812D01*
X897556Y550794D01*
X897552Y550777D01*
X897525Y550446D01*
X897525Y546168D01*
X897527Y546150D01*
X897525Y546132D01*
X897546Y545950D01*
X897565Y545767D01*
X897570Y545750D01*
X897572Y545733D01*
X897629Y545558D01*
X897683Y545382D01*
X897691Y545367D01*
X897697Y545350D01*
X897787Y545190D01*
X897875Y545028D01*
X897886Y545015D01*
X897895Y544999D01*
X898015Y544860D01*
X898132Y544719D01*
X898146Y544708D01*
X898158Y544694D01*
X898303Y544582D01*
X898446Y544467D01*
X898462Y544459D01*
X898476Y544448D01*
X898641Y544366D01*
X898803Y544281D01*
X898820Y544276D01*
X898836Y544268D01*
X899015Y544221D01*
X899190Y544170D01*
X899208Y544168D01*
X899225Y544164D01*
X899556Y544137D01*
X940444Y544137D01*
X940462Y544139D01*
X940480Y544137D01*
X940662Y544158D01*
X940845Y544177D01*
X940862Y544182D01*
X940879Y544184D01*
X941054Y544241D01*
X941230Y544295D01*
X941245Y544303D01*
X941262Y544309D01*
X941422Y544399D01*
X941584Y544487D01*
X941597Y544498D01*
X941613Y544507D01*
X941752Y544627D01*
X941893Y544744D01*
X941904Y544758D01*
X941918Y544770D01*
X942030Y544915D01*
X942145Y545058D01*
X942153Y545074D01*
X942164Y545088D01*
X942246Y545253D01*
X942331Y545415D01*
X942336Y545432D01*
X942344Y545448D01*
X942391Y545627D01*
X942442Y545802D01*
X942444Y545820D01*
X942448Y545837D01*
X942475Y546168D01*
X942475Y557132D01*
X943368Y558025D01*
X951653Y558025D01*
X951680Y558027D01*
X951707Y558025D01*
X951880Y558047D01*
X952054Y558065D01*
X952080Y558073D01*
X952107Y558076D01*
X952272Y558132D01*
X952439Y558183D01*
X952463Y558196D01*
X952488Y558204D01*
X952640Y558292D01*
X952793Y558375D01*
X952814Y558392D01*
X952837Y558405D01*
X953090Y558620D01*
X953132Y558662D01*
X955811Y561341D01*
X958378Y561341D01*
X958405Y561343D01*
X958432Y561341D01*
X958606Y561363D01*
X958779Y561381D01*
X958805Y561388D01*
X958831Y561392D01*
X958997Y561447D01*
X959164Y561499D01*
X959188Y561512D01*
X959213Y561520D01*
X959365Y561607D01*
X959518Y561691D01*
X959539Y561708D01*
X959562Y561721D01*
X959815Y561936D01*
X960162Y562283D01*
X962112Y563091D01*
X964224Y563091D01*
X966174Y562283D01*
X967508Y560949D01*
X967515Y560944D01*
X967520Y560937D01*
X967671Y560816D01*
X967819Y560694D01*
X967827Y560690D01*
X967834Y560684D01*
X968005Y560595D01*
X968175Y560505D01*
X968184Y560503D01*
X968191Y560499D01*
X968376Y560446D01*
X968561Y560391D01*
X968570Y560390D01*
X968578Y560387D01*
X968769Y560372D01*
X968962Y560354D01*
X968971Y560355D01*
X968980Y560355D01*
X969169Y560377D01*
X969362Y560398D01*
X969371Y560400D01*
X969379Y560401D01*
X969561Y560461D01*
X969746Y560519D01*
X969754Y560523D01*
X969762Y560526D01*
X969929Y560620D01*
X970098Y560714D01*
X970105Y560720D01*
X970113Y560724D01*
X970257Y560849D01*
X970405Y560974D01*
X970411Y560982D01*
X970418Y560987D01*
X970534Y561138D01*
X970655Y561290D01*
X970659Y561298D01*
X970664Y561305D01*
X970750Y561477D01*
X970837Y561649D01*
X970840Y561658D01*
X970844Y561666D01*
X970894Y561852D01*
X970945Y562037D01*
X970946Y562046D01*
X970948Y562055D01*
X970975Y562385D01*
X970975Y565632D01*
X971868Y566525D01*
X972863Y566525D01*
X972876Y566526D01*
X972889Y566525D01*
X973076Y566546D01*
X973263Y566565D01*
X973276Y566569D01*
X973289Y566570D01*
X973469Y566628D01*
X973648Y566683D01*
X973660Y566689D01*
X973673Y566693D01*
X973838Y566785D01*
X974002Y566875D01*
X974012Y566883D01*
X974024Y566890D01*
X974168Y567013D01*
X974311Y567132D01*
X974320Y567143D01*
X974330Y567151D01*
X974446Y567300D01*
X974564Y567446D01*
X974570Y567458D01*
X974578Y567469D01*
X974663Y567637D01*
X974749Y567803D01*
X974753Y567816D01*
X974759Y567828D01*
X974809Y568009D01*
X974861Y568190D01*
X974862Y568204D01*
X974865Y568217D01*
X974878Y568403D01*
X974894Y568592D01*
X974892Y568605D01*
X974893Y568618D01*
X974869Y568804D01*
X974847Y568991D01*
X974843Y569004D01*
X974841Y569017D01*
X974739Y569333D01*
X974693Y569444D01*
X974693Y571556D01*
X975501Y573506D01*
X976994Y574999D01*
X978521Y575631D01*
X978944Y575807D01*
X981056Y575807D01*
X983006Y574999D01*
X984499Y573506D01*
X985307Y571556D01*
X985307Y569444D01*
X985261Y569333D01*
X985257Y569320D01*
X985251Y569309D01*
X985199Y569128D01*
X985144Y568948D01*
X985143Y568935D01*
X985139Y568922D01*
X985124Y568733D01*
X985106Y568547D01*
X985107Y568534D01*
X985106Y568520D01*
X985128Y568334D01*
X985148Y568147D01*
X985152Y568134D01*
X985153Y568121D01*
X985212Y567942D01*
X985268Y567762D01*
X985274Y567751D01*
X985278Y567738D01*
X985371Y567573D01*
X985461Y567409D01*
X985469Y567399D01*
X985476Y567387D01*
X985598Y567246D01*
X985720Y567101D01*
X985731Y567093D01*
X985739Y567082D01*
X985887Y566968D01*
X986035Y566850D01*
X986047Y566844D01*
X986057Y566836D01*
X986226Y566752D01*
X986393Y566666D01*
X986406Y566662D01*
X986418Y566656D01*
X986600Y566607D01*
X986780Y566556D01*
X986794Y566555D01*
X986807Y566552D01*
X987137Y566525D01*
X988132Y566525D01*
X989025Y565632D01*
X989025Y549368D01*
X988132Y548475D01*
X971868Y548475D01*
X970975Y549368D01*
X970975Y553183D01*
X970974Y553191D01*
X970975Y553200D01*
X970954Y553392D01*
X970935Y553583D01*
X970933Y553592D01*
X970932Y553601D01*
X970874Y553783D01*
X970817Y553968D01*
X970813Y553976D01*
X970810Y553984D01*
X970717Y554153D01*
X970625Y554322D01*
X970620Y554329D01*
X970615Y554337D01*
X970490Y554485D01*
X970368Y554631D01*
X970361Y554637D01*
X970355Y554644D01*
X970203Y554764D01*
X970054Y554884D01*
X970046Y554888D01*
X970039Y554893D01*
X969867Y554981D01*
X969697Y555069D01*
X969688Y555072D01*
X969680Y555076D01*
X969494Y555128D01*
X969310Y555181D01*
X969301Y555181D01*
X969292Y555184D01*
X969100Y555198D01*
X968908Y555213D01*
X968900Y555212D01*
X968891Y555213D01*
X968698Y555189D01*
X968509Y555167D01*
X968500Y555164D01*
X968491Y555163D01*
X968308Y555101D01*
X968126Y555042D01*
X968118Y555037D01*
X968110Y555034D01*
X967944Y554939D01*
X967775Y554844D01*
X967768Y554838D01*
X967761Y554834D01*
X967508Y554619D01*
X966174Y553285D01*
X964224Y552477D01*
X962112Y552477D01*
X960333Y553214D01*
X960320Y553218D01*
X960309Y553224D01*
X960129Y553276D01*
X959948Y553331D01*
X959935Y553332D01*
X959922Y553336D01*
X959734Y553351D01*
X959547Y553369D01*
X959534Y553367D01*
X959520Y553369D01*
X959334Y553347D01*
X959147Y553327D01*
X959134Y553323D01*
X959121Y553322D01*
X958941Y553263D01*
X958762Y553207D01*
X958751Y553201D01*
X958738Y553197D01*
X958574Y553104D01*
X958409Y553014D01*
X958399Y553005D01*
X958387Y552999D01*
X958245Y552876D01*
X958101Y552755D01*
X958093Y552744D01*
X958082Y552736D01*
X957968Y552588D01*
X957850Y552440D01*
X957844Y552428D01*
X957836Y552418D01*
X957752Y552249D01*
X957666Y552082D01*
X957662Y552069D01*
X957656Y552057D01*
X957607Y551874D01*
X957556Y551695D01*
X957555Y551681D01*
X957552Y551668D01*
X957525Y551338D01*
X957525Y546168D01*
X957527Y546150D01*
X957525Y546132D01*
X957546Y545950D01*
X957565Y545767D01*
X957570Y545750D01*
X957572Y545733D01*
X957629Y545558D01*
X957683Y545382D01*
X957691Y545367D01*
X957697Y545350D01*
X957787Y545190D01*
X957875Y545028D01*
X957886Y545015D01*
X957895Y544999D01*
X958015Y544860D01*
X958132Y544719D01*
X958146Y544708D01*
X958158Y544694D01*
X958303Y544582D01*
X958446Y544467D01*
X958462Y544459D01*
X958476Y544448D01*
X958641Y544366D01*
X958803Y544281D01*
X958820Y544276D01*
X958836Y544268D01*
X959015Y544221D01*
X959190Y544170D01*
X959208Y544168D01*
X959225Y544164D01*
X959556Y544137D01*
X966753Y544137D01*
X968340Y543479D01*
X979700Y532120D01*
X979721Y532103D01*
X979738Y532082D01*
X979876Y531975D01*
X980011Y531865D01*
X980035Y531852D01*
X980056Y531836D01*
X980213Y531758D01*
X980367Y531676D01*
X980393Y531668D01*
X980417Y531656D01*
X980586Y531611D01*
X980753Y531561D01*
X980780Y531559D01*
X980806Y531552D01*
X981136Y531525D01*
X988132Y531525D01*
X989025Y530632D01*
X989025Y514368D01*
X988132Y513475D01*
X971868Y513475D01*
X970975Y514368D01*
X970975Y527788D01*
X970973Y527814D01*
X970975Y527841D01*
X970953Y528015D01*
X970935Y528188D01*
X970928Y528214D01*
X970924Y528241D01*
X970868Y528406D01*
X970817Y528573D01*
X970804Y528597D01*
X970796Y528622D01*
X970709Y528774D01*
X970625Y528927D01*
X970608Y528948D01*
X970595Y528971D01*
X970380Y529224D01*
X964700Y534904D01*
X964679Y534921D01*
X964662Y534942D01*
X964524Y535049D01*
X964389Y535159D01*
X964365Y535172D01*
X964344Y535188D01*
X964187Y535266D01*
X964033Y535348D01*
X964007Y535356D01*
X963983Y535368D01*
X963814Y535413D01*
X963647Y535463D01*
X963620Y535465D01*
X963594Y535472D01*
X963264Y535499D01*
X960572Y535499D01*
X960554Y535497D01*
X960536Y535499D01*
X960354Y535478D01*
X960171Y535459D01*
X960154Y535454D01*
X960137Y535452D01*
X959962Y535395D01*
X959786Y535341D01*
X959771Y535333D01*
X959754Y535327D01*
X959594Y535237D01*
X959432Y535149D01*
X959419Y535138D01*
X959403Y535129D01*
X959264Y535009D01*
X959123Y534892D01*
X959112Y534878D01*
X959098Y534866D01*
X958986Y534721D01*
X958871Y534578D01*
X958863Y534562D01*
X958852Y534548D01*
X958770Y534383D01*
X958685Y534221D01*
X958680Y534204D01*
X958672Y534188D01*
X958625Y534009D01*
X958574Y533834D01*
X958572Y533816D01*
X958568Y533799D01*
X958541Y533468D01*
X958541Y532499D01*
X950968Y532499D01*
X950950Y532497D01*
X950933Y532499D01*
X950750Y532478D01*
X950568Y532459D01*
X950551Y532454D01*
X950533Y532452D01*
X950358Y532395D01*
X950183Y532341D01*
X950167Y532333D01*
X950150Y532327D01*
X950001Y532243D01*
X949947Y532270D01*
X949784Y532355D01*
X949767Y532360D01*
X949751Y532368D01*
X949573Y532415D01*
X949398Y532466D01*
X949380Y532468D01*
X949363Y532472D01*
X949032Y532499D01*
X941459Y532499D01*
X941459Y533468D01*
X941457Y533486D01*
X941459Y533504D01*
X941438Y533686D01*
X941419Y533869D01*
X941414Y533886D01*
X941412Y533903D01*
X941355Y534078D01*
X941301Y534254D01*
X941293Y534269D01*
X941287Y534286D01*
X941197Y534446D01*
X941109Y534608D01*
X941098Y534621D01*
X941089Y534637D01*
X940969Y534776D01*
X940852Y534917D01*
X940838Y534928D01*
X940826Y534942D01*
X940681Y535054D01*
X940538Y535169D01*
X940522Y535177D01*
X940508Y535188D01*
X940343Y535270D01*
X940181Y535355D01*
X940164Y535360D01*
X940148Y535368D01*
X939969Y535415D01*
X939794Y535466D01*
X939776Y535468D01*
X939759Y535472D01*
X939428Y535499D01*
X929061Y535499D01*
X929052Y535498D01*
X929043Y535499D01*
X928851Y535478D01*
X928660Y535459D01*
X928652Y535457D01*
X928643Y535456D01*
X928461Y535398D01*
X928275Y535341D01*
X928267Y535337D01*
X928259Y535334D01*
X928091Y535241D01*
X927921Y535149D01*
X927915Y535144D01*
X927907Y535139D01*
X927759Y535014D01*
X927612Y534892D01*
X927607Y534885D01*
X927600Y534879D01*
X927480Y534727D01*
X927360Y534578D01*
X927356Y534570D01*
X927350Y534563D01*
X927263Y534391D01*
X927174Y534221D01*
X927172Y534212D01*
X927168Y534204D01*
X927116Y534018D01*
X927063Y533834D01*
X927062Y533825D01*
X927060Y533816D01*
X927046Y533624D01*
X927030Y533432D01*
X927031Y533424D01*
X927030Y533415D01*
X927055Y533222D01*
X927077Y533033D01*
X927080Y533024D01*
X927081Y533015D01*
X927142Y532832D01*
X927202Y532650D01*
X927206Y532642D01*
X927209Y532634D01*
X927305Y532467D01*
X927400Y532299D01*
X927405Y532292D01*
X927410Y532285D01*
X927625Y532032D01*
X929025Y530632D01*
X929025Y514368D01*
X928132Y513475D01*
X911868Y513475D01*
X910975Y514368D01*
X910975Y530632D01*
X912375Y532032D01*
X912381Y532039D01*
X912388Y532044D01*
X912508Y532194D01*
X912630Y532343D01*
X912635Y532351D01*
X912640Y532358D01*
X912729Y532528D01*
X912819Y532699D01*
X912822Y532708D01*
X912826Y532715D01*
X912879Y532900D01*
X912934Y533085D01*
X912935Y533094D01*
X912937Y533102D01*
X912953Y533293D01*
X912970Y533486D01*
X912969Y533495D01*
X912970Y533504D01*
X912948Y533693D01*
X912927Y533886D01*
X912924Y533895D01*
X912923Y533903D01*
X912864Y534085D01*
X912805Y534270D01*
X912801Y534278D01*
X912798Y534286D01*
X912704Y534453D01*
X912611Y534622D01*
X912605Y534629D01*
X912600Y534637D01*
X912475Y534782D01*
X912350Y534929D01*
X912343Y534935D01*
X912337Y534942D01*
X912187Y535058D01*
X912034Y535179D01*
X912026Y535183D01*
X912019Y535188D01*
X911848Y535274D01*
X911675Y535361D01*
X911667Y535364D01*
X911659Y535368D01*
X911473Y535418D01*
X911287Y535469D01*
X911278Y535470D01*
X911270Y535472D01*
X910939Y535499D01*
X900572Y535499D01*
X900554Y535497D01*
X900536Y535499D01*
X900354Y535478D01*
X900171Y535459D01*
X900154Y535454D01*
X900137Y535452D01*
X899962Y535395D01*
X899786Y535341D01*
X899771Y535333D01*
X899754Y535327D01*
X899594Y535237D01*
X899432Y535149D01*
X899419Y535138D01*
X899403Y535129D01*
X899264Y535009D01*
X899123Y534892D01*
X899112Y534878D01*
X899098Y534866D01*
X898986Y534721D01*
X898871Y534578D01*
X898863Y534562D01*
X898852Y534548D01*
X898770Y534383D01*
X898685Y534221D01*
X898680Y534204D01*
X898672Y534188D01*
X898625Y534009D01*
X898574Y533834D01*
X898572Y533816D01*
X898568Y533799D01*
X898541Y533468D01*
X898541Y532499D01*
X890968Y532499D01*
X890950Y532497D01*
X890933Y532499D01*
X890750Y532478D01*
X890568Y532459D01*
X890551Y532454D01*
X890533Y532452D01*
X890358Y532395D01*
X890183Y532341D01*
X890167Y532333D01*
X890150Y532327D01*
X890001Y532243D01*
X889947Y532270D01*
X889784Y532355D01*
X889767Y532360D01*
X889751Y532368D01*
X889573Y532415D01*
X889398Y532466D01*
X889380Y532468D01*
X889363Y532472D01*
X889032Y532499D01*
X881459Y532499D01*
X881459Y533468D01*
X881457Y533486D01*
X881459Y533504D01*
X881438Y533686D01*
X881419Y533869D01*
X881414Y533886D01*
X881412Y533903D01*
X881355Y534078D01*
X881301Y534254D01*
X881293Y534269D01*
X881287Y534286D01*
X881197Y534446D01*
X881109Y534608D01*
X881098Y534621D01*
X881089Y534637D01*
X880969Y534776D01*
X880852Y534917D01*
X880838Y534928D01*
X880826Y534942D01*
X880681Y535054D01*
X880538Y535169D01*
X880522Y535177D01*
X880508Y535188D01*
X880343Y535270D01*
X880181Y535355D01*
X880164Y535360D01*
X880148Y535368D01*
X879969Y535415D01*
X879794Y535466D01*
X879776Y535468D01*
X879759Y535472D01*
X879428Y535499D01*
X869061Y535499D01*
X869052Y535498D01*
X869043Y535499D01*
X868851Y535478D01*
X868660Y535459D01*
X868652Y535457D01*
X868643Y535456D01*
X868461Y535398D01*
X868275Y535341D01*
X868267Y535337D01*
X868259Y535334D01*
X868091Y535241D01*
X867921Y535149D01*
X867915Y535144D01*
X867907Y535139D01*
X867759Y535014D01*
X867612Y534892D01*
X867607Y534885D01*
X867600Y534879D01*
X867480Y534727D01*
X867360Y534578D01*
X867356Y534570D01*
X867350Y534563D01*
X867263Y534391D01*
X867174Y534221D01*
X867172Y534212D01*
X867168Y534204D01*
X867116Y534018D01*
X867063Y533834D01*
X867062Y533825D01*
X867060Y533816D01*
X867046Y533624D01*
X867030Y533432D01*
X867031Y533424D01*
X867030Y533415D01*
X867055Y533222D01*
X867077Y533033D01*
X867080Y533024D01*
X867081Y533015D01*
X867142Y532832D01*
X867202Y532650D01*
X867206Y532642D01*
X867209Y532634D01*
X867305Y532467D01*
X867400Y532299D01*
X867405Y532292D01*
X867410Y532285D01*
X867625Y532032D01*
X869025Y530632D01*
X869025Y514368D01*
X868132Y513475D01*
X851868Y513475D01*
X850975Y514368D01*
X850975Y530632D01*
X852375Y532032D01*
X852381Y532039D01*
X852388Y532044D01*
X852508Y532194D01*
X852630Y532343D01*
X852635Y532351D01*
X852640Y532358D01*
X852729Y532528D01*
X852819Y532699D01*
X852822Y532708D01*
X852826Y532715D01*
X852879Y532900D01*
X852934Y533085D01*
X852935Y533094D01*
X852937Y533102D01*
X852953Y533293D01*
X852970Y533486D01*
X852969Y533495D01*
X852970Y533504D01*
X852948Y533693D01*
X852927Y533886D01*
X852924Y533895D01*
X852923Y533903D01*
X852864Y534085D01*
X852805Y534270D01*
X852801Y534278D01*
X852798Y534286D01*
X852704Y534453D01*
X852611Y534622D01*
X852605Y534629D01*
X852600Y534637D01*
X852475Y534782D01*
X852350Y534929D01*
X852343Y534935D01*
X852337Y534942D01*
X852187Y535058D01*
X852034Y535179D01*
X852026Y535183D01*
X852019Y535188D01*
X851848Y535274D01*
X851675Y535361D01*
X851667Y535364D01*
X851659Y535368D01*
X851473Y535418D01*
X851287Y535469D01*
X851278Y535470D01*
X851270Y535472D01*
X850939Y535499D01*
X840572Y535499D01*
X840554Y535497D01*
X840536Y535499D01*
X840354Y535478D01*
X840171Y535459D01*
X840154Y535454D01*
X840137Y535452D01*
X839962Y535395D01*
X839786Y535341D01*
X839771Y535333D01*
X839754Y535327D01*
X839594Y535237D01*
X839432Y535149D01*
X839419Y535138D01*
X839403Y535129D01*
X839264Y535009D01*
X839123Y534892D01*
X839112Y534878D01*
X839098Y534866D01*
X838986Y534721D01*
X838871Y534578D01*
X838863Y534562D01*
X838852Y534548D01*
X838770Y534383D01*
X838685Y534221D01*
X838680Y534204D01*
X838672Y534188D01*
X838625Y534009D01*
X838574Y533834D01*
X838572Y533816D01*
X838568Y533799D01*
X838541Y533468D01*
X838541Y532499D01*
X830968Y532499D01*
X830950Y532497D01*
X830933Y532499D01*
X830750Y532478D01*
X830568Y532459D01*
X830551Y532454D01*
X830533Y532452D01*
X830358Y532395D01*
X830183Y532341D01*
X830167Y532333D01*
X830150Y532327D01*
X830001Y532243D01*
X829947Y532270D01*
X829784Y532355D01*
X829767Y532360D01*
X829751Y532368D01*
X829573Y532415D01*
X829398Y532466D01*
X829380Y532468D01*
X829363Y532472D01*
X829032Y532499D01*
X821459Y532499D01*
X821459Y533468D01*
X821457Y533486D01*
X821459Y533504D01*
X821438Y533686D01*
X821419Y533869D01*
X821414Y533886D01*
X821412Y533903D01*
X821355Y534078D01*
X821301Y534254D01*
X821293Y534269D01*
X821287Y534286D01*
X821197Y534446D01*
X821109Y534608D01*
X821098Y534621D01*
X821089Y534637D01*
X820969Y534776D01*
X820852Y534917D01*
X820838Y534928D01*
X820826Y534942D01*
X820681Y535054D01*
X820538Y535169D01*
X820522Y535177D01*
X820508Y535188D01*
X820343Y535270D01*
X820181Y535355D01*
X820164Y535360D01*
X820148Y535368D01*
X819969Y535415D01*
X819794Y535466D01*
X819776Y535468D01*
X819759Y535472D01*
X819428Y535499D01*
X809061Y535499D01*
X809052Y535498D01*
X809043Y535499D01*
X808851Y535478D01*
X808660Y535459D01*
X808652Y535457D01*
X808643Y535456D01*
X808461Y535398D01*
X808275Y535341D01*
X808267Y535337D01*
X808259Y535334D01*
X808091Y535241D01*
X807921Y535149D01*
X807915Y535144D01*
X807907Y535139D01*
X807759Y535014D01*
X807612Y534892D01*
X807607Y534885D01*
X807600Y534879D01*
X807480Y534727D01*
X807360Y534578D01*
X807356Y534570D01*
X807350Y534563D01*
X807263Y534391D01*
X807174Y534221D01*
X807172Y534212D01*
X807168Y534204D01*
X807116Y534018D01*
X807063Y533834D01*
X807062Y533825D01*
X807060Y533816D01*
X807046Y533624D01*
X807030Y533432D01*
X807031Y533424D01*
X807030Y533415D01*
X807055Y533222D01*
X807077Y533033D01*
X807080Y533024D01*
X807081Y533015D01*
X807142Y532832D01*
X807202Y532650D01*
X807206Y532642D01*
X807209Y532634D01*
X807305Y532467D01*
X807400Y532299D01*
X807405Y532292D01*
X807410Y532285D01*
X807625Y532032D01*
X809025Y530632D01*
X809025Y514368D01*
X808132Y513475D01*
X791868Y513475D01*
X790975Y514368D01*
X790975Y530632D01*
X792375Y532032D01*
X792381Y532039D01*
X792388Y532044D01*
X792508Y532194D01*
X792630Y532343D01*
X792635Y532351D01*
X792640Y532358D01*
X792729Y532528D01*
X792819Y532699D01*
X792822Y532708D01*
X792826Y532715D01*
X792879Y532900D01*
X792934Y533085D01*
X792935Y533094D01*
X792937Y533102D01*
X792953Y533293D01*
X792970Y533486D01*
X792969Y533495D01*
X792970Y533504D01*
X792948Y533693D01*
X792927Y533886D01*
X792924Y533895D01*
X792923Y533903D01*
X792864Y534085D01*
X792805Y534270D01*
X792801Y534278D01*
X792798Y534286D01*
X792704Y534453D01*
X792611Y534622D01*
X792605Y534629D01*
X792600Y534637D01*
X792475Y534782D01*
X792350Y534929D01*
X792343Y534935D01*
X792337Y534942D01*
X792187Y535058D01*
X792034Y535179D01*
X792026Y535183D01*
X792019Y535188D01*
X791848Y535274D01*
X791675Y535361D01*
X791667Y535364D01*
X791659Y535368D01*
X791473Y535418D01*
X791287Y535469D01*
X791278Y535470D01*
X791270Y535472D01*
X790939Y535499D01*
X780572Y535499D01*
X780554Y535497D01*
X780536Y535499D01*
X780354Y535478D01*
X780171Y535459D01*
X780154Y535454D01*
X780137Y535452D01*
X779962Y535395D01*
X779786Y535341D01*
X779771Y535333D01*
X779754Y535327D01*
X779594Y535237D01*
X779432Y535149D01*
X779419Y535138D01*
X779403Y535129D01*
X779264Y535009D01*
X779123Y534892D01*
X779112Y534878D01*
X779098Y534866D01*
X778986Y534721D01*
X778871Y534578D01*
X778863Y534562D01*
X778852Y534548D01*
X778770Y534383D01*
X778685Y534221D01*
X778680Y534204D01*
X778672Y534188D01*
X778625Y534009D01*
X778574Y533834D01*
X778572Y533816D01*
X778568Y533799D01*
X778541Y533468D01*
X778541Y532499D01*
X770968Y532499D01*
X770950Y532497D01*
X770933Y532499D01*
X770750Y532478D01*
X770568Y532459D01*
X770551Y532454D01*
X770533Y532452D01*
X770358Y532395D01*
X770183Y532341D01*
X770167Y532333D01*
X770150Y532327D01*
X770001Y532243D01*
X769947Y532270D01*
X769784Y532355D01*
X769767Y532360D01*
X769751Y532368D01*
X769573Y532415D01*
X769398Y532466D01*
X769380Y532468D01*
X769363Y532472D01*
X769032Y532499D01*
X761459Y532499D01*
X761459Y533468D01*
X761457Y533486D01*
X761459Y533504D01*
X761438Y533686D01*
X761419Y533869D01*
X761414Y533886D01*
X761412Y533903D01*
X761355Y534078D01*
X761301Y534254D01*
X761293Y534269D01*
X761287Y534286D01*
X761197Y534446D01*
X761109Y534608D01*
X761098Y534621D01*
X761089Y534637D01*
X760969Y534776D01*
X760852Y534917D01*
X760838Y534928D01*
X760826Y534942D01*
X760681Y535054D01*
X760538Y535169D01*
X760522Y535177D01*
X760508Y535188D01*
X760343Y535270D01*
X760181Y535355D01*
X760164Y535360D01*
X760148Y535368D01*
X759969Y535415D01*
X759794Y535466D01*
X759776Y535468D01*
X759759Y535472D01*
X759428Y535499D01*
X749061Y535499D01*
X749052Y535498D01*
X749043Y535499D01*
X748851Y535478D01*
X748660Y535459D01*
X748652Y535457D01*
X748643Y535456D01*
X748461Y535398D01*
X748275Y535341D01*
X748267Y535337D01*
X748259Y535334D01*
X748091Y535241D01*
X747921Y535149D01*
X747915Y535144D01*
X747907Y535139D01*
X747759Y535014D01*
X747612Y534892D01*
X747607Y534885D01*
X747600Y534879D01*
X747480Y534727D01*
X747360Y534578D01*
X747356Y534570D01*
X747350Y534563D01*
X747263Y534391D01*
X747174Y534221D01*
X747172Y534212D01*
X747168Y534204D01*
X747116Y534018D01*
X747063Y533834D01*
X747062Y533825D01*
X747060Y533816D01*
X747046Y533624D01*
X747030Y533432D01*
X747031Y533424D01*
X747030Y533415D01*
X747055Y533222D01*
X747077Y533033D01*
X747080Y533024D01*
X747081Y533015D01*
X747142Y532832D01*
X747202Y532650D01*
X747206Y532642D01*
X747209Y532634D01*
X747305Y532467D01*
X747400Y532299D01*
X747405Y532292D01*
X747410Y532285D01*
X747625Y532032D01*
X749025Y530632D01*
X749025Y514368D01*
X748132Y513475D01*
X731868Y513475D01*
X730975Y514368D01*
X730975Y530632D01*
X732375Y532032D01*
X732381Y532039D01*
X732388Y532044D01*
X732508Y532194D01*
X732630Y532343D01*
X732635Y532351D01*
X732640Y532358D01*
X732729Y532528D01*
X732819Y532699D01*
X732822Y532708D01*
X732826Y532715D01*
X732879Y532900D01*
X732934Y533085D01*
X732935Y533094D01*
X732937Y533102D01*
X732953Y533293D01*
X732970Y533486D01*
X732969Y533495D01*
X732970Y533504D01*
X732948Y533693D01*
X732927Y533886D01*
X732924Y533895D01*
X732923Y533903D01*
X732864Y534085D01*
X732805Y534270D01*
X732801Y534278D01*
X732798Y534286D01*
X732704Y534453D01*
X732611Y534622D01*
X732605Y534629D01*
X732600Y534637D01*
X732475Y534782D01*
X732350Y534929D01*
X732343Y534935D01*
X732337Y534942D01*
X732187Y535058D01*
X732034Y535179D01*
X732026Y535183D01*
X732019Y535188D01*
X731848Y535274D01*
X731675Y535361D01*
X731667Y535364D01*
X731659Y535368D01*
X731473Y535418D01*
X731287Y535469D01*
X731278Y535470D01*
X731270Y535472D01*
X730939Y535499D01*
X720572Y535499D01*
X720554Y535497D01*
X720536Y535499D01*
X720354Y535478D01*
X720171Y535459D01*
X720154Y535454D01*
X720137Y535452D01*
X719962Y535395D01*
X719786Y535341D01*
X719771Y535333D01*
X719754Y535327D01*
X719594Y535237D01*
X719432Y535149D01*
X719419Y535138D01*
X719403Y535129D01*
X719264Y535009D01*
X719123Y534892D01*
X719112Y534878D01*
X719098Y534866D01*
X718986Y534721D01*
X718871Y534578D01*
X718863Y534562D01*
X718852Y534548D01*
X718770Y534383D01*
X718685Y534221D01*
X718680Y534204D01*
X718672Y534188D01*
X718625Y534009D01*
X718574Y533834D01*
X718572Y533816D01*
X718568Y533799D01*
X718541Y533468D01*
X718541Y532499D01*
X710968Y532499D01*
X710950Y532497D01*
X710933Y532499D01*
X710750Y532478D01*
X710568Y532459D01*
X710551Y532454D01*
X710533Y532452D01*
X710358Y532395D01*
X710183Y532341D01*
X710167Y532333D01*
X710150Y532327D01*
X710001Y532243D01*
X709947Y532270D01*
X709784Y532355D01*
X709767Y532360D01*
X709751Y532368D01*
X709573Y532415D01*
X709398Y532466D01*
X709380Y532468D01*
X709363Y532472D01*
X709032Y532499D01*
X701459Y532499D01*
X701459Y533468D01*
X701457Y533486D01*
X701459Y533504D01*
X701438Y533686D01*
X701419Y533869D01*
X701414Y533886D01*
X701412Y533903D01*
X701355Y534078D01*
X701301Y534254D01*
X701293Y534269D01*
X701287Y534286D01*
X701197Y534446D01*
X701109Y534608D01*
X701098Y534621D01*
X701089Y534637D01*
X700969Y534776D01*
X700852Y534917D01*
X700838Y534928D01*
X700826Y534942D01*
X700681Y535054D01*
X700538Y535169D01*
X700522Y535177D01*
X700508Y535188D01*
X700343Y535270D01*
X700181Y535355D01*
X700164Y535360D01*
X700148Y535368D01*
X699969Y535415D01*
X699794Y535466D01*
X699776Y535468D01*
X699759Y535472D01*
X699428Y535499D01*
X689061Y535499D01*
X689052Y535498D01*
X689043Y535499D01*
X688851Y535478D01*
X688660Y535459D01*
X688652Y535457D01*
X688643Y535456D01*
X688461Y535398D01*
X688275Y535341D01*
X688267Y535337D01*
X688259Y535334D01*
X688091Y535241D01*
X687921Y535149D01*
X687915Y535144D01*
X687907Y535139D01*
X687759Y535014D01*
X687612Y534892D01*
X687607Y534885D01*
X687600Y534879D01*
X687480Y534727D01*
X687360Y534578D01*
X687356Y534570D01*
X687350Y534563D01*
X687263Y534391D01*
X687174Y534221D01*
X687172Y534212D01*
X687168Y534204D01*
X687116Y534018D01*
X687063Y533834D01*
X687062Y533825D01*
X687060Y533816D01*
X687046Y533624D01*
X687030Y533432D01*
X687031Y533424D01*
X687030Y533415D01*
X687055Y533222D01*
X687077Y533033D01*
X687080Y533024D01*
X687081Y533015D01*
X687142Y532832D01*
X687202Y532650D01*
X687206Y532642D01*
X687209Y532634D01*
X687305Y532467D01*
X687400Y532299D01*
X687405Y532292D01*
X687410Y532285D01*
X687625Y532032D01*
X689025Y530632D01*
X689025Y514368D01*
X688132Y513475D01*
X671868Y513475D01*
X670975Y514368D01*
X670975Y530632D01*
X672375Y532032D01*
X672381Y532039D01*
X672388Y532044D01*
X672508Y532194D01*
X672630Y532343D01*
X672635Y532351D01*
X672640Y532358D01*
X672729Y532528D01*
X672819Y532699D01*
X672822Y532708D01*
X672826Y532715D01*
X672879Y532900D01*
X672934Y533085D01*
X672935Y533094D01*
X672937Y533102D01*
X672953Y533293D01*
X672970Y533486D01*
X672969Y533495D01*
X672970Y533504D01*
X672948Y533693D01*
X672927Y533886D01*
X672924Y533895D01*
X672923Y533903D01*
X672864Y534085D01*
X672805Y534270D01*
X672801Y534278D01*
X672798Y534286D01*
X672704Y534453D01*
X672611Y534622D01*
X672605Y534629D01*
X672600Y534637D01*
X672475Y534782D01*
X672350Y534929D01*
X672343Y534935D01*
X672337Y534942D01*
X672187Y535058D01*
X672034Y535179D01*
X672026Y535183D01*
X672019Y535188D01*
X671848Y535274D01*
X671675Y535361D01*
X671667Y535364D01*
X671659Y535368D01*
X671473Y535418D01*
X671287Y535469D01*
X671278Y535470D01*
X671270Y535472D01*
X670939Y535499D01*
X660572Y535499D01*
X660554Y535497D01*
X660536Y535499D01*
X660354Y535478D01*
X660171Y535459D01*
X660154Y535454D01*
X660137Y535452D01*
X659962Y535395D01*
X659786Y535341D01*
X659771Y535333D01*
X659754Y535327D01*
X659594Y535237D01*
X659432Y535149D01*
X659419Y535138D01*
X659403Y535129D01*
X659264Y535009D01*
X659123Y534892D01*
X659112Y534878D01*
X659098Y534866D01*
X658986Y534721D01*
X658871Y534578D01*
X658863Y534562D01*
X658852Y534548D01*
X658770Y534383D01*
X658685Y534221D01*
X658680Y534204D01*
X658672Y534188D01*
X658625Y534009D01*
X658574Y533834D01*
X658572Y533816D01*
X658568Y533799D01*
X658541Y533468D01*
X658541Y532499D01*
X650968Y532499D01*
X650950Y532497D01*
X650933Y532499D01*
X650750Y532478D01*
X650568Y532459D01*
X650551Y532454D01*
X650533Y532452D01*
X650358Y532395D01*
X650183Y532341D01*
X650167Y532333D01*
X650150Y532327D01*
X650001Y532243D01*
X649947Y532270D01*
X649784Y532355D01*
X649767Y532360D01*
X649751Y532368D01*
X649573Y532415D01*
X649398Y532466D01*
X649380Y532468D01*
X649363Y532472D01*
X649032Y532499D01*
X641459Y532499D01*
X641459Y533468D01*
X641457Y533486D01*
X641459Y533504D01*
X641438Y533686D01*
X641419Y533869D01*
X641414Y533886D01*
X641412Y533903D01*
X641355Y534078D01*
X641301Y534254D01*
X641293Y534269D01*
X641287Y534286D01*
X641197Y534446D01*
X641109Y534608D01*
X641098Y534621D01*
X641089Y534637D01*
X640969Y534776D01*
X640852Y534917D01*
X640838Y534928D01*
X640826Y534942D01*
X640681Y535054D01*
X640538Y535169D01*
X640522Y535177D01*
X640508Y535188D01*
X640343Y535270D01*
X640181Y535355D01*
X640164Y535360D01*
X640148Y535368D01*
X639969Y535415D01*
X639794Y535466D01*
X639776Y535468D01*
X639759Y535472D01*
X639428Y535499D01*
X629061Y535499D01*
X629052Y535498D01*
X629043Y535499D01*
X628851Y535478D01*
X628660Y535459D01*
X628652Y535457D01*
X628643Y535456D01*
X628461Y535398D01*
X628275Y535341D01*
X628267Y535337D01*
X628259Y535334D01*
X628091Y535241D01*
X627921Y535149D01*
X627915Y535144D01*
X627907Y535139D01*
X627759Y535014D01*
X627612Y534892D01*
X627607Y534885D01*
X627600Y534879D01*
X627480Y534727D01*
X627360Y534578D01*
X627356Y534570D01*
X627350Y534563D01*
X627263Y534391D01*
X627174Y534221D01*
X627172Y534212D01*
X627168Y534204D01*
X627116Y534018D01*
X627063Y533834D01*
X627062Y533825D01*
X627060Y533816D01*
X627046Y533624D01*
X627030Y533432D01*
X627031Y533424D01*
X627030Y533415D01*
X627055Y533222D01*
X627077Y533033D01*
X627080Y533024D01*
X627081Y533015D01*
X627142Y532832D01*
X627202Y532650D01*
X627206Y532642D01*
X627209Y532634D01*
X627305Y532467D01*
X627400Y532299D01*
X627405Y532292D01*
X627410Y532285D01*
X627625Y532032D01*
X629025Y530632D01*
X629025Y514368D01*
X628132Y513475D01*
X611868Y513475D01*
X610975Y514368D01*
X610975Y530632D01*
X612375Y532032D01*
X612381Y532039D01*
X612388Y532044D01*
X612508Y532194D01*
X612630Y532343D01*
X612635Y532351D01*
X612640Y532358D01*
X612729Y532528D01*
X612819Y532699D01*
X612822Y532708D01*
X612826Y532715D01*
X612879Y532900D01*
X612934Y533085D01*
X612935Y533094D01*
X612937Y533102D01*
X612953Y533293D01*
X612970Y533486D01*
X612969Y533495D01*
X612970Y533504D01*
X612948Y533693D01*
X612927Y533886D01*
X612924Y533895D01*
X612923Y533903D01*
X612864Y534085D01*
X612805Y534270D01*
X612801Y534278D01*
X612798Y534286D01*
X612704Y534453D01*
X612611Y534622D01*
X612605Y534629D01*
X612600Y534637D01*
X612475Y534782D01*
X612350Y534929D01*
X612343Y534935D01*
X612337Y534942D01*
X612187Y535058D01*
X612034Y535179D01*
X612026Y535183D01*
X612019Y535188D01*
X611848Y535274D01*
X611675Y535361D01*
X611667Y535364D01*
X611659Y535368D01*
X611473Y535418D01*
X611287Y535469D01*
X611278Y535470D01*
X611270Y535472D01*
X610939Y535499D01*
X600572Y535499D01*
X600554Y535497D01*
X600536Y535499D01*
X600354Y535478D01*
X600171Y535459D01*
X600154Y535454D01*
X600137Y535452D01*
X599962Y535395D01*
X599786Y535341D01*
X599771Y535333D01*
X599754Y535327D01*
X599594Y535237D01*
X599432Y535149D01*
X599419Y535138D01*
X599403Y535129D01*
X599264Y535009D01*
X599123Y534892D01*
X599112Y534878D01*
X599098Y534866D01*
X598986Y534721D01*
X598871Y534578D01*
X598863Y534562D01*
X598852Y534548D01*
X598770Y534383D01*
X598685Y534221D01*
X598680Y534204D01*
X598672Y534188D01*
X598625Y534009D01*
X598574Y533834D01*
X598572Y533816D01*
X598568Y533799D01*
X598541Y533468D01*
X598541Y532499D01*
X590968Y532499D01*
X590950Y532497D01*
X590933Y532499D01*
X590750Y532478D01*
X590568Y532459D01*
X590551Y532454D01*
X590533Y532452D01*
X590358Y532395D01*
X590183Y532341D01*
X590167Y532333D01*
X590150Y532327D01*
X590001Y532243D01*
X589947Y532270D01*
X589784Y532355D01*
X589767Y532360D01*
X589751Y532368D01*
X589573Y532415D01*
X589398Y532466D01*
X589380Y532468D01*
X589363Y532472D01*
X589032Y532499D01*
X581459Y532499D01*
X581459Y533468D01*
X581457Y533486D01*
X581459Y533504D01*
X581438Y533686D01*
X581419Y533869D01*
X581414Y533886D01*
X581412Y533903D01*
X581355Y534078D01*
X581301Y534254D01*
X581293Y534269D01*
X581287Y534286D01*
X581197Y534446D01*
X581109Y534608D01*
X581098Y534621D01*
X581089Y534637D01*
X580969Y534776D01*
X580852Y534917D01*
X580838Y534928D01*
X580826Y534942D01*
X580681Y535054D01*
X580538Y535169D01*
X580522Y535177D01*
X580508Y535188D01*
X580343Y535270D01*
X580181Y535355D01*
X580164Y535360D01*
X580148Y535368D01*
X579969Y535415D01*
X579794Y535466D01*
X579776Y535468D01*
X579759Y535472D01*
X579428Y535499D01*
X569061Y535499D01*
X569052Y535498D01*
X569043Y535499D01*
X568851Y535478D01*
X568660Y535459D01*
X568652Y535457D01*
X568643Y535456D01*
X568461Y535398D01*
X568275Y535341D01*
X568267Y535337D01*
X568259Y535334D01*
X568091Y535241D01*
X567921Y535149D01*
X567915Y535144D01*
X567907Y535139D01*
X567759Y535014D01*
X567612Y534892D01*
X567607Y534885D01*
X567600Y534879D01*
X567480Y534727D01*
X567360Y534578D01*
X567356Y534570D01*
X567350Y534563D01*
X567263Y534391D01*
X567174Y534221D01*
X567172Y534212D01*
X567168Y534204D01*
X567116Y534018D01*
X567063Y533834D01*
X567062Y533825D01*
X567060Y533816D01*
X567046Y533624D01*
X567030Y533432D01*
X567031Y533424D01*
X567030Y533415D01*
X567055Y533222D01*
X567077Y533033D01*
X567080Y533024D01*
X567081Y533015D01*
X567142Y532832D01*
X567202Y532650D01*
X567206Y532642D01*
X567209Y532634D01*
X567305Y532467D01*
X567400Y532299D01*
X567405Y532292D01*
X567410Y532285D01*
X567625Y532032D01*
X569025Y530632D01*
X569025Y514368D01*
X568132Y513475D01*
X551601Y513475D01*
X551570Y513472D01*
X551539Y513474D01*
X551370Y513452D01*
X551201Y513435D01*
X551171Y513426D01*
X551140Y513422D01*
X550824Y513321D01*
X549696Y512853D01*
X547584Y512853D01*
G37*
%LPD*%
%LPC*%
G36*
X526248Y403125D02*
X526248Y403125D01*
X524298Y403933D01*
X522805Y405426D01*
X521997Y407376D01*
X521997Y409488D01*
X522805Y411438D01*
X524298Y412931D01*
X526310Y413764D01*
X526337Y413779D01*
X526367Y413789D01*
X526515Y413874D01*
X526665Y413954D01*
X526689Y413974D01*
X526716Y413990D01*
X526969Y414205D01*
X531534Y418770D01*
X531551Y418791D01*
X531572Y418808D01*
X531678Y418946D01*
X531789Y419081D01*
X531802Y419105D01*
X531818Y419126D01*
X531896Y419282D01*
X531978Y419437D01*
X531986Y419463D01*
X531998Y419487D01*
X532043Y419656D01*
X532093Y419823D01*
X532095Y419850D01*
X532102Y419876D01*
X532129Y420206D01*
X532129Y439996D01*
X532121Y440078D01*
X532123Y440160D01*
X532101Y440278D01*
X532089Y440396D01*
X532065Y440475D01*
X532051Y440556D01*
X532006Y440667D01*
X531971Y440781D01*
X531932Y440854D01*
X531902Y440930D01*
X531836Y441030D01*
X531779Y441135D01*
X531727Y441198D01*
X531682Y441267D01*
X531598Y441353D01*
X531522Y441445D01*
X531458Y441496D01*
X531400Y441555D01*
X531301Y441622D01*
X531208Y441697D01*
X531135Y441735D01*
X531067Y441781D01*
X530957Y441827D01*
X530851Y441883D01*
X530772Y441905D01*
X530696Y441937D01*
X530579Y441961D01*
X530464Y441994D01*
X530382Y442001D01*
X530301Y442017D01*
X530182Y442017D01*
X530062Y442027D01*
X529981Y442017D01*
X529899Y442017D01*
X529748Y441990D01*
X529663Y441980D01*
X529624Y441967D01*
X529572Y441958D01*
X529562Y441955D01*
X524977Y441955D01*
X524977Y449778D01*
X524975Y449796D01*
X524977Y449813D01*
X524956Y449996D01*
X524937Y450178D01*
X524932Y450195D01*
X524930Y450213D01*
X524873Y450388D01*
X524819Y450563D01*
X524811Y450579D01*
X524805Y450596D01*
X524715Y450756D01*
X524627Y450917D01*
X524616Y450931D01*
X524607Y450947D01*
X524487Y451086D01*
X524370Y451227D01*
X524356Y451238D01*
X524344Y451251D01*
X524199Y451364D01*
X524056Y451479D01*
X524040Y451487D01*
X524026Y451498D01*
X523861Y451580D01*
X523699Y451664D01*
X523682Y451669D01*
X523666Y451677D01*
X523487Y451725D01*
X523312Y451776D01*
X523294Y451777D01*
X523277Y451782D01*
X522946Y451809D01*
X522541Y451809D01*
X522541Y452214D01*
X522539Y452232D01*
X522541Y452250D01*
X522519Y452432D01*
X522501Y452615D01*
X522496Y452632D01*
X522494Y452649D01*
X522437Y452824D01*
X522383Y453000D01*
X522375Y453015D01*
X522369Y453032D01*
X522279Y453192D01*
X522191Y453354D01*
X522180Y453367D01*
X522171Y453383D01*
X522051Y453522D01*
X521933Y453663D01*
X521920Y453674D01*
X521908Y453688D01*
X521763Y453800D01*
X521620Y453915D01*
X521604Y453923D01*
X521590Y453934D01*
X521425Y454016D01*
X521262Y454101D01*
X521245Y454106D01*
X521229Y454114D01*
X521051Y454161D01*
X520876Y454212D01*
X520858Y454214D01*
X520841Y454218D01*
X520510Y454245D01*
X511687Y454245D01*
X511687Y457831D01*
X511860Y458477D01*
X512195Y459056D01*
X512745Y459607D01*
X512839Y459674D01*
X512895Y459734D01*
X512958Y459787D01*
X513032Y459881D01*
X513113Y459968D01*
X513156Y460039D01*
X513208Y460103D01*
X513262Y460210D01*
X513324Y460311D01*
X513353Y460389D01*
X513390Y460462D01*
X513422Y460577D01*
X513463Y460689D01*
X513476Y460771D01*
X513498Y460850D01*
X513507Y460969D01*
X513525Y461087D01*
X513521Y461169D01*
X513527Y461252D01*
X513512Y461370D01*
X513507Y461489D01*
X513487Y461569D01*
X513477Y461651D01*
X513439Y461764D01*
X513410Y461880D01*
X513375Y461955D01*
X513349Y462033D01*
X513289Y462136D01*
X513238Y462244D01*
X513189Y462310D01*
X513148Y462382D01*
X513049Y462498D01*
X512998Y462567D01*
X512967Y462594D01*
X512933Y462635D01*
X512703Y462864D01*
X512703Y477128D01*
X513246Y477671D01*
X513263Y477691D01*
X513284Y477709D01*
X513391Y477847D01*
X513501Y477982D01*
X513514Y478006D01*
X513530Y478027D01*
X513608Y478184D01*
X513690Y478338D01*
X513698Y478363D01*
X513710Y478387D01*
X513755Y478557D01*
X513805Y478724D01*
X513807Y478750D01*
X513814Y478776D01*
X513841Y479107D01*
X513841Y483835D01*
X513838Y483866D01*
X513840Y483897D01*
X513818Y484067D01*
X513801Y484236D01*
X513792Y484266D01*
X513788Y484297D01*
X513687Y484612D01*
X512853Y486624D01*
X512853Y488736D01*
X513661Y490686D01*
X515154Y492179D01*
X515567Y492350D01*
X517104Y492987D01*
X519216Y492987D01*
X521166Y492179D01*
X522659Y490686D01*
X523467Y488736D01*
X523467Y486624D01*
X522633Y484612D01*
X522624Y484583D01*
X522610Y484555D01*
X522566Y484390D01*
X522517Y484227D01*
X522514Y484196D01*
X522506Y484166D01*
X522479Y483835D01*
X522479Y480052D01*
X522481Y480034D01*
X522479Y480016D01*
X522500Y479834D01*
X522519Y479651D01*
X522524Y479634D01*
X522526Y479617D01*
X522583Y479442D01*
X522637Y479266D01*
X522645Y479251D01*
X522651Y479234D01*
X522741Y479074D01*
X522829Y478912D01*
X522840Y478899D01*
X522849Y478883D01*
X522969Y478744D01*
X523086Y478603D01*
X523100Y478592D01*
X523112Y478578D01*
X523257Y478466D01*
X523400Y478351D01*
X523416Y478343D01*
X523430Y478332D01*
X523595Y478250D01*
X523757Y478165D01*
X523774Y478160D01*
X523790Y478152D01*
X523969Y478105D01*
X524144Y478054D01*
X524162Y478052D01*
X524179Y478048D01*
X524510Y478021D01*
X529860Y478021D01*
X530527Y477354D01*
X530547Y477337D01*
X530565Y477316D01*
X530703Y477209D01*
X530838Y477099D01*
X530862Y477086D01*
X530883Y477070D01*
X531040Y476992D01*
X531194Y476910D01*
X531219Y476902D01*
X531243Y476890D01*
X531413Y476845D01*
X531580Y476795D01*
X531606Y476793D01*
X531632Y476786D01*
X531963Y476759D01*
X534259Y476759D01*
X535846Y476101D01*
X540109Y471838D01*
X540767Y470251D01*
X540767Y416717D01*
X540109Y415130D01*
X538609Y413629D01*
X533077Y408097D01*
X533057Y408073D01*
X533033Y408052D01*
X532929Y407917D01*
X532821Y407785D01*
X532807Y407758D01*
X532788Y407733D01*
X532636Y407438D01*
X531803Y405426D01*
X530310Y403933D01*
X528360Y403125D01*
X526248Y403125D01*
G37*
%LPD*%
%LPC*%
G36*
X553680Y418365D02*
X553680Y418365D01*
X551730Y419173D01*
X550237Y420666D01*
X549429Y422616D01*
X549429Y424728D01*
X550237Y426678D01*
X551092Y427533D01*
X551109Y427554D01*
X551130Y427571D01*
X551237Y427709D01*
X551347Y427845D01*
X551360Y427868D01*
X551376Y427889D01*
X551454Y428046D01*
X551536Y428200D01*
X551544Y428226D01*
X551556Y428250D01*
X551601Y428419D01*
X551651Y428586D01*
X551653Y428613D01*
X551660Y428639D01*
X551687Y428970D01*
X551687Y482847D01*
X564074Y495234D01*
X564091Y495255D01*
X564112Y495272D01*
X564219Y495410D01*
X564329Y495545D01*
X564342Y495569D01*
X564358Y495590D01*
X564436Y495747D01*
X564518Y495901D01*
X564526Y495927D01*
X564538Y495951D01*
X564583Y496120D01*
X564633Y496287D01*
X564635Y496314D01*
X564642Y496339D01*
X564669Y496670D01*
X564669Y497880D01*
X565477Y499830D01*
X566970Y501323D01*
X568920Y502131D01*
X571032Y502131D01*
X572982Y501323D01*
X574475Y499830D01*
X575283Y497880D01*
X575283Y495768D01*
X574475Y493818D01*
X572982Y492325D01*
X572279Y492034D01*
X571032Y491517D01*
X569822Y491517D01*
X569796Y491515D01*
X569769Y491517D01*
X569595Y491495D01*
X569422Y491477D01*
X569396Y491470D01*
X569369Y491466D01*
X569204Y491411D01*
X569037Y491359D01*
X569013Y491346D01*
X568988Y491338D01*
X568836Y491251D01*
X568683Y491167D01*
X568662Y491150D01*
X568639Y491137D01*
X568386Y490922D01*
X558380Y480916D01*
X558363Y480895D01*
X558342Y480878D01*
X558235Y480740D01*
X558125Y480605D01*
X558112Y480581D01*
X558096Y480560D01*
X558017Y480402D01*
X557936Y480249D01*
X557928Y480223D01*
X557916Y480199D01*
X557871Y480030D01*
X557821Y479863D01*
X557819Y479836D01*
X557812Y479811D01*
X557785Y479480D01*
X557785Y428970D01*
X557787Y428943D01*
X557785Y428916D01*
X557807Y428742D01*
X557825Y428569D01*
X557832Y428543D01*
X557836Y428517D01*
X557891Y428351D01*
X557943Y428184D01*
X557956Y428160D01*
X557964Y428135D01*
X558051Y427983D01*
X558135Y427830D01*
X558152Y427809D01*
X558165Y427786D01*
X558380Y427533D01*
X559235Y426678D01*
X560043Y424728D01*
X560043Y422616D01*
X559235Y420666D01*
X557742Y419173D01*
X555792Y418365D01*
X553680Y418365D01*
G37*
%LPD*%
%LPC*%
G36*
X480528Y412269D02*
X480528Y412269D01*
X478578Y413077D01*
X477085Y414570D01*
X476277Y416520D01*
X476277Y418632D01*
X477085Y420582D01*
X477940Y421437D01*
X477957Y421458D01*
X477978Y421475D01*
X478085Y421613D01*
X478195Y421749D01*
X478208Y421772D01*
X478224Y421793D01*
X478302Y421950D01*
X478384Y422104D01*
X478392Y422130D01*
X478404Y422154D01*
X478449Y422323D01*
X478499Y422490D01*
X478501Y422517D01*
X478508Y422543D01*
X478535Y422874D01*
X478535Y482382D01*
X478533Y482409D01*
X478535Y482436D01*
X478513Y482610D01*
X478495Y482783D01*
X478488Y482809D01*
X478484Y482835D01*
X478429Y483001D01*
X478377Y483168D01*
X478364Y483192D01*
X478356Y483217D01*
X478269Y483369D01*
X478185Y483522D01*
X478168Y483543D01*
X478155Y483566D01*
X477940Y483819D01*
X477085Y484674D01*
X476277Y486624D01*
X476277Y488736D01*
X477085Y490686D01*
X478578Y492179D01*
X478991Y492350D01*
X480528Y492987D01*
X482640Y492987D01*
X484590Y492179D01*
X486083Y490686D01*
X486891Y488736D01*
X486891Y486624D01*
X486083Y484674D01*
X485228Y483819D01*
X485211Y483798D01*
X485190Y483781D01*
X485083Y483643D01*
X484973Y483507D01*
X484960Y483484D01*
X484944Y483463D01*
X484866Y483306D01*
X484784Y483152D01*
X484776Y483126D01*
X484764Y483102D01*
X484719Y482933D01*
X484669Y482766D01*
X484667Y482739D01*
X484660Y482713D01*
X484633Y482382D01*
X484633Y422874D01*
X484635Y422847D01*
X484633Y422820D01*
X484655Y422646D01*
X484673Y422473D01*
X484680Y422447D01*
X484684Y422421D01*
X484739Y422255D01*
X484791Y422088D01*
X484804Y422064D01*
X484812Y422039D01*
X484899Y421887D01*
X484983Y421734D01*
X485000Y421713D01*
X485013Y421690D01*
X485228Y421437D01*
X486083Y420582D01*
X486891Y418632D01*
X486891Y416520D01*
X486083Y414570D01*
X484590Y413077D01*
X482640Y412269D01*
X480528Y412269D01*
G37*
%LPD*%
%LPC*%
G36*
X911868Y548475D02*
X911868Y548475D01*
X910975Y549368D01*
X910975Y565632D01*
X911868Y566525D01*
X912863Y566525D01*
X912876Y566526D01*
X912889Y566525D01*
X913076Y566546D01*
X913263Y566565D01*
X913276Y566569D01*
X913289Y566570D01*
X913469Y566628D01*
X913648Y566683D01*
X913660Y566689D01*
X913673Y566693D01*
X913838Y566785D01*
X914002Y566875D01*
X914012Y566883D01*
X914024Y566890D01*
X914168Y567013D01*
X914311Y567132D01*
X914320Y567143D01*
X914330Y567151D01*
X914446Y567300D01*
X914564Y567446D01*
X914570Y567458D01*
X914578Y567469D01*
X914663Y567637D01*
X914749Y567803D01*
X914753Y567816D01*
X914759Y567828D01*
X914809Y568009D01*
X914861Y568190D01*
X914862Y568204D01*
X914865Y568217D01*
X914878Y568403D01*
X914894Y568592D01*
X914892Y568605D01*
X914893Y568618D01*
X914869Y568804D01*
X914847Y568991D01*
X914843Y569004D01*
X914841Y569017D01*
X914739Y569333D01*
X914693Y569444D01*
X914693Y571556D01*
X915501Y573506D01*
X916994Y574999D01*
X918521Y575631D01*
X918944Y575807D01*
X921056Y575807D01*
X923006Y574999D01*
X923353Y574652D01*
X923374Y574635D01*
X923391Y574614D01*
X923529Y574507D01*
X923665Y574397D01*
X923688Y574384D01*
X923709Y574368D01*
X923866Y574290D01*
X924020Y574208D01*
X924046Y574200D01*
X924070Y574188D01*
X924239Y574143D01*
X924406Y574093D01*
X924433Y574091D01*
X924459Y574084D01*
X924467Y574083D01*
X927101Y571449D01*
X927101Y568397D01*
X927103Y568370D01*
X927101Y568344D01*
X927123Y568170D01*
X927141Y567996D01*
X927148Y567971D01*
X927152Y567944D01*
X927207Y567779D01*
X927259Y567611D01*
X927272Y567588D01*
X927280Y567563D01*
X927367Y567411D01*
X927451Y567257D01*
X927468Y567237D01*
X927481Y567214D01*
X927696Y566961D01*
X929025Y565632D01*
X929025Y549368D01*
X928132Y548475D01*
X911868Y548475D01*
G37*
%LPD*%
%LPC*%
G36*
X371868Y548475D02*
X371868Y548475D01*
X370975Y549368D01*
X370975Y565632D01*
X371868Y566525D01*
X372863Y566525D01*
X372876Y566526D01*
X372889Y566525D01*
X373076Y566546D01*
X373263Y566565D01*
X373276Y566569D01*
X373289Y566570D01*
X373469Y566628D01*
X373648Y566683D01*
X373660Y566689D01*
X373673Y566693D01*
X373838Y566785D01*
X374002Y566875D01*
X374012Y566883D01*
X374024Y566890D01*
X374168Y567013D01*
X374311Y567132D01*
X374320Y567143D01*
X374330Y567151D01*
X374446Y567300D01*
X374564Y567446D01*
X374570Y567458D01*
X374578Y567469D01*
X374663Y567637D01*
X374749Y567803D01*
X374753Y567816D01*
X374759Y567828D01*
X374809Y568009D01*
X374861Y568190D01*
X374862Y568204D01*
X374865Y568217D01*
X374878Y568403D01*
X374894Y568592D01*
X374892Y568605D01*
X374893Y568618D01*
X374869Y568804D01*
X374847Y568991D01*
X374843Y569004D01*
X374841Y569017D01*
X374739Y569333D01*
X374693Y569444D01*
X374693Y571556D01*
X375501Y573506D01*
X376994Y574999D01*
X378521Y575631D01*
X378944Y575807D01*
X381056Y575807D01*
X383006Y574999D01*
X384499Y573506D01*
X385307Y571556D01*
X385307Y571541D01*
X385309Y571514D01*
X385307Y571487D01*
X385329Y571313D01*
X385347Y571140D01*
X385354Y571115D01*
X385358Y571088D01*
X385413Y570922D01*
X385465Y570755D01*
X385478Y570732D01*
X385486Y570706D01*
X385573Y570555D01*
X385657Y570401D01*
X385674Y570381D01*
X385687Y570357D01*
X385902Y570104D01*
X387605Y568401D01*
X387605Y567893D01*
X387607Y567866D01*
X387605Y567840D01*
X387627Y567666D01*
X387645Y567492D01*
X387652Y567467D01*
X387656Y567440D01*
X387712Y567274D01*
X387763Y567107D01*
X387776Y567084D01*
X387784Y567058D01*
X387871Y566907D01*
X387955Y566753D01*
X387972Y566733D01*
X387985Y566710D01*
X388200Y566457D01*
X389025Y565632D01*
X389025Y549368D01*
X388132Y548475D01*
X371868Y548475D01*
G37*
%LPD*%
%LPC*%
G36*
X671868Y548475D02*
X671868Y548475D01*
X670975Y549368D01*
X670975Y565632D01*
X671868Y566525D01*
X672863Y566525D01*
X672876Y566526D01*
X672889Y566525D01*
X673076Y566546D01*
X673263Y566565D01*
X673276Y566569D01*
X673289Y566570D01*
X673469Y566628D01*
X673648Y566683D01*
X673660Y566689D01*
X673673Y566693D01*
X673838Y566785D01*
X674002Y566875D01*
X674012Y566883D01*
X674024Y566890D01*
X674168Y567013D01*
X674311Y567132D01*
X674320Y567143D01*
X674330Y567151D01*
X674446Y567300D01*
X674564Y567446D01*
X674570Y567458D01*
X674578Y567469D01*
X674663Y567637D01*
X674749Y567803D01*
X674753Y567816D01*
X674759Y567828D01*
X674809Y568009D01*
X674861Y568190D01*
X674862Y568204D01*
X674865Y568217D01*
X674878Y568403D01*
X674894Y568592D01*
X674892Y568605D01*
X674893Y568618D01*
X674869Y568804D01*
X674847Y568991D01*
X674843Y569004D01*
X674841Y569017D01*
X674739Y569333D01*
X674693Y569444D01*
X674693Y571556D01*
X675501Y573506D01*
X676994Y574999D01*
X678521Y575631D01*
X678944Y575807D01*
X681056Y575807D01*
X683006Y574999D01*
X684499Y573506D01*
X684519Y573458D01*
X684534Y573430D01*
X684543Y573401D01*
X684628Y573254D01*
X684709Y573103D01*
X684729Y573079D01*
X684744Y573052D01*
X684959Y572799D01*
X686309Y571449D01*
X686309Y568556D01*
X686311Y568538D01*
X686309Y568520D01*
X686330Y568338D01*
X686349Y568155D01*
X686354Y568138D01*
X686356Y568121D01*
X686413Y567946D01*
X686467Y567770D01*
X686475Y567755D01*
X686481Y567738D01*
X686571Y567578D01*
X686659Y567416D01*
X686670Y567403D01*
X686679Y567387D01*
X686799Y567248D01*
X686916Y567107D01*
X686930Y567096D01*
X686942Y567082D01*
X687087Y566970D01*
X687230Y566855D01*
X687246Y566847D01*
X687260Y566836D01*
X687425Y566754D01*
X687587Y566669D01*
X687604Y566664D01*
X687620Y566656D01*
X687799Y566609D01*
X687974Y566558D01*
X687992Y566556D01*
X688009Y566552D01*
X688113Y566543D01*
X689025Y565632D01*
X689025Y549368D01*
X688132Y548475D01*
X671868Y548475D01*
G37*
%LPD*%
%LPC*%
G36*
X851868Y548475D02*
X851868Y548475D01*
X850975Y549368D01*
X850975Y565632D01*
X851868Y566525D01*
X852863Y566525D01*
X852876Y566526D01*
X852889Y566525D01*
X853076Y566546D01*
X853263Y566565D01*
X853276Y566569D01*
X853289Y566570D01*
X853469Y566628D01*
X853648Y566683D01*
X853660Y566689D01*
X853673Y566693D01*
X853838Y566785D01*
X854002Y566875D01*
X854012Y566883D01*
X854024Y566890D01*
X854168Y567013D01*
X854311Y567132D01*
X854320Y567143D01*
X854330Y567151D01*
X854446Y567300D01*
X854564Y567446D01*
X854570Y567458D01*
X854578Y567469D01*
X854663Y567637D01*
X854749Y567803D01*
X854753Y567816D01*
X854759Y567828D01*
X854809Y568009D01*
X854861Y568190D01*
X854862Y568204D01*
X854865Y568217D01*
X854878Y568403D01*
X854894Y568592D01*
X854892Y568605D01*
X854893Y568618D01*
X854869Y568804D01*
X854847Y568991D01*
X854843Y569004D01*
X854841Y569017D01*
X854739Y569333D01*
X854693Y569444D01*
X854693Y571556D01*
X855501Y573506D01*
X856994Y574999D01*
X858521Y575631D01*
X858944Y575807D01*
X861056Y575807D01*
X863006Y574999D01*
X864499Y573506D01*
X864638Y573171D01*
X864652Y573144D01*
X864662Y573114D01*
X864747Y572967D01*
X864828Y572816D01*
X864848Y572792D01*
X864863Y572765D01*
X865078Y572512D01*
X866141Y571449D01*
X866141Y568556D01*
X866143Y568538D01*
X866141Y568520D01*
X866162Y568338D01*
X866181Y568155D01*
X866186Y568138D01*
X866188Y568121D01*
X866245Y567946D01*
X866299Y567770D01*
X866307Y567755D01*
X866313Y567738D01*
X866403Y567578D01*
X866491Y567416D01*
X866502Y567403D01*
X866511Y567387D01*
X866631Y567248D01*
X866748Y567107D01*
X866762Y567096D01*
X866774Y567082D01*
X866919Y566970D01*
X867062Y566855D01*
X867078Y566847D01*
X867092Y566836D01*
X867257Y566754D01*
X867419Y566669D01*
X867436Y566664D01*
X867452Y566656D01*
X867631Y566609D01*
X867806Y566558D01*
X867824Y566556D01*
X867841Y566552D01*
X868128Y566528D01*
X869025Y565632D01*
X869025Y549368D01*
X868132Y548475D01*
X851868Y548475D01*
G37*
%LPD*%
%LPC*%
G36*
X491868Y548475D02*
X491868Y548475D01*
X490975Y549368D01*
X490975Y565632D01*
X492032Y566689D01*
X492037Y566691D01*
X492054Y566697D01*
X492214Y566787D01*
X492376Y566875D01*
X492389Y566886D01*
X492405Y566895D01*
X492544Y567015D01*
X492685Y567132D01*
X492696Y567146D01*
X492710Y567158D01*
X492822Y567303D01*
X492937Y567446D01*
X492945Y567462D01*
X492956Y567476D01*
X493038Y567641D01*
X493123Y567803D01*
X493128Y567820D01*
X493136Y567836D01*
X493183Y568015D01*
X493234Y568190D01*
X493236Y568208D01*
X493240Y568225D01*
X493267Y568556D01*
X493267Y568797D01*
X494098Y569628D01*
X494115Y569649D01*
X494136Y569666D01*
X494243Y569805D01*
X494353Y569940D01*
X494366Y569963D01*
X494382Y569985D01*
X494460Y570141D01*
X494542Y570295D01*
X494550Y570321D01*
X494562Y570345D01*
X494607Y570514D01*
X494657Y570681D01*
X494659Y570708D01*
X494666Y570734D01*
X494693Y571065D01*
X494693Y571556D01*
X495501Y573506D01*
X496994Y574999D01*
X498521Y575631D01*
X498944Y575807D01*
X501056Y575807D01*
X503006Y574999D01*
X504499Y573506D01*
X505307Y571556D01*
X505307Y569444D01*
X505261Y569333D01*
X505257Y569320D01*
X505251Y569309D01*
X505199Y569128D01*
X505144Y568948D01*
X505143Y568935D01*
X505139Y568922D01*
X505124Y568733D01*
X505106Y568547D01*
X505107Y568534D01*
X505106Y568520D01*
X505128Y568334D01*
X505148Y568147D01*
X505152Y568134D01*
X505153Y568121D01*
X505212Y567942D01*
X505268Y567762D01*
X505274Y567751D01*
X505278Y567738D01*
X505371Y567573D01*
X505461Y567409D01*
X505469Y567399D01*
X505476Y567387D01*
X505598Y567246D01*
X505720Y567101D01*
X505731Y567093D01*
X505739Y567082D01*
X505887Y566968D01*
X506035Y566850D01*
X506047Y566844D01*
X506057Y566836D01*
X506226Y566752D01*
X506393Y566666D01*
X506406Y566662D01*
X506418Y566656D01*
X506600Y566607D01*
X506780Y566556D01*
X506794Y566555D01*
X506807Y566552D01*
X507137Y566525D01*
X508132Y566525D01*
X509025Y565632D01*
X509025Y549368D01*
X508132Y548475D01*
X491868Y548475D01*
G37*
%LPD*%
%LPC*%
G36*
X311868Y548475D02*
X311868Y548475D01*
X310975Y549368D01*
X310975Y565632D01*
X311868Y566525D01*
X312863Y566525D01*
X312876Y566526D01*
X312889Y566525D01*
X313076Y566546D01*
X313263Y566565D01*
X313276Y566569D01*
X313289Y566570D01*
X313469Y566628D01*
X313648Y566683D01*
X313660Y566689D01*
X313673Y566693D01*
X313838Y566785D01*
X314002Y566875D01*
X314012Y566883D01*
X314024Y566890D01*
X314168Y567013D01*
X314311Y567132D01*
X314320Y567143D01*
X314330Y567151D01*
X314446Y567300D01*
X314564Y567446D01*
X314570Y567458D01*
X314578Y567469D01*
X314663Y567637D01*
X314749Y567803D01*
X314753Y567816D01*
X314759Y567828D01*
X314809Y568009D01*
X314861Y568190D01*
X314862Y568204D01*
X314865Y568217D01*
X314878Y568403D01*
X314894Y568592D01*
X314892Y568605D01*
X314893Y568618D01*
X314869Y568804D01*
X314847Y568991D01*
X314843Y569004D01*
X314841Y569017D01*
X314739Y569333D01*
X314693Y569444D01*
X314693Y571556D01*
X315501Y573506D01*
X316994Y574999D01*
X318521Y575631D01*
X318944Y575807D01*
X321056Y575807D01*
X323006Y574999D01*
X324499Y573506D01*
X325307Y571556D01*
X325307Y571065D01*
X325309Y571038D01*
X325307Y571011D01*
X325329Y570837D01*
X325347Y570664D01*
X325354Y570639D01*
X325358Y570612D01*
X325414Y570446D01*
X325465Y570279D01*
X325478Y570256D01*
X325486Y570230D01*
X325573Y570079D01*
X325657Y569925D01*
X325674Y569905D01*
X325687Y569881D01*
X325902Y569628D01*
X326645Y568885D01*
X326645Y568556D01*
X326647Y568538D01*
X326645Y568520D01*
X326666Y568338D01*
X326685Y568155D01*
X326690Y568138D01*
X326692Y568121D01*
X326749Y567946D01*
X326803Y567770D01*
X326811Y567755D01*
X326817Y567738D01*
X326907Y567578D01*
X326995Y567416D01*
X327006Y567403D01*
X327015Y567387D01*
X327135Y567248D01*
X327252Y567107D01*
X327266Y567096D01*
X327278Y567082D01*
X327423Y566970D01*
X327566Y566855D01*
X327582Y566847D01*
X327596Y566836D01*
X327761Y566754D01*
X327923Y566669D01*
X327940Y566664D01*
X327956Y566656D01*
X328016Y566640D01*
X329025Y565632D01*
X329025Y549368D01*
X328132Y548475D01*
X311868Y548475D01*
G37*
%LPD*%
%LPC*%
G36*
X431868Y548475D02*
X431868Y548475D01*
X430975Y549368D01*
X430975Y565632D01*
X431868Y566525D01*
X432863Y566525D01*
X432876Y566526D01*
X432889Y566525D01*
X433076Y566546D01*
X433263Y566565D01*
X433276Y566569D01*
X433289Y566570D01*
X433469Y566628D01*
X433648Y566683D01*
X433660Y566689D01*
X433673Y566693D01*
X433838Y566785D01*
X434002Y566875D01*
X434012Y566883D01*
X434024Y566890D01*
X434168Y567013D01*
X434311Y567132D01*
X434320Y567143D01*
X434330Y567151D01*
X434446Y567300D01*
X434564Y567446D01*
X434570Y567458D01*
X434578Y567469D01*
X434663Y567637D01*
X434749Y567803D01*
X434753Y567816D01*
X434759Y567828D01*
X434809Y568009D01*
X434861Y568190D01*
X434862Y568204D01*
X434865Y568217D01*
X434878Y568403D01*
X434894Y568592D01*
X434892Y568605D01*
X434893Y568618D01*
X434869Y568804D01*
X434847Y568991D01*
X434843Y569004D01*
X434841Y569017D01*
X434739Y569333D01*
X434693Y569444D01*
X434693Y571556D01*
X435501Y573506D01*
X436994Y574999D01*
X438521Y575631D01*
X438944Y575807D01*
X441056Y575807D01*
X443006Y574999D01*
X444499Y573506D01*
X445307Y571556D01*
X445307Y571065D01*
X445309Y571038D01*
X445307Y571011D01*
X445329Y570837D01*
X445347Y570664D01*
X445354Y570639D01*
X445358Y570612D01*
X445414Y570446D01*
X445465Y570279D01*
X445478Y570256D01*
X445486Y570230D01*
X445517Y570177D01*
X445517Y568556D01*
X445519Y568538D01*
X445517Y568520D01*
X445538Y568338D01*
X445557Y568155D01*
X445562Y568138D01*
X445564Y568121D01*
X445621Y567946D01*
X445675Y567770D01*
X445683Y567755D01*
X445689Y567738D01*
X445779Y567578D01*
X445867Y567416D01*
X445878Y567403D01*
X445887Y567387D01*
X446007Y567248D01*
X446124Y567107D01*
X446138Y567096D01*
X446150Y567082D01*
X446295Y566970D01*
X446438Y566855D01*
X446454Y566847D01*
X446468Y566836D01*
X446633Y566754D01*
X446795Y566669D01*
X446812Y566664D01*
X446828Y566656D01*
X447007Y566609D01*
X447182Y566558D01*
X447200Y566556D01*
X447217Y566552D01*
X447548Y566525D01*
X448132Y566525D01*
X449025Y565632D01*
X449025Y549368D01*
X448132Y548475D01*
X431868Y548475D01*
G37*
%LPD*%
%LPC*%
G36*
X611868Y548475D02*
X611868Y548475D01*
X610975Y549368D01*
X610975Y565632D01*
X611868Y566525D01*
X612863Y566525D01*
X612876Y566526D01*
X612889Y566525D01*
X613076Y566546D01*
X613263Y566565D01*
X613276Y566569D01*
X613289Y566570D01*
X613469Y566628D01*
X613648Y566683D01*
X613660Y566689D01*
X613673Y566693D01*
X613838Y566785D01*
X614002Y566875D01*
X614012Y566883D01*
X614024Y566890D01*
X614168Y567013D01*
X614311Y567132D01*
X614320Y567143D01*
X614330Y567151D01*
X614446Y567300D01*
X614564Y567446D01*
X614570Y567458D01*
X614578Y567469D01*
X614663Y567637D01*
X614749Y567803D01*
X614753Y567816D01*
X614759Y567828D01*
X614809Y568009D01*
X614861Y568190D01*
X614862Y568204D01*
X614865Y568217D01*
X614878Y568403D01*
X614894Y568592D01*
X614892Y568605D01*
X614893Y568618D01*
X614869Y568804D01*
X614847Y568991D01*
X614843Y569004D01*
X614841Y569017D01*
X614739Y569333D01*
X614693Y569444D01*
X614693Y571556D01*
X615501Y573506D01*
X616994Y574999D01*
X618521Y575631D01*
X618944Y575807D01*
X621056Y575807D01*
X623006Y574999D01*
X624499Y573506D01*
X625198Y571819D01*
X625212Y571792D01*
X625222Y571762D01*
X625307Y571614D01*
X625349Y571537D01*
X625349Y568556D01*
X625351Y568538D01*
X625349Y568520D01*
X625370Y568338D01*
X625389Y568155D01*
X625394Y568138D01*
X625396Y568121D01*
X625453Y567946D01*
X625507Y567770D01*
X625515Y567755D01*
X625521Y567738D01*
X625611Y567578D01*
X625699Y567416D01*
X625710Y567403D01*
X625719Y567387D01*
X625839Y567248D01*
X625956Y567107D01*
X625970Y567096D01*
X625982Y567082D01*
X626127Y566970D01*
X626270Y566855D01*
X626286Y566847D01*
X626300Y566836D01*
X626465Y566754D01*
X626627Y566669D01*
X626644Y566664D01*
X626660Y566656D01*
X626839Y566609D01*
X627014Y566558D01*
X627032Y566556D01*
X627049Y566552D01*
X627380Y566525D01*
X628132Y566525D01*
X629025Y565632D01*
X629025Y549368D01*
X628132Y548475D01*
X611868Y548475D01*
G37*
%LPD*%
%LPC*%
G36*
X791868Y548475D02*
X791868Y548475D01*
X790975Y549368D01*
X790975Y565632D01*
X791868Y566525D01*
X792863Y566525D01*
X792876Y566526D01*
X792889Y566525D01*
X793076Y566546D01*
X793263Y566565D01*
X793276Y566569D01*
X793289Y566570D01*
X793469Y566628D01*
X793648Y566683D01*
X793660Y566689D01*
X793673Y566693D01*
X793838Y566785D01*
X794002Y566875D01*
X794012Y566883D01*
X794024Y566890D01*
X794168Y567013D01*
X794311Y567132D01*
X794320Y567143D01*
X794330Y567151D01*
X794446Y567300D01*
X794564Y567446D01*
X794570Y567458D01*
X794578Y567469D01*
X794663Y567637D01*
X794749Y567803D01*
X794753Y567816D01*
X794759Y567828D01*
X794809Y568009D01*
X794861Y568190D01*
X794862Y568204D01*
X794865Y568217D01*
X794878Y568403D01*
X794894Y568592D01*
X794892Y568605D01*
X794893Y568618D01*
X794869Y568804D01*
X794847Y568991D01*
X794843Y569004D01*
X794841Y569017D01*
X794739Y569333D01*
X794693Y569444D01*
X794693Y571556D01*
X795501Y573506D01*
X796994Y574999D01*
X798521Y575631D01*
X798944Y575807D01*
X801056Y575807D01*
X803006Y574999D01*
X804499Y573506D01*
X805307Y571556D01*
X805307Y569435D01*
X805268Y569291D01*
X805219Y569128D01*
X805216Y569097D01*
X805208Y569067D01*
X805181Y568736D01*
X805181Y568556D01*
X805183Y568538D01*
X805181Y568520D01*
X805202Y568338D01*
X805221Y568155D01*
X805226Y568138D01*
X805228Y568121D01*
X805285Y567946D01*
X805339Y567770D01*
X805347Y567755D01*
X805353Y567738D01*
X805443Y567578D01*
X805531Y567416D01*
X805542Y567403D01*
X805551Y567387D01*
X805671Y567248D01*
X805788Y567107D01*
X805802Y567096D01*
X805814Y567082D01*
X805959Y566970D01*
X806102Y566855D01*
X806118Y566847D01*
X806132Y566836D01*
X806297Y566754D01*
X806459Y566669D01*
X806476Y566664D01*
X806492Y566656D01*
X806671Y566609D01*
X806846Y566558D01*
X806864Y566556D01*
X806881Y566552D01*
X807212Y566525D01*
X808132Y566525D01*
X809025Y565632D01*
X809025Y549368D01*
X808132Y548475D01*
X791868Y548475D01*
G37*
%LPD*%
%LPC*%
G36*
X251868Y548475D02*
X251868Y548475D01*
X250975Y549368D01*
X250975Y565632D01*
X251868Y566525D01*
X252863Y566525D01*
X252876Y566526D01*
X252889Y566525D01*
X253076Y566546D01*
X253263Y566565D01*
X253276Y566569D01*
X253289Y566570D01*
X253469Y566628D01*
X253648Y566683D01*
X253660Y566689D01*
X253673Y566693D01*
X253838Y566785D01*
X254002Y566875D01*
X254012Y566883D01*
X254024Y566890D01*
X254168Y567013D01*
X254311Y567132D01*
X254320Y567143D01*
X254330Y567151D01*
X254446Y567300D01*
X254564Y567446D01*
X254570Y567458D01*
X254578Y567469D01*
X254663Y567637D01*
X254749Y567803D01*
X254753Y567816D01*
X254759Y567828D01*
X254809Y568009D01*
X254861Y568190D01*
X254862Y568204D01*
X254865Y568217D01*
X254878Y568403D01*
X254894Y568592D01*
X254892Y568605D01*
X254893Y568618D01*
X254869Y568804D01*
X254847Y568991D01*
X254843Y569004D01*
X254841Y569017D01*
X254739Y569333D01*
X254693Y569444D01*
X254693Y571556D01*
X255501Y573506D01*
X256994Y574999D01*
X258521Y575631D01*
X258944Y575807D01*
X261056Y575807D01*
X263006Y574999D01*
X264499Y573506D01*
X265307Y571556D01*
X265307Y569444D01*
X265261Y569333D01*
X265257Y569320D01*
X265251Y569309D01*
X265199Y569128D01*
X265144Y568948D01*
X265143Y568935D01*
X265139Y568922D01*
X265124Y568733D01*
X265106Y568547D01*
X265107Y568534D01*
X265106Y568520D01*
X265128Y568334D01*
X265148Y568147D01*
X265152Y568134D01*
X265153Y568121D01*
X265212Y567942D01*
X265268Y567762D01*
X265274Y567751D01*
X265278Y567738D01*
X265371Y567573D01*
X265461Y567409D01*
X265469Y567399D01*
X265476Y567387D01*
X265598Y567246D01*
X265720Y567101D01*
X265731Y567093D01*
X265739Y567082D01*
X265887Y566968D01*
X266035Y566850D01*
X266047Y566844D01*
X266057Y566836D01*
X266226Y566752D01*
X266393Y566666D01*
X266406Y566662D01*
X266418Y566656D01*
X266600Y566607D01*
X266780Y566556D01*
X266794Y566555D01*
X266807Y566552D01*
X267137Y566525D01*
X268132Y566525D01*
X269025Y565632D01*
X269025Y549368D01*
X268132Y548475D01*
X251868Y548475D01*
G37*
%LPD*%
%LPC*%
G36*
X191868Y548475D02*
X191868Y548475D01*
X190975Y549368D01*
X190975Y565632D01*
X191868Y566525D01*
X192863Y566525D01*
X192876Y566526D01*
X192889Y566525D01*
X193076Y566546D01*
X193263Y566565D01*
X193276Y566569D01*
X193289Y566570D01*
X193469Y566628D01*
X193648Y566683D01*
X193660Y566689D01*
X193673Y566693D01*
X193838Y566785D01*
X194002Y566875D01*
X194012Y566883D01*
X194024Y566890D01*
X194168Y567013D01*
X194311Y567132D01*
X194320Y567143D01*
X194330Y567151D01*
X194446Y567300D01*
X194564Y567446D01*
X194570Y567458D01*
X194578Y567469D01*
X194663Y567637D01*
X194749Y567803D01*
X194753Y567816D01*
X194759Y567828D01*
X194809Y568009D01*
X194861Y568190D01*
X194862Y568204D01*
X194865Y568217D01*
X194878Y568403D01*
X194894Y568592D01*
X194892Y568605D01*
X194893Y568618D01*
X194869Y568804D01*
X194847Y568991D01*
X194843Y569004D01*
X194841Y569017D01*
X194739Y569333D01*
X194693Y569444D01*
X194693Y571556D01*
X195501Y573506D01*
X196994Y574999D01*
X198521Y575631D01*
X198944Y575807D01*
X201056Y575807D01*
X203006Y574999D01*
X204499Y573506D01*
X205307Y571556D01*
X205307Y569444D01*
X205261Y569333D01*
X205257Y569320D01*
X205251Y569309D01*
X205199Y569128D01*
X205144Y568948D01*
X205143Y568935D01*
X205139Y568922D01*
X205124Y568733D01*
X205106Y568547D01*
X205107Y568534D01*
X205106Y568520D01*
X205128Y568334D01*
X205148Y568147D01*
X205152Y568134D01*
X205153Y568121D01*
X205212Y567942D01*
X205268Y567762D01*
X205274Y567751D01*
X205278Y567738D01*
X205371Y567573D01*
X205461Y567409D01*
X205469Y567399D01*
X205476Y567387D01*
X205598Y567246D01*
X205720Y567101D01*
X205731Y567093D01*
X205739Y567082D01*
X205887Y566968D01*
X206035Y566850D01*
X206047Y566844D01*
X206057Y566836D01*
X206226Y566752D01*
X206393Y566666D01*
X206406Y566662D01*
X206418Y566656D01*
X206600Y566607D01*
X206780Y566556D01*
X206794Y566555D01*
X206807Y566552D01*
X207137Y566525D01*
X208132Y566525D01*
X209025Y565632D01*
X209025Y549368D01*
X208132Y548475D01*
X191868Y548475D01*
G37*
%LPD*%
%LPC*%
G36*
X551868Y548475D02*
X551868Y548475D01*
X550975Y549368D01*
X550975Y565632D01*
X551868Y566525D01*
X552863Y566525D01*
X552876Y566526D01*
X552889Y566525D01*
X553076Y566546D01*
X553263Y566565D01*
X553276Y566569D01*
X553289Y566570D01*
X553469Y566628D01*
X553648Y566683D01*
X553660Y566689D01*
X553673Y566693D01*
X553838Y566785D01*
X554002Y566875D01*
X554012Y566883D01*
X554024Y566890D01*
X554168Y567013D01*
X554311Y567132D01*
X554320Y567143D01*
X554330Y567151D01*
X554446Y567300D01*
X554564Y567446D01*
X554570Y567458D01*
X554578Y567469D01*
X554663Y567637D01*
X554749Y567803D01*
X554753Y567816D01*
X554759Y567828D01*
X554809Y568009D01*
X554861Y568190D01*
X554862Y568204D01*
X554865Y568217D01*
X554878Y568403D01*
X554894Y568592D01*
X554892Y568605D01*
X554893Y568618D01*
X554869Y568804D01*
X554847Y568991D01*
X554843Y569004D01*
X554841Y569017D01*
X554739Y569333D01*
X554693Y569444D01*
X554693Y571556D01*
X555501Y573506D01*
X556994Y574999D01*
X558521Y575631D01*
X558944Y575807D01*
X561056Y575807D01*
X563006Y574999D01*
X564499Y573506D01*
X565307Y571556D01*
X565307Y569444D01*
X565261Y569333D01*
X565257Y569320D01*
X565251Y569309D01*
X565199Y569128D01*
X565144Y568948D01*
X565143Y568935D01*
X565139Y568922D01*
X565124Y568733D01*
X565106Y568547D01*
X565107Y568534D01*
X565106Y568520D01*
X565128Y568334D01*
X565148Y568147D01*
X565152Y568134D01*
X565153Y568121D01*
X565212Y567942D01*
X565268Y567762D01*
X565274Y567751D01*
X565278Y567738D01*
X565371Y567573D01*
X565461Y567409D01*
X565469Y567399D01*
X565476Y567387D01*
X565598Y567246D01*
X565720Y567101D01*
X565731Y567093D01*
X565739Y567082D01*
X565887Y566968D01*
X566035Y566850D01*
X566047Y566844D01*
X566057Y566836D01*
X566226Y566752D01*
X566393Y566666D01*
X566406Y566662D01*
X566418Y566656D01*
X566600Y566607D01*
X566780Y566556D01*
X566794Y566555D01*
X566807Y566552D01*
X567137Y566525D01*
X568132Y566525D01*
X569025Y565632D01*
X569025Y549368D01*
X568132Y548475D01*
X551868Y548475D01*
G37*
%LPD*%
%LPC*%
G36*
X11868Y548475D02*
X11868Y548475D01*
X10975Y549368D01*
X10975Y565632D01*
X11868Y566525D01*
X12863Y566525D01*
X12876Y566526D01*
X12889Y566525D01*
X13076Y566546D01*
X13263Y566565D01*
X13276Y566569D01*
X13289Y566570D01*
X13469Y566628D01*
X13648Y566683D01*
X13660Y566689D01*
X13673Y566693D01*
X13838Y566785D01*
X14002Y566875D01*
X14012Y566883D01*
X14024Y566890D01*
X14168Y567013D01*
X14311Y567132D01*
X14320Y567143D01*
X14330Y567151D01*
X14446Y567300D01*
X14564Y567446D01*
X14570Y567458D01*
X14578Y567469D01*
X14663Y567637D01*
X14749Y567803D01*
X14753Y567816D01*
X14759Y567828D01*
X14809Y568009D01*
X14861Y568190D01*
X14862Y568204D01*
X14865Y568217D01*
X14878Y568403D01*
X14894Y568592D01*
X14892Y568605D01*
X14893Y568618D01*
X14869Y568804D01*
X14847Y568991D01*
X14843Y569004D01*
X14841Y569017D01*
X14739Y569333D01*
X14693Y569444D01*
X14693Y571556D01*
X15501Y573506D01*
X16994Y574999D01*
X18521Y575631D01*
X18944Y575807D01*
X21056Y575807D01*
X23006Y574999D01*
X24499Y573506D01*
X25307Y571556D01*
X25307Y569444D01*
X25261Y569333D01*
X25257Y569320D01*
X25251Y569309D01*
X25199Y569128D01*
X25144Y568948D01*
X25143Y568935D01*
X25139Y568922D01*
X25124Y568733D01*
X25106Y568547D01*
X25107Y568534D01*
X25106Y568520D01*
X25128Y568334D01*
X25148Y568147D01*
X25152Y568134D01*
X25153Y568121D01*
X25212Y567942D01*
X25268Y567762D01*
X25274Y567751D01*
X25278Y567738D01*
X25371Y567573D01*
X25461Y567409D01*
X25469Y567399D01*
X25476Y567387D01*
X25598Y567246D01*
X25720Y567101D01*
X25731Y567093D01*
X25739Y567082D01*
X25887Y566968D01*
X26035Y566850D01*
X26047Y566844D01*
X26057Y566836D01*
X26226Y566752D01*
X26393Y566666D01*
X26406Y566662D01*
X26418Y566656D01*
X26600Y566607D01*
X26780Y566556D01*
X26794Y566555D01*
X26807Y566552D01*
X27137Y566525D01*
X28132Y566525D01*
X29025Y565632D01*
X29025Y549368D01*
X28132Y548475D01*
X11868Y548475D01*
G37*
%LPD*%
%LPC*%
G36*
X731868Y548475D02*
X731868Y548475D01*
X730975Y549368D01*
X730975Y565632D01*
X731868Y566525D01*
X732863Y566525D01*
X732876Y566526D01*
X732889Y566525D01*
X733076Y566546D01*
X733263Y566565D01*
X733276Y566569D01*
X733289Y566570D01*
X733469Y566628D01*
X733648Y566683D01*
X733660Y566689D01*
X733673Y566693D01*
X733838Y566785D01*
X734002Y566875D01*
X734012Y566883D01*
X734024Y566890D01*
X734168Y567013D01*
X734311Y567132D01*
X734320Y567143D01*
X734330Y567151D01*
X734446Y567300D01*
X734564Y567446D01*
X734570Y567458D01*
X734578Y567469D01*
X734663Y567637D01*
X734749Y567803D01*
X734753Y567816D01*
X734759Y567828D01*
X734809Y568009D01*
X734861Y568190D01*
X734862Y568204D01*
X734865Y568217D01*
X734878Y568403D01*
X734894Y568592D01*
X734892Y568605D01*
X734893Y568618D01*
X734869Y568804D01*
X734847Y568991D01*
X734843Y569004D01*
X734841Y569017D01*
X734739Y569333D01*
X734693Y569444D01*
X734693Y571556D01*
X735501Y573506D01*
X736994Y574999D01*
X738521Y575631D01*
X738944Y575807D01*
X741056Y575807D01*
X743006Y574999D01*
X744499Y573506D01*
X745307Y571556D01*
X745307Y569444D01*
X745261Y569333D01*
X745257Y569320D01*
X745251Y569309D01*
X745199Y569128D01*
X745144Y568948D01*
X745143Y568935D01*
X745139Y568922D01*
X745124Y568733D01*
X745106Y568547D01*
X745107Y568534D01*
X745106Y568520D01*
X745128Y568334D01*
X745148Y568147D01*
X745152Y568134D01*
X745153Y568121D01*
X745212Y567942D01*
X745268Y567762D01*
X745274Y567751D01*
X745278Y567738D01*
X745371Y567573D01*
X745461Y567409D01*
X745469Y567399D01*
X745476Y567387D01*
X745598Y567246D01*
X745720Y567101D01*
X745731Y567093D01*
X745739Y567082D01*
X745887Y566968D01*
X746035Y566850D01*
X746047Y566844D01*
X746057Y566836D01*
X746226Y566752D01*
X746393Y566666D01*
X746406Y566662D01*
X746418Y566656D01*
X746600Y566607D01*
X746780Y566556D01*
X746794Y566555D01*
X746807Y566552D01*
X747137Y566525D01*
X748132Y566525D01*
X749025Y565632D01*
X749025Y549368D01*
X748132Y548475D01*
X731868Y548475D01*
G37*
%LPD*%
%LPC*%
G36*
X131868Y548475D02*
X131868Y548475D01*
X130975Y549368D01*
X130975Y565632D01*
X131868Y566525D01*
X134412Y566525D01*
X134430Y566527D01*
X134448Y566525D01*
X134630Y566546D01*
X134813Y566565D01*
X134830Y566570D01*
X134847Y566572D01*
X135022Y566629D01*
X135198Y566683D01*
X135213Y566691D01*
X135230Y566697D01*
X135390Y566787D01*
X135552Y566875D01*
X135565Y566886D01*
X135581Y566895D01*
X135720Y567015D01*
X135861Y567132D01*
X135872Y567146D01*
X135886Y567158D01*
X135998Y567303D01*
X136113Y567446D01*
X136121Y567462D01*
X136132Y567476D01*
X136214Y567641D01*
X136299Y567803D01*
X136304Y567820D01*
X136312Y567836D01*
X136359Y568015D01*
X136398Y568148D01*
X138735Y570485D01*
X139727Y570485D01*
X139758Y570488D01*
X139789Y570486D01*
X139958Y570508D01*
X140127Y570525D01*
X140157Y570534D01*
X140188Y570538D01*
X140504Y570639D01*
X140676Y570711D01*
X142788Y570711D01*
X144738Y569903D01*
X146231Y568410D01*
X146492Y567779D01*
X146503Y567759D01*
X146510Y567738D01*
X146598Y567582D01*
X146683Y567424D01*
X146697Y567407D01*
X146708Y567387D01*
X146825Y567251D01*
X146939Y567113D01*
X146956Y567099D01*
X146971Y567082D01*
X147112Y566973D01*
X147252Y566860D01*
X147271Y566849D01*
X147289Y566836D01*
X147449Y566756D01*
X147608Y566673D01*
X147629Y566666D01*
X147649Y566656D01*
X147823Y566610D01*
X147994Y566560D01*
X148017Y566558D01*
X148038Y566552D01*
X148110Y566546D01*
X149025Y565632D01*
X149025Y549368D01*
X148132Y548475D01*
X131868Y548475D01*
G37*
%LPD*%
%LPC*%
G36*
X71868Y548475D02*
X71868Y548475D01*
X70975Y549368D01*
X70975Y565632D01*
X71868Y566525D01*
X73546Y566525D01*
X73573Y566527D01*
X73600Y566525D01*
X73774Y566547D01*
X73947Y566565D01*
X73973Y566572D01*
X73999Y566576D01*
X74165Y566631D01*
X74332Y566683D01*
X74356Y566696D01*
X74381Y566704D01*
X74533Y566791D01*
X74686Y566875D01*
X74707Y566892D01*
X74730Y566905D01*
X74983Y567120D01*
X76242Y568379D01*
X78192Y569187D01*
X80304Y569187D01*
X82254Y568379D01*
X83513Y567120D01*
X83534Y567103D01*
X83551Y567082D01*
X83689Y566975D01*
X83825Y566865D01*
X83848Y566852D01*
X83869Y566836D01*
X84026Y566758D01*
X84180Y566676D01*
X84206Y566668D01*
X84230Y566656D01*
X84399Y566611D01*
X84566Y566561D01*
X84593Y566559D01*
X84619Y566552D01*
X84950Y566525D01*
X88132Y566525D01*
X89025Y565632D01*
X89025Y549368D01*
X88132Y548475D01*
X71868Y548475D01*
G37*
%LPD*%
%LPC*%
G36*
X513893Y441955D02*
X513893Y441955D01*
X513247Y442128D01*
X512668Y442463D01*
X512195Y442936D01*
X511860Y443515D01*
X511687Y444161D01*
X511687Y447747D01*
X518479Y447747D01*
X518479Y441955D01*
X513893Y441955D01*
G37*
%LPD*%
%LPC*%
G36*
X472999Y520959D02*
X472999Y520959D01*
X472999Y526501D01*
X478541Y526501D01*
X478541Y523165D01*
X478368Y522519D01*
X478033Y521940D01*
X477560Y521467D01*
X476981Y521132D01*
X476335Y520959D01*
X472999Y520959D01*
G37*
%LPD*%
%LPC*%
G36*
X532999Y520959D02*
X532999Y520959D01*
X532999Y526501D01*
X538541Y526501D01*
X538541Y523165D01*
X538368Y522519D01*
X538033Y521940D01*
X537560Y521467D01*
X536981Y521132D01*
X536335Y520959D01*
X532999Y520959D01*
G37*
%LPD*%
%LPC*%
G36*
X652999Y520959D02*
X652999Y520959D01*
X652999Y526501D01*
X658541Y526501D01*
X658541Y523165D01*
X658368Y522519D01*
X658033Y521940D01*
X657560Y521467D01*
X656981Y521132D01*
X656335Y520959D01*
X652999Y520959D01*
G37*
%LPD*%
%LPC*%
G36*
X592999Y520959D02*
X592999Y520959D01*
X592999Y526501D01*
X598541Y526501D01*
X598541Y523165D01*
X598368Y522519D01*
X598033Y521940D01*
X597560Y521467D01*
X596981Y521132D01*
X596335Y520959D01*
X592999Y520959D01*
G37*
%LPD*%
%LPC*%
G36*
X352999Y520959D02*
X352999Y520959D01*
X352999Y526501D01*
X358541Y526501D01*
X358541Y523165D01*
X358368Y522519D01*
X358033Y521940D01*
X357560Y521467D01*
X356981Y521132D01*
X356335Y520959D01*
X352999Y520959D01*
G37*
%LPD*%
%LPC*%
G36*
X712999Y520959D02*
X712999Y520959D01*
X712999Y526501D01*
X718541Y526501D01*
X718541Y523165D01*
X718368Y522519D01*
X718033Y521940D01*
X717560Y521467D01*
X716981Y521132D01*
X716335Y520959D01*
X712999Y520959D01*
G37*
%LPD*%
%LPC*%
G36*
X412999Y520959D02*
X412999Y520959D01*
X412999Y526501D01*
X418541Y526501D01*
X418541Y523165D01*
X418368Y522519D01*
X418033Y521940D01*
X417560Y521467D01*
X416981Y521132D01*
X416335Y520959D01*
X412999Y520959D01*
G37*
%LPD*%
%LPC*%
G36*
X172999Y520959D02*
X172999Y520959D01*
X172999Y526501D01*
X178541Y526501D01*
X178541Y523165D01*
X178368Y522519D01*
X178033Y521940D01*
X177560Y521467D01*
X176981Y521132D01*
X176335Y520959D01*
X172999Y520959D01*
G37*
%LPD*%
%LPC*%
G36*
X772999Y520959D02*
X772999Y520959D01*
X772999Y526501D01*
X778541Y526501D01*
X778541Y523165D01*
X778368Y522519D01*
X778033Y521940D01*
X777560Y521467D01*
X776981Y521132D01*
X776335Y520959D01*
X772999Y520959D01*
G37*
%LPD*%
%LPC*%
G36*
X832999Y520959D02*
X832999Y520959D01*
X832999Y526501D01*
X838541Y526501D01*
X838541Y523165D01*
X838368Y522519D01*
X838033Y521940D01*
X837560Y521467D01*
X836981Y521132D01*
X836335Y520959D01*
X832999Y520959D01*
G37*
%LPD*%
%LPC*%
G36*
X112999Y520959D02*
X112999Y520959D01*
X112999Y526501D01*
X118541Y526501D01*
X118541Y523165D01*
X118368Y522519D01*
X118033Y521940D01*
X117560Y521467D01*
X116981Y521132D01*
X116335Y520959D01*
X112999Y520959D01*
G37*
%LPD*%
%LPC*%
G36*
X892999Y520959D02*
X892999Y520959D01*
X892999Y526501D01*
X898541Y526501D01*
X898541Y523165D01*
X898368Y522519D01*
X898033Y521940D01*
X897560Y521467D01*
X896981Y521132D01*
X896335Y520959D01*
X892999Y520959D01*
G37*
%LPD*%
%LPC*%
G36*
X52999Y520959D02*
X52999Y520959D01*
X52999Y526501D01*
X58541Y526501D01*
X58541Y523165D01*
X58368Y522519D01*
X58033Y521940D01*
X57560Y521467D01*
X56981Y521132D01*
X56335Y520959D01*
X52999Y520959D01*
G37*
%LPD*%
%LPC*%
G36*
X952999Y520959D02*
X952999Y520959D01*
X952999Y526501D01*
X958541Y526501D01*
X958541Y523165D01*
X958368Y522519D01*
X958033Y521940D01*
X957560Y521467D01*
X956981Y521132D01*
X956335Y520959D01*
X952999Y520959D01*
G37*
%LPD*%
%LPC*%
G36*
X232999Y520959D02*
X232999Y520959D01*
X232999Y526501D01*
X238541Y526501D01*
X238541Y523165D01*
X238368Y522519D01*
X238033Y521940D01*
X237560Y521467D01*
X236981Y521132D01*
X236335Y520959D01*
X232999Y520959D01*
G37*
%LPD*%
%LPC*%
G36*
X292999Y520959D02*
X292999Y520959D01*
X292999Y526501D01*
X298541Y526501D01*
X298541Y523165D01*
X298368Y522519D01*
X298033Y521940D01*
X297560Y521467D01*
X296981Y521132D01*
X296335Y520959D01*
X292999Y520959D01*
G37*
%LPD*%
%LPC*%
G36*
X283665Y520959D02*
X283665Y520959D01*
X283019Y521132D01*
X282440Y521467D01*
X281967Y521940D01*
X281632Y522519D01*
X281459Y523165D01*
X281459Y526501D01*
X287001Y526501D01*
X287001Y520959D01*
X283665Y520959D01*
G37*
%LPD*%
%LPC*%
G36*
X343665Y520959D02*
X343665Y520959D01*
X343019Y521132D01*
X342440Y521467D01*
X341967Y521940D01*
X341632Y522519D01*
X341459Y523165D01*
X341459Y526501D01*
X347001Y526501D01*
X347001Y520959D01*
X343665Y520959D01*
G37*
%LPD*%
%LPC*%
G36*
X43665Y520959D02*
X43665Y520959D01*
X43019Y521132D01*
X42440Y521467D01*
X41967Y521940D01*
X41632Y522519D01*
X41459Y523165D01*
X41459Y526501D01*
X47001Y526501D01*
X47001Y520959D01*
X43665Y520959D01*
G37*
%LPD*%
%LPC*%
G36*
X943665Y520959D02*
X943665Y520959D01*
X943019Y521132D01*
X942440Y521467D01*
X941967Y521940D01*
X941632Y522519D01*
X941459Y523165D01*
X941459Y526501D01*
X947001Y526501D01*
X947001Y520959D01*
X943665Y520959D01*
G37*
%LPD*%
%LPC*%
G36*
X103665Y520959D02*
X103665Y520959D01*
X103019Y521132D01*
X102440Y521467D01*
X101967Y521940D01*
X101632Y522519D01*
X101459Y523165D01*
X101459Y526501D01*
X107001Y526501D01*
X107001Y520959D01*
X103665Y520959D01*
G37*
%LPD*%
%LPC*%
G36*
X883665Y520959D02*
X883665Y520959D01*
X883019Y521132D01*
X882440Y521467D01*
X881967Y521940D01*
X881632Y522519D01*
X881459Y523165D01*
X881459Y526501D01*
X887001Y526501D01*
X887001Y520959D01*
X883665Y520959D01*
G37*
%LPD*%
%LPC*%
G36*
X163665Y520959D02*
X163665Y520959D01*
X163019Y521132D01*
X162440Y521467D01*
X161967Y521940D01*
X161632Y522519D01*
X161459Y523165D01*
X161459Y526501D01*
X167001Y526501D01*
X167001Y520959D01*
X163665Y520959D01*
G37*
%LPD*%
%LPC*%
G36*
X823665Y520959D02*
X823665Y520959D01*
X823019Y521132D01*
X822440Y521467D01*
X821967Y521940D01*
X821632Y522519D01*
X821459Y523165D01*
X821459Y526501D01*
X827001Y526501D01*
X827001Y520959D01*
X823665Y520959D01*
G37*
%LPD*%
%LPC*%
G36*
X223665Y520959D02*
X223665Y520959D01*
X223019Y521132D01*
X222440Y521467D01*
X221967Y521940D01*
X221632Y522519D01*
X221459Y523165D01*
X221459Y526501D01*
X227001Y526501D01*
X227001Y520959D01*
X223665Y520959D01*
G37*
%LPD*%
%LPC*%
G36*
X763665Y520959D02*
X763665Y520959D01*
X763019Y521132D01*
X762440Y521467D01*
X761967Y521940D01*
X761632Y522519D01*
X761459Y523165D01*
X761459Y526501D01*
X767001Y526501D01*
X767001Y520959D01*
X763665Y520959D01*
G37*
%LPD*%
%LPC*%
G36*
X523665Y520959D02*
X523665Y520959D01*
X523019Y521132D01*
X522440Y521467D01*
X521967Y521940D01*
X521632Y522519D01*
X521459Y523165D01*
X521459Y526501D01*
X527001Y526501D01*
X527001Y520959D01*
X523665Y520959D01*
G37*
%LPD*%
%LPC*%
G36*
X703665Y520959D02*
X703665Y520959D01*
X703019Y521132D01*
X702440Y521467D01*
X701967Y521940D01*
X701632Y522519D01*
X701459Y523165D01*
X701459Y526501D01*
X707001Y526501D01*
X707001Y520959D01*
X703665Y520959D01*
G37*
%LPD*%
%LPC*%
G36*
X463665Y520959D02*
X463665Y520959D01*
X463019Y521132D01*
X462440Y521467D01*
X461967Y521940D01*
X461632Y522519D01*
X461459Y523165D01*
X461459Y526501D01*
X467001Y526501D01*
X467001Y520959D01*
X463665Y520959D01*
G37*
%LPD*%
%LPC*%
G36*
X403665Y520959D02*
X403665Y520959D01*
X403019Y521132D01*
X402440Y521467D01*
X401967Y521940D01*
X401632Y522519D01*
X401459Y523165D01*
X401459Y526501D01*
X407001Y526501D01*
X407001Y520959D01*
X403665Y520959D01*
G37*
%LPD*%
%LPC*%
G36*
X643665Y520959D02*
X643665Y520959D01*
X643019Y521132D01*
X642440Y521467D01*
X641967Y521940D01*
X641632Y522519D01*
X641459Y523165D01*
X641459Y526501D01*
X647001Y526501D01*
X647001Y520959D01*
X643665Y520959D01*
G37*
%LPD*%
%LPC*%
G36*
X583665Y520959D02*
X583665Y520959D01*
X583019Y521132D01*
X582440Y521467D01*
X581967Y521940D01*
X581632Y522519D01*
X581459Y523165D01*
X581459Y526501D01*
X587001Y526501D01*
X587001Y520959D01*
X583665Y520959D01*
G37*
%LPD*%
D10*
X521728Y469996D03*
X521728Y450996D03*
D11*
X50000Y550500D03*
X50000Y529500D03*
X110000Y550500D03*
X110000Y529500D03*
X170000Y550500D03*
X170000Y529500D03*
X230000Y550500D03*
X230000Y529500D03*
X290000Y550500D03*
X290000Y529500D03*
X350000Y550500D03*
X350000Y529500D03*
X410000Y550500D03*
X410000Y529500D03*
X470000Y550500D03*
X470000Y529500D03*
X530000Y550500D03*
X530000Y529500D03*
X590000Y550500D03*
X590000Y529500D03*
X650000Y550500D03*
X650000Y529500D03*
X710000Y550500D03*
X710000Y529500D03*
X770000Y550500D03*
X770000Y529500D03*
X830000Y550500D03*
X830000Y529500D03*
X890000Y550500D03*
X890000Y529500D03*
X950000Y550500D03*
X950000Y529500D03*
D12*
X20000Y522500D03*
X20000Y557500D03*
X80000Y522500D03*
X80000Y557500D03*
X140000Y522500D03*
X140000Y557500D03*
X200000Y522500D03*
X200000Y557500D03*
X260000Y522500D03*
X260000Y557500D03*
X320000Y522500D03*
X320000Y557500D03*
X380000Y522500D03*
X380000Y557500D03*
X440000Y522500D03*
X440000Y557500D03*
X500000Y522500D03*
X500000Y557500D03*
X560000Y522500D03*
X560000Y557500D03*
X620000Y522500D03*
X620000Y557500D03*
X680000Y522500D03*
X680000Y557500D03*
X740000Y522500D03*
X740000Y557500D03*
X800000Y522500D03*
X800000Y557500D03*
X860000Y522500D03*
X860000Y557500D03*
X920000Y522500D03*
X920000Y557500D03*
X980000Y522500D03*
X980000Y557500D03*
D13*
X50000Y529500D02*
X50000Y513880D01*
X57912Y505968D01*
X97536Y505968D01*
X109728Y505968D01*
X167640Y505968D01*
X228600Y505968D01*
X292608Y505968D01*
X350520Y505968D01*
X408432Y505968D01*
X466344Y505968D01*
X484632Y505968D01*
X527304Y505968D01*
X585216Y505968D01*
X609600Y505968D01*
X646176Y505968D01*
X707136Y505968D01*
X768096Y505968D01*
X829056Y505968D01*
X886968Y505968D01*
X890016Y505968D01*
X944880Y505968D01*
X950000Y511088D02*
X950000Y529500D01*
X950000Y511088D02*
X944880Y505968D01*
X890000Y509000D02*
X890000Y529500D01*
X890000Y509000D02*
X886968Y505968D01*
X830000Y506912D02*
X830000Y529500D01*
X830000Y506912D02*
X829056Y505968D01*
X770000Y507872D02*
X770000Y529500D01*
X770000Y507872D02*
X768096Y505968D01*
X710000Y508832D02*
X710000Y529500D01*
X710000Y508832D02*
X707136Y505968D01*
X650000Y509792D02*
X650000Y529500D01*
X650000Y509792D02*
X646176Y505968D01*
X590000Y510752D02*
X590000Y529500D01*
X590000Y510752D02*
X585216Y505968D01*
X530000Y518160D02*
X530000Y529500D01*
X530000Y518160D02*
X530000Y508664D01*
X527304Y505968D01*
X470000Y518160D02*
X470000Y529500D01*
X470000Y518160D02*
X470000Y509624D01*
X466344Y505968D01*
X410000Y507536D02*
X410000Y529500D01*
X410000Y507536D02*
X408432Y505968D01*
X350000Y506488D02*
X350000Y529500D01*
X350000Y506488D02*
X350520Y505968D01*
X290000Y508576D02*
X290000Y529500D01*
X290000Y508576D02*
X292608Y505968D01*
X230000Y507368D02*
X230000Y529500D01*
X230000Y507368D02*
X228600Y505968D01*
X170000Y508328D02*
X170000Y529500D01*
X170000Y508328D02*
X167640Y505968D01*
X110000Y506240D02*
X110000Y529500D01*
X110000Y506240D02*
X109728Y505968D01*
D14*
X478536Y518160D03*
D13*
X470000Y518160D01*
X484632Y505968D02*
X499872Y490728D01*
X499872Y463296D01*
X499872Y457200D01*
X499872Y445008D01*
X499872Y441960D01*
D14*
X505968Y438912D03*
D15*
X499872Y445008D01*
D14*
X460248Y518160D03*
X521208Y518160D03*
X542544Y527304D03*
D13*
X532196Y527304D01*
X530000Y529500D01*
X521728Y450996D02*
X506076Y450996D01*
X499872Y457200D01*
D14*
X477012Y403860D03*
D13*
X499872Y414528D02*
X499872Y445008D01*
X499872Y414528D02*
X489204Y403860D01*
X487680Y402336D01*
X481584Y402336D01*
X477012Y402336D01*
X477012Y403860D01*
D14*
X440248Y428160D03*
X570248Y428160D03*
X610248Y488160D03*
X110248Y498160D03*
X890248Y498160D03*
D15*
X102440Y505968D02*
X97536Y505968D01*
X102440Y505968D02*
X110248Y498160D01*
X460248Y518160D02*
X470000Y518160D01*
X521208Y518160D02*
X530000Y518160D01*
X609600Y488808D02*
X610248Y488160D01*
X609600Y488808D02*
X609600Y505968D01*
X890016Y498392D02*
X890248Y498160D01*
X890016Y498392D02*
X890016Y505968D01*
X570248Y428160D02*
X570248Y423944D01*
X542544Y396240D02*
X496824Y396240D01*
X489204Y403860D01*
X542544Y396240D02*
X570248Y423944D01*
X440248Y428160D02*
X440248Y416240D01*
X454152Y402336D01*
X481584Y402336D01*
D14*
X171208Y498160D03*
X232168Y498160D03*
X46240Y507304D03*
X290080Y498160D03*
X351040Y498160D03*
X412000Y498160D03*
X491248Y458536D03*
X661936Y498160D03*
X707656Y498160D03*
X768616Y498160D03*
X826528Y498160D03*
X945400Y498160D03*
X351040Y428056D03*
X549160Y400624D03*
X649744Y431104D03*
X439432Y501208D03*
D15*
X51816Y552316D02*
X50000Y550500D01*
X51816Y552316D02*
X51816Y557784D01*
X54864Y560832D01*
D14*
X54864Y560832D03*
D13*
X518160Y473564D02*
X521728Y469996D01*
D14*
X518160Y487680D03*
D13*
X518160Y473564D01*
D14*
X527304Y408432D03*
D13*
X536448Y417576D01*
X536448Y469392D01*
X533400Y472440D01*
X524172Y472440D01*
X521728Y469996D01*
D14*
X481584Y417576D03*
X481584Y487680D03*
D16*
X481584Y417576D01*
D15*
X110000Y550500D02*
X110000Y558056D01*
X112776Y560832D01*
X115824Y560832D01*
D14*
X115824Y560832D03*
D15*
X170000Y551000D02*
X170000Y550500D01*
X170000Y551000D02*
X176784Y557784D01*
D14*
X176784Y557784D03*
D15*
X230000Y550500D02*
X231648Y552148D01*
X231648Y557784D01*
X234696Y560832D01*
D14*
X234696Y560832D03*
D15*
X290000Y555176D02*
X290000Y550500D01*
X290000Y555176D02*
X295656Y560832D01*
D14*
X295656Y560832D03*
D15*
X350000Y557264D02*
X350000Y550500D01*
X350000Y557264D02*
X353568Y560832D01*
X356616Y560832D01*
D14*
X356616Y560832D03*
D15*
X410000Y550500D02*
X411480Y551980D01*
X411480Y557784D01*
X414528Y560832D01*
X417576Y560832D01*
D14*
X417576Y560832D03*
D15*
X470000Y550500D02*
X472440Y552940D01*
X472440Y557784D01*
X475488Y560832D01*
D14*
X475488Y560832D03*
D15*
X530000Y554384D02*
X530000Y550500D01*
D14*
X536448Y560832D03*
D15*
X530000Y554384D01*
X590000Y550500D02*
X597284Y557784D01*
X597408Y557784D01*
D14*
X597408Y557784D03*
D15*
X650000Y550500D02*
X658368Y558868D01*
X658368Y560832D01*
D14*
X658368Y560832D03*
D15*
X710000Y550500D02*
X717284Y557784D01*
X719328Y557784D01*
D14*
X719328Y557784D03*
D15*
X770000Y550500D02*
X777240Y557740D01*
X777240Y557784D01*
D14*
X777240Y557784D03*
D15*
X830000Y550500D02*
X837284Y557784D01*
X838200Y557784D01*
D14*
X838200Y557784D03*
D15*
X890000Y550500D02*
X897284Y557784D01*
X899160Y557784D01*
D14*
X899160Y557784D03*
D15*
X950000Y550500D02*
X957284Y557784D01*
D14*
X963168Y557784D03*
D15*
X957284Y557784D01*
D14*
X569976Y496824D03*
X554736Y423672D03*
D16*
X554736Y481584D01*
X569976Y496824D01*
D15*
X20000Y557500D02*
X20000Y570500D01*
D14*
X20000Y570500D03*
D15*
X80000Y563128D02*
X80000Y557500D01*
X80000Y563128D02*
X79248Y563880D01*
D14*
X79248Y563880D03*
D13*
X57789Y539818D02*
X58111Y539496D01*
X37318Y539818D02*
X20000Y522500D01*
X37318Y539818D02*
X57789Y539818D01*
X101889Y539496D02*
X102211Y539818D01*
X140208Y539818D01*
X198120Y539818D01*
X259080Y539818D01*
X323088Y539818D01*
X377952Y539818D01*
X438912Y539818D01*
X502920Y539818D01*
X515240Y539818D01*
X500000Y539818D01*
X515240Y539818D02*
X560832Y539818D01*
X618744Y539818D01*
X679704Y539818D01*
X737616Y539818D01*
X798576Y539818D01*
X859536Y539818D01*
X920496Y539818D01*
X965894Y539818D01*
X980000Y525712D02*
X980000Y522500D01*
X79248Y539496D02*
X58111Y539496D01*
X79248Y539496D02*
X101889Y539496D01*
X965894Y539818D02*
X980000Y525712D01*
X920496Y522996D02*
X920000Y522500D01*
X920496Y522996D02*
X920496Y539818D01*
X860000Y522500D02*
X859536Y522964D01*
X859536Y539818D01*
X800000Y538394D02*
X800000Y522500D01*
X800000Y538394D02*
X798576Y539818D01*
X740000Y537434D02*
X740000Y522500D01*
X740000Y537434D02*
X737616Y539818D01*
X680000Y522500D02*
X679704Y522796D01*
X679704Y539818D01*
X620000Y522500D02*
X618744Y523756D01*
X618744Y539818D01*
X560000Y538986D02*
X560000Y522500D01*
X560000Y538986D02*
X560832Y539818D01*
X500000Y539818D02*
X500000Y522500D01*
X440000Y522500D02*
X440000Y538730D01*
X438912Y539818D01*
X380000Y537770D02*
X380000Y522500D01*
X380000Y537770D02*
X377952Y539818D01*
X320000Y536730D02*
X320000Y522500D01*
X320000Y536730D02*
X323088Y539818D01*
X260000Y538898D02*
X260000Y522500D01*
X260000Y538898D02*
X259080Y539818D01*
X200000Y537938D02*
X200000Y522500D01*
X200000Y537938D02*
X198120Y539818D01*
X140000Y539610D02*
X140000Y522500D01*
X140000Y539610D02*
X140208Y539818D01*
X80000Y538744D02*
X80000Y522500D01*
X80000Y538744D02*
X79248Y539496D01*
D14*
X548640Y518160D03*
D13*
X552980Y522500D01*
X560000Y522500D01*
D15*
X140000Y557500D02*
X140000Y566720D01*
X140208Y566928D01*
X141732Y565404D01*
D14*
X141732Y565404D03*
D15*
X200000Y565760D02*
X200000Y557500D01*
X200000Y565760D02*
X201168Y566928D01*
X201168Y569332D01*
X200000Y570500D01*
D14*
X200000Y570500D03*
D15*
X260000Y566008D02*
X260000Y557500D01*
X260000Y566008D02*
X259080Y566928D01*
X259080Y569580D01*
X260000Y570500D01*
D14*
X260000Y570500D03*
D15*
X320000Y563840D02*
X320000Y557500D01*
X320000Y563840D02*
X323088Y566928D01*
X323088Y567412D01*
X320000Y570500D01*
D14*
X320000Y570500D03*
D15*
X380000Y562880D02*
X380000Y557500D01*
X380000Y562880D02*
X384048Y566928D01*
X380476Y570500D01*
X380000Y570500D01*
D14*
X380000Y570500D03*
D15*
X440000Y564968D02*
X440000Y557500D01*
X440000Y564968D02*
X441960Y566928D01*
X441960Y568540D01*
X440000Y570500D01*
D14*
X440000Y570500D03*
D15*
X500000Y563752D02*
X500000Y557500D01*
X500000Y563752D02*
X496824Y566928D01*
X496824Y567324D01*
X500000Y570500D01*
D14*
X500000Y570500D03*
D15*
X560000Y569144D02*
X560000Y557500D01*
X560000Y569144D02*
X560832Y569976D01*
X560308Y570500D01*
X560000Y570500D01*
D14*
X560000Y570500D03*
D15*
X620000Y568184D02*
X620000Y557500D01*
X620000Y568184D02*
X621792Y569976D01*
X621268Y570500D01*
X620000Y570500D01*
D14*
X620000Y570500D03*
D15*
X680000Y567224D02*
X680000Y557500D01*
X680000Y567224D02*
X682752Y569976D01*
X682228Y570500D01*
X680000Y570500D01*
D14*
X680000Y570500D03*
D15*
X740000Y569312D02*
X740000Y557500D01*
X740000Y569312D02*
X740664Y569976D01*
X740140Y570500D01*
X740000Y570500D01*
D14*
X740000Y570500D03*
D15*
X800000Y568352D02*
X800000Y557500D01*
X800000Y568352D02*
X801624Y569976D01*
X801100Y570500D01*
X800000Y570500D01*
D14*
X800000Y570500D03*
D15*
X860000Y567392D02*
X860000Y557500D01*
X860000Y567392D02*
X862584Y569976D01*
X862060Y570500D01*
X860000Y570500D01*
D14*
X860000Y570500D03*
D15*
X920000Y566432D02*
X920000Y557500D01*
X920000Y566432D02*
X923544Y569976D01*
X923020Y570500D01*
X920000Y570500D01*
D14*
X920000Y570500D03*
D15*
X980000Y568520D02*
X980000Y557500D01*
X980000Y568520D02*
X981456Y569976D01*
X980932Y570500D01*
X980000Y570500D01*
D14*
X980000Y570500D03*
M02*
