G04 EAGLE Gerber RS-274X export*
G75*
%MOMM*%
%FSLAX34Y34*%
%LPD*%
%IN*%
%IPPOS*%
%AMOC8*
5,1,8,0,0,1.08239X$1,22.5*%
G01*
%ADD10C,0.254000*%


D10*
X-10000Y500000D02*
X120000Y430000D01*
X250000Y430000D01*
X250000Y350000D01*
X750000Y350000D01*
X750000Y430000D01*
X880000Y430000D01*
X1010000Y500000D01*
X1010000Y610000D01*
X-10000Y610000D01*
X-10000Y500000D01*
X615000Y389464D02*
X614924Y388396D01*
X614771Y387335D01*
X614543Y386288D01*
X614241Y385260D01*
X613867Y384256D01*
X613422Y383281D01*
X612908Y382341D01*
X612329Y381440D01*
X611687Y380582D01*
X610985Y379772D01*
X610228Y379015D01*
X609418Y378313D01*
X608560Y377671D01*
X607659Y377092D01*
X606719Y376578D01*
X605744Y376133D01*
X604740Y375759D01*
X603712Y375457D01*
X602665Y375229D01*
X601604Y375076D01*
X600536Y375000D01*
X599464Y375000D01*
X598396Y375076D01*
X597335Y375229D01*
X596288Y375457D01*
X595260Y375759D01*
X594256Y376133D01*
X593281Y376578D01*
X592341Y377092D01*
X591440Y377671D01*
X590582Y378313D01*
X589772Y379015D01*
X589015Y379772D01*
X588313Y380582D01*
X587671Y381440D01*
X587092Y382341D01*
X586578Y383281D01*
X586133Y384256D01*
X585759Y385260D01*
X585457Y386288D01*
X585229Y387335D01*
X585076Y388396D01*
X585000Y389464D01*
X585000Y390536D01*
X585076Y391604D01*
X585229Y392665D01*
X585457Y393712D01*
X585759Y394740D01*
X586133Y395744D01*
X586578Y396719D01*
X587092Y397659D01*
X587671Y398560D01*
X588313Y399418D01*
X589015Y400228D01*
X589772Y400985D01*
X590582Y401687D01*
X591440Y402329D01*
X592341Y402908D01*
X593281Y403422D01*
X594256Y403867D01*
X595260Y404241D01*
X596288Y404543D01*
X597335Y404771D01*
X598396Y404924D01*
X599464Y405000D01*
X600536Y405000D01*
X601604Y404924D01*
X602665Y404771D01*
X603712Y404543D01*
X604740Y404241D01*
X605744Y403867D01*
X606719Y403422D01*
X607659Y402908D01*
X608560Y402329D01*
X609418Y401687D01*
X610228Y400985D01*
X610985Y400228D01*
X611687Y399418D01*
X612329Y398560D01*
X612908Y397659D01*
X613422Y396719D01*
X613867Y395744D01*
X614241Y394740D01*
X614543Y393712D01*
X614771Y392665D01*
X614924Y391604D01*
X615000Y390536D01*
X615000Y389464D01*
X315000Y389464D02*
X314924Y388396D01*
X314771Y387335D01*
X314543Y386288D01*
X314241Y385260D01*
X313867Y384256D01*
X313422Y383281D01*
X312908Y382341D01*
X312329Y381440D01*
X311687Y380582D01*
X310985Y379772D01*
X310228Y379015D01*
X309418Y378313D01*
X308560Y377671D01*
X307659Y377092D01*
X306719Y376578D01*
X305744Y376133D01*
X304740Y375759D01*
X303712Y375457D01*
X302665Y375229D01*
X301604Y375076D01*
X300536Y375000D01*
X299464Y375000D01*
X298396Y375076D01*
X297335Y375229D01*
X296288Y375457D01*
X295260Y375759D01*
X294256Y376133D01*
X293281Y376578D01*
X292341Y377092D01*
X291440Y377671D01*
X290582Y378313D01*
X289772Y379015D01*
X289015Y379772D01*
X288313Y380582D01*
X287671Y381440D01*
X287092Y382341D01*
X286578Y383281D01*
X286133Y384256D01*
X285759Y385260D01*
X285457Y386288D01*
X285229Y387335D01*
X285076Y388396D01*
X285000Y389464D01*
X285000Y390536D01*
X285076Y391604D01*
X285229Y392665D01*
X285457Y393712D01*
X285759Y394740D01*
X286133Y395744D01*
X286578Y396719D01*
X287092Y397659D01*
X287671Y398560D01*
X288313Y399418D01*
X289015Y400228D01*
X289772Y400985D01*
X290582Y401687D01*
X291440Y402329D01*
X292341Y402908D01*
X293281Y403422D01*
X294256Y403867D01*
X295260Y404241D01*
X296288Y404543D01*
X297335Y404771D01*
X298396Y404924D01*
X299464Y405000D01*
X300536Y405000D01*
X301604Y404924D01*
X302665Y404771D01*
X303712Y404543D01*
X304740Y404241D01*
X305744Y403867D01*
X306719Y403422D01*
X307659Y402908D01*
X308560Y402329D01*
X309418Y401687D01*
X310228Y400985D01*
X310985Y400228D01*
X311687Y399418D01*
X312329Y398560D01*
X312908Y397659D01*
X313422Y396719D01*
X313867Y395744D01*
X314241Y394740D01*
X314543Y393712D01*
X314771Y392665D01*
X314924Y391604D01*
X315000Y390536D01*
X315000Y389464D01*
X715000Y389464D02*
X714924Y388396D01*
X714771Y387335D01*
X714543Y386288D01*
X714241Y385260D01*
X713867Y384256D01*
X713422Y383281D01*
X712908Y382341D01*
X712329Y381440D01*
X711687Y380582D01*
X710985Y379772D01*
X710228Y379015D01*
X709418Y378313D01*
X708560Y377671D01*
X707659Y377092D01*
X706719Y376578D01*
X705744Y376133D01*
X704740Y375759D01*
X703712Y375457D01*
X702665Y375229D01*
X701604Y375076D01*
X700536Y375000D01*
X699464Y375000D01*
X698396Y375076D01*
X697335Y375229D01*
X696288Y375457D01*
X695260Y375759D01*
X694256Y376133D01*
X693281Y376578D01*
X692341Y377092D01*
X691440Y377671D01*
X690582Y378313D01*
X689772Y379015D01*
X689015Y379772D01*
X688313Y380582D01*
X687671Y381440D01*
X687092Y382341D01*
X686578Y383281D01*
X686133Y384256D01*
X685759Y385260D01*
X685457Y386288D01*
X685229Y387335D01*
X685076Y388396D01*
X685000Y389464D01*
X685000Y390536D01*
X685076Y391604D01*
X685229Y392665D01*
X685457Y393712D01*
X685759Y394740D01*
X686133Y395744D01*
X686578Y396719D01*
X687092Y397659D01*
X687671Y398560D01*
X688313Y399418D01*
X689015Y400228D01*
X689772Y400985D01*
X690582Y401687D01*
X691440Y402329D01*
X692341Y402908D01*
X693281Y403422D01*
X694256Y403867D01*
X695260Y404241D01*
X696288Y404543D01*
X697335Y404771D01*
X698396Y404924D01*
X699464Y405000D01*
X700536Y405000D01*
X701604Y404924D01*
X702665Y404771D01*
X703712Y404543D01*
X704740Y404241D01*
X705744Y403867D01*
X706719Y403422D01*
X707659Y402908D01*
X708560Y402329D01*
X709418Y401687D01*
X710228Y400985D01*
X710985Y400228D01*
X711687Y399418D01*
X712329Y398560D01*
X712908Y397659D01*
X713422Y396719D01*
X713867Y395744D01*
X714241Y394740D01*
X714543Y393712D01*
X714771Y392665D01*
X714924Y391604D01*
X715000Y390536D01*
X715000Y389464D01*
X415000Y389464D02*
X414924Y388396D01*
X414771Y387335D01*
X414543Y386288D01*
X414241Y385260D01*
X413867Y384256D01*
X413422Y383281D01*
X412908Y382341D01*
X412329Y381440D01*
X411687Y380582D01*
X410985Y379772D01*
X410228Y379015D01*
X409418Y378313D01*
X408560Y377671D01*
X407659Y377092D01*
X406719Y376578D01*
X405744Y376133D01*
X404740Y375759D01*
X403712Y375457D01*
X402665Y375229D01*
X401604Y375076D01*
X400536Y375000D01*
X399464Y375000D01*
X398396Y375076D01*
X397335Y375229D01*
X396288Y375457D01*
X395260Y375759D01*
X394256Y376133D01*
X393281Y376578D01*
X392341Y377092D01*
X391440Y377671D01*
X390582Y378313D01*
X389772Y379015D01*
X389015Y379772D01*
X388313Y380582D01*
X387671Y381440D01*
X387092Y382341D01*
X386578Y383281D01*
X386133Y384256D01*
X385759Y385260D01*
X385457Y386288D01*
X385229Y387335D01*
X385076Y388396D01*
X385000Y389464D01*
X385000Y390536D01*
X385076Y391604D01*
X385229Y392665D01*
X385457Y393712D01*
X385759Y394740D01*
X386133Y395744D01*
X386578Y396719D01*
X387092Y397659D01*
X387671Y398560D01*
X388313Y399418D01*
X389015Y400228D01*
X389772Y400985D01*
X390582Y401687D01*
X391440Y402329D01*
X392341Y402908D01*
X393281Y403422D01*
X394256Y403867D01*
X395260Y404241D01*
X396288Y404543D01*
X397335Y404771D01*
X398396Y404924D01*
X399464Y405000D01*
X400536Y405000D01*
X401604Y404924D01*
X402665Y404771D01*
X403712Y404543D01*
X404740Y404241D01*
X405744Y403867D01*
X406719Y403422D01*
X407659Y402908D01*
X408560Y402329D01*
X409418Y401687D01*
X410228Y400985D01*
X410985Y400228D01*
X411687Y399418D01*
X412329Y398560D01*
X412908Y397659D01*
X413422Y396719D01*
X413867Y395744D01*
X414241Y394740D01*
X414543Y393712D01*
X414771Y392665D01*
X414924Y391604D01*
X415000Y390536D01*
X415000Y389464D01*
M02*
