G04 EAGLE Gerber RS-274X export*
G75*
%MOMM*%
%FSLAX34Y34*%
%LPD*%
%INSilkscreen Top*%
%IPPOS*%
%AMOC8*
5,1,8,0,0,1.08239X$1,22.5*%
G01*
%ADD10C,0.203200*%
%ADD11C,0.300000*%
%ADD12C,0.101600*%
%ADD13C,0.152400*%

G36*
X470545Y502930D02*
X470545Y502930D01*
X470547Y502932D01*
X470548Y502931D01*
X471219Y503166D01*
X471220Y503167D01*
X471221Y503167D01*
X471823Y503545D01*
X471824Y503547D01*
X471826Y503547D01*
X472328Y504049D01*
X472328Y504051D01*
X472330Y504052D01*
X472708Y504654D01*
X472708Y504655D01*
X472709Y504656D01*
X472944Y505327D01*
X472944Y505329D01*
X472945Y505330D01*
X473024Y506036D01*
X473024Y506037D01*
X473023Y506038D01*
X473024Y506039D01*
X472945Y506745D01*
X472943Y506747D01*
X472944Y506748D01*
X472709Y507419D01*
X472708Y507420D01*
X472708Y507421D01*
X472330Y508023D01*
X472328Y508024D01*
X472328Y508026D01*
X471826Y508528D01*
X471824Y508528D01*
X471823Y508530D01*
X471221Y508908D01*
X471220Y508908D01*
X471219Y508909D01*
X470548Y509144D01*
X470546Y509144D01*
X470545Y509145D01*
X469839Y509224D01*
X469837Y509223D01*
X469836Y509224D01*
X469130Y509145D01*
X469128Y509143D01*
X469127Y509144D01*
X468456Y508909D01*
X468455Y508908D01*
X468454Y508908D01*
X467852Y508530D01*
X467851Y508528D01*
X467849Y508528D01*
X467347Y508026D01*
X467347Y508024D01*
X467345Y508023D01*
X466967Y507421D01*
X466967Y507420D01*
X466966Y507419D01*
X466731Y506748D01*
X466732Y506746D01*
X466730Y506745D01*
X466651Y506039D01*
X466652Y506037D01*
X466651Y506036D01*
X466730Y505330D01*
X466732Y505328D01*
X466731Y505327D01*
X466966Y504656D01*
X466967Y504655D01*
X466967Y504654D01*
X467345Y504052D01*
X467347Y504051D01*
X467347Y504049D01*
X467849Y503547D01*
X467851Y503547D01*
X467852Y503545D01*
X468454Y503167D01*
X468455Y503167D01*
X468456Y503166D01*
X469127Y502931D01*
X469129Y502932D01*
X469130Y502930D01*
X469836Y502851D01*
X469838Y502852D01*
X469839Y502851D01*
X470545Y502930D01*
G37*
G36*
X482505Y356994D02*
X482505Y356994D01*
X482510Y356993D01*
X482603Y357014D01*
X482697Y357032D01*
X482701Y357035D01*
X482706Y357036D01*
X482784Y357092D01*
X482862Y357145D01*
X482865Y357149D01*
X482869Y357152D01*
X482920Y357234D01*
X482972Y357313D01*
X482972Y357318D01*
X482975Y357323D01*
X483007Y357500D01*
X483007Y358000D01*
X482994Y358065D01*
X482990Y358132D01*
X482974Y358166D01*
X482968Y358197D01*
X482959Y358209D01*
X482958Y358213D01*
X482937Y358243D01*
X482913Y358295D01*
X480413Y361795D01*
X480348Y361855D01*
X480286Y361919D01*
X480275Y361923D01*
X480266Y361932D01*
X480184Y361962D01*
X480102Y361997D01*
X480090Y361997D01*
X480078Y362001D01*
X479990Y361997D01*
X479901Y361998D01*
X479890Y361993D01*
X479878Y361992D01*
X479798Y361955D01*
X479716Y361921D01*
X479707Y361912D01*
X479697Y361907D01*
X479660Y361866D01*
X479587Y361795D01*
X477087Y358295D01*
X477061Y358236D01*
X477034Y358194D01*
X477033Y358191D01*
X477025Y358177D01*
X477018Y358141D01*
X477005Y358112D01*
X477004Y358063D01*
X476993Y358000D01*
X476993Y357500D01*
X476994Y357495D01*
X476993Y357490D01*
X477014Y357397D01*
X477032Y357304D01*
X477035Y357299D01*
X477036Y357294D01*
X477092Y357216D01*
X477145Y357138D01*
X477149Y357135D01*
X477152Y357131D01*
X477234Y357080D01*
X477313Y357028D01*
X477318Y357028D01*
X477323Y357025D01*
X477500Y356993D01*
X482500Y356993D01*
X482505Y356994D01*
G37*
D10*
X525000Y502500D02*
X525000Y417500D01*
X475000Y417500D01*
X475000Y502500D01*
X525000Y502500D01*
X556216Y515956D02*
X556216Y526956D01*
X576216Y526956D02*
X576216Y515956D01*
D11*
X579566Y530306D03*
D10*
X450500Y340000D02*
X450500Y335000D01*
X451500Y334000D01*
X548500Y334000D01*
X549500Y335000D01*
X549500Y340000D01*
X450500Y340000D01*
X459500Y356000D02*
X540500Y356000D01*
X465000Y355000D02*
X465000Y341000D01*
X535000Y341000D02*
X535000Y355000D01*
D12*
X479500Y339000D02*
X479500Y335000D01*
X482000Y337500D01*
X482000Y339000D01*
X518000Y339000D02*
X518000Y337500D01*
X520500Y335000D01*
X520500Y339000D01*
D10*
X473500Y357500D02*
X473500Y380000D01*
X473502Y380054D01*
X473508Y380107D01*
X473517Y380159D01*
X473530Y380211D01*
X473547Y380262D01*
X473568Y380312D01*
X473592Y380359D01*
X473619Y380405D01*
X473650Y380449D01*
X473683Y380491D01*
X473720Y380530D01*
X473759Y380567D01*
X473801Y380600D01*
X473845Y380631D01*
X473891Y380658D01*
X473938Y380682D01*
X473988Y380703D01*
X474039Y380720D01*
X474091Y380733D01*
X474143Y380742D01*
X474196Y380748D01*
X474250Y380750D01*
X474304Y380748D01*
X474357Y380742D01*
X474409Y380733D01*
X474461Y380720D01*
X474512Y380703D01*
X474562Y380682D01*
X474609Y380658D01*
X474655Y380631D01*
X474699Y380600D01*
X474741Y380567D01*
X474780Y380530D01*
X474817Y380491D01*
X474850Y380449D01*
X474881Y380405D01*
X474908Y380359D01*
X474932Y380312D01*
X474953Y380262D01*
X474970Y380211D01*
X474983Y380159D01*
X474992Y380107D01*
X474998Y380054D01*
X475000Y380000D01*
X475000Y357500D01*
X525000Y357500D02*
X525000Y380000D01*
X525002Y380054D01*
X525008Y380107D01*
X525017Y380159D01*
X525030Y380211D01*
X525047Y380262D01*
X525068Y380312D01*
X525092Y380359D01*
X525119Y380405D01*
X525150Y380449D01*
X525183Y380491D01*
X525220Y380530D01*
X525259Y380567D01*
X525301Y380600D01*
X525345Y380631D01*
X525391Y380658D01*
X525438Y380682D01*
X525488Y380703D01*
X525539Y380720D01*
X525591Y380733D01*
X525643Y380742D01*
X525696Y380748D01*
X525750Y380750D01*
X525804Y380748D01*
X525857Y380742D01*
X525909Y380733D01*
X525961Y380720D01*
X526012Y380703D01*
X526062Y380682D01*
X526109Y380658D01*
X526155Y380631D01*
X526199Y380600D01*
X526241Y380567D01*
X526280Y380530D01*
X526317Y380491D01*
X526350Y380449D01*
X526381Y380405D01*
X526408Y380359D01*
X526432Y380312D01*
X526453Y380262D01*
X526470Y380211D01*
X526483Y380159D01*
X526492Y380107D01*
X526498Y380054D01*
X526500Y380000D01*
X526500Y357500D01*
D13*
X565710Y390000D02*
X565720Y390842D01*
X565751Y391683D01*
X565803Y392523D01*
X565875Y393361D01*
X565968Y394197D01*
X566081Y395031D01*
X566215Y395862D01*
X566369Y396690D01*
X566543Y397513D01*
X566738Y398332D01*
X566952Y399146D01*
X567187Y399954D01*
X567441Y400756D01*
X567714Y401552D01*
X568008Y402341D01*
X568320Y403122D01*
X568652Y403896D01*
X569002Y404661D01*
X569371Y405417D01*
X569759Y406164D01*
X570165Y406901D01*
X570588Y407629D01*
X571030Y408345D01*
X571489Y409051D01*
X571965Y409744D01*
X572458Y410427D01*
X572968Y411096D01*
X573493Y411753D01*
X574035Y412397D01*
X574593Y413028D01*
X575166Y413644D01*
X575753Y414247D01*
X576356Y414834D01*
X576972Y415407D01*
X577603Y415965D01*
X578247Y416507D01*
X578904Y417032D01*
X579573Y417542D01*
X580256Y418035D01*
X580949Y418511D01*
X581655Y418970D01*
X582371Y419412D01*
X583099Y419835D01*
X583836Y420241D01*
X584583Y420629D01*
X585339Y420998D01*
X586104Y421348D01*
X586878Y421680D01*
X587659Y421992D01*
X588448Y422286D01*
X589244Y422559D01*
X590046Y422813D01*
X590854Y423048D01*
X591668Y423262D01*
X592487Y423457D01*
X593310Y423631D01*
X594138Y423785D01*
X594969Y423919D01*
X595803Y424032D01*
X596639Y424125D01*
X597477Y424197D01*
X598317Y424249D01*
X599158Y424280D01*
X600000Y424290D01*
X600842Y424280D01*
X601683Y424249D01*
X602523Y424197D01*
X603361Y424125D01*
X604197Y424032D01*
X605031Y423919D01*
X605862Y423785D01*
X606690Y423631D01*
X607513Y423457D01*
X608332Y423262D01*
X609146Y423048D01*
X609954Y422813D01*
X610756Y422559D01*
X611552Y422286D01*
X612341Y421992D01*
X613122Y421680D01*
X613896Y421348D01*
X614661Y420998D01*
X615417Y420629D01*
X616164Y420241D01*
X616901Y419835D01*
X617629Y419412D01*
X618345Y418970D01*
X619051Y418511D01*
X619744Y418035D01*
X620427Y417542D01*
X621096Y417032D01*
X621753Y416507D01*
X622397Y415965D01*
X623028Y415407D01*
X623644Y414834D01*
X624247Y414247D01*
X624834Y413644D01*
X625407Y413028D01*
X625965Y412397D01*
X626507Y411753D01*
X627032Y411096D01*
X627542Y410427D01*
X628035Y409744D01*
X628511Y409051D01*
X628970Y408345D01*
X629412Y407629D01*
X629835Y406901D01*
X630241Y406164D01*
X630629Y405417D01*
X630998Y404661D01*
X631348Y403896D01*
X631680Y403122D01*
X631992Y402341D01*
X632286Y401552D01*
X632559Y400756D01*
X632813Y399954D01*
X633048Y399146D01*
X633262Y398332D01*
X633457Y397513D01*
X633631Y396690D01*
X633785Y395862D01*
X633919Y395031D01*
X634032Y394197D01*
X634125Y393361D01*
X634197Y392523D01*
X634249Y391683D01*
X634280Y390842D01*
X634290Y390000D01*
X634280Y389158D01*
X634249Y388317D01*
X634197Y387477D01*
X634125Y386639D01*
X634032Y385803D01*
X633919Y384969D01*
X633785Y384138D01*
X633631Y383310D01*
X633457Y382487D01*
X633262Y381668D01*
X633048Y380854D01*
X632813Y380046D01*
X632559Y379244D01*
X632286Y378448D01*
X631992Y377659D01*
X631680Y376878D01*
X631348Y376104D01*
X630998Y375339D01*
X630629Y374583D01*
X630241Y373836D01*
X629835Y373099D01*
X629412Y372371D01*
X628970Y371655D01*
X628511Y370949D01*
X628035Y370256D01*
X627542Y369573D01*
X627032Y368904D01*
X626507Y368247D01*
X625965Y367603D01*
X625407Y366972D01*
X624834Y366356D01*
X624247Y365753D01*
X623644Y365166D01*
X623028Y364593D01*
X622397Y364035D01*
X621753Y363493D01*
X621096Y362968D01*
X620427Y362458D01*
X619744Y361965D01*
X619051Y361489D01*
X618345Y361030D01*
X617629Y360588D01*
X616901Y360165D01*
X616164Y359759D01*
X615417Y359371D01*
X614661Y359002D01*
X613896Y358652D01*
X613122Y358320D01*
X612341Y358008D01*
X611552Y357714D01*
X610756Y357441D01*
X609954Y357187D01*
X609146Y356952D01*
X608332Y356738D01*
X607513Y356543D01*
X606690Y356369D01*
X605862Y356215D01*
X605031Y356081D01*
X604197Y355968D01*
X603361Y355875D01*
X602523Y355803D01*
X601683Y355751D01*
X600842Y355720D01*
X600000Y355710D01*
X599158Y355720D01*
X598317Y355751D01*
X597477Y355803D01*
X596639Y355875D01*
X595803Y355968D01*
X594969Y356081D01*
X594138Y356215D01*
X593310Y356369D01*
X592487Y356543D01*
X591668Y356738D01*
X590854Y356952D01*
X590046Y357187D01*
X589244Y357441D01*
X588448Y357714D01*
X587659Y358008D01*
X586878Y358320D01*
X586104Y358652D01*
X585339Y359002D01*
X584583Y359371D01*
X583836Y359759D01*
X583099Y360165D01*
X582371Y360588D01*
X581655Y361030D01*
X580949Y361489D01*
X580256Y361965D01*
X579573Y362458D01*
X578904Y362968D01*
X578247Y363493D01*
X577603Y364035D01*
X576972Y364593D01*
X576356Y365166D01*
X575753Y365753D01*
X575166Y366356D01*
X574593Y366972D01*
X574035Y367603D01*
X573493Y368247D01*
X572968Y368904D01*
X572458Y369573D01*
X571965Y370256D01*
X571489Y370949D01*
X571030Y371655D01*
X570588Y372371D01*
X570165Y373099D01*
X569759Y373836D01*
X569371Y374583D01*
X569002Y375339D01*
X568652Y376104D01*
X568320Y376878D01*
X568008Y377659D01*
X567714Y378448D01*
X567441Y379244D01*
X567187Y380046D01*
X566952Y380854D01*
X566738Y381668D01*
X566543Y382487D01*
X566369Y383310D01*
X566215Y384138D01*
X566081Y384969D01*
X565968Y385803D01*
X565875Y386639D01*
X565803Y387477D01*
X565751Y388317D01*
X565720Y389158D01*
X565710Y390000D01*
D10*
X584000Y390000D02*
X584005Y390393D01*
X584019Y390785D01*
X584043Y391177D01*
X584077Y391568D01*
X584120Y391959D01*
X584173Y392348D01*
X584236Y392735D01*
X584307Y393121D01*
X584389Y393506D01*
X584479Y393888D01*
X584580Y394267D01*
X584689Y394645D01*
X584808Y395019D01*
X584935Y395390D01*
X585072Y395758D01*
X585218Y396123D01*
X585373Y396484D01*
X585536Y396841D01*
X585708Y397194D01*
X585889Y397542D01*
X586079Y397886D01*
X586276Y398226D01*
X586482Y398560D01*
X586696Y398889D01*
X586919Y399213D01*
X587149Y399531D01*
X587386Y399844D01*
X587632Y400150D01*
X587885Y400451D01*
X588145Y400745D01*
X588412Y401033D01*
X588686Y401314D01*
X588967Y401588D01*
X589255Y401855D01*
X589549Y402115D01*
X589850Y402368D01*
X590156Y402614D01*
X590469Y402851D01*
X590787Y403081D01*
X591111Y403304D01*
X591440Y403518D01*
X591774Y403724D01*
X592114Y403921D01*
X592458Y404111D01*
X592806Y404292D01*
X593159Y404464D01*
X593516Y404627D01*
X593877Y404782D01*
X594242Y404928D01*
X594610Y405065D01*
X594981Y405192D01*
X595355Y405311D01*
X595733Y405420D01*
X596112Y405521D01*
X596494Y405611D01*
X596879Y405693D01*
X597265Y405764D01*
X597652Y405827D01*
X598041Y405880D01*
X598432Y405923D01*
X598823Y405957D01*
X599215Y405981D01*
X599607Y405995D01*
X600000Y406000D01*
X600393Y405995D01*
X600785Y405981D01*
X601177Y405957D01*
X601568Y405923D01*
X601959Y405880D01*
X602348Y405827D01*
X602735Y405764D01*
X603121Y405693D01*
X603506Y405611D01*
X603888Y405521D01*
X604267Y405420D01*
X604645Y405311D01*
X605019Y405192D01*
X605390Y405065D01*
X605758Y404928D01*
X606123Y404782D01*
X606484Y404627D01*
X606841Y404464D01*
X607194Y404292D01*
X607542Y404111D01*
X607886Y403921D01*
X608226Y403724D01*
X608560Y403518D01*
X608889Y403304D01*
X609213Y403081D01*
X609531Y402851D01*
X609844Y402614D01*
X610150Y402368D01*
X610451Y402115D01*
X610745Y401855D01*
X611033Y401588D01*
X611314Y401314D01*
X611588Y401033D01*
X611855Y400745D01*
X612115Y400451D01*
X612368Y400150D01*
X612614Y399844D01*
X612851Y399531D01*
X613081Y399213D01*
X613304Y398889D01*
X613518Y398560D01*
X613724Y398226D01*
X613921Y397886D01*
X614111Y397542D01*
X614292Y397194D01*
X614464Y396841D01*
X614627Y396484D01*
X614782Y396123D01*
X614928Y395758D01*
X615065Y395390D01*
X615192Y395019D01*
X615311Y394645D01*
X615420Y394267D01*
X615521Y393888D01*
X615611Y393506D01*
X615693Y393121D01*
X615764Y392735D01*
X615827Y392348D01*
X615880Y391959D01*
X615923Y391568D01*
X615957Y391177D01*
X615981Y390785D01*
X615995Y390393D01*
X616000Y390000D01*
X615995Y389607D01*
X615981Y389215D01*
X615957Y388823D01*
X615923Y388432D01*
X615880Y388041D01*
X615827Y387652D01*
X615764Y387265D01*
X615693Y386879D01*
X615611Y386494D01*
X615521Y386112D01*
X615420Y385733D01*
X615311Y385355D01*
X615192Y384981D01*
X615065Y384610D01*
X614928Y384242D01*
X614782Y383877D01*
X614627Y383516D01*
X614464Y383159D01*
X614292Y382806D01*
X614111Y382458D01*
X613921Y382114D01*
X613724Y381774D01*
X613518Y381440D01*
X613304Y381111D01*
X613081Y380787D01*
X612851Y380469D01*
X612614Y380156D01*
X612368Y379850D01*
X612115Y379549D01*
X611855Y379255D01*
X611588Y378967D01*
X611314Y378686D01*
X611033Y378412D01*
X610745Y378145D01*
X610451Y377885D01*
X610150Y377632D01*
X609844Y377386D01*
X609531Y377149D01*
X609213Y376919D01*
X608889Y376696D01*
X608560Y376482D01*
X608226Y376276D01*
X607886Y376079D01*
X607542Y375889D01*
X607194Y375708D01*
X606841Y375536D01*
X606484Y375373D01*
X606123Y375218D01*
X605758Y375072D01*
X605390Y374935D01*
X605019Y374808D01*
X604645Y374689D01*
X604267Y374580D01*
X603888Y374479D01*
X603506Y374389D01*
X603121Y374307D01*
X602735Y374236D01*
X602348Y374173D01*
X601959Y374120D01*
X601568Y374077D01*
X601177Y374043D01*
X600785Y374019D01*
X600393Y374005D01*
X600000Y374000D01*
X599607Y374005D01*
X599215Y374019D01*
X598823Y374043D01*
X598432Y374077D01*
X598041Y374120D01*
X597652Y374173D01*
X597265Y374236D01*
X596879Y374307D01*
X596494Y374389D01*
X596112Y374479D01*
X595733Y374580D01*
X595355Y374689D01*
X594981Y374808D01*
X594610Y374935D01*
X594242Y375072D01*
X593877Y375218D01*
X593516Y375373D01*
X593159Y375536D01*
X592806Y375708D01*
X592458Y375889D01*
X592114Y376079D01*
X591774Y376276D01*
X591440Y376482D01*
X591111Y376696D01*
X590787Y376919D01*
X590469Y377149D01*
X590156Y377386D01*
X589850Y377632D01*
X589549Y377885D01*
X589255Y378145D01*
X588967Y378412D01*
X588686Y378686D01*
X588412Y378967D01*
X588145Y379255D01*
X587885Y379549D01*
X587632Y379850D01*
X587386Y380156D01*
X587149Y380469D01*
X586919Y380787D01*
X586696Y381111D01*
X586482Y381440D01*
X586276Y381774D01*
X586079Y382114D01*
X585889Y382458D01*
X585708Y382806D01*
X585536Y383159D01*
X585373Y383516D01*
X585218Y383877D01*
X585072Y384242D01*
X584935Y384610D01*
X584808Y384981D01*
X584689Y385355D01*
X584580Y385733D01*
X584479Y386112D01*
X584389Y386494D01*
X584307Y386879D01*
X584236Y387265D01*
X584173Y387652D01*
X584120Y388041D01*
X584077Y388432D01*
X584043Y388823D01*
X584019Y389215D01*
X584005Y389607D01*
X584000Y390000D01*
D13*
X265710Y390000D02*
X265720Y390842D01*
X265751Y391683D01*
X265803Y392523D01*
X265875Y393361D01*
X265968Y394197D01*
X266081Y395031D01*
X266215Y395862D01*
X266369Y396690D01*
X266543Y397513D01*
X266738Y398332D01*
X266952Y399146D01*
X267187Y399954D01*
X267441Y400756D01*
X267714Y401552D01*
X268008Y402341D01*
X268320Y403122D01*
X268652Y403896D01*
X269002Y404661D01*
X269371Y405417D01*
X269759Y406164D01*
X270165Y406901D01*
X270588Y407629D01*
X271030Y408345D01*
X271489Y409051D01*
X271965Y409744D01*
X272458Y410427D01*
X272968Y411096D01*
X273493Y411753D01*
X274035Y412397D01*
X274593Y413028D01*
X275166Y413644D01*
X275753Y414247D01*
X276356Y414834D01*
X276972Y415407D01*
X277603Y415965D01*
X278247Y416507D01*
X278904Y417032D01*
X279573Y417542D01*
X280256Y418035D01*
X280949Y418511D01*
X281655Y418970D01*
X282371Y419412D01*
X283099Y419835D01*
X283836Y420241D01*
X284583Y420629D01*
X285339Y420998D01*
X286104Y421348D01*
X286878Y421680D01*
X287659Y421992D01*
X288448Y422286D01*
X289244Y422559D01*
X290046Y422813D01*
X290854Y423048D01*
X291668Y423262D01*
X292487Y423457D01*
X293310Y423631D01*
X294138Y423785D01*
X294969Y423919D01*
X295803Y424032D01*
X296639Y424125D01*
X297477Y424197D01*
X298317Y424249D01*
X299158Y424280D01*
X300000Y424290D01*
X300842Y424280D01*
X301683Y424249D01*
X302523Y424197D01*
X303361Y424125D01*
X304197Y424032D01*
X305031Y423919D01*
X305862Y423785D01*
X306690Y423631D01*
X307513Y423457D01*
X308332Y423262D01*
X309146Y423048D01*
X309954Y422813D01*
X310756Y422559D01*
X311552Y422286D01*
X312341Y421992D01*
X313122Y421680D01*
X313896Y421348D01*
X314661Y420998D01*
X315417Y420629D01*
X316164Y420241D01*
X316901Y419835D01*
X317629Y419412D01*
X318345Y418970D01*
X319051Y418511D01*
X319744Y418035D01*
X320427Y417542D01*
X321096Y417032D01*
X321753Y416507D01*
X322397Y415965D01*
X323028Y415407D01*
X323644Y414834D01*
X324247Y414247D01*
X324834Y413644D01*
X325407Y413028D01*
X325965Y412397D01*
X326507Y411753D01*
X327032Y411096D01*
X327542Y410427D01*
X328035Y409744D01*
X328511Y409051D01*
X328970Y408345D01*
X329412Y407629D01*
X329835Y406901D01*
X330241Y406164D01*
X330629Y405417D01*
X330998Y404661D01*
X331348Y403896D01*
X331680Y403122D01*
X331992Y402341D01*
X332286Y401552D01*
X332559Y400756D01*
X332813Y399954D01*
X333048Y399146D01*
X333262Y398332D01*
X333457Y397513D01*
X333631Y396690D01*
X333785Y395862D01*
X333919Y395031D01*
X334032Y394197D01*
X334125Y393361D01*
X334197Y392523D01*
X334249Y391683D01*
X334280Y390842D01*
X334290Y390000D01*
X334280Y389158D01*
X334249Y388317D01*
X334197Y387477D01*
X334125Y386639D01*
X334032Y385803D01*
X333919Y384969D01*
X333785Y384138D01*
X333631Y383310D01*
X333457Y382487D01*
X333262Y381668D01*
X333048Y380854D01*
X332813Y380046D01*
X332559Y379244D01*
X332286Y378448D01*
X331992Y377659D01*
X331680Y376878D01*
X331348Y376104D01*
X330998Y375339D01*
X330629Y374583D01*
X330241Y373836D01*
X329835Y373099D01*
X329412Y372371D01*
X328970Y371655D01*
X328511Y370949D01*
X328035Y370256D01*
X327542Y369573D01*
X327032Y368904D01*
X326507Y368247D01*
X325965Y367603D01*
X325407Y366972D01*
X324834Y366356D01*
X324247Y365753D01*
X323644Y365166D01*
X323028Y364593D01*
X322397Y364035D01*
X321753Y363493D01*
X321096Y362968D01*
X320427Y362458D01*
X319744Y361965D01*
X319051Y361489D01*
X318345Y361030D01*
X317629Y360588D01*
X316901Y360165D01*
X316164Y359759D01*
X315417Y359371D01*
X314661Y359002D01*
X313896Y358652D01*
X313122Y358320D01*
X312341Y358008D01*
X311552Y357714D01*
X310756Y357441D01*
X309954Y357187D01*
X309146Y356952D01*
X308332Y356738D01*
X307513Y356543D01*
X306690Y356369D01*
X305862Y356215D01*
X305031Y356081D01*
X304197Y355968D01*
X303361Y355875D01*
X302523Y355803D01*
X301683Y355751D01*
X300842Y355720D01*
X300000Y355710D01*
X299158Y355720D01*
X298317Y355751D01*
X297477Y355803D01*
X296639Y355875D01*
X295803Y355968D01*
X294969Y356081D01*
X294138Y356215D01*
X293310Y356369D01*
X292487Y356543D01*
X291668Y356738D01*
X290854Y356952D01*
X290046Y357187D01*
X289244Y357441D01*
X288448Y357714D01*
X287659Y358008D01*
X286878Y358320D01*
X286104Y358652D01*
X285339Y359002D01*
X284583Y359371D01*
X283836Y359759D01*
X283099Y360165D01*
X282371Y360588D01*
X281655Y361030D01*
X280949Y361489D01*
X280256Y361965D01*
X279573Y362458D01*
X278904Y362968D01*
X278247Y363493D01*
X277603Y364035D01*
X276972Y364593D01*
X276356Y365166D01*
X275753Y365753D01*
X275166Y366356D01*
X274593Y366972D01*
X274035Y367603D01*
X273493Y368247D01*
X272968Y368904D01*
X272458Y369573D01*
X271965Y370256D01*
X271489Y370949D01*
X271030Y371655D01*
X270588Y372371D01*
X270165Y373099D01*
X269759Y373836D01*
X269371Y374583D01*
X269002Y375339D01*
X268652Y376104D01*
X268320Y376878D01*
X268008Y377659D01*
X267714Y378448D01*
X267441Y379244D01*
X267187Y380046D01*
X266952Y380854D01*
X266738Y381668D01*
X266543Y382487D01*
X266369Y383310D01*
X266215Y384138D01*
X266081Y384969D01*
X265968Y385803D01*
X265875Y386639D01*
X265803Y387477D01*
X265751Y388317D01*
X265720Y389158D01*
X265710Y390000D01*
D10*
X284000Y390000D02*
X284005Y390393D01*
X284019Y390785D01*
X284043Y391177D01*
X284077Y391568D01*
X284120Y391959D01*
X284173Y392348D01*
X284236Y392735D01*
X284307Y393121D01*
X284389Y393506D01*
X284479Y393888D01*
X284580Y394267D01*
X284689Y394645D01*
X284808Y395019D01*
X284935Y395390D01*
X285072Y395758D01*
X285218Y396123D01*
X285373Y396484D01*
X285536Y396841D01*
X285708Y397194D01*
X285889Y397542D01*
X286079Y397886D01*
X286276Y398226D01*
X286482Y398560D01*
X286696Y398889D01*
X286919Y399213D01*
X287149Y399531D01*
X287386Y399844D01*
X287632Y400150D01*
X287885Y400451D01*
X288145Y400745D01*
X288412Y401033D01*
X288686Y401314D01*
X288967Y401588D01*
X289255Y401855D01*
X289549Y402115D01*
X289850Y402368D01*
X290156Y402614D01*
X290469Y402851D01*
X290787Y403081D01*
X291111Y403304D01*
X291440Y403518D01*
X291774Y403724D01*
X292114Y403921D01*
X292458Y404111D01*
X292806Y404292D01*
X293159Y404464D01*
X293516Y404627D01*
X293877Y404782D01*
X294242Y404928D01*
X294610Y405065D01*
X294981Y405192D01*
X295355Y405311D01*
X295733Y405420D01*
X296112Y405521D01*
X296494Y405611D01*
X296879Y405693D01*
X297265Y405764D01*
X297652Y405827D01*
X298041Y405880D01*
X298432Y405923D01*
X298823Y405957D01*
X299215Y405981D01*
X299607Y405995D01*
X300000Y406000D01*
X300393Y405995D01*
X300785Y405981D01*
X301177Y405957D01*
X301568Y405923D01*
X301959Y405880D01*
X302348Y405827D01*
X302735Y405764D01*
X303121Y405693D01*
X303506Y405611D01*
X303888Y405521D01*
X304267Y405420D01*
X304645Y405311D01*
X305019Y405192D01*
X305390Y405065D01*
X305758Y404928D01*
X306123Y404782D01*
X306484Y404627D01*
X306841Y404464D01*
X307194Y404292D01*
X307542Y404111D01*
X307886Y403921D01*
X308226Y403724D01*
X308560Y403518D01*
X308889Y403304D01*
X309213Y403081D01*
X309531Y402851D01*
X309844Y402614D01*
X310150Y402368D01*
X310451Y402115D01*
X310745Y401855D01*
X311033Y401588D01*
X311314Y401314D01*
X311588Y401033D01*
X311855Y400745D01*
X312115Y400451D01*
X312368Y400150D01*
X312614Y399844D01*
X312851Y399531D01*
X313081Y399213D01*
X313304Y398889D01*
X313518Y398560D01*
X313724Y398226D01*
X313921Y397886D01*
X314111Y397542D01*
X314292Y397194D01*
X314464Y396841D01*
X314627Y396484D01*
X314782Y396123D01*
X314928Y395758D01*
X315065Y395390D01*
X315192Y395019D01*
X315311Y394645D01*
X315420Y394267D01*
X315521Y393888D01*
X315611Y393506D01*
X315693Y393121D01*
X315764Y392735D01*
X315827Y392348D01*
X315880Y391959D01*
X315923Y391568D01*
X315957Y391177D01*
X315981Y390785D01*
X315995Y390393D01*
X316000Y390000D01*
X315995Y389607D01*
X315981Y389215D01*
X315957Y388823D01*
X315923Y388432D01*
X315880Y388041D01*
X315827Y387652D01*
X315764Y387265D01*
X315693Y386879D01*
X315611Y386494D01*
X315521Y386112D01*
X315420Y385733D01*
X315311Y385355D01*
X315192Y384981D01*
X315065Y384610D01*
X314928Y384242D01*
X314782Y383877D01*
X314627Y383516D01*
X314464Y383159D01*
X314292Y382806D01*
X314111Y382458D01*
X313921Y382114D01*
X313724Y381774D01*
X313518Y381440D01*
X313304Y381111D01*
X313081Y380787D01*
X312851Y380469D01*
X312614Y380156D01*
X312368Y379850D01*
X312115Y379549D01*
X311855Y379255D01*
X311588Y378967D01*
X311314Y378686D01*
X311033Y378412D01*
X310745Y378145D01*
X310451Y377885D01*
X310150Y377632D01*
X309844Y377386D01*
X309531Y377149D01*
X309213Y376919D01*
X308889Y376696D01*
X308560Y376482D01*
X308226Y376276D01*
X307886Y376079D01*
X307542Y375889D01*
X307194Y375708D01*
X306841Y375536D01*
X306484Y375373D01*
X306123Y375218D01*
X305758Y375072D01*
X305390Y374935D01*
X305019Y374808D01*
X304645Y374689D01*
X304267Y374580D01*
X303888Y374479D01*
X303506Y374389D01*
X303121Y374307D01*
X302735Y374236D01*
X302348Y374173D01*
X301959Y374120D01*
X301568Y374077D01*
X301177Y374043D01*
X300785Y374019D01*
X300393Y374005D01*
X300000Y374000D01*
X299607Y374005D01*
X299215Y374019D01*
X298823Y374043D01*
X298432Y374077D01*
X298041Y374120D01*
X297652Y374173D01*
X297265Y374236D01*
X296879Y374307D01*
X296494Y374389D01*
X296112Y374479D01*
X295733Y374580D01*
X295355Y374689D01*
X294981Y374808D01*
X294610Y374935D01*
X294242Y375072D01*
X293877Y375218D01*
X293516Y375373D01*
X293159Y375536D01*
X292806Y375708D01*
X292458Y375889D01*
X292114Y376079D01*
X291774Y376276D01*
X291440Y376482D01*
X291111Y376696D01*
X290787Y376919D01*
X290469Y377149D01*
X290156Y377386D01*
X289850Y377632D01*
X289549Y377885D01*
X289255Y378145D01*
X288967Y378412D01*
X288686Y378686D01*
X288412Y378967D01*
X288145Y379255D01*
X287885Y379549D01*
X287632Y379850D01*
X287386Y380156D01*
X287149Y380469D01*
X286919Y380787D01*
X286696Y381111D01*
X286482Y381440D01*
X286276Y381774D01*
X286079Y382114D01*
X285889Y382458D01*
X285708Y382806D01*
X285536Y383159D01*
X285373Y383516D01*
X285218Y383877D01*
X285072Y384242D01*
X284935Y384610D01*
X284808Y384981D01*
X284689Y385355D01*
X284580Y385733D01*
X284479Y386112D01*
X284389Y386494D01*
X284307Y386879D01*
X284236Y387265D01*
X284173Y387652D01*
X284120Y388041D01*
X284077Y388432D01*
X284043Y388823D01*
X284019Y389215D01*
X284005Y389607D01*
X284000Y390000D01*
D13*
X665710Y390000D02*
X665720Y390842D01*
X665751Y391683D01*
X665803Y392523D01*
X665875Y393361D01*
X665968Y394197D01*
X666081Y395031D01*
X666215Y395862D01*
X666369Y396690D01*
X666543Y397513D01*
X666738Y398332D01*
X666952Y399146D01*
X667187Y399954D01*
X667441Y400756D01*
X667714Y401552D01*
X668008Y402341D01*
X668320Y403122D01*
X668652Y403896D01*
X669002Y404661D01*
X669371Y405417D01*
X669759Y406164D01*
X670165Y406901D01*
X670588Y407629D01*
X671030Y408345D01*
X671489Y409051D01*
X671965Y409744D01*
X672458Y410427D01*
X672968Y411096D01*
X673493Y411753D01*
X674035Y412397D01*
X674593Y413028D01*
X675166Y413644D01*
X675753Y414247D01*
X676356Y414834D01*
X676972Y415407D01*
X677603Y415965D01*
X678247Y416507D01*
X678904Y417032D01*
X679573Y417542D01*
X680256Y418035D01*
X680949Y418511D01*
X681655Y418970D01*
X682371Y419412D01*
X683099Y419835D01*
X683836Y420241D01*
X684583Y420629D01*
X685339Y420998D01*
X686104Y421348D01*
X686878Y421680D01*
X687659Y421992D01*
X688448Y422286D01*
X689244Y422559D01*
X690046Y422813D01*
X690854Y423048D01*
X691668Y423262D01*
X692487Y423457D01*
X693310Y423631D01*
X694138Y423785D01*
X694969Y423919D01*
X695803Y424032D01*
X696639Y424125D01*
X697477Y424197D01*
X698317Y424249D01*
X699158Y424280D01*
X700000Y424290D01*
X700842Y424280D01*
X701683Y424249D01*
X702523Y424197D01*
X703361Y424125D01*
X704197Y424032D01*
X705031Y423919D01*
X705862Y423785D01*
X706690Y423631D01*
X707513Y423457D01*
X708332Y423262D01*
X709146Y423048D01*
X709954Y422813D01*
X710756Y422559D01*
X711552Y422286D01*
X712341Y421992D01*
X713122Y421680D01*
X713896Y421348D01*
X714661Y420998D01*
X715417Y420629D01*
X716164Y420241D01*
X716901Y419835D01*
X717629Y419412D01*
X718345Y418970D01*
X719051Y418511D01*
X719744Y418035D01*
X720427Y417542D01*
X721096Y417032D01*
X721753Y416507D01*
X722397Y415965D01*
X723028Y415407D01*
X723644Y414834D01*
X724247Y414247D01*
X724834Y413644D01*
X725407Y413028D01*
X725965Y412397D01*
X726507Y411753D01*
X727032Y411096D01*
X727542Y410427D01*
X728035Y409744D01*
X728511Y409051D01*
X728970Y408345D01*
X729412Y407629D01*
X729835Y406901D01*
X730241Y406164D01*
X730629Y405417D01*
X730998Y404661D01*
X731348Y403896D01*
X731680Y403122D01*
X731992Y402341D01*
X732286Y401552D01*
X732559Y400756D01*
X732813Y399954D01*
X733048Y399146D01*
X733262Y398332D01*
X733457Y397513D01*
X733631Y396690D01*
X733785Y395862D01*
X733919Y395031D01*
X734032Y394197D01*
X734125Y393361D01*
X734197Y392523D01*
X734249Y391683D01*
X734280Y390842D01*
X734290Y390000D01*
X734280Y389158D01*
X734249Y388317D01*
X734197Y387477D01*
X734125Y386639D01*
X734032Y385803D01*
X733919Y384969D01*
X733785Y384138D01*
X733631Y383310D01*
X733457Y382487D01*
X733262Y381668D01*
X733048Y380854D01*
X732813Y380046D01*
X732559Y379244D01*
X732286Y378448D01*
X731992Y377659D01*
X731680Y376878D01*
X731348Y376104D01*
X730998Y375339D01*
X730629Y374583D01*
X730241Y373836D01*
X729835Y373099D01*
X729412Y372371D01*
X728970Y371655D01*
X728511Y370949D01*
X728035Y370256D01*
X727542Y369573D01*
X727032Y368904D01*
X726507Y368247D01*
X725965Y367603D01*
X725407Y366972D01*
X724834Y366356D01*
X724247Y365753D01*
X723644Y365166D01*
X723028Y364593D01*
X722397Y364035D01*
X721753Y363493D01*
X721096Y362968D01*
X720427Y362458D01*
X719744Y361965D01*
X719051Y361489D01*
X718345Y361030D01*
X717629Y360588D01*
X716901Y360165D01*
X716164Y359759D01*
X715417Y359371D01*
X714661Y359002D01*
X713896Y358652D01*
X713122Y358320D01*
X712341Y358008D01*
X711552Y357714D01*
X710756Y357441D01*
X709954Y357187D01*
X709146Y356952D01*
X708332Y356738D01*
X707513Y356543D01*
X706690Y356369D01*
X705862Y356215D01*
X705031Y356081D01*
X704197Y355968D01*
X703361Y355875D01*
X702523Y355803D01*
X701683Y355751D01*
X700842Y355720D01*
X700000Y355710D01*
X699158Y355720D01*
X698317Y355751D01*
X697477Y355803D01*
X696639Y355875D01*
X695803Y355968D01*
X694969Y356081D01*
X694138Y356215D01*
X693310Y356369D01*
X692487Y356543D01*
X691668Y356738D01*
X690854Y356952D01*
X690046Y357187D01*
X689244Y357441D01*
X688448Y357714D01*
X687659Y358008D01*
X686878Y358320D01*
X686104Y358652D01*
X685339Y359002D01*
X684583Y359371D01*
X683836Y359759D01*
X683099Y360165D01*
X682371Y360588D01*
X681655Y361030D01*
X680949Y361489D01*
X680256Y361965D01*
X679573Y362458D01*
X678904Y362968D01*
X678247Y363493D01*
X677603Y364035D01*
X676972Y364593D01*
X676356Y365166D01*
X675753Y365753D01*
X675166Y366356D01*
X674593Y366972D01*
X674035Y367603D01*
X673493Y368247D01*
X672968Y368904D01*
X672458Y369573D01*
X671965Y370256D01*
X671489Y370949D01*
X671030Y371655D01*
X670588Y372371D01*
X670165Y373099D01*
X669759Y373836D01*
X669371Y374583D01*
X669002Y375339D01*
X668652Y376104D01*
X668320Y376878D01*
X668008Y377659D01*
X667714Y378448D01*
X667441Y379244D01*
X667187Y380046D01*
X666952Y380854D01*
X666738Y381668D01*
X666543Y382487D01*
X666369Y383310D01*
X666215Y384138D01*
X666081Y384969D01*
X665968Y385803D01*
X665875Y386639D01*
X665803Y387477D01*
X665751Y388317D01*
X665720Y389158D01*
X665710Y390000D01*
D10*
X684000Y390000D02*
X684005Y390393D01*
X684019Y390785D01*
X684043Y391177D01*
X684077Y391568D01*
X684120Y391959D01*
X684173Y392348D01*
X684236Y392735D01*
X684307Y393121D01*
X684389Y393506D01*
X684479Y393888D01*
X684580Y394267D01*
X684689Y394645D01*
X684808Y395019D01*
X684935Y395390D01*
X685072Y395758D01*
X685218Y396123D01*
X685373Y396484D01*
X685536Y396841D01*
X685708Y397194D01*
X685889Y397542D01*
X686079Y397886D01*
X686276Y398226D01*
X686482Y398560D01*
X686696Y398889D01*
X686919Y399213D01*
X687149Y399531D01*
X687386Y399844D01*
X687632Y400150D01*
X687885Y400451D01*
X688145Y400745D01*
X688412Y401033D01*
X688686Y401314D01*
X688967Y401588D01*
X689255Y401855D01*
X689549Y402115D01*
X689850Y402368D01*
X690156Y402614D01*
X690469Y402851D01*
X690787Y403081D01*
X691111Y403304D01*
X691440Y403518D01*
X691774Y403724D01*
X692114Y403921D01*
X692458Y404111D01*
X692806Y404292D01*
X693159Y404464D01*
X693516Y404627D01*
X693877Y404782D01*
X694242Y404928D01*
X694610Y405065D01*
X694981Y405192D01*
X695355Y405311D01*
X695733Y405420D01*
X696112Y405521D01*
X696494Y405611D01*
X696879Y405693D01*
X697265Y405764D01*
X697652Y405827D01*
X698041Y405880D01*
X698432Y405923D01*
X698823Y405957D01*
X699215Y405981D01*
X699607Y405995D01*
X700000Y406000D01*
X700393Y405995D01*
X700785Y405981D01*
X701177Y405957D01*
X701568Y405923D01*
X701959Y405880D01*
X702348Y405827D01*
X702735Y405764D01*
X703121Y405693D01*
X703506Y405611D01*
X703888Y405521D01*
X704267Y405420D01*
X704645Y405311D01*
X705019Y405192D01*
X705390Y405065D01*
X705758Y404928D01*
X706123Y404782D01*
X706484Y404627D01*
X706841Y404464D01*
X707194Y404292D01*
X707542Y404111D01*
X707886Y403921D01*
X708226Y403724D01*
X708560Y403518D01*
X708889Y403304D01*
X709213Y403081D01*
X709531Y402851D01*
X709844Y402614D01*
X710150Y402368D01*
X710451Y402115D01*
X710745Y401855D01*
X711033Y401588D01*
X711314Y401314D01*
X711588Y401033D01*
X711855Y400745D01*
X712115Y400451D01*
X712368Y400150D01*
X712614Y399844D01*
X712851Y399531D01*
X713081Y399213D01*
X713304Y398889D01*
X713518Y398560D01*
X713724Y398226D01*
X713921Y397886D01*
X714111Y397542D01*
X714292Y397194D01*
X714464Y396841D01*
X714627Y396484D01*
X714782Y396123D01*
X714928Y395758D01*
X715065Y395390D01*
X715192Y395019D01*
X715311Y394645D01*
X715420Y394267D01*
X715521Y393888D01*
X715611Y393506D01*
X715693Y393121D01*
X715764Y392735D01*
X715827Y392348D01*
X715880Y391959D01*
X715923Y391568D01*
X715957Y391177D01*
X715981Y390785D01*
X715995Y390393D01*
X716000Y390000D01*
X715995Y389607D01*
X715981Y389215D01*
X715957Y388823D01*
X715923Y388432D01*
X715880Y388041D01*
X715827Y387652D01*
X715764Y387265D01*
X715693Y386879D01*
X715611Y386494D01*
X715521Y386112D01*
X715420Y385733D01*
X715311Y385355D01*
X715192Y384981D01*
X715065Y384610D01*
X714928Y384242D01*
X714782Y383877D01*
X714627Y383516D01*
X714464Y383159D01*
X714292Y382806D01*
X714111Y382458D01*
X713921Y382114D01*
X713724Y381774D01*
X713518Y381440D01*
X713304Y381111D01*
X713081Y380787D01*
X712851Y380469D01*
X712614Y380156D01*
X712368Y379850D01*
X712115Y379549D01*
X711855Y379255D01*
X711588Y378967D01*
X711314Y378686D01*
X711033Y378412D01*
X710745Y378145D01*
X710451Y377885D01*
X710150Y377632D01*
X709844Y377386D01*
X709531Y377149D01*
X709213Y376919D01*
X708889Y376696D01*
X708560Y376482D01*
X708226Y376276D01*
X707886Y376079D01*
X707542Y375889D01*
X707194Y375708D01*
X706841Y375536D01*
X706484Y375373D01*
X706123Y375218D01*
X705758Y375072D01*
X705390Y374935D01*
X705019Y374808D01*
X704645Y374689D01*
X704267Y374580D01*
X703888Y374479D01*
X703506Y374389D01*
X703121Y374307D01*
X702735Y374236D01*
X702348Y374173D01*
X701959Y374120D01*
X701568Y374077D01*
X701177Y374043D01*
X700785Y374019D01*
X700393Y374005D01*
X700000Y374000D01*
X699607Y374005D01*
X699215Y374019D01*
X698823Y374043D01*
X698432Y374077D01*
X698041Y374120D01*
X697652Y374173D01*
X697265Y374236D01*
X696879Y374307D01*
X696494Y374389D01*
X696112Y374479D01*
X695733Y374580D01*
X695355Y374689D01*
X694981Y374808D01*
X694610Y374935D01*
X694242Y375072D01*
X693877Y375218D01*
X693516Y375373D01*
X693159Y375536D01*
X692806Y375708D01*
X692458Y375889D01*
X692114Y376079D01*
X691774Y376276D01*
X691440Y376482D01*
X691111Y376696D01*
X690787Y376919D01*
X690469Y377149D01*
X690156Y377386D01*
X689850Y377632D01*
X689549Y377885D01*
X689255Y378145D01*
X688967Y378412D01*
X688686Y378686D01*
X688412Y378967D01*
X688145Y379255D01*
X687885Y379549D01*
X687632Y379850D01*
X687386Y380156D01*
X687149Y380469D01*
X686919Y380787D01*
X686696Y381111D01*
X686482Y381440D01*
X686276Y381774D01*
X686079Y382114D01*
X685889Y382458D01*
X685708Y382806D01*
X685536Y383159D01*
X685373Y383516D01*
X685218Y383877D01*
X685072Y384242D01*
X684935Y384610D01*
X684808Y384981D01*
X684689Y385355D01*
X684580Y385733D01*
X684479Y386112D01*
X684389Y386494D01*
X684307Y386879D01*
X684236Y387265D01*
X684173Y387652D01*
X684120Y388041D01*
X684077Y388432D01*
X684043Y388823D01*
X684019Y389215D01*
X684005Y389607D01*
X684000Y390000D01*
D13*
X365710Y390000D02*
X365720Y390842D01*
X365751Y391683D01*
X365803Y392523D01*
X365875Y393361D01*
X365968Y394197D01*
X366081Y395031D01*
X366215Y395862D01*
X366369Y396690D01*
X366543Y397513D01*
X366738Y398332D01*
X366952Y399146D01*
X367187Y399954D01*
X367441Y400756D01*
X367714Y401552D01*
X368008Y402341D01*
X368320Y403122D01*
X368652Y403896D01*
X369002Y404661D01*
X369371Y405417D01*
X369759Y406164D01*
X370165Y406901D01*
X370588Y407629D01*
X371030Y408345D01*
X371489Y409051D01*
X371965Y409744D01*
X372458Y410427D01*
X372968Y411096D01*
X373493Y411753D01*
X374035Y412397D01*
X374593Y413028D01*
X375166Y413644D01*
X375753Y414247D01*
X376356Y414834D01*
X376972Y415407D01*
X377603Y415965D01*
X378247Y416507D01*
X378904Y417032D01*
X379573Y417542D01*
X380256Y418035D01*
X380949Y418511D01*
X381655Y418970D01*
X382371Y419412D01*
X383099Y419835D01*
X383836Y420241D01*
X384583Y420629D01*
X385339Y420998D01*
X386104Y421348D01*
X386878Y421680D01*
X387659Y421992D01*
X388448Y422286D01*
X389244Y422559D01*
X390046Y422813D01*
X390854Y423048D01*
X391668Y423262D01*
X392487Y423457D01*
X393310Y423631D01*
X394138Y423785D01*
X394969Y423919D01*
X395803Y424032D01*
X396639Y424125D01*
X397477Y424197D01*
X398317Y424249D01*
X399158Y424280D01*
X400000Y424290D01*
X400842Y424280D01*
X401683Y424249D01*
X402523Y424197D01*
X403361Y424125D01*
X404197Y424032D01*
X405031Y423919D01*
X405862Y423785D01*
X406690Y423631D01*
X407513Y423457D01*
X408332Y423262D01*
X409146Y423048D01*
X409954Y422813D01*
X410756Y422559D01*
X411552Y422286D01*
X412341Y421992D01*
X413122Y421680D01*
X413896Y421348D01*
X414661Y420998D01*
X415417Y420629D01*
X416164Y420241D01*
X416901Y419835D01*
X417629Y419412D01*
X418345Y418970D01*
X419051Y418511D01*
X419744Y418035D01*
X420427Y417542D01*
X421096Y417032D01*
X421753Y416507D01*
X422397Y415965D01*
X423028Y415407D01*
X423644Y414834D01*
X424247Y414247D01*
X424834Y413644D01*
X425407Y413028D01*
X425965Y412397D01*
X426507Y411753D01*
X427032Y411096D01*
X427542Y410427D01*
X428035Y409744D01*
X428511Y409051D01*
X428970Y408345D01*
X429412Y407629D01*
X429835Y406901D01*
X430241Y406164D01*
X430629Y405417D01*
X430998Y404661D01*
X431348Y403896D01*
X431680Y403122D01*
X431992Y402341D01*
X432286Y401552D01*
X432559Y400756D01*
X432813Y399954D01*
X433048Y399146D01*
X433262Y398332D01*
X433457Y397513D01*
X433631Y396690D01*
X433785Y395862D01*
X433919Y395031D01*
X434032Y394197D01*
X434125Y393361D01*
X434197Y392523D01*
X434249Y391683D01*
X434280Y390842D01*
X434290Y390000D01*
X434280Y389158D01*
X434249Y388317D01*
X434197Y387477D01*
X434125Y386639D01*
X434032Y385803D01*
X433919Y384969D01*
X433785Y384138D01*
X433631Y383310D01*
X433457Y382487D01*
X433262Y381668D01*
X433048Y380854D01*
X432813Y380046D01*
X432559Y379244D01*
X432286Y378448D01*
X431992Y377659D01*
X431680Y376878D01*
X431348Y376104D01*
X430998Y375339D01*
X430629Y374583D01*
X430241Y373836D01*
X429835Y373099D01*
X429412Y372371D01*
X428970Y371655D01*
X428511Y370949D01*
X428035Y370256D01*
X427542Y369573D01*
X427032Y368904D01*
X426507Y368247D01*
X425965Y367603D01*
X425407Y366972D01*
X424834Y366356D01*
X424247Y365753D01*
X423644Y365166D01*
X423028Y364593D01*
X422397Y364035D01*
X421753Y363493D01*
X421096Y362968D01*
X420427Y362458D01*
X419744Y361965D01*
X419051Y361489D01*
X418345Y361030D01*
X417629Y360588D01*
X416901Y360165D01*
X416164Y359759D01*
X415417Y359371D01*
X414661Y359002D01*
X413896Y358652D01*
X413122Y358320D01*
X412341Y358008D01*
X411552Y357714D01*
X410756Y357441D01*
X409954Y357187D01*
X409146Y356952D01*
X408332Y356738D01*
X407513Y356543D01*
X406690Y356369D01*
X405862Y356215D01*
X405031Y356081D01*
X404197Y355968D01*
X403361Y355875D01*
X402523Y355803D01*
X401683Y355751D01*
X400842Y355720D01*
X400000Y355710D01*
X399158Y355720D01*
X398317Y355751D01*
X397477Y355803D01*
X396639Y355875D01*
X395803Y355968D01*
X394969Y356081D01*
X394138Y356215D01*
X393310Y356369D01*
X392487Y356543D01*
X391668Y356738D01*
X390854Y356952D01*
X390046Y357187D01*
X389244Y357441D01*
X388448Y357714D01*
X387659Y358008D01*
X386878Y358320D01*
X386104Y358652D01*
X385339Y359002D01*
X384583Y359371D01*
X383836Y359759D01*
X383099Y360165D01*
X382371Y360588D01*
X381655Y361030D01*
X380949Y361489D01*
X380256Y361965D01*
X379573Y362458D01*
X378904Y362968D01*
X378247Y363493D01*
X377603Y364035D01*
X376972Y364593D01*
X376356Y365166D01*
X375753Y365753D01*
X375166Y366356D01*
X374593Y366972D01*
X374035Y367603D01*
X373493Y368247D01*
X372968Y368904D01*
X372458Y369573D01*
X371965Y370256D01*
X371489Y370949D01*
X371030Y371655D01*
X370588Y372371D01*
X370165Y373099D01*
X369759Y373836D01*
X369371Y374583D01*
X369002Y375339D01*
X368652Y376104D01*
X368320Y376878D01*
X368008Y377659D01*
X367714Y378448D01*
X367441Y379244D01*
X367187Y380046D01*
X366952Y380854D01*
X366738Y381668D01*
X366543Y382487D01*
X366369Y383310D01*
X366215Y384138D01*
X366081Y384969D01*
X365968Y385803D01*
X365875Y386639D01*
X365803Y387477D01*
X365751Y388317D01*
X365720Y389158D01*
X365710Y390000D01*
D10*
X384000Y390000D02*
X384005Y390393D01*
X384019Y390785D01*
X384043Y391177D01*
X384077Y391568D01*
X384120Y391959D01*
X384173Y392348D01*
X384236Y392735D01*
X384307Y393121D01*
X384389Y393506D01*
X384479Y393888D01*
X384580Y394267D01*
X384689Y394645D01*
X384808Y395019D01*
X384935Y395390D01*
X385072Y395758D01*
X385218Y396123D01*
X385373Y396484D01*
X385536Y396841D01*
X385708Y397194D01*
X385889Y397542D01*
X386079Y397886D01*
X386276Y398226D01*
X386482Y398560D01*
X386696Y398889D01*
X386919Y399213D01*
X387149Y399531D01*
X387386Y399844D01*
X387632Y400150D01*
X387885Y400451D01*
X388145Y400745D01*
X388412Y401033D01*
X388686Y401314D01*
X388967Y401588D01*
X389255Y401855D01*
X389549Y402115D01*
X389850Y402368D01*
X390156Y402614D01*
X390469Y402851D01*
X390787Y403081D01*
X391111Y403304D01*
X391440Y403518D01*
X391774Y403724D01*
X392114Y403921D01*
X392458Y404111D01*
X392806Y404292D01*
X393159Y404464D01*
X393516Y404627D01*
X393877Y404782D01*
X394242Y404928D01*
X394610Y405065D01*
X394981Y405192D01*
X395355Y405311D01*
X395733Y405420D01*
X396112Y405521D01*
X396494Y405611D01*
X396879Y405693D01*
X397265Y405764D01*
X397652Y405827D01*
X398041Y405880D01*
X398432Y405923D01*
X398823Y405957D01*
X399215Y405981D01*
X399607Y405995D01*
X400000Y406000D01*
X400393Y405995D01*
X400785Y405981D01*
X401177Y405957D01*
X401568Y405923D01*
X401959Y405880D01*
X402348Y405827D01*
X402735Y405764D01*
X403121Y405693D01*
X403506Y405611D01*
X403888Y405521D01*
X404267Y405420D01*
X404645Y405311D01*
X405019Y405192D01*
X405390Y405065D01*
X405758Y404928D01*
X406123Y404782D01*
X406484Y404627D01*
X406841Y404464D01*
X407194Y404292D01*
X407542Y404111D01*
X407886Y403921D01*
X408226Y403724D01*
X408560Y403518D01*
X408889Y403304D01*
X409213Y403081D01*
X409531Y402851D01*
X409844Y402614D01*
X410150Y402368D01*
X410451Y402115D01*
X410745Y401855D01*
X411033Y401588D01*
X411314Y401314D01*
X411588Y401033D01*
X411855Y400745D01*
X412115Y400451D01*
X412368Y400150D01*
X412614Y399844D01*
X412851Y399531D01*
X413081Y399213D01*
X413304Y398889D01*
X413518Y398560D01*
X413724Y398226D01*
X413921Y397886D01*
X414111Y397542D01*
X414292Y397194D01*
X414464Y396841D01*
X414627Y396484D01*
X414782Y396123D01*
X414928Y395758D01*
X415065Y395390D01*
X415192Y395019D01*
X415311Y394645D01*
X415420Y394267D01*
X415521Y393888D01*
X415611Y393506D01*
X415693Y393121D01*
X415764Y392735D01*
X415827Y392348D01*
X415880Y391959D01*
X415923Y391568D01*
X415957Y391177D01*
X415981Y390785D01*
X415995Y390393D01*
X416000Y390000D01*
X415995Y389607D01*
X415981Y389215D01*
X415957Y388823D01*
X415923Y388432D01*
X415880Y388041D01*
X415827Y387652D01*
X415764Y387265D01*
X415693Y386879D01*
X415611Y386494D01*
X415521Y386112D01*
X415420Y385733D01*
X415311Y385355D01*
X415192Y384981D01*
X415065Y384610D01*
X414928Y384242D01*
X414782Y383877D01*
X414627Y383516D01*
X414464Y383159D01*
X414292Y382806D01*
X414111Y382458D01*
X413921Y382114D01*
X413724Y381774D01*
X413518Y381440D01*
X413304Y381111D01*
X413081Y380787D01*
X412851Y380469D01*
X412614Y380156D01*
X412368Y379850D01*
X412115Y379549D01*
X411855Y379255D01*
X411588Y378967D01*
X411314Y378686D01*
X411033Y378412D01*
X410745Y378145D01*
X410451Y377885D01*
X410150Y377632D01*
X409844Y377386D01*
X409531Y377149D01*
X409213Y376919D01*
X408889Y376696D01*
X408560Y376482D01*
X408226Y376276D01*
X407886Y376079D01*
X407542Y375889D01*
X407194Y375708D01*
X406841Y375536D01*
X406484Y375373D01*
X406123Y375218D01*
X405758Y375072D01*
X405390Y374935D01*
X405019Y374808D01*
X404645Y374689D01*
X404267Y374580D01*
X403888Y374479D01*
X403506Y374389D01*
X403121Y374307D01*
X402735Y374236D01*
X402348Y374173D01*
X401959Y374120D01*
X401568Y374077D01*
X401177Y374043D01*
X400785Y374019D01*
X400393Y374005D01*
X400000Y374000D01*
X399607Y374005D01*
X399215Y374019D01*
X398823Y374043D01*
X398432Y374077D01*
X398041Y374120D01*
X397652Y374173D01*
X397265Y374236D01*
X396879Y374307D01*
X396494Y374389D01*
X396112Y374479D01*
X395733Y374580D01*
X395355Y374689D01*
X394981Y374808D01*
X394610Y374935D01*
X394242Y375072D01*
X393877Y375218D01*
X393516Y375373D01*
X393159Y375536D01*
X392806Y375708D01*
X392458Y375889D01*
X392114Y376079D01*
X391774Y376276D01*
X391440Y376482D01*
X391111Y376696D01*
X390787Y376919D01*
X390469Y377149D01*
X390156Y377386D01*
X389850Y377632D01*
X389549Y377885D01*
X389255Y378145D01*
X388967Y378412D01*
X388686Y378686D01*
X388412Y378967D01*
X388145Y379255D01*
X387885Y379549D01*
X387632Y379850D01*
X387386Y380156D01*
X387149Y380469D01*
X386919Y380787D01*
X386696Y381111D01*
X386482Y381440D01*
X386276Y381774D01*
X386079Y382114D01*
X385889Y382458D01*
X385708Y382806D01*
X385536Y383159D01*
X385373Y383516D01*
X385218Y383877D01*
X385072Y384242D01*
X384935Y384610D01*
X384808Y384981D01*
X384689Y385355D01*
X384580Y385733D01*
X384479Y386112D01*
X384389Y386494D01*
X384307Y386879D01*
X384236Y387265D01*
X384173Y387652D01*
X384120Y388041D01*
X384077Y388432D01*
X384043Y388823D01*
X384019Y389215D01*
X384005Y389607D01*
X384000Y390000D01*
M02*
