G04 EAGLE Gerber RS-274X export*
G75*
%MOMM*%
%FSLAX34Y34*%
%LPD*%
%INSilkscreen Bottom*%
%IPPOS*%
%AMOC8*
5,1,8,0,0,1.08239X$1,22.5*%
G01*
%ADD10R,0.300000X0.200000*%
%ADD11C,0.250000*%
%ADD12R,0.200000X0.200000*%


D10*
X45500Y542000D03*
X54500Y542000D03*
X105500Y542000D03*
X114500Y542000D03*
X165500Y542000D03*
X174500Y542000D03*
X225500Y542000D03*
X234500Y542000D03*
X285500Y542000D03*
X294500Y542000D03*
X345500Y542000D03*
X354500Y542000D03*
X405500Y542000D03*
X414500Y542000D03*
X465500Y542000D03*
X474500Y542000D03*
X525500Y542000D03*
X534500Y542000D03*
X585500Y542000D03*
X594500Y542000D03*
X645500Y542000D03*
X654500Y542000D03*
X705500Y542000D03*
X714500Y542000D03*
X765500Y542000D03*
X774500Y542000D03*
X825500Y542000D03*
X834500Y542000D03*
X885500Y542000D03*
X894500Y542000D03*
X945500Y542000D03*
X954500Y542000D03*
D11*
X25250Y532750D03*
D12*
X20000Y540000D03*
D11*
X85250Y532750D03*
D12*
X80000Y540000D03*
D11*
X145250Y532750D03*
D12*
X140000Y540000D03*
D11*
X205250Y532750D03*
D12*
X200000Y540000D03*
D11*
X265250Y532750D03*
D12*
X260000Y540000D03*
D11*
X325250Y532750D03*
D12*
X320000Y540000D03*
D11*
X385250Y532750D03*
D12*
X380000Y540000D03*
D11*
X445250Y532750D03*
D12*
X440000Y540000D03*
D11*
X505250Y532750D03*
D12*
X500000Y540000D03*
D11*
X565250Y532750D03*
D12*
X560000Y540000D03*
D11*
X625250Y532750D03*
D12*
X620000Y540000D03*
D11*
X685250Y532750D03*
D12*
X680000Y540000D03*
D11*
X745250Y532750D03*
D12*
X740000Y540000D03*
D11*
X805250Y532750D03*
D12*
X800000Y540000D03*
D11*
X865250Y532750D03*
D12*
X860000Y540000D03*
D11*
X925250Y532750D03*
D12*
X920000Y540000D03*
D11*
X985250Y532750D03*
D12*
X980000Y540000D03*
M02*
