G04 EAGLE Gerber RS-274X export*
G75*
%MOMM*%
%FSLAX34Y34*%
%LPD*%
%INSolderpaste Top*%
%IPPOS*%
%AMOC8*
5,1,8,0,0,1.08239X$1,22.5*%
G01*
%ADD10R,1.300000X1.500000*%
%ADD11R,1.600000X1.300000*%
%ADD12R,1.397000X0.348000*%
%ADD13R,0.470000X0.600000*%
%ADD14R,1.300000X1.600000*%
%ADD15R,0.300000X0.800000*%
%ADD16R,2.000000X1.900000*%


D10*
X509244Y538992D03*
X490244Y538992D03*
X509244Y516320D03*
X490244Y516320D03*
D11*
X50000Y570500D03*
X50000Y589500D03*
D12*
X536560Y495750D03*
X536560Y489250D03*
X536560Y482750D03*
X536560Y469750D03*
X536560Y476250D03*
X536560Y463250D03*
X536560Y456750D03*
X536560Y450250D03*
X536560Y443750D03*
X536560Y437250D03*
X463440Y495750D03*
X463440Y489250D03*
X463440Y482750D03*
X463440Y476250D03*
X463440Y469750D03*
X463440Y463250D03*
X463440Y456750D03*
X463440Y450250D03*
X463440Y443750D03*
X463440Y437250D03*
X463440Y430750D03*
X463440Y424250D03*
X536560Y424250D03*
X536560Y430750D03*
D11*
X110000Y570500D03*
X110000Y589500D03*
X170000Y570500D03*
X170000Y589500D03*
X230000Y570500D03*
X230000Y589500D03*
X290000Y570500D03*
X290000Y589500D03*
X350000Y570500D03*
X350000Y589500D03*
X410000Y570500D03*
X410000Y589500D03*
X470000Y570500D03*
X470000Y589500D03*
X530000Y570500D03*
X530000Y589500D03*
X590000Y570500D03*
X590000Y589500D03*
X650000Y570500D03*
X650000Y589500D03*
X710000Y570500D03*
X710000Y589500D03*
X770000Y570500D03*
X770000Y589500D03*
X830000Y570500D03*
X830000Y589500D03*
X890000Y570500D03*
X890000Y589500D03*
X950000Y570500D03*
X950000Y589500D03*
D13*
X572716Y530956D03*
X559716Y530956D03*
X566216Y511956D03*
D14*
X553668Y548408D03*
X572668Y548408D03*
D11*
X20000Y570500D03*
X20000Y589500D03*
X80000Y570500D03*
X80000Y589500D03*
X140000Y570500D03*
X140000Y589500D03*
X200000Y570500D03*
X200000Y589500D03*
X260000Y570500D03*
X260000Y589500D03*
X320000Y570500D03*
X320000Y589500D03*
X380000Y570500D03*
X380000Y589500D03*
X440000Y570500D03*
X440000Y589500D03*
X500000Y570500D03*
X500000Y589500D03*
X560000Y570500D03*
X560000Y589500D03*
X620000Y570500D03*
X620000Y589500D03*
X680000Y570500D03*
X680000Y589500D03*
X740000Y570500D03*
X740000Y589500D03*
X800000Y570500D03*
X800000Y589500D03*
X860000Y570500D03*
X860000Y589500D03*
X920000Y570500D03*
X920000Y589500D03*
X980000Y570500D03*
X980000Y589500D03*
D15*
X482500Y395000D03*
X487500Y395000D03*
X492500Y395000D03*
X497500Y395000D03*
X502500Y395000D03*
X507500Y395000D03*
X512500Y395000D03*
X517500Y395000D03*
D16*
X542000Y379000D03*
X458000Y379000D03*
M02*
