G04 EAGLE Gerber RS-274X export*
G75*
%MOMM*%
%FSLAX34Y34*%
%LPD*%
%INSolderpaste Bottom*%
%IPPOS*%
%AMOC8*
5,1,8,0,0,1.08239X$1,22.5*%
G01*
%ADD10R,1.500000X1.300000*%
%ADD11R,1.200000X1.200000*%
%ADD12R,1.500000X1.500000*%


D10*
X521728Y469996D03*
X521728Y450996D03*
D11*
X50000Y550500D03*
X50000Y529500D03*
X110000Y550500D03*
X110000Y529500D03*
X170000Y550500D03*
X170000Y529500D03*
X230000Y550500D03*
X230000Y529500D03*
X290000Y550500D03*
X290000Y529500D03*
X350000Y550500D03*
X350000Y529500D03*
X410000Y550500D03*
X410000Y529500D03*
X470000Y550500D03*
X470000Y529500D03*
X530000Y550500D03*
X530000Y529500D03*
X590000Y550500D03*
X590000Y529500D03*
X650000Y550500D03*
X650000Y529500D03*
X710000Y550500D03*
X710000Y529500D03*
X770000Y550500D03*
X770000Y529500D03*
X830000Y550500D03*
X830000Y529500D03*
X890000Y550500D03*
X890000Y529500D03*
X950000Y550500D03*
X950000Y529500D03*
D12*
X20000Y522500D03*
X20000Y557500D03*
X80000Y522500D03*
X80000Y557500D03*
X140000Y522500D03*
X140000Y557500D03*
X200000Y522500D03*
X200000Y557500D03*
X260000Y522500D03*
X260000Y557500D03*
X320000Y522500D03*
X320000Y557500D03*
X380000Y522500D03*
X380000Y557500D03*
X440000Y522500D03*
X440000Y557500D03*
X500000Y522500D03*
X500000Y557500D03*
X560000Y522500D03*
X560000Y557500D03*
X620000Y522500D03*
X620000Y557500D03*
X680000Y522500D03*
X680000Y557500D03*
X740000Y522500D03*
X740000Y557500D03*
X800000Y522500D03*
X800000Y557500D03*
X860000Y522500D03*
X860000Y557500D03*
X920000Y522500D03*
X920000Y557500D03*
X980000Y522500D03*
X980000Y557500D03*
M02*
