G04 EAGLE Gerber RS-274X export*
G75*
%MOMM*%
%FSLAX34Y34*%
%LPD*%
%INSoldermask Top*%
%IPPOS*%
%AMOC8*
5,1,8,0,0,1.08239X$1,22.5*%
G01*
%ADD10R,1.503200X1.703200*%
%ADD11R,1.803200X1.503200*%
%ADD12R,1.600200X0.551200*%
%ADD13R,0.673200X0.803200*%
%ADD14R,1.503200X1.803200*%
%ADD15R,0.503200X1.003200*%
%ADD16R,1.150000X2.200000*%
%ADD17R,1.300000X3.050000*%
%ADD18C,3.203200*%
%ADD19C,0.959600*%


D10*
X509244Y538992D03*
X490244Y538992D03*
X509244Y516320D03*
X490244Y516320D03*
D11*
X50000Y570500D03*
X50000Y589500D03*
D12*
X536560Y495750D03*
X536560Y489250D03*
X536560Y482750D03*
X536560Y469750D03*
X536560Y476250D03*
X536560Y463250D03*
X536560Y456750D03*
X536560Y450250D03*
X536560Y443750D03*
X536560Y437250D03*
X463440Y495750D03*
X463440Y489250D03*
X463440Y482750D03*
X463440Y476250D03*
X463440Y469750D03*
X463440Y463250D03*
X463440Y456750D03*
X463440Y450250D03*
X463440Y443750D03*
X463440Y437250D03*
X463440Y430750D03*
X463440Y424250D03*
X536560Y424250D03*
X536560Y430750D03*
D11*
X110000Y570500D03*
X110000Y589500D03*
X170000Y570500D03*
X170000Y589500D03*
X230000Y570500D03*
X230000Y589500D03*
X290000Y570500D03*
X290000Y589500D03*
X350000Y570500D03*
X350000Y589500D03*
X410000Y570500D03*
X410000Y589500D03*
X470000Y570500D03*
X470000Y589500D03*
X530000Y570500D03*
X530000Y589500D03*
X590000Y570500D03*
X590000Y589500D03*
X650000Y570500D03*
X650000Y589500D03*
X710000Y570500D03*
X710000Y589500D03*
X770000Y570500D03*
X770000Y589500D03*
X830000Y570500D03*
X830000Y589500D03*
X890000Y570500D03*
X890000Y589500D03*
X950000Y570500D03*
X950000Y589500D03*
D13*
X572716Y530956D03*
X559716Y530956D03*
X566216Y511956D03*
D14*
X553668Y548408D03*
X572668Y548408D03*
D11*
X20000Y570500D03*
X20000Y589500D03*
X80000Y570500D03*
X80000Y589500D03*
X140000Y570500D03*
X140000Y589500D03*
X200000Y570500D03*
X200000Y589500D03*
X260000Y570500D03*
X260000Y589500D03*
X320000Y570500D03*
X320000Y589500D03*
X380000Y570500D03*
X380000Y589500D03*
X440000Y570500D03*
X440000Y589500D03*
X500000Y570500D03*
X500000Y589500D03*
X560000Y570500D03*
X560000Y589500D03*
X620000Y570500D03*
X620000Y589500D03*
X680000Y570500D03*
X680000Y589500D03*
X740000Y570500D03*
X740000Y589500D03*
X800000Y570500D03*
X800000Y589500D03*
X860000Y570500D03*
X860000Y589500D03*
X920000Y570500D03*
X920000Y589500D03*
X980000Y570500D03*
X980000Y589500D03*
D15*
X482500Y395000D03*
X487500Y395000D03*
X492500Y395000D03*
X497500Y395000D03*
X502500Y395000D03*
X507500Y395000D03*
X512500Y395000D03*
X517500Y395000D03*
D16*
X548250Y379000D03*
D17*
X536500Y374750D03*
D16*
X451750Y379000D03*
D17*
X463500Y374750D03*
D18*
X600000Y390000D03*
X300000Y390000D03*
X700000Y390000D03*
X400000Y390000D03*
D19*
X478536Y518160D03*
X505968Y438912D03*
X460248Y518160D03*
X521208Y518160D03*
X542544Y527304D03*
X477012Y403860D03*
X440248Y428160D03*
X570248Y428160D03*
X610248Y488160D03*
X110248Y498160D03*
X890248Y498160D03*
X171208Y498160D03*
X232168Y498160D03*
X46240Y507304D03*
X290080Y498160D03*
X351040Y498160D03*
X412000Y498160D03*
X491248Y458536D03*
X661936Y498160D03*
X707656Y498160D03*
X768616Y498160D03*
X826528Y498160D03*
X945400Y498160D03*
X351040Y428056D03*
X549160Y400624D03*
X649744Y431104D03*
X439432Y501208D03*
X54864Y560832D03*
X518160Y487680D03*
X527304Y408432D03*
X481584Y417576D03*
X481584Y487680D03*
X115824Y560832D03*
X176784Y557784D03*
X234696Y560832D03*
X295656Y560832D03*
X356616Y560832D03*
X417576Y560832D03*
X475488Y560832D03*
X536448Y560832D03*
X597408Y557784D03*
X658368Y560832D03*
X719328Y557784D03*
X777240Y557784D03*
X838200Y557784D03*
X899160Y557784D03*
X963168Y557784D03*
X569976Y496824D03*
X554736Y423672D03*
X20000Y570500D03*
X79248Y563880D03*
X548640Y518160D03*
X141732Y565404D03*
X200000Y570500D03*
X260000Y570500D03*
X320000Y570500D03*
X380000Y570500D03*
X440000Y570500D03*
X500000Y570500D03*
X560000Y570500D03*
X620000Y570500D03*
X680000Y570500D03*
X740000Y570500D03*
X800000Y570500D03*
X860000Y570500D03*
X920000Y570500D03*
X980000Y570500D03*
M02*
