G04 EAGLE Gerber RS-274X export*
G75*
%MOMM*%
%FSLAX34Y34*%
%LPD*%
%INTop Copper*%
%IPPOS*%
%AMOC8*
5,1,8,0,0,1.08239X$1,22.5*%
G01*
%ADD10R,1.500000X0.650000*%
%ADD11C,1.879600*%
%ADD12C,0.406400*%
%ADD13C,0.756400*%
%ADD14C,0.304800*%

G36*
X222516Y165163D02*
X222516Y165163D01*
X222539Y165161D01*
X222716Y165183D01*
X222895Y165201D01*
X222916Y165207D01*
X222938Y165210D01*
X223108Y165266D01*
X223280Y165319D01*
X223299Y165329D01*
X223320Y165336D01*
X223476Y165425D01*
X223634Y165511D01*
X223651Y165525D01*
X223670Y165536D01*
X223806Y165654D01*
X223943Y165768D01*
X223957Y165786D01*
X223974Y165800D01*
X224083Y165942D01*
X224195Y166082D01*
X224206Y166102D01*
X224219Y166120D01*
X224371Y166415D01*
X225409Y168920D01*
X229196Y172708D01*
X229202Y172715D01*
X229209Y172720D01*
X229329Y172870D01*
X229451Y173019D01*
X229455Y173027D01*
X229461Y173034D01*
X229549Y173204D01*
X229640Y173375D01*
X229642Y173384D01*
X229646Y173391D01*
X229700Y173576D01*
X229755Y173761D01*
X229755Y173770D01*
X229758Y173778D01*
X229774Y173970D01*
X229791Y174162D01*
X229790Y174171D01*
X229791Y174180D01*
X229769Y174368D01*
X229748Y174562D01*
X229745Y174571D01*
X229744Y174579D01*
X229685Y174759D01*
X229626Y174946D01*
X229622Y174954D01*
X229619Y174962D01*
X229524Y175131D01*
X229431Y175298D01*
X229426Y175305D01*
X229421Y175313D01*
X229295Y175459D01*
X229171Y175605D01*
X229164Y175611D01*
X229158Y175618D01*
X229007Y175735D01*
X228855Y175855D01*
X228847Y175859D01*
X228840Y175864D01*
X228668Y175950D01*
X228496Y176037D01*
X228487Y176040D01*
X228479Y176044D01*
X228293Y176094D01*
X228108Y176145D01*
X228099Y176146D01*
X228091Y176148D01*
X227760Y176175D01*
X218868Y176175D01*
X217975Y177068D01*
X217975Y184832D01*
X219007Y185864D01*
X219019Y185877D01*
X219032Y185889D01*
X219147Y186034D01*
X219262Y186175D01*
X219271Y186191D01*
X219282Y186205D01*
X219365Y186369D01*
X219451Y186531D01*
X219456Y186548D01*
X219464Y186564D01*
X219514Y186741D01*
X219566Y186917D01*
X219567Y186935D01*
X219572Y186952D01*
X219586Y187135D01*
X219602Y187318D01*
X219600Y187336D01*
X219602Y187353D01*
X219579Y187535D01*
X219559Y187718D01*
X219553Y187735D01*
X219551Y187753D01*
X219493Y187926D01*
X219437Y188102D01*
X219429Y188118D01*
X219423Y188134D01*
X219332Y188293D01*
X219243Y188454D01*
X219231Y188468D01*
X219222Y188483D01*
X219007Y188736D01*
X217737Y190006D01*
X217717Y190023D01*
X217699Y190044D01*
X217561Y190151D01*
X217426Y190261D01*
X217402Y190274D01*
X217381Y190290D01*
X217224Y190368D01*
X217070Y190450D01*
X217045Y190458D01*
X217021Y190470D01*
X216851Y190515D01*
X216684Y190565D01*
X216658Y190567D01*
X216632Y190574D01*
X216301Y190601D01*
X207423Y190601D01*
X200500Y197524D01*
X198119Y199905D01*
X198119Y255869D01*
X198118Y255882D01*
X198119Y255895D01*
X198098Y256082D01*
X198079Y256269D01*
X198075Y256282D01*
X198074Y256296D01*
X198016Y256475D01*
X197961Y256654D01*
X197955Y256666D01*
X197951Y256679D01*
X197859Y256844D01*
X197769Y257008D01*
X197761Y257019D01*
X197754Y257030D01*
X197632Y257173D01*
X197512Y257318D01*
X197501Y257326D01*
X197493Y257336D01*
X197345Y257452D01*
X197198Y257570D01*
X197186Y257576D01*
X197176Y257584D01*
X197007Y257669D01*
X196841Y257755D01*
X196828Y257759D01*
X196816Y257765D01*
X196635Y257815D01*
X196454Y257867D01*
X196440Y257868D01*
X196427Y257871D01*
X196239Y257884D01*
X196052Y257900D01*
X196039Y257898D01*
X196026Y257899D01*
X195838Y257875D01*
X195653Y257853D01*
X195640Y257849D01*
X195627Y257847D01*
X195311Y257745D01*
X193787Y257114D01*
X193767Y257104D01*
X193746Y257097D01*
X193589Y257008D01*
X193432Y256924D01*
X193415Y256910D01*
X193395Y256899D01*
X193259Y256781D01*
X193121Y256668D01*
X193107Y256650D01*
X193090Y256636D01*
X192981Y256494D01*
X192868Y256355D01*
X192857Y256335D01*
X192844Y256318D01*
X192764Y256157D01*
X192681Y255998D01*
X192674Y255977D01*
X192664Y255957D01*
X192618Y255784D01*
X192568Y255612D01*
X192566Y255590D01*
X192560Y255568D01*
X192533Y255238D01*
X192533Y208839D01*
X186487Y202793D01*
X183191Y202793D01*
X183164Y202791D01*
X183138Y202793D01*
X182964Y202771D01*
X182790Y202753D01*
X182765Y202746D01*
X182738Y202742D01*
X182573Y202687D01*
X182405Y202635D01*
X182382Y202622D01*
X182356Y202614D01*
X182205Y202527D01*
X182051Y202443D01*
X182031Y202426D01*
X182008Y202413D01*
X181755Y202198D01*
X180993Y201436D01*
X180981Y201423D01*
X180968Y201411D01*
X180854Y201267D01*
X180738Y201125D01*
X180729Y201109D01*
X180718Y201095D01*
X180635Y200931D01*
X180549Y200769D01*
X180544Y200752D01*
X180536Y200736D01*
X180486Y200559D01*
X180434Y200383D01*
X180433Y200365D01*
X180428Y200348D01*
X180414Y200165D01*
X180398Y199982D01*
X180400Y199964D01*
X180398Y199947D01*
X180421Y199765D01*
X180441Y199582D01*
X180447Y199565D01*
X180449Y199547D01*
X180507Y199374D01*
X180563Y199198D01*
X180571Y199182D01*
X180577Y199166D01*
X180669Y199006D01*
X180757Y198846D01*
X180769Y198832D01*
X180778Y198817D01*
X180993Y198564D01*
X182025Y197532D01*
X182025Y189768D01*
X181668Y189412D01*
X181616Y189348D01*
X181557Y189291D01*
X181489Y189193D01*
X181413Y189100D01*
X181375Y189028D01*
X181328Y188960D01*
X181281Y188850D01*
X181224Y188745D01*
X181201Y188666D01*
X181169Y188590D01*
X181144Y188473D01*
X181110Y188359D01*
X181102Y188277D01*
X181085Y188196D01*
X181084Y188077D01*
X181073Y187958D01*
X181082Y187876D01*
X181081Y187794D01*
X181104Y187677D01*
X181117Y187558D01*
X181142Y187479D01*
X181157Y187398D01*
X181202Y187288D01*
X181238Y187174D01*
X181278Y187102D01*
X181309Y187026D01*
X181375Y186926D01*
X181433Y186821D01*
X181486Y186759D01*
X181532Y186690D01*
X181616Y186606D01*
X181694Y186514D01*
X181758Y186463D01*
X181816Y186405D01*
X181942Y186318D01*
X182009Y186265D01*
X182046Y186246D01*
X182049Y186244D01*
X182533Y185760D01*
X182868Y185181D01*
X183041Y184535D01*
X183041Y182981D01*
X173000Y182981D01*
X172983Y182980D01*
X172965Y182981D01*
X172782Y182960D01*
X172600Y182941D01*
X172583Y182936D01*
X172565Y182934D01*
X172390Y182877D01*
X172215Y182823D01*
X172199Y182815D01*
X172182Y182809D01*
X172022Y182719D01*
X171861Y182632D01*
X171847Y182620D01*
X171832Y182611D01*
X171692Y182491D01*
X171552Y182374D01*
X171540Y182360D01*
X171527Y182348D01*
X171414Y182203D01*
X171299Y182060D01*
X171291Y182044D01*
X171280Y182030D01*
X171198Y181865D01*
X171114Y181703D01*
X171109Y181686D01*
X171101Y181670D01*
X171053Y181492D01*
X171002Y181316D01*
X171001Y181298D01*
X170996Y181281D01*
X170969Y180950D01*
X170971Y180932D01*
X170969Y180915D01*
X170969Y180914D01*
X170991Y180732D01*
X171009Y180549D01*
X171014Y180532D01*
X171016Y180514D01*
X171073Y180340D01*
X171127Y180164D01*
X171136Y180149D01*
X171141Y180132D01*
X171232Y179971D01*
X171319Y179810D01*
X171330Y179797D01*
X171339Y179781D01*
X171459Y179642D01*
X171577Y179501D01*
X171591Y179490D01*
X171602Y179476D01*
X171747Y179364D01*
X171890Y179249D01*
X171906Y179240D01*
X171920Y179230D01*
X172085Y179148D01*
X172248Y179063D01*
X172265Y179058D01*
X172281Y179050D01*
X172459Y179002D01*
X172635Y178952D01*
X172652Y178950D01*
X172670Y178946D01*
X173000Y178919D01*
X183041Y178919D01*
X183041Y177365D01*
X182868Y176719D01*
X182533Y176140D01*
X182060Y175667D01*
X181481Y175332D01*
X180835Y175159D01*
X173256Y175159D01*
X173247Y175158D01*
X173238Y175159D01*
X173047Y175138D01*
X172856Y175119D01*
X172847Y175117D01*
X172838Y175116D01*
X172656Y175058D01*
X172471Y175001D01*
X172463Y174997D01*
X172454Y174994D01*
X172286Y174901D01*
X172117Y174809D01*
X172110Y174804D01*
X172102Y174799D01*
X171955Y174675D01*
X171807Y174552D01*
X171802Y174545D01*
X171795Y174539D01*
X171676Y174388D01*
X171555Y174238D01*
X171551Y174230D01*
X171545Y174223D01*
X171458Y174050D01*
X171370Y173881D01*
X171367Y173872D01*
X171363Y173864D01*
X171311Y173678D01*
X171258Y173494D01*
X171257Y173485D01*
X171255Y173476D01*
X171241Y173283D01*
X171225Y173092D01*
X171226Y173084D01*
X171226Y173075D01*
X171250Y172882D01*
X171272Y172693D01*
X171275Y172684D01*
X171276Y172675D01*
X171337Y172492D01*
X171397Y172310D01*
X171401Y172302D01*
X171404Y172294D01*
X171500Y172127D01*
X171595Y171959D01*
X171601Y171952D01*
X171605Y171945D01*
X171820Y171692D01*
X174591Y168920D01*
X175629Y166415D01*
X175640Y166395D01*
X175647Y166374D01*
X175735Y166218D01*
X175819Y166060D01*
X175834Y166043D01*
X175845Y166023D01*
X175961Y165888D01*
X176076Y165749D01*
X176093Y165735D01*
X176108Y165718D01*
X176249Y165609D01*
X176388Y165496D01*
X176408Y165485D01*
X176426Y165472D01*
X176587Y165392D01*
X176745Y165309D01*
X176766Y165302D01*
X176786Y165292D01*
X176960Y165246D01*
X177131Y165196D01*
X177154Y165194D01*
X177175Y165188D01*
X177506Y165161D01*
X222494Y165161D01*
X222516Y165163D01*
G37*
G36*
X216375Y209439D02*
X216375Y209439D01*
X216393Y209438D01*
X216575Y209461D01*
X216758Y209481D01*
X216775Y209486D01*
X216792Y209488D01*
X216966Y209547D01*
X217141Y209602D01*
X217157Y209611D01*
X217174Y209617D01*
X217333Y209708D01*
X217494Y209797D01*
X217507Y209809D01*
X217523Y209818D01*
X217776Y210032D01*
X218332Y210588D01*
X218384Y210652D01*
X218443Y210709D01*
X218511Y210807D01*
X218587Y210900D01*
X218625Y210972D01*
X218672Y211040D01*
X218719Y211150D01*
X218776Y211255D01*
X218799Y211334D01*
X218831Y211410D01*
X218856Y211526D01*
X218890Y211641D01*
X218898Y211723D01*
X218915Y211804D01*
X218916Y211923D01*
X218927Y212042D01*
X218918Y212124D01*
X218919Y212206D01*
X218896Y212323D01*
X218883Y212442D01*
X218858Y212521D01*
X218843Y212602D01*
X218798Y212712D01*
X218762Y212826D01*
X218722Y212898D01*
X218691Y212974D01*
X218625Y213074D01*
X218567Y213179D01*
X218514Y213241D01*
X218468Y213310D01*
X218384Y213394D01*
X218307Y213486D01*
X218242Y213537D01*
X218184Y213595D01*
X218059Y213681D01*
X217991Y213735D01*
X217954Y213754D01*
X217951Y213756D01*
X217467Y214240D01*
X217132Y214819D01*
X216959Y215465D01*
X216959Y217019D01*
X227000Y217019D01*
X227017Y217020D01*
X227035Y217019D01*
X227218Y217040D01*
X227400Y217058D01*
X227417Y217064D01*
X227435Y217066D01*
X227610Y217123D01*
X227785Y217177D01*
X227801Y217185D01*
X227818Y217191D01*
X227978Y217281D01*
X228139Y217368D01*
X228153Y217380D01*
X228168Y217389D01*
X228308Y217509D01*
X228448Y217626D01*
X228460Y217640D01*
X228473Y217652D01*
X228586Y217797D01*
X228701Y217940D01*
X228709Y217956D01*
X228720Y217970D01*
X228802Y218135D01*
X228886Y218297D01*
X228891Y218314D01*
X228899Y218330D01*
X228947Y218508D01*
X228998Y218684D01*
X228999Y218702D01*
X229004Y218719D01*
X229031Y219050D01*
X229029Y219068D01*
X229031Y219085D01*
X229031Y219086D01*
X229009Y219268D01*
X228991Y219451D01*
X228986Y219468D01*
X228984Y219486D01*
X228927Y219660D01*
X228873Y219836D01*
X228864Y219851D01*
X228859Y219868D01*
X228768Y220029D01*
X228681Y220190D01*
X228670Y220203D01*
X228661Y220219D01*
X228541Y220358D01*
X228423Y220499D01*
X228409Y220510D01*
X228398Y220524D01*
X228253Y220636D01*
X228110Y220751D01*
X228094Y220760D01*
X228080Y220770D01*
X227915Y220852D01*
X227752Y220937D01*
X227735Y220942D01*
X227719Y220950D01*
X227541Y220998D01*
X227365Y221048D01*
X227348Y221050D01*
X227330Y221054D01*
X227000Y221081D01*
X216959Y221081D01*
X216959Y222635D01*
X217132Y223281D01*
X217467Y223860D01*
X217940Y224333D01*
X218519Y224668D01*
X219165Y224841D01*
X226744Y224841D01*
X226753Y224842D01*
X226762Y224841D01*
X226953Y224862D01*
X227144Y224881D01*
X227153Y224883D01*
X227162Y224884D01*
X227344Y224942D01*
X227529Y224999D01*
X227537Y225003D01*
X227546Y225006D01*
X227714Y225099D01*
X227883Y225191D01*
X227890Y225196D01*
X227898Y225201D01*
X228045Y225325D01*
X228193Y225448D01*
X228198Y225455D01*
X228205Y225461D01*
X228324Y225612D01*
X228445Y225762D01*
X228449Y225770D01*
X228455Y225777D01*
X228542Y225950D01*
X228630Y226119D01*
X228633Y226128D01*
X228637Y226136D01*
X228689Y226322D01*
X228742Y226506D01*
X228743Y226515D01*
X228745Y226524D01*
X228759Y226717D01*
X228775Y226908D01*
X228774Y226916D01*
X228774Y226925D01*
X228750Y227118D01*
X228728Y227307D01*
X228725Y227316D01*
X228724Y227325D01*
X228663Y227508D01*
X228603Y227690D01*
X228599Y227698D01*
X228596Y227706D01*
X228500Y227873D01*
X228405Y228041D01*
X228399Y228048D01*
X228395Y228055D01*
X228180Y228308D01*
X225409Y231080D01*
X222339Y238490D01*
X222339Y246510D01*
X225409Y253920D01*
X231080Y259591D01*
X233585Y260629D01*
X233605Y260640D01*
X233626Y260647D01*
X233782Y260735D01*
X233940Y260819D01*
X233957Y260834D01*
X233977Y260845D01*
X234112Y260961D01*
X234251Y261076D01*
X234265Y261093D01*
X234282Y261108D01*
X234391Y261249D01*
X234504Y261388D01*
X234515Y261408D01*
X234528Y261426D01*
X234608Y261587D01*
X234691Y261745D01*
X234698Y261766D01*
X234708Y261786D01*
X234754Y261960D01*
X234804Y262131D01*
X234806Y262154D01*
X234812Y262175D01*
X234839Y262506D01*
X234839Y289483D01*
X234837Y289505D01*
X234839Y289527D01*
X234817Y289705D01*
X234799Y289883D01*
X234793Y289905D01*
X234790Y289927D01*
X234734Y290097D01*
X234681Y290268D01*
X234671Y290288D01*
X234664Y290309D01*
X234575Y290465D01*
X234489Y290622D01*
X234475Y290639D01*
X234464Y290659D01*
X234346Y290794D01*
X234232Y290932D01*
X234214Y290946D01*
X234200Y290962D01*
X234058Y291072D01*
X233918Y291184D01*
X233898Y291194D01*
X233880Y291208D01*
X233585Y291359D01*
X229301Y293134D01*
X226228Y296207D01*
X224665Y299981D01*
X224660Y299989D01*
X224658Y299998D01*
X224565Y300167D01*
X224474Y300336D01*
X224469Y300343D01*
X224464Y300351D01*
X224340Y300499D01*
X224218Y300647D01*
X224211Y300652D01*
X224205Y300659D01*
X224054Y300779D01*
X223905Y300900D01*
X223898Y300905D01*
X223890Y300910D01*
X223720Y300997D01*
X223549Y301087D01*
X223540Y301090D01*
X223532Y301094D01*
X223350Y301146D01*
X223162Y301201D01*
X223153Y301201D01*
X223145Y301204D01*
X222954Y301219D01*
X222761Y301235D01*
X222752Y301234D01*
X222744Y301235D01*
X222553Y301212D01*
X222361Y301190D01*
X222353Y301187D01*
X222344Y301186D01*
X222163Y301126D01*
X221978Y301067D01*
X221970Y301062D01*
X221962Y301060D01*
X221796Y300965D01*
X221626Y300870D01*
X221620Y300865D01*
X221612Y300860D01*
X221466Y300733D01*
X221321Y300609D01*
X221315Y300602D01*
X221308Y300596D01*
X221191Y300443D01*
X221072Y300292D01*
X221068Y300284D01*
X221063Y300277D01*
X220911Y299981D01*
X219348Y296207D01*
X216275Y293134D01*
X212241Y291463D01*
X212126Y291450D01*
X211943Y291431D01*
X211926Y291426D01*
X211909Y291424D01*
X211734Y291367D01*
X211558Y291313D01*
X211543Y291305D01*
X211526Y291299D01*
X211366Y291209D01*
X211204Y291121D01*
X211191Y291110D01*
X211175Y291101D01*
X211036Y290981D01*
X210895Y290864D01*
X210884Y290850D01*
X210870Y290838D01*
X210758Y290693D01*
X210643Y290550D01*
X210635Y290534D01*
X210624Y290520D01*
X210542Y290355D01*
X210457Y290193D01*
X210452Y290176D01*
X210444Y290160D01*
X210397Y289981D01*
X210346Y289806D01*
X210344Y289788D01*
X210340Y289771D01*
X210313Y289440D01*
X210313Y215464D01*
X210315Y215438D01*
X210313Y215411D01*
X210335Y215236D01*
X210353Y215064D01*
X210360Y215038D01*
X210364Y215011D01*
X210419Y214846D01*
X210471Y214679D01*
X210484Y214655D01*
X210492Y214630D01*
X210579Y214478D01*
X210663Y214325D01*
X210680Y214304D01*
X210693Y214281D01*
X210908Y214028D01*
X214903Y210032D01*
X214917Y210021D01*
X214929Y210007D01*
X215073Y209893D01*
X215215Y209777D01*
X215230Y209769D01*
X215245Y209758D01*
X215409Y209674D01*
X215570Y209589D01*
X215588Y209583D01*
X215603Y209575D01*
X215780Y209526D01*
X215956Y209474D01*
X215974Y209472D01*
X215991Y209467D01*
X216174Y209454D01*
X216357Y209437D01*
X216375Y209439D01*
G37*
G36*
X183415Y222411D02*
X183415Y222411D01*
X183424Y222410D01*
X183613Y222432D01*
X183806Y222453D01*
X183815Y222456D01*
X183823Y222457D01*
X184005Y222516D01*
X184190Y222575D01*
X184198Y222579D01*
X184206Y222582D01*
X184373Y222676D01*
X184542Y222769D01*
X184549Y222775D01*
X184557Y222780D01*
X184702Y222905D01*
X184849Y223030D01*
X184855Y223037D01*
X184862Y223043D01*
X184978Y223193D01*
X185099Y223346D01*
X185103Y223354D01*
X185108Y223361D01*
X185193Y223532D01*
X185281Y223705D01*
X185284Y223713D01*
X185288Y223721D01*
X185337Y223907D01*
X185389Y224093D01*
X185390Y224102D01*
X185392Y224110D01*
X185419Y224441D01*
X185419Y260553D01*
X186122Y261256D01*
X186139Y261277D01*
X186160Y261295D01*
X186267Y261432D01*
X186377Y261568D01*
X186390Y261591D01*
X186406Y261613D01*
X186484Y261770D01*
X186566Y261924D01*
X186574Y261949D01*
X186586Y261973D01*
X186631Y262143D01*
X186681Y262309D01*
X186683Y262336D01*
X186690Y262362D01*
X186717Y262693D01*
X186717Y263184D01*
X187525Y265134D01*
X189018Y266627D01*
X190968Y267435D01*
X193080Y267435D01*
X195311Y266511D01*
X195324Y266507D01*
X195335Y266501D01*
X195515Y266449D01*
X195696Y266394D01*
X195709Y266393D01*
X195722Y266389D01*
X195910Y266374D01*
X196097Y266356D01*
X196110Y266357D01*
X196124Y266356D01*
X196310Y266378D01*
X196497Y266398D01*
X196510Y266402D01*
X196523Y266403D01*
X196702Y266461D01*
X196882Y266517D01*
X196893Y266524D01*
X196906Y266528D01*
X197071Y266621D01*
X197235Y266711D01*
X197245Y266719D01*
X197257Y266726D01*
X197399Y266849D01*
X197543Y266970D01*
X197551Y266980D01*
X197562Y266989D01*
X197676Y267137D01*
X197794Y267285D01*
X197800Y267297D01*
X197808Y267307D01*
X197892Y267475D01*
X197978Y267643D01*
X197982Y267656D01*
X197988Y267668D01*
X198037Y267850D01*
X198088Y268030D01*
X198089Y268043D01*
X198092Y268056D01*
X198119Y268387D01*
X198119Y285512D01*
X198117Y285539D01*
X198119Y285566D01*
X198097Y285740D01*
X198079Y285913D01*
X198072Y285939D01*
X198068Y285965D01*
X198013Y286131D01*
X197961Y286298D01*
X197948Y286322D01*
X197940Y286347D01*
X197853Y286498D01*
X197769Y286652D01*
X197752Y286673D01*
X197739Y286696D01*
X197524Y286949D01*
X192163Y292310D01*
X192146Y292324D01*
X192131Y292341D01*
X191990Y292452D01*
X191851Y292565D01*
X191832Y292576D01*
X191814Y292590D01*
X191654Y292670D01*
X191496Y292754D01*
X191474Y292760D01*
X191454Y292770D01*
X191282Y292818D01*
X191110Y292869D01*
X191088Y292871D01*
X191066Y292877D01*
X190887Y292889D01*
X190709Y292905D01*
X190687Y292903D01*
X190664Y292904D01*
X190487Y292881D01*
X190309Y292862D01*
X190287Y292855D01*
X190265Y292852D01*
X189949Y292751D01*
X186861Y291471D01*
X182515Y291471D01*
X178501Y293134D01*
X175428Y296207D01*
X174398Y298693D01*
X174356Y298771D01*
X174323Y298854D01*
X174261Y298948D01*
X174208Y299048D01*
X174152Y299116D01*
X174103Y299191D01*
X174024Y299271D01*
X173952Y299358D01*
X173883Y299414D01*
X173820Y299477D01*
X173727Y299541D01*
X173639Y299612D01*
X173561Y299653D01*
X173487Y299703D01*
X173383Y299746D01*
X173283Y299799D01*
X173197Y299824D01*
X173115Y299858D01*
X173005Y299880D01*
X172896Y299912D01*
X172808Y299920D01*
X172721Y299937D01*
X172607Y299937D01*
X172495Y299947D01*
X172407Y299937D01*
X172318Y299937D01*
X172207Y299914D01*
X172095Y299901D01*
X172010Y299874D01*
X171923Y299857D01*
X171819Y299813D01*
X171712Y299778D01*
X171634Y299735D01*
X171552Y299701D01*
X171459Y299637D01*
X171360Y299582D01*
X171293Y299524D01*
X171219Y299474D01*
X171140Y299394D01*
X171054Y299320D01*
X171000Y299250D01*
X170937Y299187D01*
X170876Y299092D01*
X170806Y299003D01*
X170766Y298924D01*
X170718Y298849D01*
X170663Y298719D01*
X170625Y298643D01*
X170613Y298599D01*
X170590Y298543D01*
X170352Y297811D01*
X169499Y296137D01*
X168394Y294616D01*
X167066Y293288D01*
X165998Y292512D01*
X165860Y292389D01*
X165718Y292267D01*
X165709Y292255D01*
X165697Y292244D01*
X165586Y292096D01*
X165472Y291949D01*
X165465Y291935D01*
X165455Y291922D01*
X165375Y291755D01*
X165292Y291588D01*
X165288Y291573D01*
X165282Y291559D01*
X165236Y291380D01*
X165188Y291199D01*
X165186Y291182D01*
X165183Y291169D01*
X165180Y291099D01*
X165161Y290869D01*
X165161Y262506D01*
X165163Y262484D01*
X165161Y262461D01*
X165183Y262284D01*
X165201Y262105D01*
X165207Y262084D01*
X165210Y262062D01*
X165266Y261892D01*
X165319Y261720D01*
X165329Y261701D01*
X165336Y261680D01*
X165425Y261524D01*
X165511Y261366D01*
X165525Y261349D01*
X165536Y261330D01*
X165654Y261194D01*
X165768Y261057D01*
X165786Y261043D01*
X165800Y261026D01*
X165942Y260917D01*
X166082Y260805D01*
X166102Y260794D01*
X166120Y260781D01*
X166415Y260629D01*
X168920Y259591D01*
X174591Y253920D01*
X177661Y246510D01*
X177661Y238490D01*
X174591Y231080D01*
X170804Y227292D01*
X170798Y227285D01*
X170791Y227280D01*
X170671Y227130D01*
X170549Y226981D01*
X170545Y226973D01*
X170539Y226966D01*
X170451Y226796D01*
X170360Y226625D01*
X170358Y226616D01*
X170354Y226609D01*
X170300Y226424D01*
X170245Y226239D01*
X170245Y226230D01*
X170242Y226222D01*
X170226Y226030D01*
X170209Y225838D01*
X170210Y225829D01*
X170209Y225820D01*
X170231Y225631D01*
X170252Y225438D01*
X170255Y225429D01*
X170256Y225421D01*
X170316Y225239D01*
X170374Y225054D01*
X170378Y225046D01*
X170381Y225038D01*
X170476Y224869D01*
X170569Y224702D01*
X170574Y224695D01*
X170579Y224687D01*
X170705Y224541D01*
X170829Y224395D01*
X170836Y224389D01*
X170842Y224382D01*
X170993Y224265D01*
X171145Y224145D01*
X171153Y224141D01*
X171160Y224136D01*
X171332Y224050D01*
X171504Y223963D01*
X171513Y223960D01*
X171521Y223956D01*
X171707Y223906D01*
X171892Y223855D01*
X171901Y223854D01*
X171909Y223852D01*
X172240Y223825D01*
X181132Y223825D01*
X181952Y223005D01*
X181959Y222999D01*
X181964Y222992D01*
X182115Y222871D01*
X182263Y222750D01*
X182271Y222745D01*
X182278Y222740D01*
X182448Y222651D01*
X182619Y222561D01*
X182628Y222558D01*
X182635Y222554D01*
X182820Y222501D01*
X183005Y222446D01*
X183014Y222445D01*
X183022Y222443D01*
X183213Y222427D01*
X183406Y222410D01*
X183415Y222411D01*
G37*
D10*
X173000Y219050D03*
X173000Y206350D03*
X173000Y193650D03*
X173000Y180950D03*
X227000Y180950D03*
X227000Y193650D03*
X227000Y206350D03*
X227000Y219050D03*
D11*
X159288Y302394D02*
X159288Y321190D01*
X184688Y321190D02*
X184688Y302394D01*
X210088Y302394D02*
X210088Y321190D01*
X235488Y321190D02*
X235488Y302394D01*
D12*
X185014Y206350D02*
X173000Y206350D01*
X185014Y206350D02*
X188976Y210312D01*
X188976Y259080D02*
X192024Y262128D01*
D13*
X192024Y262128D03*
D12*
X188976Y259080D02*
X188976Y210312D01*
X219862Y219050D02*
X227000Y219050D01*
X219862Y219050D02*
X213360Y225552D01*
X214094Y225552D01*
D13*
X214094Y225552D03*
X192024Y179832D03*
D12*
X174118Y179832D01*
X173000Y180950D01*
D13*
X176784Y277368D03*
D14*
X214274Y206350D02*
X227000Y206350D01*
X207264Y308968D02*
X210088Y311792D01*
X207264Y308968D02*
X207264Y213360D01*
X214274Y206350D01*
X208686Y193650D02*
X227000Y193650D01*
X208686Y193650D02*
X201168Y201168D01*
X201168Y287617D02*
X184688Y304097D01*
X184688Y311792D01*
X201168Y287617D02*
X201168Y201168D01*
M02*
