G04 EAGLE Gerber RS-274X export*
G75*
%MOMM*%
%FSLAX34Y34*%
%LPD*%
%INTop Copper*%
%IPPOS*%
%AMOC8*
5,1,8,0,0,1.08239X$1,22.5*%
G01*
%ADD10R,0.500000X0.900000*%
%ADD11R,1.400000X0.500000*%
%ADD12R,1.500000X1.300000*%
%ADD13R,1.300000X1.600000*%
%ADD14C,0.304800*%
%ADD15C,0.756400*%

G36*
X66133Y-10148D02*
X66133Y-10148D01*
X66233Y-10146D01*
X66305Y-10128D01*
X66379Y-10119D01*
X66474Y-10086D01*
X66571Y-10061D01*
X66637Y-10027D01*
X66707Y-10002D01*
X66792Y-9947D01*
X66881Y-9901D01*
X66938Y-9853D01*
X67000Y-9813D01*
X67070Y-9741D01*
X67146Y-9676D01*
X67191Y-9616D01*
X67242Y-9562D01*
X67294Y-9476D01*
X67354Y-9395D01*
X67383Y-9327D01*
X67421Y-9263D01*
X67452Y-9167D01*
X67492Y-9075D01*
X67505Y-9002D01*
X67527Y-8931D01*
X67535Y-8831D01*
X67553Y-8732D01*
X67549Y-8658D01*
X67555Y-8584D01*
X67540Y-8484D01*
X67535Y-8384D01*
X67515Y-8313D01*
X67504Y-8239D01*
X67467Y-8146D01*
X67439Y-8049D01*
X67402Y-7984D01*
X67375Y-7915D01*
X67318Y-7833D01*
X67269Y-7745D01*
X67203Y-7669D01*
X67176Y-7629D01*
X67150Y-7605D01*
X67110Y-7559D01*
X65605Y-6054D01*
X64797Y-4104D01*
X64797Y-1992D01*
X65605Y-42D01*
X66609Y962D01*
X66673Y1043D01*
X66729Y1101D01*
X66740Y1119D01*
X66772Y1155D01*
X66796Y1197D01*
X66826Y1235D01*
X66880Y1349D01*
X66904Y1393D01*
X66908Y1400D01*
X66908Y1401D01*
X66941Y1460D01*
X66954Y1506D01*
X66975Y1550D01*
X67001Y1673D01*
X67036Y1795D01*
X67041Y1856D01*
X67048Y1891D01*
X67047Y1939D01*
X67055Y2039D01*
X67055Y10000D01*
X67052Y10026D01*
X67054Y10052D01*
X67032Y10199D01*
X67015Y10346D01*
X67007Y10371D01*
X67003Y10397D01*
X66948Y10535D01*
X66898Y10674D01*
X66884Y10696D01*
X66874Y10721D01*
X66789Y10842D01*
X66709Y10967D01*
X66690Y10985D01*
X66675Y11007D01*
X66565Y11106D01*
X66458Y11209D01*
X66436Y11223D01*
X66416Y11240D01*
X66286Y11312D01*
X66159Y11388D01*
X66134Y11396D01*
X66111Y11409D01*
X65968Y11449D01*
X65827Y11494D01*
X65801Y11496D01*
X65776Y11504D01*
X65532Y11523D01*
X62428Y11523D01*
X62402Y11520D01*
X62376Y11522D01*
X62229Y11500D01*
X62082Y11483D01*
X62057Y11475D01*
X62031Y11471D01*
X61893Y11416D01*
X61754Y11366D01*
X61732Y11352D01*
X61707Y11342D01*
X61586Y11257D01*
X61461Y11177D01*
X61443Y11158D01*
X61421Y11143D01*
X61322Y11033D01*
X61219Y10926D01*
X61205Y10904D01*
X61188Y10884D01*
X61116Y10754D01*
X61040Y10627D01*
X61032Y10602D01*
X61019Y10579D01*
X60979Y10436D01*
X60934Y10295D01*
X60932Y10269D01*
X60924Y10244D01*
X60905Y10000D01*
X60905Y7440D01*
X60012Y6547D01*
X43748Y6547D01*
X42855Y7440D01*
X42855Y10000D01*
X42852Y10026D01*
X42854Y10052D01*
X42832Y10199D01*
X42815Y10346D01*
X42807Y10371D01*
X42803Y10397D01*
X42748Y10535D01*
X42698Y10674D01*
X42684Y10696D01*
X42674Y10721D01*
X42589Y10842D01*
X42509Y10967D01*
X42490Y10985D01*
X42475Y11007D01*
X42365Y11106D01*
X42258Y11209D01*
X42236Y11223D01*
X42216Y11240D01*
X42086Y11312D01*
X41959Y11388D01*
X41934Y11396D01*
X41911Y11409D01*
X41768Y11449D01*
X41627Y11494D01*
X41601Y11496D01*
X41576Y11504D01*
X41332Y11523D01*
X41092Y11523D01*
X41066Y11520D01*
X41040Y11522D01*
X40893Y11500D01*
X40746Y11483D01*
X40721Y11475D01*
X40695Y11471D01*
X40557Y11416D01*
X40418Y11366D01*
X40396Y11352D01*
X40371Y11342D01*
X40250Y11257D01*
X40125Y11177D01*
X40107Y11158D01*
X40085Y11143D01*
X39986Y11033D01*
X39883Y10926D01*
X39869Y10904D01*
X39852Y10884D01*
X39780Y10754D01*
X39704Y10627D01*
X39696Y10602D01*
X39683Y10579D01*
X39643Y10436D01*
X39598Y10295D01*
X39596Y10269D01*
X39588Y10244D01*
X39569Y10000D01*
X39569Y7440D01*
X38676Y6547D01*
X22412Y6547D01*
X21519Y7440D01*
X21519Y10114D01*
X21505Y10240D01*
X21498Y10366D01*
X21485Y10412D01*
X21479Y10460D01*
X21437Y10579D01*
X21402Y10701D01*
X21378Y10743D01*
X21362Y10789D01*
X21293Y10895D01*
X21232Y11005D01*
X21192Y11051D01*
X21173Y11081D01*
X21138Y11115D01*
X21073Y11191D01*
X15239Y17025D01*
X15239Y44412D01*
X15236Y44438D01*
X15238Y44464D01*
X15216Y44611D01*
X15199Y44758D01*
X15191Y44783D01*
X15187Y44809D01*
X15132Y44947D01*
X15082Y45086D01*
X15068Y45108D01*
X15058Y45133D01*
X14973Y45254D01*
X14893Y45379D01*
X14874Y45397D01*
X14859Y45419D01*
X14749Y45518D01*
X14642Y45621D01*
X14620Y45635D01*
X14600Y45652D01*
X14470Y45724D01*
X14343Y45800D01*
X14318Y45808D01*
X14295Y45821D01*
X14152Y45861D01*
X14011Y45906D01*
X13985Y45908D01*
X13960Y45916D01*
X13716Y45935D01*
X1684Y45935D01*
X1658Y45932D01*
X1632Y45934D01*
X1485Y45912D01*
X1338Y45895D01*
X1313Y45887D01*
X1287Y45883D01*
X1149Y45828D01*
X1010Y45778D01*
X988Y45764D01*
X963Y45754D01*
X842Y45669D01*
X717Y45589D01*
X699Y45570D01*
X677Y45555D01*
X578Y45445D01*
X475Y45338D01*
X461Y45316D01*
X444Y45296D01*
X372Y45166D01*
X296Y45039D01*
X288Y45014D01*
X275Y44991D01*
X235Y44848D01*
X190Y44707D01*
X188Y44681D01*
X180Y44656D01*
X161Y44412D01*
X161Y-8636D01*
X164Y-8662D01*
X162Y-8688D01*
X184Y-8835D01*
X201Y-8982D01*
X209Y-9007D01*
X213Y-9033D01*
X268Y-9171D01*
X318Y-9310D01*
X332Y-9332D01*
X342Y-9357D01*
X427Y-9478D01*
X507Y-9603D01*
X526Y-9621D01*
X541Y-9643D01*
X651Y-9742D01*
X758Y-9845D01*
X780Y-9859D01*
X800Y-9876D01*
X930Y-9948D01*
X1057Y-10024D01*
X1082Y-10032D01*
X1105Y-10045D01*
X1248Y-10085D01*
X1389Y-10130D01*
X1415Y-10132D01*
X1440Y-10140D01*
X1684Y-10159D01*
X66033Y-10159D01*
X66133Y-10148D01*
G37*
G36*
X178342Y-10156D02*
X178342Y-10156D01*
X178368Y-10158D01*
X178515Y-10136D01*
X178662Y-10119D01*
X178687Y-10111D01*
X178713Y-10107D01*
X178851Y-10052D01*
X178990Y-10002D01*
X179012Y-9988D01*
X179037Y-9978D01*
X179158Y-9893D01*
X179283Y-9813D01*
X179301Y-9794D01*
X179323Y-9779D01*
X179422Y-9669D01*
X179525Y-9562D01*
X179539Y-9540D01*
X179556Y-9520D01*
X179628Y-9390D01*
X179704Y-9263D01*
X179712Y-9238D01*
X179725Y-9215D01*
X179765Y-9072D01*
X179810Y-8931D01*
X179812Y-8905D01*
X179820Y-8880D01*
X179839Y-8636D01*
X179839Y44412D01*
X179836Y44438D01*
X179838Y44464D01*
X179816Y44611D01*
X179799Y44758D01*
X179791Y44783D01*
X179787Y44809D01*
X179732Y44947D01*
X179682Y45086D01*
X179668Y45108D01*
X179658Y45133D01*
X179573Y45254D01*
X179493Y45379D01*
X179474Y45397D01*
X179459Y45419D01*
X179349Y45518D01*
X179242Y45621D01*
X179220Y45635D01*
X179200Y45652D01*
X179070Y45724D01*
X178943Y45800D01*
X178918Y45808D01*
X178895Y45821D01*
X178752Y45861D01*
X178611Y45906D01*
X178585Y45908D01*
X178560Y45916D01*
X178316Y45935D01*
X161058Y45935D01*
X160959Y45924D01*
X160858Y45922D01*
X160786Y45904D01*
X160712Y45895D01*
X160618Y45862D01*
X160520Y45837D01*
X160454Y45803D01*
X160384Y45778D01*
X160300Y45723D01*
X160210Y45677D01*
X160154Y45629D01*
X160091Y45589D01*
X160022Y45517D01*
X159945Y45452D01*
X159901Y45392D01*
X159849Y45338D01*
X159798Y45252D01*
X159738Y45171D01*
X159708Y45103D01*
X159670Y45039D01*
X159640Y44943D01*
X159600Y44851D01*
X159587Y44778D01*
X159564Y44707D01*
X159556Y44607D01*
X159538Y44508D01*
X159542Y44434D01*
X159536Y44360D01*
X159551Y44260D01*
X159556Y44160D01*
X159577Y44089D01*
X159588Y44015D01*
X159625Y43922D01*
X159653Y43825D01*
X159689Y43760D01*
X159717Y43691D01*
X159774Y43609D01*
X159823Y43521D01*
X159888Y43445D01*
X159915Y43405D01*
X159942Y43381D01*
X159981Y43335D01*
X161093Y42224D01*
X161093Y24960D01*
X160133Y24001D01*
X160117Y23981D01*
X160097Y23964D01*
X160009Y23844D01*
X159917Y23728D01*
X159906Y23704D01*
X159890Y23683D01*
X159831Y23547D01*
X159768Y23413D01*
X159762Y23387D01*
X159752Y23363D01*
X159726Y23217D01*
X159694Y23072D01*
X159695Y23046D01*
X159690Y23020D01*
X159698Y22872D01*
X159700Y22724D01*
X159707Y22698D01*
X159708Y22672D01*
X159749Y22530D01*
X159785Y22386D01*
X159797Y22363D01*
X159805Y22337D01*
X159877Y22208D01*
X159945Y22076D01*
X159962Y22056D01*
X159975Y22033D01*
X160133Y21847D01*
X161093Y20888D01*
X161093Y3624D01*
X160200Y2731D01*
X157640Y2731D01*
X157614Y2728D01*
X157588Y2730D01*
X157441Y2708D01*
X157294Y2691D01*
X157269Y2683D01*
X157243Y2679D01*
X157105Y2624D01*
X156966Y2574D01*
X156944Y2560D01*
X156919Y2550D01*
X156798Y2465D01*
X156673Y2385D01*
X156655Y2366D01*
X156633Y2351D01*
X156534Y2241D01*
X156431Y2134D01*
X156417Y2112D01*
X156400Y2092D01*
X156328Y1962D01*
X156252Y1835D01*
X156244Y1810D01*
X156231Y1787D01*
X156191Y1644D01*
X156146Y1503D01*
X156144Y1477D01*
X156136Y1452D01*
X156117Y1208D01*
X156117Y-595D01*
X149153Y-7559D01*
X149090Y-7637D01*
X149020Y-7710D01*
X148982Y-7774D01*
X148936Y-7832D01*
X148893Y-7923D01*
X148842Y-8009D01*
X148819Y-8080D01*
X148787Y-8147D01*
X148766Y-8245D01*
X148735Y-8341D01*
X148729Y-8415D01*
X148714Y-8488D01*
X148715Y-8588D01*
X148707Y-8688D01*
X148718Y-8762D01*
X148720Y-8836D01*
X148744Y-8933D01*
X148759Y-9033D01*
X148787Y-9102D01*
X148805Y-9174D01*
X148851Y-9264D01*
X148888Y-9357D01*
X148930Y-9418D01*
X148964Y-9484D01*
X149030Y-9561D01*
X149087Y-9643D01*
X149142Y-9693D01*
X149190Y-9749D01*
X149271Y-9809D01*
X149346Y-9876D01*
X149411Y-9912D01*
X149470Y-9957D01*
X149563Y-9996D01*
X149651Y-10045D01*
X149722Y-10065D01*
X149790Y-10095D01*
X149889Y-10112D01*
X149986Y-10140D01*
X150086Y-10148D01*
X150133Y-10156D01*
X150169Y-10154D01*
X150230Y-10159D01*
X178316Y-10159D01*
X178342Y-10156D01*
G37*
G36*
X95556Y19870D02*
X95556Y19870D01*
X95704Y19872D01*
X95730Y19879D01*
X95756Y19880D01*
X95899Y19921D01*
X96042Y19957D01*
X96066Y19969D01*
X96091Y19977D01*
X96220Y20049D01*
X96312Y20097D01*
X100940Y20097D01*
X100966Y20100D01*
X100992Y20098D01*
X101139Y20120D01*
X101286Y20137D01*
X101311Y20145D01*
X101337Y20149D01*
X101474Y20204D01*
X101614Y20254D01*
X101636Y20268D01*
X101661Y20278D01*
X101782Y20363D01*
X101907Y20443D01*
X101925Y20462D01*
X101947Y20477D01*
X102046Y20587D01*
X102149Y20694D01*
X102163Y20716D01*
X102180Y20736D01*
X102252Y20866D01*
X102328Y20993D01*
X102336Y21018D01*
X102349Y21041D01*
X102389Y21184D01*
X102434Y21325D01*
X102436Y21351D01*
X102444Y21376D01*
X102463Y21620D01*
X102463Y22549D01*
X112004Y22549D01*
X119380Y22549D01*
X119406Y22552D01*
X119432Y22549D01*
X119579Y22571D01*
X119726Y22588D01*
X119751Y22597D01*
X119777Y22601D01*
X119915Y22656D01*
X120054Y22706D01*
X120076Y22720D01*
X120101Y22730D01*
X120222Y22814D01*
X120347Y22895D01*
X120365Y22914D01*
X120387Y22929D01*
X120486Y23039D01*
X120589Y23146D01*
X120603Y23168D01*
X120620Y23188D01*
X120692Y23318D01*
X120768Y23445D01*
X120776Y23470D01*
X120789Y23493D01*
X120829Y23636D01*
X120874Y23777D01*
X120876Y23803D01*
X120884Y23828D01*
X120903Y24072D01*
X120900Y24098D01*
X120902Y24124D01*
X120880Y24271D01*
X120863Y24418D01*
X120855Y24443D01*
X120851Y24469D01*
X120796Y24607D01*
X120746Y24746D01*
X120732Y24769D01*
X120722Y24793D01*
X120637Y24914D01*
X120557Y25039D01*
X120538Y25058D01*
X120523Y25079D01*
X120413Y25178D01*
X120306Y25281D01*
X120284Y25295D01*
X120264Y25312D01*
X120134Y25384D01*
X120007Y25460D01*
X119982Y25468D01*
X119959Y25481D01*
X119816Y25521D01*
X119675Y25567D01*
X119649Y25569D01*
X119624Y25576D01*
X119380Y25595D01*
X112004Y25595D01*
X102457Y25595D01*
X102440Y25707D01*
X102423Y25854D01*
X102415Y25879D01*
X102411Y25905D01*
X102356Y26043D01*
X102306Y26182D01*
X102292Y26204D01*
X102282Y26229D01*
X102197Y26350D01*
X102117Y26475D01*
X102098Y26493D01*
X102083Y26515D01*
X101973Y26614D01*
X101866Y26717D01*
X101844Y26731D01*
X101824Y26748D01*
X101694Y26820D01*
X101567Y26896D01*
X101542Y26904D01*
X101519Y26917D01*
X101376Y26957D01*
X101235Y27002D01*
X101209Y27004D01*
X101184Y27012D01*
X101027Y27024D01*
X101027Y34072D01*
X101024Y34098D01*
X101026Y34124D01*
X101004Y34271D01*
X100988Y34418D01*
X100979Y34443D01*
X100975Y34469D01*
X100920Y34606D01*
X100870Y34746D01*
X100856Y34768D01*
X100846Y34792D01*
X100762Y34914D01*
X100681Y35039D01*
X100662Y35057D01*
X100647Y35079D01*
X100537Y35178D01*
X100430Y35281D01*
X100407Y35295D01*
X100388Y35312D01*
X100258Y35384D01*
X100131Y35460D01*
X100106Y35468D01*
X100083Y35481D01*
X99940Y35521D01*
X99799Y35567D01*
X99773Y35569D01*
X99747Y35576D01*
X99504Y35595D01*
X93027Y35595D01*
X93027Y41113D01*
X94469Y41113D01*
X94618Y41130D01*
X94768Y41142D01*
X94791Y41150D01*
X94815Y41153D01*
X94956Y41203D01*
X95100Y41249D01*
X95120Y41262D01*
X95143Y41270D01*
X95269Y41352D01*
X95398Y41429D01*
X95415Y41446D01*
X95436Y41459D01*
X95540Y41567D01*
X95648Y41672D01*
X95661Y41692D01*
X95678Y41710D01*
X95755Y41839D01*
X95836Y41965D01*
X95844Y41988D01*
X95857Y42009D01*
X95903Y42152D01*
X95953Y42294D01*
X95956Y42318D01*
X95963Y42341D01*
X95975Y42490D01*
X95992Y42640D01*
X95989Y42664D01*
X95991Y42688D01*
X95969Y42837D01*
X95951Y42986D01*
X95942Y43014D01*
X95939Y43033D01*
X95922Y43077D01*
X95876Y43219D01*
X95231Y44776D01*
X95229Y44783D01*
X95225Y44809D01*
X95170Y44947D01*
X95120Y45086D01*
X95106Y45108D01*
X95096Y45133D01*
X95011Y45254D01*
X94931Y45379D01*
X94912Y45397D01*
X94897Y45419D01*
X94787Y45518D01*
X94680Y45621D01*
X94658Y45635D01*
X94638Y45652D01*
X94508Y45724D01*
X94381Y45800D01*
X94356Y45808D01*
X94333Y45821D01*
X94190Y45861D01*
X94049Y45906D01*
X94023Y45908D01*
X93998Y45916D01*
X93754Y45935D01*
X71630Y45935D01*
X71530Y45924D01*
X71430Y45922D01*
X71357Y45904D01*
X71284Y45895D01*
X71189Y45862D01*
X71092Y45837D01*
X71025Y45803D01*
X70955Y45778D01*
X70871Y45723D01*
X70782Y45677D01*
X70725Y45629D01*
X70663Y45589D01*
X70593Y45517D01*
X70516Y45452D01*
X70472Y45392D01*
X70420Y45338D01*
X70369Y45252D01*
X70309Y45171D01*
X70280Y45103D01*
X70242Y45039D01*
X70211Y44943D01*
X70171Y44851D01*
X70158Y44778D01*
X70135Y44707D01*
X70127Y44607D01*
X70110Y44508D01*
X70113Y44434D01*
X70107Y44360D01*
X70122Y44260D01*
X70127Y44160D01*
X70148Y44089D01*
X70159Y44015D01*
X70196Y43922D01*
X70224Y43825D01*
X70260Y43760D01*
X70288Y43691D01*
X70345Y43609D01*
X70394Y43521D01*
X70459Y43445D01*
X70487Y43405D01*
X70513Y43381D01*
X70553Y43335D01*
X73345Y40543D01*
X73444Y40464D01*
X73538Y40380D01*
X73580Y40356D01*
X73618Y40326D01*
X73732Y40272D01*
X73843Y40211D01*
X73889Y40198D01*
X73933Y40177D01*
X74056Y40151D01*
X74178Y40116D01*
X74239Y40111D01*
X74274Y40104D01*
X74322Y40105D01*
X74422Y40097D01*
X78305Y40097D01*
X78430Y40111D01*
X78556Y40118D01*
X78603Y40131D01*
X78651Y40137D01*
X78770Y40179D01*
X78891Y40214D01*
X78933Y40238D01*
X78979Y40254D01*
X79085Y40323D01*
X79195Y40384D01*
X79242Y40424D01*
X79272Y40443D01*
X79282Y40454D01*
X79283Y40454D01*
X79307Y40480D01*
X79382Y40543D01*
X79444Y40605D01*
X80023Y40940D01*
X80669Y41113D01*
X81981Y41113D01*
X81981Y34072D01*
X81981Y27025D01*
X81869Y27008D01*
X81722Y26991D01*
X81697Y26983D01*
X81671Y26979D01*
X81533Y26924D01*
X81394Y26874D01*
X81372Y26860D01*
X81347Y26850D01*
X81226Y26765D01*
X81101Y26685D01*
X81083Y26666D01*
X81061Y26651D01*
X80962Y26541D01*
X80859Y26434D01*
X80845Y26412D01*
X80828Y26392D01*
X80756Y26262D01*
X80680Y26135D01*
X80672Y26110D01*
X80659Y26087D01*
X80619Y25944D01*
X80574Y25803D01*
X80572Y25777D01*
X80564Y25752D01*
X80552Y25595D01*
X71004Y25595D01*
X70978Y25592D01*
X70952Y25594D01*
X70805Y25572D01*
X70658Y25556D01*
X70633Y25547D01*
X70607Y25543D01*
X70470Y25488D01*
X70330Y25438D01*
X70308Y25424D01*
X70284Y25414D01*
X70162Y25330D01*
X70037Y25249D01*
X70019Y25230D01*
X69997Y25215D01*
X69898Y25105D01*
X69795Y24998D01*
X69782Y24976D01*
X69764Y24956D01*
X69692Y24826D01*
X69616Y24699D01*
X69608Y24674D01*
X69595Y24651D01*
X69555Y24508D01*
X69510Y24367D01*
X69508Y24341D01*
X69501Y24316D01*
X69481Y24072D01*
X69484Y24046D01*
X69482Y24020D01*
X69504Y23873D01*
X69521Y23726D01*
X69530Y23701D01*
X69534Y23675D01*
X69588Y23537D01*
X69638Y23398D01*
X69653Y23375D01*
X69662Y23351D01*
X69747Y23230D01*
X69827Y23105D01*
X69846Y23086D01*
X69861Y23065D01*
X69971Y22966D01*
X70078Y22863D01*
X70101Y22849D01*
X70120Y22831D01*
X70250Y22760D01*
X70377Y22684D01*
X70402Y22676D01*
X70425Y22663D01*
X70568Y22623D01*
X70709Y22577D01*
X70735Y22575D01*
X70761Y22568D01*
X71004Y22549D01*
X80545Y22549D01*
X80545Y21620D01*
X80548Y21594D01*
X80546Y21568D01*
X80568Y21421D01*
X80585Y21274D01*
X80593Y21249D01*
X80597Y21223D01*
X80652Y21085D01*
X80702Y20946D01*
X80716Y20924D01*
X80726Y20899D01*
X80811Y20778D01*
X80891Y20653D01*
X80910Y20635D01*
X80925Y20613D01*
X81035Y20514D01*
X81142Y20411D01*
X81164Y20397D01*
X81184Y20380D01*
X81314Y20308D01*
X81441Y20232D01*
X81466Y20224D01*
X81489Y20211D01*
X81632Y20171D01*
X81773Y20126D01*
X81799Y20124D01*
X81824Y20116D01*
X82068Y20097D01*
X86690Y20097D01*
X86700Y20089D01*
X86724Y20078D01*
X86745Y20062D01*
X86881Y20003D01*
X87015Y19940D01*
X87041Y19934D01*
X87065Y19924D01*
X87211Y19898D01*
X87356Y19866D01*
X87382Y19867D01*
X87408Y19862D01*
X87556Y19870D01*
X87704Y19872D01*
X87730Y19879D01*
X87756Y19880D01*
X87899Y19921D01*
X88042Y19957D01*
X88066Y19969D01*
X88091Y19977D01*
X88220Y20049D01*
X88312Y20097D01*
X94690Y20097D01*
X94700Y20089D01*
X94724Y20078D01*
X94745Y20062D01*
X94881Y20003D01*
X95015Y19940D01*
X95041Y19934D01*
X95065Y19924D01*
X95211Y19898D01*
X95356Y19866D01*
X95382Y19867D01*
X95408Y19862D01*
X95556Y19870D01*
G37*
G36*
X119406Y29116D02*
X119406Y29116D01*
X119432Y29114D01*
X119579Y29136D01*
X119726Y29153D01*
X119751Y29161D01*
X119777Y29165D01*
X119915Y29220D01*
X120054Y29270D01*
X120076Y29284D01*
X120101Y29294D01*
X120222Y29379D01*
X120347Y29459D01*
X120365Y29478D01*
X120387Y29493D01*
X120486Y29603D01*
X120589Y29710D01*
X120603Y29732D01*
X120620Y29752D01*
X120692Y29882D01*
X120768Y30009D01*
X120776Y30034D01*
X120789Y30057D01*
X120829Y30200D01*
X120874Y30341D01*
X120876Y30367D01*
X120884Y30392D01*
X120903Y30636D01*
X120903Y44412D01*
X120900Y44438D01*
X120902Y44464D01*
X120880Y44611D01*
X120863Y44758D01*
X120855Y44783D01*
X120851Y44809D01*
X120796Y44947D01*
X120746Y45086D01*
X120732Y45108D01*
X120722Y45133D01*
X120637Y45254D01*
X120557Y45379D01*
X120538Y45397D01*
X120523Y45419D01*
X120413Y45518D01*
X120306Y45621D01*
X120284Y45635D01*
X120264Y45652D01*
X120134Y45724D01*
X120007Y45800D01*
X119982Y45808D01*
X119959Y45821D01*
X119816Y45861D01*
X119675Y45906D01*
X119649Y45908D01*
X119624Y45916D01*
X119380Y45935D01*
X111252Y45935D01*
X111226Y45932D01*
X111200Y45934D01*
X111053Y45912D01*
X110906Y45895D01*
X110881Y45887D01*
X110855Y45883D01*
X110717Y45828D01*
X110578Y45778D01*
X110556Y45764D01*
X110531Y45754D01*
X110410Y45669D01*
X110285Y45589D01*
X110267Y45570D01*
X110245Y45555D01*
X110146Y45445D01*
X110043Y45338D01*
X110029Y45316D01*
X110012Y45296D01*
X109940Y45166D01*
X109864Y45039D01*
X109856Y45014D01*
X109843Y44991D01*
X109803Y44848D01*
X109758Y44707D01*
X109756Y44681D01*
X109748Y44656D01*
X109729Y44412D01*
X109729Y41620D01*
X109731Y41599D01*
X109730Y41579D01*
X109730Y41575D01*
X109730Y41568D01*
X109752Y41421D01*
X109769Y41274D01*
X109777Y41249D01*
X109781Y41223D01*
X109836Y41085D01*
X109886Y40946D01*
X109900Y40924D01*
X109910Y40899D01*
X109995Y40778D01*
X110075Y40653D01*
X110094Y40635D01*
X110109Y40613D01*
X110213Y40519D01*
X111529Y39204D01*
X111529Y30636D01*
X111532Y30610D01*
X111530Y30584D01*
X111552Y30437D01*
X111569Y30290D01*
X111577Y30265D01*
X111581Y30239D01*
X111636Y30101D01*
X111686Y29962D01*
X111700Y29940D01*
X111710Y29915D01*
X111795Y29794D01*
X111875Y29669D01*
X111894Y29651D01*
X111909Y29629D01*
X112019Y29530D01*
X112126Y29427D01*
X112148Y29413D01*
X112168Y29396D01*
X112298Y29324D01*
X112425Y29248D01*
X112450Y29240D01*
X112473Y29227D01*
X112616Y29187D01*
X112757Y29142D01*
X112783Y29140D01*
X112808Y29132D01*
X113052Y29113D01*
X119380Y29113D01*
X119406Y29116D01*
G37*
G36*
X63535Y29113D02*
X63535Y29113D01*
X69956Y29113D01*
X69982Y29116D01*
X70008Y29114D01*
X70155Y29136D01*
X70302Y29153D01*
X70327Y29161D01*
X70353Y29165D01*
X70491Y29220D01*
X70630Y29270D01*
X70652Y29284D01*
X70677Y29294D01*
X70798Y29379D01*
X70923Y29459D01*
X70941Y29478D01*
X70963Y29493D01*
X71062Y29603D01*
X71165Y29710D01*
X71179Y29732D01*
X71196Y29752D01*
X71268Y29882D01*
X71344Y30009D01*
X71352Y30034D01*
X71365Y30057D01*
X71405Y30200D01*
X71450Y30341D01*
X71452Y30367D01*
X71460Y30392D01*
X71479Y30636D01*
X71479Y33154D01*
X71465Y33280D01*
X71458Y33406D01*
X71445Y33452D01*
X71439Y33500D01*
X71397Y33619D01*
X71362Y33741D01*
X71338Y33783D01*
X71322Y33829D01*
X71253Y33935D01*
X71192Y34045D01*
X71152Y34091D01*
X71133Y34121D01*
X71098Y34155D01*
X71033Y34231D01*
X64521Y40743D01*
X64443Y40806D01*
X64370Y40876D01*
X64306Y40914D01*
X64248Y40960D01*
X64157Y41003D01*
X64071Y41054D01*
X64000Y41077D01*
X63933Y41109D01*
X63835Y41130D01*
X63739Y41161D01*
X63665Y41167D01*
X63592Y41182D01*
X63492Y41181D01*
X63392Y41189D01*
X63318Y41178D01*
X63244Y41176D01*
X63147Y41152D01*
X63047Y41137D01*
X62978Y41109D01*
X62906Y41091D01*
X62816Y41045D01*
X62723Y41008D01*
X62662Y40966D01*
X62596Y40932D01*
X62519Y40866D01*
X62437Y40809D01*
X62387Y40754D01*
X62331Y40706D01*
X62271Y40625D01*
X62204Y40550D01*
X62168Y40485D01*
X62123Y40426D01*
X62084Y40333D01*
X62035Y40245D01*
X62015Y40174D01*
X61985Y40106D01*
X61968Y40007D01*
X61940Y39910D01*
X61932Y39810D01*
X61924Y39763D01*
X61926Y39727D01*
X61921Y39666D01*
X61921Y36619D01*
X53404Y36619D01*
X53378Y36616D01*
X53352Y36618D01*
X53205Y36596D01*
X53058Y36579D01*
X53033Y36570D01*
X53007Y36567D01*
X52869Y36512D01*
X52730Y36462D01*
X52708Y36448D01*
X52683Y36438D01*
X52562Y36353D01*
X52437Y36273D01*
X52419Y36254D01*
X52397Y36239D01*
X52298Y36129D01*
X52195Y36022D01*
X52181Y36000D01*
X52164Y35980D01*
X52092Y35850D01*
X52016Y35723D01*
X52008Y35698D01*
X51995Y35675D01*
X51955Y35532D01*
X51910Y35391D01*
X51908Y35365D01*
X51900Y35340D01*
X51881Y35096D01*
X51881Y32048D01*
X51884Y32022D01*
X51882Y31996D01*
X51904Y31849D01*
X51921Y31702D01*
X51930Y31677D01*
X51933Y31651D01*
X51988Y31513D01*
X52038Y31374D01*
X52052Y31352D01*
X52062Y31327D01*
X52147Y31206D01*
X52227Y31081D01*
X52246Y31063D01*
X52261Y31041D01*
X52371Y30942D01*
X52478Y30839D01*
X52500Y30825D01*
X52520Y30808D01*
X52650Y30736D01*
X52777Y30660D01*
X52802Y30652D01*
X52825Y30639D01*
X52968Y30599D01*
X53109Y30554D01*
X53135Y30552D01*
X53160Y30544D01*
X53404Y30525D01*
X61925Y30525D01*
X61946Y30406D01*
X61961Y30283D01*
X61978Y30235D01*
X61987Y30185D01*
X62036Y30071D01*
X62078Y29955D01*
X62106Y29912D01*
X62126Y29865D01*
X62200Y29766D01*
X62267Y29662D01*
X62304Y29627D01*
X62334Y29586D01*
X62429Y29506D01*
X62518Y29420D01*
X62562Y29394D01*
X62600Y29361D01*
X62711Y29305D01*
X62817Y29241D01*
X62865Y29226D01*
X62911Y29202D01*
X63031Y29173D01*
X63149Y29135D01*
X63200Y29131D01*
X63249Y29119D01*
X63373Y29117D01*
X63496Y29107D01*
X63535Y29113D01*
G37*
G36*
X50382Y30528D02*
X50382Y30528D01*
X50408Y30526D01*
X50555Y30548D01*
X50702Y30565D01*
X50727Y30573D01*
X50753Y30577D01*
X50891Y30632D01*
X51030Y30682D01*
X51052Y30696D01*
X51077Y30706D01*
X51198Y30791D01*
X51323Y30871D01*
X51341Y30890D01*
X51363Y30905D01*
X51462Y31015D01*
X51565Y31122D01*
X51579Y31144D01*
X51596Y31164D01*
X51668Y31294D01*
X51744Y31421D01*
X51752Y31446D01*
X51765Y31469D01*
X51805Y31612D01*
X51850Y31753D01*
X51852Y31779D01*
X51860Y31804D01*
X51879Y32048D01*
X51879Y35096D01*
X51876Y35122D01*
X51878Y35148D01*
X51856Y35295D01*
X51839Y35442D01*
X51830Y35467D01*
X51827Y35493D01*
X51772Y35631D01*
X51722Y35770D01*
X51708Y35792D01*
X51698Y35817D01*
X51613Y35938D01*
X51533Y36063D01*
X51514Y36081D01*
X51499Y36103D01*
X51389Y36202D01*
X51282Y36305D01*
X51260Y36319D01*
X51240Y36336D01*
X51110Y36408D01*
X50983Y36484D01*
X50958Y36492D01*
X50935Y36505D01*
X50792Y36545D01*
X50651Y36590D01*
X50625Y36592D01*
X50600Y36600D01*
X50356Y36619D01*
X32068Y36619D01*
X32042Y36616D01*
X32016Y36618D01*
X31869Y36596D01*
X31722Y36579D01*
X31697Y36570D01*
X31671Y36567D01*
X31533Y36512D01*
X31394Y36462D01*
X31372Y36448D01*
X31347Y36438D01*
X31226Y36353D01*
X31101Y36273D01*
X31083Y36254D01*
X31061Y36239D01*
X30962Y36129D01*
X30859Y36022D01*
X30845Y36000D01*
X30828Y35980D01*
X30756Y35850D01*
X30680Y35723D01*
X30672Y35698D01*
X30659Y35675D01*
X30619Y35532D01*
X30574Y35391D01*
X30572Y35365D01*
X30564Y35340D01*
X30545Y35096D01*
X30545Y32048D01*
X30548Y32022D01*
X30546Y31996D01*
X30568Y31849D01*
X30585Y31702D01*
X30594Y31677D01*
X30597Y31651D01*
X30652Y31513D01*
X30702Y31374D01*
X30716Y31352D01*
X30726Y31327D01*
X30811Y31206D01*
X30891Y31081D01*
X30910Y31063D01*
X30925Y31041D01*
X31035Y30942D01*
X31142Y30839D01*
X31164Y30825D01*
X31184Y30808D01*
X31314Y30736D01*
X31441Y30660D01*
X31466Y30652D01*
X31489Y30639D01*
X31632Y30599D01*
X31773Y30554D01*
X31799Y30552D01*
X31824Y30544D01*
X32068Y30525D01*
X50356Y30525D01*
X50382Y30528D01*
G37*
%LPC*%
G36*
X85027Y35595D02*
X85027Y35595D01*
X85027Y41113D01*
X86339Y41113D01*
X87110Y40906D01*
X87210Y40891D01*
X87309Y40867D01*
X87382Y40866D01*
X87454Y40855D01*
X87556Y40863D01*
X87658Y40862D01*
X87754Y40880D01*
X87802Y40884D01*
X87837Y40895D01*
X87898Y40906D01*
X88669Y41113D01*
X89981Y41113D01*
X89981Y35595D01*
X85027Y35595D01*
G37*
%LPD*%
%LPC*%
G36*
X93027Y27031D02*
X93027Y27031D01*
X93027Y32549D01*
X97981Y32549D01*
X97981Y27031D01*
X96669Y27031D01*
X95898Y27238D01*
X95798Y27253D01*
X95699Y27277D01*
X95626Y27278D01*
X95553Y27289D01*
X95452Y27281D01*
X95350Y27282D01*
X95254Y27264D01*
X95206Y27260D01*
X95171Y27249D01*
X95110Y27238D01*
X94339Y27031D01*
X93027Y27031D01*
G37*
%LPD*%
%LPC*%
G36*
X85027Y27031D02*
X85027Y27031D01*
X85027Y32549D01*
X89981Y32549D01*
X89981Y27031D01*
X88669Y27031D01*
X87898Y27238D01*
X87798Y27253D01*
X87699Y27277D01*
X87626Y27278D01*
X87553Y27289D01*
X87452Y27281D01*
X87350Y27282D01*
X87254Y27264D01*
X87206Y27260D01*
X87171Y27249D01*
X87110Y27238D01*
X86339Y27031D01*
X85027Y27031D01*
G37*
%LPD*%
D10*
X75504Y34072D03*
X83504Y34072D03*
X91504Y34072D03*
X99504Y34072D03*
X107504Y34072D03*
D11*
X112004Y24072D03*
D10*
X107504Y14072D03*
X99504Y14072D03*
X91504Y14072D03*
X83504Y14072D03*
X75504Y14072D03*
D11*
X71004Y24072D03*
D12*
X30544Y14572D03*
X30544Y33572D03*
X51880Y14572D03*
X51880Y33572D03*
D13*
X153068Y33592D03*
X134068Y33592D03*
X153068Y12256D03*
X134068Y12256D03*
D14*
X75004Y14572D02*
X51880Y14572D01*
X75004Y14572D02*
X75504Y14072D01*
X51880Y14572D02*
X30544Y14572D01*
X63856Y45720D02*
X75504Y34072D01*
X21336Y45720D02*
X18288Y42672D01*
X18288Y18288D01*
X22004Y14572D02*
X30544Y14572D01*
X21336Y45720D02*
X63856Y45720D01*
X22004Y14572D02*
X18288Y18288D01*
D15*
X70104Y-3048D03*
D14*
X70104Y9672D01*
X75004Y14572D01*
X134068Y12256D02*
X134068Y33592D01*
X134068Y12256D02*
X134068Y4020D01*
X132080Y2032D01*
D15*
X132080Y2032D03*
D14*
X51880Y33572D02*
X30544Y33572D01*
X61548Y33528D02*
X71004Y24072D01*
X51924Y33528D02*
X51880Y33572D01*
X51924Y33528D02*
X61548Y33528D01*
X71004Y24072D02*
X82296Y24072D01*
X91440Y24072D01*
X97536Y24072D01*
X112004Y24072D01*
X83504Y25280D02*
X83504Y34072D01*
X83504Y25280D02*
X82296Y24072D01*
X91504Y24136D02*
X91504Y34072D01*
X91504Y24136D02*
X91440Y24072D01*
X99504Y26040D02*
X99504Y34072D01*
X99504Y26040D02*
X97536Y24072D01*
D15*
X115824Y27432D03*
D14*
X112464Y24072D01*
X112004Y24072D01*
D15*
X10160Y-3048D03*
X170688Y23368D03*
D14*
X91504Y14072D02*
X91504Y6096D01*
X91504Y64D01*
X88392Y-3048D01*
D15*
X88392Y-3048D03*
D14*
X140940Y45720D02*
X153068Y33592D01*
X124968Y45720D02*
X123952Y44704D01*
X123952Y8128D01*
X118872Y3048D01*
X94552Y3048D01*
X91504Y6096D01*
X124968Y45720D02*
X140940Y45720D01*
D15*
X103632Y-6096D03*
D14*
X83504Y7304D02*
X83504Y14072D01*
X83504Y7304D02*
X79248Y3048D01*
X79248Y-6096D01*
X85344Y-12192D02*
X97536Y-12192D01*
X103632Y-6096D01*
X85344Y-12192D02*
X79248Y-6096D01*
X103632Y-6096D02*
X146304Y-6096D01*
X153068Y668D02*
X153068Y12256D01*
X153068Y668D02*
X146304Y-6096D01*
X107504Y34072D02*
X106680Y34896D01*
X106680Y42672D01*
X103632Y45720D01*
X100584Y45720D01*
D15*
X100584Y45720D03*
M02*
