G04 EAGLE Gerber RS-274X export*
G75*
%MOMM*%
%FSLAX34Y34*%
%LPD*%
%INSilkscreen Bottom*%
%IPPOS*%
%AMOC8*
5,1,8,0,0,1.08239X$1,22.5*%
G01*
%ADD10C,0.203200*%
%ADD11C,0.101600*%

G36*
X81386Y41843D02*
X81386Y41843D01*
X81475Y41842D01*
X81486Y41847D01*
X81498Y41848D01*
X81578Y41885D01*
X81660Y41919D01*
X81669Y41928D01*
X81679Y41933D01*
X81716Y41974D01*
X81789Y42045D01*
X84289Y45545D01*
X84316Y45606D01*
X84351Y45663D01*
X84358Y45699D01*
X84371Y45728D01*
X84372Y45777D01*
X84383Y45840D01*
X84383Y46340D01*
X84382Y46345D01*
X84383Y46350D01*
X84362Y46443D01*
X84344Y46537D01*
X84341Y46541D01*
X84340Y46546D01*
X84284Y46624D01*
X84231Y46702D01*
X84227Y46705D01*
X84224Y46709D01*
X84142Y46760D01*
X84063Y46812D01*
X84058Y46812D01*
X84053Y46815D01*
X83876Y46847D01*
X78876Y46847D01*
X78871Y46846D01*
X78866Y46847D01*
X78773Y46826D01*
X78680Y46808D01*
X78675Y46805D01*
X78670Y46804D01*
X78592Y46748D01*
X78514Y46695D01*
X78511Y46691D01*
X78507Y46688D01*
X78456Y46606D01*
X78404Y46527D01*
X78404Y46522D01*
X78401Y46517D01*
X78369Y46340D01*
X78369Y45840D01*
X78382Y45775D01*
X78386Y45708D01*
X78402Y45674D01*
X78408Y45644D01*
X78436Y45603D01*
X78463Y45545D01*
X80963Y42045D01*
X81028Y41985D01*
X81090Y41921D01*
X81101Y41917D01*
X81110Y41908D01*
X81192Y41878D01*
X81274Y41843D01*
X81286Y41843D01*
X81298Y41839D01*
X81386Y41843D01*
G37*
D10*
X51876Y63840D02*
X51876Y68840D01*
X52876Y69840D01*
X129876Y69840D01*
X130876Y68840D01*
X130876Y63840D01*
X51876Y63840D01*
X60876Y47840D02*
X121876Y47840D01*
X66376Y48840D02*
X66376Y62840D01*
X116376Y62840D02*
X116376Y48840D01*
D11*
X80876Y64840D02*
X80876Y68840D01*
X83376Y66340D01*
X83376Y64840D01*
X99376Y64840D02*
X99376Y66340D01*
X101876Y68840D01*
X101876Y64840D01*
D10*
X74876Y46340D02*
X74876Y23840D01*
X74878Y23786D01*
X74884Y23733D01*
X74893Y23681D01*
X74906Y23629D01*
X74923Y23578D01*
X74944Y23528D01*
X74968Y23481D01*
X74995Y23435D01*
X75026Y23391D01*
X75059Y23349D01*
X75096Y23310D01*
X75135Y23273D01*
X75177Y23240D01*
X75221Y23209D01*
X75267Y23182D01*
X75314Y23158D01*
X75364Y23137D01*
X75415Y23120D01*
X75467Y23107D01*
X75519Y23098D01*
X75572Y23092D01*
X75626Y23090D01*
X75680Y23092D01*
X75733Y23098D01*
X75785Y23107D01*
X75837Y23120D01*
X75888Y23137D01*
X75938Y23158D01*
X75985Y23182D01*
X76031Y23209D01*
X76075Y23240D01*
X76117Y23273D01*
X76156Y23310D01*
X76193Y23349D01*
X76226Y23391D01*
X76257Y23435D01*
X76284Y23481D01*
X76308Y23528D01*
X76329Y23578D01*
X76346Y23629D01*
X76359Y23681D01*
X76368Y23733D01*
X76374Y23786D01*
X76376Y23840D01*
X76376Y46340D01*
X106376Y46340D02*
X106376Y23840D01*
X106378Y23786D01*
X106384Y23733D01*
X106393Y23681D01*
X106406Y23629D01*
X106423Y23578D01*
X106444Y23528D01*
X106468Y23481D01*
X106495Y23435D01*
X106526Y23391D01*
X106559Y23349D01*
X106596Y23310D01*
X106635Y23273D01*
X106677Y23240D01*
X106721Y23209D01*
X106767Y23182D01*
X106814Y23158D01*
X106864Y23137D01*
X106915Y23120D01*
X106967Y23107D01*
X107019Y23098D01*
X107072Y23092D01*
X107126Y23090D01*
X107180Y23092D01*
X107233Y23098D01*
X107285Y23107D01*
X107337Y23120D01*
X107388Y23137D01*
X107438Y23158D01*
X107485Y23182D01*
X107531Y23209D01*
X107575Y23240D01*
X107617Y23273D01*
X107656Y23310D01*
X107693Y23349D01*
X107726Y23391D01*
X107757Y23435D01*
X107784Y23481D01*
X107808Y23528D01*
X107829Y23578D01*
X107846Y23629D01*
X107859Y23681D01*
X107868Y23733D01*
X107874Y23786D01*
X107876Y23840D01*
X107876Y46340D01*
M02*
