G04 EAGLE Gerber RS-274X export*
G75*
%MOMM*%
%FSLAX34Y34*%
%LPD*%
%INSoldermask Top*%
%IPPOS*%
%AMOC8*
5,1,8,0,0,1.08239X$1,22.5*%
G01*
%ADD10R,1.703200X1.503200*%
%ADD11R,1.503200X1.703200*%
%ADD12P,1.649562X8X157.500000*%
%ADD13P,1.649562X8X247.500000*%
%ADD14P,1.649562X8X337.500000*%
%ADD15P,1.649562X8X67.500000*%
%ADD16C,1.625600*%
%ADD17R,1.703200X1.703200*%
%ADD18R,2.103200X1.603200*%
%ADD19R,1.603200X1.203200*%
%ADD20R,1.503200X1.803200*%
%ADD21R,1.803200X1.503200*%
%ADD22R,1.753200X1.503200*%
%ADD23R,0.457200X1.676400*%
%ADD24R,1.981200X0.457200*%
%ADD25R,0.508000X3.759200*%
%ADD26R,2.703200X4.503200*%
%ADD27C,1.727200*%
%ADD28C,3.203200*%
%ADD29C,1.711200*%
%ADD30P,1.649562X8X277.500000*%
%ADD31P,1.649562X8X127.500000*%
%ADD32P,1.649562X8X112.500000*%
%ADD33C,2.082800*%
%ADD34C,1.203200*%
%ADD35R,1.453200X0.453200*%
%ADD36R,0.453200X1.453200*%
%ADD37R,1.703200X0.703200*%
%ADD38C,0.959600*%


D10*
X265110Y434304D03*
X265110Y453304D03*
D11*
X279822Y474152D03*
X260822Y474152D03*
X529808Y368488D03*
X548808Y368488D03*
X519516Y306644D03*
X538516Y306644D03*
D10*
X456842Y566626D03*
X456842Y547626D03*
D11*
X393868Y276032D03*
X374868Y276032D03*
D10*
X484444Y559730D03*
X484444Y540730D03*
X137480Y458638D03*
X137480Y439638D03*
X544256Y439588D03*
X544256Y420588D03*
X567624Y439588D03*
X567624Y420588D03*
D11*
X417032Y563184D03*
X436032Y563184D03*
X393868Y296352D03*
X374868Y296352D03*
D12*
X635080Y519670D03*
X617120Y537630D03*
D13*
X640330Y341180D03*
X622370Y323220D03*
D14*
X568570Y580480D03*
X586530Y562520D03*
D15*
X578070Y285170D03*
X596030Y303130D03*
D16*
X11684Y650428D02*
X-2540Y650428D01*
X-2540Y675828D02*
X11684Y675828D01*
D17*
G36*
X489604Y229163D02*
X501647Y217120D01*
X489604Y205077D01*
X477561Y217120D01*
X489604Y229163D01*
G37*
G36*
X514352Y253911D02*
X526395Y241868D01*
X514352Y229825D01*
X502309Y241868D01*
X514352Y253911D01*
G37*
G36*
X497217Y659792D02*
X485174Y647749D01*
X473131Y659792D01*
X485174Y671835D01*
X497217Y659792D01*
G37*
G36*
X521965Y635044D02*
X509922Y623001D01*
X497879Y635044D01*
X509922Y647087D01*
X521965Y635044D01*
G37*
D18*
X550000Y349632D03*
X506000Y349632D03*
X506000Y325632D03*
X550000Y325632D03*
D19*
X780046Y470982D03*
X758046Y461482D03*
X758046Y480482D03*
X739298Y385488D03*
X761298Y394988D03*
X761298Y375988D03*
D20*
X825458Y229152D03*
X806458Y229152D03*
X824614Y280200D03*
X805614Y280200D03*
X822862Y330346D03*
X803862Y330346D03*
D21*
X239202Y412664D03*
X239202Y393664D03*
X216850Y412664D03*
X216850Y393664D03*
X507304Y553684D03*
X507304Y572684D03*
D20*
X824764Y379448D03*
X805764Y379448D03*
X823210Y429000D03*
X804210Y429000D03*
X821218Y489844D03*
X802218Y489844D03*
X820510Y531050D03*
X801510Y531050D03*
X827060Y80104D03*
X808060Y80104D03*
X822516Y581350D03*
X803516Y581350D03*
X823464Y630052D03*
X804464Y630052D03*
X824414Y680352D03*
X805414Y680352D03*
X824762Y731500D03*
X805762Y731500D03*
X825364Y779100D03*
X806364Y779100D03*
X824508Y460784D03*
X805508Y460784D03*
X658658Y482412D03*
X639658Y482412D03*
D21*
X537168Y599884D03*
X537168Y618884D03*
X537022Y262092D03*
X537022Y281092D03*
D20*
X636504Y447118D03*
X617504Y447118D03*
D21*
X739836Y460212D03*
X739836Y479212D03*
X782508Y390566D03*
X782508Y371566D03*
D20*
X635140Y360674D03*
X616140Y360674D03*
X578698Y332552D03*
X597698Y332552D03*
X614780Y514820D03*
X595780Y514820D03*
D21*
X566052Y553972D03*
X566052Y534972D03*
D20*
X826512Y130250D03*
X807512Y130250D03*
X824962Y181996D03*
X805962Y181996D03*
D22*
G36*
X425315Y177364D02*
X437711Y164968D01*
X427081Y154338D01*
X414685Y166734D01*
X425315Y177364D01*
G37*
G36*
X369100Y233579D02*
X381496Y221183D01*
X370866Y210553D01*
X358470Y222949D01*
X369100Y233579D01*
G37*
G36*
X457134Y209183D02*
X469530Y196787D01*
X458900Y186157D01*
X446504Y198553D01*
X457134Y209183D01*
G37*
G36*
X400919Y265398D02*
X413315Y253002D01*
X402685Y242372D01*
X390289Y254768D01*
X400919Y265398D01*
G37*
D23*
G36*
X426598Y327521D02*
X423365Y324288D01*
X411512Y336141D01*
X414745Y339374D01*
X426598Y327521D01*
G37*
G36*
X430011Y330934D02*
X426778Y327701D01*
X414925Y339554D01*
X418158Y342787D01*
X430011Y330934D01*
G37*
G36*
X433603Y334526D02*
X430370Y331293D01*
X418517Y343146D01*
X421750Y346379D01*
X433603Y334526D01*
G37*
G36*
X437195Y338118D02*
X433962Y334885D01*
X422109Y346738D01*
X425342Y349971D01*
X437195Y338118D01*
G37*
G36*
X440787Y341710D02*
X437554Y338477D01*
X425701Y350330D01*
X428934Y353563D01*
X440787Y341710D01*
G37*
G36*
X444199Y345123D02*
X440966Y341890D01*
X429113Y353743D01*
X432346Y356976D01*
X444199Y345123D01*
G37*
G36*
X447792Y348715D02*
X444559Y345482D01*
X432706Y357335D01*
X435939Y360568D01*
X447792Y348715D01*
G37*
G36*
X451384Y352307D02*
X448151Y349074D01*
X436298Y360927D01*
X439531Y364160D01*
X451384Y352307D01*
G37*
G36*
X454796Y355719D02*
X451563Y352486D01*
X439710Y364339D01*
X442943Y367572D01*
X454796Y355719D01*
G37*
G36*
X458388Y359311D02*
X455155Y356078D01*
X443302Y367931D01*
X446535Y371164D01*
X458388Y359311D01*
G37*
G36*
X461980Y362903D02*
X458747Y359670D01*
X446894Y371523D01*
X450127Y374756D01*
X461980Y362903D01*
G37*
G36*
X465393Y366316D02*
X462160Y363083D01*
X450307Y374936D01*
X453540Y378169D01*
X465393Y366316D01*
G37*
G36*
X468985Y369908D02*
X465752Y366675D01*
X453899Y378528D01*
X457132Y381761D01*
X468985Y369908D01*
G37*
G36*
X472577Y373500D02*
X469344Y370267D01*
X457491Y382120D01*
X460724Y385353D01*
X472577Y373500D01*
G37*
G36*
X475990Y376913D02*
X472757Y373680D01*
X460904Y385533D01*
X464137Y388766D01*
X475990Y376913D01*
G37*
G36*
X479582Y380505D02*
X476349Y377272D01*
X464496Y389125D01*
X467729Y392358D01*
X479582Y380505D01*
G37*
G36*
X483174Y384097D02*
X479941Y380864D01*
X468088Y392717D01*
X471321Y395950D01*
X483174Y384097D01*
G37*
G36*
X486586Y387509D02*
X483353Y384276D01*
X471500Y396129D01*
X474733Y399362D01*
X486586Y387509D01*
G37*
G36*
X490178Y391101D02*
X486945Y387868D01*
X475092Y399721D01*
X478325Y402954D01*
X490178Y391101D01*
G37*
G36*
X493770Y394694D02*
X490537Y391461D01*
X478684Y403314D01*
X481917Y406547D01*
X493770Y394694D01*
G37*
G36*
X497183Y398106D02*
X493950Y394873D01*
X482097Y406726D01*
X485330Y409959D01*
X497183Y398106D01*
G37*
G36*
X500775Y401698D02*
X497542Y398465D01*
X485689Y410318D01*
X488922Y413551D01*
X500775Y401698D01*
G37*
G36*
X504367Y405290D02*
X501134Y402057D01*
X489281Y413910D01*
X492514Y417143D01*
X504367Y405290D01*
G37*
G36*
X507959Y408882D02*
X504726Y405649D01*
X492873Y417502D01*
X496106Y420735D01*
X507959Y408882D01*
G37*
G36*
X511372Y412295D02*
X508139Y409062D01*
X496286Y420915D01*
X499519Y424148D01*
X511372Y412295D01*
G37*
G36*
X499519Y433488D02*
X496286Y436721D01*
X508139Y448574D01*
X511372Y445341D01*
X499519Y433488D01*
G37*
G36*
X496106Y436901D02*
X492873Y440134D01*
X504726Y451987D01*
X507959Y448754D01*
X496106Y436901D01*
G37*
G36*
X492514Y440493D02*
X489281Y443726D01*
X501134Y455579D01*
X504367Y452346D01*
X492514Y440493D01*
G37*
G36*
X488922Y444085D02*
X485689Y447318D01*
X497542Y459171D01*
X500775Y455938D01*
X488922Y444085D01*
G37*
G36*
X485330Y447677D02*
X482097Y450910D01*
X493950Y462763D01*
X497183Y459530D01*
X485330Y447677D01*
G37*
G36*
X481917Y451089D02*
X478684Y454322D01*
X490537Y466175D01*
X493770Y462942D01*
X481917Y451089D01*
G37*
G36*
X478325Y454682D02*
X475092Y457915D01*
X486945Y469768D01*
X490178Y466535D01*
X478325Y454682D01*
G37*
G36*
X474733Y458274D02*
X471500Y461507D01*
X483353Y473360D01*
X486586Y470127D01*
X474733Y458274D01*
G37*
G36*
X471321Y461686D02*
X468088Y464919D01*
X479941Y476772D01*
X483174Y473539D01*
X471321Y461686D01*
G37*
G36*
X467729Y465278D02*
X464496Y468511D01*
X476349Y480364D01*
X479582Y477131D01*
X467729Y465278D01*
G37*
G36*
X464137Y468870D02*
X460904Y472103D01*
X472757Y483956D01*
X475990Y480723D01*
X464137Y468870D01*
G37*
G36*
X460724Y472283D02*
X457491Y475516D01*
X469344Y487369D01*
X472577Y484136D01*
X460724Y472283D01*
G37*
G36*
X457132Y475875D02*
X453899Y479108D01*
X465752Y490961D01*
X468985Y487728D01*
X457132Y475875D01*
G37*
G36*
X453540Y479467D02*
X450307Y482700D01*
X462160Y494553D01*
X465393Y491320D01*
X453540Y479467D01*
G37*
G36*
X450127Y482880D02*
X446894Y486113D01*
X458747Y497966D01*
X461980Y494733D01*
X450127Y482880D01*
G37*
G36*
X446535Y486472D02*
X443302Y489705D01*
X455155Y501558D01*
X458388Y498325D01*
X446535Y486472D01*
G37*
G36*
X442943Y490064D02*
X439710Y493297D01*
X451563Y505150D01*
X454796Y501917D01*
X442943Y490064D01*
G37*
G36*
X439531Y493476D02*
X436298Y496709D01*
X448151Y508562D01*
X451384Y505329D01*
X439531Y493476D01*
G37*
G36*
X435939Y497068D02*
X432706Y500301D01*
X444559Y512154D01*
X447792Y508921D01*
X435939Y497068D01*
G37*
G36*
X432346Y500660D02*
X429113Y503893D01*
X440966Y515746D01*
X444199Y512513D01*
X432346Y500660D01*
G37*
G36*
X428934Y504073D02*
X425701Y507306D01*
X437554Y519159D01*
X440787Y515926D01*
X428934Y504073D01*
G37*
G36*
X425342Y507665D02*
X422109Y510898D01*
X433962Y522751D01*
X437195Y519518D01*
X425342Y507665D01*
G37*
G36*
X421750Y511257D02*
X418517Y514490D01*
X430370Y526343D01*
X433603Y523110D01*
X421750Y511257D01*
G37*
G36*
X418158Y514849D02*
X414925Y518082D01*
X426778Y529935D01*
X430011Y526702D01*
X418158Y514849D01*
G37*
G36*
X414745Y518262D02*
X411512Y521495D01*
X423365Y533348D01*
X426598Y530115D01*
X414745Y518262D01*
G37*
G36*
X402172Y521495D02*
X398939Y518262D01*
X387086Y530115D01*
X390319Y533348D01*
X402172Y521495D01*
G37*
G36*
X398759Y518082D02*
X395526Y514849D01*
X383673Y526702D01*
X386906Y529935D01*
X398759Y518082D01*
G37*
G36*
X395167Y514490D02*
X391934Y511257D01*
X380081Y523110D01*
X383314Y526343D01*
X395167Y514490D01*
G37*
G36*
X391575Y510898D02*
X388342Y507665D01*
X376489Y519518D01*
X379722Y522751D01*
X391575Y510898D01*
G37*
G36*
X387983Y507306D02*
X384750Y504073D01*
X372897Y515926D01*
X376130Y519159D01*
X387983Y507306D01*
G37*
G36*
X384571Y503893D02*
X381338Y500660D01*
X369485Y512513D01*
X372718Y515746D01*
X384571Y503893D01*
G37*
G36*
X380978Y500301D02*
X377745Y497068D01*
X365892Y508921D01*
X369125Y512154D01*
X380978Y500301D01*
G37*
G36*
X377386Y496709D02*
X374153Y493476D01*
X362300Y505329D01*
X365533Y508562D01*
X377386Y496709D01*
G37*
G36*
X373974Y493297D02*
X370741Y490064D01*
X358888Y501917D01*
X362121Y505150D01*
X373974Y493297D01*
G37*
G36*
X370382Y489705D02*
X367149Y486472D01*
X355296Y498325D01*
X358529Y501558D01*
X370382Y489705D01*
G37*
G36*
X366790Y486113D02*
X363557Y482880D01*
X351704Y494733D01*
X354937Y497966D01*
X366790Y486113D01*
G37*
G36*
X363377Y482700D02*
X360144Y479467D01*
X348291Y491320D01*
X351524Y494553D01*
X363377Y482700D01*
G37*
G36*
X359785Y479108D02*
X356552Y475875D01*
X344699Y487728D01*
X347932Y490961D01*
X359785Y479108D01*
G37*
G36*
X356193Y475516D02*
X352960Y472283D01*
X341107Y484136D01*
X344340Y487369D01*
X356193Y475516D01*
G37*
G36*
X352780Y472103D02*
X349547Y468870D01*
X337694Y480723D01*
X340927Y483956D01*
X352780Y472103D01*
G37*
G36*
X349188Y468511D02*
X345955Y465278D01*
X334102Y477131D01*
X337335Y480364D01*
X349188Y468511D01*
G37*
G36*
X345596Y464919D02*
X342363Y461686D01*
X330510Y473539D01*
X333743Y476772D01*
X345596Y464919D01*
G37*
G36*
X342184Y461507D02*
X338951Y458274D01*
X327098Y470127D01*
X330331Y473360D01*
X342184Y461507D01*
G37*
G36*
X338592Y457915D02*
X335359Y454682D01*
X323506Y466535D01*
X326739Y469768D01*
X338592Y457915D01*
G37*
G36*
X335000Y454322D02*
X331767Y451089D01*
X319914Y462942D01*
X323147Y466175D01*
X335000Y454322D01*
G37*
G36*
X331587Y450910D02*
X328354Y447677D01*
X316501Y459530D01*
X319734Y462763D01*
X331587Y450910D01*
G37*
G36*
X327995Y447318D02*
X324762Y444085D01*
X312909Y455938D01*
X316142Y459171D01*
X327995Y447318D01*
G37*
G36*
X324403Y443726D02*
X321170Y440493D01*
X309317Y452346D01*
X312550Y455579D01*
X324403Y443726D01*
G37*
G36*
X320811Y440134D02*
X317578Y436901D01*
X305725Y448754D01*
X308958Y451987D01*
X320811Y440134D01*
G37*
G36*
X317398Y436721D02*
X314165Y433488D01*
X302312Y445341D01*
X305545Y448574D01*
X317398Y436721D01*
G37*
G36*
X305545Y409062D02*
X302312Y412295D01*
X314165Y424148D01*
X317398Y420915D01*
X305545Y409062D01*
G37*
G36*
X308958Y405649D02*
X305725Y408882D01*
X317578Y420735D01*
X320811Y417502D01*
X308958Y405649D01*
G37*
G36*
X312550Y402057D02*
X309317Y405290D01*
X321170Y417143D01*
X324403Y413910D01*
X312550Y402057D01*
G37*
G36*
X316142Y398465D02*
X312909Y401698D01*
X324762Y413551D01*
X327995Y410318D01*
X316142Y398465D01*
G37*
G36*
X319734Y394873D02*
X316501Y398106D01*
X328354Y409959D01*
X331587Y406726D01*
X319734Y394873D01*
G37*
G36*
X323147Y391461D02*
X319914Y394694D01*
X331767Y406547D01*
X335000Y403314D01*
X323147Y391461D01*
G37*
G36*
X326739Y387868D02*
X323506Y391101D01*
X335359Y402954D01*
X338592Y399721D01*
X326739Y387868D01*
G37*
G36*
X330331Y384276D02*
X327098Y387509D01*
X338951Y399362D01*
X342184Y396129D01*
X330331Y384276D01*
G37*
G36*
X333743Y380864D02*
X330510Y384097D01*
X342363Y395950D01*
X345596Y392717D01*
X333743Y380864D01*
G37*
G36*
X337335Y377272D02*
X334102Y380505D01*
X345955Y392358D01*
X349188Y389125D01*
X337335Y377272D01*
G37*
G36*
X340927Y373680D02*
X337694Y376913D01*
X349547Y388766D01*
X352780Y385533D01*
X340927Y373680D01*
G37*
G36*
X344340Y370267D02*
X341107Y373500D01*
X352960Y385353D01*
X356193Y382120D01*
X344340Y370267D01*
G37*
G36*
X347932Y366675D02*
X344699Y369908D01*
X356552Y381761D01*
X359785Y378528D01*
X347932Y366675D01*
G37*
G36*
X351524Y363083D02*
X348291Y366316D01*
X360144Y378169D01*
X363377Y374936D01*
X351524Y363083D01*
G37*
G36*
X354937Y359670D02*
X351704Y362903D01*
X363557Y374756D01*
X366790Y371523D01*
X354937Y359670D01*
G37*
G36*
X358529Y356078D02*
X355296Y359311D01*
X367149Y371164D01*
X370382Y367931D01*
X358529Y356078D01*
G37*
G36*
X362121Y352486D02*
X358888Y355719D01*
X370741Y367572D01*
X373974Y364339D01*
X362121Y352486D01*
G37*
G36*
X365533Y349074D02*
X362300Y352307D01*
X374153Y364160D01*
X377386Y360927D01*
X365533Y349074D01*
G37*
G36*
X369125Y345482D02*
X365892Y348715D01*
X377745Y360568D01*
X380978Y357335D01*
X369125Y345482D01*
G37*
G36*
X372718Y341890D02*
X369485Y345123D01*
X381338Y356976D01*
X384571Y353743D01*
X372718Y341890D01*
G37*
G36*
X376130Y338477D02*
X372897Y341710D01*
X384750Y353563D01*
X387983Y350330D01*
X376130Y338477D01*
G37*
G36*
X379722Y334885D02*
X376489Y338118D01*
X388342Y349971D01*
X391575Y346738D01*
X379722Y334885D01*
G37*
G36*
X383314Y331293D02*
X380081Y334526D01*
X391934Y346379D01*
X395167Y343146D01*
X383314Y331293D01*
G37*
G36*
X386906Y327701D02*
X383673Y330934D01*
X395526Y342787D01*
X398759Y339554D01*
X386906Y327701D01*
G37*
G36*
X390319Y324288D02*
X387086Y327521D01*
X398939Y339374D01*
X402172Y336141D01*
X390319Y324288D01*
G37*
D22*
G36*
X476831Y247676D02*
X489227Y235280D01*
X478597Y224650D01*
X466201Y237046D01*
X476831Y247676D01*
G37*
G36*
X420616Y303891D02*
X433012Y291495D01*
X422382Y280865D01*
X409986Y293261D01*
X420616Y303891D01*
G37*
G36*
X508650Y279495D02*
X521046Y267099D01*
X510416Y256469D01*
X498020Y268865D01*
X508650Y279495D01*
G37*
G36*
X452435Y335710D02*
X464831Y323314D01*
X454201Y312684D01*
X441805Y325080D01*
X452435Y335710D01*
G37*
D24*
X228666Y515712D03*
X228666Y520712D03*
X228666Y525712D03*
X228666Y530712D03*
X228666Y535712D03*
X228666Y540712D03*
X228666Y545712D03*
X228666Y550712D03*
D25*
X214086Y553792D03*
X207086Y553792D03*
X200086Y553792D03*
X193086Y553792D03*
X186086Y553792D03*
D24*
X172522Y550712D03*
X172522Y545712D03*
X172522Y540712D03*
X172522Y535712D03*
X172522Y530712D03*
X172522Y525712D03*
X172522Y520712D03*
X172522Y515712D03*
D25*
X186086Y513648D03*
X193086Y513648D03*
X200086Y513648D03*
X207086Y513648D03*
X214086Y513648D03*
D10*
X146492Y568620D03*
X146492Y549620D03*
D11*
X171994Y491048D03*
X152994Y491048D03*
D10*
X131252Y511724D03*
X131252Y492724D03*
D26*
X70800Y530828D03*
X70800Y613828D03*
D24*
X227142Y302606D03*
X227142Y307606D03*
X227142Y312606D03*
X227142Y317606D03*
X227142Y322606D03*
X227142Y327606D03*
X227142Y332606D03*
X227142Y337606D03*
D25*
X212562Y340686D03*
X205562Y340686D03*
X198562Y340686D03*
X191562Y340686D03*
X184562Y340686D03*
D24*
X170998Y337606D03*
X170998Y332606D03*
X170998Y327606D03*
X170998Y322606D03*
X170998Y317606D03*
X170998Y312606D03*
X170998Y307606D03*
X170998Y302606D03*
D25*
X184562Y300542D03*
X191562Y300542D03*
X198562Y300542D03*
X205562Y300542D03*
X212562Y300542D03*
D11*
X137450Y359476D03*
X118450Y359476D03*
D10*
X140396Y275554D03*
X140396Y294554D03*
X140650Y317718D03*
X140650Y336718D03*
D27*
X329372Y711012D02*
X344612Y711012D01*
X344612Y685612D02*
X329372Y685612D01*
X329372Y660212D02*
X344612Y660212D01*
X344612Y634812D02*
X329372Y634812D01*
D28*
X50000Y700000D03*
X290000Y700000D03*
D29*
X195400Y620540D02*
X195400Y605460D01*
X170000Y605460D02*
X170000Y620540D01*
X144600Y620540D02*
X144600Y605460D01*
D28*
X290000Y160000D03*
X50000Y160000D03*
D29*
X144600Y239460D02*
X144600Y254540D01*
X170000Y254540D02*
X170000Y239460D01*
X195400Y239460D02*
X195400Y254540D01*
D30*
X693287Y382267D03*
X686713Y357733D03*
D20*
X635596Y382332D03*
X616596Y382332D03*
D31*
X693287Y477733D03*
X686713Y502267D03*
D32*
X690000Y417300D03*
X690000Y442700D03*
D11*
X779308Y434152D03*
X760308Y434152D03*
X779308Y412816D03*
X760308Y412816D03*
D33*
X500421Y607199D03*
X482461Y589239D03*
X482461Y625160D03*
X464500Y607199D03*
X464500Y643121D03*
X446539Y625160D03*
X446539Y661081D03*
X428579Y643121D03*
D26*
X70104Y251108D03*
X70104Y334108D03*
D20*
X385876Y686512D03*
X366876Y686512D03*
X385876Y660072D03*
X366876Y660072D03*
D27*
X347620Y143852D02*
X332380Y143852D01*
X332380Y169252D02*
X347620Y169252D01*
X347620Y194652D02*
X332380Y194652D01*
X332380Y220052D02*
X347620Y220052D01*
D21*
X297288Y248108D03*
X297288Y267108D03*
X339960Y244340D03*
X339960Y263340D03*
D34*
X860000Y430000D03*
X10000Y160000D03*
X10000Y700000D03*
X430000Y690000D03*
D16*
X387112Y147300D02*
X372888Y147300D01*
X372888Y172700D02*
X387112Y172700D01*
D35*
X185000Y422500D03*
X185000Y427500D03*
X185000Y432500D03*
X185000Y437500D03*
D36*
X175000Y442500D03*
X170000Y442500D03*
X165000Y442500D03*
D35*
X155000Y437500D03*
X155000Y432500D03*
X155000Y427500D03*
X155000Y422500D03*
D36*
X165000Y417500D03*
X170000Y417500D03*
X175000Y417500D03*
D37*
X312500Y351000D03*
X312500Y360000D03*
X312500Y369000D03*
X284500Y369000D03*
X284500Y351000D03*
D10*
X265176Y369164D03*
X265176Y350164D03*
D38*
X154112Y321376D03*
X99248Y327472D03*
X74864Y583504D03*
X138872Y534736D03*
X245552Y293944D03*
X263840Y507304D03*
X99248Y306136D03*
X87056Y583504D03*
X754568Y449392D03*
X745424Y409768D03*
X745424Y421960D03*
X723580Y457520D03*
X769808Y449392D03*
X432816Y176784D03*
X472440Y213360D03*
X463335Y353607D03*
X499872Y374904D03*
X524256Y420624D03*
X381000Y313944D03*
X441960Y551688D03*
X505968Y432816D03*
X646176Y512064D03*
X300416Y208600D03*
X416240Y208600D03*
X495488Y306136D03*
X596072Y434152D03*
X330896Y306136D03*
X343088Y351856D03*
X401000Y354904D03*
X422336Y394528D03*
X367472Y446344D03*
X440624Y452440D03*
X230312Y461584D03*
X294320Y549976D03*
X324800Y610936D03*
X367472Y522544D03*
X382712Y714568D03*
X84008Y690184D03*
X251648Y690184D03*
X248600Y571312D03*
X163256Y172024D03*
X56576Y208600D03*
X376616Y260416D03*
X568640Y357952D03*
X721040Y431104D03*
X562544Y513400D03*
X535112Y574360D03*
X294320Y626176D03*
X869912Y730288D03*
X870768Y131920D03*
X294320Y452440D03*
X248600Y348808D03*
X407096Y598744D03*
X60960Y365760D03*
X59624Y400624D03*
X35240Y482920D03*
X73152Y478536D03*
X129728Y385384D03*
X294320Y397576D03*
X361376Y394528D03*
X455864Y516448D03*
X187640Y275656D03*
X212024Y272608D03*
X96200Y242128D03*
X120584Y272608D03*
X205928Y476824D03*
X21336Y566928D03*
X76200Y496824D03*
X60960Y496824D03*
X48768Y496824D03*
X21336Y582168D03*
X21336Y597408D03*
X54864Y432816D03*
X617408Y428056D03*
X603184Y359984D03*
X601660Y500700D03*
X629600Y482920D03*
X280416Y426720D03*
X390144Y408432D03*
X280416Y228600D03*
X198120Y402336D03*
X182880Y451104D03*
X152400Y445008D03*
X265176Y362712D03*
X225552Y423170D03*
X256032Y393192D03*
X313944Y481584D03*
X393192Y609600D03*
X301752Y487680D03*
X347472Y591312D03*
X356616Y246888D03*
X356616Y292608D03*
X387096Y365760D03*
X833816Y80584D03*
X778952Y339664D03*
X833816Y181168D03*
X782000Y351856D03*
X833816Y278704D03*
X794192Y351856D03*
X833816Y379288D03*
X717992Y373192D03*
X830768Y479872D03*
X772856Y492064D03*
X830768Y580456D03*
X772856Y504256D03*
X830768Y681040D03*
X775904Y519496D03*
X833816Y778576D03*
X762054Y520544D03*
X578800Y378780D03*
X517840Y488000D03*
X448056Y402336D03*
X405384Y326136D03*
X475488Y527304D03*
X833816Y132400D03*
X833816Y229936D03*
X830768Y327472D03*
X822960Y408432D03*
X827720Y531688D03*
X830768Y629224D03*
X830768Y729808D03*
X832104Y460248D03*
X742376Y394528D03*
X649920Y432120D03*
X466344Y332232D03*
X539496Y512064D03*
X578800Y368620D03*
X512064Y518160D03*
X791144Y449392D03*
X841248Y441960D03*
X883920Y445008D03*
X710880Y454980D03*
X472440Y344424D03*
X463296Y411480D03*
X187640Y580456D03*
X208976Y580456D03*
X190688Y367096D03*
X208976Y367096D03*
X460248Y399288D03*
X289560Y496824D03*
X362712Y600456D03*
X371856Y478536D03*
X408432Y585216D03*
X451104Y280416D03*
X268224Y240792D03*
X228600Y167640D03*
X326136Y560832D03*
X295656Y585216D03*
X231648Y679704D03*
X329184Y347472D03*
X310896Y377952D03*
M02*
