G04 EAGLE Gerber RS-274X export*
G75*
%MOMM*%
%FSLAX34Y34*%
%LPD*%
%INSilkscreen Bottom*%
%IPPOS*%
%AMOC8*
5,1,8,0,0,1.08239X$1,22.5*%
G01*
%ADD10R,0.300000X0.200000*%
%ADD11R,0.325000X0.425000*%
%ADD12R,0.350000X0.350000*%
%ADD13C,0.203200*%
%ADD14C,0.101600*%


D10*
X854500Y758000D03*
X845500Y758000D03*
X754500Y758000D03*
X745500Y758000D03*
X654500Y758000D03*
X645500Y758000D03*
X554500Y758000D03*
X545500Y758000D03*
X454500Y758000D03*
X445500Y758000D03*
X354500Y758000D03*
X345500Y758000D03*
X254500Y758000D03*
X245500Y758000D03*
X154500Y758000D03*
X145500Y758000D03*
D11*
X826875Y765625D03*
X813125Y765625D03*
D12*
X820000Y761750D03*
D11*
X726875Y765625D03*
X713125Y765625D03*
D12*
X720000Y761750D03*
D11*
X626875Y765625D03*
X613125Y765625D03*
D12*
X620000Y761750D03*
D11*
X526875Y765625D03*
X513125Y765625D03*
D12*
X520000Y761750D03*
D11*
X386875Y765625D03*
X373125Y765625D03*
D12*
X380000Y761750D03*
D11*
X286875Y765625D03*
X273125Y765625D03*
D12*
X280000Y761750D03*
D11*
X186875Y765625D03*
X173125Y765625D03*
D12*
X180000Y761750D03*
D11*
X486875Y765625D03*
X473125Y765625D03*
D12*
X480000Y761750D03*
D13*
X246514Y425687D02*
X237534Y416707D01*
D11*
X963125Y144375D03*
X976875Y144375D03*
D12*
X970000Y148250D03*
D14*
X956792Y124101D02*
X945108Y124101D01*
X945108Y129293D01*
X945108Y134007D02*
X945108Y139199D01*
X945108Y134007D02*
X956792Y134007D01*
X956792Y139199D01*
X951599Y137901D02*
X951599Y134007D01*
X956792Y143890D02*
X945108Y143890D01*
X956792Y143890D02*
X956792Y147135D01*
X956790Y147248D01*
X956784Y147361D01*
X956774Y147474D01*
X956760Y147587D01*
X956743Y147699D01*
X956721Y147810D01*
X956696Y147920D01*
X956666Y148030D01*
X956633Y148138D01*
X956596Y148245D01*
X956556Y148351D01*
X956511Y148455D01*
X956463Y148558D01*
X956412Y148659D01*
X956357Y148758D01*
X956299Y148855D01*
X956237Y148950D01*
X956172Y149043D01*
X956104Y149133D01*
X956033Y149221D01*
X955958Y149307D01*
X955881Y149390D01*
X955801Y149470D01*
X955718Y149547D01*
X955632Y149622D01*
X955544Y149693D01*
X955454Y149761D01*
X955361Y149826D01*
X955266Y149888D01*
X955169Y149946D01*
X955070Y150001D01*
X954969Y150052D01*
X954866Y150100D01*
X954762Y150145D01*
X954656Y150185D01*
X954549Y150222D01*
X954441Y150255D01*
X954331Y150285D01*
X954221Y150310D01*
X954110Y150332D01*
X953998Y150349D01*
X953885Y150363D01*
X953772Y150373D01*
X953659Y150379D01*
X953546Y150381D01*
X948354Y150381D01*
X948241Y150379D01*
X948128Y150373D01*
X948015Y150363D01*
X947902Y150349D01*
X947790Y150332D01*
X947679Y150310D01*
X947569Y150285D01*
X947459Y150255D01*
X947351Y150222D01*
X947244Y150185D01*
X947138Y150145D01*
X947034Y150100D01*
X946931Y150052D01*
X946830Y150001D01*
X946731Y149946D01*
X946634Y149888D01*
X946539Y149826D01*
X946446Y149761D01*
X946356Y149693D01*
X946268Y149622D01*
X946182Y149547D01*
X946099Y149470D01*
X946019Y149390D01*
X945942Y149307D01*
X945867Y149221D01*
X945796Y149133D01*
X945728Y149043D01*
X945663Y148950D01*
X945601Y148855D01*
X945543Y148758D01*
X945488Y148659D01*
X945437Y148558D01*
X945389Y148455D01*
X945344Y148351D01*
X945304Y148245D01*
X945267Y148138D01*
X945234Y148030D01*
X945204Y147920D01*
X945179Y147810D01*
X945157Y147699D01*
X945140Y147587D01*
X945126Y147474D01*
X945116Y147361D01*
X945110Y147248D01*
X945108Y147135D01*
X945108Y143890D01*
X950301Y158297D02*
X950301Y162192D01*
X950301Y158297D02*
X950303Y158198D01*
X950309Y158098D01*
X950318Y157999D01*
X950331Y157901D01*
X950348Y157803D01*
X950369Y157705D01*
X950394Y157609D01*
X950422Y157514D01*
X950454Y157420D01*
X950489Y157327D01*
X950528Y157235D01*
X950571Y157145D01*
X950616Y157057D01*
X950666Y156970D01*
X950718Y156886D01*
X950774Y156803D01*
X950832Y156723D01*
X950894Y156645D01*
X950959Y156570D01*
X951027Y156497D01*
X951097Y156427D01*
X951170Y156359D01*
X951245Y156294D01*
X951323Y156232D01*
X951403Y156174D01*
X951486Y156118D01*
X951570Y156066D01*
X951657Y156016D01*
X951745Y155971D01*
X951835Y155928D01*
X951927Y155889D01*
X952020Y155854D01*
X952114Y155822D01*
X952209Y155794D01*
X952305Y155769D01*
X952403Y155748D01*
X952501Y155731D01*
X952599Y155718D01*
X952698Y155709D01*
X952798Y155703D01*
X952897Y155701D01*
X953546Y155701D01*
X953546Y155700D02*
X953659Y155702D01*
X953772Y155708D01*
X953885Y155718D01*
X953998Y155732D01*
X954110Y155749D01*
X954221Y155771D01*
X954331Y155796D01*
X954441Y155826D01*
X954549Y155859D01*
X954656Y155896D01*
X954762Y155936D01*
X954866Y155981D01*
X954969Y156029D01*
X955070Y156080D01*
X955169Y156135D01*
X955266Y156193D01*
X955361Y156255D01*
X955454Y156320D01*
X955544Y156388D01*
X955632Y156459D01*
X955718Y156534D01*
X955801Y156611D01*
X955881Y156691D01*
X955958Y156774D01*
X956033Y156860D01*
X956104Y156948D01*
X956172Y157038D01*
X956237Y157131D01*
X956299Y157226D01*
X956357Y157323D01*
X956412Y157422D01*
X956463Y157523D01*
X956511Y157626D01*
X956556Y157730D01*
X956596Y157836D01*
X956633Y157943D01*
X956666Y158051D01*
X956696Y158161D01*
X956721Y158271D01*
X956743Y158382D01*
X956760Y158494D01*
X956774Y158607D01*
X956784Y158720D01*
X956790Y158833D01*
X956792Y158946D01*
X956790Y159059D01*
X956784Y159172D01*
X956774Y159285D01*
X956760Y159398D01*
X956743Y159510D01*
X956721Y159621D01*
X956696Y159731D01*
X956666Y159841D01*
X956633Y159949D01*
X956596Y160056D01*
X956556Y160162D01*
X956511Y160266D01*
X956463Y160369D01*
X956412Y160470D01*
X956357Y160569D01*
X956299Y160666D01*
X956237Y160761D01*
X956172Y160854D01*
X956104Y160944D01*
X956033Y161032D01*
X955958Y161118D01*
X955881Y161201D01*
X955801Y161281D01*
X955718Y161358D01*
X955632Y161433D01*
X955544Y161504D01*
X955454Y161572D01*
X955361Y161637D01*
X955266Y161699D01*
X955169Y161757D01*
X955070Y161812D01*
X954969Y161863D01*
X954866Y161911D01*
X954762Y161956D01*
X954656Y161996D01*
X954549Y162033D01*
X954441Y162066D01*
X954331Y162096D01*
X954221Y162121D01*
X954110Y162143D01*
X953998Y162160D01*
X953885Y162174D01*
X953772Y162184D01*
X953659Y162190D01*
X953546Y162192D01*
X950301Y162192D01*
X950158Y162190D01*
X950015Y162184D01*
X949872Y162174D01*
X949730Y162160D01*
X949588Y162143D01*
X949446Y162121D01*
X949305Y162096D01*
X949165Y162066D01*
X949026Y162033D01*
X948888Y161996D01*
X948751Y161955D01*
X948615Y161911D01*
X948480Y161862D01*
X948347Y161810D01*
X948215Y161755D01*
X948085Y161695D01*
X947956Y161632D01*
X947829Y161566D01*
X947705Y161496D01*
X947582Y161423D01*
X947461Y161346D01*
X947342Y161266D01*
X947226Y161183D01*
X947111Y161097D01*
X947000Y161008D01*
X946890Y160915D01*
X946784Y160820D01*
X946680Y160721D01*
X946579Y160620D01*
X946480Y160516D01*
X946385Y160410D01*
X946292Y160300D01*
X946203Y160189D01*
X946117Y160074D01*
X946034Y159958D01*
X945954Y159839D01*
X945877Y159718D01*
X945804Y159596D01*
X945734Y159471D01*
X945668Y159344D01*
X945605Y159215D01*
X945545Y159085D01*
X945490Y158953D01*
X945438Y158820D01*
X945389Y158685D01*
X945345Y158549D01*
X945304Y158412D01*
X945267Y158274D01*
X945234Y158135D01*
X945204Y157995D01*
X945179Y157854D01*
X945157Y157712D01*
X945140Y157570D01*
X945126Y157428D01*
X945116Y157285D01*
X945110Y157142D01*
X945108Y156999D01*
X983208Y187808D02*
X994892Y187808D01*
X994892Y191054D01*
X994890Y191167D01*
X994884Y191280D01*
X994874Y191393D01*
X994860Y191506D01*
X994843Y191618D01*
X994821Y191729D01*
X994796Y191839D01*
X994766Y191949D01*
X994733Y192057D01*
X994696Y192164D01*
X994656Y192270D01*
X994611Y192374D01*
X994563Y192477D01*
X994512Y192578D01*
X994457Y192677D01*
X994399Y192774D01*
X994337Y192869D01*
X994272Y192962D01*
X994204Y193052D01*
X994133Y193140D01*
X994058Y193226D01*
X993981Y193309D01*
X993901Y193389D01*
X993818Y193466D01*
X993732Y193541D01*
X993644Y193612D01*
X993554Y193680D01*
X993461Y193745D01*
X993366Y193807D01*
X993269Y193865D01*
X993170Y193920D01*
X993069Y193971D01*
X992966Y194019D01*
X992862Y194064D01*
X992756Y194104D01*
X992649Y194141D01*
X992541Y194174D01*
X992431Y194204D01*
X992321Y194229D01*
X992210Y194251D01*
X992098Y194268D01*
X991985Y194282D01*
X991872Y194292D01*
X991759Y194298D01*
X991646Y194300D01*
X991533Y194298D01*
X991420Y194292D01*
X991307Y194282D01*
X991194Y194268D01*
X991082Y194251D01*
X990971Y194229D01*
X990861Y194204D01*
X990751Y194174D01*
X990643Y194141D01*
X990536Y194104D01*
X990430Y194064D01*
X990326Y194019D01*
X990223Y193971D01*
X990122Y193920D01*
X990023Y193865D01*
X989926Y193807D01*
X989831Y193745D01*
X989738Y193680D01*
X989648Y193612D01*
X989560Y193541D01*
X989474Y193466D01*
X989391Y193389D01*
X989311Y193309D01*
X989234Y193226D01*
X989159Y193140D01*
X989088Y193052D01*
X989020Y192962D01*
X988955Y192869D01*
X988893Y192774D01*
X988835Y192677D01*
X988780Y192578D01*
X988729Y192477D01*
X988681Y192374D01*
X988636Y192270D01*
X988596Y192164D01*
X988559Y192057D01*
X988526Y191949D01*
X988496Y191839D01*
X988471Y191729D01*
X988449Y191618D01*
X988432Y191506D01*
X988418Y191393D01*
X988408Y191280D01*
X988402Y191167D01*
X988400Y191054D01*
X988401Y191054D02*
X988401Y187808D01*
X988401Y191703D02*
X983208Y194299D01*
X988401Y201761D02*
X988401Y205655D01*
X988401Y201761D02*
X988403Y201662D01*
X988409Y201562D01*
X988418Y201463D01*
X988431Y201365D01*
X988448Y201267D01*
X988469Y201169D01*
X988494Y201073D01*
X988522Y200978D01*
X988554Y200884D01*
X988589Y200791D01*
X988628Y200699D01*
X988671Y200609D01*
X988716Y200521D01*
X988766Y200434D01*
X988818Y200350D01*
X988874Y200267D01*
X988932Y200187D01*
X988994Y200109D01*
X989059Y200034D01*
X989127Y199961D01*
X989197Y199891D01*
X989270Y199823D01*
X989345Y199758D01*
X989423Y199696D01*
X989503Y199638D01*
X989586Y199582D01*
X989670Y199530D01*
X989757Y199480D01*
X989845Y199435D01*
X989935Y199392D01*
X990027Y199353D01*
X990120Y199318D01*
X990214Y199286D01*
X990309Y199258D01*
X990405Y199233D01*
X990503Y199212D01*
X990601Y199195D01*
X990699Y199182D01*
X990798Y199173D01*
X990898Y199167D01*
X990997Y199165D01*
X990997Y199164D02*
X991646Y199164D01*
X991759Y199166D01*
X991872Y199172D01*
X991985Y199182D01*
X992098Y199196D01*
X992210Y199213D01*
X992321Y199235D01*
X992431Y199260D01*
X992541Y199290D01*
X992649Y199323D01*
X992756Y199360D01*
X992862Y199400D01*
X992966Y199445D01*
X993069Y199493D01*
X993170Y199544D01*
X993269Y199599D01*
X993366Y199657D01*
X993461Y199719D01*
X993554Y199784D01*
X993644Y199852D01*
X993732Y199923D01*
X993818Y199998D01*
X993901Y200075D01*
X993981Y200155D01*
X994058Y200238D01*
X994133Y200324D01*
X994204Y200412D01*
X994272Y200502D01*
X994337Y200595D01*
X994399Y200690D01*
X994457Y200787D01*
X994512Y200886D01*
X994563Y200987D01*
X994611Y201090D01*
X994656Y201194D01*
X994696Y201300D01*
X994733Y201407D01*
X994766Y201515D01*
X994796Y201625D01*
X994821Y201735D01*
X994843Y201846D01*
X994860Y201958D01*
X994874Y202071D01*
X994884Y202184D01*
X994890Y202297D01*
X994892Y202410D01*
X994890Y202523D01*
X994884Y202636D01*
X994874Y202749D01*
X994860Y202862D01*
X994843Y202974D01*
X994821Y203085D01*
X994796Y203195D01*
X994766Y203305D01*
X994733Y203413D01*
X994696Y203520D01*
X994656Y203626D01*
X994611Y203730D01*
X994563Y203833D01*
X994512Y203934D01*
X994457Y204033D01*
X994399Y204130D01*
X994337Y204225D01*
X994272Y204318D01*
X994204Y204408D01*
X994133Y204496D01*
X994058Y204582D01*
X993981Y204665D01*
X993901Y204745D01*
X993818Y204822D01*
X993732Y204897D01*
X993644Y204968D01*
X993554Y205036D01*
X993461Y205101D01*
X993366Y205163D01*
X993269Y205221D01*
X993170Y205276D01*
X993069Y205327D01*
X992966Y205375D01*
X992862Y205420D01*
X992756Y205460D01*
X992649Y205497D01*
X992541Y205530D01*
X992431Y205560D01*
X992321Y205585D01*
X992210Y205607D01*
X992098Y205624D01*
X991985Y205638D01*
X991872Y205648D01*
X991759Y205654D01*
X991646Y205656D01*
X991646Y205655D02*
X988401Y205655D01*
X988401Y205656D02*
X988258Y205654D01*
X988115Y205648D01*
X987972Y205638D01*
X987830Y205624D01*
X987688Y205607D01*
X987546Y205585D01*
X987405Y205560D01*
X987265Y205530D01*
X987126Y205497D01*
X986988Y205460D01*
X986851Y205419D01*
X986715Y205375D01*
X986580Y205326D01*
X986447Y205274D01*
X986315Y205219D01*
X986185Y205159D01*
X986056Y205096D01*
X985929Y205030D01*
X985805Y204960D01*
X985682Y204887D01*
X985561Y204810D01*
X985442Y204730D01*
X985326Y204647D01*
X985211Y204561D01*
X985100Y204472D01*
X984990Y204379D01*
X984884Y204284D01*
X984780Y204185D01*
X984679Y204084D01*
X984580Y203980D01*
X984485Y203874D01*
X984392Y203764D01*
X984303Y203653D01*
X984217Y203538D01*
X984134Y203422D01*
X984054Y203303D01*
X983977Y203182D01*
X983904Y203060D01*
X983834Y202935D01*
X983768Y202808D01*
X983705Y202679D01*
X983645Y202549D01*
X983590Y202417D01*
X983538Y202284D01*
X983489Y202149D01*
X983445Y202013D01*
X983404Y201876D01*
X983367Y201738D01*
X983334Y201599D01*
X983304Y201459D01*
X983279Y201318D01*
X983257Y201176D01*
X983240Y201034D01*
X983226Y200892D01*
X983216Y200749D01*
X983210Y200606D01*
X983208Y200463D01*
D11*
X23125Y144375D03*
X36875Y144375D03*
D12*
X30000Y148250D03*
D14*
X16792Y112671D02*
X5108Y112671D01*
X5108Y117863D01*
X5108Y122577D02*
X5108Y127769D01*
X5108Y122577D02*
X16792Y122577D01*
X16792Y127769D01*
X11599Y126471D02*
X11599Y122577D01*
X16792Y132460D02*
X5108Y132460D01*
X16792Y132460D02*
X16792Y135706D01*
X16790Y135819D01*
X16784Y135932D01*
X16774Y136045D01*
X16760Y136158D01*
X16743Y136270D01*
X16721Y136381D01*
X16696Y136491D01*
X16666Y136601D01*
X16633Y136709D01*
X16596Y136816D01*
X16556Y136922D01*
X16511Y137026D01*
X16463Y137129D01*
X16412Y137230D01*
X16357Y137329D01*
X16299Y137426D01*
X16237Y137521D01*
X16172Y137614D01*
X16104Y137704D01*
X16033Y137792D01*
X15958Y137878D01*
X15881Y137961D01*
X15801Y138041D01*
X15718Y138118D01*
X15632Y138193D01*
X15544Y138264D01*
X15454Y138332D01*
X15361Y138397D01*
X15266Y138459D01*
X15169Y138517D01*
X15070Y138572D01*
X14969Y138623D01*
X14866Y138671D01*
X14762Y138716D01*
X14656Y138756D01*
X14549Y138793D01*
X14441Y138826D01*
X14331Y138856D01*
X14221Y138881D01*
X14110Y138903D01*
X13998Y138920D01*
X13885Y138934D01*
X13772Y138944D01*
X13659Y138950D01*
X13546Y138952D01*
X13546Y138951D02*
X8354Y138951D01*
X8354Y138952D02*
X8241Y138950D01*
X8128Y138944D01*
X8015Y138934D01*
X7902Y138920D01*
X7790Y138903D01*
X7679Y138881D01*
X7569Y138856D01*
X7459Y138826D01*
X7351Y138793D01*
X7244Y138756D01*
X7138Y138716D01*
X7034Y138671D01*
X6931Y138623D01*
X6830Y138572D01*
X6731Y138517D01*
X6634Y138459D01*
X6539Y138397D01*
X6446Y138332D01*
X6356Y138264D01*
X6268Y138193D01*
X6182Y138118D01*
X6099Y138041D01*
X6019Y137961D01*
X5942Y137878D01*
X5867Y137792D01*
X5796Y137704D01*
X5728Y137614D01*
X5663Y137521D01*
X5601Y137426D01*
X5543Y137329D01*
X5488Y137230D01*
X5437Y137129D01*
X5389Y137026D01*
X5344Y136922D01*
X5304Y136816D01*
X5267Y136709D01*
X5234Y136601D01*
X5204Y136491D01*
X5179Y136381D01*
X5157Y136270D01*
X5140Y136158D01*
X5126Y136045D01*
X5116Y135932D01*
X5110Y135819D01*
X5108Y135706D01*
X5108Y132460D01*
X14196Y144271D02*
X16792Y147516D01*
X5108Y147516D01*
X5108Y144271D02*
X5108Y150762D01*
X10950Y155701D02*
X11180Y155704D01*
X11410Y155712D01*
X11639Y155726D01*
X11868Y155745D01*
X12097Y155770D01*
X12324Y155800D01*
X12552Y155835D01*
X12778Y155876D01*
X13003Y155922D01*
X13227Y155974D01*
X13449Y156031D01*
X13671Y156093D01*
X13890Y156161D01*
X14108Y156234D01*
X14325Y156312D01*
X14539Y156395D01*
X14751Y156483D01*
X14961Y156576D01*
X15169Y156675D01*
X15169Y156674D02*
X15259Y156707D01*
X15348Y156743D01*
X15436Y156783D01*
X15521Y156827D01*
X15605Y156874D01*
X15687Y156924D01*
X15767Y156978D01*
X15844Y157034D01*
X15920Y157094D01*
X15993Y157157D01*
X16063Y157222D01*
X16131Y157291D01*
X16195Y157362D01*
X16257Y157435D01*
X16316Y157511D01*
X16372Y157589D01*
X16425Y157670D01*
X16474Y157752D01*
X16520Y157836D01*
X16563Y157923D01*
X16602Y158010D01*
X16638Y158100D01*
X16670Y158190D01*
X16698Y158282D01*
X16723Y158375D01*
X16744Y158469D01*
X16761Y158563D01*
X16775Y158658D01*
X16784Y158754D01*
X16790Y158850D01*
X16792Y158946D01*
X16790Y159042D01*
X16784Y159138D01*
X16775Y159234D01*
X16761Y159329D01*
X16744Y159423D01*
X16723Y159517D01*
X16698Y159610D01*
X16670Y159702D01*
X16638Y159792D01*
X16602Y159882D01*
X16563Y159969D01*
X16520Y160056D01*
X16474Y160140D01*
X16425Y160222D01*
X16372Y160303D01*
X16316Y160381D01*
X16257Y160457D01*
X16195Y160530D01*
X16131Y160601D01*
X16063Y160670D01*
X15993Y160735D01*
X15920Y160798D01*
X15844Y160858D01*
X15767Y160914D01*
X15687Y160968D01*
X15605Y161018D01*
X15521Y161065D01*
X15436Y161109D01*
X15348Y161149D01*
X15259Y161185D01*
X15169Y161218D01*
X15169Y161219D02*
X14962Y161318D01*
X14752Y161411D01*
X14539Y161499D01*
X14325Y161582D01*
X14109Y161660D01*
X13891Y161733D01*
X13671Y161801D01*
X13450Y161863D01*
X13227Y161920D01*
X13003Y161972D01*
X12778Y162018D01*
X12552Y162059D01*
X12325Y162094D01*
X12097Y162124D01*
X11868Y162149D01*
X11639Y162168D01*
X11410Y162182D01*
X11180Y162190D01*
X10950Y162193D01*
X10950Y155701D02*
X10720Y155704D01*
X10490Y155712D01*
X10261Y155726D01*
X10032Y155745D01*
X9803Y155770D01*
X9575Y155800D01*
X9348Y155835D01*
X9122Y155876D01*
X8897Y155922D01*
X8673Y155974D01*
X8450Y156031D01*
X8229Y156093D01*
X8009Y156161D01*
X7791Y156234D01*
X7575Y156312D01*
X7361Y156395D01*
X7149Y156483D01*
X6938Y156576D01*
X6731Y156675D01*
X6731Y156674D02*
X6641Y156707D01*
X6552Y156743D01*
X6464Y156784D01*
X6379Y156827D01*
X6295Y156874D01*
X6213Y156924D01*
X6133Y156978D01*
X6056Y157034D01*
X5980Y157094D01*
X5907Y157157D01*
X5837Y157222D01*
X5769Y157291D01*
X5705Y157362D01*
X5643Y157435D01*
X5584Y157511D01*
X5528Y157589D01*
X5475Y157670D01*
X5426Y157752D01*
X5380Y157836D01*
X5337Y157923D01*
X5298Y158010D01*
X5262Y158100D01*
X5230Y158190D01*
X5202Y158282D01*
X5177Y158375D01*
X5156Y158469D01*
X5139Y158563D01*
X5125Y158658D01*
X5116Y158754D01*
X5110Y158850D01*
X5108Y158946D01*
X6731Y161218D02*
X6938Y161317D01*
X7149Y161410D01*
X7361Y161498D01*
X7575Y161581D01*
X7791Y161659D01*
X8009Y161732D01*
X8229Y161800D01*
X8450Y161862D01*
X8673Y161919D01*
X8897Y161971D01*
X9122Y162017D01*
X9348Y162058D01*
X9575Y162093D01*
X9803Y162123D01*
X10032Y162148D01*
X10261Y162167D01*
X10490Y162181D01*
X10720Y162189D01*
X10950Y162192D01*
X6731Y161218D02*
X6641Y161185D01*
X6552Y161149D01*
X6464Y161109D01*
X6379Y161065D01*
X6295Y161018D01*
X6213Y160968D01*
X6133Y160914D01*
X6056Y160858D01*
X5980Y160798D01*
X5907Y160735D01*
X5837Y160670D01*
X5769Y160601D01*
X5705Y160530D01*
X5643Y160457D01*
X5584Y160381D01*
X5528Y160303D01*
X5475Y160222D01*
X5426Y160140D01*
X5380Y160056D01*
X5337Y159969D01*
X5298Y159882D01*
X5262Y159792D01*
X5230Y159702D01*
X5202Y159610D01*
X5177Y159517D01*
X5156Y159423D01*
X5139Y159329D01*
X5125Y159234D01*
X5116Y159138D01*
X5110Y159042D01*
X5108Y158946D01*
X7704Y156350D02*
X14196Y161543D01*
X43208Y187808D02*
X54892Y187808D01*
X54892Y191054D01*
X54890Y191167D01*
X54884Y191280D01*
X54874Y191393D01*
X54860Y191506D01*
X54843Y191618D01*
X54821Y191729D01*
X54796Y191839D01*
X54766Y191949D01*
X54733Y192057D01*
X54696Y192164D01*
X54656Y192270D01*
X54611Y192374D01*
X54563Y192477D01*
X54512Y192578D01*
X54457Y192677D01*
X54399Y192774D01*
X54337Y192869D01*
X54272Y192962D01*
X54204Y193052D01*
X54133Y193140D01*
X54058Y193226D01*
X53981Y193309D01*
X53901Y193389D01*
X53818Y193466D01*
X53732Y193541D01*
X53644Y193612D01*
X53554Y193680D01*
X53461Y193745D01*
X53366Y193807D01*
X53269Y193865D01*
X53170Y193920D01*
X53069Y193971D01*
X52966Y194019D01*
X52862Y194064D01*
X52756Y194104D01*
X52649Y194141D01*
X52541Y194174D01*
X52431Y194204D01*
X52321Y194229D01*
X52210Y194251D01*
X52098Y194268D01*
X51985Y194282D01*
X51872Y194292D01*
X51759Y194298D01*
X51646Y194300D01*
X51533Y194298D01*
X51420Y194292D01*
X51307Y194282D01*
X51194Y194268D01*
X51082Y194251D01*
X50971Y194229D01*
X50861Y194204D01*
X50751Y194174D01*
X50643Y194141D01*
X50536Y194104D01*
X50430Y194064D01*
X50326Y194019D01*
X50223Y193971D01*
X50122Y193920D01*
X50023Y193865D01*
X49926Y193807D01*
X49831Y193745D01*
X49738Y193680D01*
X49648Y193612D01*
X49560Y193541D01*
X49474Y193466D01*
X49391Y193389D01*
X49311Y193309D01*
X49234Y193226D01*
X49159Y193140D01*
X49088Y193052D01*
X49020Y192962D01*
X48955Y192869D01*
X48893Y192774D01*
X48835Y192677D01*
X48780Y192578D01*
X48729Y192477D01*
X48681Y192374D01*
X48636Y192270D01*
X48596Y192164D01*
X48559Y192057D01*
X48526Y191949D01*
X48496Y191839D01*
X48471Y191729D01*
X48449Y191618D01*
X48432Y191506D01*
X48418Y191393D01*
X48408Y191280D01*
X48402Y191167D01*
X48400Y191054D01*
X48401Y191054D02*
X48401Y187808D01*
X48401Y191703D02*
X43208Y194299D01*
X43208Y199164D02*
X43208Y202410D01*
X43210Y202523D01*
X43216Y202636D01*
X43226Y202749D01*
X43240Y202862D01*
X43257Y202974D01*
X43279Y203085D01*
X43304Y203195D01*
X43334Y203305D01*
X43367Y203413D01*
X43404Y203520D01*
X43444Y203626D01*
X43489Y203730D01*
X43537Y203833D01*
X43588Y203934D01*
X43643Y204033D01*
X43701Y204130D01*
X43763Y204225D01*
X43828Y204318D01*
X43896Y204408D01*
X43967Y204496D01*
X44042Y204582D01*
X44119Y204665D01*
X44199Y204745D01*
X44282Y204822D01*
X44368Y204897D01*
X44456Y204968D01*
X44546Y205036D01*
X44639Y205101D01*
X44734Y205163D01*
X44831Y205221D01*
X44930Y205276D01*
X45031Y205327D01*
X45134Y205375D01*
X45238Y205420D01*
X45344Y205460D01*
X45451Y205497D01*
X45559Y205530D01*
X45669Y205560D01*
X45779Y205585D01*
X45890Y205607D01*
X46002Y205624D01*
X46115Y205638D01*
X46228Y205648D01*
X46341Y205654D01*
X46454Y205656D01*
X46567Y205654D01*
X46680Y205648D01*
X46793Y205638D01*
X46906Y205624D01*
X47018Y205607D01*
X47129Y205585D01*
X47239Y205560D01*
X47349Y205530D01*
X47457Y205497D01*
X47564Y205460D01*
X47670Y205420D01*
X47774Y205375D01*
X47877Y205327D01*
X47978Y205276D01*
X48077Y205221D01*
X48174Y205163D01*
X48269Y205101D01*
X48362Y205036D01*
X48452Y204968D01*
X48540Y204897D01*
X48626Y204822D01*
X48709Y204745D01*
X48789Y204665D01*
X48866Y204582D01*
X48941Y204496D01*
X49012Y204408D01*
X49080Y204318D01*
X49145Y204225D01*
X49207Y204130D01*
X49265Y204033D01*
X49320Y203934D01*
X49371Y203833D01*
X49419Y203730D01*
X49464Y203626D01*
X49504Y203520D01*
X49541Y203413D01*
X49574Y203305D01*
X49604Y203195D01*
X49629Y203085D01*
X49651Y202974D01*
X49668Y202862D01*
X49682Y202749D01*
X49692Y202636D01*
X49698Y202523D01*
X49700Y202410D01*
X54892Y203059D02*
X54892Y199164D01*
X54892Y203059D02*
X54890Y203160D01*
X54884Y203260D01*
X54874Y203360D01*
X54861Y203460D01*
X54843Y203559D01*
X54822Y203658D01*
X54797Y203755D01*
X54768Y203852D01*
X54735Y203947D01*
X54699Y204041D01*
X54659Y204133D01*
X54616Y204224D01*
X54569Y204313D01*
X54519Y204400D01*
X54465Y204486D01*
X54408Y204569D01*
X54348Y204649D01*
X54285Y204728D01*
X54218Y204804D01*
X54149Y204877D01*
X54077Y204947D01*
X54003Y205015D01*
X53926Y205080D01*
X53846Y205141D01*
X53764Y205200D01*
X53680Y205255D01*
X53594Y205307D01*
X53506Y205356D01*
X53416Y205401D01*
X53324Y205443D01*
X53231Y205481D01*
X53136Y205515D01*
X53041Y205546D01*
X52944Y205573D01*
X52846Y205596D01*
X52747Y205616D01*
X52647Y205631D01*
X52547Y205643D01*
X52447Y205651D01*
X52346Y205655D01*
X52246Y205655D01*
X52145Y205651D01*
X52045Y205643D01*
X51945Y205631D01*
X51845Y205616D01*
X51746Y205596D01*
X51648Y205573D01*
X51551Y205546D01*
X51456Y205515D01*
X51361Y205481D01*
X51268Y205443D01*
X51176Y205401D01*
X51086Y205356D01*
X50998Y205307D01*
X50912Y205255D01*
X50828Y205200D01*
X50746Y205141D01*
X50666Y205080D01*
X50589Y205015D01*
X50515Y204947D01*
X50443Y204877D01*
X50374Y204804D01*
X50307Y204728D01*
X50244Y204649D01*
X50184Y204569D01*
X50127Y204486D01*
X50073Y204400D01*
X50023Y204313D01*
X49976Y204224D01*
X49933Y204133D01*
X49893Y204041D01*
X49857Y203947D01*
X49824Y203852D01*
X49795Y203755D01*
X49770Y203658D01*
X49749Y203559D01*
X49731Y203460D01*
X49718Y203360D01*
X49708Y203260D01*
X49702Y203160D01*
X49700Y203059D01*
X49699Y203059D02*
X49699Y200463D01*
X46454Y210594D02*
X46567Y210596D01*
X46680Y210602D01*
X46793Y210612D01*
X46906Y210626D01*
X47018Y210643D01*
X47129Y210665D01*
X47239Y210690D01*
X47349Y210720D01*
X47457Y210753D01*
X47564Y210790D01*
X47670Y210830D01*
X47774Y210875D01*
X47877Y210923D01*
X47978Y210974D01*
X48077Y211029D01*
X48174Y211087D01*
X48269Y211149D01*
X48362Y211214D01*
X48452Y211282D01*
X48540Y211353D01*
X48626Y211428D01*
X48709Y211505D01*
X48789Y211585D01*
X48866Y211668D01*
X48941Y211754D01*
X49012Y211842D01*
X49080Y211932D01*
X49145Y212025D01*
X49207Y212120D01*
X49265Y212217D01*
X49320Y212316D01*
X49371Y212417D01*
X49419Y212520D01*
X49464Y212624D01*
X49504Y212730D01*
X49541Y212837D01*
X49574Y212945D01*
X49604Y213055D01*
X49629Y213165D01*
X49651Y213276D01*
X49668Y213388D01*
X49682Y213501D01*
X49692Y213614D01*
X49698Y213727D01*
X49700Y213840D01*
X49698Y213953D01*
X49692Y214066D01*
X49682Y214179D01*
X49668Y214292D01*
X49651Y214404D01*
X49629Y214515D01*
X49604Y214625D01*
X49574Y214735D01*
X49541Y214843D01*
X49504Y214950D01*
X49464Y215056D01*
X49419Y215160D01*
X49371Y215263D01*
X49320Y215364D01*
X49265Y215463D01*
X49207Y215560D01*
X49145Y215655D01*
X49080Y215748D01*
X49012Y215838D01*
X48941Y215926D01*
X48866Y216012D01*
X48789Y216095D01*
X48709Y216175D01*
X48626Y216252D01*
X48540Y216327D01*
X48452Y216398D01*
X48362Y216466D01*
X48269Y216531D01*
X48174Y216593D01*
X48077Y216651D01*
X47978Y216706D01*
X47877Y216757D01*
X47774Y216805D01*
X47670Y216850D01*
X47564Y216890D01*
X47457Y216927D01*
X47349Y216960D01*
X47239Y216990D01*
X47129Y217015D01*
X47018Y217037D01*
X46906Y217054D01*
X46793Y217068D01*
X46680Y217078D01*
X46567Y217084D01*
X46454Y217086D01*
X46341Y217084D01*
X46228Y217078D01*
X46115Y217068D01*
X46002Y217054D01*
X45890Y217037D01*
X45779Y217015D01*
X45669Y216990D01*
X45559Y216960D01*
X45451Y216927D01*
X45344Y216890D01*
X45238Y216850D01*
X45134Y216805D01*
X45031Y216757D01*
X44930Y216706D01*
X44831Y216651D01*
X44734Y216593D01*
X44639Y216531D01*
X44546Y216466D01*
X44456Y216398D01*
X44368Y216327D01*
X44282Y216252D01*
X44199Y216175D01*
X44119Y216095D01*
X44042Y216012D01*
X43967Y215926D01*
X43896Y215838D01*
X43828Y215748D01*
X43763Y215655D01*
X43701Y215560D01*
X43643Y215463D01*
X43588Y215364D01*
X43537Y215263D01*
X43489Y215160D01*
X43444Y215056D01*
X43404Y214950D01*
X43367Y214843D01*
X43334Y214735D01*
X43304Y214625D01*
X43279Y214515D01*
X43257Y214404D01*
X43240Y214292D01*
X43226Y214179D01*
X43216Y214066D01*
X43210Y213953D01*
X43208Y213840D01*
X43210Y213727D01*
X43216Y213614D01*
X43226Y213501D01*
X43240Y213388D01*
X43257Y213276D01*
X43279Y213165D01*
X43304Y213055D01*
X43334Y212945D01*
X43367Y212837D01*
X43404Y212730D01*
X43444Y212624D01*
X43489Y212520D01*
X43537Y212417D01*
X43588Y212316D01*
X43643Y212217D01*
X43701Y212120D01*
X43763Y212025D01*
X43828Y211932D01*
X43896Y211842D01*
X43967Y211754D01*
X44042Y211668D01*
X44119Y211585D01*
X44199Y211505D01*
X44282Y211428D01*
X44368Y211353D01*
X44456Y211282D01*
X44546Y211214D01*
X44639Y211149D01*
X44734Y211087D01*
X44831Y211029D01*
X44930Y210974D01*
X45031Y210923D01*
X45134Y210875D01*
X45238Y210830D01*
X45344Y210790D01*
X45451Y210753D01*
X45559Y210720D01*
X45669Y210690D01*
X45779Y210665D01*
X45890Y210643D01*
X46002Y210626D01*
X46115Y210612D01*
X46228Y210602D01*
X46341Y210596D01*
X46454Y210594D01*
X52296Y211244D02*
X52397Y211246D01*
X52497Y211252D01*
X52597Y211262D01*
X52697Y211275D01*
X52796Y211293D01*
X52895Y211314D01*
X52992Y211339D01*
X53089Y211368D01*
X53184Y211401D01*
X53278Y211437D01*
X53370Y211477D01*
X53461Y211520D01*
X53550Y211567D01*
X53637Y211617D01*
X53723Y211671D01*
X53806Y211728D01*
X53886Y211788D01*
X53965Y211851D01*
X54041Y211918D01*
X54114Y211987D01*
X54184Y212059D01*
X54252Y212133D01*
X54317Y212210D01*
X54378Y212290D01*
X54437Y212372D01*
X54492Y212456D01*
X54544Y212542D01*
X54593Y212630D01*
X54638Y212720D01*
X54680Y212812D01*
X54718Y212905D01*
X54752Y213000D01*
X54783Y213095D01*
X54810Y213192D01*
X54833Y213290D01*
X54853Y213389D01*
X54868Y213489D01*
X54880Y213589D01*
X54888Y213689D01*
X54892Y213790D01*
X54892Y213890D01*
X54888Y213991D01*
X54880Y214091D01*
X54868Y214191D01*
X54853Y214291D01*
X54833Y214390D01*
X54810Y214488D01*
X54783Y214585D01*
X54752Y214680D01*
X54718Y214775D01*
X54680Y214868D01*
X54638Y214960D01*
X54593Y215050D01*
X54544Y215138D01*
X54492Y215224D01*
X54437Y215308D01*
X54378Y215390D01*
X54317Y215470D01*
X54252Y215547D01*
X54184Y215621D01*
X54114Y215693D01*
X54041Y215762D01*
X53965Y215829D01*
X53886Y215892D01*
X53806Y215952D01*
X53723Y216009D01*
X53637Y216063D01*
X53550Y216113D01*
X53461Y216160D01*
X53370Y216203D01*
X53278Y216243D01*
X53184Y216279D01*
X53089Y216312D01*
X52992Y216341D01*
X52895Y216366D01*
X52796Y216387D01*
X52697Y216405D01*
X52597Y216418D01*
X52497Y216428D01*
X52397Y216434D01*
X52296Y216436D01*
X52195Y216434D01*
X52095Y216428D01*
X51995Y216418D01*
X51895Y216405D01*
X51796Y216387D01*
X51697Y216366D01*
X51600Y216341D01*
X51503Y216312D01*
X51408Y216279D01*
X51314Y216243D01*
X51222Y216203D01*
X51131Y216160D01*
X51042Y216113D01*
X50955Y216063D01*
X50869Y216009D01*
X50786Y215952D01*
X50706Y215892D01*
X50627Y215829D01*
X50551Y215762D01*
X50478Y215693D01*
X50408Y215621D01*
X50340Y215547D01*
X50275Y215470D01*
X50214Y215390D01*
X50155Y215308D01*
X50100Y215224D01*
X50048Y215138D01*
X49999Y215050D01*
X49954Y214960D01*
X49912Y214868D01*
X49874Y214775D01*
X49840Y214680D01*
X49809Y214585D01*
X49782Y214488D01*
X49759Y214390D01*
X49739Y214291D01*
X49724Y214191D01*
X49712Y214091D01*
X49704Y213991D01*
X49700Y213890D01*
X49700Y213790D01*
X49704Y213689D01*
X49712Y213589D01*
X49724Y213489D01*
X49739Y213389D01*
X49759Y213290D01*
X49782Y213192D01*
X49809Y213095D01*
X49840Y213000D01*
X49874Y212905D01*
X49912Y212812D01*
X49954Y212720D01*
X49999Y212630D01*
X50048Y212542D01*
X50100Y212456D01*
X50155Y212372D01*
X50214Y212290D01*
X50275Y212210D01*
X50340Y212133D01*
X50408Y212059D01*
X50478Y211987D01*
X50551Y211918D01*
X50627Y211851D01*
X50706Y211788D01*
X50786Y211728D01*
X50869Y211671D01*
X50955Y211617D01*
X51042Y211567D01*
X51131Y211520D01*
X51222Y211477D01*
X51314Y211437D01*
X51408Y211401D01*
X51503Y211368D01*
X51600Y211339D01*
X51697Y211314D01*
X51796Y211293D01*
X51895Y211275D01*
X51995Y211262D01*
X52095Y211252D01*
X52195Y211246D01*
X52296Y211244D01*
X697536Y257968D02*
X697536Y269652D01*
X694290Y269652D01*
X694177Y269650D01*
X694064Y269644D01*
X693951Y269634D01*
X693838Y269620D01*
X693726Y269603D01*
X693615Y269581D01*
X693505Y269556D01*
X693395Y269526D01*
X693287Y269493D01*
X693180Y269456D01*
X693074Y269416D01*
X692970Y269371D01*
X692867Y269323D01*
X692766Y269272D01*
X692667Y269217D01*
X692570Y269159D01*
X692475Y269097D01*
X692382Y269032D01*
X692292Y268964D01*
X692204Y268893D01*
X692118Y268818D01*
X692035Y268741D01*
X691955Y268661D01*
X691878Y268578D01*
X691803Y268492D01*
X691732Y268404D01*
X691664Y268314D01*
X691599Y268221D01*
X691537Y268126D01*
X691479Y268029D01*
X691424Y267930D01*
X691373Y267829D01*
X691325Y267726D01*
X691280Y267622D01*
X691240Y267516D01*
X691203Y267409D01*
X691170Y267301D01*
X691140Y267191D01*
X691115Y267081D01*
X691093Y266970D01*
X691076Y266858D01*
X691062Y266745D01*
X691052Y266632D01*
X691046Y266519D01*
X691044Y266406D01*
X691046Y266293D01*
X691052Y266180D01*
X691062Y266067D01*
X691076Y265954D01*
X691093Y265842D01*
X691115Y265731D01*
X691140Y265621D01*
X691170Y265511D01*
X691203Y265403D01*
X691240Y265296D01*
X691280Y265190D01*
X691325Y265086D01*
X691373Y264983D01*
X691424Y264882D01*
X691479Y264783D01*
X691537Y264686D01*
X691599Y264591D01*
X691664Y264498D01*
X691732Y264408D01*
X691803Y264320D01*
X691878Y264234D01*
X691955Y264151D01*
X692035Y264071D01*
X692118Y263994D01*
X692204Y263919D01*
X692292Y263848D01*
X692382Y263780D01*
X692475Y263715D01*
X692570Y263653D01*
X692667Y263595D01*
X692766Y263540D01*
X692867Y263489D01*
X692970Y263441D01*
X693074Y263396D01*
X693180Y263356D01*
X693287Y263319D01*
X693395Y263286D01*
X693505Y263256D01*
X693615Y263231D01*
X693726Y263209D01*
X693838Y263192D01*
X693951Y263178D01*
X694064Y263168D01*
X694177Y263162D01*
X694290Y263160D01*
X694290Y263161D02*
X697536Y263161D01*
X693641Y263161D02*
X691045Y257968D01*
X686180Y257968D02*
X682934Y257968D01*
X682821Y257970D01*
X682708Y257976D01*
X682595Y257986D01*
X682482Y258000D01*
X682370Y258017D01*
X682259Y258039D01*
X682149Y258064D01*
X682039Y258094D01*
X681931Y258127D01*
X681824Y258164D01*
X681718Y258204D01*
X681614Y258249D01*
X681511Y258297D01*
X681410Y258348D01*
X681311Y258403D01*
X681214Y258461D01*
X681119Y258523D01*
X681026Y258588D01*
X680936Y258656D01*
X680848Y258727D01*
X680762Y258802D01*
X680679Y258879D01*
X680599Y258959D01*
X680522Y259042D01*
X680447Y259128D01*
X680376Y259216D01*
X680308Y259306D01*
X680243Y259399D01*
X680181Y259494D01*
X680123Y259591D01*
X680068Y259690D01*
X680017Y259791D01*
X679969Y259894D01*
X679924Y259998D01*
X679884Y260104D01*
X679847Y260211D01*
X679814Y260319D01*
X679784Y260429D01*
X679759Y260539D01*
X679737Y260650D01*
X679720Y260762D01*
X679706Y260875D01*
X679696Y260988D01*
X679690Y261101D01*
X679688Y261214D01*
X679690Y261327D01*
X679696Y261440D01*
X679706Y261553D01*
X679720Y261666D01*
X679737Y261778D01*
X679759Y261889D01*
X679784Y261999D01*
X679814Y262109D01*
X679847Y262217D01*
X679884Y262324D01*
X679924Y262430D01*
X679969Y262534D01*
X680017Y262637D01*
X680068Y262738D01*
X680123Y262837D01*
X680181Y262934D01*
X680243Y263029D01*
X680308Y263122D01*
X680376Y263212D01*
X680447Y263300D01*
X680522Y263386D01*
X680599Y263469D01*
X680679Y263549D01*
X680762Y263626D01*
X680848Y263701D01*
X680936Y263772D01*
X681026Y263840D01*
X681119Y263905D01*
X681214Y263967D01*
X681311Y264025D01*
X681410Y264080D01*
X681511Y264131D01*
X681614Y264179D01*
X681718Y264224D01*
X681824Y264264D01*
X681931Y264301D01*
X682039Y264334D01*
X682149Y264364D01*
X682259Y264389D01*
X682370Y264411D01*
X682482Y264428D01*
X682595Y264442D01*
X682708Y264452D01*
X682821Y264458D01*
X682934Y264460D01*
X682285Y269652D02*
X686180Y269652D01*
X682285Y269652D02*
X682184Y269650D01*
X682084Y269644D01*
X681984Y269634D01*
X681884Y269621D01*
X681785Y269603D01*
X681686Y269582D01*
X681589Y269557D01*
X681492Y269528D01*
X681397Y269495D01*
X681303Y269459D01*
X681211Y269419D01*
X681120Y269376D01*
X681031Y269329D01*
X680944Y269279D01*
X680858Y269225D01*
X680775Y269168D01*
X680695Y269108D01*
X680616Y269045D01*
X680540Y268978D01*
X680467Y268909D01*
X680397Y268837D01*
X680329Y268763D01*
X680264Y268686D01*
X680203Y268606D01*
X680144Y268524D01*
X680089Y268440D01*
X680037Y268354D01*
X679988Y268266D01*
X679943Y268176D01*
X679901Y268084D01*
X679863Y267991D01*
X679829Y267896D01*
X679798Y267801D01*
X679771Y267704D01*
X679748Y267606D01*
X679728Y267507D01*
X679713Y267407D01*
X679701Y267307D01*
X679693Y267207D01*
X679689Y267106D01*
X679689Y267006D01*
X679693Y266905D01*
X679701Y266805D01*
X679713Y266705D01*
X679728Y266605D01*
X679748Y266506D01*
X679771Y266408D01*
X679798Y266311D01*
X679829Y266216D01*
X679863Y266121D01*
X679901Y266028D01*
X679943Y265936D01*
X679988Y265846D01*
X680037Y265758D01*
X680089Y265672D01*
X680144Y265588D01*
X680203Y265506D01*
X680264Y265426D01*
X680329Y265349D01*
X680397Y265275D01*
X680467Y265203D01*
X680540Y265134D01*
X680616Y265067D01*
X680695Y265004D01*
X680775Y264944D01*
X680858Y264887D01*
X680944Y264833D01*
X681031Y264783D01*
X681120Y264736D01*
X681211Y264693D01*
X681303Y264653D01*
X681397Y264617D01*
X681492Y264584D01*
X681589Y264555D01*
X681686Y264530D01*
X681785Y264509D01*
X681884Y264491D01*
X681984Y264478D01*
X682084Y264468D01*
X682184Y264462D01*
X682285Y264460D01*
X682285Y264459D02*
X684881Y264459D01*
X672153Y263161D02*
X668259Y263161D01*
X672153Y263161D02*
X672252Y263163D01*
X672352Y263169D01*
X672451Y263178D01*
X672549Y263191D01*
X672647Y263208D01*
X672745Y263229D01*
X672841Y263254D01*
X672936Y263282D01*
X673030Y263314D01*
X673123Y263349D01*
X673215Y263388D01*
X673305Y263431D01*
X673393Y263476D01*
X673480Y263526D01*
X673564Y263578D01*
X673647Y263634D01*
X673727Y263692D01*
X673805Y263754D01*
X673880Y263819D01*
X673953Y263887D01*
X674023Y263957D01*
X674091Y264030D01*
X674156Y264105D01*
X674218Y264183D01*
X674276Y264263D01*
X674332Y264346D01*
X674384Y264430D01*
X674434Y264517D01*
X674479Y264605D01*
X674522Y264695D01*
X674561Y264787D01*
X674596Y264880D01*
X674628Y264974D01*
X674656Y265069D01*
X674681Y265165D01*
X674702Y265263D01*
X674719Y265361D01*
X674732Y265459D01*
X674741Y265558D01*
X674747Y265658D01*
X674749Y265757D01*
X674750Y265757D02*
X674750Y266406D01*
X674748Y266519D01*
X674742Y266632D01*
X674732Y266745D01*
X674718Y266858D01*
X674701Y266970D01*
X674679Y267081D01*
X674654Y267191D01*
X674624Y267301D01*
X674591Y267409D01*
X674554Y267516D01*
X674514Y267622D01*
X674469Y267726D01*
X674421Y267829D01*
X674370Y267930D01*
X674315Y268029D01*
X674257Y268126D01*
X674195Y268221D01*
X674130Y268314D01*
X674062Y268404D01*
X673991Y268492D01*
X673916Y268578D01*
X673839Y268661D01*
X673759Y268741D01*
X673676Y268818D01*
X673590Y268893D01*
X673502Y268964D01*
X673412Y269032D01*
X673319Y269097D01*
X673224Y269159D01*
X673127Y269217D01*
X673028Y269272D01*
X672927Y269323D01*
X672824Y269371D01*
X672720Y269416D01*
X672614Y269456D01*
X672507Y269493D01*
X672399Y269526D01*
X672289Y269556D01*
X672179Y269581D01*
X672068Y269603D01*
X671956Y269620D01*
X671843Y269634D01*
X671730Y269644D01*
X671617Y269650D01*
X671504Y269652D01*
X671391Y269650D01*
X671278Y269644D01*
X671165Y269634D01*
X671052Y269620D01*
X670940Y269603D01*
X670829Y269581D01*
X670719Y269556D01*
X670609Y269526D01*
X670501Y269493D01*
X670394Y269456D01*
X670288Y269416D01*
X670184Y269371D01*
X670081Y269323D01*
X669980Y269272D01*
X669881Y269217D01*
X669784Y269159D01*
X669689Y269097D01*
X669596Y269032D01*
X669506Y268964D01*
X669418Y268893D01*
X669332Y268818D01*
X669249Y268741D01*
X669169Y268661D01*
X669092Y268578D01*
X669017Y268492D01*
X668946Y268404D01*
X668878Y268314D01*
X668813Y268221D01*
X668751Y268126D01*
X668693Y268029D01*
X668638Y267930D01*
X668587Y267829D01*
X668539Y267726D01*
X668494Y267622D01*
X668454Y267516D01*
X668417Y267409D01*
X668384Y267301D01*
X668354Y267191D01*
X668329Y267081D01*
X668307Y266970D01*
X668290Y266858D01*
X668276Y266745D01*
X668266Y266632D01*
X668260Y266519D01*
X668258Y266406D01*
X668259Y266406D02*
X668259Y263161D01*
X668258Y263161D02*
X668260Y263018D01*
X668266Y262875D01*
X668276Y262732D01*
X668290Y262590D01*
X668307Y262448D01*
X668329Y262306D01*
X668354Y262165D01*
X668384Y262025D01*
X668417Y261886D01*
X668454Y261748D01*
X668495Y261611D01*
X668539Y261475D01*
X668588Y261340D01*
X668640Y261207D01*
X668695Y261075D01*
X668755Y260945D01*
X668818Y260816D01*
X668884Y260689D01*
X668954Y260565D01*
X669027Y260442D01*
X669104Y260321D01*
X669184Y260202D01*
X669267Y260086D01*
X669353Y259971D01*
X669442Y259860D01*
X669535Y259750D01*
X669630Y259644D01*
X669729Y259540D01*
X669830Y259439D01*
X669934Y259340D01*
X670040Y259245D01*
X670150Y259152D01*
X670261Y259063D01*
X670376Y258977D01*
X670492Y258894D01*
X670611Y258814D01*
X670732Y258737D01*
X670855Y258664D01*
X670979Y258594D01*
X671106Y258528D01*
X671235Y258465D01*
X671365Y258405D01*
X671497Y258350D01*
X671630Y258298D01*
X671765Y258249D01*
X671901Y258205D01*
X672038Y258164D01*
X672176Y258127D01*
X672315Y258094D01*
X672455Y258064D01*
X672596Y258039D01*
X672738Y258017D01*
X672880Y258000D01*
X673022Y257986D01*
X673165Y257976D01*
X673308Y257970D01*
X673451Y257968D01*
X664464Y244128D02*
X664464Y232444D01*
X664464Y244128D02*
X661218Y244128D01*
X661105Y244126D01*
X660992Y244120D01*
X660879Y244110D01*
X660766Y244096D01*
X660654Y244079D01*
X660543Y244057D01*
X660433Y244032D01*
X660323Y244002D01*
X660215Y243969D01*
X660108Y243932D01*
X660002Y243892D01*
X659898Y243847D01*
X659795Y243799D01*
X659694Y243748D01*
X659595Y243693D01*
X659498Y243635D01*
X659403Y243573D01*
X659310Y243508D01*
X659220Y243440D01*
X659132Y243369D01*
X659046Y243294D01*
X658963Y243217D01*
X658883Y243137D01*
X658806Y243054D01*
X658731Y242968D01*
X658660Y242880D01*
X658592Y242790D01*
X658527Y242697D01*
X658465Y242602D01*
X658407Y242505D01*
X658352Y242406D01*
X658301Y242305D01*
X658253Y242202D01*
X658208Y242098D01*
X658168Y241992D01*
X658131Y241885D01*
X658098Y241777D01*
X658068Y241667D01*
X658043Y241557D01*
X658021Y241446D01*
X658004Y241334D01*
X657990Y241221D01*
X657980Y241108D01*
X657974Y240995D01*
X657972Y240882D01*
X657974Y240769D01*
X657980Y240656D01*
X657990Y240543D01*
X658004Y240430D01*
X658021Y240318D01*
X658043Y240207D01*
X658068Y240097D01*
X658098Y239987D01*
X658131Y239879D01*
X658168Y239772D01*
X658208Y239666D01*
X658253Y239562D01*
X658301Y239459D01*
X658352Y239358D01*
X658407Y239259D01*
X658465Y239162D01*
X658527Y239067D01*
X658592Y238974D01*
X658660Y238884D01*
X658731Y238796D01*
X658806Y238710D01*
X658883Y238627D01*
X658963Y238547D01*
X659046Y238470D01*
X659132Y238395D01*
X659220Y238324D01*
X659310Y238256D01*
X659403Y238191D01*
X659498Y238129D01*
X659595Y238071D01*
X659694Y238016D01*
X659795Y237965D01*
X659898Y237917D01*
X660002Y237872D01*
X660108Y237832D01*
X660215Y237795D01*
X660323Y237762D01*
X660433Y237732D01*
X660543Y237707D01*
X660654Y237685D01*
X660766Y237668D01*
X660879Y237654D01*
X660992Y237644D01*
X661105Y237638D01*
X661218Y237636D01*
X661218Y237637D02*
X664464Y237637D01*
X660569Y237637D02*
X657973Y232444D01*
X653108Y235040D02*
X650511Y244128D01*
X653108Y235040D02*
X646617Y235040D01*
X648564Y237637D02*
X648564Y232444D01*
X638108Y244128D02*
X638001Y244126D01*
X637895Y244120D01*
X637789Y244110D01*
X637683Y244097D01*
X637577Y244079D01*
X637473Y244058D01*
X637369Y244033D01*
X637266Y244004D01*
X637165Y243972D01*
X637065Y243935D01*
X636966Y243895D01*
X636868Y243852D01*
X636772Y243805D01*
X636678Y243754D01*
X636586Y243700D01*
X636496Y243643D01*
X636408Y243583D01*
X636323Y243519D01*
X636240Y243452D01*
X636159Y243382D01*
X636081Y243310D01*
X636005Y243234D01*
X635933Y243156D01*
X635863Y243075D01*
X635796Y242992D01*
X635732Y242907D01*
X635672Y242819D01*
X635615Y242729D01*
X635561Y242637D01*
X635510Y242543D01*
X635463Y242447D01*
X635420Y242349D01*
X635380Y242250D01*
X635343Y242150D01*
X635311Y242049D01*
X635282Y241946D01*
X635257Y241842D01*
X635236Y241738D01*
X635218Y241632D01*
X635205Y241526D01*
X635195Y241420D01*
X635189Y241314D01*
X635187Y241207D01*
X638108Y244128D02*
X638229Y244126D01*
X638350Y244120D01*
X638470Y244110D01*
X638591Y244097D01*
X638710Y244079D01*
X638830Y244058D01*
X638948Y244033D01*
X639065Y244004D01*
X639182Y243971D01*
X639297Y243935D01*
X639411Y243894D01*
X639524Y243851D01*
X639636Y243803D01*
X639745Y243752D01*
X639853Y243697D01*
X639960Y243639D01*
X640064Y243578D01*
X640166Y243513D01*
X640266Y243445D01*
X640364Y243374D01*
X640460Y243300D01*
X640553Y243223D01*
X640643Y243142D01*
X640731Y243059D01*
X640816Y242973D01*
X640899Y242884D01*
X640978Y242793D01*
X641055Y242699D01*
X641128Y242603D01*
X641198Y242505D01*
X641265Y242404D01*
X641329Y242301D01*
X641390Y242196D01*
X641447Y242089D01*
X641500Y241981D01*
X641550Y241871D01*
X641596Y241759D01*
X641639Y241646D01*
X641678Y241531D01*
X636161Y238935D02*
X636082Y239013D01*
X636006Y239093D01*
X635933Y239176D01*
X635863Y239262D01*
X635796Y239349D01*
X635732Y239440D01*
X635672Y239532D01*
X635614Y239626D01*
X635560Y239723D01*
X635510Y239821D01*
X635463Y239921D01*
X635419Y240022D01*
X635379Y240125D01*
X635343Y240230D01*
X635311Y240335D01*
X635282Y240442D01*
X635257Y240549D01*
X635235Y240658D01*
X635218Y240767D01*
X635204Y240876D01*
X635195Y240986D01*
X635189Y241097D01*
X635187Y241207D01*
X636160Y238935D02*
X641678Y232444D01*
X635187Y232444D01*
X664464Y223340D02*
X664464Y211656D01*
X664464Y223340D02*
X661218Y223340D01*
X661105Y223338D01*
X660992Y223332D01*
X660879Y223322D01*
X660766Y223308D01*
X660654Y223291D01*
X660543Y223269D01*
X660433Y223244D01*
X660323Y223214D01*
X660215Y223181D01*
X660108Y223144D01*
X660002Y223104D01*
X659898Y223059D01*
X659795Y223011D01*
X659694Y222960D01*
X659595Y222905D01*
X659498Y222847D01*
X659403Y222785D01*
X659310Y222720D01*
X659220Y222652D01*
X659132Y222581D01*
X659046Y222506D01*
X658963Y222429D01*
X658883Y222349D01*
X658806Y222266D01*
X658731Y222180D01*
X658660Y222092D01*
X658592Y222002D01*
X658527Y221909D01*
X658465Y221814D01*
X658407Y221717D01*
X658352Y221618D01*
X658301Y221517D01*
X658253Y221414D01*
X658208Y221310D01*
X658168Y221204D01*
X658131Y221097D01*
X658098Y220989D01*
X658068Y220879D01*
X658043Y220769D01*
X658021Y220658D01*
X658004Y220546D01*
X657990Y220433D01*
X657980Y220320D01*
X657974Y220207D01*
X657972Y220094D01*
X657974Y219981D01*
X657980Y219868D01*
X657990Y219755D01*
X658004Y219642D01*
X658021Y219530D01*
X658043Y219419D01*
X658068Y219309D01*
X658098Y219199D01*
X658131Y219091D01*
X658168Y218984D01*
X658208Y218878D01*
X658253Y218774D01*
X658301Y218671D01*
X658352Y218570D01*
X658407Y218471D01*
X658465Y218374D01*
X658527Y218279D01*
X658592Y218186D01*
X658660Y218096D01*
X658731Y218008D01*
X658806Y217922D01*
X658883Y217839D01*
X658963Y217759D01*
X659046Y217682D01*
X659132Y217607D01*
X659220Y217536D01*
X659310Y217468D01*
X659403Y217403D01*
X659498Y217341D01*
X659595Y217283D01*
X659694Y217228D01*
X659795Y217177D01*
X659898Y217129D01*
X660002Y217084D01*
X660108Y217044D01*
X660215Y217007D01*
X660323Y216974D01*
X660433Y216944D01*
X660543Y216919D01*
X660654Y216897D01*
X660766Y216880D01*
X660879Y216866D01*
X660992Y216856D01*
X661105Y216850D01*
X661218Y216848D01*
X661218Y216849D02*
X664464Y216849D01*
X660569Y216849D02*
X657973Y211656D01*
X653108Y214252D02*
X650511Y223340D01*
X653108Y214252D02*
X646617Y214252D01*
X648564Y216849D02*
X648564Y211656D01*
X641678Y211656D02*
X638432Y211656D01*
X638319Y211658D01*
X638206Y211664D01*
X638093Y211674D01*
X637980Y211688D01*
X637868Y211705D01*
X637757Y211727D01*
X637647Y211752D01*
X637537Y211782D01*
X637429Y211815D01*
X637322Y211852D01*
X637216Y211892D01*
X637112Y211937D01*
X637009Y211985D01*
X636908Y212036D01*
X636809Y212091D01*
X636712Y212149D01*
X636617Y212211D01*
X636524Y212276D01*
X636434Y212344D01*
X636346Y212415D01*
X636260Y212490D01*
X636177Y212567D01*
X636097Y212647D01*
X636020Y212730D01*
X635945Y212816D01*
X635874Y212904D01*
X635806Y212994D01*
X635741Y213087D01*
X635679Y213182D01*
X635621Y213279D01*
X635566Y213378D01*
X635515Y213479D01*
X635467Y213582D01*
X635422Y213686D01*
X635382Y213792D01*
X635345Y213899D01*
X635312Y214007D01*
X635282Y214117D01*
X635257Y214227D01*
X635235Y214338D01*
X635218Y214450D01*
X635204Y214563D01*
X635194Y214676D01*
X635188Y214789D01*
X635186Y214902D01*
X635188Y215015D01*
X635194Y215128D01*
X635204Y215241D01*
X635218Y215354D01*
X635235Y215466D01*
X635257Y215577D01*
X635282Y215687D01*
X635312Y215797D01*
X635345Y215905D01*
X635382Y216012D01*
X635422Y216118D01*
X635467Y216222D01*
X635515Y216325D01*
X635566Y216426D01*
X635621Y216525D01*
X635679Y216622D01*
X635741Y216717D01*
X635806Y216810D01*
X635874Y216900D01*
X635945Y216988D01*
X636020Y217074D01*
X636097Y217157D01*
X636177Y217237D01*
X636260Y217314D01*
X636346Y217389D01*
X636434Y217460D01*
X636524Y217528D01*
X636617Y217593D01*
X636712Y217655D01*
X636809Y217713D01*
X636908Y217768D01*
X637009Y217819D01*
X637112Y217867D01*
X637216Y217912D01*
X637322Y217952D01*
X637429Y217989D01*
X637537Y218022D01*
X637647Y218052D01*
X637757Y218077D01*
X637868Y218099D01*
X637980Y218116D01*
X638093Y218130D01*
X638206Y218140D01*
X638319Y218146D01*
X638432Y218148D01*
X637783Y223340D02*
X641678Y223340D01*
X637783Y223340D02*
X637682Y223338D01*
X637582Y223332D01*
X637482Y223322D01*
X637382Y223309D01*
X637283Y223291D01*
X637184Y223270D01*
X637087Y223245D01*
X636990Y223216D01*
X636895Y223183D01*
X636801Y223147D01*
X636709Y223107D01*
X636618Y223064D01*
X636529Y223017D01*
X636442Y222967D01*
X636356Y222913D01*
X636273Y222856D01*
X636193Y222796D01*
X636114Y222733D01*
X636038Y222666D01*
X635965Y222597D01*
X635895Y222525D01*
X635827Y222451D01*
X635762Y222374D01*
X635701Y222294D01*
X635642Y222212D01*
X635587Y222128D01*
X635535Y222042D01*
X635486Y221954D01*
X635441Y221864D01*
X635399Y221772D01*
X635361Y221679D01*
X635327Y221584D01*
X635296Y221489D01*
X635269Y221392D01*
X635246Y221294D01*
X635226Y221195D01*
X635211Y221095D01*
X635199Y220995D01*
X635191Y220895D01*
X635187Y220794D01*
X635187Y220694D01*
X635191Y220593D01*
X635199Y220493D01*
X635211Y220393D01*
X635226Y220293D01*
X635246Y220194D01*
X635269Y220096D01*
X635296Y219999D01*
X635327Y219904D01*
X635361Y219809D01*
X635399Y219716D01*
X635441Y219624D01*
X635486Y219534D01*
X635535Y219446D01*
X635587Y219360D01*
X635642Y219276D01*
X635701Y219194D01*
X635762Y219114D01*
X635827Y219037D01*
X635895Y218963D01*
X635965Y218891D01*
X636038Y218822D01*
X636114Y218755D01*
X636193Y218692D01*
X636273Y218632D01*
X636356Y218575D01*
X636442Y218521D01*
X636529Y218471D01*
X636618Y218424D01*
X636709Y218381D01*
X636801Y218341D01*
X636895Y218305D01*
X636990Y218272D01*
X637087Y218243D01*
X637184Y218218D01*
X637283Y218197D01*
X637382Y218179D01*
X637482Y218166D01*
X637582Y218156D01*
X637682Y218150D01*
X637783Y218148D01*
X637783Y218147D02*
X640379Y218147D01*
M02*
