G04 EAGLE Gerber RS-274X export*
G75*
%MOMM*%
%FSLAX34Y34*%
%LPD*%
%INSolderpaste Bottom*%
%IPPOS*%
%AMOC8*
5,1,8,0,0,1.08239X$1,22.5*%
G01*
%ADD10R,1.600000X1.300000*%
%ADD11R,1.500000X1.300000*%
%ADD12R,1.200000X1.200000*%
%ADD13R,1.500000X1.500000*%
%ADD14R,0.550000X1.350000*%
%ADD15R,1.300000X1.500000*%
%ADD16R,4.200000X1.400000*%


D10*
X200848Y526252D03*
X200848Y545252D03*
D11*
X226502Y508168D03*
X226502Y489168D03*
X248346Y507660D03*
X248346Y488660D03*
D10*
X198308Y312384D03*
X198308Y331384D03*
X227264Y593004D03*
X227264Y574004D03*
D11*
X227264Y550332D03*
X227264Y531332D03*
D10*
X230312Y370500D03*
X230312Y351500D03*
D11*
X230312Y327828D03*
X230312Y308828D03*
D12*
X849500Y80000D03*
X870500Y80000D03*
X849500Y180000D03*
X870500Y180000D03*
X849500Y280000D03*
X870500Y280000D03*
X849500Y380000D03*
X870500Y380000D03*
X849500Y480000D03*
X870500Y480000D03*
X849500Y580000D03*
X870500Y580000D03*
X849500Y680000D03*
X870500Y680000D03*
X849500Y780000D03*
X870500Y780000D03*
D13*
X877500Y130000D03*
X842500Y130000D03*
X877500Y230000D03*
X842500Y230000D03*
X877500Y330000D03*
X842500Y330000D03*
X877500Y430000D03*
X842500Y430000D03*
X877500Y530000D03*
X842500Y530000D03*
X877500Y630000D03*
X842500Y630000D03*
X877500Y730000D03*
X842500Y730000D03*
X877500Y830000D03*
X842500Y830000D03*
X877500Y30000D03*
X842500Y30000D03*
D11*
X185928Y210668D03*
X185928Y191668D03*
X210312Y210668D03*
X210312Y191668D03*
X112776Y210668D03*
X112776Y191668D03*
X161544Y210668D03*
X161544Y191668D03*
X137160Y210668D03*
X137160Y191668D03*
X259080Y280772D03*
X259080Y261772D03*
X234696Y280772D03*
X234696Y261772D03*
D14*
X100940Y437353D03*
X91440Y437353D03*
X81940Y437353D03*
X81940Y464855D03*
X91440Y464855D03*
X100940Y464855D03*
D15*
X97180Y484632D03*
X116180Y484632D03*
D11*
X42672Y460604D03*
X42672Y441604D03*
X64008Y460604D03*
X64008Y441604D03*
D15*
X81940Y411480D03*
X100940Y411480D03*
X81940Y368808D03*
X100940Y368808D03*
X81940Y390144D03*
X100940Y390144D03*
D16*
X143528Y463740D03*
X143528Y426740D03*
M02*
