G04 EAGLE Gerber RS-274X export*
G75*
%MOMM*%
%FSLAX34Y34*%
%LPD*%
%INSilkscreen Top*%
%IPPOS*%
%AMOC8*
5,1,8,0,0,1.08239X$1,22.5*%
G01*
%ADD10C,0.152400*%
%ADD11C,0.203200*%
%ADD12C,0.254000*%
%ADD13R,0.325000X0.425000*%
%ADD14R,0.350000X0.350000*%
%ADD15C,0.364000*%
%ADD16C,0.101600*%
%ADD17C,0.076200*%
%ADD18C,0.127000*%


D10*
X600700Y528650D02*
X600708Y529273D01*
X600731Y529896D01*
X600769Y530519D01*
X600822Y531140D01*
X600891Y531759D01*
X600975Y532377D01*
X601074Y532992D01*
X601188Y533605D01*
X601317Y534215D01*
X601461Y534822D01*
X601620Y535425D01*
X601794Y536023D01*
X601982Y536618D01*
X602185Y537207D01*
X602402Y537791D01*
X602633Y538370D01*
X602879Y538943D01*
X603139Y539510D01*
X603412Y540070D01*
X603699Y540623D01*
X604000Y541170D01*
X604314Y541708D01*
X604641Y542239D01*
X604981Y542761D01*
X605333Y543276D01*
X605699Y543781D01*
X606076Y544277D01*
X606466Y544764D01*
X606867Y545241D01*
X607280Y545708D01*
X607704Y546164D01*
X608139Y546611D01*
X608586Y547046D01*
X609042Y547470D01*
X609509Y547883D01*
X609986Y548284D01*
X610473Y548674D01*
X610969Y549051D01*
X611474Y549417D01*
X611989Y549769D01*
X612511Y550109D01*
X613042Y550436D01*
X613580Y550750D01*
X614127Y551051D01*
X614680Y551338D01*
X615240Y551611D01*
X615807Y551871D01*
X616380Y552117D01*
X616959Y552348D01*
X617543Y552565D01*
X618132Y552768D01*
X618727Y552956D01*
X619325Y553130D01*
X619928Y553289D01*
X620535Y553433D01*
X621145Y553562D01*
X621758Y553676D01*
X622373Y553775D01*
X622991Y553859D01*
X623610Y553928D01*
X624231Y553981D01*
X624854Y554019D01*
X625477Y554042D01*
X626100Y554050D01*
X626723Y554042D01*
X627346Y554019D01*
X627969Y553981D01*
X628590Y553928D01*
X629209Y553859D01*
X629827Y553775D01*
X630442Y553676D01*
X631055Y553562D01*
X631665Y553433D01*
X632272Y553289D01*
X632875Y553130D01*
X633473Y552956D01*
X634068Y552768D01*
X634657Y552565D01*
X635241Y552348D01*
X635820Y552117D01*
X636393Y551871D01*
X636960Y551611D01*
X637520Y551338D01*
X638073Y551051D01*
X638620Y550750D01*
X639158Y550436D01*
X639689Y550109D01*
X640211Y549769D01*
X640726Y549417D01*
X641231Y549051D01*
X641727Y548674D01*
X642214Y548284D01*
X642691Y547883D01*
X643158Y547470D01*
X643614Y547046D01*
X644061Y546611D01*
X644496Y546164D01*
X644920Y545708D01*
X645333Y545241D01*
X645734Y544764D01*
X646124Y544277D01*
X646501Y543781D01*
X646867Y543276D01*
X647219Y542761D01*
X647559Y542239D01*
X647886Y541708D01*
X648200Y541170D01*
X648501Y540623D01*
X648788Y540070D01*
X649061Y539510D01*
X649321Y538943D01*
X649567Y538370D01*
X649798Y537791D01*
X650015Y537207D01*
X650218Y536618D01*
X650406Y536023D01*
X650580Y535425D01*
X650739Y534822D01*
X650883Y534215D01*
X651012Y533605D01*
X651126Y532992D01*
X651225Y532377D01*
X651309Y531759D01*
X651378Y531140D01*
X651431Y530519D01*
X651469Y529896D01*
X651492Y529273D01*
X651500Y528650D01*
X651492Y528027D01*
X651469Y527404D01*
X651431Y526781D01*
X651378Y526160D01*
X651309Y525541D01*
X651225Y524923D01*
X651126Y524308D01*
X651012Y523695D01*
X650883Y523085D01*
X650739Y522478D01*
X650580Y521875D01*
X650406Y521277D01*
X650218Y520682D01*
X650015Y520093D01*
X649798Y519509D01*
X649567Y518930D01*
X649321Y518357D01*
X649061Y517790D01*
X648788Y517230D01*
X648501Y516677D01*
X648200Y516130D01*
X647886Y515592D01*
X647559Y515061D01*
X647219Y514539D01*
X646867Y514024D01*
X646501Y513519D01*
X646124Y513023D01*
X645734Y512536D01*
X645333Y512059D01*
X644920Y511592D01*
X644496Y511136D01*
X644061Y510689D01*
X643614Y510254D01*
X643158Y509830D01*
X642691Y509417D01*
X642214Y509016D01*
X641727Y508626D01*
X641231Y508249D01*
X640726Y507883D01*
X640211Y507531D01*
X639689Y507191D01*
X639158Y506864D01*
X638620Y506550D01*
X638073Y506249D01*
X637520Y505962D01*
X636960Y505689D01*
X636393Y505429D01*
X635820Y505183D01*
X635241Y504952D01*
X634657Y504735D01*
X634068Y504532D01*
X633473Y504344D01*
X632875Y504170D01*
X632272Y504011D01*
X631665Y503867D01*
X631055Y503738D01*
X630442Y503624D01*
X629827Y503525D01*
X629209Y503441D01*
X628590Y503372D01*
X627969Y503319D01*
X627346Y503281D01*
X626723Y503258D01*
X626100Y503250D01*
X625477Y503258D01*
X624854Y503281D01*
X624231Y503319D01*
X623610Y503372D01*
X622991Y503441D01*
X622373Y503525D01*
X621758Y503624D01*
X621145Y503738D01*
X620535Y503867D01*
X619928Y504011D01*
X619325Y504170D01*
X618727Y504344D01*
X618132Y504532D01*
X617543Y504735D01*
X616959Y504952D01*
X616380Y505183D01*
X615807Y505429D01*
X615240Y505689D01*
X614680Y505962D01*
X614127Y506249D01*
X613580Y506550D01*
X613042Y506864D01*
X612511Y507191D01*
X611989Y507531D01*
X611474Y507883D01*
X610969Y508249D01*
X610473Y508626D01*
X609986Y509016D01*
X609509Y509417D01*
X609042Y509830D01*
X608586Y510254D01*
X608139Y510689D01*
X607704Y511136D01*
X607280Y511592D01*
X606867Y512059D01*
X606466Y512536D01*
X606076Y513023D01*
X605699Y513519D01*
X605333Y514024D01*
X604981Y514539D01*
X604641Y515061D01*
X604314Y515592D01*
X604000Y516130D01*
X603699Y516677D01*
X603412Y517230D01*
X603139Y517790D01*
X602879Y518357D01*
X602633Y518930D01*
X602402Y519509D01*
X602185Y520093D01*
X601982Y520682D01*
X601794Y521277D01*
X601620Y521875D01*
X601461Y522478D01*
X601317Y523085D01*
X601188Y523695D01*
X601074Y524308D01*
X600975Y524923D01*
X600891Y525541D01*
X600822Y526160D01*
X600769Y526781D01*
X600731Y527404D01*
X600708Y528027D01*
X600700Y528650D01*
D11*
X594669Y533140D02*
X621610Y560081D01*
D12*
X622381Y560181D01*
X623154Y560263D01*
X623929Y560326D01*
X624706Y560369D01*
X625483Y560394D01*
X626260Y560400D01*
X627038Y560386D01*
X627815Y560354D01*
X628591Y560302D01*
X629365Y560232D01*
X630137Y560142D01*
X630907Y560034D01*
X631674Y559907D01*
X632438Y559761D01*
X633198Y559596D01*
X633954Y559413D01*
X634705Y559212D01*
X635451Y558992D01*
X636191Y558754D01*
X636925Y558498D01*
X637653Y558224D01*
X638374Y557932D01*
X639087Y557622D01*
X639793Y557296D01*
X640490Y556952D01*
X641179Y556591D01*
X641858Y556213D01*
X642529Y555819D01*
X643189Y555409D01*
X643839Y554982D01*
X644479Y554540D01*
X645107Y554082D01*
X645724Y553609D01*
X646330Y553121D01*
X646923Y552618D01*
X647504Y552101D01*
X648071Y551570D01*
X648626Y551025D01*
X649167Y550467D01*
X649695Y549895D01*
X650208Y549311D01*
X650707Y548714D01*
X651190Y548106D01*
X651659Y547486D01*
X652113Y546854D01*
X652551Y546212D01*
X652973Y545559D01*
X653379Y544895D01*
X653769Y544222D01*
X654142Y543540D01*
X654498Y542849D01*
X654837Y542149D01*
X655159Y541442D01*
X655464Y540726D01*
X655751Y540003D01*
X656020Y539274D01*
X656271Y538538D01*
X656504Y537796D01*
X656719Y537049D01*
X656915Y536297D01*
X657093Y535540D01*
X657253Y534779D01*
X657394Y534014D01*
X657516Y533246D01*
X657619Y532475D01*
X657703Y531702D01*
X657768Y530927D01*
X657814Y530151D01*
X657842Y529374D01*
X657850Y528597D01*
X657839Y527819D01*
X657809Y527042D01*
X657760Y526266D01*
X657692Y525491D01*
X657606Y524719D01*
X657500Y523948D01*
X657375Y523181D01*
X657232Y522417D01*
X657070Y521656D01*
X656890Y520900D01*
X656691Y520148D01*
X656473Y519402D01*
X656238Y518660D01*
X655984Y517925D01*
X655712Y517197D01*
X655423Y516475D01*
X655116Y515761D01*
X654792Y515054D01*
X654450Y514355D01*
X654092Y513665D01*
X653716Y512985D01*
X653324Y512313D01*
X652916Y511651D01*
X652492Y511000D01*
X652052Y510359D01*
X651596Y509728D01*
X651125Y509110D01*
X650639Y508503D01*
X650138Y507908D01*
X649623Y507326D01*
X649094Y506756D01*
X648551Y506199D01*
X647994Y505656D01*
X647424Y505127D01*
X646842Y504612D01*
X646247Y504111D01*
X645640Y503625D01*
X645022Y503154D01*
X644391Y502698D01*
X643750Y502258D01*
X643099Y501834D01*
X642437Y501426D01*
X641765Y501034D01*
X641085Y500658D01*
X640395Y500300D01*
X639696Y499958D01*
X638989Y499634D01*
X638275Y499327D01*
X637553Y499038D01*
X636825Y498766D01*
X636090Y498512D01*
X635348Y498277D01*
X634602Y498059D01*
X633850Y497860D01*
X633094Y497680D01*
X632333Y497518D01*
X631569Y497375D01*
X630802Y497250D01*
X630031Y497144D01*
X629259Y497058D01*
X628484Y496990D01*
X627708Y496941D01*
X626931Y496911D01*
X626153Y496900D01*
X625376Y496908D01*
X624599Y496936D01*
X623823Y496982D01*
X623048Y497047D01*
X622275Y497131D01*
X621504Y497234D01*
X620736Y497356D01*
X619971Y497497D01*
X619210Y497657D01*
X618453Y497835D01*
X617701Y498031D01*
X616954Y498246D01*
X616212Y498479D01*
X615476Y498730D01*
X614747Y498999D01*
X614024Y499286D01*
X613308Y499591D01*
X612601Y499913D01*
X611901Y500252D01*
X611210Y500608D01*
X610528Y500981D01*
X609855Y501371D01*
X609191Y501777D01*
X608538Y502199D01*
X607896Y502637D01*
X607264Y503091D01*
X606644Y503560D01*
X606036Y504043D01*
X605439Y504542D01*
X604855Y505055D01*
X604283Y505583D01*
X603725Y506124D01*
X603180Y506679D01*
X602649Y507246D01*
X602132Y507827D01*
X601629Y508420D01*
X601141Y509026D01*
X600668Y509643D01*
X600210Y510271D01*
X599768Y510911D01*
X599341Y511561D01*
X598931Y512221D01*
X598537Y512892D01*
X598159Y513571D01*
X597798Y514260D01*
X597454Y514957D01*
X597128Y515663D01*
X596818Y516376D01*
X596526Y517097D01*
X596252Y517825D01*
X595996Y518559D01*
X595758Y519299D01*
X595538Y520045D01*
X595337Y520796D01*
X595154Y521552D01*
X594989Y522312D01*
X594843Y523076D01*
X594716Y523843D01*
X594608Y524613D01*
X594518Y525385D01*
X594448Y526159D01*
X594396Y526935D01*
X594364Y527712D01*
X594350Y528490D01*
X594356Y529267D01*
X594381Y530044D01*
X594424Y530821D01*
X594487Y531596D01*
X594569Y532369D01*
X594669Y533140D01*
D10*
X605950Y332200D02*
X605958Y332823D01*
X605981Y333446D01*
X606019Y334069D01*
X606072Y334690D01*
X606141Y335309D01*
X606225Y335927D01*
X606324Y336542D01*
X606438Y337155D01*
X606567Y337765D01*
X606711Y338372D01*
X606870Y338975D01*
X607044Y339573D01*
X607232Y340168D01*
X607435Y340757D01*
X607652Y341341D01*
X607883Y341920D01*
X608129Y342493D01*
X608389Y343060D01*
X608662Y343620D01*
X608949Y344173D01*
X609250Y344720D01*
X609564Y345258D01*
X609891Y345789D01*
X610231Y346311D01*
X610583Y346826D01*
X610949Y347331D01*
X611326Y347827D01*
X611716Y348314D01*
X612117Y348791D01*
X612530Y349258D01*
X612954Y349714D01*
X613389Y350161D01*
X613836Y350596D01*
X614292Y351020D01*
X614759Y351433D01*
X615236Y351834D01*
X615723Y352224D01*
X616219Y352601D01*
X616724Y352967D01*
X617239Y353319D01*
X617761Y353659D01*
X618292Y353986D01*
X618830Y354300D01*
X619377Y354601D01*
X619930Y354888D01*
X620490Y355161D01*
X621057Y355421D01*
X621630Y355667D01*
X622209Y355898D01*
X622793Y356115D01*
X623382Y356318D01*
X623977Y356506D01*
X624575Y356680D01*
X625178Y356839D01*
X625785Y356983D01*
X626395Y357112D01*
X627008Y357226D01*
X627623Y357325D01*
X628241Y357409D01*
X628860Y357478D01*
X629481Y357531D01*
X630104Y357569D01*
X630727Y357592D01*
X631350Y357600D01*
X631973Y357592D01*
X632596Y357569D01*
X633219Y357531D01*
X633840Y357478D01*
X634459Y357409D01*
X635077Y357325D01*
X635692Y357226D01*
X636305Y357112D01*
X636915Y356983D01*
X637522Y356839D01*
X638125Y356680D01*
X638723Y356506D01*
X639318Y356318D01*
X639907Y356115D01*
X640491Y355898D01*
X641070Y355667D01*
X641643Y355421D01*
X642210Y355161D01*
X642770Y354888D01*
X643323Y354601D01*
X643870Y354300D01*
X644408Y353986D01*
X644939Y353659D01*
X645461Y353319D01*
X645976Y352967D01*
X646481Y352601D01*
X646977Y352224D01*
X647464Y351834D01*
X647941Y351433D01*
X648408Y351020D01*
X648864Y350596D01*
X649311Y350161D01*
X649746Y349714D01*
X650170Y349258D01*
X650583Y348791D01*
X650984Y348314D01*
X651374Y347827D01*
X651751Y347331D01*
X652117Y346826D01*
X652469Y346311D01*
X652809Y345789D01*
X653136Y345258D01*
X653450Y344720D01*
X653751Y344173D01*
X654038Y343620D01*
X654311Y343060D01*
X654571Y342493D01*
X654817Y341920D01*
X655048Y341341D01*
X655265Y340757D01*
X655468Y340168D01*
X655656Y339573D01*
X655830Y338975D01*
X655989Y338372D01*
X656133Y337765D01*
X656262Y337155D01*
X656376Y336542D01*
X656475Y335927D01*
X656559Y335309D01*
X656628Y334690D01*
X656681Y334069D01*
X656719Y333446D01*
X656742Y332823D01*
X656750Y332200D01*
X656742Y331577D01*
X656719Y330954D01*
X656681Y330331D01*
X656628Y329710D01*
X656559Y329091D01*
X656475Y328473D01*
X656376Y327858D01*
X656262Y327245D01*
X656133Y326635D01*
X655989Y326028D01*
X655830Y325425D01*
X655656Y324827D01*
X655468Y324232D01*
X655265Y323643D01*
X655048Y323059D01*
X654817Y322480D01*
X654571Y321907D01*
X654311Y321340D01*
X654038Y320780D01*
X653751Y320227D01*
X653450Y319680D01*
X653136Y319142D01*
X652809Y318611D01*
X652469Y318089D01*
X652117Y317574D01*
X651751Y317069D01*
X651374Y316573D01*
X650984Y316086D01*
X650583Y315609D01*
X650170Y315142D01*
X649746Y314686D01*
X649311Y314239D01*
X648864Y313804D01*
X648408Y313380D01*
X647941Y312967D01*
X647464Y312566D01*
X646977Y312176D01*
X646481Y311799D01*
X645976Y311433D01*
X645461Y311081D01*
X644939Y310741D01*
X644408Y310414D01*
X643870Y310100D01*
X643323Y309799D01*
X642770Y309512D01*
X642210Y309239D01*
X641643Y308979D01*
X641070Y308733D01*
X640491Y308502D01*
X639907Y308285D01*
X639318Y308082D01*
X638723Y307894D01*
X638125Y307720D01*
X637522Y307561D01*
X636915Y307417D01*
X636305Y307288D01*
X635692Y307174D01*
X635077Y307075D01*
X634459Y306991D01*
X633840Y306922D01*
X633219Y306869D01*
X632596Y306831D01*
X631973Y306808D01*
X631350Y306800D01*
X630727Y306808D01*
X630104Y306831D01*
X629481Y306869D01*
X628860Y306922D01*
X628241Y306991D01*
X627623Y307075D01*
X627008Y307174D01*
X626395Y307288D01*
X625785Y307417D01*
X625178Y307561D01*
X624575Y307720D01*
X623977Y307894D01*
X623382Y308082D01*
X622793Y308285D01*
X622209Y308502D01*
X621630Y308733D01*
X621057Y308979D01*
X620490Y309239D01*
X619930Y309512D01*
X619377Y309799D01*
X618830Y310100D01*
X618292Y310414D01*
X617761Y310741D01*
X617239Y311081D01*
X616724Y311433D01*
X616219Y311799D01*
X615723Y312176D01*
X615236Y312566D01*
X614759Y312967D01*
X614292Y313380D01*
X613836Y313804D01*
X613389Y314239D01*
X612954Y314686D01*
X612530Y315142D01*
X612117Y315609D01*
X611716Y316086D01*
X611326Y316573D01*
X610949Y317069D01*
X610583Y317574D01*
X610231Y318089D01*
X609891Y318611D01*
X609564Y319142D01*
X609250Y319680D01*
X608949Y320227D01*
X608662Y320780D01*
X608389Y321340D01*
X608129Y321907D01*
X607883Y322480D01*
X607652Y323059D01*
X607435Y323643D01*
X607232Y324232D01*
X607044Y324827D01*
X606870Y325425D01*
X606711Y326028D01*
X606567Y326635D01*
X606438Y327245D01*
X606324Y327858D01*
X606225Y328473D01*
X606141Y329091D01*
X606072Y329710D01*
X606019Y330331D01*
X605981Y330954D01*
X605958Y331577D01*
X605950Y332200D01*
D11*
X599919Y327710D02*
X626860Y300769D01*
D12*
X627631Y300669D01*
X628404Y300587D01*
X629179Y300524D01*
X629956Y300481D01*
X630733Y300456D01*
X631510Y300450D01*
X632288Y300464D01*
X633065Y300496D01*
X633841Y300548D01*
X634615Y300618D01*
X635387Y300708D01*
X636157Y300816D01*
X636924Y300943D01*
X637688Y301089D01*
X638448Y301254D01*
X639204Y301437D01*
X639955Y301638D01*
X640701Y301858D01*
X641441Y302096D01*
X642175Y302352D01*
X642903Y302626D01*
X643624Y302918D01*
X644337Y303228D01*
X645043Y303554D01*
X645740Y303898D01*
X646429Y304259D01*
X647108Y304637D01*
X647779Y305031D01*
X648439Y305441D01*
X649089Y305868D01*
X649729Y306310D01*
X650357Y306768D01*
X650974Y307241D01*
X651580Y307729D01*
X652173Y308232D01*
X652754Y308749D01*
X653321Y309280D01*
X653876Y309825D01*
X654417Y310383D01*
X654945Y310955D01*
X655458Y311539D01*
X655957Y312136D01*
X656440Y312744D01*
X656909Y313364D01*
X657363Y313996D01*
X657801Y314638D01*
X658223Y315291D01*
X658629Y315955D01*
X659019Y316628D01*
X659392Y317310D01*
X659748Y318001D01*
X660087Y318701D01*
X660409Y319408D01*
X660714Y320124D01*
X661001Y320847D01*
X661270Y321576D01*
X661521Y322312D01*
X661754Y323054D01*
X661969Y323801D01*
X662165Y324553D01*
X662343Y325310D01*
X662503Y326071D01*
X662644Y326836D01*
X662766Y327604D01*
X662869Y328375D01*
X662953Y329148D01*
X663018Y329923D01*
X663064Y330699D01*
X663092Y331476D01*
X663100Y332253D01*
X663089Y333031D01*
X663059Y333808D01*
X663010Y334584D01*
X662942Y335359D01*
X662856Y336131D01*
X662750Y336902D01*
X662625Y337669D01*
X662482Y338433D01*
X662320Y339194D01*
X662140Y339950D01*
X661941Y340702D01*
X661723Y341448D01*
X661488Y342190D01*
X661234Y342925D01*
X660962Y343653D01*
X660673Y344375D01*
X660366Y345089D01*
X660042Y345796D01*
X659700Y346495D01*
X659342Y347185D01*
X658966Y347865D01*
X658574Y348537D01*
X658166Y349199D01*
X657742Y349850D01*
X657302Y350491D01*
X656846Y351122D01*
X656375Y351740D01*
X655889Y352347D01*
X655388Y352942D01*
X654873Y353524D01*
X654344Y354094D01*
X653801Y354651D01*
X653244Y355194D01*
X652674Y355723D01*
X652092Y356238D01*
X651497Y356739D01*
X650890Y357225D01*
X650272Y357696D01*
X649641Y358152D01*
X649000Y358592D01*
X648349Y359016D01*
X647687Y359424D01*
X647015Y359816D01*
X646335Y360192D01*
X645645Y360550D01*
X644946Y360892D01*
X644239Y361216D01*
X643525Y361523D01*
X642803Y361812D01*
X642075Y362084D01*
X641340Y362338D01*
X640598Y362573D01*
X639852Y362791D01*
X639100Y362990D01*
X638344Y363170D01*
X637583Y363332D01*
X636819Y363475D01*
X636052Y363600D01*
X635281Y363706D01*
X634509Y363792D01*
X633734Y363860D01*
X632958Y363909D01*
X632181Y363939D01*
X631403Y363950D01*
X630626Y363942D01*
X629849Y363914D01*
X629073Y363868D01*
X628298Y363803D01*
X627525Y363719D01*
X626754Y363616D01*
X625986Y363494D01*
X625221Y363353D01*
X624460Y363193D01*
X623703Y363015D01*
X622951Y362819D01*
X622204Y362604D01*
X621462Y362371D01*
X620726Y362120D01*
X619997Y361851D01*
X619274Y361564D01*
X618558Y361259D01*
X617851Y360937D01*
X617151Y360598D01*
X616460Y360242D01*
X615778Y359869D01*
X615105Y359479D01*
X614441Y359073D01*
X613788Y358651D01*
X613146Y358213D01*
X612514Y357759D01*
X611894Y357290D01*
X611286Y356807D01*
X610689Y356308D01*
X610105Y355795D01*
X609533Y355267D01*
X608975Y354726D01*
X608430Y354171D01*
X607899Y353604D01*
X607382Y353023D01*
X606879Y352430D01*
X606391Y351824D01*
X605918Y351207D01*
X605460Y350579D01*
X605018Y349939D01*
X604591Y349289D01*
X604181Y348629D01*
X603787Y347958D01*
X603409Y347279D01*
X603048Y346590D01*
X602704Y345893D01*
X602378Y345187D01*
X602068Y344474D01*
X601776Y343753D01*
X601502Y343025D01*
X601246Y342291D01*
X601008Y341551D01*
X600788Y340805D01*
X600587Y340054D01*
X600404Y339298D01*
X600239Y338538D01*
X600093Y337774D01*
X599966Y337007D01*
X599858Y336237D01*
X599768Y335465D01*
X599698Y334691D01*
X599646Y333915D01*
X599614Y333138D01*
X599600Y332360D01*
X599606Y331583D01*
X599631Y330806D01*
X599674Y330029D01*
X599737Y329254D01*
X599819Y328481D01*
X599919Y327710D01*
D10*
X552150Y571500D02*
X552158Y572123D01*
X552181Y572746D01*
X552219Y573369D01*
X552272Y573990D01*
X552341Y574609D01*
X552425Y575227D01*
X552524Y575842D01*
X552638Y576455D01*
X552767Y577065D01*
X552911Y577672D01*
X553070Y578275D01*
X553244Y578873D01*
X553432Y579468D01*
X553635Y580057D01*
X553852Y580641D01*
X554083Y581220D01*
X554329Y581793D01*
X554589Y582360D01*
X554862Y582920D01*
X555149Y583473D01*
X555450Y584020D01*
X555764Y584558D01*
X556091Y585089D01*
X556431Y585611D01*
X556783Y586126D01*
X557149Y586631D01*
X557526Y587127D01*
X557916Y587614D01*
X558317Y588091D01*
X558730Y588558D01*
X559154Y589014D01*
X559589Y589461D01*
X560036Y589896D01*
X560492Y590320D01*
X560959Y590733D01*
X561436Y591134D01*
X561923Y591524D01*
X562419Y591901D01*
X562924Y592267D01*
X563439Y592619D01*
X563961Y592959D01*
X564492Y593286D01*
X565030Y593600D01*
X565577Y593901D01*
X566130Y594188D01*
X566690Y594461D01*
X567257Y594721D01*
X567830Y594967D01*
X568409Y595198D01*
X568993Y595415D01*
X569582Y595618D01*
X570177Y595806D01*
X570775Y595980D01*
X571378Y596139D01*
X571985Y596283D01*
X572595Y596412D01*
X573208Y596526D01*
X573823Y596625D01*
X574441Y596709D01*
X575060Y596778D01*
X575681Y596831D01*
X576304Y596869D01*
X576927Y596892D01*
X577550Y596900D01*
X578173Y596892D01*
X578796Y596869D01*
X579419Y596831D01*
X580040Y596778D01*
X580659Y596709D01*
X581277Y596625D01*
X581892Y596526D01*
X582505Y596412D01*
X583115Y596283D01*
X583722Y596139D01*
X584325Y595980D01*
X584923Y595806D01*
X585518Y595618D01*
X586107Y595415D01*
X586691Y595198D01*
X587270Y594967D01*
X587843Y594721D01*
X588410Y594461D01*
X588970Y594188D01*
X589523Y593901D01*
X590070Y593600D01*
X590608Y593286D01*
X591139Y592959D01*
X591661Y592619D01*
X592176Y592267D01*
X592681Y591901D01*
X593177Y591524D01*
X593664Y591134D01*
X594141Y590733D01*
X594608Y590320D01*
X595064Y589896D01*
X595511Y589461D01*
X595946Y589014D01*
X596370Y588558D01*
X596783Y588091D01*
X597184Y587614D01*
X597574Y587127D01*
X597951Y586631D01*
X598317Y586126D01*
X598669Y585611D01*
X599009Y585089D01*
X599336Y584558D01*
X599650Y584020D01*
X599951Y583473D01*
X600238Y582920D01*
X600511Y582360D01*
X600771Y581793D01*
X601017Y581220D01*
X601248Y580641D01*
X601465Y580057D01*
X601668Y579468D01*
X601856Y578873D01*
X602030Y578275D01*
X602189Y577672D01*
X602333Y577065D01*
X602462Y576455D01*
X602576Y575842D01*
X602675Y575227D01*
X602759Y574609D01*
X602828Y573990D01*
X602881Y573369D01*
X602919Y572746D01*
X602942Y572123D01*
X602950Y571500D01*
X602942Y570877D01*
X602919Y570254D01*
X602881Y569631D01*
X602828Y569010D01*
X602759Y568391D01*
X602675Y567773D01*
X602576Y567158D01*
X602462Y566545D01*
X602333Y565935D01*
X602189Y565328D01*
X602030Y564725D01*
X601856Y564127D01*
X601668Y563532D01*
X601465Y562943D01*
X601248Y562359D01*
X601017Y561780D01*
X600771Y561207D01*
X600511Y560640D01*
X600238Y560080D01*
X599951Y559527D01*
X599650Y558980D01*
X599336Y558442D01*
X599009Y557911D01*
X598669Y557389D01*
X598317Y556874D01*
X597951Y556369D01*
X597574Y555873D01*
X597184Y555386D01*
X596783Y554909D01*
X596370Y554442D01*
X595946Y553986D01*
X595511Y553539D01*
X595064Y553104D01*
X594608Y552680D01*
X594141Y552267D01*
X593664Y551866D01*
X593177Y551476D01*
X592681Y551099D01*
X592176Y550733D01*
X591661Y550381D01*
X591139Y550041D01*
X590608Y549714D01*
X590070Y549400D01*
X589523Y549099D01*
X588970Y548812D01*
X588410Y548539D01*
X587843Y548279D01*
X587270Y548033D01*
X586691Y547802D01*
X586107Y547585D01*
X585518Y547382D01*
X584923Y547194D01*
X584325Y547020D01*
X583722Y546861D01*
X583115Y546717D01*
X582505Y546588D01*
X581892Y546474D01*
X581277Y546375D01*
X580659Y546291D01*
X580040Y546222D01*
X579419Y546169D01*
X578796Y546131D01*
X578173Y546108D01*
X577550Y546100D01*
X576927Y546108D01*
X576304Y546131D01*
X575681Y546169D01*
X575060Y546222D01*
X574441Y546291D01*
X573823Y546375D01*
X573208Y546474D01*
X572595Y546588D01*
X571985Y546717D01*
X571378Y546861D01*
X570775Y547020D01*
X570177Y547194D01*
X569582Y547382D01*
X568993Y547585D01*
X568409Y547802D01*
X567830Y548033D01*
X567257Y548279D01*
X566690Y548539D01*
X566130Y548812D01*
X565577Y549099D01*
X565030Y549400D01*
X564492Y549714D01*
X563961Y550041D01*
X563439Y550381D01*
X562924Y550733D01*
X562419Y551099D01*
X561923Y551476D01*
X561436Y551866D01*
X560959Y552267D01*
X560492Y552680D01*
X560036Y553104D01*
X559589Y553539D01*
X559154Y553986D01*
X558730Y554442D01*
X558317Y554909D01*
X557916Y555386D01*
X557526Y555873D01*
X557149Y556369D01*
X556783Y556874D01*
X556431Y557389D01*
X556091Y557911D01*
X555764Y558442D01*
X555450Y558980D01*
X555149Y559527D01*
X554862Y560080D01*
X554589Y560640D01*
X554329Y561207D01*
X554083Y561780D01*
X553852Y562359D01*
X553635Y562943D01*
X553432Y563532D01*
X553244Y564127D01*
X553070Y564725D01*
X552911Y565328D01*
X552767Y565935D01*
X552638Y566545D01*
X552524Y567158D01*
X552425Y567773D01*
X552341Y568391D01*
X552272Y569010D01*
X552219Y569631D01*
X552181Y570254D01*
X552158Y570877D01*
X552150Y571500D01*
D11*
X582040Y540069D02*
X608981Y567010D01*
D12*
X609081Y567781D01*
X609163Y568554D01*
X609226Y569329D01*
X609269Y570106D01*
X609294Y570883D01*
X609300Y571660D01*
X609286Y572438D01*
X609254Y573215D01*
X609202Y573991D01*
X609132Y574765D01*
X609042Y575537D01*
X608934Y576307D01*
X608807Y577074D01*
X608661Y577838D01*
X608496Y578598D01*
X608313Y579354D01*
X608112Y580105D01*
X607892Y580851D01*
X607654Y581591D01*
X607398Y582325D01*
X607124Y583053D01*
X606832Y583774D01*
X606522Y584487D01*
X606196Y585193D01*
X605852Y585890D01*
X605491Y586579D01*
X605113Y587258D01*
X604719Y587929D01*
X604309Y588589D01*
X603882Y589239D01*
X603440Y589879D01*
X602982Y590507D01*
X602509Y591124D01*
X602021Y591730D01*
X601518Y592323D01*
X601001Y592904D01*
X600470Y593471D01*
X599925Y594026D01*
X599367Y594567D01*
X598795Y595095D01*
X598211Y595608D01*
X597614Y596107D01*
X597006Y596590D01*
X596386Y597059D01*
X595754Y597513D01*
X595112Y597951D01*
X594459Y598373D01*
X593795Y598779D01*
X593122Y599169D01*
X592440Y599542D01*
X591749Y599898D01*
X591049Y600237D01*
X590342Y600559D01*
X589626Y600864D01*
X588903Y601151D01*
X588174Y601420D01*
X587438Y601671D01*
X586696Y601904D01*
X585949Y602119D01*
X585197Y602315D01*
X584440Y602493D01*
X583679Y602653D01*
X582914Y602794D01*
X582146Y602916D01*
X581375Y603019D01*
X580602Y603103D01*
X579827Y603168D01*
X579051Y603214D01*
X578274Y603242D01*
X577497Y603250D01*
X576719Y603239D01*
X575942Y603209D01*
X575166Y603160D01*
X574391Y603092D01*
X573619Y603006D01*
X572848Y602900D01*
X572081Y602775D01*
X571317Y602632D01*
X570556Y602470D01*
X569800Y602290D01*
X569048Y602091D01*
X568302Y601873D01*
X567560Y601638D01*
X566825Y601384D01*
X566097Y601112D01*
X565375Y600823D01*
X564661Y600516D01*
X563954Y600192D01*
X563255Y599850D01*
X562565Y599492D01*
X561885Y599116D01*
X561213Y598724D01*
X560551Y598316D01*
X559900Y597892D01*
X559259Y597452D01*
X558628Y596996D01*
X558010Y596525D01*
X557403Y596039D01*
X556808Y595538D01*
X556226Y595023D01*
X555656Y594494D01*
X555099Y593951D01*
X554556Y593394D01*
X554027Y592824D01*
X553512Y592242D01*
X553011Y591647D01*
X552525Y591040D01*
X552054Y590422D01*
X551598Y589791D01*
X551158Y589150D01*
X550734Y588499D01*
X550326Y587837D01*
X549934Y587165D01*
X549558Y586485D01*
X549200Y585795D01*
X548858Y585096D01*
X548534Y584389D01*
X548227Y583675D01*
X547938Y582953D01*
X547666Y582225D01*
X547412Y581490D01*
X547177Y580748D01*
X546959Y580002D01*
X546760Y579250D01*
X546580Y578494D01*
X546418Y577733D01*
X546275Y576969D01*
X546150Y576202D01*
X546044Y575431D01*
X545958Y574659D01*
X545890Y573884D01*
X545841Y573108D01*
X545811Y572331D01*
X545800Y571553D01*
X545808Y570776D01*
X545836Y569999D01*
X545882Y569223D01*
X545947Y568448D01*
X546031Y567675D01*
X546134Y566904D01*
X546256Y566136D01*
X546397Y565371D01*
X546557Y564610D01*
X546735Y563853D01*
X546931Y563101D01*
X547146Y562354D01*
X547379Y561612D01*
X547630Y560876D01*
X547899Y560147D01*
X548186Y559424D01*
X548491Y558708D01*
X548813Y558001D01*
X549152Y557301D01*
X549508Y556610D01*
X549881Y555928D01*
X550271Y555255D01*
X550677Y554591D01*
X551099Y553938D01*
X551537Y553296D01*
X551991Y552664D01*
X552460Y552044D01*
X552943Y551436D01*
X553442Y550839D01*
X553955Y550255D01*
X554483Y549683D01*
X555024Y549125D01*
X555579Y548580D01*
X556146Y548049D01*
X556727Y547532D01*
X557320Y547029D01*
X557926Y546541D01*
X558543Y546068D01*
X559171Y545610D01*
X559811Y545168D01*
X560461Y544741D01*
X561121Y544331D01*
X561792Y543937D01*
X562471Y543559D01*
X563160Y543198D01*
X563857Y542854D01*
X564563Y542528D01*
X565276Y542218D01*
X565997Y541926D01*
X566725Y541652D01*
X567459Y541396D01*
X568199Y541158D01*
X568945Y540938D01*
X569696Y540737D01*
X570452Y540554D01*
X571212Y540389D01*
X571976Y540243D01*
X572743Y540116D01*
X573513Y540008D01*
X574285Y539918D01*
X575059Y539848D01*
X575835Y539796D01*
X576612Y539764D01*
X577390Y539750D01*
X578167Y539756D01*
X578944Y539781D01*
X579721Y539824D01*
X580496Y539887D01*
X581269Y539969D01*
X582040Y540069D01*
D10*
X561650Y294150D02*
X561658Y294773D01*
X561681Y295396D01*
X561719Y296019D01*
X561772Y296640D01*
X561841Y297259D01*
X561925Y297877D01*
X562024Y298492D01*
X562138Y299105D01*
X562267Y299715D01*
X562411Y300322D01*
X562570Y300925D01*
X562744Y301523D01*
X562932Y302118D01*
X563135Y302707D01*
X563352Y303291D01*
X563583Y303870D01*
X563829Y304443D01*
X564089Y305010D01*
X564362Y305570D01*
X564649Y306123D01*
X564950Y306670D01*
X565264Y307208D01*
X565591Y307739D01*
X565931Y308261D01*
X566283Y308776D01*
X566649Y309281D01*
X567026Y309777D01*
X567416Y310264D01*
X567817Y310741D01*
X568230Y311208D01*
X568654Y311664D01*
X569089Y312111D01*
X569536Y312546D01*
X569992Y312970D01*
X570459Y313383D01*
X570936Y313784D01*
X571423Y314174D01*
X571919Y314551D01*
X572424Y314917D01*
X572939Y315269D01*
X573461Y315609D01*
X573992Y315936D01*
X574530Y316250D01*
X575077Y316551D01*
X575630Y316838D01*
X576190Y317111D01*
X576757Y317371D01*
X577330Y317617D01*
X577909Y317848D01*
X578493Y318065D01*
X579082Y318268D01*
X579677Y318456D01*
X580275Y318630D01*
X580878Y318789D01*
X581485Y318933D01*
X582095Y319062D01*
X582708Y319176D01*
X583323Y319275D01*
X583941Y319359D01*
X584560Y319428D01*
X585181Y319481D01*
X585804Y319519D01*
X586427Y319542D01*
X587050Y319550D01*
X587673Y319542D01*
X588296Y319519D01*
X588919Y319481D01*
X589540Y319428D01*
X590159Y319359D01*
X590777Y319275D01*
X591392Y319176D01*
X592005Y319062D01*
X592615Y318933D01*
X593222Y318789D01*
X593825Y318630D01*
X594423Y318456D01*
X595018Y318268D01*
X595607Y318065D01*
X596191Y317848D01*
X596770Y317617D01*
X597343Y317371D01*
X597910Y317111D01*
X598470Y316838D01*
X599023Y316551D01*
X599570Y316250D01*
X600108Y315936D01*
X600639Y315609D01*
X601161Y315269D01*
X601676Y314917D01*
X602181Y314551D01*
X602677Y314174D01*
X603164Y313784D01*
X603641Y313383D01*
X604108Y312970D01*
X604564Y312546D01*
X605011Y312111D01*
X605446Y311664D01*
X605870Y311208D01*
X606283Y310741D01*
X606684Y310264D01*
X607074Y309777D01*
X607451Y309281D01*
X607817Y308776D01*
X608169Y308261D01*
X608509Y307739D01*
X608836Y307208D01*
X609150Y306670D01*
X609451Y306123D01*
X609738Y305570D01*
X610011Y305010D01*
X610271Y304443D01*
X610517Y303870D01*
X610748Y303291D01*
X610965Y302707D01*
X611168Y302118D01*
X611356Y301523D01*
X611530Y300925D01*
X611689Y300322D01*
X611833Y299715D01*
X611962Y299105D01*
X612076Y298492D01*
X612175Y297877D01*
X612259Y297259D01*
X612328Y296640D01*
X612381Y296019D01*
X612419Y295396D01*
X612442Y294773D01*
X612450Y294150D01*
X612442Y293527D01*
X612419Y292904D01*
X612381Y292281D01*
X612328Y291660D01*
X612259Y291041D01*
X612175Y290423D01*
X612076Y289808D01*
X611962Y289195D01*
X611833Y288585D01*
X611689Y287978D01*
X611530Y287375D01*
X611356Y286777D01*
X611168Y286182D01*
X610965Y285593D01*
X610748Y285009D01*
X610517Y284430D01*
X610271Y283857D01*
X610011Y283290D01*
X609738Y282730D01*
X609451Y282177D01*
X609150Y281630D01*
X608836Y281092D01*
X608509Y280561D01*
X608169Y280039D01*
X607817Y279524D01*
X607451Y279019D01*
X607074Y278523D01*
X606684Y278036D01*
X606283Y277559D01*
X605870Y277092D01*
X605446Y276636D01*
X605011Y276189D01*
X604564Y275754D01*
X604108Y275330D01*
X603641Y274917D01*
X603164Y274516D01*
X602677Y274126D01*
X602181Y273749D01*
X601676Y273383D01*
X601161Y273031D01*
X600639Y272691D01*
X600108Y272364D01*
X599570Y272050D01*
X599023Y271749D01*
X598470Y271462D01*
X597910Y271189D01*
X597343Y270929D01*
X596770Y270683D01*
X596191Y270452D01*
X595607Y270235D01*
X595018Y270032D01*
X594423Y269844D01*
X593825Y269670D01*
X593222Y269511D01*
X592615Y269367D01*
X592005Y269238D01*
X591392Y269124D01*
X590777Y269025D01*
X590159Y268941D01*
X589540Y268872D01*
X588919Y268819D01*
X588296Y268781D01*
X587673Y268758D01*
X587050Y268750D01*
X586427Y268758D01*
X585804Y268781D01*
X585181Y268819D01*
X584560Y268872D01*
X583941Y268941D01*
X583323Y269025D01*
X582708Y269124D01*
X582095Y269238D01*
X581485Y269367D01*
X580878Y269511D01*
X580275Y269670D01*
X579677Y269844D01*
X579082Y270032D01*
X578493Y270235D01*
X577909Y270452D01*
X577330Y270683D01*
X576757Y270929D01*
X576190Y271189D01*
X575630Y271462D01*
X575077Y271749D01*
X574530Y272050D01*
X573992Y272364D01*
X573461Y272691D01*
X572939Y273031D01*
X572424Y273383D01*
X571919Y273749D01*
X571423Y274126D01*
X570936Y274516D01*
X570459Y274917D01*
X569992Y275330D01*
X569536Y275754D01*
X569089Y276189D01*
X568654Y276636D01*
X568230Y277092D01*
X567817Y277559D01*
X567416Y278036D01*
X567026Y278523D01*
X566649Y279019D01*
X566283Y279524D01*
X565931Y280039D01*
X565591Y280561D01*
X565264Y281092D01*
X564950Y281630D01*
X564649Y282177D01*
X564362Y282730D01*
X564089Y283290D01*
X563829Y283857D01*
X563583Y284430D01*
X563352Y285009D01*
X563135Y285593D01*
X562932Y286182D01*
X562744Y286777D01*
X562570Y287375D01*
X562411Y287978D01*
X562267Y288585D01*
X562138Y289195D01*
X562024Y289808D01*
X561925Y290423D01*
X561841Y291041D01*
X561772Y291660D01*
X561719Y292281D01*
X561681Y292904D01*
X561658Y293527D01*
X561650Y294150D01*
D11*
X591540Y325581D02*
X618481Y298640D01*
D12*
X618581Y297869D01*
X618663Y297096D01*
X618726Y296321D01*
X618769Y295544D01*
X618794Y294767D01*
X618800Y293990D01*
X618786Y293212D01*
X618754Y292435D01*
X618702Y291659D01*
X618632Y290885D01*
X618542Y290113D01*
X618434Y289343D01*
X618307Y288576D01*
X618161Y287812D01*
X617996Y287052D01*
X617813Y286296D01*
X617612Y285545D01*
X617392Y284799D01*
X617154Y284059D01*
X616898Y283325D01*
X616624Y282597D01*
X616332Y281876D01*
X616022Y281163D01*
X615696Y280457D01*
X615352Y279760D01*
X614991Y279071D01*
X614613Y278392D01*
X614219Y277721D01*
X613809Y277061D01*
X613382Y276411D01*
X612940Y275771D01*
X612482Y275143D01*
X612009Y274526D01*
X611521Y273920D01*
X611018Y273327D01*
X610501Y272746D01*
X609970Y272179D01*
X609425Y271624D01*
X608867Y271083D01*
X608295Y270555D01*
X607711Y270042D01*
X607114Y269543D01*
X606506Y269060D01*
X605886Y268591D01*
X605254Y268137D01*
X604612Y267699D01*
X603959Y267277D01*
X603295Y266871D01*
X602622Y266481D01*
X601940Y266108D01*
X601249Y265752D01*
X600549Y265413D01*
X599842Y265091D01*
X599126Y264786D01*
X598403Y264499D01*
X597674Y264230D01*
X596938Y263979D01*
X596196Y263746D01*
X595449Y263531D01*
X594697Y263335D01*
X593940Y263157D01*
X593179Y262997D01*
X592414Y262856D01*
X591646Y262734D01*
X590875Y262631D01*
X590102Y262547D01*
X589327Y262482D01*
X588551Y262436D01*
X587774Y262408D01*
X586997Y262400D01*
X586219Y262411D01*
X585442Y262441D01*
X584666Y262490D01*
X583891Y262558D01*
X583119Y262644D01*
X582348Y262750D01*
X581581Y262875D01*
X580817Y263018D01*
X580056Y263180D01*
X579300Y263360D01*
X578548Y263559D01*
X577802Y263777D01*
X577060Y264012D01*
X576325Y264266D01*
X575597Y264538D01*
X574875Y264827D01*
X574161Y265134D01*
X573454Y265458D01*
X572755Y265800D01*
X572065Y266158D01*
X571385Y266534D01*
X570713Y266926D01*
X570051Y267334D01*
X569400Y267758D01*
X568759Y268198D01*
X568128Y268654D01*
X567510Y269125D01*
X566903Y269611D01*
X566308Y270112D01*
X565726Y270627D01*
X565156Y271156D01*
X564599Y271699D01*
X564056Y272256D01*
X563527Y272826D01*
X563012Y273408D01*
X562511Y274003D01*
X562025Y274610D01*
X561554Y275228D01*
X561098Y275859D01*
X560658Y276500D01*
X560234Y277151D01*
X559826Y277813D01*
X559434Y278485D01*
X559058Y279165D01*
X558700Y279855D01*
X558358Y280554D01*
X558034Y281261D01*
X557727Y281975D01*
X557438Y282697D01*
X557166Y283425D01*
X556912Y284160D01*
X556677Y284902D01*
X556459Y285648D01*
X556260Y286400D01*
X556080Y287156D01*
X555918Y287917D01*
X555775Y288681D01*
X555650Y289448D01*
X555544Y290219D01*
X555458Y290991D01*
X555390Y291766D01*
X555341Y292542D01*
X555311Y293319D01*
X555300Y294097D01*
X555308Y294874D01*
X555336Y295651D01*
X555382Y296427D01*
X555447Y297202D01*
X555531Y297975D01*
X555634Y298746D01*
X555756Y299514D01*
X555897Y300279D01*
X556057Y301040D01*
X556235Y301797D01*
X556431Y302549D01*
X556646Y303296D01*
X556879Y304038D01*
X557130Y304774D01*
X557399Y305503D01*
X557686Y306226D01*
X557991Y306942D01*
X558313Y307649D01*
X558652Y308349D01*
X559008Y309040D01*
X559381Y309722D01*
X559771Y310395D01*
X560177Y311059D01*
X560599Y311712D01*
X561037Y312354D01*
X561491Y312986D01*
X561960Y313606D01*
X562443Y314214D01*
X562942Y314811D01*
X563455Y315395D01*
X563983Y315967D01*
X564524Y316525D01*
X565079Y317070D01*
X565646Y317601D01*
X566227Y318118D01*
X566820Y318621D01*
X567426Y319109D01*
X568043Y319582D01*
X568671Y320040D01*
X569311Y320482D01*
X569961Y320909D01*
X570621Y321319D01*
X571292Y321713D01*
X571971Y322091D01*
X572660Y322452D01*
X573357Y322796D01*
X574063Y323122D01*
X574776Y323432D01*
X575497Y323724D01*
X576225Y323998D01*
X576959Y324254D01*
X577699Y324492D01*
X578445Y324712D01*
X579196Y324913D01*
X579952Y325096D01*
X580712Y325261D01*
X581476Y325407D01*
X582243Y325534D01*
X583013Y325642D01*
X583785Y325732D01*
X584559Y325802D01*
X585335Y325854D01*
X586112Y325886D01*
X586890Y325900D01*
X587667Y325894D01*
X588444Y325869D01*
X589221Y325826D01*
X589996Y325763D01*
X590769Y325681D01*
X591540Y325581D01*
D10*
X-5588Y663128D02*
X-8128Y665668D01*
X-5588Y663128D02*
X-8128Y660588D01*
X14732Y663128D02*
X17272Y665668D01*
X14732Y663128D02*
X17272Y660588D01*
X17272Y640268D01*
X14732Y637728D01*
X17272Y685988D02*
X14732Y688528D01*
X17272Y685988D02*
X17272Y665668D01*
X14732Y688528D02*
X-5588Y688528D01*
X-8128Y685988D01*
X-8128Y665668D01*
X-8128Y660588D02*
X-8128Y640268D01*
X-5588Y637728D01*
X14732Y637728D01*
D13*
G36*
X503215Y223306D02*
X505513Y221008D01*
X502509Y218004D01*
X500211Y220302D01*
X503215Y223306D01*
G37*
G36*
X493492Y233029D02*
X495790Y230731D01*
X492786Y227727D01*
X490488Y230025D01*
X493492Y233029D01*
G37*
D14*
G36*
X500741Y230731D02*
X503215Y228257D01*
X500741Y225783D01*
X498267Y228257D01*
X500741Y230731D01*
G37*
D13*
G36*
X491360Y646181D02*
X489062Y643883D01*
X486058Y646887D01*
X488356Y649185D01*
X491360Y646181D01*
G37*
G36*
X501083Y655904D02*
X498785Y653606D01*
X495781Y656610D01*
X498079Y658908D01*
X501083Y655904D01*
G37*
D14*
G36*
X498785Y648655D02*
X496311Y646181D01*
X493837Y648655D01*
X496311Y651129D01*
X498785Y648655D01*
G37*
D11*
X517500Y321132D02*
X538500Y321132D01*
X499000Y334632D02*
X499000Y340632D01*
X517500Y354132D02*
X538500Y354132D01*
X557000Y340632D02*
X557000Y334632D01*
D15*
X548500Y339632D03*
D10*
X762442Y456758D02*
X775650Y456758D01*
X762442Y456758D02*
X762442Y485206D01*
X775650Y485206D01*
X775650Y456758D01*
X756902Y399712D02*
X743694Y399712D01*
X756902Y399712D02*
X756902Y371264D01*
X743694Y371264D01*
X743694Y399712D01*
D11*
X411525Y168502D02*
X372634Y207393D01*
X385009Y224717D02*
X399151Y238859D01*
X416475Y251234D02*
X455366Y212343D01*
X442991Y195019D02*
X428849Y180877D01*
X396500Y209868D02*
X396505Y210297D01*
X396521Y210727D01*
X396547Y211155D01*
X396584Y211583D01*
X396632Y212010D01*
X396689Y212436D01*
X396758Y212860D01*
X396836Y213282D01*
X396925Y213702D01*
X397024Y214120D01*
X397134Y214535D01*
X397254Y214948D01*
X397383Y215357D01*
X397523Y215764D01*
X397673Y216166D01*
X397832Y216565D01*
X398001Y216960D01*
X398180Y217350D01*
X398369Y217736D01*
X398566Y218117D01*
X398773Y218494D01*
X398990Y218865D01*
X399215Y219230D01*
X399449Y219590D01*
X399692Y219945D01*
X399944Y220293D01*
X400204Y220635D01*
X400472Y220970D01*
X400749Y221299D01*
X401033Y221620D01*
X401326Y221935D01*
X401626Y222242D01*
X401933Y222542D01*
X402248Y222835D01*
X402569Y223119D01*
X402898Y223396D01*
X403233Y223664D01*
X403575Y223924D01*
X403923Y224176D01*
X404278Y224419D01*
X404638Y224653D01*
X405003Y224878D01*
X405374Y225095D01*
X405751Y225302D01*
X406132Y225499D01*
X406518Y225688D01*
X406908Y225867D01*
X407303Y226036D01*
X407702Y226195D01*
X408104Y226345D01*
X408511Y226485D01*
X408920Y226614D01*
X409333Y226734D01*
X409748Y226844D01*
X410166Y226943D01*
X410586Y227032D01*
X411008Y227110D01*
X411432Y227179D01*
X411858Y227236D01*
X412285Y227284D01*
X412713Y227321D01*
X413141Y227347D01*
X413571Y227363D01*
X414000Y227368D01*
X414429Y227363D01*
X414859Y227347D01*
X415287Y227321D01*
X415715Y227284D01*
X416142Y227236D01*
X416568Y227179D01*
X416992Y227110D01*
X417414Y227032D01*
X417834Y226943D01*
X418252Y226844D01*
X418667Y226734D01*
X419080Y226614D01*
X419489Y226485D01*
X419896Y226345D01*
X420298Y226195D01*
X420697Y226036D01*
X421092Y225867D01*
X421482Y225688D01*
X421868Y225499D01*
X422249Y225302D01*
X422626Y225095D01*
X422997Y224878D01*
X423362Y224653D01*
X423722Y224419D01*
X424077Y224176D01*
X424425Y223924D01*
X424767Y223664D01*
X425102Y223396D01*
X425431Y223119D01*
X425752Y222835D01*
X426067Y222542D01*
X426374Y222242D01*
X426674Y221935D01*
X426967Y221620D01*
X427251Y221299D01*
X427528Y220970D01*
X427796Y220635D01*
X428056Y220293D01*
X428308Y219945D01*
X428551Y219590D01*
X428785Y219230D01*
X429010Y218865D01*
X429227Y218494D01*
X429434Y218117D01*
X429631Y217736D01*
X429820Y217350D01*
X429999Y216960D01*
X430168Y216565D01*
X430327Y216166D01*
X430477Y215764D01*
X430617Y215357D01*
X430746Y214948D01*
X430866Y214535D01*
X430976Y214120D01*
X431075Y213702D01*
X431164Y213282D01*
X431242Y212860D01*
X431311Y212436D01*
X431368Y212010D01*
X431416Y211583D01*
X431453Y211155D01*
X431479Y210727D01*
X431495Y210297D01*
X431500Y209868D01*
X431495Y209439D01*
X431479Y209009D01*
X431453Y208581D01*
X431416Y208153D01*
X431368Y207726D01*
X431311Y207300D01*
X431242Y206876D01*
X431164Y206454D01*
X431075Y206034D01*
X430976Y205616D01*
X430866Y205201D01*
X430746Y204788D01*
X430617Y204379D01*
X430477Y203972D01*
X430327Y203570D01*
X430168Y203171D01*
X429999Y202776D01*
X429820Y202386D01*
X429631Y202000D01*
X429434Y201619D01*
X429227Y201242D01*
X429010Y200871D01*
X428785Y200506D01*
X428551Y200146D01*
X428308Y199791D01*
X428056Y199443D01*
X427796Y199101D01*
X427528Y198766D01*
X427251Y198437D01*
X426967Y198116D01*
X426674Y197801D01*
X426374Y197494D01*
X426067Y197194D01*
X425752Y196901D01*
X425431Y196617D01*
X425102Y196340D01*
X424767Y196072D01*
X424425Y195812D01*
X424077Y195560D01*
X423722Y195317D01*
X423362Y195083D01*
X422997Y194858D01*
X422626Y194641D01*
X422249Y194434D01*
X421868Y194237D01*
X421482Y194048D01*
X421092Y193869D01*
X420697Y193700D01*
X420298Y193541D01*
X419896Y193391D01*
X419489Y193251D01*
X419080Y193122D01*
X418667Y193002D01*
X418252Y192892D01*
X417834Y192793D01*
X417414Y192704D01*
X416992Y192626D01*
X416568Y192557D01*
X416142Y192500D01*
X415715Y192452D01*
X415287Y192415D01*
X414859Y192389D01*
X414429Y192373D01*
X414000Y192368D01*
X413571Y192373D01*
X413141Y192389D01*
X412713Y192415D01*
X412285Y192452D01*
X411858Y192500D01*
X411432Y192557D01*
X411008Y192626D01*
X410586Y192704D01*
X410166Y192793D01*
X409748Y192892D01*
X409333Y193002D01*
X408920Y193122D01*
X408511Y193251D01*
X408104Y193391D01*
X407702Y193541D01*
X407303Y193700D01*
X406908Y193869D01*
X406518Y194048D01*
X406132Y194237D01*
X405751Y194434D01*
X405374Y194641D01*
X405003Y194858D01*
X404638Y195083D01*
X404278Y195317D01*
X403923Y195560D01*
X403575Y195812D01*
X403233Y196072D01*
X402898Y196340D01*
X402569Y196617D01*
X402248Y196901D01*
X401933Y197194D01*
X401626Y197494D01*
X401326Y197801D01*
X401033Y198116D01*
X400749Y198437D01*
X400472Y198766D01*
X400204Y199101D01*
X399944Y199443D01*
X399692Y199791D01*
X399449Y200146D01*
X399215Y200506D01*
X398990Y200871D01*
X398773Y201242D01*
X398566Y201619D01*
X398369Y202000D01*
X398180Y202386D01*
X398001Y202776D01*
X397832Y203171D01*
X397673Y203570D01*
X397523Y203972D01*
X397383Y204379D01*
X397254Y204788D01*
X397134Y205201D01*
X397024Y205616D01*
X396925Y206034D01*
X396836Y206454D01*
X396758Y206876D01*
X396689Y207300D01*
X396632Y207726D01*
X396584Y208153D01*
X396547Y208581D01*
X396521Y209009D01*
X396505Y209439D01*
X396500Y209868D01*
D16*
X370667Y198600D02*
X362406Y190339D01*
X370667Y198600D02*
X372962Y196306D01*
X373041Y196225D01*
X373117Y196141D01*
X373190Y196054D01*
X373259Y195964D01*
X373326Y195873D01*
X373389Y195779D01*
X373449Y195683D01*
X373506Y195585D01*
X373559Y195485D01*
X373609Y195383D01*
X373655Y195279D01*
X373697Y195174D01*
X373736Y195068D01*
X373771Y194960D01*
X373802Y194851D01*
X373830Y194741D01*
X373853Y194630D01*
X373873Y194519D01*
X373889Y194407D01*
X373901Y194294D01*
X373909Y194181D01*
X373913Y194068D01*
X373913Y193954D01*
X373909Y193841D01*
X373901Y193728D01*
X373889Y193615D01*
X373873Y193503D01*
X373853Y193392D01*
X373830Y193281D01*
X373802Y193171D01*
X373771Y193062D01*
X373736Y192954D01*
X373697Y192848D01*
X373655Y192743D01*
X373609Y192639D01*
X373559Y192537D01*
X373506Y192437D01*
X373449Y192339D01*
X373389Y192243D01*
X373326Y192149D01*
X373259Y192058D01*
X373190Y191968D01*
X373117Y191881D01*
X373041Y191797D01*
X372962Y191716D01*
X372881Y191637D01*
X372797Y191561D01*
X372710Y191488D01*
X372620Y191419D01*
X372529Y191352D01*
X372435Y191289D01*
X372339Y191229D01*
X372241Y191172D01*
X372141Y191119D01*
X372039Y191069D01*
X371935Y191023D01*
X371830Y190981D01*
X371724Y190942D01*
X371616Y190907D01*
X371507Y190876D01*
X371397Y190848D01*
X371286Y190825D01*
X371175Y190805D01*
X371063Y190789D01*
X370950Y190777D01*
X370837Y190769D01*
X370724Y190765D01*
X370610Y190765D01*
X370497Y190769D01*
X370384Y190777D01*
X370271Y190789D01*
X370159Y190805D01*
X370048Y190825D01*
X369937Y190848D01*
X369827Y190876D01*
X369718Y190907D01*
X369610Y190942D01*
X369504Y190981D01*
X369399Y191023D01*
X369295Y191069D01*
X369193Y191119D01*
X369093Y191172D01*
X368995Y191229D01*
X368899Y191289D01*
X368805Y191352D01*
X368714Y191419D01*
X368624Y191488D01*
X368537Y191561D01*
X368453Y191637D01*
X368372Y191716D01*
X366078Y194011D01*
X368831Y191257D02*
X366996Y185749D01*
X370721Y182023D02*
X374393Y178351D01*
X370721Y182023D02*
X378983Y190285D01*
X382655Y186613D01*
X378065Y183859D02*
X375311Y186613D01*
X379925Y172819D02*
X379997Y172750D01*
X380071Y172684D01*
X380148Y172621D01*
X380227Y172561D01*
X380308Y172503D01*
X380392Y172449D01*
X380477Y172399D01*
X380565Y172351D01*
X380654Y172307D01*
X380745Y172266D01*
X380837Y172229D01*
X380930Y172195D01*
X381025Y172165D01*
X381121Y172139D01*
X381218Y172116D01*
X381316Y172097D01*
X381414Y172082D01*
X381513Y172071D01*
X381612Y172063D01*
X381711Y172059D01*
X381811Y172059D01*
X381910Y172063D01*
X382009Y172071D01*
X382108Y172082D01*
X382206Y172097D01*
X382304Y172116D01*
X382401Y172139D01*
X382497Y172165D01*
X382592Y172195D01*
X382685Y172229D01*
X382777Y172266D01*
X382868Y172307D01*
X382957Y172351D01*
X383045Y172399D01*
X383130Y172449D01*
X383214Y172503D01*
X383295Y172561D01*
X383374Y172621D01*
X383451Y172684D01*
X383525Y172750D01*
X383597Y172819D01*
X379925Y172820D02*
X379825Y172923D01*
X379727Y173029D01*
X379632Y173138D01*
X379539Y173249D01*
X379450Y173362D01*
X379364Y173478D01*
X379281Y173596D01*
X379201Y173716D01*
X379124Y173838D01*
X379050Y173962D01*
X378980Y174088D01*
X378913Y174216D01*
X378849Y174346D01*
X378789Y174477D01*
X378732Y174610D01*
X378679Y174744D01*
X378629Y174879D01*
X378583Y175016D01*
X378541Y175154D01*
X378502Y175293D01*
X378467Y175433D01*
X378435Y175574D01*
X378408Y175716D01*
X378384Y175858D01*
X378363Y176001D01*
X378347Y176144D01*
X378334Y176288D01*
X378325Y176432D01*
X378320Y176576D01*
X378319Y176721D01*
X383826Y181770D02*
X383898Y181839D01*
X383972Y181905D01*
X384049Y181968D01*
X384128Y182028D01*
X384209Y182086D01*
X384293Y182140D01*
X384378Y182190D01*
X384466Y182238D01*
X384555Y182282D01*
X384646Y182323D01*
X384738Y182360D01*
X384831Y182394D01*
X384926Y182424D01*
X385022Y182450D01*
X385119Y182473D01*
X385217Y182492D01*
X385315Y182507D01*
X385414Y182518D01*
X385513Y182526D01*
X385612Y182530D01*
X385712Y182530D01*
X385811Y182526D01*
X385910Y182518D01*
X386009Y182507D01*
X386107Y182492D01*
X386205Y182473D01*
X386302Y182450D01*
X386398Y182424D01*
X386493Y182394D01*
X386586Y182360D01*
X386678Y182323D01*
X386769Y182282D01*
X386858Y182238D01*
X386946Y182190D01*
X387031Y182140D01*
X387115Y182086D01*
X387196Y182028D01*
X387275Y181968D01*
X387352Y181905D01*
X387426Y181839D01*
X387498Y181770D01*
X387593Y181672D01*
X387685Y181572D01*
X387775Y181469D01*
X387861Y181364D01*
X387944Y181256D01*
X388025Y181146D01*
X388102Y181034D01*
X388176Y180920D01*
X388247Y180803D01*
X388315Y180685D01*
X388379Y180565D01*
X388440Y180443D01*
X388497Y180320D01*
X388551Y180195D01*
X388602Y180068D01*
X388649Y179940D01*
X388692Y179811D01*
X388732Y179681D01*
X388768Y179550D01*
X388800Y179417D01*
X388829Y179284D01*
X388854Y179150D01*
X388875Y179016D01*
X383138Y179245D02*
X383114Y179344D01*
X383095Y179443D01*
X383079Y179543D01*
X383067Y179644D01*
X383059Y179745D01*
X383055Y179847D01*
X383054Y179948D01*
X383058Y180049D01*
X383065Y180150D01*
X383077Y180251D01*
X383092Y180351D01*
X383111Y180451D01*
X383134Y180550D01*
X383161Y180648D01*
X383191Y180744D01*
X383225Y180840D01*
X383263Y180934D01*
X383304Y181027D01*
X383349Y181117D01*
X383398Y181207D01*
X383449Y181294D01*
X383504Y181379D01*
X383563Y181462D01*
X383624Y181543D01*
X383689Y181621D01*
X383756Y181697D01*
X383826Y181770D01*
X384285Y175344D02*
X384309Y175245D01*
X384328Y175146D01*
X384344Y175046D01*
X384356Y174945D01*
X384364Y174844D01*
X384368Y174742D01*
X384369Y174641D01*
X384365Y174540D01*
X384358Y174439D01*
X384346Y174338D01*
X384331Y174238D01*
X384312Y174138D01*
X384289Y174039D01*
X384262Y173941D01*
X384232Y173845D01*
X384198Y173749D01*
X384160Y173655D01*
X384119Y173562D01*
X384074Y173472D01*
X384025Y173382D01*
X383974Y173295D01*
X383919Y173210D01*
X383860Y173127D01*
X383799Y173046D01*
X383734Y172968D01*
X383667Y172892D01*
X383597Y172819D01*
X384285Y175344D02*
X383138Y179245D01*
X385269Y167475D02*
X388941Y163803D01*
X385269Y167475D02*
X393531Y175737D01*
X397203Y172065D01*
X392613Y169311D02*
X389859Y172065D01*
X402006Y167262D02*
X393744Y159000D01*
X399711Y169556D02*
X404301Y164967D01*
D10*
X406842Y329676D02*
X402891Y333627D01*
X307700Y428818D02*
X311651Y432769D01*
X406842Y527960D02*
X410793Y524009D01*
X410973Y338836D02*
X402711Y338836D01*
X502033Y432769D02*
X505984Y428818D01*
X406842Y527960D02*
X402891Y524009D01*
X307700Y428818D02*
X311651Y424867D01*
X406842Y329676D02*
X410793Y333627D01*
X502033Y424867D02*
X505984Y428818D01*
D17*
X426484Y317298D02*
X423670Y314484D01*
X426484Y317298D02*
X426953Y321050D01*
X426484Y317298D02*
X430236Y317767D01*
X426484Y317298D02*
X422966Y318940D01*
X426484Y317298D02*
X428125Y313781D01*
D11*
X424150Y277705D02*
X463041Y238814D01*
X436525Y295029D02*
X450667Y309171D01*
X467991Y321546D02*
X506882Y282655D01*
X494507Y265331D02*
X480365Y251189D01*
X448016Y280180D02*
X448021Y280609D01*
X448037Y281039D01*
X448063Y281467D01*
X448100Y281895D01*
X448148Y282322D01*
X448205Y282748D01*
X448274Y283172D01*
X448352Y283594D01*
X448441Y284014D01*
X448540Y284432D01*
X448650Y284847D01*
X448770Y285260D01*
X448899Y285669D01*
X449039Y286076D01*
X449189Y286478D01*
X449348Y286877D01*
X449517Y287272D01*
X449696Y287662D01*
X449885Y288048D01*
X450082Y288429D01*
X450289Y288806D01*
X450506Y289177D01*
X450731Y289542D01*
X450965Y289902D01*
X451208Y290257D01*
X451460Y290605D01*
X451720Y290947D01*
X451988Y291282D01*
X452265Y291611D01*
X452549Y291932D01*
X452842Y292247D01*
X453142Y292554D01*
X453449Y292854D01*
X453764Y293147D01*
X454085Y293431D01*
X454414Y293708D01*
X454749Y293976D01*
X455091Y294236D01*
X455439Y294488D01*
X455794Y294731D01*
X456154Y294965D01*
X456519Y295190D01*
X456890Y295407D01*
X457267Y295614D01*
X457648Y295811D01*
X458034Y296000D01*
X458424Y296179D01*
X458819Y296348D01*
X459218Y296507D01*
X459620Y296657D01*
X460027Y296797D01*
X460436Y296926D01*
X460849Y297046D01*
X461264Y297156D01*
X461682Y297255D01*
X462102Y297344D01*
X462524Y297422D01*
X462948Y297491D01*
X463374Y297548D01*
X463801Y297596D01*
X464229Y297633D01*
X464657Y297659D01*
X465087Y297675D01*
X465516Y297680D01*
X465945Y297675D01*
X466375Y297659D01*
X466803Y297633D01*
X467231Y297596D01*
X467658Y297548D01*
X468084Y297491D01*
X468508Y297422D01*
X468930Y297344D01*
X469350Y297255D01*
X469768Y297156D01*
X470183Y297046D01*
X470596Y296926D01*
X471005Y296797D01*
X471412Y296657D01*
X471814Y296507D01*
X472213Y296348D01*
X472608Y296179D01*
X472998Y296000D01*
X473384Y295811D01*
X473765Y295614D01*
X474142Y295407D01*
X474513Y295190D01*
X474878Y294965D01*
X475238Y294731D01*
X475593Y294488D01*
X475941Y294236D01*
X476283Y293976D01*
X476618Y293708D01*
X476947Y293431D01*
X477268Y293147D01*
X477583Y292854D01*
X477890Y292554D01*
X478190Y292247D01*
X478483Y291932D01*
X478767Y291611D01*
X479044Y291282D01*
X479312Y290947D01*
X479572Y290605D01*
X479824Y290257D01*
X480067Y289902D01*
X480301Y289542D01*
X480526Y289177D01*
X480743Y288806D01*
X480950Y288429D01*
X481147Y288048D01*
X481336Y287662D01*
X481515Y287272D01*
X481684Y286877D01*
X481843Y286478D01*
X481993Y286076D01*
X482133Y285669D01*
X482262Y285260D01*
X482382Y284847D01*
X482492Y284432D01*
X482591Y284014D01*
X482680Y283594D01*
X482758Y283172D01*
X482827Y282748D01*
X482884Y282322D01*
X482932Y281895D01*
X482969Y281467D01*
X482995Y281039D01*
X483011Y280609D01*
X483016Y280180D01*
X483011Y279751D01*
X482995Y279321D01*
X482969Y278893D01*
X482932Y278465D01*
X482884Y278038D01*
X482827Y277612D01*
X482758Y277188D01*
X482680Y276766D01*
X482591Y276346D01*
X482492Y275928D01*
X482382Y275513D01*
X482262Y275100D01*
X482133Y274691D01*
X481993Y274284D01*
X481843Y273882D01*
X481684Y273483D01*
X481515Y273088D01*
X481336Y272698D01*
X481147Y272312D01*
X480950Y271931D01*
X480743Y271554D01*
X480526Y271183D01*
X480301Y270818D01*
X480067Y270458D01*
X479824Y270103D01*
X479572Y269755D01*
X479312Y269413D01*
X479044Y269078D01*
X478767Y268749D01*
X478483Y268428D01*
X478190Y268113D01*
X477890Y267806D01*
X477583Y267506D01*
X477268Y267213D01*
X476947Y266929D01*
X476618Y266652D01*
X476283Y266384D01*
X475941Y266124D01*
X475593Y265872D01*
X475238Y265629D01*
X474878Y265395D01*
X474513Y265170D01*
X474142Y264953D01*
X473765Y264746D01*
X473384Y264549D01*
X472998Y264360D01*
X472608Y264181D01*
X472213Y264012D01*
X471814Y263853D01*
X471412Y263703D01*
X471005Y263563D01*
X470596Y263434D01*
X470183Y263314D01*
X469768Y263204D01*
X469350Y263105D01*
X468930Y263016D01*
X468508Y262938D01*
X468084Y262869D01*
X467658Y262812D01*
X467231Y262764D01*
X466803Y262727D01*
X466375Y262701D01*
X465945Y262685D01*
X465516Y262680D01*
X465087Y262685D01*
X464657Y262701D01*
X464229Y262727D01*
X463801Y262764D01*
X463374Y262812D01*
X462948Y262869D01*
X462524Y262938D01*
X462102Y263016D01*
X461682Y263105D01*
X461264Y263204D01*
X460849Y263314D01*
X460436Y263434D01*
X460027Y263563D01*
X459620Y263703D01*
X459218Y263853D01*
X458819Y264012D01*
X458424Y264181D01*
X458034Y264360D01*
X457648Y264549D01*
X457267Y264746D01*
X456890Y264953D01*
X456519Y265170D01*
X456154Y265395D01*
X455794Y265629D01*
X455439Y265872D01*
X455091Y266124D01*
X454749Y266384D01*
X454414Y266652D01*
X454085Y266929D01*
X453764Y267213D01*
X453449Y267506D01*
X453142Y267806D01*
X452842Y268113D01*
X452549Y268428D01*
X452265Y268749D01*
X451988Y269078D01*
X451720Y269413D01*
X451460Y269755D01*
X451208Y270103D01*
X450965Y270458D01*
X450731Y270818D01*
X450506Y271183D01*
X450289Y271554D01*
X450082Y271931D01*
X449885Y272312D01*
X449696Y272698D01*
X449517Y273088D01*
X449348Y273483D01*
X449189Y273882D01*
X449039Y274284D01*
X448899Y274691D01*
X448770Y275100D01*
X448650Y275513D01*
X448540Y275928D01*
X448441Y276346D01*
X448352Y276766D01*
X448274Y277188D01*
X448205Y277612D01*
X448148Y278038D01*
X448100Y278465D01*
X448063Y278893D01*
X448037Y279321D01*
X448021Y279751D01*
X448016Y280180D01*
D16*
X428006Y263090D02*
X422039Y257123D01*
X421960Y257042D01*
X421884Y256958D01*
X421811Y256871D01*
X421742Y256781D01*
X421675Y256690D01*
X421612Y256596D01*
X421552Y256500D01*
X421495Y256402D01*
X421442Y256302D01*
X421392Y256200D01*
X421346Y256096D01*
X421304Y255991D01*
X421265Y255885D01*
X421230Y255777D01*
X421199Y255668D01*
X421171Y255558D01*
X421148Y255447D01*
X421128Y255336D01*
X421112Y255224D01*
X421100Y255111D01*
X421092Y254998D01*
X421088Y254885D01*
X421088Y254771D01*
X421092Y254658D01*
X421100Y254545D01*
X421112Y254432D01*
X421128Y254320D01*
X421148Y254209D01*
X421171Y254098D01*
X421199Y253988D01*
X421230Y253879D01*
X421265Y253771D01*
X421304Y253665D01*
X421346Y253560D01*
X421392Y253456D01*
X421442Y253354D01*
X421495Y253254D01*
X421552Y253156D01*
X421612Y253060D01*
X421675Y252966D01*
X421742Y252875D01*
X421811Y252785D01*
X421884Y252698D01*
X421960Y252614D01*
X422039Y252533D01*
X422120Y252454D01*
X422204Y252378D01*
X422291Y252305D01*
X422381Y252236D01*
X422472Y252169D01*
X422566Y252106D01*
X422662Y252046D01*
X422760Y251989D01*
X422860Y251936D01*
X422962Y251886D01*
X423066Y251840D01*
X423171Y251798D01*
X423277Y251759D01*
X423385Y251724D01*
X423494Y251693D01*
X423604Y251665D01*
X423715Y251642D01*
X423826Y251622D01*
X423938Y251606D01*
X424051Y251594D01*
X424164Y251586D01*
X424277Y251582D01*
X424391Y251582D01*
X424504Y251586D01*
X424617Y251594D01*
X424730Y251606D01*
X424842Y251622D01*
X424953Y251642D01*
X425064Y251665D01*
X425174Y251693D01*
X425283Y251724D01*
X425391Y251759D01*
X425497Y251798D01*
X425602Y251840D01*
X425706Y251886D01*
X425808Y251936D01*
X425908Y251989D01*
X426006Y252046D01*
X426102Y252106D01*
X426196Y252169D01*
X426288Y252236D01*
X426377Y252305D01*
X426464Y252378D01*
X426548Y252454D01*
X426629Y252533D01*
X432596Y258500D01*
X434253Y243991D02*
X434181Y243922D01*
X434107Y243856D01*
X434030Y243793D01*
X433951Y243733D01*
X433870Y243675D01*
X433786Y243621D01*
X433701Y243571D01*
X433613Y243523D01*
X433524Y243479D01*
X433433Y243438D01*
X433341Y243401D01*
X433248Y243367D01*
X433153Y243337D01*
X433057Y243311D01*
X432960Y243288D01*
X432862Y243269D01*
X432764Y243254D01*
X432665Y243243D01*
X432566Y243235D01*
X432467Y243231D01*
X432367Y243231D01*
X432268Y243235D01*
X432169Y243243D01*
X432070Y243254D01*
X431972Y243269D01*
X431874Y243288D01*
X431777Y243311D01*
X431681Y243337D01*
X431586Y243367D01*
X431493Y243401D01*
X431401Y243438D01*
X431310Y243479D01*
X431221Y243523D01*
X431133Y243571D01*
X431048Y243621D01*
X430964Y243675D01*
X430883Y243733D01*
X430804Y243793D01*
X430727Y243856D01*
X430653Y243922D01*
X430581Y243991D01*
X430580Y243992D02*
X430480Y244095D01*
X430382Y244201D01*
X430287Y244310D01*
X430194Y244421D01*
X430105Y244534D01*
X430019Y244650D01*
X429936Y244768D01*
X429856Y244888D01*
X429779Y245010D01*
X429705Y245134D01*
X429635Y245260D01*
X429568Y245388D01*
X429504Y245518D01*
X429444Y245649D01*
X429387Y245782D01*
X429334Y245916D01*
X429284Y246051D01*
X429238Y246188D01*
X429196Y246326D01*
X429157Y246465D01*
X429122Y246605D01*
X429090Y246746D01*
X429063Y246888D01*
X429039Y247030D01*
X429018Y247173D01*
X429002Y247316D01*
X428989Y247460D01*
X428980Y247604D01*
X428975Y247748D01*
X428974Y247893D01*
X434482Y252942D02*
X434554Y253011D01*
X434628Y253077D01*
X434705Y253140D01*
X434784Y253200D01*
X434865Y253258D01*
X434949Y253312D01*
X435034Y253362D01*
X435122Y253410D01*
X435211Y253454D01*
X435302Y253495D01*
X435394Y253532D01*
X435487Y253566D01*
X435582Y253596D01*
X435678Y253622D01*
X435775Y253645D01*
X435873Y253664D01*
X435971Y253679D01*
X436070Y253690D01*
X436169Y253698D01*
X436268Y253702D01*
X436368Y253702D01*
X436467Y253698D01*
X436566Y253690D01*
X436665Y253679D01*
X436763Y253664D01*
X436861Y253645D01*
X436958Y253622D01*
X437054Y253596D01*
X437149Y253566D01*
X437242Y253532D01*
X437334Y253495D01*
X437425Y253454D01*
X437514Y253410D01*
X437602Y253362D01*
X437687Y253312D01*
X437771Y253258D01*
X437852Y253200D01*
X437931Y253140D01*
X438008Y253077D01*
X438082Y253011D01*
X438154Y252942D01*
X438249Y252844D01*
X438341Y252744D01*
X438431Y252641D01*
X438517Y252536D01*
X438600Y252428D01*
X438681Y252318D01*
X438758Y252206D01*
X438832Y252092D01*
X438903Y251975D01*
X438971Y251857D01*
X439035Y251737D01*
X439096Y251615D01*
X439153Y251492D01*
X439207Y251367D01*
X439258Y251240D01*
X439305Y251112D01*
X439348Y250983D01*
X439388Y250853D01*
X439424Y250722D01*
X439456Y250589D01*
X439485Y250456D01*
X439510Y250322D01*
X439531Y250188D01*
X433794Y250417D02*
X433770Y250516D01*
X433751Y250615D01*
X433735Y250715D01*
X433723Y250816D01*
X433715Y250917D01*
X433711Y251019D01*
X433710Y251120D01*
X433714Y251221D01*
X433721Y251322D01*
X433733Y251423D01*
X433748Y251523D01*
X433767Y251623D01*
X433790Y251722D01*
X433817Y251820D01*
X433847Y251916D01*
X433881Y252012D01*
X433919Y252106D01*
X433960Y252199D01*
X434005Y252289D01*
X434054Y252379D01*
X434105Y252466D01*
X434160Y252551D01*
X434219Y252634D01*
X434280Y252715D01*
X434345Y252793D01*
X434412Y252869D01*
X434482Y252942D01*
X434941Y246516D02*
X434965Y246417D01*
X434984Y246318D01*
X435000Y246218D01*
X435012Y246117D01*
X435020Y246016D01*
X435024Y245914D01*
X435025Y245813D01*
X435021Y245712D01*
X435014Y245611D01*
X435002Y245510D01*
X434987Y245410D01*
X434968Y245310D01*
X434945Y245211D01*
X434918Y245113D01*
X434888Y245017D01*
X434854Y244921D01*
X434816Y244827D01*
X434775Y244734D01*
X434730Y244644D01*
X434681Y244554D01*
X434630Y244467D01*
X434575Y244382D01*
X434516Y244299D01*
X434455Y244218D01*
X434390Y244140D01*
X434323Y244064D01*
X434253Y243991D01*
X434941Y246516D02*
X433793Y250418D01*
X435925Y238647D02*
X439597Y234975D01*
X435925Y238647D02*
X444187Y246909D01*
X447859Y243237D01*
X443269Y240483D02*
X440515Y243237D01*
X451227Y239869D02*
X442965Y231607D01*
X451227Y239869D02*
X453522Y237574D01*
X453601Y237493D01*
X453677Y237409D01*
X453750Y237322D01*
X453819Y237232D01*
X453886Y237141D01*
X453949Y237047D01*
X454009Y236951D01*
X454066Y236853D01*
X454119Y236753D01*
X454169Y236651D01*
X454215Y236547D01*
X454257Y236442D01*
X454296Y236336D01*
X454331Y236228D01*
X454362Y236119D01*
X454390Y236009D01*
X454413Y235898D01*
X454433Y235787D01*
X454449Y235675D01*
X454461Y235562D01*
X454469Y235449D01*
X454473Y235336D01*
X454473Y235222D01*
X454469Y235109D01*
X454461Y234996D01*
X454449Y234883D01*
X454433Y234771D01*
X454413Y234660D01*
X454390Y234549D01*
X454362Y234439D01*
X454331Y234330D01*
X454296Y234222D01*
X454257Y234116D01*
X454215Y234011D01*
X454169Y233907D01*
X454119Y233805D01*
X454066Y233705D01*
X454009Y233607D01*
X453949Y233511D01*
X453886Y233417D01*
X453819Y233326D01*
X453750Y233236D01*
X453677Y233149D01*
X453601Y233065D01*
X453522Y232984D01*
X453441Y232905D01*
X453357Y232829D01*
X453270Y232756D01*
X453180Y232687D01*
X453089Y232620D01*
X452995Y232557D01*
X452899Y232497D01*
X452801Y232440D01*
X452701Y232387D01*
X452599Y232337D01*
X452495Y232291D01*
X452390Y232249D01*
X452284Y232210D01*
X452176Y232175D01*
X452067Y232144D01*
X451957Y232116D01*
X451846Y232093D01*
X451735Y232073D01*
X451623Y232057D01*
X451510Y232045D01*
X451397Y232037D01*
X451284Y232033D01*
X451170Y232033D01*
X451057Y232037D01*
X450944Y232045D01*
X450831Y232057D01*
X450719Y232073D01*
X450608Y232093D01*
X450497Y232116D01*
X450387Y232144D01*
X450278Y232175D01*
X450170Y232210D01*
X450064Y232249D01*
X449959Y232291D01*
X449855Y232337D01*
X449753Y232387D01*
X449653Y232440D01*
X449555Y232497D01*
X449459Y232557D01*
X449365Y232620D01*
X449274Y232687D01*
X449184Y232756D01*
X449097Y232829D01*
X449013Y232905D01*
X448932Y232984D01*
X446637Y235279D01*
X449391Y232525D02*
X447555Y227017D01*
D10*
X227010Y555310D02*
X227010Y560136D01*
X227010Y506288D02*
X218882Y506288D01*
X173162Y506288D02*
X173162Y511114D01*
X173162Y560136D02*
X181290Y560136D01*
X227010Y511114D02*
X227010Y506288D01*
X227010Y560136D02*
X218882Y560136D01*
X173162Y560136D02*
X173162Y555310D01*
X173162Y506288D02*
X181290Y506288D01*
D11*
X122300Y528828D02*
X122300Y630328D01*
X107800Y514328D02*
X85300Y514328D01*
X56300Y514328D02*
X33800Y514328D01*
X19300Y528828D02*
X19300Y630328D01*
X56300Y630328D01*
X85300Y630328D02*
X122300Y630328D01*
X122300Y528828D02*
X107800Y514328D01*
X33800Y514328D02*
X19300Y528828D01*
X56800Y525328D02*
X55657Y525683D01*
X54523Y526067D01*
X53399Y526478D01*
X52286Y526916D01*
X51183Y527381D01*
X50092Y527874D01*
X49013Y528392D01*
X47948Y528937D01*
X46896Y529507D01*
X45858Y530104D01*
X44835Y530725D01*
X43827Y531371D01*
X42836Y532041D01*
X41861Y532736D01*
X40903Y533454D01*
X39964Y534195D01*
X39042Y534959D01*
X38140Y535745D01*
X37257Y536553D01*
X36394Y537382D01*
X35551Y538232D01*
X34730Y539102D01*
X33930Y539992D01*
X33151Y540902D01*
X32396Y541830D01*
X31663Y542776D01*
X30953Y543740D01*
X30268Y544721D01*
X29606Y545718D01*
X28969Y546731D01*
X28357Y547760D01*
X27770Y548803D01*
X27209Y549860D01*
X26673Y550931D01*
X26164Y552014D01*
X25682Y553109D01*
X25226Y554216D01*
X24798Y555333D01*
X24397Y556461D01*
X24023Y557598D01*
X23678Y558744D01*
X23360Y559898D01*
X23071Y561059D01*
X22810Y562227D01*
X22578Y563401D01*
X22375Y564581D01*
X22200Y565765D01*
X22054Y566953D01*
X21938Y568144D01*
X21850Y569338D01*
X21792Y570533D01*
X21763Y571730D01*
X21763Y572926D01*
X21792Y574123D01*
X21850Y575318D01*
X21938Y576512D01*
X22054Y577703D01*
X22200Y578891D01*
X22375Y580075D01*
X22578Y581255D01*
X22810Y582429D01*
X23071Y583597D01*
X23360Y584758D01*
X23678Y585912D01*
X24023Y587058D01*
X24397Y588195D01*
X24798Y589323D01*
X25226Y590440D01*
X25682Y591547D01*
X26164Y592642D01*
X26673Y593725D01*
X27209Y594796D01*
X27770Y595853D01*
X28357Y596896D01*
X28969Y597925D01*
X29606Y598938D01*
X30268Y599935D01*
X30953Y600916D01*
X31663Y601880D01*
X32396Y602826D01*
X33151Y603754D01*
X33930Y604664D01*
X34730Y605554D01*
X35551Y606424D01*
X36394Y607274D01*
X37257Y608103D01*
X38140Y608911D01*
X39042Y609697D01*
X39964Y610461D01*
X40903Y611202D01*
X41861Y611920D01*
X42836Y612615D01*
X43827Y613285D01*
X44835Y613931D01*
X45858Y614552D01*
X46896Y615149D01*
X47948Y615719D01*
X49013Y616264D01*
X50092Y616782D01*
X51183Y617275D01*
X52286Y617740D01*
X53399Y618178D01*
X54523Y618589D01*
X55657Y618973D01*
X56800Y619328D01*
X84800Y619328D02*
X85943Y618973D01*
X87077Y618589D01*
X88201Y618178D01*
X89314Y617740D01*
X90417Y617275D01*
X91508Y616782D01*
X92587Y616264D01*
X93652Y615719D01*
X94704Y615149D01*
X95742Y614552D01*
X96765Y613931D01*
X97773Y613285D01*
X98764Y612615D01*
X99739Y611920D01*
X100697Y611202D01*
X101636Y610461D01*
X102558Y609697D01*
X103460Y608911D01*
X104343Y608103D01*
X105206Y607274D01*
X106049Y606424D01*
X106870Y605554D01*
X107670Y604664D01*
X108449Y603754D01*
X109204Y602826D01*
X109937Y601880D01*
X110647Y600916D01*
X111332Y599935D01*
X111994Y598938D01*
X112631Y597925D01*
X113243Y596896D01*
X113830Y595853D01*
X114391Y594796D01*
X114927Y593725D01*
X115436Y592642D01*
X115918Y591547D01*
X116374Y590440D01*
X116802Y589323D01*
X117203Y588195D01*
X117577Y587058D01*
X117922Y585912D01*
X118240Y584758D01*
X118529Y583597D01*
X118790Y582429D01*
X119022Y581255D01*
X119225Y580075D01*
X119400Y578891D01*
X119546Y577703D01*
X119662Y576512D01*
X119750Y575318D01*
X119808Y574123D01*
X119837Y572926D01*
X119837Y571730D01*
X119808Y570533D01*
X119750Y569338D01*
X119662Y568144D01*
X119546Y566953D01*
X119400Y565765D01*
X119225Y564581D01*
X119022Y563401D01*
X118790Y562227D01*
X118529Y561059D01*
X118240Y559898D01*
X117922Y558744D01*
X117577Y557598D01*
X117203Y556461D01*
X116802Y555333D01*
X116374Y554216D01*
X115918Y553109D01*
X115436Y552014D01*
X114927Y550931D01*
X114391Y549860D01*
X113830Y548803D01*
X113243Y547760D01*
X112631Y546731D01*
X111994Y545718D01*
X111332Y544721D01*
X110647Y543740D01*
X109937Y542776D01*
X109204Y541830D01*
X108449Y540902D01*
X107670Y539992D01*
X106870Y539102D01*
X106049Y538232D01*
X105206Y537382D01*
X104343Y536553D01*
X103460Y535745D01*
X102558Y534959D01*
X101636Y534195D01*
X100697Y533454D01*
X99739Y532736D01*
X98764Y532041D01*
X97773Y531371D01*
X96765Y530725D01*
X95742Y530104D01*
X94704Y529507D01*
X93652Y528937D01*
X92587Y528392D01*
X91508Y527874D01*
X90417Y527381D01*
X89314Y526916D01*
X88201Y526478D01*
X87077Y526067D01*
X85943Y525683D01*
X84800Y525328D01*
D10*
X225486Y347030D02*
X225486Y342204D01*
X225486Y293182D02*
X217358Y293182D01*
X171638Y293182D02*
X171638Y298008D01*
X171638Y347030D02*
X179766Y347030D01*
X225486Y298008D02*
X225486Y293182D01*
X225486Y347030D02*
X217358Y347030D01*
X171638Y347030D02*
X171638Y342204D01*
X171638Y293182D02*
X179766Y293182D01*
X349692Y704662D02*
X349692Y717362D01*
X349692Y704662D02*
X343342Y698312D01*
X330642Y698312D02*
X324292Y704662D01*
X343342Y698312D02*
X349692Y691962D01*
X349692Y679262D01*
X343342Y672912D01*
X330642Y672912D02*
X324292Y679262D01*
X324292Y691962D01*
X330642Y698312D01*
X330642Y723712D02*
X343342Y723712D01*
X349692Y717362D01*
X330642Y723712D02*
X324292Y717362D01*
X324292Y704662D01*
X343342Y672912D02*
X349692Y666562D01*
X349692Y653862D01*
X343342Y647512D01*
X330642Y647512D02*
X324292Y653862D01*
X324292Y666562D01*
X330642Y672912D01*
X349692Y641162D02*
X349692Y628462D01*
X343342Y622112D01*
X330642Y622112D01*
X324292Y628462D01*
X343342Y647512D02*
X349692Y641162D01*
X330642Y647512D02*
X324292Y641162D01*
X324292Y628462D01*
D18*
X333817Y728157D02*
X331277Y731332D01*
X342707Y731332D01*
X342707Y728157D02*
X342707Y734507D01*
X331277Y615127D02*
X340167Y612587D01*
X340167Y618937D01*
X337627Y617032D02*
X342707Y617032D01*
X310000Y640000D02*
X310000Y740000D01*
X310000Y640000D02*
X210000Y640000D01*
X130000Y640000D01*
X30000Y640000D01*
X30000Y740000D01*
X310000Y740000D01*
X310000Y870000D01*
X30000Y870000D01*
X30000Y740000D01*
X310000Y740000D02*
X315000Y740000D01*
X320000Y740000D01*
X320000Y870000D01*
X310000Y870000D01*
X30000Y870000D02*
X20000Y870000D01*
X20000Y740000D01*
X25000Y740000D01*
X30000Y740000D01*
X25000Y740000D02*
X25000Y635000D01*
X315000Y635000D01*
X315000Y740000D01*
X210000Y640000D02*
X210000Y590000D01*
X130000Y590000D01*
X130000Y640000D01*
X30000Y220000D02*
X30000Y120000D01*
X30000Y220000D02*
X130000Y220000D01*
X210000Y220000D01*
X310000Y220000D01*
X310000Y120000D01*
X30000Y120000D01*
X30000Y-10000D01*
X310000Y-10000D01*
X310000Y120000D01*
X30000Y120000D02*
X25000Y120000D01*
X20000Y120000D01*
X20000Y-10000D01*
X30000Y-10000D01*
X310000Y-10000D02*
X320000Y-10000D01*
X320000Y120000D01*
X315000Y120000D01*
X310000Y120000D01*
X315000Y120000D02*
X315000Y225000D01*
X25000Y225000D01*
X25000Y120000D01*
X130000Y220000D02*
X130000Y270000D01*
X210000Y270000D01*
X210000Y220000D01*
D10*
X664600Y370000D02*
X664608Y370623D01*
X664631Y371246D01*
X664669Y371869D01*
X664722Y372490D01*
X664791Y373109D01*
X664875Y373727D01*
X664974Y374342D01*
X665088Y374955D01*
X665217Y375565D01*
X665361Y376172D01*
X665520Y376775D01*
X665694Y377373D01*
X665882Y377968D01*
X666085Y378557D01*
X666302Y379141D01*
X666533Y379720D01*
X666779Y380293D01*
X667039Y380860D01*
X667312Y381420D01*
X667599Y381973D01*
X667900Y382520D01*
X668214Y383058D01*
X668541Y383589D01*
X668881Y384111D01*
X669233Y384626D01*
X669599Y385131D01*
X669976Y385627D01*
X670366Y386114D01*
X670767Y386591D01*
X671180Y387058D01*
X671604Y387514D01*
X672039Y387961D01*
X672486Y388396D01*
X672942Y388820D01*
X673409Y389233D01*
X673886Y389634D01*
X674373Y390024D01*
X674869Y390401D01*
X675374Y390767D01*
X675889Y391119D01*
X676411Y391459D01*
X676942Y391786D01*
X677480Y392100D01*
X678027Y392401D01*
X678580Y392688D01*
X679140Y392961D01*
X679707Y393221D01*
X680280Y393467D01*
X680859Y393698D01*
X681443Y393915D01*
X682032Y394118D01*
X682627Y394306D01*
X683225Y394480D01*
X683828Y394639D01*
X684435Y394783D01*
X685045Y394912D01*
X685658Y395026D01*
X686273Y395125D01*
X686891Y395209D01*
X687510Y395278D01*
X688131Y395331D01*
X688754Y395369D01*
X689377Y395392D01*
X690000Y395400D01*
X690623Y395392D01*
X691246Y395369D01*
X691869Y395331D01*
X692490Y395278D01*
X693109Y395209D01*
X693727Y395125D01*
X694342Y395026D01*
X694955Y394912D01*
X695565Y394783D01*
X696172Y394639D01*
X696775Y394480D01*
X697373Y394306D01*
X697968Y394118D01*
X698557Y393915D01*
X699141Y393698D01*
X699720Y393467D01*
X700293Y393221D01*
X700860Y392961D01*
X701420Y392688D01*
X701973Y392401D01*
X702520Y392100D01*
X703058Y391786D01*
X703589Y391459D01*
X704111Y391119D01*
X704626Y390767D01*
X705131Y390401D01*
X705627Y390024D01*
X706114Y389634D01*
X706591Y389233D01*
X707058Y388820D01*
X707514Y388396D01*
X707961Y387961D01*
X708396Y387514D01*
X708820Y387058D01*
X709233Y386591D01*
X709634Y386114D01*
X710024Y385627D01*
X710401Y385131D01*
X710767Y384626D01*
X711119Y384111D01*
X711459Y383589D01*
X711786Y383058D01*
X712100Y382520D01*
X712401Y381973D01*
X712688Y381420D01*
X712961Y380860D01*
X713221Y380293D01*
X713467Y379720D01*
X713698Y379141D01*
X713915Y378557D01*
X714118Y377968D01*
X714306Y377373D01*
X714480Y376775D01*
X714639Y376172D01*
X714783Y375565D01*
X714912Y374955D01*
X715026Y374342D01*
X715125Y373727D01*
X715209Y373109D01*
X715278Y372490D01*
X715331Y371869D01*
X715369Y371246D01*
X715392Y370623D01*
X715400Y370000D01*
X715392Y369377D01*
X715369Y368754D01*
X715331Y368131D01*
X715278Y367510D01*
X715209Y366891D01*
X715125Y366273D01*
X715026Y365658D01*
X714912Y365045D01*
X714783Y364435D01*
X714639Y363828D01*
X714480Y363225D01*
X714306Y362627D01*
X714118Y362032D01*
X713915Y361443D01*
X713698Y360859D01*
X713467Y360280D01*
X713221Y359707D01*
X712961Y359140D01*
X712688Y358580D01*
X712401Y358027D01*
X712100Y357480D01*
X711786Y356942D01*
X711459Y356411D01*
X711119Y355889D01*
X710767Y355374D01*
X710401Y354869D01*
X710024Y354373D01*
X709634Y353886D01*
X709233Y353409D01*
X708820Y352942D01*
X708396Y352486D01*
X707961Y352039D01*
X707514Y351604D01*
X707058Y351180D01*
X706591Y350767D01*
X706114Y350366D01*
X705627Y349976D01*
X705131Y349599D01*
X704626Y349233D01*
X704111Y348881D01*
X703589Y348541D01*
X703058Y348214D01*
X702520Y347900D01*
X701973Y347599D01*
X701420Y347312D01*
X700860Y347039D01*
X700293Y346779D01*
X699720Y346533D01*
X699141Y346302D01*
X698557Y346085D01*
X697968Y345882D01*
X697373Y345694D01*
X696775Y345520D01*
X696172Y345361D01*
X695565Y345217D01*
X694955Y345088D01*
X694342Y344974D01*
X693727Y344875D01*
X693109Y344791D01*
X692490Y344722D01*
X691869Y344669D01*
X691246Y344631D01*
X690623Y344608D01*
X690000Y344600D01*
X689377Y344608D01*
X688754Y344631D01*
X688131Y344669D01*
X687510Y344722D01*
X686891Y344791D01*
X686273Y344875D01*
X685658Y344974D01*
X685045Y345088D01*
X684435Y345217D01*
X683828Y345361D01*
X683225Y345520D01*
X682627Y345694D01*
X682032Y345882D01*
X681443Y346085D01*
X680859Y346302D01*
X680280Y346533D01*
X679707Y346779D01*
X679140Y347039D01*
X678580Y347312D01*
X678027Y347599D01*
X677480Y347900D01*
X676942Y348214D01*
X676411Y348541D01*
X675889Y348881D01*
X675374Y349233D01*
X674869Y349599D01*
X674373Y349976D01*
X673886Y350366D01*
X673409Y350767D01*
X672942Y351180D01*
X672486Y351604D01*
X672039Y352039D01*
X671604Y352486D01*
X671180Y352942D01*
X670767Y353409D01*
X670366Y353886D01*
X669976Y354373D01*
X669599Y354869D01*
X669233Y355374D01*
X668881Y355889D01*
X668541Y356411D01*
X668214Y356942D01*
X667900Y357480D01*
X667599Y358027D01*
X667312Y358580D01*
X667039Y359140D01*
X666779Y359707D01*
X666533Y360280D01*
X666302Y360859D01*
X666085Y361443D01*
X665882Y362032D01*
X665694Y362627D01*
X665520Y363225D01*
X665361Y363828D01*
X665217Y364435D01*
X665088Y365045D01*
X664974Y365658D01*
X664875Y366273D01*
X664791Y366891D01*
X664722Y367510D01*
X664669Y368131D01*
X664631Y368754D01*
X664608Y369377D01*
X664600Y370000D01*
D11*
X665025Y350396D02*
X701827Y340535D01*
D12*
X702545Y340833D01*
X703255Y341149D01*
X703958Y341483D01*
X704652Y341833D01*
X705337Y342200D01*
X706014Y342584D01*
X706680Y342985D01*
X707337Y343401D01*
X707983Y343834D01*
X708618Y344282D01*
X709243Y344746D01*
X709855Y345224D01*
X710456Y345718D01*
X711045Y346226D01*
X711620Y346749D01*
X712183Y347285D01*
X712733Y347835D01*
X713269Y348399D01*
X713791Y348975D01*
X714299Y349564D01*
X714792Y350165D01*
X715270Y350778D01*
X715733Y351403D01*
X716181Y352038D01*
X716613Y352685D01*
X717029Y353342D01*
X717429Y354009D01*
X717812Y354685D01*
X718179Y355371D01*
X718529Y356065D01*
X718861Y356768D01*
X719177Y357479D01*
X719475Y358197D01*
X719755Y358922D01*
X720017Y359654D01*
X720262Y360393D01*
X720488Y361137D01*
X720696Y361886D01*
X720885Y362640D01*
X721056Y363398D01*
X721208Y364161D01*
X721342Y364927D01*
X721457Y365696D01*
X721553Y366468D01*
X721630Y367241D01*
X721688Y368017D01*
X721727Y368793D01*
X721747Y369571D01*
X721748Y370348D01*
X721730Y371126D01*
X721693Y371902D01*
X721637Y372678D01*
X721562Y373452D01*
X721468Y374224D01*
X721355Y374993D01*
X721223Y375759D01*
X721073Y376522D01*
X720904Y377281D01*
X720716Y378036D01*
X720510Y378786D01*
X720286Y379530D01*
X720043Y380269D01*
X719783Y381002D01*
X719505Y381728D01*
X719209Y382447D01*
X718895Y383158D01*
X718564Y383862D01*
X718216Y384557D01*
X717851Y385244D01*
X717470Y385921D01*
X717071Y386589D01*
X716657Y387247D01*
X716227Y387895D01*
X715781Y388532D01*
X715319Y389157D01*
X714842Y389772D01*
X714351Y390374D01*
X713844Y390964D01*
X713324Y391542D01*
X712789Y392107D01*
X712241Y392658D01*
X711680Y393196D01*
X711105Y393720D01*
X710518Y394230D01*
X709918Y394725D01*
X709307Y395205D01*
X708684Y395670D01*
X708050Y396120D01*
X707405Y396554D01*
X706749Y396973D01*
X706084Y397375D01*
X705408Y397760D01*
X704724Y398129D01*
X704031Y398482D01*
X703329Y398817D01*
X702619Y399134D01*
X701902Y399435D01*
X701178Y399717D01*
X700447Y399982D01*
X699709Y400229D01*
X698966Y400458D01*
X698217Y400668D01*
X697464Y400860D01*
X696706Y401034D01*
X695944Y401189D01*
X695179Y401325D01*
X694410Y401442D01*
X693639Y401541D01*
X692865Y401620D01*
X692090Y401681D01*
X691313Y401723D01*
X690536Y401745D01*
X689759Y401749D01*
X688981Y401734D01*
X688204Y401699D01*
X687429Y401646D01*
X686654Y401573D01*
X685882Y401482D01*
X685113Y401372D01*
X684346Y401242D01*
X683582Y401095D01*
X682823Y400928D01*
X682068Y400743D01*
X681317Y400540D01*
X680572Y400318D01*
X679832Y400078D01*
X679099Y399820D01*
X678372Y399544D01*
X677652Y399250D01*
X676939Y398939D01*
X676234Y398611D01*
X675538Y398265D01*
X674850Y397902D01*
X674171Y397523D01*
X673502Y397127D01*
X672843Y396715D01*
X672194Y396287D01*
X671555Y395843D01*
X670928Y395383D01*
X670312Y394909D01*
X669708Y394419D01*
X669116Y393915D01*
X668537Y393396D01*
X667970Y392864D01*
X667417Y392317D01*
X666877Y391758D01*
X666351Y391185D01*
X665840Y390599D01*
X665342Y390002D01*
X664860Y389392D01*
X664393Y388770D01*
X663941Y388138D01*
X663504Y387494D01*
X663084Y386840D01*
X662679Y386176D01*
X662292Y385502D01*
X661920Y384819D01*
X661566Y384126D01*
X661228Y383426D01*
X660908Y382717D01*
X660606Y382001D01*
X660320Y381278D01*
X660053Y380547D01*
X659804Y379811D01*
X659573Y379069D01*
X659360Y378321D01*
X659165Y377568D01*
X658989Y376810D01*
X658832Y376049D01*
X658693Y375284D01*
X658573Y374516D01*
X658472Y373745D01*
X658389Y372972D01*
X658326Y372197D01*
X658282Y371420D01*
X658257Y370643D01*
X658250Y369865D01*
X658263Y369088D01*
X658295Y368311D01*
X658346Y367535D01*
X658416Y366761D01*
X658504Y365988D01*
X658612Y365218D01*
X658739Y364451D01*
X658884Y363687D01*
X659048Y362927D01*
X659230Y362171D01*
X659431Y361420D01*
X659651Y360674D01*
X659888Y359934D01*
X660144Y359199D01*
X660417Y358471D01*
X660708Y357750D01*
X661017Y357037D01*
X661343Y356331D01*
X661686Y355633D01*
X662047Y354944D01*
X662424Y354264D01*
X662818Y353593D01*
X663227Y352933D01*
X663653Y352282D01*
X664095Y351642D01*
X664553Y351013D01*
X665025Y350396D01*
D10*
X664600Y490000D02*
X664608Y490623D01*
X664631Y491246D01*
X664669Y491869D01*
X664722Y492490D01*
X664791Y493109D01*
X664875Y493727D01*
X664974Y494342D01*
X665088Y494955D01*
X665217Y495565D01*
X665361Y496172D01*
X665520Y496775D01*
X665694Y497373D01*
X665882Y497968D01*
X666085Y498557D01*
X666302Y499141D01*
X666533Y499720D01*
X666779Y500293D01*
X667039Y500860D01*
X667312Y501420D01*
X667599Y501973D01*
X667900Y502520D01*
X668214Y503058D01*
X668541Y503589D01*
X668881Y504111D01*
X669233Y504626D01*
X669599Y505131D01*
X669976Y505627D01*
X670366Y506114D01*
X670767Y506591D01*
X671180Y507058D01*
X671604Y507514D01*
X672039Y507961D01*
X672486Y508396D01*
X672942Y508820D01*
X673409Y509233D01*
X673886Y509634D01*
X674373Y510024D01*
X674869Y510401D01*
X675374Y510767D01*
X675889Y511119D01*
X676411Y511459D01*
X676942Y511786D01*
X677480Y512100D01*
X678027Y512401D01*
X678580Y512688D01*
X679140Y512961D01*
X679707Y513221D01*
X680280Y513467D01*
X680859Y513698D01*
X681443Y513915D01*
X682032Y514118D01*
X682627Y514306D01*
X683225Y514480D01*
X683828Y514639D01*
X684435Y514783D01*
X685045Y514912D01*
X685658Y515026D01*
X686273Y515125D01*
X686891Y515209D01*
X687510Y515278D01*
X688131Y515331D01*
X688754Y515369D01*
X689377Y515392D01*
X690000Y515400D01*
X690623Y515392D01*
X691246Y515369D01*
X691869Y515331D01*
X692490Y515278D01*
X693109Y515209D01*
X693727Y515125D01*
X694342Y515026D01*
X694955Y514912D01*
X695565Y514783D01*
X696172Y514639D01*
X696775Y514480D01*
X697373Y514306D01*
X697968Y514118D01*
X698557Y513915D01*
X699141Y513698D01*
X699720Y513467D01*
X700293Y513221D01*
X700860Y512961D01*
X701420Y512688D01*
X701973Y512401D01*
X702520Y512100D01*
X703058Y511786D01*
X703589Y511459D01*
X704111Y511119D01*
X704626Y510767D01*
X705131Y510401D01*
X705627Y510024D01*
X706114Y509634D01*
X706591Y509233D01*
X707058Y508820D01*
X707514Y508396D01*
X707961Y507961D01*
X708396Y507514D01*
X708820Y507058D01*
X709233Y506591D01*
X709634Y506114D01*
X710024Y505627D01*
X710401Y505131D01*
X710767Y504626D01*
X711119Y504111D01*
X711459Y503589D01*
X711786Y503058D01*
X712100Y502520D01*
X712401Y501973D01*
X712688Y501420D01*
X712961Y500860D01*
X713221Y500293D01*
X713467Y499720D01*
X713698Y499141D01*
X713915Y498557D01*
X714118Y497968D01*
X714306Y497373D01*
X714480Y496775D01*
X714639Y496172D01*
X714783Y495565D01*
X714912Y494955D01*
X715026Y494342D01*
X715125Y493727D01*
X715209Y493109D01*
X715278Y492490D01*
X715331Y491869D01*
X715369Y491246D01*
X715392Y490623D01*
X715400Y490000D01*
X715392Y489377D01*
X715369Y488754D01*
X715331Y488131D01*
X715278Y487510D01*
X715209Y486891D01*
X715125Y486273D01*
X715026Y485658D01*
X714912Y485045D01*
X714783Y484435D01*
X714639Y483828D01*
X714480Y483225D01*
X714306Y482627D01*
X714118Y482032D01*
X713915Y481443D01*
X713698Y480859D01*
X713467Y480280D01*
X713221Y479707D01*
X712961Y479140D01*
X712688Y478580D01*
X712401Y478027D01*
X712100Y477480D01*
X711786Y476942D01*
X711459Y476411D01*
X711119Y475889D01*
X710767Y475374D01*
X710401Y474869D01*
X710024Y474373D01*
X709634Y473886D01*
X709233Y473409D01*
X708820Y472942D01*
X708396Y472486D01*
X707961Y472039D01*
X707514Y471604D01*
X707058Y471180D01*
X706591Y470767D01*
X706114Y470366D01*
X705627Y469976D01*
X705131Y469599D01*
X704626Y469233D01*
X704111Y468881D01*
X703589Y468541D01*
X703058Y468214D01*
X702520Y467900D01*
X701973Y467599D01*
X701420Y467312D01*
X700860Y467039D01*
X700293Y466779D01*
X699720Y466533D01*
X699141Y466302D01*
X698557Y466085D01*
X697968Y465882D01*
X697373Y465694D01*
X696775Y465520D01*
X696172Y465361D01*
X695565Y465217D01*
X694955Y465088D01*
X694342Y464974D01*
X693727Y464875D01*
X693109Y464791D01*
X692490Y464722D01*
X691869Y464669D01*
X691246Y464631D01*
X690623Y464608D01*
X690000Y464600D01*
X689377Y464608D01*
X688754Y464631D01*
X688131Y464669D01*
X687510Y464722D01*
X686891Y464791D01*
X686273Y464875D01*
X685658Y464974D01*
X685045Y465088D01*
X684435Y465217D01*
X683828Y465361D01*
X683225Y465520D01*
X682627Y465694D01*
X682032Y465882D01*
X681443Y466085D01*
X680859Y466302D01*
X680280Y466533D01*
X679707Y466779D01*
X679140Y467039D01*
X678580Y467312D01*
X678027Y467599D01*
X677480Y467900D01*
X676942Y468214D01*
X676411Y468541D01*
X675889Y468881D01*
X675374Y469233D01*
X674869Y469599D01*
X674373Y469976D01*
X673886Y470366D01*
X673409Y470767D01*
X672942Y471180D01*
X672486Y471604D01*
X672039Y472039D01*
X671604Y472486D01*
X671180Y472942D01*
X670767Y473409D01*
X670366Y473886D01*
X669976Y474373D01*
X669599Y474869D01*
X669233Y475374D01*
X668881Y475889D01*
X668541Y476411D01*
X668214Y476942D01*
X667900Y477480D01*
X667599Y478027D01*
X667312Y478580D01*
X667039Y479140D01*
X666779Y479707D01*
X666533Y480280D01*
X666302Y480859D01*
X666085Y481443D01*
X665882Y482032D01*
X665694Y482627D01*
X665520Y483225D01*
X665361Y483828D01*
X665217Y484435D01*
X665088Y485045D01*
X664974Y485658D01*
X664875Y486273D01*
X664791Y486891D01*
X664722Y487510D01*
X664669Y488131D01*
X664631Y488754D01*
X664608Y489377D01*
X664600Y490000D01*
D11*
X665025Y509604D02*
X701827Y519465D01*
D12*
X702545Y519167D01*
X703255Y518851D01*
X703958Y518517D01*
X704652Y518167D01*
X705337Y517800D01*
X706014Y517416D01*
X706680Y517015D01*
X707337Y516599D01*
X707983Y516166D01*
X708618Y515718D01*
X709243Y515254D01*
X709855Y514776D01*
X710456Y514282D01*
X711045Y513774D01*
X711620Y513251D01*
X712183Y512715D01*
X712733Y512165D01*
X713269Y511601D01*
X713791Y511025D01*
X714299Y510436D01*
X714792Y509835D01*
X715270Y509222D01*
X715733Y508597D01*
X716181Y507962D01*
X716613Y507315D01*
X717029Y506658D01*
X717429Y505991D01*
X717812Y505315D01*
X718179Y504629D01*
X718529Y503935D01*
X718861Y503232D01*
X719177Y502521D01*
X719475Y501803D01*
X719755Y501078D01*
X720017Y500346D01*
X720262Y499607D01*
X720488Y498863D01*
X720696Y498114D01*
X720885Y497360D01*
X721056Y496602D01*
X721208Y495839D01*
X721342Y495073D01*
X721457Y494304D01*
X721553Y493532D01*
X721630Y492759D01*
X721688Y491983D01*
X721727Y491207D01*
X721747Y490429D01*
X721748Y489652D01*
X721730Y488874D01*
X721693Y488098D01*
X721637Y487322D01*
X721562Y486548D01*
X721468Y485776D01*
X721355Y485007D01*
X721223Y484241D01*
X721073Y483478D01*
X720904Y482719D01*
X720716Y481964D01*
X720510Y481214D01*
X720286Y480470D01*
X720043Y479731D01*
X719783Y478998D01*
X719505Y478272D01*
X719209Y477553D01*
X718895Y476842D01*
X718564Y476138D01*
X718216Y475443D01*
X717851Y474756D01*
X717470Y474079D01*
X717071Y473411D01*
X716657Y472753D01*
X716227Y472105D01*
X715781Y471468D01*
X715319Y470843D01*
X714842Y470228D01*
X714351Y469626D01*
X713844Y469036D01*
X713324Y468458D01*
X712789Y467893D01*
X712241Y467342D01*
X711680Y466804D01*
X711105Y466280D01*
X710518Y465770D01*
X709918Y465275D01*
X709307Y464795D01*
X708684Y464330D01*
X708050Y463880D01*
X707405Y463446D01*
X706749Y463027D01*
X706084Y462625D01*
X705408Y462240D01*
X704724Y461871D01*
X704031Y461518D01*
X703329Y461183D01*
X702619Y460866D01*
X701902Y460565D01*
X701178Y460283D01*
X700447Y460018D01*
X699709Y459771D01*
X698966Y459542D01*
X698217Y459332D01*
X697464Y459140D01*
X696706Y458966D01*
X695944Y458811D01*
X695179Y458675D01*
X694410Y458558D01*
X693639Y458459D01*
X692865Y458380D01*
X692090Y458319D01*
X691313Y458277D01*
X690536Y458255D01*
X689759Y458251D01*
X688981Y458266D01*
X688204Y458301D01*
X687429Y458354D01*
X686654Y458427D01*
X685882Y458518D01*
X685113Y458628D01*
X684346Y458758D01*
X683582Y458905D01*
X682823Y459072D01*
X682068Y459257D01*
X681317Y459460D01*
X680572Y459682D01*
X679832Y459922D01*
X679099Y460180D01*
X678372Y460456D01*
X677652Y460750D01*
X676939Y461061D01*
X676234Y461389D01*
X675538Y461735D01*
X674850Y462098D01*
X674171Y462477D01*
X673502Y462873D01*
X672843Y463285D01*
X672194Y463713D01*
X671555Y464157D01*
X670928Y464617D01*
X670312Y465091D01*
X669708Y465581D01*
X669116Y466085D01*
X668537Y466604D01*
X667970Y467136D01*
X667417Y467683D01*
X666877Y468242D01*
X666351Y468815D01*
X665840Y469401D01*
X665342Y469998D01*
X664860Y470608D01*
X664393Y471230D01*
X663941Y471862D01*
X663504Y472506D01*
X663084Y473160D01*
X662679Y473824D01*
X662292Y474498D01*
X661920Y475181D01*
X661566Y475874D01*
X661228Y476574D01*
X660908Y477283D01*
X660606Y477999D01*
X660320Y478722D01*
X660053Y479453D01*
X659804Y480189D01*
X659573Y480931D01*
X659360Y481679D01*
X659165Y482432D01*
X658989Y483190D01*
X658832Y483951D01*
X658693Y484716D01*
X658573Y485484D01*
X658472Y486255D01*
X658389Y487028D01*
X658326Y487803D01*
X658282Y488580D01*
X658257Y489357D01*
X658250Y490135D01*
X658263Y490912D01*
X658295Y491689D01*
X658346Y492465D01*
X658416Y493239D01*
X658504Y494012D01*
X658612Y494782D01*
X658739Y495549D01*
X658884Y496313D01*
X659048Y497073D01*
X659230Y497829D01*
X659431Y498580D01*
X659651Y499326D01*
X659888Y500066D01*
X660144Y500801D01*
X660417Y501529D01*
X660708Y502250D01*
X661017Y502963D01*
X661343Y503669D01*
X661686Y504367D01*
X662047Y505056D01*
X662424Y505736D01*
X662818Y506407D01*
X663227Y507067D01*
X663653Y507718D01*
X664095Y508358D01*
X664553Y508987D01*
X665025Y509604D01*
D10*
X664600Y430000D02*
X664608Y430623D01*
X664631Y431246D01*
X664669Y431869D01*
X664722Y432490D01*
X664791Y433109D01*
X664875Y433727D01*
X664974Y434342D01*
X665088Y434955D01*
X665217Y435565D01*
X665361Y436172D01*
X665520Y436775D01*
X665694Y437373D01*
X665882Y437968D01*
X666085Y438557D01*
X666302Y439141D01*
X666533Y439720D01*
X666779Y440293D01*
X667039Y440860D01*
X667312Y441420D01*
X667599Y441973D01*
X667900Y442520D01*
X668214Y443058D01*
X668541Y443589D01*
X668881Y444111D01*
X669233Y444626D01*
X669599Y445131D01*
X669976Y445627D01*
X670366Y446114D01*
X670767Y446591D01*
X671180Y447058D01*
X671604Y447514D01*
X672039Y447961D01*
X672486Y448396D01*
X672942Y448820D01*
X673409Y449233D01*
X673886Y449634D01*
X674373Y450024D01*
X674869Y450401D01*
X675374Y450767D01*
X675889Y451119D01*
X676411Y451459D01*
X676942Y451786D01*
X677480Y452100D01*
X678027Y452401D01*
X678580Y452688D01*
X679140Y452961D01*
X679707Y453221D01*
X680280Y453467D01*
X680859Y453698D01*
X681443Y453915D01*
X682032Y454118D01*
X682627Y454306D01*
X683225Y454480D01*
X683828Y454639D01*
X684435Y454783D01*
X685045Y454912D01*
X685658Y455026D01*
X686273Y455125D01*
X686891Y455209D01*
X687510Y455278D01*
X688131Y455331D01*
X688754Y455369D01*
X689377Y455392D01*
X690000Y455400D01*
X690623Y455392D01*
X691246Y455369D01*
X691869Y455331D01*
X692490Y455278D01*
X693109Y455209D01*
X693727Y455125D01*
X694342Y455026D01*
X694955Y454912D01*
X695565Y454783D01*
X696172Y454639D01*
X696775Y454480D01*
X697373Y454306D01*
X697968Y454118D01*
X698557Y453915D01*
X699141Y453698D01*
X699720Y453467D01*
X700293Y453221D01*
X700860Y452961D01*
X701420Y452688D01*
X701973Y452401D01*
X702520Y452100D01*
X703058Y451786D01*
X703589Y451459D01*
X704111Y451119D01*
X704626Y450767D01*
X705131Y450401D01*
X705627Y450024D01*
X706114Y449634D01*
X706591Y449233D01*
X707058Y448820D01*
X707514Y448396D01*
X707961Y447961D01*
X708396Y447514D01*
X708820Y447058D01*
X709233Y446591D01*
X709634Y446114D01*
X710024Y445627D01*
X710401Y445131D01*
X710767Y444626D01*
X711119Y444111D01*
X711459Y443589D01*
X711786Y443058D01*
X712100Y442520D01*
X712401Y441973D01*
X712688Y441420D01*
X712961Y440860D01*
X713221Y440293D01*
X713467Y439720D01*
X713698Y439141D01*
X713915Y438557D01*
X714118Y437968D01*
X714306Y437373D01*
X714480Y436775D01*
X714639Y436172D01*
X714783Y435565D01*
X714912Y434955D01*
X715026Y434342D01*
X715125Y433727D01*
X715209Y433109D01*
X715278Y432490D01*
X715331Y431869D01*
X715369Y431246D01*
X715392Y430623D01*
X715400Y430000D01*
X715392Y429377D01*
X715369Y428754D01*
X715331Y428131D01*
X715278Y427510D01*
X715209Y426891D01*
X715125Y426273D01*
X715026Y425658D01*
X714912Y425045D01*
X714783Y424435D01*
X714639Y423828D01*
X714480Y423225D01*
X714306Y422627D01*
X714118Y422032D01*
X713915Y421443D01*
X713698Y420859D01*
X713467Y420280D01*
X713221Y419707D01*
X712961Y419140D01*
X712688Y418580D01*
X712401Y418027D01*
X712100Y417480D01*
X711786Y416942D01*
X711459Y416411D01*
X711119Y415889D01*
X710767Y415374D01*
X710401Y414869D01*
X710024Y414373D01*
X709634Y413886D01*
X709233Y413409D01*
X708820Y412942D01*
X708396Y412486D01*
X707961Y412039D01*
X707514Y411604D01*
X707058Y411180D01*
X706591Y410767D01*
X706114Y410366D01*
X705627Y409976D01*
X705131Y409599D01*
X704626Y409233D01*
X704111Y408881D01*
X703589Y408541D01*
X703058Y408214D01*
X702520Y407900D01*
X701973Y407599D01*
X701420Y407312D01*
X700860Y407039D01*
X700293Y406779D01*
X699720Y406533D01*
X699141Y406302D01*
X698557Y406085D01*
X697968Y405882D01*
X697373Y405694D01*
X696775Y405520D01*
X696172Y405361D01*
X695565Y405217D01*
X694955Y405088D01*
X694342Y404974D01*
X693727Y404875D01*
X693109Y404791D01*
X692490Y404722D01*
X691869Y404669D01*
X691246Y404631D01*
X690623Y404608D01*
X690000Y404600D01*
X689377Y404608D01*
X688754Y404631D01*
X688131Y404669D01*
X687510Y404722D01*
X686891Y404791D01*
X686273Y404875D01*
X685658Y404974D01*
X685045Y405088D01*
X684435Y405217D01*
X683828Y405361D01*
X683225Y405520D01*
X682627Y405694D01*
X682032Y405882D01*
X681443Y406085D01*
X680859Y406302D01*
X680280Y406533D01*
X679707Y406779D01*
X679140Y407039D01*
X678580Y407312D01*
X678027Y407599D01*
X677480Y407900D01*
X676942Y408214D01*
X676411Y408541D01*
X675889Y408881D01*
X675374Y409233D01*
X674869Y409599D01*
X674373Y409976D01*
X673886Y410366D01*
X673409Y410767D01*
X672942Y411180D01*
X672486Y411604D01*
X672039Y412039D01*
X671604Y412486D01*
X671180Y412942D01*
X670767Y413409D01*
X670366Y413886D01*
X669976Y414373D01*
X669599Y414869D01*
X669233Y415374D01*
X668881Y415889D01*
X668541Y416411D01*
X668214Y416942D01*
X667900Y417480D01*
X667599Y418027D01*
X667312Y418580D01*
X667039Y419140D01*
X666779Y419707D01*
X666533Y420280D01*
X666302Y420859D01*
X666085Y421443D01*
X665882Y422032D01*
X665694Y422627D01*
X665520Y423225D01*
X665361Y423828D01*
X665217Y424435D01*
X665088Y425045D01*
X664974Y425658D01*
X664875Y426273D01*
X664791Y426891D01*
X664722Y427510D01*
X664669Y428131D01*
X664631Y428754D01*
X664608Y429377D01*
X664600Y430000D01*
D11*
X670950Y455400D02*
X709050Y455400D01*
D12*
X709666Y454926D01*
X710271Y454437D01*
X710863Y453933D01*
X711443Y453415D01*
X712010Y452883D01*
X712564Y452337D01*
X713104Y451778D01*
X713630Y451205D01*
X714143Y450620D01*
X714640Y450023D01*
X715123Y449414D01*
X715591Y448793D01*
X716044Y448160D01*
X716481Y447517D01*
X716902Y446863D01*
X717306Y446199D01*
X717695Y445526D01*
X718067Y444843D01*
X718422Y444151D01*
X718760Y443451D01*
X719081Y442743D01*
X719384Y442027D01*
X719670Y441303D01*
X719938Y440574D01*
X720188Y439837D01*
X720419Y439095D01*
X720633Y438347D01*
X720828Y437595D01*
X721005Y436837D01*
X721163Y436076D01*
X721303Y435311D01*
X721423Y434543D01*
X721525Y433772D01*
X721608Y432999D01*
X721672Y432224D01*
X721717Y431448D01*
X721743Y430671D01*
X721750Y429893D01*
X721738Y429116D01*
X721707Y428339D01*
X721656Y427563D01*
X721587Y426788D01*
X721499Y426016D01*
X721392Y425246D01*
X721266Y424478D01*
X721122Y423714D01*
X720958Y422954D01*
X720776Y422198D01*
X720576Y421447D01*
X720358Y420700D01*
X720121Y419960D01*
X719866Y419225D01*
X719593Y418497D01*
X719302Y417776D01*
X718994Y417062D01*
X718669Y416356D01*
X718326Y415658D01*
X717966Y414968D01*
X717590Y414288D01*
X717197Y413617D01*
X716787Y412956D01*
X716362Y412305D01*
X715921Y411665D01*
X715464Y411036D01*
X714992Y410418D01*
X714505Y409812D01*
X714003Y409218D01*
X713487Y408636D01*
X712957Y408067D01*
X712413Y407512D01*
X711855Y406969D01*
X711285Y406441D01*
X710702Y405927D01*
X710106Y405427D01*
X709498Y404942D01*
X708879Y404472D01*
X708248Y404018D01*
X707606Y403579D01*
X706954Y403155D01*
X706291Y402748D01*
X705619Y402357D01*
X704937Y401983D01*
X704247Y401626D01*
X703548Y401286D01*
X702840Y400962D01*
X702126Y400657D01*
X701403Y400368D01*
X700674Y400098D01*
X699939Y399846D01*
X699197Y399611D01*
X698450Y399395D01*
X697698Y399197D01*
X696942Y399018D01*
X696181Y398857D01*
X695417Y398715D01*
X694649Y398592D01*
X693878Y398488D01*
X693105Y398402D01*
X692331Y398336D01*
X691555Y398288D01*
X690778Y398260D01*
X690000Y398250D01*
X689222Y398260D01*
X688445Y398288D01*
X687669Y398336D01*
X686895Y398402D01*
X686122Y398488D01*
X685351Y398592D01*
X684583Y398715D01*
X683819Y398857D01*
X683058Y399018D01*
X682302Y399197D01*
X681550Y399395D01*
X680803Y399611D01*
X680061Y399846D01*
X679326Y400098D01*
X678597Y400368D01*
X677874Y400657D01*
X677160Y400962D01*
X676452Y401286D01*
X675753Y401626D01*
X675063Y401983D01*
X674381Y402357D01*
X673709Y402748D01*
X673046Y403155D01*
X672394Y403579D01*
X671752Y404018D01*
X671121Y404472D01*
X670502Y404942D01*
X669894Y405427D01*
X669298Y405927D01*
X668715Y406441D01*
X668145Y406969D01*
X667587Y407512D01*
X667043Y408067D01*
X666513Y408636D01*
X665997Y409218D01*
X665495Y409812D01*
X665008Y410418D01*
X664536Y411036D01*
X664079Y411665D01*
X663638Y412305D01*
X663213Y412956D01*
X662803Y413617D01*
X662410Y414288D01*
X662034Y414968D01*
X661674Y415658D01*
X661331Y416356D01*
X661006Y417062D01*
X660698Y417776D01*
X660407Y418497D01*
X660134Y419225D01*
X659879Y419960D01*
X659642Y420700D01*
X659424Y421447D01*
X659224Y422198D01*
X659042Y422954D01*
X658878Y423714D01*
X658734Y424478D01*
X658608Y425246D01*
X658501Y426016D01*
X658413Y426788D01*
X658344Y427563D01*
X658293Y428339D01*
X658262Y429116D01*
X658250Y429893D01*
X658257Y430671D01*
X658283Y431448D01*
X658328Y432224D01*
X658392Y432999D01*
X658475Y433772D01*
X658577Y434543D01*
X658697Y435311D01*
X658837Y436076D01*
X658995Y436837D01*
X659172Y437595D01*
X659367Y438347D01*
X659581Y439095D01*
X659812Y439837D01*
X660062Y440574D01*
X660330Y441303D01*
X660616Y442027D01*
X660919Y442743D01*
X661240Y443451D01*
X661578Y444151D01*
X661933Y444843D01*
X662305Y445526D01*
X662694Y446199D01*
X663098Y446863D01*
X663519Y447517D01*
X663956Y448160D01*
X664409Y448793D01*
X664877Y449414D01*
X665360Y450023D01*
X665857Y450620D01*
X666370Y451205D01*
X666896Y451778D01*
X667436Y452337D01*
X667990Y452883D01*
X668557Y453415D01*
X669137Y453933D01*
X669729Y454437D01*
X670334Y454926D01*
X670950Y455400D01*
D11*
X513891Y602709D02*
X513891Y611690D01*
X504911Y620670D02*
X495931Y620670D01*
X495931Y629650D01*
X486951Y638630D02*
X477970Y638630D01*
X477970Y647611D01*
X468990Y656591D02*
X460010Y656591D01*
X460010Y665571D01*
X451030Y674551D02*
X442049Y674551D01*
X513891Y602709D02*
X486951Y575769D01*
X477970Y575769D01*
X468990Y584749D01*
X468990Y593729D01*
X460010Y593729D01*
X451030Y602709D01*
X451030Y611690D01*
X442049Y611690D01*
X433069Y620670D01*
X433069Y629650D01*
X424089Y629650D01*
X415109Y638630D01*
X415109Y647611D01*
X442049Y674551D01*
X451030Y674551D02*
X460010Y665571D01*
X468990Y656591D02*
X477970Y647611D01*
X486951Y638630D02*
X495931Y629650D01*
X504911Y620670D02*
X513891Y611690D01*
X515687Y613486D02*
X506707Y622466D01*
X513891Y611690D02*
X513891Y602709D01*
X486951Y575769D01*
X477970Y575769D01*
D18*
X475786Y573463D02*
X473132Y570809D01*
X473085Y570765D01*
X473035Y570723D01*
X472983Y570685D01*
X472929Y570650D01*
X472872Y570618D01*
X472814Y570589D01*
X472754Y570565D01*
X472693Y570544D01*
X472631Y570526D01*
X472567Y570513D01*
X472503Y570503D01*
X472439Y570497D01*
X472374Y570495D01*
X472309Y570497D01*
X472245Y570503D01*
X472181Y570513D01*
X472117Y570526D01*
X472055Y570544D01*
X471994Y570565D01*
X471934Y570589D01*
X471876Y570618D01*
X471819Y570650D01*
X471765Y570685D01*
X471713Y570723D01*
X471663Y570765D01*
X471616Y570809D01*
X471615Y570809D02*
X471236Y571188D01*
X477112Y570620D02*
X478818Y570430D01*
X475406Y567018D01*
X474458Y567966D02*
X476354Y566070D01*
D11*
X121604Y350608D02*
X121604Y249108D01*
X107104Y234608D02*
X84604Y234608D01*
X55604Y234608D02*
X33104Y234608D01*
X18604Y249108D02*
X18604Y350608D01*
X55604Y350608D01*
X84604Y350608D02*
X121604Y350608D01*
X121604Y249108D02*
X107104Y234608D01*
X33104Y234608D02*
X18604Y249108D01*
X56104Y245608D02*
X54961Y245963D01*
X53827Y246347D01*
X52703Y246758D01*
X51590Y247196D01*
X50487Y247661D01*
X49396Y248154D01*
X48317Y248672D01*
X47252Y249217D01*
X46200Y249787D01*
X45162Y250384D01*
X44139Y251005D01*
X43131Y251651D01*
X42140Y252321D01*
X41165Y253016D01*
X40207Y253734D01*
X39268Y254475D01*
X38346Y255239D01*
X37444Y256025D01*
X36561Y256833D01*
X35698Y257662D01*
X34855Y258512D01*
X34034Y259382D01*
X33234Y260272D01*
X32455Y261182D01*
X31700Y262110D01*
X30967Y263056D01*
X30257Y264020D01*
X29572Y265001D01*
X28910Y265998D01*
X28273Y267011D01*
X27661Y268040D01*
X27074Y269083D01*
X26513Y270140D01*
X25977Y271211D01*
X25468Y272294D01*
X24986Y273389D01*
X24530Y274496D01*
X24102Y275613D01*
X23701Y276741D01*
X23327Y277878D01*
X22982Y279024D01*
X22664Y280178D01*
X22375Y281339D01*
X22114Y282507D01*
X21882Y283681D01*
X21679Y284861D01*
X21504Y286045D01*
X21358Y287233D01*
X21242Y288424D01*
X21154Y289618D01*
X21096Y290813D01*
X21067Y292010D01*
X21067Y293206D01*
X21096Y294403D01*
X21154Y295598D01*
X21242Y296792D01*
X21358Y297983D01*
X21504Y299171D01*
X21679Y300355D01*
X21882Y301535D01*
X22114Y302709D01*
X22375Y303877D01*
X22664Y305038D01*
X22982Y306192D01*
X23327Y307338D01*
X23701Y308475D01*
X24102Y309603D01*
X24530Y310720D01*
X24986Y311827D01*
X25468Y312922D01*
X25977Y314005D01*
X26513Y315076D01*
X27074Y316133D01*
X27661Y317176D01*
X28273Y318205D01*
X28910Y319218D01*
X29572Y320215D01*
X30257Y321196D01*
X30967Y322160D01*
X31700Y323106D01*
X32455Y324034D01*
X33234Y324944D01*
X34034Y325834D01*
X34855Y326704D01*
X35698Y327554D01*
X36561Y328383D01*
X37444Y329191D01*
X38346Y329977D01*
X39268Y330741D01*
X40207Y331482D01*
X41165Y332200D01*
X42140Y332895D01*
X43131Y333565D01*
X44139Y334211D01*
X45162Y334832D01*
X46200Y335429D01*
X47252Y335999D01*
X48317Y336544D01*
X49396Y337062D01*
X50487Y337555D01*
X51590Y338020D01*
X52703Y338458D01*
X53827Y338869D01*
X54961Y339253D01*
X56104Y339608D01*
X84104Y339608D02*
X85247Y339253D01*
X86381Y338869D01*
X87505Y338458D01*
X88618Y338020D01*
X89721Y337555D01*
X90812Y337062D01*
X91891Y336544D01*
X92956Y335999D01*
X94008Y335429D01*
X95046Y334832D01*
X96069Y334211D01*
X97077Y333565D01*
X98068Y332895D01*
X99043Y332200D01*
X100001Y331482D01*
X100940Y330741D01*
X101862Y329977D01*
X102764Y329191D01*
X103647Y328383D01*
X104510Y327554D01*
X105353Y326704D01*
X106174Y325834D01*
X106974Y324944D01*
X107753Y324034D01*
X108508Y323106D01*
X109241Y322160D01*
X109951Y321196D01*
X110636Y320215D01*
X111298Y319218D01*
X111935Y318205D01*
X112547Y317176D01*
X113134Y316133D01*
X113695Y315076D01*
X114231Y314005D01*
X114740Y312922D01*
X115222Y311827D01*
X115678Y310720D01*
X116106Y309603D01*
X116507Y308475D01*
X116881Y307338D01*
X117226Y306192D01*
X117544Y305038D01*
X117833Y303877D01*
X118094Y302709D01*
X118326Y301535D01*
X118529Y300355D01*
X118704Y299171D01*
X118850Y297983D01*
X118966Y296792D01*
X119054Y295598D01*
X119112Y294403D01*
X119141Y293206D01*
X119141Y292010D01*
X119112Y290813D01*
X119054Y289618D01*
X118966Y288424D01*
X118850Y287233D01*
X118704Y286045D01*
X118529Y284861D01*
X118326Y283681D01*
X118094Y282507D01*
X117833Y281339D01*
X117544Y280178D01*
X117226Y279024D01*
X116881Y277878D01*
X116507Y276741D01*
X116106Y275613D01*
X115678Y274496D01*
X115222Y273389D01*
X114740Y272294D01*
X114231Y271211D01*
X113695Y270140D01*
X113134Y269083D01*
X112547Y268040D01*
X111935Y267011D01*
X111298Y265998D01*
X110636Y265001D01*
X109951Y264020D01*
X109241Y263056D01*
X108508Y262110D01*
X107753Y261182D01*
X106974Y260272D01*
X106174Y259382D01*
X105353Y258512D01*
X104510Y257662D01*
X103647Y256833D01*
X102764Y256025D01*
X101862Y255239D01*
X100940Y254475D01*
X100001Y253734D01*
X99043Y253016D01*
X98068Y252321D01*
X97077Y251651D01*
X96069Y251005D01*
X95046Y250384D01*
X94008Y249787D01*
X92956Y249217D01*
X91891Y248672D01*
X90812Y248154D01*
X89721Y247661D01*
X88618Y247196D01*
X87505Y246758D01*
X86381Y246347D01*
X85247Y245963D01*
X84104Y245608D01*
D10*
X327300Y150202D02*
X327300Y137502D01*
X327300Y150202D02*
X333650Y156552D01*
X346350Y156552D02*
X352700Y150202D01*
X333650Y156552D02*
X327300Y162902D01*
X327300Y175602D01*
X333650Y181952D01*
X346350Y181952D02*
X352700Y175602D01*
X352700Y162902D01*
X346350Y156552D01*
X346350Y131152D02*
X333650Y131152D01*
X327300Y137502D01*
X346350Y131152D02*
X352700Y137502D01*
X352700Y150202D01*
X333650Y181952D02*
X327300Y188302D01*
X327300Y201002D01*
X333650Y207352D01*
X346350Y207352D02*
X352700Y201002D01*
X352700Y188302D01*
X346350Y181952D01*
X327300Y213702D02*
X327300Y226402D01*
X333650Y232752D01*
X346350Y232752D01*
X352700Y226402D01*
X333650Y207352D02*
X327300Y213702D01*
X346350Y207352D02*
X352700Y213702D01*
X352700Y226402D01*
D18*
X334285Y123532D02*
X336825Y120357D01*
X334285Y123532D02*
X345715Y123532D01*
X345715Y120357D02*
X345715Y126707D01*
X343175Y235927D02*
X334285Y238467D01*
X343175Y235927D02*
X343175Y242277D01*
X340635Y240372D02*
X345715Y240372D01*
X322855Y131787D02*
X311425Y131787D01*
X322855Y131787D02*
X322855Y136867D01*
X324125Y140779D02*
X324125Y145859D01*
X322855Y150837D02*
X322855Y155917D01*
X322855Y150837D02*
X311425Y150837D01*
X311425Y155917D01*
X316505Y154647D02*
X316505Y150837D01*
X311425Y160718D02*
X322855Y160718D01*
X322855Y167068D02*
X311425Y160718D01*
X311425Y167068D02*
X322855Y167068D01*
X322855Y175031D02*
X322855Y177571D01*
X322855Y175031D02*
X322853Y174931D01*
X322847Y174832D01*
X322837Y174732D01*
X322824Y174634D01*
X322806Y174535D01*
X322785Y174438D01*
X322760Y174342D01*
X322731Y174246D01*
X322698Y174152D01*
X322662Y174059D01*
X322622Y173968D01*
X322578Y173878D01*
X322531Y173790D01*
X322481Y173704D01*
X322427Y173620D01*
X322370Y173538D01*
X322310Y173459D01*
X322246Y173381D01*
X322180Y173307D01*
X322111Y173235D01*
X322039Y173166D01*
X321965Y173100D01*
X321887Y173036D01*
X321808Y172976D01*
X321726Y172919D01*
X321642Y172865D01*
X321556Y172815D01*
X321468Y172768D01*
X321378Y172724D01*
X321287Y172684D01*
X321194Y172648D01*
X321100Y172615D01*
X321004Y172586D01*
X320908Y172561D01*
X320811Y172540D01*
X320712Y172522D01*
X320614Y172509D01*
X320514Y172499D01*
X320415Y172493D01*
X320315Y172491D01*
X313965Y172491D01*
X313865Y172493D01*
X313766Y172499D01*
X313666Y172509D01*
X313568Y172522D01*
X313469Y172540D01*
X313372Y172561D01*
X313276Y172586D01*
X313180Y172615D01*
X313086Y172648D01*
X312993Y172684D01*
X312902Y172724D01*
X312812Y172768D01*
X312724Y172815D01*
X312638Y172865D01*
X312554Y172919D01*
X312472Y172976D01*
X312393Y173036D01*
X312315Y173100D01*
X312241Y173166D01*
X312169Y173235D01*
X312100Y173307D01*
X312034Y173381D01*
X311970Y173459D01*
X311910Y173538D01*
X311853Y173620D01*
X311799Y173704D01*
X311749Y173790D01*
X311702Y173878D01*
X311658Y173968D01*
X311618Y174059D01*
X311582Y174152D01*
X311549Y174246D01*
X311520Y174342D01*
X311495Y174438D01*
X311474Y174535D01*
X311456Y174634D01*
X311443Y174732D01*
X311433Y174832D01*
X311427Y174931D01*
X311425Y175031D01*
X311425Y177571D01*
X314600Y182054D02*
X319680Y182054D01*
X314600Y182054D02*
X314489Y182056D01*
X314379Y182062D01*
X314268Y182071D01*
X314158Y182085D01*
X314049Y182102D01*
X313940Y182123D01*
X313832Y182148D01*
X313725Y182177D01*
X313619Y182209D01*
X313514Y182245D01*
X313411Y182285D01*
X313309Y182328D01*
X313208Y182375D01*
X313109Y182426D01*
X313013Y182479D01*
X312918Y182536D01*
X312825Y182597D01*
X312734Y182660D01*
X312645Y182727D01*
X312559Y182797D01*
X312476Y182870D01*
X312394Y182945D01*
X312316Y183023D01*
X312241Y183105D01*
X312168Y183188D01*
X312098Y183274D01*
X312031Y183363D01*
X311968Y183454D01*
X311907Y183547D01*
X311850Y183642D01*
X311797Y183738D01*
X311746Y183837D01*
X311699Y183938D01*
X311656Y184040D01*
X311616Y184143D01*
X311580Y184248D01*
X311548Y184354D01*
X311519Y184461D01*
X311494Y184569D01*
X311473Y184678D01*
X311456Y184787D01*
X311442Y184897D01*
X311433Y185008D01*
X311427Y185118D01*
X311425Y185229D01*
X311427Y185340D01*
X311433Y185450D01*
X311442Y185561D01*
X311456Y185671D01*
X311473Y185780D01*
X311494Y185889D01*
X311519Y185997D01*
X311548Y186104D01*
X311580Y186210D01*
X311616Y186315D01*
X311656Y186418D01*
X311699Y186520D01*
X311746Y186621D01*
X311797Y186720D01*
X311850Y186817D01*
X311907Y186911D01*
X311968Y187004D01*
X312031Y187095D01*
X312098Y187184D01*
X312168Y187270D01*
X312241Y187353D01*
X312316Y187435D01*
X312394Y187513D01*
X312476Y187588D01*
X312559Y187661D01*
X312645Y187731D01*
X312734Y187798D01*
X312825Y187861D01*
X312918Y187922D01*
X313013Y187979D01*
X313109Y188032D01*
X313208Y188083D01*
X313309Y188130D01*
X313411Y188173D01*
X313514Y188213D01*
X313619Y188249D01*
X313725Y188281D01*
X313832Y188310D01*
X313940Y188335D01*
X314049Y188356D01*
X314158Y188373D01*
X314268Y188387D01*
X314379Y188396D01*
X314489Y188402D01*
X314600Y188404D01*
X319680Y188404D01*
X319791Y188402D01*
X319901Y188396D01*
X320012Y188387D01*
X320122Y188373D01*
X320231Y188356D01*
X320340Y188335D01*
X320448Y188310D01*
X320555Y188281D01*
X320661Y188249D01*
X320766Y188213D01*
X320869Y188173D01*
X320971Y188130D01*
X321072Y188083D01*
X321171Y188032D01*
X321268Y187979D01*
X321362Y187922D01*
X321455Y187861D01*
X321546Y187798D01*
X321635Y187731D01*
X321721Y187661D01*
X321804Y187588D01*
X321886Y187513D01*
X321964Y187435D01*
X322039Y187353D01*
X322112Y187270D01*
X322182Y187184D01*
X322249Y187095D01*
X322312Y187004D01*
X322373Y186911D01*
X322430Y186816D01*
X322483Y186720D01*
X322534Y186621D01*
X322581Y186520D01*
X322624Y186418D01*
X322664Y186315D01*
X322700Y186210D01*
X322732Y186104D01*
X322761Y185997D01*
X322786Y185889D01*
X322807Y185780D01*
X322824Y185671D01*
X322838Y185561D01*
X322847Y185450D01*
X322853Y185340D01*
X322855Y185229D01*
X322853Y185118D01*
X322847Y185008D01*
X322838Y184897D01*
X322824Y184787D01*
X322807Y184678D01*
X322786Y184569D01*
X322761Y184461D01*
X322732Y184354D01*
X322700Y184248D01*
X322664Y184143D01*
X322624Y184040D01*
X322581Y183938D01*
X322534Y183837D01*
X322483Y183738D01*
X322430Y183641D01*
X322373Y183547D01*
X322312Y183454D01*
X322249Y183363D01*
X322182Y183274D01*
X322112Y183188D01*
X322039Y183105D01*
X321964Y183023D01*
X321886Y182945D01*
X321804Y182870D01*
X321721Y182797D01*
X321635Y182727D01*
X321546Y182660D01*
X321455Y182597D01*
X321362Y182536D01*
X321268Y182479D01*
X321171Y182426D01*
X321072Y182375D01*
X320971Y182328D01*
X320869Y182285D01*
X320766Y182245D01*
X320661Y182209D01*
X320555Y182177D01*
X320448Y182148D01*
X320340Y182123D01*
X320231Y182102D01*
X320122Y182085D01*
X320012Y182071D01*
X319901Y182062D01*
X319791Y182056D01*
X319680Y182054D01*
X322855Y193865D02*
X311425Y193865D01*
X311425Y197040D01*
X311427Y197151D01*
X311433Y197261D01*
X311442Y197372D01*
X311456Y197482D01*
X311473Y197591D01*
X311494Y197700D01*
X311519Y197808D01*
X311548Y197915D01*
X311580Y198021D01*
X311616Y198126D01*
X311656Y198229D01*
X311699Y198331D01*
X311746Y198432D01*
X311797Y198531D01*
X311850Y198628D01*
X311907Y198722D01*
X311968Y198815D01*
X312031Y198906D01*
X312098Y198995D01*
X312168Y199081D01*
X312241Y199164D01*
X312316Y199246D01*
X312394Y199324D01*
X312476Y199399D01*
X312559Y199472D01*
X312645Y199542D01*
X312734Y199609D01*
X312825Y199672D01*
X312918Y199733D01*
X313013Y199790D01*
X313109Y199843D01*
X313208Y199894D01*
X313309Y199941D01*
X313411Y199984D01*
X313514Y200024D01*
X313619Y200060D01*
X313725Y200092D01*
X313832Y200121D01*
X313940Y200146D01*
X314049Y200167D01*
X314158Y200184D01*
X314268Y200198D01*
X314379Y200207D01*
X314489Y200213D01*
X314600Y200215D01*
X319680Y200215D01*
X319791Y200213D01*
X319901Y200207D01*
X320012Y200198D01*
X320122Y200184D01*
X320231Y200167D01*
X320340Y200146D01*
X320448Y200121D01*
X320555Y200092D01*
X320661Y200060D01*
X320766Y200024D01*
X320869Y199984D01*
X320971Y199941D01*
X321072Y199894D01*
X321171Y199843D01*
X321268Y199790D01*
X321362Y199733D01*
X321455Y199672D01*
X321546Y199609D01*
X321635Y199542D01*
X321721Y199472D01*
X321804Y199399D01*
X321886Y199324D01*
X321964Y199246D01*
X322039Y199164D01*
X322112Y199081D01*
X322182Y198995D01*
X322249Y198906D01*
X322312Y198815D01*
X322373Y198722D01*
X322430Y198628D01*
X322483Y198531D01*
X322534Y198432D01*
X322581Y198331D01*
X322624Y198229D01*
X322664Y198126D01*
X322700Y198021D01*
X322732Y197915D01*
X322761Y197808D01*
X322786Y197700D01*
X322807Y197591D01*
X322824Y197482D01*
X322838Y197372D01*
X322847Y197261D01*
X322853Y197151D01*
X322855Y197040D01*
X322855Y193865D01*
X322855Y206082D02*
X322855Y211162D01*
X322855Y206082D02*
X311425Y206082D01*
X311425Y211162D01*
X316505Y209892D02*
X316505Y206082D01*
X311425Y216045D02*
X322855Y216045D01*
X311425Y216045D02*
X311425Y219220D01*
X311427Y219331D01*
X311433Y219441D01*
X311442Y219552D01*
X311456Y219662D01*
X311473Y219771D01*
X311494Y219880D01*
X311519Y219988D01*
X311548Y220095D01*
X311580Y220201D01*
X311616Y220306D01*
X311656Y220409D01*
X311699Y220511D01*
X311746Y220612D01*
X311797Y220711D01*
X311850Y220808D01*
X311907Y220902D01*
X311968Y220995D01*
X312031Y221086D01*
X312098Y221175D01*
X312168Y221261D01*
X312241Y221344D01*
X312316Y221426D01*
X312394Y221504D01*
X312476Y221579D01*
X312559Y221652D01*
X312645Y221722D01*
X312734Y221789D01*
X312825Y221852D01*
X312918Y221913D01*
X313013Y221970D01*
X313109Y222023D01*
X313208Y222074D01*
X313309Y222121D01*
X313411Y222164D01*
X313514Y222204D01*
X313619Y222240D01*
X313725Y222272D01*
X313832Y222301D01*
X313940Y222326D01*
X314049Y222347D01*
X314158Y222364D01*
X314268Y222378D01*
X314379Y222387D01*
X314489Y222393D01*
X314600Y222395D01*
X314711Y222393D01*
X314821Y222387D01*
X314932Y222378D01*
X315042Y222364D01*
X315151Y222347D01*
X315260Y222326D01*
X315368Y222301D01*
X315475Y222272D01*
X315581Y222240D01*
X315686Y222204D01*
X315789Y222164D01*
X315891Y222121D01*
X315992Y222074D01*
X316091Y222023D01*
X316188Y221970D01*
X316282Y221913D01*
X316375Y221852D01*
X316466Y221789D01*
X316555Y221722D01*
X316641Y221652D01*
X316724Y221579D01*
X316806Y221504D01*
X316884Y221426D01*
X316959Y221344D01*
X317032Y221261D01*
X317102Y221175D01*
X317169Y221086D01*
X317232Y220995D01*
X317293Y220902D01*
X317350Y220808D01*
X317403Y220711D01*
X317454Y220612D01*
X317501Y220511D01*
X317544Y220409D01*
X317584Y220306D01*
X317620Y220201D01*
X317652Y220095D01*
X317681Y219988D01*
X317706Y219880D01*
X317727Y219771D01*
X317744Y219662D01*
X317758Y219552D01*
X317767Y219441D01*
X317773Y219331D01*
X317775Y219220D01*
X317775Y216045D01*
X317775Y219855D02*
X322855Y222395D01*
X313965Y227392D02*
X311425Y230567D01*
X322855Y230567D01*
X322855Y227392D02*
X322855Y233742D01*
D10*
X367300Y162540D02*
X369840Y160000D01*
X367300Y157460D01*
X390160Y160000D02*
X392700Y162540D01*
X390160Y160000D02*
X392700Y157460D01*
X392700Y137140D01*
X390160Y134600D01*
X392700Y182860D02*
X390160Y185400D01*
X392700Y182860D02*
X392700Y162540D01*
X390160Y185400D02*
X369840Y185400D01*
X367300Y182860D01*
X367300Y162540D01*
X367300Y157460D02*
X367300Y137140D01*
X369840Y134600D01*
X390160Y134600D01*
D18*
X360315Y139045D02*
X351425Y139045D01*
X360315Y139045D02*
X360415Y139043D01*
X360514Y139037D01*
X360614Y139027D01*
X360712Y139014D01*
X360811Y138996D01*
X360908Y138975D01*
X361004Y138950D01*
X361100Y138921D01*
X361194Y138888D01*
X361287Y138852D01*
X361378Y138812D01*
X361468Y138768D01*
X361556Y138721D01*
X361642Y138671D01*
X361726Y138617D01*
X361808Y138560D01*
X361887Y138500D01*
X361965Y138436D01*
X362039Y138370D01*
X362111Y138301D01*
X362180Y138229D01*
X362246Y138155D01*
X362310Y138077D01*
X362370Y137998D01*
X362427Y137916D01*
X362481Y137832D01*
X362531Y137746D01*
X362578Y137658D01*
X362622Y137568D01*
X362662Y137477D01*
X362698Y137384D01*
X362731Y137290D01*
X362760Y137194D01*
X362785Y137098D01*
X362806Y137001D01*
X362824Y136902D01*
X362837Y136804D01*
X362847Y136704D01*
X362853Y136605D01*
X362855Y136505D01*
X362855Y135235D01*
X362855Y145025D02*
X351425Y145025D01*
X351425Y148200D01*
X351427Y148311D01*
X351433Y148421D01*
X351442Y148532D01*
X351456Y148642D01*
X351473Y148751D01*
X351494Y148860D01*
X351519Y148968D01*
X351548Y149075D01*
X351580Y149181D01*
X351616Y149286D01*
X351656Y149389D01*
X351699Y149491D01*
X351746Y149592D01*
X351797Y149691D01*
X351850Y149788D01*
X351907Y149882D01*
X351968Y149975D01*
X352031Y150066D01*
X352098Y150155D01*
X352168Y150241D01*
X352241Y150324D01*
X352316Y150406D01*
X352394Y150484D01*
X352476Y150559D01*
X352559Y150632D01*
X352645Y150702D01*
X352734Y150769D01*
X352825Y150832D01*
X352918Y150893D01*
X353013Y150950D01*
X353109Y151003D01*
X353208Y151054D01*
X353309Y151101D01*
X353411Y151144D01*
X353514Y151184D01*
X353619Y151220D01*
X353725Y151252D01*
X353832Y151281D01*
X353940Y151306D01*
X354049Y151327D01*
X354158Y151344D01*
X354268Y151358D01*
X354379Y151367D01*
X354489Y151373D01*
X354600Y151375D01*
X354711Y151373D01*
X354821Y151367D01*
X354932Y151358D01*
X355042Y151344D01*
X355151Y151327D01*
X355260Y151306D01*
X355368Y151281D01*
X355475Y151252D01*
X355581Y151220D01*
X355686Y151184D01*
X355789Y151144D01*
X355891Y151101D01*
X355992Y151054D01*
X356091Y151003D01*
X356188Y150950D01*
X356282Y150893D01*
X356375Y150832D01*
X356466Y150769D01*
X356555Y150702D01*
X356641Y150632D01*
X356724Y150559D01*
X356806Y150484D01*
X356884Y150406D01*
X356959Y150324D01*
X357032Y150241D01*
X357102Y150155D01*
X357169Y150066D01*
X357232Y149975D01*
X357293Y149882D01*
X357350Y149788D01*
X357403Y149691D01*
X357454Y149592D01*
X357501Y149491D01*
X357544Y149389D01*
X357584Y149286D01*
X357620Y149181D01*
X357652Y149075D01*
X357681Y148968D01*
X357706Y148860D01*
X357727Y148751D01*
X357744Y148642D01*
X357758Y148532D01*
X357767Y148421D01*
X357773Y148311D01*
X357775Y148200D01*
X357775Y145025D01*
X351425Y159376D02*
X351427Y159480D01*
X351433Y159585D01*
X351442Y159689D01*
X351455Y159792D01*
X351473Y159895D01*
X351493Y159997D01*
X351518Y160099D01*
X351546Y160199D01*
X351578Y160299D01*
X351614Y160397D01*
X351653Y160494D01*
X351695Y160589D01*
X351741Y160683D01*
X351791Y160775D01*
X351843Y160865D01*
X351899Y160953D01*
X351959Y161039D01*
X352021Y161123D01*
X352086Y161204D01*
X352154Y161283D01*
X352226Y161360D01*
X352299Y161433D01*
X352376Y161505D01*
X352455Y161573D01*
X352536Y161638D01*
X352620Y161700D01*
X352706Y161760D01*
X352794Y161816D01*
X352884Y161868D01*
X352976Y161918D01*
X353070Y161964D01*
X353165Y162006D01*
X353262Y162045D01*
X353360Y162081D01*
X353460Y162113D01*
X353560Y162141D01*
X353662Y162166D01*
X353764Y162186D01*
X353867Y162204D01*
X353970Y162217D01*
X354074Y162226D01*
X354179Y162232D01*
X354283Y162234D01*
X351425Y159376D02*
X351427Y159258D01*
X351433Y159139D01*
X351442Y159021D01*
X351455Y158904D01*
X351473Y158787D01*
X351493Y158670D01*
X351518Y158554D01*
X351546Y158439D01*
X351579Y158326D01*
X351614Y158213D01*
X351654Y158101D01*
X351696Y157991D01*
X351743Y157882D01*
X351793Y157774D01*
X351846Y157669D01*
X351903Y157565D01*
X351963Y157463D01*
X352026Y157363D01*
X352093Y157265D01*
X352162Y157169D01*
X352235Y157076D01*
X352311Y156985D01*
X352389Y156896D01*
X352471Y156810D01*
X352555Y156727D01*
X352641Y156646D01*
X352731Y156569D01*
X352822Y156494D01*
X352916Y156422D01*
X353013Y156353D01*
X353111Y156288D01*
X353212Y156225D01*
X353315Y156166D01*
X353419Y156110D01*
X353525Y156058D01*
X353633Y156009D01*
X353742Y155964D01*
X353853Y155922D01*
X353965Y155884D01*
X356505Y161282D02*
X356430Y161358D01*
X356351Y161433D01*
X356270Y161504D01*
X356186Y161573D01*
X356100Y161638D01*
X356012Y161700D01*
X355922Y161760D01*
X355830Y161816D01*
X355735Y161869D01*
X355639Y161918D01*
X355541Y161964D01*
X355442Y162007D01*
X355341Y162046D01*
X355239Y162081D01*
X355136Y162113D01*
X355032Y162141D01*
X354927Y162166D01*
X354820Y162187D01*
X354714Y162204D01*
X354607Y162217D01*
X354499Y162226D01*
X354391Y162232D01*
X354283Y162234D01*
X356505Y161281D02*
X362855Y155884D01*
X362855Y162234D01*
X185000Y417500D02*
X177500Y417500D01*
X155000Y417500D01*
X155000Y442500D01*
X185000Y442500D01*
X185000Y425000D01*
X185000Y417500D01*
X185000Y425000D02*
X177500Y417500D01*
X290000Y375000D02*
X290000Y345000D01*
X290000Y375000D02*
X307500Y375000D01*
X307500Y352500D01*
X307500Y345000D01*
X300000Y345000D01*
X290000Y345000D01*
X300000Y345000D02*
X307500Y352500D01*
D16*
X290068Y358403D02*
X290068Y361000D01*
X290068Y358403D02*
X290066Y358304D01*
X290060Y358204D01*
X290051Y358105D01*
X290038Y358007D01*
X290021Y357909D01*
X290000Y357811D01*
X289975Y357715D01*
X289947Y357620D01*
X289915Y357526D01*
X289880Y357433D01*
X289841Y357341D01*
X289798Y357251D01*
X289753Y357163D01*
X289703Y357076D01*
X289651Y356992D01*
X289595Y356909D01*
X289537Y356829D01*
X289475Y356751D01*
X289410Y356676D01*
X289342Y356603D01*
X289272Y356533D01*
X289199Y356465D01*
X289124Y356400D01*
X289046Y356338D01*
X288966Y356280D01*
X288883Y356224D01*
X288799Y356172D01*
X288712Y356122D01*
X288624Y356077D01*
X288534Y356034D01*
X288442Y355995D01*
X288349Y355960D01*
X288255Y355928D01*
X288160Y355900D01*
X288064Y355875D01*
X287966Y355854D01*
X287868Y355837D01*
X287770Y355824D01*
X287671Y355815D01*
X287571Y355809D01*
X287472Y355807D01*
X280980Y355807D01*
X280980Y355806D02*
X280881Y355808D01*
X280781Y355814D01*
X280682Y355823D01*
X280584Y355836D01*
X280486Y355854D01*
X280388Y355874D01*
X280292Y355899D01*
X280196Y355927D01*
X280102Y355959D01*
X280009Y355994D01*
X279918Y356033D01*
X279828Y356076D01*
X279739Y356121D01*
X279653Y356171D01*
X279568Y356223D01*
X279486Y356279D01*
X279406Y356338D01*
X279328Y356399D01*
X279252Y356464D01*
X279179Y356532D01*
X279109Y356602D01*
X279041Y356675D01*
X278976Y356751D01*
X278915Y356829D01*
X278856Y356909D01*
X278800Y356991D01*
X278748Y357076D01*
X278699Y357162D01*
X278653Y357251D01*
X278610Y357341D01*
X278571Y357432D01*
X278536Y357525D01*
X278504Y357619D01*
X278476Y357715D01*
X278451Y357811D01*
X278431Y357909D01*
X278413Y358007D01*
X278400Y358105D01*
X278391Y358204D01*
X278385Y358303D01*
X278383Y358403D01*
X278384Y358403D02*
X278384Y361000D01*
X284875Y367961D02*
X284875Y371856D01*
X284875Y367961D02*
X284873Y367862D01*
X284867Y367762D01*
X284858Y367663D01*
X284845Y367565D01*
X284828Y367467D01*
X284807Y367369D01*
X284782Y367273D01*
X284754Y367178D01*
X284722Y367084D01*
X284687Y366991D01*
X284648Y366899D01*
X284605Y366809D01*
X284560Y366721D01*
X284510Y366634D01*
X284458Y366550D01*
X284402Y366467D01*
X284344Y366387D01*
X284282Y366309D01*
X284217Y366234D01*
X284149Y366161D01*
X284079Y366091D01*
X284006Y366023D01*
X283931Y365958D01*
X283853Y365896D01*
X283773Y365838D01*
X283690Y365782D01*
X283606Y365730D01*
X283519Y365680D01*
X283431Y365635D01*
X283341Y365592D01*
X283249Y365553D01*
X283156Y365518D01*
X283062Y365486D01*
X282967Y365458D01*
X282871Y365433D01*
X282773Y365412D01*
X282675Y365395D01*
X282577Y365382D01*
X282478Y365373D01*
X282378Y365367D01*
X282279Y365365D01*
X281630Y365365D01*
X281630Y365364D02*
X281517Y365366D01*
X281404Y365372D01*
X281291Y365382D01*
X281178Y365396D01*
X281066Y365413D01*
X280955Y365435D01*
X280845Y365460D01*
X280735Y365490D01*
X280627Y365523D01*
X280520Y365560D01*
X280414Y365600D01*
X280310Y365645D01*
X280207Y365693D01*
X280106Y365744D01*
X280007Y365799D01*
X279910Y365857D01*
X279815Y365919D01*
X279722Y365984D01*
X279632Y366052D01*
X279544Y366123D01*
X279458Y366198D01*
X279375Y366275D01*
X279295Y366355D01*
X279218Y366438D01*
X279143Y366524D01*
X279072Y366612D01*
X279004Y366702D01*
X278939Y366795D01*
X278877Y366890D01*
X278819Y366987D01*
X278764Y367086D01*
X278713Y367187D01*
X278665Y367290D01*
X278620Y367394D01*
X278580Y367500D01*
X278543Y367607D01*
X278510Y367715D01*
X278480Y367825D01*
X278455Y367935D01*
X278433Y368046D01*
X278416Y368158D01*
X278402Y368271D01*
X278392Y368384D01*
X278386Y368497D01*
X278384Y368610D01*
X278386Y368723D01*
X278392Y368836D01*
X278402Y368949D01*
X278416Y369062D01*
X278433Y369174D01*
X278455Y369285D01*
X278480Y369395D01*
X278510Y369505D01*
X278543Y369613D01*
X278580Y369720D01*
X278620Y369826D01*
X278665Y369930D01*
X278713Y370033D01*
X278764Y370134D01*
X278819Y370233D01*
X278877Y370330D01*
X278939Y370425D01*
X279004Y370518D01*
X279072Y370608D01*
X279143Y370696D01*
X279218Y370782D01*
X279295Y370865D01*
X279375Y370945D01*
X279458Y371022D01*
X279544Y371097D01*
X279632Y371168D01*
X279722Y371236D01*
X279815Y371301D01*
X279910Y371363D01*
X280007Y371421D01*
X280106Y371476D01*
X280207Y371527D01*
X280310Y371575D01*
X280414Y371620D01*
X280520Y371660D01*
X280627Y371697D01*
X280735Y371730D01*
X280845Y371760D01*
X280955Y371785D01*
X281066Y371807D01*
X281178Y371824D01*
X281291Y371838D01*
X281404Y371848D01*
X281517Y371854D01*
X281630Y371856D01*
X284875Y371856D01*
X285018Y371854D01*
X285161Y371848D01*
X285304Y371838D01*
X285446Y371824D01*
X285588Y371807D01*
X285730Y371785D01*
X285871Y371760D01*
X286011Y371730D01*
X286150Y371697D01*
X286288Y371660D01*
X286425Y371619D01*
X286561Y371575D01*
X286696Y371526D01*
X286829Y371474D01*
X286961Y371419D01*
X287091Y371359D01*
X287220Y371296D01*
X287347Y371230D01*
X287472Y371160D01*
X287594Y371087D01*
X287715Y371010D01*
X287834Y370930D01*
X287950Y370847D01*
X288065Y370761D01*
X288176Y370672D01*
X288286Y370579D01*
X288392Y370484D01*
X288496Y370385D01*
X288597Y370284D01*
X288696Y370180D01*
X288791Y370074D01*
X288884Y369964D01*
X288973Y369853D01*
X289059Y369738D01*
X289142Y369622D01*
X289222Y369503D01*
X289299Y369382D01*
X289372Y369260D01*
X289442Y369135D01*
X289508Y369008D01*
X289571Y368879D01*
X289631Y368749D01*
X289686Y368617D01*
X289738Y368484D01*
X289787Y368349D01*
X289831Y368213D01*
X289872Y368076D01*
X289909Y367938D01*
X289942Y367799D01*
X289972Y367659D01*
X289997Y367518D01*
X290019Y367376D01*
X290036Y367234D01*
X290050Y367092D01*
X290060Y366949D01*
X290066Y366806D01*
X290068Y366663D01*
D10*
X-12700Y215138D02*
X-12700Y202438D01*
X-12700Y215138D02*
X-6350Y221488D01*
X6350Y221488D02*
X12700Y215138D01*
X-6350Y221488D02*
X-12700Y227838D01*
X-12700Y240538D01*
X-6350Y246888D01*
X6350Y246888D02*
X12700Y240538D01*
X12700Y227838D01*
X6350Y221488D01*
X6350Y196088D02*
X-6350Y196088D01*
X-12700Y202438D01*
X6350Y196088D02*
X12700Y202438D01*
X12700Y215138D01*
X-6350Y246888D02*
X-12700Y253238D01*
X-12700Y265938D01*
X-6350Y272288D01*
X6350Y272288D02*
X12700Y265938D01*
X12700Y253238D01*
X6350Y246888D01*
X-12700Y278638D02*
X-12700Y291338D01*
X-6350Y297688D01*
X6350Y297688D01*
X12700Y291338D01*
X-6350Y272288D02*
X-12700Y278638D01*
X6350Y272288D02*
X12700Y278638D01*
X12700Y291338D01*
D18*
X-5715Y188468D02*
X-3175Y185293D01*
X-5715Y188468D02*
X5715Y188468D01*
X5715Y185293D02*
X5715Y191643D01*
X3175Y300863D02*
X-5715Y303403D01*
X3175Y300863D02*
X3175Y307213D01*
X635Y305308D02*
X5715Y305308D01*
X-17145Y196723D02*
X-28575Y196723D01*
X-17145Y196723D02*
X-17145Y201803D01*
X-15875Y205715D02*
X-15875Y210795D01*
X-17145Y215773D02*
X-17145Y220853D01*
X-17145Y215773D02*
X-28575Y215773D01*
X-28575Y220853D01*
X-23495Y219583D02*
X-23495Y215773D01*
X-28575Y225654D02*
X-17145Y225654D01*
X-17145Y232004D02*
X-28575Y225654D01*
X-28575Y232004D02*
X-17145Y232004D01*
X-17145Y239967D02*
X-17145Y242507D01*
X-17145Y239967D02*
X-17147Y239867D01*
X-17153Y239768D01*
X-17163Y239668D01*
X-17176Y239570D01*
X-17194Y239471D01*
X-17215Y239374D01*
X-17240Y239278D01*
X-17269Y239182D01*
X-17302Y239088D01*
X-17338Y238995D01*
X-17378Y238904D01*
X-17422Y238814D01*
X-17469Y238726D01*
X-17519Y238640D01*
X-17573Y238556D01*
X-17630Y238474D01*
X-17690Y238395D01*
X-17754Y238317D01*
X-17820Y238243D01*
X-17889Y238171D01*
X-17961Y238102D01*
X-18035Y238036D01*
X-18113Y237972D01*
X-18192Y237912D01*
X-18274Y237855D01*
X-18358Y237801D01*
X-18444Y237751D01*
X-18532Y237704D01*
X-18622Y237660D01*
X-18713Y237620D01*
X-18806Y237584D01*
X-18900Y237551D01*
X-18996Y237522D01*
X-19092Y237497D01*
X-19189Y237476D01*
X-19288Y237458D01*
X-19386Y237445D01*
X-19486Y237435D01*
X-19585Y237429D01*
X-19685Y237427D01*
X-26035Y237427D01*
X-26135Y237429D01*
X-26234Y237435D01*
X-26334Y237445D01*
X-26432Y237458D01*
X-26531Y237476D01*
X-26628Y237497D01*
X-26724Y237522D01*
X-26820Y237551D01*
X-26914Y237584D01*
X-27007Y237620D01*
X-27098Y237660D01*
X-27188Y237704D01*
X-27276Y237751D01*
X-27362Y237801D01*
X-27446Y237855D01*
X-27528Y237912D01*
X-27607Y237972D01*
X-27685Y238036D01*
X-27759Y238102D01*
X-27831Y238171D01*
X-27900Y238243D01*
X-27966Y238317D01*
X-28030Y238395D01*
X-28090Y238474D01*
X-28147Y238556D01*
X-28201Y238640D01*
X-28251Y238726D01*
X-28298Y238814D01*
X-28342Y238904D01*
X-28382Y238995D01*
X-28418Y239088D01*
X-28451Y239182D01*
X-28480Y239278D01*
X-28505Y239374D01*
X-28526Y239471D01*
X-28544Y239570D01*
X-28557Y239668D01*
X-28567Y239768D01*
X-28573Y239867D01*
X-28575Y239967D01*
X-28575Y242507D01*
X-25400Y246990D02*
X-20320Y246990D01*
X-25400Y246990D02*
X-25511Y246992D01*
X-25621Y246998D01*
X-25732Y247007D01*
X-25842Y247021D01*
X-25951Y247038D01*
X-26060Y247059D01*
X-26168Y247084D01*
X-26275Y247113D01*
X-26381Y247145D01*
X-26486Y247181D01*
X-26589Y247221D01*
X-26691Y247264D01*
X-26792Y247311D01*
X-26891Y247362D01*
X-26987Y247415D01*
X-27082Y247472D01*
X-27175Y247533D01*
X-27266Y247596D01*
X-27355Y247663D01*
X-27441Y247733D01*
X-27524Y247806D01*
X-27606Y247881D01*
X-27684Y247959D01*
X-27759Y248041D01*
X-27832Y248124D01*
X-27902Y248210D01*
X-27969Y248299D01*
X-28032Y248390D01*
X-28093Y248483D01*
X-28150Y248578D01*
X-28203Y248674D01*
X-28254Y248773D01*
X-28301Y248874D01*
X-28344Y248976D01*
X-28384Y249079D01*
X-28420Y249184D01*
X-28452Y249290D01*
X-28481Y249397D01*
X-28506Y249505D01*
X-28527Y249614D01*
X-28544Y249723D01*
X-28558Y249833D01*
X-28567Y249944D01*
X-28573Y250054D01*
X-28575Y250165D01*
X-28573Y250276D01*
X-28567Y250386D01*
X-28558Y250497D01*
X-28544Y250607D01*
X-28527Y250716D01*
X-28506Y250825D01*
X-28481Y250933D01*
X-28452Y251040D01*
X-28420Y251146D01*
X-28384Y251251D01*
X-28344Y251354D01*
X-28301Y251456D01*
X-28254Y251557D01*
X-28203Y251656D01*
X-28150Y251753D01*
X-28093Y251847D01*
X-28032Y251940D01*
X-27969Y252031D01*
X-27902Y252120D01*
X-27832Y252206D01*
X-27759Y252289D01*
X-27684Y252371D01*
X-27606Y252449D01*
X-27524Y252524D01*
X-27441Y252597D01*
X-27355Y252667D01*
X-27266Y252734D01*
X-27175Y252797D01*
X-27082Y252858D01*
X-26988Y252915D01*
X-26891Y252968D01*
X-26792Y253019D01*
X-26691Y253066D01*
X-26589Y253109D01*
X-26486Y253149D01*
X-26381Y253185D01*
X-26275Y253217D01*
X-26168Y253246D01*
X-26060Y253271D01*
X-25951Y253292D01*
X-25842Y253309D01*
X-25732Y253323D01*
X-25621Y253332D01*
X-25511Y253338D01*
X-25400Y253340D01*
X-20320Y253340D01*
X-20209Y253338D01*
X-20099Y253332D01*
X-19988Y253323D01*
X-19878Y253309D01*
X-19769Y253292D01*
X-19660Y253271D01*
X-19552Y253246D01*
X-19445Y253217D01*
X-19339Y253185D01*
X-19234Y253149D01*
X-19131Y253109D01*
X-19029Y253066D01*
X-18928Y253019D01*
X-18829Y252968D01*
X-18732Y252915D01*
X-18638Y252858D01*
X-18545Y252797D01*
X-18454Y252734D01*
X-18365Y252667D01*
X-18279Y252597D01*
X-18196Y252524D01*
X-18114Y252449D01*
X-18036Y252371D01*
X-17961Y252289D01*
X-17888Y252206D01*
X-17818Y252120D01*
X-17751Y252031D01*
X-17688Y251940D01*
X-17627Y251847D01*
X-17570Y251752D01*
X-17517Y251656D01*
X-17466Y251557D01*
X-17419Y251456D01*
X-17376Y251354D01*
X-17336Y251251D01*
X-17300Y251146D01*
X-17268Y251040D01*
X-17239Y250933D01*
X-17214Y250825D01*
X-17193Y250716D01*
X-17176Y250607D01*
X-17162Y250497D01*
X-17153Y250386D01*
X-17147Y250276D01*
X-17145Y250165D01*
X-17147Y250054D01*
X-17153Y249944D01*
X-17162Y249833D01*
X-17176Y249723D01*
X-17193Y249614D01*
X-17214Y249505D01*
X-17239Y249397D01*
X-17268Y249290D01*
X-17300Y249184D01*
X-17336Y249079D01*
X-17376Y248976D01*
X-17419Y248874D01*
X-17466Y248773D01*
X-17517Y248674D01*
X-17570Y248577D01*
X-17627Y248483D01*
X-17688Y248390D01*
X-17751Y248299D01*
X-17818Y248210D01*
X-17888Y248124D01*
X-17961Y248041D01*
X-18036Y247959D01*
X-18114Y247881D01*
X-18196Y247806D01*
X-18279Y247733D01*
X-18365Y247663D01*
X-18454Y247596D01*
X-18545Y247533D01*
X-18638Y247472D01*
X-18733Y247415D01*
X-18829Y247362D01*
X-18928Y247311D01*
X-19029Y247264D01*
X-19131Y247221D01*
X-19234Y247181D01*
X-19339Y247145D01*
X-19445Y247113D01*
X-19552Y247084D01*
X-19660Y247059D01*
X-19769Y247038D01*
X-19878Y247021D01*
X-19988Y247007D01*
X-20099Y246998D01*
X-20209Y246992D01*
X-20320Y246990D01*
X-17145Y258801D02*
X-28575Y258801D01*
X-28575Y261976D01*
X-28573Y262087D01*
X-28567Y262197D01*
X-28558Y262308D01*
X-28544Y262418D01*
X-28527Y262527D01*
X-28506Y262636D01*
X-28481Y262744D01*
X-28452Y262851D01*
X-28420Y262957D01*
X-28384Y263062D01*
X-28344Y263165D01*
X-28301Y263267D01*
X-28254Y263368D01*
X-28203Y263467D01*
X-28150Y263564D01*
X-28093Y263658D01*
X-28032Y263751D01*
X-27969Y263842D01*
X-27902Y263931D01*
X-27832Y264017D01*
X-27759Y264100D01*
X-27684Y264182D01*
X-27606Y264260D01*
X-27524Y264335D01*
X-27441Y264408D01*
X-27355Y264478D01*
X-27266Y264545D01*
X-27175Y264608D01*
X-27082Y264669D01*
X-26988Y264726D01*
X-26891Y264779D01*
X-26792Y264830D01*
X-26691Y264877D01*
X-26589Y264920D01*
X-26486Y264960D01*
X-26381Y264996D01*
X-26275Y265028D01*
X-26168Y265057D01*
X-26060Y265082D01*
X-25951Y265103D01*
X-25842Y265120D01*
X-25732Y265134D01*
X-25621Y265143D01*
X-25511Y265149D01*
X-25400Y265151D01*
X-20320Y265151D01*
X-20209Y265149D01*
X-20099Y265143D01*
X-19988Y265134D01*
X-19878Y265120D01*
X-19769Y265103D01*
X-19660Y265082D01*
X-19552Y265057D01*
X-19445Y265028D01*
X-19339Y264996D01*
X-19234Y264960D01*
X-19131Y264920D01*
X-19029Y264877D01*
X-18928Y264830D01*
X-18829Y264779D01*
X-18733Y264726D01*
X-18638Y264669D01*
X-18545Y264608D01*
X-18454Y264545D01*
X-18365Y264478D01*
X-18279Y264408D01*
X-18196Y264335D01*
X-18114Y264260D01*
X-18036Y264182D01*
X-17961Y264100D01*
X-17888Y264017D01*
X-17818Y263931D01*
X-17751Y263842D01*
X-17688Y263751D01*
X-17627Y263658D01*
X-17570Y263564D01*
X-17517Y263467D01*
X-17466Y263368D01*
X-17419Y263267D01*
X-17376Y263165D01*
X-17336Y263062D01*
X-17300Y262957D01*
X-17268Y262851D01*
X-17239Y262744D01*
X-17214Y262636D01*
X-17193Y262527D01*
X-17176Y262418D01*
X-17162Y262308D01*
X-17153Y262197D01*
X-17147Y262087D01*
X-17145Y261976D01*
X-17145Y258801D01*
X-17145Y271018D02*
X-17145Y276098D01*
X-17145Y271018D02*
X-28575Y271018D01*
X-28575Y276098D01*
X-23495Y274828D02*
X-23495Y271018D01*
X-28575Y280981D02*
X-17145Y280981D01*
X-28575Y280981D02*
X-28575Y284156D01*
X-28573Y284267D01*
X-28567Y284377D01*
X-28558Y284488D01*
X-28544Y284598D01*
X-28527Y284707D01*
X-28506Y284816D01*
X-28481Y284924D01*
X-28452Y285031D01*
X-28420Y285137D01*
X-28384Y285242D01*
X-28344Y285345D01*
X-28301Y285447D01*
X-28254Y285548D01*
X-28203Y285647D01*
X-28150Y285744D01*
X-28093Y285838D01*
X-28032Y285931D01*
X-27969Y286022D01*
X-27902Y286111D01*
X-27832Y286197D01*
X-27759Y286280D01*
X-27684Y286362D01*
X-27606Y286440D01*
X-27524Y286515D01*
X-27441Y286588D01*
X-27355Y286658D01*
X-27266Y286725D01*
X-27175Y286788D01*
X-27082Y286849D01*
X-26988Y286906D01*
X-26891Y286959D01*
X-26792Y287010D01*
X-26691Y287057D01*
X-26589Y287100D01*
X-26486Y287140D01*
X-26381Y287176D01*
X-26275Y287208D01*
X-26168Y287237D01*
X-26060Y287262D01*
X-25951Y287283D01*
X-25842Y287300D01*
X-25732Y287314D01*
X-25621Y287323D01*
X-25511Y287329D01*
X-25400Y287331D01*
X-25289Y287329D01*
X-25179Y287323D01*
X-25068Y287314D01*
X-24958Y287300D01*
X-24849Y287283D01*
X-24740Y287262D01*
X-24632Y287237D01*
X-24525Y287208D01*
X-24419Y287176D01*
X-24314Y287140D01*
X-24211Y287100D01*
X-24109Y287057D01*
X-24008Y287010D01*
X-23909Y286959D01*
X-23813Y286906D01*
X-23718Y286849D01*
X-23625Y286788D01*
X-23534Y286725D01*
X-23445Y286658D01*
X-23359Y286588D01*
X-23276Y286515D01*
X-23194Y286440D01*
X-23116Y286362D01*
X-23041Y286280D01*
X-22968Y286197D01*
X-22898Y286111D01*
X-22831Y286022D01*
X-22768Y285931D01*
X-22707Y285838D01*
X-22650Y285744D01*
X-22597Y285647D01*
X-22546Y285548D01*
X-22499Y285447D01*
X-22456Y285345D01*
X-22416Y285242D01*
X-22380Y285137D01*
X-22348Y285031D01*
X-22319Y284924D01*
X-22294Y284816D01*
X-22273Y284707D01*
X-22256Y284598D01*
X-22242Y284488D01*
X-22233Y284377D01*
X-22227Y284267D01*
X-22225Y284156D01*
X-22225Y280981D01*
X-22225Y284791D02*
X-17145Y287331D01*
X-25718Y298679D02*
X-25822Y298677D01*
X-25927Y298671D01*
X-26031Y298662D01*
X-26134Y298649D01*
X-26237Y298631D01*
X-26339Y298611D01*
X-26441Y298586D01*
X-26541Y298558D01*
X-26641Y298526D01*
X-26739Y298490D01*
X-26836Y298451D01*
X-26931Y298409D01*
X-27025Y298363D01*
X-27117Y298313D01*
X-27207Y298261D01*
X-27295Y298205D01*
X-27381Y298145D01*
X-27465Y298083D01*
X-27546Y298018D01*
X-27625Y297950D01*
X-27702Y297878D01*
X-27775Y297805D01*
X-27847Y297728D01*
X-27915Y297649D01*
X-27980Y297568D01*
X-28042Y297484D01*
X-28102Y297398D01*
X-28158Y297310D01*
X-28210Y297220D01*
X-28260Y297128D01*
X-28306Y297034D01*
X-28348Y296939D01*
X-28387Y296842D01*
X-28423Y296744D01*
X-28455Y296644D01*
X-28483Y296544D01*
X-28508Y296442D01*
X-28528Y296340D01*
X-28546Y296237D01*
X-28559Y296134D01*
X-28568Y296030D01*
X-28574Y295925D01*
X-28576Y295821D01*
X-28575Y295821D02*
X-28573Y295703D01*
X-28567Y295584D01*
X-28558Y295466D01*
X-28545Y295349D01*
X-28527Y295232D01*
X-28507Y295115D01*
X-28482Y294999D01*
X-28454Y294884D01*
X-28421Y294771D01*
X-28386Y294658D01*
X-28346Y294546D01*
X-28304Y294436D01*
X-28257Y294327D01*
X-28207Y294219D01*
X-28154Y294114D01*
X-28097Y294010D01*
X-28037Y293908D01*
X-27974Y293808D01*
X-27907Y293710D01*
X-27838Y293614D01*
X-27765Y293521D01*
X-27689Y293430D01*
X-27611Y293341D01*
X-27529Y293255D01*
X-27445Y293172D01*
X-27359Y293091D01*
X-27269Y293014D01*
X-27178Y292939D01*
X-27084Y292867D01*
X-26987Y292798D01*
X-26889Y292733D01*
X-26788Y292670D01*
X-26685Y292611D01*
X-26581Y292555D01*
X-26475Y292503D01*
X-26367Y292454D01*
X-26258Y292409D01*
X-26147Y292367D01*
X-26035Y292329D01*
X-23496Y297726D02*
X-23571Y297802D01*
X-23650Y297877D01*
X-23731Y297948D01*
X-23815Y298017D01*
X-23901Y298082D01*
X-23989Y298144D01*
X-24079Y298204D01*
X-24171Y298260D01*
X-24266Y298313D01*
X-24362Y298362D01*
X-24460Y298408D01*
X-24559Y298451D01*
X-24660Y298490D01*
X-24762Y298525D01*
X-24865Y298557D01*
X-24969Y298585D01*
X-25074Y298610D01*
X-25181Y298631D01*
X-25287Y298648D01*
X-25394Y298661D01*
X-25502Y298670D01*
X-25610Y298676D01*
X-25718Y298678D01*
X-23495Y297726D02*
X-17145Y292328D01*
X-17145Y298678D01*
D11*
X-14500Y309232D02*
X-10000Y309232D01*
X-14500Y309232D02*
X-14500Y355232D01*
X-10000Y355232D01*
X10000Y355232D02*
X14500Y355232D01*
X14500Y309232D01*
X10000Y309232D01*
X10000Y363982D02*
X-10000Y363982D01*
D18*
X-17145Y328057D02*
X-21971Y328057D01*
X-21971Y329397D01*
X-21969Y329467D01*
X-21964Y329537D01*
X-21954Y329607D01*
X-21942Y329676D01*
X-21925Y329744D01*
X-21905Y329811D01*
X-21882Y329878D01*
X-21855Y329942D01*
X-21825Y330006D01*
X-21791Y330068D01*
X-21755Y330127D01*
X-21715Y330185D01*
X-21672Y330241D01*
X-21627Y330294D01*
X-21578Y330345D01*
X-21527Y330394D01*
X-21474Y330439D01*
X-21418Y330482D01*
X-21360Y330522D01*
X-21301Y330558D01*
X-21239Y330592D01*
X-21175Y330622D01*
X-21111Y330649D01*
X-21044Y330672D01*
X-20977Y330692D01*
X-20909Y330709D01*
X-20840Y330721D01*
X-20770Y330731D01*
X-20700Y330736D01*
X-20630Y330738D01*
X-18486Y330738D01*
X-18416Y330736D01*
X-18346Y330731D01*
X-18276Y330721D01*
X-18207Y330709D01*
X-18139Y330692D01*
X-18072Y330672D01*
X-18005Y330649D01*
X-17941Y330622D01*
X-17877Y330592D01*
X-17816Y330558D01*
X-17756Y330522D01*
X-17698Y330482D01*
X-17642Y330439D01*
X-17589Y330394D01*
X-17538Y330345D01*
X-17489Y330294D01*
X-17444Y330241D01*
X-17401Y330185D01*
X-17361Y330127D01*
X-17325Y330068D01*
X-17291Y330006D01*
X-17261Y329942D01*
X-17234Y329878D01*
X-17211Y329811D01*
X-17191Y329744D01*
X-17174Y329676D01*
X-17162Y329607D01*
X-17152Y329537D01*
X-17147Y329467D01*
X-17145Y329397D01*
X-17145Y328057D01*
X-20899Y333726D02*
X-21971Y335067D01*
X-17145Y335067D01*
X-17145Y336407D02*
X-17145Y333726D01*
M02*
