G04 EAGLE Gerber RS-274X export*
G75*
%MOMM*%
%FSLAX34Y34*%
%LPD*%
%INSolderpaste Bottom*%
%IPPOS*%
%AMOC8*
5,1,8,0,0,1.08239X$1,22.5*%
G01*
%ADD10R,2.000000X1.600000*%
%ADD11R,1.500000X1.300000*%
%ADD12R,1.600000X1.300000*%
%ADD13R,1.200000X1.200000*%
%ADD14R,1.500000X1.500000*%
%ADD15R,0.550000X1.350000*%
%ADD16R,1.300000X1.500000*%
%ADD17R,4.200000X1.400000*%
%ADD18R,1.300000X1.600000*%


D10*
X200848Y521752D03*
X200848Y549752D03*
D11*
X226502Y508168D03*
X226502Y489168D03*
X248346Y507660D03*
X248346Y488660D03*
D10*
X198308Y307884D03*
X198308Y335884D03*
D12*
X227264Y593004D03*
X227264Y574004D03*
D11*
X227264Y550332D03*
X227264Y531332D03*
D12*
X230312Y370500D03*
X230312Y351500D03*
D11*
X230312Y327828D03*
X230312Y308828D03*
D13*
X849500Y80000D03*
X870500Y80000D03*
X849500Y180000D03*
X870500Y180000D03*
X849500Y280000D03*
X870500Y280000D03*
X849500Y380000D03*
X870500Y380000D03*
X849500Y480000D03*
X870500Y480000D03*
X849500Y580000D03*
X870500Y580000D03*
X849500Y680000D03*
X870500Y680000D03*
X849500Y780000D03*
X870500Y780000D03*
D14*
X877500Y110000D03*
X842500Y110000D03*
X877500Y210000D03*
X842500Y210000D03*
X877500Y310000D03*
X842500Y310000D03*
X877500Y410000D03*
X842500Y410000D03*
X877500Y550000D03*
X842500Y550000D03*
X877500Y650000D03*
X842500Y650000D03*
X877500Y750000D03*
X842500Y750000D03*
X877500Y450000D03*
X842500Y450000D03*
D11*
X185928Y210668D03*
X185928Y191668D03*
X210312Y210668D03*
X210312Y191668D03*
X112776Y210668D03*
X112776Y191668D03*
X161544Y210668D03*
X161544Y191668D03*
X137160Y210668D03*
X137160Y191668D03*
X259080Y280772D03*
X259080Y261772D03*
X234696Y280772D03*
X234696Y261772D03*
D15*
X100940Y437353D03*
X91440Y437353D03*
X81940Y437353D03*
X81940Y464855D03*
X91440Y464855D03*
X100940Y464855D03*
D16*
X97180Y484632D03*
X116180Y484632D03*
D11*
X42672Y460604D03*
X42672Y441604D03*
X64008Y460604D03*
X64008Y441604D03*
D16*
X81940Y411480D03*
X100940Y411480D03*
X81940Y368808D03*
X100940Y368808D03*
X81940Y390144D03*
X100940Y390144D03*
D17*
X140480Y463740D03*
X140480Y426740D03*
D14*
X152500Y150000D03*
X187500Y150000D03*
D18*
X210500Y150000D03*
X229500Y150000D03*
D14*
X152500Y710000D03*
X187500Y710000D03*
D18*
X210500Y710000D03*
X229500Y710000D03*
X388748Y296952D03*
X369748Y296952D03*
X298140Y351956D03*
X317140Y351956D03*
X298140Y370072D03*
X317140Y370072D03*
D12*
X295656Y274676D03*
X295656Y255676D03*
M02*
