M48
;GenerationSoftware,Autodesk,EAGLE,9.6.0*%
;CreationDate,2024-04-21T16:36:02Z*%
FMAT,2
ICI,OFF
METRIC,TZ,000.000
T2C0.350
T1C3.000
%
G90
M71
T1
X40000Y39000
X70000Y39000
X30000Y39000
X60000Y39000
T2
X54254Y52730
X47701Y40386
X44025Y42816
X57025Y42816
X61025Y48816
X11025Y49816
X89025Y49816
X17121Y49816
X23217Y49816
X4624Y50730
X29008Y49816
X35104Y49816
X41200Y49816
X49125Y45854
X66194Y49816
X70766Y49816
X76862Y49816
X82653Y49816
X94540Y49816
X35104Y42806
X54916Y40062
X64974Y43110
X43943Y50121
X5486Y56083
X51816Y48768
X52730Y40843
X48158Y41758
X48158Y48768
X11582Y56083
X17678Y55778
X23470Y56083
X47854Y51816
X35662Y56083
X41758Y56083
X47549Y56083
X53645Y56083
X59741Y55778
X65837Y56083
X71933Y55778
X77724Y55778
X83820Y55778
X89916Y55778
X96317Y55778
X56998Y49682
X55474Y42367
X2000Y57050
X7925Y56388
X54864Y51816
X14173Y56540
X20000Y57050
X26000Y57050
X32000Y57050
X38000Y57050
X44000Y57050
X50000Y57050
X56000Y57050
X62000Y57050
X68000Y57050
X74000Y57050
X80000Y57050
X86000Y57050
X92000Y57050
X98000Y57050
X52121Y51816
X46025Y51816
X50597Y43891
X29566Y56083
M30