G04 EAGLE Gerber RS-274X export*
G75*
%MOMM*%
%FSLAX34Y34*%
%LPD*%
%IN*%
%IPPOS*%
%AMOC8*
5,1,8,0,0,1.08239X$1,22.5*%
G01*
%ADD10C,0.254000*%


D10*
X0Y0D02*
X1000000Y0D01*
X1000000Y380000D01*
X980000Y400000D01*
X810000Y400000D01*
X600000Y610000D01*
X600000Y680000D01*
X870000Y680000D01*
X900000Y690000D01*
X900000Y780000D01*
X870000Y800000D01*
X130000Y800000D01*
X100000Y780000D01*
X100000Y690000D01*
X130000Y680000D01*
X400000Y680000D01*
X400000Y610000D01*
X180000Y400000D01*
X20000Y400000D01*
X0Y380000D01*
X0Y0D01*
X55000Y29464D02*
X54924Y28396D01*
X54771Y27335D01*
X54543Y26288D01*
X54241Y25260D01*
X53867Y24256D01*
X53422Y23281D01*
X52908Y22341D01*
X52329Y21440D01*
X51687Y20582D01*
X50985Y19772D01*
X50228Y19015D01*
X49418Y18313D01*
X48560Y17671D01*
X47659Y17092D01*
X46719Y16578D01*
X45744Y16133D01*
X44740Y15759D01*
X43712Y15457D01*
X42665Y15229D01*
X41604Y15076D01*
X40536Y15000D01*
X39464Y15000D01*
X38396Y15076D01*
X37335Y15229D01*
X36288Y15457D01*
X35260Y15759D01*
X34256Y16133D01*
X33281Y16578D01*
X32341Y17092D01*
X31440Y17671D01*
X30582Y18313D01*
X29772Y19015D01*
X29015Y19772D01*
X28313Y20582D01*
X27671Y21440D01*
X27092Y22341D01*
X26578Y23281D01*
X26133Y24256D01*
X25759Y25260D01*
X25457Y26288D01*
X25229Y27335D01*
X25076Y28396D01*
X25000Y29464D01*
X25000Y30536D01*
X25076Y31604D01*
X25229Y32665D01*
X25457Y33712D01*
X25759Y34740D01*
X26133Y35744D01*
X26578Y36719D01*
X27092Y37659D01*
X27671Y38560D01*
X28313Y39418D01*
X29015Y40228D01*
X29772Y40985D01*
X30582Y41687D01*
X31440Y42329D01*
X32341Y42908D01*
X33281Y43422D01*
X34256Y43867D01*
X35260Y44241D01*
X36288Y44543D01*
X37335Y44771D01*
X38396Y44924D01*
X39464Y45000D01*
X40536Y45000D01*
X41604Y44924D01*
X42665Y44771D01*
X43712Y44543D01*
X44740Y44241D01*
X45744Y43867D01*
X46719Y43422D01*
X47659Y42908D01*
X48560Y42329D01*
X49418Y41687D01*
X50228Y40985D01*
X50985Y40228D01*
X51687Y39418D01*
X52329Y38560D01*
X52908Y37659D01*
X53422Y36719D01*
X53867Y35744D01*
X54241Y34740D01*
X54543Y33712D01*
X54771Y32665D01*
X54924Y31604D01*
X55000Y30536D01*
X55000Y29464D01*
X55000Y269464D02*
X54924Y268396D01*
X54771Y267335D01*
X54543Y266288D01*
X54241Y265260D01*
X53867Y264256D01*
X53422Y263281D01*
X52908Y262341D01*
X52329Y261440D01*
X51687Y260582D01*
X50985Y259772D01*
X50228Y259015D01*
X49418Y258313D01*
X48560Y257671D01*
X47659Y257092D01*
X46719Y256578D01*
X45744Y256133D01*
X44740Y255759D01*
X43712Y255457D01*
X42665Y255229D01*
X41604Y255076D01*
X40536Y255000D01*
X39464Y255000D01*
X38396Y255076D01*
X37335Y255229D01*
X36288Y255457D01*
X35260Y255759D01*
X34256Y256133D01*
X33281Y256578D01*
X32341Y257092D01*
X31440Y257671D01*
X30582Y258313D01*
X29772Y259015D01*
X29015Y259772D01*
X28313Y260582D01*
X27671Y261440D01*
X27092Y262341D01*
X26578Y263281D01*
X26133Y264256D01*
X25759Y265260D01*
X25457Y266288D01*
X25229Y267335D01*
X25076Y268396D01*
X25000Y269464D01*
X25000Y270536D01*
X25076Y271604D01*
X25229Y272665D01*
X25457Y273712D01*
X25759Y274740D01*
X26133Y275744D01*
X26578Y276719D01*
X27092Y277659D01*
X27671Y278560D01*
X28313Y279418D01*
X29015Y280228D01*
X29772Y280985D01*
X30582Y281687D01*
X31440Y282329D01*
X32341Y282908D01*
X33281Y283422D01*
X34256Y283867D01*
X35260Y284241D01*
X36288Y284543D01*
X37335Y284771D01*
X38396Y284924D01*
X39464Y285000D01*
X40536Y285000D01*
X41604Y284924D01*
X42665Y284771D01*
X43712Y284543D01*
X44740Y284241D01*
X45744Y283867D01*
X46719Y283422D01*
X47659Y282908D01*
X48560Y282329D01*
X49418Y281687D01*
X50228Y280985D01*
X50985Y280228D01*
X51687Y279418D01*
X52329Y278560D01*
X52908Y277659D01*
X53422Y276719D01*
X53867Y275744D01*
X54241Y274740D01*
X54543Y273712D01*
X54771Y272665D01*
X54924Y271604D01*
X55000Y270536D01*
X55000Y269464D01*
X945000Y270536D02*
X945076Y271604D01*
X945229Y272665D01*
X945457Y273712D01*
X945759Y274740D01*
X946133Y275744D01*
X946578Y276719D01*
X947092Y277659D01*
X947671Y278560D01*
X948313Y279418D01*
X949015Y280228D01*
X949772Y280985D01*
X950582Y281687D01*
X951440Y282329D01*
X952341Y282908D01*
X953281Y283422D01*
X954256Y283867D01*
X955260Y284241D01*
X956288Y284543D01*
X957335Y284771D01*
X958396Y284924D01*
X959464Y285000D01*
X960536Y285000D01*
X961604Y284924D01*
X962665Y284771D01*
X963712Y284543D01*
X964740Y284241D01*
X965744Y283867D01*
X966719Y283422D01*
X967659Y282908D01*
X968560Y282329D01*
X969418Y281687D01*
X970228Y280985D01*
X970985Y280228D01*
X971687Y279418D01*
X972329Y278560D01*
X972908Y277659D01*
X973422Y276719D01*
X973867Y275744D01*
X974241Y274740D01*
X974543Y273712D01*
X974771Y272665D01*
X974924Y271604D01*
X975000Y270536D01*
X975000Y269464D01*
X974924Y268396D01*
X974771Y267335D01*
X974543Y266288D01*
X974241Y265260D01*
X973867Y264256D01*
X973422Y263281D01*
X972908Y262341D01*
X972329Y261440D01*
X971687Y260582D01*
X970985Y259772D01*
X970228Y259015D01*
X969418Y258313D01*
X968560Y257671D01*
X967659Y257092D01*
X966719Y256578D01*
X965744Y256133D01*
X964740Y255759D01*
X963712Y255457D01*
X962665Y255229D01*
X961604Y255076D01*
X960536Y255000D01*
X959464Y255000D01*
X958396Y255076D01*
X957335Y255229D01*
X956288Y255457D01*
X955260Y255759D01*
X954256Y256133D01*
X953281Y256578D01*
X952341Y257092D01*
X951440Y257671D01*
X950582Y258313D01*
X949772Y259015D01*
X949015Y259772D01*
X948313Y260582D01*
X947671Y261440D01*
X947092Y262341D01*
X946578Y263281D01*
X946133Y264256D01*
X945759Y265260D01*
X945457Y266288D01*
X945229Y267335D01*
X945076Y268396D01*
X945000Y269464D01*
X945000Y270536D01*
X945000Y30536D02*
X945076Y31604D01*
X945229Y32665D01*
X945457Y33712D01*
X945759Y34740D01*
X946133Y35744D01*
X946578Y36719D01*
X947092Y37659D01*
X947671Y38560D01*
X948313Y39418D01*
X949015Y40228D01*
X949772Y40985D01*
X950582Y41687D01*
X951440Y42329D01*
X952341Y42908D01*
X953281Y43422D01*
X954256Y43867D01*
X955260Y44241D01*
X956288Y44543D01*
X957335Y44771D01*
X958396Y44924D01*
X959464Y45000D01*
X960536Y45000D01*
X961604Y44924D01*
X962665Y44771D01*
X963712Y44543D01*
X964740Y44241D01*
X965744Y43867D01*
X966719Y43422D01*
X967659Y42908D01*
X968560Y42329D01*
X969418Y41687D01*
X970228Y40985D01*
X970985Y40228D01*
X971687Y39418D01*
X972329Y38560D01*
X972908Y37659D01*
X973422Y36719D01*
X973867Y35744D01*
X974241Y34740D01*
X974543Y33712D01*
X974771Y32665D01*
X974924Y31604D01*
X975000Y30536D01*
X975000Y29464D01*
X974924Y28396D01*
X974771Y27335D01*
X974543Y26288D01*
X974241Y25260D01*
X973867Y24256D01*
X973422Y23281D01*
X972908Y22341D01*
X972329Y21440D01*
X971687Y20582D01*
X970985Y19772D01*
X970228Y19015D01*
X969418Y18313D01*
X968560Y17671D01*
X967659Y17092D01*
X966719Y16578D01*
X965744Y16133D01*
X964740Y15759D01*
X963712Y15457D01*
X962665Y15229D01*
X961604Y15076D01*
X960536Y15000D01*
X959464Y15000D01*
X958396Y15076D01*
X957335Y15229D01*
X956288Y15457D01*
X955260Y15759D01*
X954256Y16133D01*
X953281Y16578D01*
X952341Y17092D01*
X951440Y17671D01*
X950582Y18313D01*
X949772Y19015D01*
X949015Y19772D01*
X948313Y20582D01*
X947671Y21440D01*
X947092Y22341D01*
X946578Y23281D01*
X946133Y24256D01*
X945759Y25260D01*
X945457Y26288D01*
X945229Y27335D01*
X945076Y28396D01*
X945000Y29464D01*
X945000Y30536D01*
X478583Y49348D02*
X479168Y49271D01*
X479738Y49118D01*
X480283Y48893D01*
X480793Y48598D01*
X481261Y48239D01*
X481679Y47821D01*
X482038Y47353D01*
X482333Y46843D01*
X482558Y46298D01*
X482711Y45728D01*
X482788Y45143D01*
X482788Y44553D01*
X482711Y43968D01*
X482558Y43398D01*
X482333Y42853D01*
X482038Y42343D01*
X481679Y41875D01*
X481261Y41457D01*
X480793Y41098D01*
X480283Y40803D01*
X479738Y40578D01*
X479168Y40425D01*
X478583Y40348D01*
X477993Y40348D01*
X477408Y40425D01*
X476838Y40578D01*
X476293Y40803D01*
X475783Y41098D01*
X475315Y41457D01*
X474897Y41875D01*
X474538Y42343D01*
X474243Y42853D01*
X474018Y43398D01*
X473865Y43968D01*
X473788Y44553D01*
X473788Y45143D01*
X473865Y45728D01*
X474018Y46298D01*
X474243Y46843D01*
X474538Y47353D01*
X474897Y47821D01*
X475315Y48239D01*
X475783Y48598D01*
X476293Y48893D01*
X476838Y49118D01*
X477408Y49271D01*
X477993Y49348D01*
X478583Y49348D01*
X522583Y49348D02*
X523168Y49271D01*
X523738Y49118D01*
X524283Y48893D01*
X524793Y48598D01*
X525261Y48239D01*
X525679Y47821D01*
X526038Y47353D01*
X526333Y46843D01*
X526558Y46298D01*
X526711Y45728D01*
X526788Y45143D01*
X526788Y44553D01*
X526711Y43968D01*
X526558Y43398D01*
X526333Y42853D01*
X526038Y42343D01*
X525679Y41875D01*
X525261Y41457D01*
X524793Y41098D01*
X524283Y40803D01*
X523738Y40578D01*
X523168Y40425D01*
X522583Y40348D01*
X521993Y40348D01*
X521408Y40425D01*
X520838Y40578D01*
X520293Y40803D01*
X519783Y41098D01*
X519315Y41457D01*
X518897Y41875D01*
X518538Y42343D01*
X518243Y42853D01*
X518018Y43398D01*
X517865Y43968D01*
X517788Y44553D01*
X517788Y45143D01*
X517865Y45728D01*
X518018Y46298D01*
X518243Y46843D01*
X518538Y47353D01*
X518897Y47821D01*
X519315Y48239D01*
X519783Y48598D01*
X520293Y48893D01*
X520838Y49118D01*
X521408Y49271D01*
X521993Y49348D01*
X522583Y49348D01*
M02*
