G04 EAGLE Gerber RS-274X export*
G75*
%MOMM*%
%FSLAX34Y34*%
%LPD*%
%INSoldermask Top*%
%IPPOS*%
%AMOC8*
5,1,8,0,0,1.08239X$1,22.5*%
G01*
%ADD10R,1.703200X1.503200*%
%ADD11R,1.503200X1.703200*%
%ADD12C,1.625600*%
%ADD13R,1.703200X1.703200*%
%ADD14R,2.103200X1.603200*%
%ADD15R,1.603200X1.203200*%
%ADD16R,1.803200X1.503200*%
%ADD17R,1.503200X1.803200*%
%ADD18R,1.753200X1.503200*%
%ADD19R,0.457200X1.676400*%
%ADD20R,0.457200X1.981200*%
%ADD21R,3.759200X0.508000*%
%ADD22C,1.727200*%
%ADD23C,3.203200*%
%ADD24C,1.711200*%
%ADD25C,2.082800*%
%ADD26R,0.753200X1.553200*%
%ADD27R,4.403200X1.603200*%
%ADD28R,0.453200X1.453200*%
%ADD29R,1.453200X0.453200*%
%ADD30R,1.703200X0.703200*%
%ADD31R,0.703200X2.703200*%
%ADD32R,2.203200X2.703200*%
%ADD33C,1.103200*%
%ADD34R,0.400000X1.400000*%
%ADD35R,1.900000X2.350000*%
%ADD36R,0.503200X1.003200*%
%ADD37R,1.150000X2.200000*%
%ADD38R,1.300000X3.050000*%
%ADD39R,2.703200X3.103200*%
%ADD40R,1.473200X1.673200*%
%ADD41C,1.473200*%
%ADD42C,0.959600*%


D10*
X435046Y136472D03*
X435046Y155472D03*
X452594Y174572D03*
X452594Y155572D03*
D11*
G36*
X568310Y421431D02*
X557681Y410802D01*
X545638Y422845D01*
X556267Y433474D01*
X568310Y421431D01*
G37*
G36*
X581746Y434867D02*
X571117Y424238D01*
X559074Y436281D01*
X569703Y446910D01*
X581746Y434867D01*
G37*
G36*
X619994Y374689D02*
X630623Y385318D01*
X642666Y373275D01*
X632037Y362646D01*
X619994Y374689D01*
G37*
G36*
X606558Y361253D02*
X617187Y371882D01*
X629230Y359839D01*
X618601Y349210D01*
X606558Y361253D01*
G37*
X366422Y335986D03*
X385422Y335986D03*
X711444Y278344D03*
X692444Y278344D03*
D10*
X343876Y376994D03*
X343876Y357994D03*
X470528Y148638D03*
X470528Y129638D03*
X416344Y135692D03*
X416344Y154692D03*
X366816Y287032D03*
X366816Y306032D03*
D11*
X634916Y302272D03*
X653916Y302272D03*
D12*
X293476Y43876D02*
X293476Y29652D01*
X268076Y29652D02*
X268076Y43876D01*
D13*
G36*
X669163Y510396D02*
X657120Y498353D01*
X645077Y510396D01*
X657120Y522439D01*
X669163Y510396D01*
G37*
G36*
X693911Y485648D02*
X681868Y473605D01*
X669825Y485648D01*
X681868Y497691D01*
X693911Y485648D01*
G37*
G36*
X339792Y492783D02*
X327749Y504826D01*
X339792Y516869D01*
X351835Y504826D01*
X339792Y492783D01*
G37*
G36*
X315044Y468035D02*
X303001Y480078D01*
X315044Y492121D01*
X327087Y480078D01*
X315044Y468035D01*
G37*
D14*
G36*
X571277Y393535D02*
X556406Y408406D01*
X567743Y419743D01*
X582614Y404872D01*
X571277Y393535D01*
G37*
G36*
X602390Y362422D02*
X587519Y377293D01*
X598856Y388630D01*
X613727Y373759D01*
X602390Y362422D01*
G37*
G36*
X619361Y379393D02*
X604490Y394264D01*
X615827Y405601D01*
X630698Y390730D01*
X619361Y379393D01*
G37*
G36*
X588248Y410506D02*
X573377Y425377D01*
X584714Y436714D01*
X599585Y421843D01*
X588248Y410506D01*
G37*
D15*
X549954Y469018D03*
X571954Y478518D03*
X571954Y459518D03*
D16*
X719136Y749842D03*
X719136Y730842D03*
X649800Y748998D03*
X649800Y729998D03*
X620990Y747246D03*
X620990Y728246D03*
D17*
X530384Y167010D03*
X549384Y167010D03*
X529232Y133178D03*
X548232Y133178D03*
D16*
X312624Y361196D03*
X312624Y380196D03*
X550552Y749148D03*
X550552Y730148D03*
X519288Y747594D03*
X519288Y728594D03*
X431012Y748650D03*
X431012Y729650D03*
X398950Y747942D03*
X398950Y728942D03*
X846848Y751444D03*
X846848Y732444D03*
X363890Y749948D03*
X363890Y730948D03*
X299948Y750896D03*
X299948Y731896D03*
X264888Y751846D03*
X264888Y732846D03*
X201548Y752194D03*
X201548Y733194D03*
X169188Y749748D03*
X169188Y730748D03*
X481408Y748892D03*
X481408Y729892D03*
D17*
G36*
X293851Y449518D02*
X283222Y438889D01*
X270473Y451638D01*
X281102Y462267D01*
X293851Y449518D01*
G37*
G36*
X307287Y462954D02*
X296658Y452325D01*
X283909Y465074D01*
X294538Y475703D01*
X307287Y462954D01*
G37*
G36*
X699244Y456621D02*
X688615Y467250D01*
X701364Y479999D01*
X711993Y469370D01*
X699244Y456621D01*
G37*
G36*
X712680Y443185D02*
X702051Y453814D01*
X714800Y466563D01*
X725429Y455934D01*
X712680Y443185D01*
G37*
D16*
X590164Y479788D03*
X590164Y460788D03*
X799750Y750896D03*
X799750Y731896D03*
X751052Y749346D03*
X751052Y730346D03*
D18*
G36*
X375100Y448467D02*
X387496Y460863D01*
X398126Y450233D01*
X385730Y437837D01*
X375100Y448467D01*
G37*
G36*
X318885Y392252D02*
X331281Y404648D01*
X341911Y394018D01*
X329515Y381622D01*
X318885Y392252D01*
G37*
G36*
X343281Y480286D02*
X355677Y492682D01*
X366307Y482052D01*
X353911Y469656D01*
X343281Y480286D01*
G37*
G36*
X287066Y424071D02*
X299462Y436467D01*
X310092Y425837D01*
X297696Y413441D01*
X287066Y424071D01*
G37*
D19*
G36*
X602479Y316598D02*
X605712Y313365D01*
X593859Y301512D01*
X590626Y304745D01*
X602479Y316598D01*
G37*
G36*
X599066Y320011D02*
X602299Y316778D01*
X590446Y304925D01*
X587213Y308158D01*
X599066Y320011D01*
G37*
G36*
X595474Y323603D02*
X598707Y320370D01*
X586854Y308517D01*
X583621Y311750D01*
X595474Y323603D01*
G37*
G36*
X591882Y327195D02*
X595115Y323962D01*
X583262Y312109D01*
X580029Y315342D01*
X591882Y327195D01*
G37*
G36*
X588290Y330787D02*
X591523Y327554D01*
X579670Y315701D01*
X576437Y318934D01*
X588290Y330787D01*
G37*
G36*
X584877Y334199D02*
X588110Y330966D01*
X576257Y319113D01*
X573024Y322346D01*
X584877Y334199D01*
G37*
G36*
X581285Y337792D02*
X584518Y334559D01*
X572665Y322706D01*
X569432Y325939D01*
X581285Y337792D01*
G37*
G36*
X577693Y341384D02*
X580926Y338151D01*
X569073Y326298D01*
X565840Y329531D01*
X577693Y341384D01*
G37*
G36*
X574281Y344796D02*
X577514Y341563D01*
X565661Y329710D01*
X562428Y332943D01*
X574281Y344796D01*
G37*
G36*
X570689Y348388D02*
X573922Y345155D01*
X562069Y333302D01*
X558836Y336535D01*
X570689Y348388D01*
G37*
G36*
X567097Y351980D02*
X570330Y348747D01*
X558477Y336894D01*
X555244Y340127D01*
X567097Y351980D01*
G37*
G36*
X563684Y355393D02*
X566917Y352160D01*
X555064Y340307D01*
X551831Y343540D01*
X563684Y355393D01*
G37*
G36*
X560092Y358985D02*
X563325Y355752D01*
X551472Y343899D01*
X548239Y347132D01*
X560092Y358985D01*
G37*
G36*
X556500Y362577D02*
X559733Y359344D01*
X547880Y347491D01*
X544647Y350724D01*
X556500Y362577D01*
G37*
G36*
X553087Y365990D02*
X556320Y362757D01*
X544467Y350904D01*
X541234Y354137D01*
X553087Y365990D01*
G37*
G36*
X549495Y369582D02*
X552728Y366349D01*
X540875Y354496D01*
X537642Y357729D01*
X549495Y369582D01*
G37*
G36*
X545903Y373174D02*
X549136Y369941D01*
X537283Y358088D01*
X534050Y361321D01*
X545903Y373174D01*
G37*
G36*
X542491Y376586D02*
X545724Y373353D01*
X533871Y361500D01*
X530638Y364733D01*
X542491Y376586D01*
G37*
G36*
X538899Y380178D02*
X542132Y376945D01*
X530279Y365092D01*
X527046Y368325D01*
X538899Y380178D01*
G37*
G36*
X535306Y383770D02*
X538539Y380537D01*
X526686Y368684D01*
X523453Y371917D01*
X535306Y383770D01*
G37*
G36*
X531894Y387183D02*
X535127Y383950D01*
X523274Y372097D01*
X520041Y375330D01*
X531894Y387183D01*
G37*
G36*
X528302Y390775D02*
X531535Y387542D01*
X519682Y375689D01*
X516449Y378922D01*
X528302Y390775D01*
G37*
G36*
X524710Y394367D02*
X527943Y391134D01*
X516090Y379281D01*
X512857Y382514D01*
X524710Y394367D01*
G37*
G36*
X521118Y397959D02*
X524351Y394726D01*
X512498Y382873D01*
X509265Y386106D01*
X521118Y397959D01*
G37*
G36*
X517705Y401372D02*
X520938Y398139D01*
X509085Y386286D01*
X505852Y389519D01*
X517705Y401372D01*
G37*
G36*
X496512Y389519D02*
X493279Y386286D01*
X481426Y398139D01*
X484659Y401372D01*
X496512Y389519D01*
G37*
G36*
X493099Y386106D02*
X489866Y382873D01*
X478013Y394726D01*
X481246Y397959D01*
X493099Y386106D01*
G37*
G36*
X489507Y382514D02*
X486274Y379281D01*
X474421Y391134D01*
X477654Y394367D01*
X489507Y382514D01*
G37*
G36*
X485915Y378922D02*
X482682Y375689D01*
X470829Y387542D01*
X474062Y390775D01*
X485915Y378922D01*
G37*
G36*
X482323Y375330D02*
X479090Y372097D01*
X467237Y383950D01*
X470470Y387183D01*
X482323Y375330D01*
G37*
G36*
X478911Y371917D02*
X475678Y368684D01*
X463825Y380537D01*
X467058Y383770D01*
X478911Y371917D01*
G37*
G36*
X475318Y368325D02*
X472085Y365092D01*
X460232Y376945D01*
X463465Y380178D01*
X475318Y368325D01*
G37*
G36*
X471726Y364733D02*
X468493Y361500D01*
X456640Y373353D01*
X459873Y376586D01*
X471726Y364733D01*
G37*
G36*
X468314Y361321D02*
X465081Y358088D01*
X453228Y369941D01*
X456461Y373174D01*
X468314Y361321D01*
G37*
G36*
X464722Y357729D02*
X461489Y354496D01*
X449636Y366349D01*
X452869Y369582D01*
X464722Y357729D01*
G37*
G36*
X461130Y354137D02*
X457897Y350904D01*
X446044Y362757D01*
X449277Y365990D01*
X461130Y354137D01*
G37*
G36*
X457717Y350724D02*
X454484Y347491D01*
X442631Y359344D01*
X445864Y362577D01*
X457717Y350724D01*
G37*
G36*
X454125Y347132D02*
X450892Y343899D01*
X439039Y355752D01*
X442272Y358985D01*
X454125Y347132D01*
G37*
G36*
X450533Y343540D02*
X447300Y340307D01*
X435447Y352160D01*
X438680Y355393D01*
X450533Y343540D01*
G37*
G36*
X447120Y340127D02*
X443887Y336894D01*
X432034Y348747D01*
X435267Y351980D01*
X447120Y340127D01*
G37*
G36*
X443528Y336535D02*
X440295Y333302D01*
X428442Y345155D01*
X431675Y348388D01*
X443528Y336535D01*
G37*
G36*
X439936Y332943D02*
X436703Y329710D01*
X424850Y341563D01*
X428083Y344796D01*
X439936Y332943D01*
G37*
G36*
X436524Y329531D02*
X433291Y326298D01*
X421438Y338151D01*
X424671Y341384D01*
X436524Y329531D01*
G37*
G36*
X432932Y325939D02*
X429699Y322706D01*
X417846Y334559D01*
X421079Y337792D01*
X432932Y325939D01*
G37*
G36*
X429340Y322346D02*
X426107Y319113D01*
X414254Y330966D01*
X417487Y334199D01*
X429340Y322346D01*
G37*
G36*
X425927Y318934D02*
X422694Y315701D01*
X410841Y327554D01*
X414074Y330787D01*
X425927Y318934D01*
G37*
G36*
X422335Y315342D02*
X419102Y312109D01*
X407249Y323962D01*
X410482Y327195D01*
X422335Y315342D01*
G37*
G36*
X418743Y311750D02*
X415510Y308517D01*
X403657Y320370D01*
X406890Y323603D01*
X418743Y311750D01*
G37*
G36*
X415151Y308158D02*
X411918Y304925D01*
X400065Y316778D01*
X403298Y320011D01*
X415151Y308158D01*
G37*
G36*
X411738Y304745D02*
X408505Y301512D01*
X396652Y313365D01*
X399885Y316598D01*
X411738Y304745D01*
G37*
G36*
X408505Y292172D02*
X411738Y288939D01*
X399885Y277086D01*
X396652Y280319D01*
X408505Y292172D01*
G37*
G36*
X411918Y288759D02*
X415151Y285526D01*
X403298Y273673D01*
X400065Y276906D01*
X411918Y288759D01*
G37*
G36*
X415510Y285167D02*
X418743Y281934D01*
X406890Y270081D01*
X403657Y273314D01*
X415510Y285167D01*
G37*
G36*
X419102Y281575D02*
X422335Y278342D01*
X410482Y266489D01*
X407249Y269722D01*
X419102Y281575D01*
G37*
G36*
X422694Y277983D02*
X425927Y274750D01*
X414074Y262897D01*
X410841Y266130D01*
X422694Y277983D01*
G37*
G36*
X426107Y274571D02*
X429340Y271338D01*
X417487Y259485D01*
X414254Y262718D01*
X426107Y274571D01*
G37*
G36*
X429699Y270978D02*
X432932Y267745D01*
X421079Y255892D01*
X417846Y259125D01*
X429699Y270978D01*
G37*
G36*
X433291Y267386D02*
X436524Y264153D01*
X424671Y252300D01*
X421438Y255533D01*
X433291Y267386D01*
G37*
G36*
X436703Y263974D02*
X439936Y260741D01*
X428083Y248888D01*
X424850Y252121D01*
X436703Y263974D01*
G37*
G36*
X440295Y260382D02*
X443528Y257149D01*
X431675Y245296D01*
X428442Y248529D01*
X440295Y260382D01*
G37*
G36*
X443887Y256790D02*
X447120Y253557D01*
X435267Y241704D01*
X432034Y244937D01*
X443887Y256790D01*
G37*
G36*
X447300Y253377D02*
X450533Y250144D01*
X438680Y238291D01*
X435447Y241524D01*
X447300Y253377D01*
G37*
G36*
X450892Y249785D02*
X454125Y246552D01*
X442272Y234699D01*
X439039Y237932D01*
X450892Y249785D01*
G37*
G36*
X454484Y246193D02*
X457717Y242960D01*
X445864Y231107D01*
X442631Y234340D01*
X454484Y246193D01*
G37*
G36*
X457897Y242780D02*
X461130Y239547D01*
X449277Y227694D01*
X446044Y230927D01*
X457897Y242780D01*
G37*
G36*
X461489Y239188D02*
X464722Y235955D01*
X452869Y224102D01*
X449636Y227335D01*
X461489Y239188D01*
G37*
G36*
X465081Y235596D02*
X468314Y232363D01*
X456461Y220510D01*
X453228Y223743D01*
X465081Y235596D01*
G37*
G36*
X468493Y232184D02*
X471726Y228951D01*
X459873Y217098D01*
X456640Y220331D01*
X468493Y232184D01*
G37*
G36*
X472085Y228592D02*
X475318Y225359D01*
X463465Y213506D01*
X460232Y216739D01*
X472085Y228592D01*
G37*
G36*
X475678Y225000D02*
X478911Y221767D01*
X467058Y209914D01*
X463825Y213147D01*
X475678Y225000D01*
G37*
G36*
X479090Y221587D02*
X482323Y218354D01*
X470470Y206501D01*
X467237Y209734D01*
X479090Y221587D01*
G37*
G36*
X482682Y217995D02*
X485915Y214762D01*
X474062Y202909D01*
X470829Y206142D01*
X482682Y217995D01*
G37*
G36*
X486274Y214403D02*
X489507Y211170D01*
X477654Y199317D01*
X474421Y202550D01*
X486274Y214403D01*
G37*
G36*
X489866Y210811D02*
X493099Y207578D01*
X481246Y195725D01*
X478013Y198958D01*
X489866Y210811D01*
G37*
G36*
X493279Y207398D02*
X496512Y204165D01*
X484659Y192312D01*
X481426Y195545D01*
X493279Y207398D01*
G37*
G36*
X520938Y195545D02*
X517705Y192312D01*
X505852Y204165D01*
X509085Y207398D01*
X520938Y195545D01*
G37*
G36*
X524351Y198958D02*
X521118Y195725D01*
X509265Y207578D01*
X512498Y210811D01*
X524351Y198958D01*
G37*
G36*
X527943Y202550D02*
X524710Y199317D01*
X512857Y211170D01*
X516090Y214403D01*
X527943Y202550D01*
G37*
G36*
X531535Y206142D02*
X528302Y202909D01*
X516449Y214762D01*
X519682Y217995D01*
X531535Y206142D01*
G37*
G36*
X535127Y209734D02*
X531894Y206501D01*
X520041Y218354D01*
X523274Y221587D01*
X535127Y209734D01*
G37*
G36*
X538539Y213147D02*
X535306Y209914D01*
X523453Y221767D01*
X526686Y225000D01*
X538539Y213147D01*
G37*
G36*
X542132Y216739D02*
X538899Y213506D01*
X527046Y225359D01*
X530279Y228592D01*
X542132Y216739D01*
G37*
G36*
X545724Y220331D02*
X542491Y217098D01*
X530638Y228951D01*
X533871Y232184D01*
X545724Y220331D01*
G37*
G36*
X549136Y223743D02*
X545903Y220510D01*
X534050Y232363D01*
X537283Y235596D01*
X549136Y223743D01*
G37*
G36*
X552728Y227335D02*
X549495Y224102D01*
X537642Y235955D01*
X540875Y239188D01*
X552728Y227335D01*
G37*
G36*
X556320Y230927D02*
X553087Y227694D01*
X541234Y239547D01*
X544467Y242780D01*
X556320Y230927D01*
G37*
G36*
X559733Y234340D02*
X556500Y231107D01*
X544647Y242960D01*
X547880Y246193D01*
X559733Y234340D01*
G37*
G36*
X563325Y237932D02*
X560092Y234699D01*
X548239Y246552D01*
X551472Y249785D01*
X563325Y237932D01*
G37*
G36*
X566917Y241524D02*
X563684Y238291D01*
X551831Y250144D01*
X555064Y253377D01*
X566917Y241524D01*
G37*
G36*
X570330Y244937D02*
X567097Y241704D01*
X555244Y253557D01*
X558477Y256790D01*
X570330Y244937D01*
G37*
G36*
X573922Y248529D02*
X570689Y245296D01*
X558836Y257149D01*
X562069Y260382D01*
X573922Y248529D01*
G37*
G36*
X577514Y252121D02*
X574281Y248888D01*
X562428Y260741D01*
X565661Y263974D01*
X577514Y252121D01*
G37*
G36*
X580926Y255533D02*
X577693Y252300D01*
X565840Y264153D01*
X569073Y267386D01*
X580926Y255533D01*
G37*
G36*
X584518Y259125D02*
X581285Y255892D01*
X569432Y267745D01*
X572665Y270978D01*
X584518Y259125D01*
G37*
G36*
X588110Y262718D02*
X584877Y259485D01*
X573024Y271338D01*
X576257Y274571D01*
X588110Y262718D01*
G37*
G36*
X591523Y266130D02*
X588290Y262897D01*
X576437Y274750D01*
X579670Y277983D01*
X591523Y266130D01*
G37*
G36*
X595115Y269722D02*
X591882Y266489D01*
X580029Y278342D01*
X583262Y281575D01*
X595115Y269722D01*
G37*
G36*
X598707Y273314D02*
X595474Y270081D01*
X583621Y281934D01*
X586854Y285167D01*
X598707Y273314D01*
G37*
G36*
X602299Y276906D02*
X599066Y273673D01*
X587213Y285526D01*
X590446Y288759D01*
X602299Y276906D01*
G37*
G36*
X605712Y280319D02*
X602479Y277086D01*
X590626Y288939D01*
X593859Y292172D01*
X605712Y280319D01*
G37*
D18*
G36*
X640017Y465644D02*
X627621Y478040D01*
X638251Y488670D01*
X650647Y476274D01*
X640017Y465644D01*
G37*
G36*
X696232Y409429D02*
X683836Y421825D01*
X694466Y432455D01*
X706862Y420059D01*
X696232Y409429D01*
G37*
G36*
X608198Y433825D02*
X595802Y446221D01*
X606432Y456851D01*
X618828Y444455D01*
X608198Y433825D01*
G37*
G36*
X664413Y377610D02*
X652017Y390006D01*
X662647Y400636D01*
X675043Y388240D01*
X664413Y377610D01*
G37*
D20*
X264288Y198666D03*
X259288Y198666D03*
X254288Y198666D03*
X249288Y198666D03*
X244288Y198666D03*
X239288Y198666D03*
X234288Y198666D03*
X229288Y198666D03*
D21*
X226208Y184086D03*
X226208Y177086D03*
X226208Y170086D03*
X226208Y163086D03*
X226208Y156086D03*
D20*
X229288Y142522D03*
X234288Y142522D03*
X239288Y142522D03*
X244288Y142522D03*
X249288Y142522D03*
X254288Y142522D03*
X259288Y142522D03*
X264288Y142522D03*
D21*
X266352Y156086D03*
X266352Y163086D03*
X266352Y170086D03*
X266352Y177086D03*
X266352Y184086D03*
D11*
X220044Y114780D03*
X239044Y114780D03*
D10*
X288952Y140282D03*
X288952Y121282D03*
D11*
X271324Y102588D03*
X290324Y102588D03*
D20*
X767394Y197142D03*
X762394Y197142D03*
X757394Y197142D03*
X752394Y197142D03*
X747394Y197142D03*
X742394Y197142D03*
X737394Y197142D03*
X732394Y197142D03*
D21*
X729314Y182562D03*
X729314Y175562D03*
X729314Y168562D03*
X729314Y161562D03*
X729314Y154562D03*
D20*
X732394Y140998D03*
X737394Y140998D03*
X742394Y140998D03*
X747394Y140998D03*
X752394Y140998D03*
X757394Y140998D03*
X762394Y140998D03*
X767394Y140998D03*
D21*
X769458Y154562D03*
X769458Y161562D03*
X769458Y168562D03*
X769458Y175562D03*
X769458Y182562D03*
D11*
X721606Y118356D03*
X740606Y118356D03*
X794446Y119540D03*
X775446Y119540D03*
X756478Y101374D03*
X775478Y101374D03*
D22*
X28988Y319372D02*
X28988Y334612D01*
X54388Y334612D02*
X54388Y319372D01*
X79788Y319372D02*
X79788Y334612D01*
X105188Y334612D02*
X105188Y319372D01*
D23*
X40000Y30000D03*
X40000Y270000D03*
D24*
X119460Y175400D02*
X134540Y175400D01*
X134540Y150000D02*
X119460Y150000D01*
X119460Y124600D02*
X134540Y124600D01*
D23*
X960000Y270000D03*
X960000Y30000D03*
D24*
X880540Y124600D02*
X865460Y124600D01*
X865460Y150000D02*
X880540Y150000D01*
X880540Y175400D02*
X865460Y175400D01*
D25*
X252801Y410421D03*
X270761Y392461D03*
X234840Y392461D03*
X252801Y374500D03*
X216879Y374500D03*
X234840Y356539D03*
X198919Y356539D03*
X216879Y338579D03*
D16*
X142048Y333204D03*
X142048Y314204D03*
X165440Y333204D03*
X165440Y314204D03*
D22*
X976148Y322380D02*
X976148Y337620D01*
X950748Y337620D02*
X950748Y322380D01*
X925348Y322380D02*
X925348Y337620D01*
X899948Y337620D02*
X899948Y322380D01*
D16*
X846464Y330996D03*
X846464Y311996D03*
X869512Y331716D03*
X869512Y312716D03*
D26*
X625340Y71097D03*
X634840Y71097D03*
X644340Y71097D03*
X644340Y98599D03*
X634840Y98599D03*
X625340Y98599D03*
D10*
X610096Y104844D03*
X610096Y85844D03*
D11*
X680556Y67912D03*
X661556Y67912D03*
X679564Y87536D03*
X660564Y87536D03*
X577908Y122416D03*
X596908Y122416D03*
X577908Y158992D03*
X596908Y158992D03*
X577908Y140704D03*
X596908Y140704D03*
D27*
X636448Y125484D03*
X636448Y162484D03*
D12*
X847300Y352888D02*
X847300Y367112D01*
X872700Y367112D02*
X872700Y352888D01*
D28*
X507500Y165000D03*
X502500Y165000D03*
X497500Y165000D03*
X492500Y165000D03*
D29*
X487500Y155000D03*
X487500Y150000D03*
X487500Y145000D03*
D28*
X492500Y135000D03*
X497500Y135000D03*
X502500Y135000D03*
X507500Y135000D03*
D29*
X512500Y145000D03*
X512500Y150000D03*
X512500Y155000D03*
D30*
X630460Y215808D03*
X630460Y206808D03*
X630460Y197808D03*
X658460Y197808D03*
X658460Y215808D03*
D11*
X710660Y299832D03*
X691660Y299832D03*
D31*
X500288Y69848D03*
X492288Y69848D03*
X516288Y69848D03*
X508288Y69848D03*
D32*
X545288Y14848D03*
X455288Y14848D03*
X545288Y69848D03*
X455288Y69848D03*
D31*
X484288Y69848D03*
D33*
X478288Y44848D03*
X522288Y44848D03*
D34*
X527500Y477500D03*
X522500Y477500D03*
X517500Y477500D03*
X512500Y477500D03*
X507500Y477500D03*
X502500Y477500D03*
X497500Y477500D03*
X492500Y477500D03*
X487500Y477500D03*
X482500Y477500D03*
X477500Y477500D03*
X472500Y477500D03*
D35*
X453500Y510000D03*
X546500Y510000D03*
D34*
X472500Y682604D03*
X477500Y682604D03*
X482500Y682604D03*
X487500Y682604D03*
X492500Y682604D03*
X497500Y682604D03*
X502500Y682604D03*
X507500Y682604D03*
X512500Y682604D03*
X517500Y682604D03*
X522500Y682604D03*
X527500Y682604D03*
D35*
X546500Y650104D03*
X453500Y650104D03*
D36*
G36*
X592465Y516368D02*
X596023Y512810D01*
X588931Y505718D01*
X585373Y509276D01*
X592465Y516368D01*
G37*
G36*
X588929Y519904D02*
X592487Y516346D01*
X585395Y509254D01*
X581837Y512812D01*
X588929Y519904D01*
G37*
G36*
X585394Y523439D02*
X588952Y519881D01*
X581860Y512789D01*
X578302Y516347D01*
X585394Y523439D01*
G37*
G36*
X581858Y526975D02*
X585416Y523417D01*
X578324Y516325D01*
X574766Y519883D01*
X581858Y526975D01*
G37*
D37*
G36*
X565949Y542863D02*
X557817Y550995D01*
X573373Y566551D01*
X581505Y558419D01*
X565949Y542863D01*
G37*
D38*
G36*
X574788Y534025D02*
X565596Y543217D01*
X587162Y564783D01*
X596354Y555591D01*
X574788Y534025D01*
G37*
D37*
G36*
X627467Y512457D02*
X635599Y504325D01*
X620043Y488769D01*
X611911Y496901D01*
X627467Y512457D01*
G37*
D38*
G36*
X624639Y527306D02*
X633831Y518114D01*
X612265Y496548D01*
X603073Y505740D01*
X624639Y527306D01*
G37*
D36*
G36*
X412312Y523801D02*
X415870Y527359D01*
X422962Y520267D01*
X419404Y516709D01*
X412312Y523801D01*
G37*
G36*
X408776Y520265D02*
X412334Y523823D01*
X419426Y516731D01*
X415868Y513173D01*
X408776Y520265D01*
G37*
G36*
X405241Y516730D02*
X408799Y520288D01*
X415891Y513196D01*
X412333Y509638D01*
X405241Y516730D01*
G37*
G36*
X401705Y513194D02*
X405263Y516752D01*
X412355Y509660D01*
X408797Y506102D01*
X401705Y513194D01*
G37*
D37*
G36*
X385817Y497285D02*
X377685Y489153D01*
X362129Y504709D01*
X370261Y512841D01*
X385817Y497285D01*
G37*
D38*
G36*
X394655Y506124D02*
X385463Y496932D01*
X363897Y518498D01*
X373089Y527690D01*
X394655Y506124D01*
G37*
D37*
G36*
X416223Y558803D02*
X424355Y566935D01*
X439911Y551379D01*
X431779Y543247D01*
X416223Y558803D01*
G37*
D38*
G36*
X401374Y555975D02*
X410566Y565167D01*
X432132Y543601D01*
X422940Y534409D01*
X401374Y555975D01*
G37*
D36*
G36*
X750329Y361488D02*
X753887Y357930D01*
X746795Y350838D01*
X743237Y354396D01*
X750329Y361488D01*
G37*
G36*
X746793Y365024D02*
X750351Y361466D01*
X743259Y354374D01*
X739701Y357932D01*
X746793Y365024D01*
G37*
G36*
X743258Y368559D02*
X746816Y365001D01*
X739724Y357909D01*
X736166Y361467D01*
X743258Y368559D01*
G37*
G36*
X739722Y372095D02*
X743280Y368537D01*
X736188Y361445D01*
X732630Y365003D01*
X739722Y372095D01*
G37*
D37*
G36*
X723813Y387983D02*
X715681Y396115D01*
X731237Y411671D01*
X739369Y403539D01*
X723813Y387983D01*
G37*
D38*
G36*
X732652Y379145D02*
X723460Y388337D01*
X745026Y409903D01*
X754218Y400711D01*
X732652Y379145D01*
G37*
D37*
G36*
X785331Y357577D02*
X793463Y349445D01*
X777907Y333889D01*
X769775Y342021D01*
X785331Y357577D01*
G37*
D38*
G36*
X782503Y372426D02*
X791695Y363234D01*
X770129Y341668D01*
X760937Y350860D01*
X782503Y372426D01*
G37*
D12*
X735076Y43688D02*
X735076Y29464D01*
X709676Y29464D02*
X709676Y43688D01*
D39*
X134240Y279556D03*
X134240Y214556D03*
X864904Y283716D03*
X864904Y218716D03*
X180000Y92500D03*
X180000Y27500D03*
X820000Y92500D03*
X820000Y27500D03*
D16*
X395928Y135716D03*
X395928Y154716D03*
D40*
X301916Y73152D03*
X258916Y73152D03*
D41*
X597408Y70104D03*
X697992Y82296D03*
D42*
X582168Y771144D03*
X539496Y771144D03*
X579120Y719328D03*
X454152Y691162D03*
X463296Y682018D03*
X201168Y27432D03*
X249936Y112776D03*
X576072Y691162D03*
X109728Y207264D03*
X213360Y27432D03*
X155448Y27432D03*
X140208Y27432D03*
X438912Y70104D03*
X438912Y24384D03*
X566928Y57912D03*
X566928Y109728D03*
X673608Y118872D03*
X673608Y161544D03*
X579120Y173736D03*
X478536Y164592D03*
X460248Y146304D03*
X521208Y100584D03*
X740664Y103632D03*
X786384Y222504D03*
X841248Y222504D03*
X789432Y39624D03*
X777240Y39624D03*
X679704Y201168D03*
X679704Y277368D03*
X704088Y118872D03*
X353568Y88392D03*
X350520Y176784D03*
X627888Y280416D03*
X819912Y259080D03*
X722376Y210312D03*
X566928Y131064D03*
X274320Y195072D03*
X551688Y316992D03*
X591312Y365760D03*
X579120Y490728D03*
X304800Y329184D03*
X445008Y469392D03*
X362712Y448056D03*
X496824Y414528D03*
X554736Y396240D03*
X469392Y262128D03*
X399288Y259080D03*
X438912Y283464D03*
X429768Y362712D03*
X237744Y268224D03*
X188976Y225552D03*
X923544Y64008D03*
X512064Y225552D03*
X637032Y417576D03*
X548640Y533400D03*
X451104Y533400D03*
X231648Y67056D03*
X688848Y384048D03*
X758952Y377952D03*
X618744Y545592D03*
X381000Y545592D03*
X359664Y393192D03*
X94488Y286512D03*
X94488Y15240D03*
X353568Y51816D03*
X905256Y15240D03*
X905256Y286512D03*
X835152Y128016D03*
X755904Y262128D03*
X755904Y332232D03*
X420624Y612648D03*
X429768Y612648D03*
X438912Y612648D03*
X448056Y612648D03*
X457200Y612648D03*
X466344Y612648D03*
X475488Y612648D03*
X484632Y612648D03*
X493776Y612648D03*
X502920Y612648D03*
X512064Y612648D03*
X521208Y612648D03*
X530352Y612648D03*
X539496Y612648D03*
X548640Y612648D03*
X557784Y612648D03*
X566928Y612648D03*
X576072Y612648D03*
X415864Y606616D03*
X580456Y606616D03*
X425008Y606616D03*
X571312Y606616D03*
X434152Y606616D03*
X562168Y606616D03*
X443296Y606616D03*
X553024Y606616D03*
X452440Y606616D03*
X543880Y606616D03*
X461584Y606616D03*
X534736Y606616D03*
X525592Y606616D03*
X470728Y606616D03*
X479872Y606616D03*
X516448Y606616D03*
X507304Y606616D03*
X489016Y606616D03*
X498160Y606616D03*
X586552Y612712D03*
X592648Y606616D03*
X409768Y612712D03*
X403672Y606616D03*
X416072Y771162D03*
X216072Y771162D03*
X316072Y771162D03*
X686072Y771162D03*
X786072Y771162D03*
X836072Y701162D03*
X776072Y721162D03*
X166072Y701162D03*
X246072Y711162D03*
X323568Y98392D03*
X201648Y127056D03*
X310896Y182880D03*
X841248Y94488D03*
X661416Y97536D03*
X819912Y173736D03*
X819912Y152400D03*
X819912Y112776D03*
X551688Y691896D03*
X563880Y728472D03*
X173736Y716280D03*
X505968Y728472D03*
X847344Y719328D03*
X216408Y737616D03*
X320040Y734568D03*
X414528Y737616D03*
X688848Y734568D03*
X600456Y734568D03*
X765048Y734568D03*
X664464Y185928D03*
X627888Y316992D03*
X740664Y332232D03*
X713232Y316992D03*
X798576Y316992D03*
X158496Y280416D03*
X301752Y399288D03*
X198120Y295656D03*
X435864Y454152D03*
X493776Y368808D03*
X598932Y495300D03*
X536448Y481584D03*
X481584Y335280D03*
X557784Y201168D03*
X536448Y152400D03*
X545592Y204216D03*
X521208Y170688D03*
X704088Y371856D03*
X725424Y441960D03*
X487680Y243840D03*
X245872Y312928D03*
X282448Y341376D03*
X484632Y231648D03*
X670560Y249936D03*
X713232Y249936D03*
X786384Y271272D03*
X856488Y752856D03*
X768096Y755904D03*
X650000Y749500D03*
X545592Y749808D03*
X454152Y740664D03*
X350000Y749500D03*
X237744Y746760D03*
X149352Y737616D03*
X515112Y359664D03*
X545592Y435864D03*
X344424Y344424D03*
X487680Y283464D03*
X786384Y752856D03*
X705612Y748284D03*
X620990Y747246D03*
X505968Y746760D03*
X408432Y749808D03*
X310896Y749808D03*
X188976Y749808D03*
X493776Y749808D03*
X615696Y466344D03*
X600456Y539496D03*
X408432Y481584D03*
X697992Y341376D03*
X518160Y289560D03*
X536448Y691896D03*
X329184Y249936D03*
X475488Y298704D03*
X387096Y280416D03*
X658368Y283464D03*
X880872Y316992D03*
X838200Y301752D03*
X673608Y289560D03*
X192024Y176784D03*
X192024Y161544D03*
X688848Y161544D03*
X527304Y259080D03*
X426720Y176784D03*
X521208Y188976D03*
X243840Y329184D03*
X185928Y316992D03*
X768096Y243840D03*
X301752Y265176D03*
X615696Y222504D03*
X603504Y204216D03*
M02*
