G04 EAGLE Gerber RS-274X export*
G75*
%MOMM*%
%FSLAX34Y34*%
%LPD*%
%INSolderpaste Bottom*%
%IPPOS*%
%AMOC8*
5,1,8,0,0,1.08239X$1,22.5*%
G01*
%ADD10R,1.300000X1.500000*%
%ADD11R,1.600000X2.000000*%
%ADD12R,1.600000X1.300000*%
%ADD13R,1.300000X1.600000*%
%ADD14R,1.200000X1.200000*%
%ADD15R,1.500000X1.500000*%


D10*
X467156Y407688D03*
X486156Y407688D03*
D11*
X258248Y150848D03*
X230248Y150848D03*
D10*
X271832Y176502D03*
X290832Y176502D03*
X272340Y198346D03*
X291340Y198346D03*
D11*
X762116Y148308D03*
X734116Y148308D03*
D12*
X209832Y196140D03*
X209832Y215140D03*
D10*
X229668Y177264D03*
X248668Y177264D03*
D13*
X699500Y180312D03*
X718500Y180312D03*
D10*
X742172Y180312D03*
X761172Y180312D03*
D14*
X850000Y749500D03*
X850000Y770500D03*
X750000Y749500D03*
X750000Y770500D03*
X650000Y749500D03*
X650000Y770500D03*
X550000Y749500D03*
X550000Y770500D03*
X450000Y749500D03*
X450000Y770500D03*
X350000Y749500D03*
X350000Y770500D03*
X250000Y749500D03*
X250000Y770500D03*
X150000Y749500D03*
X150000Y770500D03*
D15*
X820000Y777500D03*
X820000Y742500D03*
X720000Y777500D03*
X720000Y742500D03*
X620000Y777500D03*
X620000Y742500D03*
X520000Y777500D03*
X520000Y742500D03*
X380000Y777500D03*
X380000Y742500D03*
X280000Y777500D03*
X280000Y742500D03*
X180000Y777500D03*
X180000Y742500D03*
X480000Y777500D03*
X480000Y742500D03*
D10*
X460692Y425848D03*
X479692Y425848D03*
X676548Y219784D03*
X695548Y219784D03*
X789228Y209080D03*
X808228Y209080D03*
X789228Y184696D03*
X808228Y184696D03*
D15*
X970000Y132500D03*
X970000Y167500D03*
D12*
X970000Y190500D03*
X970000Y209500D03*
D15*
X30000Y132500D03*
X30000Y167500D03*
D12*
X30000Y190500D03*
X30000Y209500D03*
D13*
X694844Y244760D03*
X675844Y244760D03*
X661772Y219236D03*
X642772Y219236D03*
X661772Y198448D03*
X642772Y198448D03*
M02*
