G04 EAGLE Gerber RS-274X export*
G75*
%MOMM*%
%FSLAX34Y34*%
%LPD*%
%INSolderpaste Top*%
%IPPOS*%
%AMOC8*
5,1,8,0,0,1.08239X$1,22.5*%
G01*
%ADD10R,1.500000X1.300000*%
%ADD11R,1.300000X1.500000*%
%ADD12R,1.500000X1.500000*%
%ADD13R,1.900000X1.400000*%
%ADD14R,1.400000X1.000000*%
%ADD15R,1.600000X1.300000*%
%ADD16R,1.300000X1.600000*%
%ADD17R,1.550000X1.300000*%
%ADD18R,0.254000X1.473200*%
%ADD19R,0.254000X1.778000*%
%ADD20R,3.556000X0.304800*%
%ADD21R,0.550000X1.350000*%
%ADD22R,4.200000X1.400000*%
%ADD23R,0.250000X1.250000*%
%ADD24R,1.250000X0.250000*%
%ADD25R,1.500000X0.500000*%
%ADD26R,0.500000X2.500000*%
%ADD27R,2.000000X2.500000*%
%ADD28R,1.650000X2.050000*%
%ADD29R,0.300000X0.800000*%
%ADD30R,2.000000X1.900000*%
%ADD31R,2.500000X2.900000*%
%ADD32R,1.270000X1.470000*%

G36*
X245790Y177311D02*
X245790Y177311D01*
X245792Y177310D01*
X245835Y177330D01*
X245879Y177348D01*
X245879Y177350D01*
X245881Y177351D01*
X245914Y177436D01*
X245914Y188136D01*
X245913Y188138D01*
X245914Y188140D01*
X245894Y188183D01*
X245876Y188227D01*
X245874Y188227D01*
X245873Y188229D01*
X245788Y188262D01*
X235088Y188262D01*
X235086Y188261D01*
X235084Y188262D01*
X235041Y188242D01*
X234997Y188224D01*
X234997Y188222D01*
X234995Y188221D01*
X234962Y188136D01*
X234962Y177436D01*
X234963Y177434D01*
X234962Y177432D01*
X234982Y177389D01*
X235000Y177345D01*
X235002Y177345D01*
X235003Y177343D01*
X235088Y177310D01*
X245788Y177310D01*
X245790Y177311D01*
G37*
G36*
X258579Y177348D02*
X258579Y177348D01*
X258579Y177350D01*
X258581Y177351D01*
X258614Y177436D01*
X258614Y188136D01*
X258613Y188138D01*
X258614Y188140D01*
X258594Y188183D01*
X258576Y188227D01*
X258574Y188227D01*
X258573Y188229D01*
X258488Y188262D01*
X247788Y188262D01*
X247786Y188261D01*
X247784Y188262D01*
X247741Y188242D01*
X247697Y188224D01*
X247697Y188222D01*
X247695Y188221D01*
X247662Y188136D01*
X247662Y177436D01*
X247663Y177434D01*
X247662Y177432D01*
X247682Y177389D01*
X247700Y177345D01*
X247702Y177345D01*
X247703Y177343D01*
X247788Y177310D01*
X258488Y177310D01*
X258490Y177311D01*
X258492Y177310D01*
X258535Y177330D01*
X258579Y177348D01*
G37*
G36*
X748896Y175787D02*
X748896Y175787D01*
X748898Y175786D01*
X748941Y175806D01*
X748985Y175824D01*
X748985Y175826D01*
X748987Y175827D01*
X749020Y175912D01*
X749020Y186612D01*
X749019Y186614D01*
X749020Y186616D01*
X749000Y186659D01*
X748982Y186703D01*
X748980Y186703D01*
X748979Y186705D01*
X748894Y186738D01*
X738194Y186738D01*
X738192Y186737D01*
X738190Y186738D01*
X738147Y186718D01*
X738103Y186700D01*
X738103Y186698D01*
X738101Y186697D01*
X738068Y186612D01*
X738068Y175912D01*
X738069Y175910D01*
X738068Y175908D01*
X738088Y175865D01*
X738106Y175821D01*
X738108Y175821D01*
X738109Y175819D01*
X738194Y175786D01*
X748894Y175786D01*
X748896Y175787D01*
G37*
G36*
X761596Y175787D02*
X761596Y175787D01*
X761598Y175786D01*
X761641Y175806D01*
X761685Y175824D01*
X761685Y175826D01*
X761687Y175827D01*
X761720Y175912D01*
X761720Y186612D01*
X761719Y186614D01*
X761720Y186616D01*
X761700Y186659D01*
X761682Y186703D01*
X761680Y186703D01*
X761679Y186705D01*
X761594Y186738D01*
X750894Y186738D01*
X750892Y186737D01*
X750890Y186738D01*
X750847Y186718D01*
X750803Y186700D01*
X750803Y186698D01*
X750801Y186697D01*
X750768Y186612D01*
X750768Y175912D01*
X750769Y175910D01*
X750768Y175908D01*
X750788Y175865D01*
X750806Y175821D01*
X750808Y175821D01*
X750809Y175819D01*
X750894Y175786D01*
X761594Y175786D01*
X761596Y175787D01*
G37*
G36*
X258490Y164611D02*
X258490Y164611D01*
X258492Y164610D01*
X258535Y164630D01*
X258579Y164648D01*
X258579Y164650D01*
X258581Y164651D01*
X258614Y164736D01*
X258614Y175436D01*
X258613Y175438D01*
X258614Y175440D01*
X258594Y175483D01*
X258576Y175527D01*
X258574Y175527D01*
X258573Y175529D01*
X258488Y175562D01*
X247788Y175562D01*
X247786Y175561D01*
X247784Y175562D01*
X247741Y175542D01*
X247697Y175524D01*
X247697Y175522D01*
X247695Y175521D01*
X247662Y175436D01*
X247662Y164736D01*
X247663Y164734D01*
X247662Y164732D01*
X247682Y164689D01*
X247700Y164645D01*
X247702Y164645D01*
X247703Y164643D01*
X247788Y164610D01*
X258488Y164610D01*
X258490Y164611D01*
G37*
G36*
X245790Y164611D02*
X245790Y164611D01*
X245792Y164610D01*
X245835Y164630D01*
X245879Y164648D01*
X245879Y164650D01*
X245881Y164651D01*
X245914Y164736D01*
X245914Y175436D01*
X245913Y175438D01*
X245914Y175440D01*
X245894Y175483D01*
X245876Y175527D01*
X245874Y175527D01*
X245873Y175529D01*
X245788Y175562D01*
X235088Y175562D01*
X235086Y175561D01*
X235084Y175562D01*
X235041Y175542D01*
X234997Y175524D01*
X234997Y175522D01*
X234995Y175521D01*
X234962Y175436D01*
X234962Y164736D01*
X234963Y164734D01*
X234962Y164732D01*
X234982Y164689D01*
X235000Y164645D01*
X235002Y164645D01*
X235003Y164643D01*
X235088Y164610D01*
X245788Y164610D01*
X245790Y164611D01*
G37*
G36*
X761596Y163087D02*
X761596Y163087D01*
X761598Y163086D01*
X761641Y163106D01*
X761685Y163124D01*
X761685Y163126D01*
X761687Y163127D01*
X761720Y163212D01*
X761720Y173912D01*
X761719Y173914D01*
X761720Y173916D01*
X761700Y173959D01*
X761682Y174003D01*
X761680Y174003D01*
X761679Y174005D01*
X761594Y174038D01*
X750894Y174038D01*
X750892Y174037D01*
X750890Y174038D01*
X750847Y174018D01*
X750803Y174000D01*
X750803Y173998D01*
X750801Y173997D01*
X750768Y173912D01*
X750768Y163212D01*
X750769Y163210D01*
X750768Y163208D01*
X750788Y163165D01*
X750806Y163121D01*
X750808Y163121D01*
X750809Y163119D01*
X750894Y163086D01*
X761594Y163086D01*
X761596Y163087D01*
G37*
G36*
X748896Y163087D02*
X748896Y163087D01*
X748898Y163086D01*
X748941Y163106D01*
X748985Y163124D01*
X748985Y163126D01*
X748987Y163127D01*
X749020Y163212D01*
X749020Y173912D01*
X749019Y173914D01*
X749020Y173916D01*
X749000Y173959D01*
X748982Y174003D01*
X748980Y174003D01*
X748979Y174005D01*
X748894Y174038D01*
X738194Y174038D01*
X738192Y174037D01*
X738190Y174038D01*
X738147Y174018D01*
X738103Y174000D01*
X738103Y173998D01*
X738101Y173997D01*
X738068Y173912D01*
X738068Y163212D01*
X738069Y163210D01*
X738068Y163208D01*
X738088Y163165D01*
X738106Y163121D01*
X738108Y163121D01*
X738109Y163119D01*
X738194Y163086D01*
X748894Y163086D01*
X748896Y163087D01*
G37*
G36*
X245790Y151911D02*
X245790Y151911D01*
X245792Y151910D01*
X245835Y151930D01*
X245879Y151948D01*
X245879Y151950D01*
X245881Y151951D01*
X245914Y152036D01*
X245914Y162736D01*
X245913Y162738D01*
X245914Y162740D01*
X245894Y162783D01*
X245876Y162827D01*
X245874Y162827D01*
X245873Y162829D01*
X245788Y162862D01*
X235088Y162862D01*
X235086Y162861D01*
X235084Y162862D01*
X235041Y162842D01*
X234997Y162824D01*
X234997Y162822D01*
X234995Y162821D01*
X234962Y162736D01*
X234962Y152036D01*
X234963Y152034D01*
X234962Y152032D01*
X234982Y151989D01*
X235000Y151945D01*
X235002Y151945D01*
X235003Y151943D01*
X235088Y151910D01*
X245788Y151910D01*
X245790Y151911D01*
G37*
G36*
X258490Y151911D02*
X258490Y151911D01*
X258492Y151910D01*
X258535Y151930D01*
X258579Y151948D01*
X258579Y151950D01*
X258581Y151951D01*
X258614Y152036D01*
X258614Y162736D01*
X258613Y162738D01*
X258614Y162740D01*
X258594Y162783D01*
X258576Y162827D01*
X258574Y162827D01*
X258573Y162829D01*
X258488Y162862D01*
X247788Y162862D01*
X247786Y162861D01*
X247784Y162862D01*
X247741Y162842D01*
X247697Y162824D01*
X247697Y162822D01*
X247695Y162821D01*
X247662Y162736D01*
X247662Y152036D01*
X247663Y152034D01*
X247662Y152032D01*
X247682Y151989D01*
X247700Y151945D01*
X247702Y151945D01*
X247703Y151943D01*
X247788Y151910D01*
X258488Y151910D01*
X258490Y151911D01*
G37*
G36*
X748896Y150387D02*
X748896Y150387D01*
X748898Y150386D01*
X748941Y150406D01*
X748985Y150424D01*
X748985Y150426D01*
X748987Y150427D01*
X749020Y150512D01*
X749020Y161212D01*
X749019Y161214D01*
X749020Y161216D01*
X749000Y161259D01*
X748982Y161303D01*
X748980Y161303D01*
X748979Y161305D01*
X748894Y161338D01*
X738194Y161338D01*
X738192Y161337D01*
X738190Y161338D01*
X738147Y161318D01*
X738103Y161300D01*
X738103Y161298D01*
X738101Y161297D01*
X738068Y161212D01*
X738068Y150512D01*
X738069Y150510D01*
X738068Y150508D01*
X738088Y150465D01*
X738106Y150421D01*
X738108Y150421D01*
X738109Y150419D01*
X738194Y150386D01*
X748894Y150386D01*
X748896Y150387D01*
G37*
G36*
X761596Y150387D02*
X761596Y150387D01*
X761598Y150386D01*
X761641Y150406D01*
X761685Y150424D01*
X761685Y150426D01*
X761687Y150427D01*
X761720Y150512D01*
X761720Y161212D01*
X761719Y161214D01*
X761720Y161216D01*
X761700Y161259D01*
X761682Y161303D01*
X761680Y161303D01*
X761679Y161305D01*
X761594Y161338D01*
X750894Y161338D01*
X750892Y161337D01*
X750890Y161338D01*
X750847Y161318D01*
X750803Y161300D01*
X750803Y161298D01*
X750801Y161297D01*
X750768Y161212D01*
X750768Y150512D01*
X750769Y150510D01*
X750768Y150508D01*
X750788Y150465D01*
X750806Y150421D01*
X750808Y150421D01*
X750809Y150419D01*
X750894Y150386D01*
X761594Y150386D01*
X761596Y150387D01*
G37*
D10*
X435046Y136472D03*
X435046Y155472D03*
X452594Y174572D03*
X452594Y155572D03*
D11*
G36*
X566873Y421431D02*
X557681Y412239D01*
X547075Y422845D01*
X556267Y432037D01*
X566873Y421431D01*
G37*
G36*
X580309Y434867D02*
X571117Y425675D01*
X560511Y436281D01*
X569703Y445473D01*
X580309Y434867D01*
G37*
G36*
X621431Y374689D02*
X630623Y383881D01*
X641229Y373275D01*
X632037Y364083D01*
X621431Y374689D01*
G37*
G36*
X607995Y361253D02*
X617187Y370445D01*
X627793Y359839D01*
X618601Y350647D01*
X607995Y361253D01*
G37*
X366422Y335986D03*
X385422Y335986D03*
X711444Y278344D03*
X692444Y278344D03*
D10*
X343876Y376994D03*
X343876Y357994D03*
X470528Y148638D03*
X470528Y129638D03*
X416344Y135692D03*
X416344Y154692D03*
X366816Y287032D03*
X366816Y306032D03*
D11*
X634916Y302272D03*
X653916Y302272D03*
D12*
G36*
X667726Y510396D02*
X657120Y499790D01*
X646514Y510396D01*
X657120Y521002D01*
X667726Y510396D01*
G37*
G36*
X692474Y485648D02*
X681868Y475042D01*
X671262Y485648D01*
X681868Y496254D01*
X692474Y485648D01*
G37*
G36*
X339792Y494220D02*
X329186Y504826D01*
X339792Y515432D01*
X350398Y504826D01*
X339792Y494220D01*
G37*
G36*
X315044Y469472D02*
X304438Y480078D01*
X315044Y490684D01*
X325650Y480078D01*
X315044Y469472D01*
G37*
D13*
G36*
X571277Y394972D02*
X557843Y408406D01*
X567743Y418306D01*
X581177Y404872D01*
X571277Y394972D01*
G37*
G36*
X602390Y363859D02*
X588956Y377293D01*
X598856Y387193D01*
X612290Y373759D01*
X602390Y363859D01*
G37*
G36*
X619361Y380830D02*
X605927Y394264D01*
X615827Y404164D01*
X629261Y390730D01*
X619361Y380830D01*
G37*
G36*
X588248Y411943D02*
X574814Y425377D01*
X584714Y435277D01*
X598148Y421843D01*
X588248Y411943D01*
G37*
D14*
X549954Y469018D03*
X571954Y478518D03*
X571954Y459518D03*
D15*
X719136Y749842D03*
X719136Y730842D03*
X649800Y748998D03*
X649800Y729998D03*
X620990Y747246D03*
X620990Y728246D03*
D16*
X530384Y167010D03*
X549384Y167010D03*
X529232Y133178D03*
X548232Y133178D03*
D15*
X312624Y361196D03*
X312624Y380196D03*
X550552Y749148D03*
X550552Y730148D03*
X519288Y747594D03*
X519288Y728594D03*
X431012Y748650D03*
X431012Y729650D03*
X398950Y747942D03*
X398950Y728942D03*
X846848Y751444D03*
X846848Y732444D03*
X363890Y749948D03*
X363890Y730948D03*
X299948Y750896D03*
X299948Y731896D03*
X264888Y751846D03*
X264888Y732846D03*
X201548Y752194D03*
X201548Y733194D03*
X169188Y749748D03*
X169188Y730748D03*
X481408Y748892D03*
X481408Y729892D03*
D16*
G36*
X292415Y449518D02*
X283222Y440325D01*
X271909Y451638D01*
X281102Y460831D01*
X292415Y449518D01*
G37*
G36*
X305851Y462954D02*
X296658Y453761D01*
X285345Y465074D01*
X294538Y474267D01*
X305851Y462954D01*
G37*
G36*
X699244Y458057D02*
X690051Y467250D01*
X701364Y478563D01*
X710557Y469370D01*
X699244Y458057D01*
G37*
G36*
X712680Y444621D02*
X703487Y453814D01*
X714800Y465127D01*
X723993Y455934D01*
X712680Y444621D01*
G37*
D15*
X590164Y479788D03*
X590164Y460788D03*
X799750Y750896D03*
X799750Y731896D03*
X751052Y749346D03*
X751052Y730346D03*
D17*
G36*
X376537Y448467D02*
X387496Y459426D01*
X396689Y450233D01*
X385730Y439274D01*
X376537Y448467D01*
G37*
G36*
X320322Y392252D02*
X331281Y403211D01*
X340474Y394018D01*
X329515Y383059D01*
X320322Y392252D01*
G37*
G36*
X344718Y480286D02*
X355677Y491245D01*
X364870Y482052D01*
X353911Y471093D01*
X344718Y480286D01*
G37*
G36*
X288503Y424071D02*
X299462Y435030D01*
X308655Y425837D01*
X297696Y414878D01*
X288503Y424071D01*
G37*
D18*
G36*
X602479Y315161D02*
X604275Y313365D01*
X593859Y302949D01*
X592063Y304745D01*
X602479Y315161D01*
G37*
G36*
X599066Y318574D02*
X600862Y316778D01*
X590446Y306362D01*
X588650Y308158D01*
X599066Y318574D01*
G37*
G36*
X595474Y322166D02*
X597270Y320370D01*
X586854Y309954D01*
X585058Y311750D01*
X595474Y322166D01*
G37*
G36*
X591882Y325758D02*
X593678Y323962D01*
X583262Y313546D01*
X581466Y315342D01*
X591882Y325758D01*
G37*
G36*
X588290Y329350D02*
X590086Y327554D01*
X579670Y317138D01*
X577874Y318934D01*
X588290Y329350D01*
G37*
G36*
X584877Y332762D02*
X586673Y330966D01*
X576257Y320550D01*
X574461Y322346D01*
X584877Y332762D01*
G37*
G36*
X581285Y336355D02*
X583081Y334559D01*
X572665Y324143D01*
X570869Y325939D01*
X581285Y336355D01*
G37*
G36*
X577693Y339947D02*
X579489Y338151D01*
X569073Y327735D01*
X567277Y329531D01*
X577693Y339947D01*
G37*
G36*
X574281Y343359D02*
X576077Y341563D01*
X565661Y331147D01*
X563865Y332943D01*
X574281Y343359D01*
G37*
G36*
X570689Y346951D02*
X572485Y345155D01*
X562069Y334739D01*
X560273Y336535D01*
X570689Y346951D01*
G37*
G36*
X567097Y350543D02*
X568893Y348747D01*
X558477Y338331D01*
X556681Y340127D01*
X567097Y350543D01*
G37*
G36*
X563684Y353956D02*
X565480Y352160D01*
X555064Y341744D01*
X553268Y343540D01*
X563684Y353956D01*
G37*
G36*
X560092Y357548D02*
X561888Y355752D01*
X551472Y345336D01*
X549676Y347132D01*
X560092Y357548D01*
G37*
G36*
X556500Y361140D02*
X558296Y359344D01*
X547880Y348928D01*
X546084Y350724D01*
X556500Y361140D01*
G37*
G36*
X553087Y364553D02*
X554883Y362757D01*
X544467Y352341D01*
X542671Y354137D01*
X553087Y364553D01*
G37*
G36*
X549495Y368145D02*
X551291Y366349D01*
X540875Y355933D01*
X539079Y357729D01*
X549495Y368145D01*
G37*
G36*
X545903Y371737D02*
X547699Y369941D01*
X537283Y359525D01*
X535487Y361321D01*
X545903Y371737D01*
G37*
G36*
X542491Y375149D02*
X544287Y373353D01*
X533871Y362937D01*
X532075Y364733D01*
X542491Y375149D01*
G37*
G36*
X538899Y378741D02*
X540695Y376945D01*
X530279Y366529D01*
X528483Y368325D01*
X538899Y378741D01*
G37*
G36*
X535306Y382333D02*
X537102Y380537D01*
X526686Y370121D01*
X524890Y371917D01*
X535306Y382333D01*
G37*
G36*
X531894Y385746D02*
X533690Y383950D01*
X523274Y373534D01*
X521478Y375330D01*
X531894Y385746D01*
G37*
G36*
X528302Y389338D02*
X530098Y387542D01*
X519682Y377126D01*
X517886Y378922D01*
X528302Y389338D01*
G37*
G36*
X524710Y392930D02*
X526506Y391134D01*
X516090Y380718D01*
X514294Y382514D01*
X524710Y392930D01*
G37*
G36*
X521118Y396522D02*
X522914Y394726D01*
X512498Y384310D01*
X510702Y386106D01*
X521118Y396522D01*
G37*
G36*
X517705Y399935D02*
X519501Y398139D01*
X509085Y387723D01*
X507289Y389519D01*
X517705Y399935D01*
G37*
G36*
X495075Y389519D02*
X493279Y387723D01*
X482863Y398139D01*
X484659Y399935D01*
X495075Y389519D01*
G37*
G36*
X491662Y386106D02*
X489866Y384310D01*
X479450Y394726D01*
X481246Y396522D01*
X491662Y386106D01*
G37*
G36*
X488070Y382514D02*
X486274Y380718D01*
X475858Y391134D01*
X477654Y392930D01*
X488070Y382514D01*
G37*
G36*
X484478Y378922D02*
X482682Y377126D01*
X472266Y387542D01*
X474062Y389338D01*
X484478Y378922D01*
G37*
G36*
X480886Y375330D02*
X479090Y373534D01*
X468674Y383950D01*
X470470Y385746D01*
X480886Y375330D01*
G37*
G36*
X477474Y371917D02*
X475678Y370121D01*
X465262Y380537D01*
X467058Y382333D01*
X477474Y371917D01*
G37*
G36*
X473881Y368325D02*
X472085Y366529D01*
X461669Y376945D01*
X463465Y378741D01*
X473881Y368325D01*
G37*
G36*
X470289Y364733D02*
X468493Y362937D01*
X458077Y373353D01*
X459873Y375149D01*
X470289Y364733D01*
G37*
G36*
X466877Y361321D02*
X465081Y359525D01*
X454665Y369941D01*
X456461Y371737D01*
X466877Y361321D01*
G37*
G36*
X463285Y357729D02*
X461489Y355933D01*
X451073Y366349D01*
X452869Y368145D01*
X463285Y357729D01*
G37*
G36*
X459693Y354137D02*
X457897Y352341D01*
X447481Y362757D01*
X449277Y364553D01*
X459693Y354137D01*
G37*
G36*
X456280Y350724D02*
X454484Y348928D01*
X444068Y359344D01*
X445864Y361140D01*
X456280Y350724D01*
G37*
G36*
X452688Y347132D02*
X450892Y345336D01*
X440476Y355752D01*
X442272Y357548D01*
X452688Y347132D01*
G37*
G36*
X449096Y343540D02*
X447300Y341744D01*
X436884Y352160D01*
X438680Y353956D01*
X449096Y343540D01*
G37*
G36*
X445683Y340127D02*
X443887Y338331D01*
X433471Y348747D01*
X435267Y350543D01*
X445683Y340127D01*
G37*
G36*
X442091Y336535D02*
X440295Y334739D01*
X429879Y345155D01*
X431675Y346951D01*
X442091Y336535D01*
G37*
G36*
X438499Y332943D02*
X436703Y331147D01*
X426287Y341563D01*
X428083Y343359D01*
X438499Y332943D01*
G37*
G36*
X435087Y329531D02*
X433291Y327735D01*
X422875Y338151D01*
X424671Y339947D01*
X435087Y329531D01*
G37*
G36*
X431495Y325939D02*
X429699Y324143D01*
X419283Y334559D01*
X421079Y336355D01*
X431495Y325939D01*
G37*
G36*
X427903Y322346D02*
X426107Y320550D01*
X415691Y330966D01*
X417487Y332762D01*
X427903Y322346D01*
G37*
G36*
X424490Y318934D02*
X422694Y317138D01*
X412278Y327554D01*
X414074Y329350D01*
X424490Y318934D01*
G37*
G36*
X420898Y315342D02*
X419102Y313546D01*
X408686Y323962D01*
X410482Y325758D01*
X420898Y315342D01*
G37*
G36*
X417306Y311750D02*
X415510Y309954D01*
X405094Y320370D01*
X406890Y322166D01*
X417306Y311750D01*
G37*
G36*
X413714Y308158D02*
X411918Y306362D01*
X401502Y316778D01*
X403298Y318574D01*
X413714Y308158D01*
G37*
G36*
X410301Y304745D02*
X408505Y302949D01*
X398089Y313365D01*
X399885Y315161D01*
X410301Y304745D01*
G37*
G36*
X408505Y290735D02*
X410301Y288939D01*
X399885Y278523D01*
X398089Y280319D01*
X408505Y290735D01*
G37*
G36*
X411918Y287322D02*
X413714Y285526D01*
X403298Y275110D01*
X401502Y276906D01*
X411918Y287322D01*
G37*
G36*
X415510Y283730D02*
X417306Y281934D01*
X406890Y271518D01*
X405094Y273314D01*
X415510Y283730D01*
G37*
G36*
X419102Y280138D02*
X420898Y278342D01*
X410482Y267926D01*
X408686Y269722D01*
X419102Y280138D01*
G37*
G36*
X422694Y276546D02*
X424490Y274750D01*
X414074Y264334D01*
X412278Y266130D01*
X422694Y276546D01*
G37*
G36*
X426107Y273134D02*
X427903Y271338D01*
X417487Y260922D01*
X415691Y262718D01*
X426107Y273134D01*
G37*
G36*
X429699Y269541D02*
X431495Y267745D01*
X421079Y257329D01*
X419283Y259125D01*
X429699Y269541D01*
G37*
G36*
X433291Y265949D02*
X435087Y264153D01*
X424671Y253737D01*
X422875Y255533D01*
X433291Y265949D01*
G37*
G36*
X436703Y262537D02*
X438499Y260741D01*
X428083Y250325D01*
X426287Y252121D01*
X436703Y262537D01*
G37*
G36*
X440295Y258945D02*
X442091Y257149D01*
X431675Y246733D01*
X429879Y248529D01*
X440295Y258945D01*
G37*
G36*
X443887Y255353D02*
X445683Y253557D01*
X435267Y243141D01*
X433471Y244937D01*
X443887Y255353D01*
G37*
G36*
X447300Y251940D02*
X449096Y250144D01*
X438680Y239728D01*
X436884Y241524D01*
X447300Y251940D01*
G37*
G36*
X450892Y248348D02*
X452688Y246552D01*
X442272Y236136D01*
X440476Y237932D01*
X450892Y248348D01*
G37*
G36*
X454484Y244756D02*
X456280Y242960D01*
X445864Y232544D01*
X444068Y234340D01*
X454484Y244756D01*
G37*
G36*
X457897Y241343D02*
X459693Y239547D01*
X449277Y229131D01*
X447481Y230927D01*
X457897Y241343D01*
G37*
G36*
X461489Y237751D02*
X463285Y235955D01*
X452869Y225539D01*
X451073Y227335D01*
X461489Y237751D01*
G37*
G36*
X465081Y234159D02*
X466877Y232363D01*
X456461Y221947D01*
X454665Y223743D01*
X465081Y234159D01*
G37*
G36*
X468493Y230747D02*
X470289Y228951D01*
X459873Y218535D01*
X458077Y220331D01*
X468493Y230747D01*
G37*
G36*
X472085Y227155D02*
X473881Y225359D01*
X463465Y214943D01*
X461669Y216739D01*
X472085Y227155D01*
G37*
G36*
X475678Y223563D02*
X477474Y221767D01*
X467058Y211351D01*
X465262Y213147D01*
X475678Y223563D01*
G37*
G36*
X479090Y220150D02*
X480886Y218354D01*
X470470Y207938D01*
X468674Y209734D01*
X479090Y220150D01*
G37*
G36*
X482682Y216558D02*
X484478Y214762D01*
X474062Y204346D01*
X472266Y206142D01*
X482682Y216558D01*
G37*
G36*
X486274Y212966D02*
X488070Y211170D01*
X477654Y200754D01*
X475858Y202550D01*
X486274Y212966D01*
G37*
G36*
X489866Y209374D02*
X491662Y207578D01*
X481246Y197162D01*
X479450Y198958D01*
X489866Y209374D01*
G37*
G36*
X493279Y205961D02*
X495075Y204165D01*
X484659Y193749D01*
X482863Y195545D01*
X493279Y205961D01*
G37*
G36*
X519501Y195545D02*
X517705Y193749D01*
X507289Y204165D01*
X509085Y205961D01*
X519501Y195545D01*
G37*
G36*
X522914Y198958D02*
X521118Y197162D01*
X510702Y207578D01*
X512498Y209374D01*
X522914Y198958D01*
G37*
G36*
X526506Y202550D02*
X524710Y200754D01*
X514294Y211170D01*
X516090Y212966D01*
X526506Y202550D01*
G37*
G36*
X530098Y206142D02*
X528302Y204346D01*
X517886Y214762D01*
X519682Y216558D01*
X530098Y206142D01*
G37*
G36*
X533690Y209734D02*
X531894Y207938D01*
X521478Y218354D01*
X523274Y220150D01*
X533690Y209734D01*
G37*
G36*
X537102Y213147D02*
X535306Y211351D01*
X524890Y221767D01*
X526686Y223563D01*
X537102Y213147D01*
G37*
G36*
X540695Y216739D02*
X538899Y214943D01*
X528483Y225359D01*
X530279Y227155D01*
X540695Y216739D01*
G37*
G36*
X544287Y220331D02*
X542491Y218535D01*
X532075Y228951D01*
X533871Y230747D01*
X544287Y220331D01*
G37*
G36*
X547699Y223743D02*
X545903Y221947D01*
X535487Y232363D01*
X537283Y234159D01*
X547699Y223743D01*
G37*
G36*
X551291Y227335D02*
X549495Y225539D01*
X539079Y235955D01*
X540875Y237751D01*
X551291Y227335D01*
G37*
G36*
X554883Y230927D02*
X553087Y229131D01*
X542671Y239547D01*
X544467Y241343D01*
X554883Y230927D01*
G37*
G36*
X558296Y234340D02*
X556500Y232544D01*
X546084Y242960D01*
X547880Y244756D01*
X558296Y234340D01*
G37*
G36*
X561888Y237932D02*
X560092Y236136D01*
X549676Y246552D01*
X551472Y248348D01*
X561888Y237932D01*
G37*
G36*
X565480Y241524D02*
X563684Y239728D01*
X553268Y250144D01*
X555064Y251940D01*
X565480Y241524D01*
G37*
G36*
X568893Y244937D02*
X567097Y243141D01*
X556681Y253557D01*
X558477Y255353D01*
X568893Y244937D01*
G37*
G36*
X572485Y248529D02*
X570689Y246733D01*
X560273Y257149D01*
X562069Y258945D01*
X572485Y248529D01*
G37*
G36*
X576077Y252121D02*
X574281Y250325D01*
X563865Y260741D01*
X565661Y262537D01*
X576077Y252121D01*
G37*
G36*
X579489Y255533D02*
X577693Y253737D01*
X567277Y264153D01*
X569073Y265949D01*
X579489Y255533D01*
G37*
G36*
X583081Y259125D02*
X581285Y257329D01*
X570869Y267745D01*
X572665Y269541D01*
X583081Y259125D01*
G37*
G36*
X586673Y262718D02*
X584877Y260922D01*
X574461Y271338D01*
X576257Y273134D01*
X586673Y262718D01*
G37*
G36*
X590086Y266130D02*
X588290Y264334D01*
X577874Y274750D01*
X579670Y276546D01*
X590086Y266130D01*
G37*
G36*
X593678Y269722D02*
X591882Y267926D01*
X581466Y278342D01*
X583262Y280138D01*
X593678Y269722D01*
G37*
G36*
X597270Y273314D02*
X595474Y271518D01*
X585058Y281934D01*
X586854Y283730D01*
X597270Y273314D01*
G37*
G36*
X600862Y276906D02*
X599066Y275110D01*
X588650Y285526D01*
X590446Y287322D01*
X600862Y276906D01*
G37*
G36*
X604275Y280319D02*
X602479Y278523D01*
X592063Y288939D01*
X593859Y290735D01*
X604275Y280319D01*
G37*
D17*
G36*
X640017Y467081D02*
X629058Y478040D01*
X638251Y487233D01*
X649210Y476274D01*
X640017Y467081D01*
G37*
G36*
X696232Y410866D02*
X685273Y421825D01*
X694466Y431018D01*
X705425Y420059D01*
X696232Y410866D01*
G37*
G36*
X608198Y435262D02*
X597239Y446221D01*
X606432Y455414D01*
X617391Y444455D01*
X608198Y435262D01*
G37*
G36*
X664413Y379047D02*
X653454Y390006D01*
X662647Y399199D01*
X673606Y388240D01*
X664413Y379047D01*
G37*
D19*
X264288Y198666D03*
X259288Y198666D03*
X254288Y198666D03*
X249288Y198666D03*
X244288Y198666D03*
X239288Y198666D03*
X234288Y198666D03*
X229288Y198666D03*
D20*
X226208Y184086D03*
X226208Y177086D03*
X226208Y170086D03*
X226208Y163086D03*
X226208Y156086D03*
D19*
X229288Y142522D03*
X234288Y142522D03*
X239288Y142522D03*
X244288Y142522D03*
X249288Y142522D03*
X254288Y142522D03*
X259288Y142522D03*
X264288Y142522D03*
D20*
X266352Y156086D03*
X266352Y163086D03*
X266352Y170086D03*
X266352Y177086D03*
X266352Y184086D03*
D11*
X220044Y114780D03*
X239044Y114780D03*
D10*
X288952Y140282D03*
X288952Y121282D03*
D11*
X271324Y102588D03*
X290324Y102588D03*
D19*
X767394Y197142D03*
X762394Y197142D03*
X757394Y197142D03*
X752394Y197142D03*
X747394Y197142D03*
X742394Y197142D03*
X737394Y197142D03*
X732394Y197142D03*
D20*
X729314Y182562D03*
X729314Y175562D03*
X729314Y168562D03*
X729314Y161562D03*
X729314Y154562D03*
D19*
X732394Y140998D03*
X737394Y140998D03*
X742394Y140998D03*
X747394Y140998D03*
X752394Y140998D03*
X757394Y140998D03*
X762394Y140998D03*
X767394Y140998D03*
D20*
X769458Y154562D03*
X769458Y161562D03*
X769458Y168562D03*
X769458Y175562D03*
X769458Y182562D03*
D11*
X721606Y118356D03*
X740606Y118356D03*
X794446Y119540D03*
X775446Y119540D03*
X756478Y101374D03*
X775478Y101374D03*
D15*
X142048Y333204D03*
X142048Y314204D03*
X165440Y333204D03*
X165440Y314204D03*
X846464Y330996D03*
X846464Y311996D03*
X869512Y331716D03*
X869512Y312716D03*
D21*
X625340Y71097D03*
X634840Y71097D03*
X644340Y71097D03*
X644340Y98599D03*
X634840Y98599D03*
X625340Y98599D03*
D10*
X610096Y104844D03*
X610096Y85844D03*
D11*
X680556Y67912D03*
X661556Y67912D03*
X679564Y87536D03*
X660564Y87536D03*
X577908Y122416D03*
X596908Y122416D03*
X577908Y158992D03*
X596908Y158992D03*
X577908Y140704D03*
X596908Y140704D03*
D22*
X636448Y125484D03*
X636448Y162484D03*
D23*
X507500Y165000D03*
X502500Y165000D03*
X497500Y165000D03*
X492500Y165000D03*
D24*
X487500Y155000D03*
X487500Y150000D03*
X487500Y145000D03*
D23*
X492500Y135000D03*
X497500Y135000D03*
X502500Y135000D03*
X507500Y135000D03*
D24*
X512500Y145000D03*
X512500Y150000D03*
X512500Y155000D03*
D25*
X630460Y215808D03*
X630460Y206808D03*
X630460Y197808D03*
X658460Y197808D03*
X658460Y215808D03*
D11*
X710660Y299832D03*
X691660Y299832D03*
D26*
X500288Y69848D03*
X492288Y69848D03*
X516288Y69848D03*
X508288Y69848D03*
D27*
X545288Y14848D03*
X455288Y14848D03*
X545288Y69848D03*
X455288Y69848D03*
D26*
X484288Y69848D03*
D23*
X527500Y477500D03*
X522500Y477500D03*
X517500Y477500D03*
X512500Y477500D03*
X507500Y477500D03*
X502500Y477500D03*
X497500Y477500D03*
X492500Y477500D03*
X487500Y477500D03*
X482500Y477500D03*
X477500Y477500D03*
X472500Y477500D03*
D28*
X453500Y510000D03*
X546500Y510000D03*
D23*
X472500Y682604D03*
X477500Y682604D03*
X482500Y682604D03*
X487500Y682604D03*
X492500Y682604D03*
X497500Y682604D03*
X502500Y682604D03*
X507500Y682604D03*
X512500Y682604D03*
X517500Y682604D03*
X522500Y682604D03*
X527500Y682604D03*
D28*
X546500Y650104D03*
X453500Y650104D03*
D29*
G36*
X592465Y514932D02*
X594587Y512810D01*
X588931Y507154D01*
X586809Y509276D01*
X592465Y514932D01*
G37*
G36*
X588929Y518468D02*
X591051Y516346D01*
X585395Y510690D01*
X583273Y512812D01*
X588929Y518468D01*
G37*
G36*
X585394Y522003D02*
X587516Y519881D01*
X581860Y514225D01*
X579738Y516347D01*
X585394Y522003D01*
G37*
G36*
X581858Y525539D02*
X583980Y523417D01*
X578324Y517761D01*
X576202Y519883D01*
X581858Y525539D01*
G37*
D30*
G36*
X574434Y536499D02*
X560293Y550640D01*
X573728Y564075D01*
X587869Y549934D01*
X574434Y536499D01*
G37*
G36*
X618982Y518821D02*
X633123Y504680D01*
X619688Y491245D01*
X605547Y505386D01*
X618982Y518821D01*
G37*
D29*
G36*
X413748Y523801D02*
X415870Y525923D01*
X421526Y520267D01*
X419404Y518145D01*
X413748Y523801D01*
G37*
G36*
X410212Y520265D02*
X412334Y522387D01*
X417990Y516731D01*
X415868Y514609D01*
X410212Y520265D01*
G37*
G36*
X406677Y516730D02*
X408799Y518852D01*
X414455Y513196D01*
X412333Y511074D01*
X406677Y516730D01*
G37*
G36*
X403141Y513194D02*
X405263Y515316D01*
X410919Y509660D01*
X408797Y507538D01*
X403141Y513194D01*
G37*
D30*
G36*
X392181Y505770D02*
X378040Y491629D01*
X364605Y505064D01*
X378746Y519205D01*
X392181Y505770D01*
G37*
G36*
X409859Y550318D02*
X424000Y564459D01*
X437435Y551024D01*
X423294Y536883D01*
X409859Y550318D01*
G37*
D29*
G36*
X750329Y360052D02*
X752451Y357930D01*
X746795Y352274D01*
X744673Y354396D01*
X750329Y360052D01*
G37*
G36*
X746793Y363588D02*
X748915Y361466D01*
X743259Y355810D01*
X741137Y357932D01*
X746793Y363588D01*
G37*
G36*
X743258Y367123D02*
X745380Y365001D01*
X739724Y359345D01*
X737602Y361467D01*
X743258Y367123D01*
G37*
G36*
X739722Y370659D02*
X741844Y368537D01*
X736188Y362881D01*
X734066Y365003D01*
X739722Y370659D01*
G37*
D30*
G36*
X732298Y381619D02*
X718157Y395760D01*
X731592Y409195D01*
X745733Y395054D01*
X732298Y381619D01*
G37*
G36*
X776846Y363941D02*
X790987Y349800D01*
X777552Y336365D01*
X763411Y350506D01*
X776846Y363941D01*
G37*
D31*
X134240Y279556D03*
X134240Y214556D03*
X864904Y283716D03*
X864904Y218716D03*
X180000Y92500D03*
X180000Y27500D03*
X820000Y92500D03*
X820000Y27500D03*
D15*
X395928Y135716D03*
X395928Y154716D03*
D32*
X301916Y73152D03*
X258916Y73152D03*
M02*
