G04 EAGLE Gerber RS-274X export*
G75*
%MOMM*%
%FSLAX34Y34*%
%LPD*%
%IN*%
%IPPOS*%
%AMOC8*
5,1,8,0,0,1.08239X$1,22.5*%
G01*
%ADD10C,0.254000*%


D10*
X-20000Y160000D02*
X20000Y120000D01*
X420000Y120000D01*
X680000Y330856D01*
X750000Y330856D01*
X780000Y310000D01*
X780000Y10000D01*
X800000Y-10000D01*
X890000Y-10000D01*
X910000Y10000D01*
X910000Y850000D01*
X890000Y870000D01*
X800000Y870000D01*
X780000Y850000D01*
X780000Y550000D01*
X750000Y529144D01*
X680000Y529144D01*
X420000Y740000D01*
X20000Y740000D01*
X-20000Y700000D01*
X-20000Y160000D01*
X49464Y685000D02*
X48396Y685076D01*
X47335Y685229D01*
X46288Y685457D01*
X45260Y685759D01*
X44256Y686133D01*
X43281Y686578D01*
X42341Y687092D01*
X41440Y687671D01*
X40582Y688313D01*
X39772Y689015D01*
X39015Y689772D01*
X38313Y690582D01*
X37671Y691440D01*
X37092Y692341D01*
X36578Y693281D01*
X36133Y694256D01*
X35759Y695260D01*
X35457Y696288D01*
X35229Y697335D01*
X35076Y698396D01*
X35000Y699464D01*
X35000Y700536D01*
X35076Y701604D01*
X35229Y702665D01*
X35457Y703712D01*
X35759Y704740D01*
X36133Y705744D01*
X36578Y706719D01*
X37092Y707659D01*
X37671Y708560D01*
X38313Y709418D01*
X39015Y710228D01*
X39772Y710985D01*
X40582Y711687D01*
X41440Y712329D01*
X42341Y712908D01*
X43281Y713422D01*
X44256Y713867D01*
X45260Y714241D01*
X46288Y714543D01*
X47335Y714771D01*
X48396Y714924D01*
X49464Y715000D01*
X50536Y715000D01*
X51604Y714924D01*
X52665Y714771D01*
X53712Y714543D01*
X54740Y714241D01*
X55744Y713867D01*
X56719Y713422D01*
X57659Y712908D01*
X58560Y712329D01*
X59418Y711687D01*
X60228Y710985D01*
X60985Y710228D01*
X61687Y709418D01*
X62329Y708560D01*
X62908Y707659D01*
X63422Y706719D01*
X63867Y705744D01*
X64241Y704740D01*
X64543Y703712D01*
X64771Y702665D01*
X64924Y701604D01*
X65000Y700536D01*
X65000Y699464D01*
X64924Y698396D01*
X64771Y697335D01*
X64543Y696288D01*
X64241Y695260D01*
X63867Y694256D01*
X63422Y693281D01*
X62908Y692341D01*
X62329Y691440D01*
X61687Y690582D01*
X60985Y689772D01*
X60228Y689015D01*
X59418Y688313D01*
X58560Y687671D01*
X57659Y687092D01*
X56719Y686578D01*
X55744Y686133D01*
X54740Y685759D01*
X53712Y685457D01*
X52665Y685229D01*
X51604Y685076D01*
X50536Y685000D01*
X49464Y685000D01*
X289464Y685000D02*
X288396Y685076D01*
X287335Y685229D01*
X286288Y685457D01*
X285260Y685759D01*
X284256Y686133D01*
X283281Y686578D01*
X282341Y687092D01*
X281440Y687671D01*
X280582Y688313D01*
X279772Y689015D01*
X279015Y689772D01*
X278313Y690582D01*
X277671Y691440D01*
X277092Y692341D01*
X276578Y693281D01*
X276133Y694256D01*
X275759Y695260D01*
X275457Y696288D01*
X275229Y697335D01*
X275076Y698396D01*
X275000Y699464D01*
X275000Y700536D01*
X275076Y701604D01*
X275229Y702665D01*
X275457Y703712D01*
X275759Y704740D01*
X276133Y705744D01*
X276578Y706719D01*
X277092Y707659D01*
X277671Y708560D01*
X278313Y709418D01*
X279015Y710228D01*
X279772Y710985D01*
X280582Y711687D01*
X281440Y712329D01*
X282341Y712908D01*
X283281Y713422D01*
X284256Y713867D01*
X285260Y714241D01*
X286288Y714543D01*
X287335Y714771D01*
X288396Y714924D01*
X289464Y715000D01*
X290536Y715000D01*
X291604Y714924D01*
X292665Y714771D01*
X293712Y714543D01*
X294740Y714241D01*
X295744Y713867D01*
X296719Y713422D01*
X297659Y712908D01*
X298560Y712329D01*
X299418Y711687D01*
X300228Y710985D01*
X300985Y710228D01*
X301687Y709418D01*
X302329Y708560D01*
X302908Y707659D01*
X303422Y706719D01*
X303867Y705744D01*
X304241Y704740D01*
X304543Y703712D01*
X304771Y702665D01*
X304924Y701604D01*
X305000Y700536D01*
X305000Y699464D01*
X304924Y698396D01*
X304771Y697335D01*
X304543Y696288D01*
X304241Y695260D01*
X303867Y694256D01*
X303422Y693281D01*
X302908Y692341D01*
X302329Y691440D01*
X301687Y690582D01*
X300985Y689772D01*
X300228Y689015D01*
X299418Y688313D01*
X298560Y687671D01*
X297659Y687092D01*
X296719Y686578D01*
X295744Y686133D01*
X294740Y685759D01*
X293712Y685457D01*
X292665Y685229D01*
X291604Y685076D01*
X290536Y685000D01*
X289464Y685000D01*
X290536Y175000D02*
X291604Y174924D01*
X292665Y174771D01*
X293712Y174543D01*
X294740Y174241D01*
X295744Y173867D01*
X296719Y173422D01*
X297659Y172908D01*
X298560Y172329D01*
X299418Y171687D01*
X300228Y170985D01*
X300985Y170228D01*
X301687Y169418D01*
X302329Y168560D01*
X302908Y167659D01*
X303422Y166719D01*
X303867Y165744D01*
X304241Y164740D01*
X304543Y163712D01*
X304771Y162665D01*
X304924Y161604D01*
X305000Y160536D01*
X305000Y159464D01*
X304924Y158396D01*
X304771Y157335D01*
X304543Y156288D01*
X304241Y155260D01*
X303867Y154256D01*
X303422Y153281D01*
X302908Y152341D01*
X302329Y151440D01*
X301687Y150582D01*
X300985Y149772D01*
X300228Y149015D01*
X299418Y148313D01*
X298560Y147671D01*
X297659Y147092D01*
X296719Y146578D01*
X295744Y146133D01*
X294740Y145759D01*
X293712Y145457D01*
X292665Y145229D01*
X291604Y145076D01*
X290536Y145000D01*
X289464Y145000D01*
X288396Y145076D01*
X287335Y145229D01*
X286288Y145457D01*
X285260Y145759D01*
X284256Y146133D01*
X283281Y146578D01*
X282341Y147092D01*
X281440Y147671D01*
X280582Y148313D01*
X279772Y149015D01*
X279015Y149772D01*
X278313Y150582D01*
X277671Y151440D01*
X277092Y152341D01*
X276578Y153281D01*
X276133Y154256D01*
X275759Y155260D01*
X275457Y156288D01*
X275229Y157335D01*
X275076Y158396D01*
X275000Y159464D01*
X275000Y160536D01*
X275076Y161604D01*
X275229Y162665D01*
X275457Y163712D01*
X275759Y164740D01*
X276133Y165744D01*
X276578Y166719D01*
X277092Y167659D01*
X277671Y168560D01*
X278313Y169418D01*
X279015Y170228D01*
X279772Y170985D01*
X280582Y171687D01*
X281440Y172329D01*
X282341Y172908D01*
X283281Y173422D01*
X284256Y173867D01*
X285260Y174241D01*
X286288Y174543D01*
X287335Y174771D01*
X288396Y174924D01*
X289464Y175000D01*
X290536Y175000D01*
X50536Y175000D02*
X51604Y174924D01*
X52665Y174771D01*
X53712Y174543D01*
X54740Y174241D01*
X55744Y173867D01*
X56719Y173422D01*
X57659Y172908D01*
X58560Y172329D01*
X59418Y171687D01*
X60228Y170985D01*
X60985Y170228D01*
X61687Y169418D01*
X62329Y168560D01*
X62908Y167659D01*
X63422Y166719D01*
X63867Y165744D01*
X64241Y164740D01*
X64543Y163712D01*
X64771Y162665D01*
X64924Y161604D01*
X65000Y160536D01*
X65000Y159464D01*
X64924Y158396D01*
X64771Y157335D01*
X64543Y156288D01*
X64241Y155260D01*
X63867Y154256D01*
X63422Y153281D01*
X62908Y152341D01*
X62329Y151440D01*
X61687Y150582D01*
X60985Y149772D01*
X60228Y149015D01*
X59418Y148313D01*
X58560Y147671D01*
X57659Y147092D01*
X56719Y146578D01*
X55744Y146133D01*
X54740Y145759D01*
X53712Y145457D01*
X52665Y145229D01*
X51604Y145076D01*
X50536Y145000D01*
X49464Y145000D01*
X48396Y145076D01*
X47335Y145229D01*
X46288Y145457D01*
X45260Y145759D01*
X44256Y146133D01*
X43281Y146578D01*
X42341Y147092D01*
X41440Y147671D01*
X40582Y148313D01*
X39772Y149015D01*
X39015Y149772D01*
X38313Y150582D01*
X37671Y151440D01*
X37092Y152341D01*
X36578Y153281D01*
X36133Y154256D01*
X35759Y155260D01*
X35457Y156288D01*
X35229Y157335D01*
X35076Y158396D01*
X35000Y159464D01*
X35000Y160536D01*
X35076Y161604D01*
X35229Y162665D01*
X35457Y163712D01*
X35759Y164740D01*
X36133Y165744D01*
X36578Y166719D01*
X37092Y167659D01*
X37671Y168560D01*
X38313Y169418D01*
X39015Y170228D01*
X39772Y170985D01*
X40582Y171687D01*
X41440Y172329D01*
X42341Y172908D01*
X43281Y173422D01*
X44256Y173867D01*
X45260Y174241D01*
X46288Y174543D01*
X47335Y174771D01*
X48396Y174924D01*
X49464Y175000D01*
X50536Y175000D01*
M02*
