M48
;GenerationSoftware,Autodesk,EAGLE,9.6.0*%
;CreationDate,2024-02-04T09:28:07Z*%
FMAT,2
ICI,OFF
METRIC,TZ,000.000
T6C0.350
T5C0.900
T4C0.914
T3C1.000
T2C1.016
T1C3.000
%
G90
M71
T1
X4000Y3000
X4000Y27000
X96000Y27000
X96000Y3000
T2
X89995Y33000
X92535Y33000
X95075Y33000
X97615Y33000
X21688Y33858
X19892Y35654
X23484Y35654
X21688Y37450
X25280Y37450
X23484Y39246
X27076Y39246
X25280Y41042
X2899Y32699
X5439Y32699
X7979Y32699
X10519Y32699
T3
X12700Y15000
X12700Y17540
X12700Y12460
X87300Y12460
X87300Y15000
X87300Y17540
T4
X26808Y3676
X29348Y3676
X84730Y36000
X87270Y36000
X73508Y3658
X70968Y3658
T5
X52229Y4485
X47829Y4485
T6
X72238Y21031
X56693Y13106
X27432Y19507
X55169Y31699
X59131Y36576
X57912Y49073
X30480Y32918
X44501Y46939
X36271Y44806
X49682Y41453
X55474Y39624
X46939Y26213
X39929Y25908
X43891Y28346
X42977Y36271
X23774Y26822
X18898Y22555
X92354Y6401
X51206Y22555
X63703Y41758
X54864Y53340
X45110Y53340
X23165Y6706
X68885Y38405
X75895Y37795
X61874Y54559
X38100Y54559
X35966Y39319
X9449Y28651
X9449Y1524
X35357Y5182
X90526Y1524
X90526Y28651
X83515Y12802
X75590Y26213
X75590Y33223
X42062Y61265
X42977Y61265
X43891Y61265
X44806Y61265
X45720Y61265
X46634Y61265
X47549Y61265
X48463Y61265
X49378Y61265
X50292Y61265
X51206Y61265
X52121Y61265
X53035Y61265
X53950Y61265
X54864Y61265
X55778Y61265
X56693Y61265
X57607Y61265
X41586Y60662
X58046Y60662
X42501Y60662
X57131Y60662
X43415Y60662
X56217Y60662
X44330Y60662
X55302Y60662
X45244Y60662
X54388Y60662
X46158Y60662
X53474Y60662
X52559Y60662
X47073Y60662
X47987Y60662
X51645Y60662
X50730Y60662
X48902Y60662
X49816Y60662
X58655Y61271
X59265Y60662
X40977Y61271
X40367Y60662
X41607Y77116
X21607Y77116
X31607Y77116
X68607Y77116
X78607Y77116
X83607Y70116
X77607Y72116
X16607Y70116
X24607Y71116
X32357Y9839
X20165Y12706
X58217Y77114
X84125Y9449
X66142Y9754
X81991Y17374
X81991Y15240
X81991Y11278
X55169Y69190
X56388Y72847
X17374Y71628
X50597Y72847
X84734Y71933
X21641Y73762
X32004Y73457
X41453Y73762
X68885Y73457
X60046Y73457
X76505Y73457
X66446Y18593
X62789Y31699
X74066Y33223
X71323Y31699
X79858Y31699
X15850Y28042
X30175Y39929
X19812Y29566
X43586Y45415
X49378Y36881
X59893Y49530
X53645Y48158
X48158Y33528
X55778Y20117
X53645Y15240
X54559Y20422
X52121Y17069
X70409Y37186
X72542Y44196
X48768Y24384
X24587Y31293
X28245Y34138
X48463Y23165
X67056Y24994
X71323Y24994
X78638Y27127
X85649Y75286
X76810Y75590
X65000Y74950
X54559Y74981
X45415Y74066
X35000Y74950
X23774Y74676
X14935Y73762
X51511Y35966
X54559Y43586
X34442Y34442
X48768Y28346
X78638Y75286
X70561Y74828
X62099Y74725
X50597Y74676
X40843Y74981
X31090Y74981
X18898Y74981
X49378Y74981
X61570Y46634
X60046Y53950
X40843Y48158
X69799Y34138
X51816Y28956
X53645Y69190
X32918Y24994
X47549Y29870
X38710Y28042
X65837Y28346
X88087Y31699
X83820Y30175
X67361Y28956
X19202Y17678
X19202Y16154
X68885Y16154
X52730Y25908
X42672Y17678
X52121Y18898
X24384Y32918
X18593Y31699
X76810Y24384
X30175Y26518
X61570Y22250
X60350Y20422
X81991Y25908
X62789Y28042
X35052Y17678
X35357Y8839
X70409Y11887
X67970Y27737
X67970Y20117
X77724Y3962
X78943Y3962
X84125Y22250
X78638Y22250
X74066Y10363
X52121Y10058
X46025Y14630
X47854Y16459
X57912Y17374
X67361Y16154
X67361Y11887
X56693Y10973
X56693Y5791
X43891Y2438
X43891Y7010
X14021Y2743
X15545Y2743
X21336Y2743
X10973Y20726
X57607Y69116
X24994Y11278
X20117Y2743
X46330Y68202
X45415Y69116
X57912Y71933
X53950Y77114
X31090Y18288
M30